<svg width="16" height="16" viewBox="0 0 16 16" fill="none" xmlns="http://www.w3.org/2000/svg">
<path fill-rule="evenodd" clip-rule="evenodd" d="M6.75672 3.01929C5.00068 3.55529 4.00008 5.20235 4.00008 7.16667V10.5L2.66675 11.8333V12.5H13.3334V11.8333L12.0001 10.5V9.33334C11.5397 9.33334 11.0929 9.275 10.6667 9.16531V11.1667H5.33341V7.16667C5.33341 6.01016 5.82598 5.0037 6.69018 4.50326C6.67467 4.33759 6.66675 4.16972 6.66675 4C6.66675 3.66499 6.69764 3.33718 6.75672 3.01929ZM9.33341 13.1667C9.33341 13.9 8.73341 14.5 8.00008 14.5C7.26675 14.5 6.66675 13.9 6.66675 13.1667H9.33341Z" fill="#777777"/>
<circle cx="12" cy="4" r="4" fill="#E84855"/>
</svg>
