<svg width="12" height="15" viewBox="0 0 12 15" fill="none" xmlns="http://www.w3.org/2000/svg">
<path d="M12 11.6562V12.3438H0V11.6562L1.34375 10.3438V6.34375C1.34375 5.28125 1.64583 4.35417 2.25 3.5625C2.85417 2.75 3.65625 2.1875 4.65625 1.875V1.65625C4.67708 1.28125 4.8125 0.96875 5.0625 0.71875C5.3125 0.46875 5.625 0.34375 6 0.34375C6.375 0.34375 6.6875 0.46875 6.9375 0.71875C7.1875 0.96875 7.32292 1.28125 7.34375 1.65625V1.875C8.34375 2.1875 9.14583 2.75 9.75 3.5625C10.3542 4.35417 10.6562 5.28125 10.6562 6.34375V10.3438L12 11.6562ZM7.34375 13C7.32292 13.375 7.1875 13.6875 6.9375 13.9375C6.6875 14.1875 6.375 14.3125 6 14.3125C5.625 14.3125 5.3125 14.1875 5.0625 13.9375C4.8125 13.6875 4.67708 13.375 4.65625 13H7.34375Z" fill="#3D3D3D"/>
</svg>
