<svg width="18" height="15" viewBox="0 0 18 15" fill="none" xmlns="http://www.w3.org/2000/svg">
<path d="M14.5936 5.45335C14.4528 2.97835 12.4744 1 10.0891 1C8.64107 1 7.23893 1.73233 6.3704 2.9272C6.3504 2.91648 6.32933 2.90905 6.30907 2.89915C6.25627 2.87275 6.20267 2.84773 6.148 2.82518C6.1176 2.8128 6.0872 2.80152 6.05653 2.79052C6.0024 2.771 5.94747 2.75368 5.89147 2.738C5.8608 2.72948 5.8304 2.72067 5.79947 2.71352C5.73947 2.6995 5.67813 2.68878 5.61627 2.67915C5.58933 2.67503 5.56293 2.66953 5.53573 2.6665C5.4472 2.65633 5.3576 2.65 5.26667 2.65C3.9432 2.65 2.86667 3.76018 2.86667 5.125C2.86667 5.16048 2.8688 5.19513 2.8712 5.22978C1.76187 5.8532 1 7.15972 1 8.46735C1 10.4152 2.53653 12 4.42533 12H4.8C4.94747 12 5.06667 11.8771 5.06667 11.725C5.06667 11.5729 4.94747 11.45 4.8 11.45H4.42533C2.83067 11.45 1.53333 10.1121 1.53333 8.46735C1.53333 7.325 2.25467 6.1392 3.2488 5.64777L3.4 5.57325V5.4C3.4 5.367 3.40213 5.33345 3.404 5.29963L3.40693 5.24875L3.40347 5.1954C3.40187 5.17203 3.4 5.14865 3.4 5.125C3.4 4.06377 4.2376 3.2 5.26667 3.2C5.34907 3.2 5.4304 3.20743 5.5112 3.21843C5.532 3.22118 5.5528 3.22475 5.57333 3.22832C5.64453 3.24042 5.71467 3.25637 5.78373 3.277C5.79307 3.27975 5.80267 3.28167 5.812 3.28442C5.888 3.30835 5.96213 3.3386 6.03467 3.3727C6.0536 3.3815 6.072 3.39112 6.09067 3.40047C6.15467 3.4332 6.21733 3.46895 6.27787 3.50938C6.79173 3.85258 7.13333 4.44795 7.13333 5.125C7.13333 5.27707 7.25253 5.4 7.4 5.4C7.54747 5.4 7.66667 5.27707 7.66667 5.125C7.66667 4.36765 7.3344 3.68978 6.81333 3.23548C7.57787 2.20423 8.8368 1.55 10.0891 1.55C12.1544 1.55 13.8699 3.23713 14.0488 5.3692C13.7765 5.3494 13.3683 5.33922 12.96 5.4033C12.8144 5.42612 12.7144 5.56637 12.7365 5.71652C12.7565 5.85265 12.8701 5.95028 12.9997 5.95028C13.0131 5.95028 13.0267 5.94918 13.04 5.94698C13.6339 5.8543 14.2528 5.9412 14.2891 5.94642C15.5307 6.1898 16.4667 7.36927 16.4667 8.6923C16.4667 10.2128 15.2669 11.45 13.7925 11.45H13.7333C13.5859 11.45 13.4667 11.5729 13.4667 11.725C13.4667 11.8771 13.5859 12 13.7333 12H13.7925C15.5611 12 17 10.5161 17 8.6923C17 7.18282 15.9795 5.829 14.5936 5.45335Z" fill="#4573FF" stroke="#4573FF" stroke-width="0.5"/>
<path d="M11.2114 12.1448L9.53331 13.8229V8.33332C9.53331 8.18585 9.41411 8.06665 9.26664 8.06665C9.11918 8.06665 8.99998 8.18585 8.99998 8.33332V13.8229L7.32184 12.1448C7.21758 12.0405 7.04904 12.0405 6.94478 12.1448C6.84051 12.2491 6.84051 12.4176 6.94478 12.5219L9.07784 14.6549C9.10238 14.6797 9.13198 14.6992 9.16478 14.7128C9.19731 14.7264 9.23198 14.7333 9.26664 14.7333C9.30131 14.7333 9.33598 14.7264 9.36851 14.7128C9.40131 14.6992 9.43091 14.6797 9.45544 14.6549L11.5885 12.5219C11.6928 12.4176 11.6928 12.2491 11.5885 12.1448C11.4842 12.0405 11.3157 12.0405 11.2114 12.1448Z" fill="#4573FF" stroke="#4573FF" stroke-width="0.5"/>
</svg>
