<svg width="50" height="41" viewBox="0 0 50 41" fill="none" xmlns="http://www.w3.org/2000/svg">
<path d="M4.96094 0.460938H45.0391C46.4453 0.539063 47.6172 1.04688 48.5547 1.98438C49.4922 2.92188 49.9609 4.09375 49.9609 5.5V35.5C49.9609 36.9062 49.4922 38.0781 48.5547 39.0156C47.6172 39.9531 46.4453 40.4609 45.0391 40.5391H4.96094C3.55469 40.4609 2.38281 39.9531 1.44531 39.0156C0.507812 38.0781 0.0390625 36.9062 0.0390625 35.5V5.5C0.0390625 4.09375 0.507812 2.92188 1.44531 1.98438C2.38281 1.04688 3.55469 0.539063 4.96094 0.460938ZM25 18.0391L45.0391 5.5H4.96094L25 18.0391ZM4.96094 35.5H45.0391V11.4766L25 23.8984L4.96094 11.4766V35.5Z" fill="#323232"/>
</svg>
