<svg width="14" height="14" viewBox="0 0 14 14" fill="none" xmlns="http://www.w3.org/2000/svg">
<path fill-rule="evenodd" clip-rule="evenodd" d="M0.333344 7.00004C0.333344 3.32004 3.31334 0.333374 6.99334 0.333374C10.68 0.333374 13.6667 3.32004 13.6667 7.00004C13.6667 10.68 10.68 13.6667 6.99334 13.6667C3.31334 13.6667 0.333344 10.68 0.333344 7.00004ZM9.64668 4.33328H11.6133C10.9733 3.23328 9.95335 2.37995 8.72668 1.95995C9.12668 2.69995 9.43335 3.49995 9.64668 4.33328ZM7.00001 1.69339C7.55335 2.49339 7.98668 3.38006 8.27335 4.33339H5.72668C6.01335 3.38006 6.44668 2.49339 7.00001 1.69339ZM1.66669 7.00011C1.66669 7.46011 1.73336 7.90678 1.84003 8.33344H4.09336C4.04003 7.89344 4.00003 7.45344 4.00003 7.00011C4.00003 6.54678 4.04003 6.10677 4.09336 5.66677H1.84003C1.73336 6.09344 1.66669 6.54011 1.66669 7.00011ZM2.38668 9.66678H4.35334C4.56668 10.5001 4.87334 11.3001 5.27334 12.0401C4.04668 11.6201 3.02668 10.7734 2.38668 9.66678ZM2.38668 4.33328H4.35334C4.56668 3.49995 4.87334 2.69995 5.27334 1.95995C4.04668 2.37995 3.02668 3.22661 2.38668 4.33328ZM7.00001 12.3068C6.44668 11.5068 6.01335 10.6201 5.72668 9.66678H8.27335C7.98668 10.6201 7.55335 11.5068 7.00001 12.3068ZM5.44001 8.33344H8.56001C8.62001 7.89344 8.66668 7.45344 8.66668 7.00011C8.66668 6.54678 8.62001 6.10011 8.56001 5.66677H5.44001C5.38001 6.10011 5.33334 6.54678 5.33334 7.00011C5.33334 7.45344 5.38001 7.89344 5.44001 8.33344ZM8.72668 12.0401C9.12668 11.3001 9.43335 10.5001 9.64668 9.66678H11.6133C10.9733 10.7668 9.95335 11.6201 8.72668 12.0401ZM10 7.00011C10 7.45344 9.96002 7.89344 9.90669 8.33344H12.16C12.2667 7.90678 12.3334 7.46011 12.3334 7.00011C12.3334 6.54011 12.2667 6.09344 12.16 5.66677H9.90669C9.96002 6.10677 10 6.54678 10 7.00011Z" fill="black" fill-opacity="0.54"/>
</svg>
