<svg width="14" height="14" viewBox="0 0 14 14" fill="none" xmlns="http://www.w3.org/2000/svg">
<path fill-rule="evenodd" clip-rule="evenodd" d="M0.333374 6.99993C0.333374 3.31993 3.32004 0.333267 7.00004 0.333267C10.68 0.333267 13.6667 3.31993 13.6667 6.99993C13.6667 10.6799 10.68 13.6666 7.00004 13.6666C3.32004 13.6666 0.333374 10.6799 0.333374 6.99993ZM7.66671 10.9999H6.33337V9.66654H7.66671V10.9999ZM7.00003 12.3332C4.06003 12.3332 1.66669 9.93987 1.66669 6.99987C1.66669 4.05987 4.06003 1.66654 7.00003 1.66654C9.94003 1.66654 12.3334 4.05987 12.3334 6.99987C12.3334 9.93987 9.94003 12.3332 7.00003 12.3332ZM4.33337 5.66666C4.33337 4.19333 5.52671 2.99999 7.00004 2.99999C8.47338 2.99999 9.66671 4.19333 9.66671 5.66666C9.66671 6.52194 9.14003 6.98221 8.62722 7.43035C8.14072 7.8555 7.66671 8.26974 7.66671 8.99999H6.33337C6.33337 7.78581 6.96145 7.30439 7.51367 6.88111C7.94687 6.54907 8.33338 6.2528 8.33338 5.66666C8.33338 4.93333 7.73338 4.33333 7.00004 4.33333C6.26671 4.33333 5.66671 4.93333 5.66671 5.66666H4.33337Z" fill="#777777"/>
</svg>
