<?xml version="1.0" encoding="UTF-8"?>
<svg width="24px" height="24px" viewBox="0 0 24 24" version="1.1" xmlns="http://www.w3.org/2000/svg" xmlns:xlink="http://www.w3.org/1999/xlink">
    <!-- Generator: sketchtool 42 (36781) - http://www.bohemiancoding.com/sketch -->
    <title>73744D85-BBF1-466B-A5AB-7CCE402EAFEE</title>
    <desc>Created with sketchtool.</desc>
    <defs></defs>
    <g id="New" stroke="none" stroke-width="1" fill="none" fill-rule="evenodd">
        <g id="11-1-3-Approver---Approved" transform="translate(-1307.000000, -369.000000)">
            <g id="Table" transform="translate(245.000000, 152.000000)">
                <g id="List" transform="translate(19.000000, 59.000000)">
                    <g id="Row3" transform="translate(1.000000, 155.000000)">
                        <g id="ic_success" transform="translate(1042.000000, 3.000000)">
                            <ellipse id="Oval" fill="#1ACE9B" cx="12" cy="12" rx="12" ry="12"></ellipse>
                            <path d="M10.2013952,16.8 C10.0225069,16.8 9.84346312,16.7258767 9.70673027,16.5772918 L6.60543004,13.2082376 C6.33180878,12.9110677 6.33149767,12.4289281 6.60465226,12.1312504 C6.87780686,11.833742 7.32113864,11.8334036 7.59460435,12.1305735 L10.2013952,14.9623187 L16.4053957,8.22285652 C16.6788614,7.92534812 17.1220376,7.92585581 17.3953477,8.22353345 C17.6685023,8.52121108 17.6681912,9.00335068 17.39457,9.30052062 L10.6960601,16.5772918 C10.5593273,16.7258767 10.3802835,16.8 10.2013952,16.8" id="checkmark" fill="#FFFFFF"></path>
                        </g>
                    </g>
                </g>
            </g>
        </g>
    </g>
</svg>