<svg width="14" height="14" viewBox="0 0 14 14" fill="none" xmlns="http://www.w3.org/2000/svg">
<path fill-rule="evenodd" clip-rule="evenodd" d="M7.00004 0.333328C5.15837 0.333328 3.66671 1.82499 3.66671 3.66666C3.66671 5.50833 5.15837 6.99999 7.00004 6.99999C8.84171 6.99999 10.3334 5.50833 10.3334 3.66666C10.3334 1.82499 8.84171 0.333328 7.00004 0.333328ZM8.66671 3.66666C8.66671 2.74999 7.91671 1.99999 7.00004 1.99999C6.08337 1.99999 5.33337 2.74999 5.33337 3.66666C5.33337 4.58333 6.08337 5.33333 7.00004 5.33333C7.91671 5.33333 8.66671 4.58333 8.66671 3.66666ZM12 11.1667C11.8334 10.575 9.25004 9.49999 7.00004 9.49999C4.75004 9.49999 2.16671 10.575 2.00004 11.175V12H12V11.1667ZM0.333374 11.1667C0.333374 8.95 4.77504 7.83333 7.00004 7.83333C9.22504 7.83333 13.6667 8.95 13.6667 11.1667V13.6667H0.333374V11.1667Z" fill="#333333"/>
</svg>
