<?xml version="1.0" encoding="UTF-8"?>
<svg width="42px" height="56px" viewBox="0 0 42 56" version="1.1" xmlns="http://www.w3.org/2000/svg" xmlns:xlink="http://www.w3.org/1999/xlink">
    <!-- Generator: sketchtool 41.2 (35397) - http://www.bohemiancoding.com/sketch -->
    <title>A07D4589-5C72-41BA-B78F-0593B04BC7AF</title>
    <desc>Created with sketchtool.</desc>
    <defs></defs>
    <g id="New" stroke="none" stroke-width="1" fill="none" fill-rule="evenodd">
        <g id="10-3-3-U:-Upload-(Errors)" transform="translate(-807.000000, -464.000000)" fill="#C7C7C7">
            <g id="Confirm" transform="translate(245.000000, 159.000000)">
                <g id="Uploaded-file" transform="translate(422.000000, 285.000000)">
                    <g id="Group-6" transform="translate(28.000000, 20.000000)">
                        <path d="M114.546689,4.87786648 C114.546689,4.17793383 115.116724,3.61052632 115.817002,3.61052632 L149.566699,3.61052632 C150.268273,3.61052632 150.837012,4.17488692 150.837012,4.87786648 L150.837012,52.5958177 C150.837012,53.2957504 150.266978,53.8631579 149.566699,53.8631579 L115.817002,53.8631579 C115.115428,53.8631579 114.546689,53.2987973 114.546689,52.5958177 L114.546689,4.87786648 Z M153.383701,10.1368421 L153.383701,15.3578947 C153.383701,14.6370178 152.813605,14.0526316 152.110357,14.0526316 C151.407108,14.0526316 150.837012,14.6370178 150.837012,15.3578947 L150.837012,10.1368421 C150.837012,10.857719 151.407108,11.4421053 152.110357,11.4421053 C152.813605,11.4421053 153.383701,10.857719 153.383701,10.1368421 Z M112,3.54601706 C112,2.13989066 113.150029,1 114.541952,1 L150.841749,1 C152.245631,1 153.383701,2.13324556 153.383701,3.54601706 L153.383701,53.9276672 C153.383701,55.3337935 152.233672,56.4736842 150.841749,56.4736842 L114.541952,56.4736842 C113.138071,56.4736842 112,55.3404387 112,53.9276672 L112,3.54601706 Z M135.047538,12.0947368 C135.047538,11.3738599 135.632598,10.7894737 136.34841,10.7894737 L140.750062,10.7894737 C141.468514,10.7894737 142.050934,11.3688341 142.050934,12.0947368 C142.050934,12.8156138 141.465874,13.4 140.750062,13.4 L136.34841,13.4 C135.629958,13.4 135.047538,12.8206396 135.047538,12.0947368 Z M118.366723,18.6210526 C118.366723,17.9001757 118.952101,17.3157895 119.67077,17.3157895 L144.482032,17.3157895 C145.202237,17.3157895 145.786078,17.8951499 145.786078,18.6210526 C145.786078,19.3419296 145.200701,19.9263158 144.482032,19.9263158 L119.67077,19.9263158 C118.950565,19.9263158 118.366723,19.3469554 118.366723,18.6210526 Z M134.283531,25.1473684 C134.283531,24.4264915 134.863749,23.8421053 135.598274,23.8421053 L145.702236,23.8421053 C146.428348,23.8421053 147.016978,24.4214657 147.016978,25.1473684 C147.016978,25.8682454 146.43676,26.4526316 145.702236,26.4526316 L135.598274,26.4526316 C134.872162,26.4526316 134.283531,25.8732712 134.283531,25.1473684 Z M118.154499,12.0947368 C118.154499,11.3738599 118.734717,10.7894737 119.469242,10.7894737 L129.573203,10.7894737 C130.299315,10.7894737 130.887946,11.3688341 130.887946,12.0947368 C130.887946,12.8156138 130.307728,13.4 129.573203,13.4 L119.469242,13.4 C118.743129,13.4 118.154499,12.8206396 118.154499,12.0947368 Z M118.366723,25.1473684 C118.366723,24.4264915 118.943595,23.8421053 119.677609,23.8421053 L127.242594,23.8421053 C127.966577,23.8421053 128.55348,24.4214657 128.55348,25.1473684 C128.55348,25.8682454 127.976609,26.4526316 127.242594,26.4526316 L119.677609,26.4526316 C118.953627,26.4526316 118.366723,25.8732712 118.366723,25.1473684 Z M118.366723,42.7684211 C118.366723,38.8035979 121.583716,35.5894737 125.540942,35.5894737 L139.842759,35.5894737 C143.804971,35.5894737 147.016978,38.8116655 147.016978,42.7684211 C147.016978,46.7332442 143.799985,49.9473684 139.842759,49.9473684 L125.540942,49.9473684 C121.578731,49.9473684 118.366723,46.7251766 118.366723,42.7684211 Z" id="ICN"></path>
                    </g>
                </g>
            </g>
        </g>
    </g>
</svg>