<svg width="34" height="34" viewBox="0 0 34 34" fill="none" xmlns="http://www.w3.org/2000/svg">
<path fill-rule="evenodd" clip-rule="evenodd" d="M30 4V18H4V4H30ZM2 18.875V18V3.125C2 2.504 2.448 2 3 2H31C31.552 2 32 2.504 32 3.125V18V18.875V24V24.8571V30.8571C32 31.4891 31.552 32 31 32H3C2.448 32 2 31.4891 2 30.8571V24.8571V24V18.875ZM30 20V24H4V20H30ZM4 30V26H30V30H4ZM9.24121 15V7.86133H10.7549V15H9.24121ZM18.4746 11.3623C18.4746 12.5374 18.1393 13.4375 17.4688 14.0625C16.8014 14.6875 15.8363 15 14.5732 15H12.5518V7.86133H14.793C15.9583 7.86133 16.8633 8.16895 17.5078 8.78418C18.1523 9.39941 18.4746 10.2588 18.4746 11.3623ZM16.9023 11.4014C16.9023 9.86816 16.2253 9.10156 14.8711 9.10156H14.0654V13.75H14.7148C16.1732 13.75 16.9023 12.9671 16.9023 11.4014ZM21.9561 11.0303H21.4678V9.10156H21.9268C22.415 9.10156 22.7747 9.17318 23.0059 9.31641C23.2402 9.45964 23.3574 9.70052 23.3574 10.0391C23.3574 10.3809 23.2435 10.6315 23.0156 10.791C22.7878 10.9505 22.4346 11.0303 21.9561 11.0303ZM21.4678 15V12.2607H22.2734L23.9775 15H25.6572C25.3317 14.5312 24.6318 13.4945 23.5576 11.8896C23.9808 11.7041 24.3079 11.4486 24.5391 11.123C24.7702 10.7943 24.8857 10.4199 24.8857 10C24.8857 9.2806 24.653 8.74512 24.1875 8.39355C23.722 8.03874 23.0042 7.86133 22.0342 7.86133H19.9541V15H21.4678Z" fill="#777777"/>
</svg>
