<?xml version="1.0" encoding="UTF-8"?>
<svg width="32px" height="32px" viewBox="0 0 32 32" version="1.1" xmlns="http://www.w3.org/2000/svg" xmlns:xlink="http://www.w3.org/1999/xlink">
    <!-- Generator: Sketch 53.2 (72643) - https://sketchapp.com -->
    <title>xenPlatform_icon</title>
    <desc>Created with Sketch.</desc>
    <defs>
        <rect id="path-1" x="0" y="0" width="32" height="32"></rect>
    </defs>
    <g id="Page-1" stroke="none" stroke-width="1" fill="none" fill-rule="evenodd">
        <g id="">
            <mask id="mask-2" fill="white">
                <use xlink:href="#path-1"></use>
            </mask>
            <g id="Mask"></g>
            <path d="M21.4117647,17 C23.3882452,17 25.5882232,17.445308 28.0117647,18.3359375 C30.4353062,19.226567 31.7647047,20.5390538 32,22.2734375 L32,26 L22.9647059,26 L22.9647059,22.2734375 C22.9176468,21.1484319 22.6352967,20.1640667 22.1176471,19.3203125 C21.5999974,18.4765583 20.8941221,17.7265658 20,17.0703125 C20.5176496,17.0234373 20.9882332,17 21.4117647,17 Z M10.0334448,17 C11.9063639,17 13.9799217,17.445308 16.2541806,18.3359375 C18.5284395,19.226567 19.7770334,20.5390538 20,22.2734375 L20,26 L0,26 L0,22.2734375 C0.222966555,20.5390538 1.4827087,19.226567 3.77926421,18.3359375 C6.07581973,17.445308 8.16052575,17 10.0334448,17 Z M10.5354331,15 C9.21259181,14.9531248 8.1259885,14.5078167 7.27559055,13.6640625 C6.4251926,12.8203083 6,11.7539127 6,10.4648438 C6,9.1757748 6.4251926,8.10937922 7.27559055,7.265625 C8.1259885,6.42187078 9.20078091,6 10.5,6 C11.7992191,6 12.8740115,6.42187078 13.7244094,7.265625 C14.5748074,8.10937922 15,9.1757748 15,10.4648438 C15,11.7539127 14.5748074,12.8203083 13.7244094,13.6640625 C12.8740115,14.5078167 11.81103,14.9531248 10.5354331,15 Z M22.4645669,15 C21.18897,14.9531248 20.1259885,14.5078167 19.2755906,13.6640625 C18.4251926,12.8203083 18,11.7539127 18,10.4648438 C18,9.1757748 18.4251926,8.10937922 19.2755906,7.265625 C20.1259885,6.42187078 21.2007809,6 22.5,6 C23.7992191,6 24.8740115,6.42187078 25.7244094,7.265625 C26.5748074,8.10937922 27,9.1757748 27,10.4648438 C27,11.7539127 26.5748074,12.8203083 25.7244094,13.6640625 C24.8740115,14.5078167 23.7874082,14.9531248 22.4645669,15 Z" fill="#FFFFFF" fill-rule="nonzero" mask="url(#mask-2)"></path>
        </g>
    </g>
</svg>