<?xml version="1.0" encoding="UTF-8"?>
<svg width="36px" height="36px" viewBox="0 0 36 36" version="1.1" xmlns="http://www.w3.org/2000/svg" xmlns:xlink="http://www.w3.org/1999/xlink">
    <!-- Generator: sketchtool 41.2 (35397) - http://www.bohemiancoding.com/sketch -->
    <title>0D71B8D5-03C7-4B8D-AEB2-88AECA97A05F</title>
    <desc>Created with sketchtool.</desc>
    <defs></defs>
    <g id="New" stroke="none" stroke-width="1" fill="none" fill-rule="evenodd">
        <g id="10-4-4-Disb-details---Check" transform="translate(-1073.000000, -441.000000)" fill="#F3595B">
            <g id="Processing-summary" transform="translate(245.000000, 246.000000)">
                <g id="Summary-statistics" transform="translate(35.000000, 35.000000)">
                    <g id="Processing-issues" transform="translate(776.000000, 59.000000)">
                        <g id="Total-txns" transform="translate(0.000000, 78.000000)">
                            <g id="X" transform="translate(17.000000, 23.000000)">
                                <path d="M18,35.8769231 C27.8461538,35.8769231 35.8769231,27.8769231 35.8769231,18 C35.8769231,8.12307692 27.8461538,0.123076923 18,0.123076923 C8.15384615,0.123076923 0.123076923,8.15384615 0.123076923,18 C0.123076923,27.8461538 8.15384615,35.8769231 18,35.8769231 Z M18,2.64615385 C26.4615385,2.64615385 33.3538462,9.53846154 33.3538462,18 C33.3538462,26.4615385 26.4615385,33.3538462 18,33.3538462 C9.53846154,33.3538462 2.64615385,26.4615385 2.64615385,18 C2.64615385,9.53846154 9.53846154,2.64615385 18,2.64615385 Z" id="Shape"></path>
                                <path d="M11.2923077,24.5230769 C11.5384615,24.7692308 11.8461538,24.8923077 12.1846154,24.8923077 C12.5230769,24.8923077 12.8307692,24.7692308 13.0769231,24.5230769 L18,19.6 L22.9230769,24.5230769 C23.1692308,24.7692308 23.4769231,24.8923077 23.8153846,24.8923077 C24.1538462,24.8923077 24.4615385,24.7692308 24.7076923,24.5230769 C25.2,24.0307692 25.2,23.2307692 24.7076923,22.7384615 L19.7846154,17.8153846 L24.7076923,12.8923077 C25.2,12.4 25.2,11.6 24.7076923,11.1076923 C24.2153846,10.6153846 23.4153846,10.6153846 22.9230769,11.1076923 L18,16.0307692 L13.0769231,11.1076923 C12.5846154,10.6153846 11.7846154,10.6153846 11.2923077,11.1076923 C10.8,11.6 10.8,12.4 11.2923077,12.8923077 L16.2153846,17.8153846 L11.2923077,22.7384615 C10.8,23.2307692 10.8,24.0307692 11.2923077,24.5230769 Z" id="Shape"></path>
                            </g>
                        </g>
                    </g>
                </g>
            </g>
        </g>
    </g>
</svg>