<svg width="32" height="32" viewBox="0 0 32 32" fill="none" xmlns="http://www.w3.org/2000/svg">
<g clip-path="url(#clip0)">
<path d="M25.8433 9.55699C24.7625 4.13414 19.4903 0.614362 14.0674 1.69517C10.1011 2.4857 6.99981 5.58506 6.20684 9.55088C2.36187 9.994 -0.39619 13.4701 0.0466808 17.3153C0.454396 20.8541 3.45171 23.524 7.01397 23.5216H12.0198C12.5728 23.5216 13.021 23.0733 13.021 22.5204C13.021 21.9674 12.5728 21.5191 12.0198 21.5191H7.01397C4.24907 21.5028 2.02129 19.2484 2.0374 16.4837C2.05376 13.7191 4.30816 11.4911 7.07305 11.5072C7.5833 11.5074 8.01201 11.1234 8.06816 10.6163C8.57647 6.22203 12.5508 3.07188 16.9451 3.58018C20.6395 4.00767 23.5538 6.92173 23.981 10.6163C24.065 11.1324 24.5123 11.5106 25.0352 11.5072C27.8001 11.5072 30.0413 13.7484 30.0413 16.5133C30.0413 19.2779 27.8001 21.5191 25.0352 21.5191H20.0293C19.4764 21.5191 19.0281 21.9674 19.0281 22.5204C19.0281 23.0733 19.4764 23.5216 20.0293 23.5216H25.0354C28.9058 23.4974 32.024 20.3404 32 16.4698C31.9781 12.9452 29.3418 9.98521 25.8433 9.55699Z" fill="#CFCFCF"/>
<path d="M19.5634 19.4666C19.9477 19.8645 20.5815 19.8755 20.9792 19.4912C21.3769 19.1072 21.3879 18.4734 21.0039 18.0757C20.9958 18.0672 20.9875 18.0591 20.9792 18.0511L16.7331 13.804C16.3427 13.4124 15.7087 13.4117 15.3171 13.802C15.3166 13.8028 15.3159 13.8033 15.3154 13.804L11.0693 18.0511C10.6716 18.4351 10.6606 19.0689 11.0446 19.4666C11.4289 19.8643 12.0627 19.8753 12.4604 19.4912C12.4687 19.4832 12.477 19.4749 12.4851 19.4666L15.0232 16.9275V29.5286C15.0232 30.0816 15.4714 30.5298 16.0244 30.5298C16.5771 30.5298 17.0254 30.0816 17.0254 29.5286V16.9275L19.5634 19.4666Z" fill="#4573FF"/>
</g>
<defs>
<clipPath id="clip0">
<rect width="32" height="32" fill="white"/>
</clipPath>
</defs>
</svg>
