<?xml version="1.0" encoding="UTF-8"?>
<svg width="60px" height="60px" viewBox="0 0 60 60" version="1.1" xmlns="http://www.w3.org/2000/svg" xmlns:xlink="http://www.w3.org/1999/xlink">
    <!-- Generator: sketchtool 41.2 (35397) - http://www.bohemiancoding.com/sketch -->
    <title>398F8672-FACF-41CF-9FB8-7A29BCC2AC07</title>
    <desc>Created with sketchtool.</desc>
    <defs>
        <circle id="path-1" cx="30" cy="30" r="30"></circle>
        <mask id="mask-2" maskContentUnits="userSpaceOnUse" maskUnits="objectBoundingBox" x="0" y="0" width="60" height="60" fill="white">
            <use xlink:href="#path-1"></use>
        </mask>
    </defs>
    <g id="New" stroke="none" stroke-width="1" fill="none" fill-rule="evenodd">
        <g id="10-3-6-U:-Sweet" transform="translate(-798.000000, -227.000000)">
            <g id="finish" transform="translate(245.000000, 159.000000)">
                <g id="ic_success" transform="translate(553.000000, 68.000000)">
                    <use id="Oval-2" stroke="#1ACE9B" mask="url(#mask-2)" stroke-width="8" xlink:href="#path-1"></use>
                    <path d="M25.503488,42 C25.0562673,42 24.6086578,41.8146919 24.2668257,41.4432294 L16.5135751,33.020594 C15.8295219,32.2776692 15.8287442,31.0723202 16.5116307,30.3281261 C17.1945172,29.5843551 18.3028466,29.5835089 18.9865109,30.3264338 L25.503488,37.4057968 L41.0134891,20.5571413 C41.6971534,19.8133703 42.805094,19.8146395 43.4883693,20.5588336 C44.1712558,21.3030277 44.1704781,22.5083767 43.4864249,23.2513016 L26.7401503,41.4432294 C26.3983182,41.8146919 25.9507087,42 25.503488,42" id="checkmark" fill="#1ACE9B"></path>
                </g>
            </g>
        </g>
    </g>
</svg>