<?xml version="1.0" encoding="UTF-8"?>
<svg width="75px" height="88px" viewBox="0 0 75 88" version="1.1" xmlns="http://www.w3.org/2000/svg" xmlns:xlink="http://www.w3.org/1999/xlink">
    <!-- Generator: sketchtool 41.2 (35397) - http://www.bohemiancoding.com/sketch -->
    <title>A1622FBC-9A67-4211-B191-4B59F843E50A</title>
    <desc>Created with sketchtool.</desc>
    <defs>
        <path d="M3.18181818,45.2409856 C3.18181818,34.422331 0.684533924,12.7067394 0.684533924,12.7067394 C0.306476277,9.21512674 2.85794848,6.38461538 6.36367698,6.38461538 L57.2726867,6.38461538 C60.7872484,6.38461538 63.3497939,9.22176514 63.0077388,12.7208104 C63.0077388,12.7208104 60.4545455,37.0327076 60.4545455,49.1565505 C60.4545455,58.3042315 62.8641039,76.7040781 62.8641039,76.7040781 C63.2906112,80.1812198 60.7784152,83 57.2726867,83 L6.36367698,83 C2.84911523,83 0.319653059,80.1777054 0.702202468,76.6809158 C0.702202468,76.6809158 3.18181818,55.6938549 3.18181818,45.2409856 Z" id="path-1"></path>
        <mask id="mask-2" maskContentUnits="userSpaceOnUse" maskUnits="objectBoundingBox" x="0" y="0" width="62.389147" height="76.6153846" fill="white">
            <use xlink:href="#path-1"></use>
        </mask>
        <path d="M7.22203523,7.88014074 C7.11428824,6.89867169 7.0543581,6.34403127 7.0543581,6.34403127 C6.67288302,2.84031955 9.22158485,0 12.6979845,0 L63.6656518,0 C67.1640157,0 69.712023,2.85131467 69.3713751,6.33619499 C69.3713751,6.33619499 66.8181818,30.6480922 66.8181818,42.7719351 C66.8181818,51.9196161 69.2216397,70.2679568 69.2216397,70.2679568 C69.6515162,73.7735444 67.1519997,76.6153846 63.62457,76.6153846 L60.6036932,76.6153846" id="path-3"></path>
        <mask id="mask-4" maskContentUnits="userSpaceOnUse" maskUnits="objectBoundingBox" x="0" y="0" width="62.3853745" height="76.6153846" fill="white">
            <use xlink:href="#path-3"></use>
        </mask>
        <rect id="path-5" x="15.9090909" y="22.3461538" width="25.4545455" height="3.19230769"></rect>
        <mask id="mask-6" maskContentUnits="userSpaceOnUse" maskUnits="objectBoundingBox" x="0" y="0" width="25.4545455" height="3.19230769" fill="white">
            <use xlink:href="#path-5"></use>
        </mask>
        <rect id="path-7" x="15.9090909" y="31.9230769" width="25.4545455" height="3.19230769"></rect>
        <mask id="mask-8" maskContentUnits="userSpaceOnUse" maskUnits="objectBoundingBox" x="0" y="0" width="25.4545455" height="3.19230769" fill="white">
            <use xlink:href="#path-7"></use>
        </mask>
        <rect id="path-9" x="15.9090909" y="41.5" width="25.4545455" height="3.19230769"></rect>
        <mask id="mask-10" maskContentUnits="userSpaceOnUse" maskUnits="objectBoundingBox" x="0" y="0" width="25.4545455" height="3.19230769" fill="white">
            <use xlink:href="#path-9"></use>
        </mask>
    </defs>
    <g id="New" stroke="none" stroke-width="1" fill="none" fill-rule="evenodd">
        <g id="10-0-0-Empty-state" transform="translate(-795.000000, -285.000000)">
            <g id="Empty-state" transform="translate(248.000000, 152.000000)">
                <g id="icon" transform="translate(547.000000, 133.000000)">
                    <g id="Group-Copy" transform="translate(5.000000, 5.000000)" fill="#F4F4F4">
                        <path d="M3.18181818,45.2409856 C3.18181818,34.422331 0.684533924,12.7067394 0.684533924,12.7067394 C0.306476277,9.21512674 2.85794848,6.38461538 6.36367698,6.38461538 L57.2726867,6.38461538 C60.7872484,6.38461538 63.3497939,9.22176514 63.0077388,12.7208104 C63.0077388,12.7208104 60.4545455,37.0327076 60.4545455,49.1565505 C60.4545455,58.3042315 62.8641039,76.7040781 62.8641039,76.7040781 C63.2906112,80.1812198 60.7784152,83 57.2726867,83 L6.36367698,83 C2.84911523,83 0.319653059,80.1777054 0.702202468,76.6809158 C0.702202468,76.6809158 3.18181818,55.6938549 3.18181818,45.2409856 Z" id="Rectangle-102-Copy-2"></path>
                        <path d="M7.22203523,7.88014074 C7.11428824,6.89867169 7.0543581,6.34403127 7.0543581,6.34403127 C6.67288302,2.84031955 9.22158485,0 12.6979845,0 L63.6656518,0 C67.1640157,0 69.712023,2.85131467 69.3713751,6.33619499 C69.3713751,6.33619499 66.8181818,30.6480922 66.8181818,42.7719351 C66.8181818,51.9196161 69.2216397,70.2679568 69.2216397,70.2679568 C69.6515162,73.7735444 67.1519997,76.6153846 63.62457,76.6153846 L60.6036932,76.6153846" id="Rectangle-102-Copy"></path>
                    </g>
                    <g id="Group" fill="#FFFFFF">
                        <path d="M3.18181818,45.2409856 C3.18181818,34.422331 0.684533924,12.7067394 0.684533924,12.7067394 C0.306476277,9.21512674 2.85794848,6.38461538 6.36367698,6.38461538 L57.2726867,6.38461538 C60.7872484,6.38461538 63.3497939,9.22176514 63.0077388,12.7208104 C63.0077388,12.7208104 60.4545455,37.0327076 60.4545455,49.1565505 C60.4545455,58.3042315 62.8641039,76.7040781 62.8641039,76.7040781 C63.2906112,80.1812198 60.7784152,83 57.2726867,83 L6.36367698,83 C2.84911523,83 0.319653059,80.1777054 0.702202468,76.6809158 C0.702202468,76.6809158 3.18181818,55.6938549 3.18181818,45.2409856 Z" id="Rectangle-102-Copy-2"></path>
                        <path d="M7.22203523,7.88014074 C7.11428824,6.89867169 7.0543581,6.34403127 7.0543581,6.34403127 C6.67288302,2.84031955 9.22158485,0 12.6979845,0 L63.6656518,0 C67.1640157,0 69.712023,2.85131467 69.3713751,6.33619499 C69.3713751,6.33619499 66.8181818,30.6480922 66.8181818,42.7719351 C66.8181818,51.9196161 69.2216397,70.2679568 69.2216397,70.2679568 C69.6515162,73.7735444 67.1519997,76.6153846 63.62457,76.6153846 L60.6036932,76.6153846" id="Rectangle-102-Copy"></path>
                    </g>
                    <g id="paper-icon" stroke="#C5C5C5" stroke-width="7">
                        <use id="Rectangle-102" mask="url(#mask-2)" xlink:href="#path-1"></use>
                        <use id="Rectangle-102" mask="url(#mask-4)" xlink:href="#path-3"></use>
                        <use id="Rectangle-106" mask="url(#mask-6)" xlink:href="#path-5"></use>
                        <use id="Rectangle-106" mask="url(#mask-8)" xlink:href="#path-7"></use>
                        <use id="Rectangle-106" mask="url(#mask-10)" xlink:href="#path-9"></use>
                    </g>
                </g>
            </g>
        </g>
    </g>
</svg>