<?xml version="1.0" encoding="UTF-8"?>
<svg width="42px" height="56px" viewBox="0 0 32 40" version="1.1" xmlns="http://www.w3.org/2000/svg" xmlns:xlink="http://www.w3.org/1999/xlink">
    <!-- Generator: sketchtool 41.2 (35397) - http://www.bohemiancoding.com/sketch -->
    <title>E9761292-3C70-4F91-8B1F-1B6974AEC1C6</title>
    <desc>Created with sketchtool.</desc>
    <defs>
        <path d="M26.0078836,11.9966932 C25.8193466,11.9967672 25.6385531,11.9219361 25.5052815,11.7886645 C25.3720099,11.6553929 25.2971788,11.4745994 25.2972528,11.2860624 L25.2984331,7.7174629 L21.7298336,7.71864321 C21.471513,7.72628514 21.2295703,7.59283599 21.0983095,7.37031133 C20.9670486,7.14778667 20.967243,6.87140343 21.098817,6.6488898 C21.2303909,6.42637617 21.4725213,6.29294733 21.7308311,6.30061095 L25.2994306,6.29943064 L25.300611,2.73083109 C25.2929473,2.47252133 25.4263762,2.2303909 25.6488898,2.09881697 C25.8714034,1.96724304 26.1477867,1.96704861 26.3703113,2.09830947 C26.592836,2.22957033 26.7262851,2.47151303 26.7186432,2.72983355 L26.7174629,6.29843311 L30.2860624,6.2972528 C30.5414078,6.29423298 30.7785774,6.42869692 30.9070315,6.64931288 C31.0354856,6.86992884 31.0353954,7.14264149 30.9067953,7.36334247 C30.7781953,7.58404345 30.5409367,7.71866431 30.2855933,7.7158134 L26.7169937,7.71699371 L26.7158134,11.2855933 C26.7161224,11.6771377 26.3994266,11.9952516 26.0078836,11.9966932 L26.0078836,11.9966932 Z" id="path-1"></path>
        <mask id="mask-2" maskContentUnits="userSpaceOnUse" maskUnits="objectBoundingBox" x="-2" y="-2" width="14.0033087" height="13.9966933">
            <rect x="19" y="0" width="14.0033087" height="13.9966933" fill="white"></rect>
            <use xlink:href="#path-1" fill="black"></use>
        </mask>
    </defs>
    <g id="New" stroke="none" stroke-width="1" fill="none" fill-rule="evenodd">
        <g id="10-3-1-U:-Upload" transform="translate(-809.000000, -429.000000)">
            <g id="Confirm" transform="translate(245.000000, 159.000000)">
                <g id="Uploaded-file" transform="translate(420.000000, 250.000000)">
                    <g id="PDF" transform="translate(144.000000, 20.000000)">
                        <path d="M4.57894737,8.39230406 C4.57894737,7.95472661 4.93236864,7.6 5.36654137,7.6 L26.2913534,7.6 C26.7263295,7.6 27.0789474,7.94589844 27.0789474,8.39230406 L27.0789474,37.6076959 C27.0789474,38.0452734 26.7255261,38.4 26.2913534,38.4 L5.36654137,38.4 C4.93156522,38.4 4.57894737,38.0541016 4.57894737,37.6076959 L4.57894737,8.39230406 Z M28.6578947,11.6 L28.6578947,14.8 C28.6578947,14.3581722 28.3044353,14 27.8684211,14 C27.4324068,14 27.0789474,14.3581722 27.0789474,14.8 L27.0789474,11.6 C27.0789474,12.0418278 27.4324068,12.4 27.8684211,12.4 C28.3044353,12.4 28.6578947,12.0418278 28.6578947,11.6 Z M3,7.57170124 C3,6.70367461 3.71301824,6 4.58565324,6 L27.0722415,6 C27.9479736,6 28.6578947,6.71013832 28.6578947,7.57170124 L28.6578947,38.4282988 C28.6578947,39.2963254 27.9448765,40 27.0722415,40 L4.58565324,40 C3.70992114,40 3,39.2898617 3,38.4282988 L3,7.57170124 Z M17.2894737,12.8 C17.2894737,12.3581722 17.6448064,12 18.0858827,12 L20.8351699,12 C21.2750145,12 21.6315789,12.3550919 21.6315789,12.8 C21.6315789,13.2418278 21.2762462,13.6 20.8351699,13.6 L18.0858827,13.6 C17.6460382,13.6 17.2894737,13.2449081 17.2894737,12.8 Z M6.94736842,16.8 C6.94736842,16.3581722 7.30243758,16 7.74451219,16 L23.1502246,16 C23.590475,16 23.9473684,16.3550919 23.9473684,16.8 C23.9473684,17.2418278 23.5922993,17.6 23.1502246,17.6 L7.74451219,17.6 C7.30426184,17.6 6.94736842,17.2449081 6.94736842,16.8 Z M16.8157895,20.8 C16.8157895,20.3581722 17.1755245,20 17.616225,20 L23.9100908,20 C24.3521591,20 24.7105263,20.3550919 24.7105263,20.8 C24.7105263,21.2418278 24.3507913,21.6 23.9100908,21.6 L17.616225,21.6 C17.1741567,21.6 16.8157895,21.2449081 16.8157895,20.8 Z M6.81578947,12.8 C6.81578947,12.3581722 7.17552452,12 7.61622499,12 L13.9100908,12 C14.3521591,12 14.7105263,12.3550919 14.7105263,12.8 C14.7105263,13.2418278 14.3507913,13.6 13.9100908,13.6 L7.61622499,13.6 C7.17415666,13.6 6.81578947,13.2449081 6.81578947,12.8 Z M6.94736842,20.8 C6.94736842,20.3581722 7.30502866,20 7.74726752,20 L12.4632588,20 C12.9050309,20 13.2631579,20.3550919 13.2631579,20.8 C13.2631579,21.2418278 12.9054977,21.6 12.4632588,21.6 L7.74726752,21.6 C7.30549545,21.6 6.94736842,21.2449081 6.94736842,20.8 Z M6.94736842,31.6 C6.94736842,29.1699471 8.91620654,27.2 11.3382625,27.2 L20.3196323,27.2 C22.7446561,27.2 24.7105263,29.1748918 24.7105263,31.6 C24.7105263,34.0300529 22.7416882,36 20.3196323,36 L11.3382625,36 C8.91323864,36 6.94736842,34.0251082 6.94736842,31.6 Z" id="ICN" fill="#C7C7C7"></path>
                        <g id="cancel">
                            <use fill="#C7C7C7" fill-rule="evenodd" xlink:href="#path-1"></use>
                            <use stroke="#FFFFFF" mask="url(#mask-2)" stroke-width="4" xlink:href="#path-1"></use>
                        </g>
                    </g>
                </g>
            </g>
        </g>
    </g>
</svg>