<svg xmlns="http://www.w3.org/2000/svg" xmlns:xlink="http://www.w3.org/1999/xlink" width="85" height="76" viewBox="0 0 85 76">
    <defs>
        <path id="a" d="M0 0h85v85H0z"/>
    </defs>
    <g fill="none" fill-rule="evenodd" transform="translate(0 -5)">
        <mask id="b" fill="#fff">
            <use xlink:href="#a"/>
        </mask>
        <g mask="url(#b)">
            <path fill="#4573ff" fill-rule="nonzero" d="M64.09 52.761V38.35c0-2.704-.49-5.345-1.49-7.851-2.052-5.145-8.804-21.7-9.072-22.132-.325-.525-.68-1.057-.988-1.35a7.051 7.051 0 0 0-7.457-1.438 6.986 6.986 0 0 0-2.076 1.294 7.034 7.034 0 0 0-2.081-1.297c-3-1.194-6.6-.201-8.342 2.634l-9.168 22.289a21.11 21.11 0 0 0-1.507 7.851v14.412L3 57.463v23.514c3.55-.694 12.072-2.511 28.806-5.469a16.35 16.35 0 0 0 11.202-7.718 16.35 16.35 0 0 0 11.202 7.718c16.715 2.954 25.242 4.776 28.79 5.47V57.462l-18.91-4.702zm-23.427 6.541c0 5.718-4.067 10.586-9.67 11.576-8.547 1.51-16.386 2.978-23.304 4.364v-14.1l18.909-4.702V38.35c0-2.103.394-4.158 1.17-6.106 5.24-13.137 8.34-20.903 8.37-20.989h.002a2.354 2.354 0 0 1 3.048-1.312 2.36 2.36 0 0 1 1.308 3.059l-6.972 17.48a7.045 7.045 0 0 0-2.238 5.154V49.9h4.688V35.636a2.35 2.35 0 0 1 2.345-2.35 2.35 2.35 0 0 1 2.344 2.35v23.666zm-1.36-30.65l3.705-9.288 3.705 9.289a6.999 6.999 0 0 0-3.705 1.733 6.999 6.999 0 0 0-3.705-1.733zm39.025 46.59c-6.92-1.386-14.759-2.854-23.305-4.364-5.603-.99-9.685-5.858-9.685-11.576V35.636a2.363 2.363 0 0 1 2.36-2.35 2.35 2.35 0 0 1 2.344 2.35V49.9h4.672V35.636a7.031 7.031 0 0 0-2.222-5.155L45.52 13.002a2.359 2.359 0 0 1 1.3-3.056 2.356 2.356 0 0 1 3.056 1.31l.003-.001c.043.123.883 2.222 8.368 20.989a16.411 16.411 0 0 1 1.17 6.106v18.09l18.91 4.702v14.1z"/>
            <g fill="#4573ff">
                <path d="M82.57 23.916h-8.627c-1.342 0-2.43 1.052-2.43 2.35 0 1.296 1.088 2.348 2.43 2.348h8.627c1.342 0 2.43-1.052 2.43-2.349 0-1.297-1.088-2.35-2.43-2.35zM81.161 41.91l-6.023-6.016a2.402 2.402 0 0 0-3.393 0 2.394 2.394 0 0 0 0 3.389l6.023 6.015a2.394 2.394 0 0 0 1.697.702 2.394 2.394 0 0 0 1.696-4.09zM81.16 7.701a2.402 2.402 0 0 0-3.392 0l-6.023 6.016a2.394 2.394 0 0 0 1.696 4.09c.614 0 1.228-.234 1.697-.702l6.023-6.015a2.394 2.394 0 0 0 0-3.389zM11.057 24.386H2.43c-1.342 0-2.43 1.051-2.43 2.349 0 1.297 1.088 2.35 2.43 2.35h8.627c1.342 0 2.43-1.053 2.43-2.35 0-1.298-1.088-2.35-2.43-2.35zM13.255 13.717L7.232 7.701a2.402 2.402 0 0 0-3.393 0 2.394 2.394 0 0 0 0 3.389l6.023 6.015a2.394 2.394 0 0 0 1.697.702 2.394 2.394 0 0 0 1.696-4.09zM13.255 35.894a2.402 2.402 0 0 0-3.393 0L3.84 41.91A2.394 2.394 0 0 0 5.535 46c.614 0 1.228-.234 1.697-.702l6.023-6.015a2.394 2.394 0 0 0 0-3.389z"/>
            </g>
        </g>
    </g>
</svg>
