<?xml version="1.0" encoding="UTF-8"?>
<svg width="35px" height="35px" viewBox="0 0 35 35" version="1.1" xmlns="http://www.w3.org/2000/svg" xmlns:xlink="http://www.w3.org/1999/xlink">
    <!-- Generator: sketchtool 41.2 (35397) - http://www.bohemiancoding.com/sketch -->
    <title>319A9BBB-8106-4E27-8615-614246A81778</title>
    <desc>Created with sketchtool.</desc>
    <defs></defs>
    <g id="New" stroke="none" stroke-width="1" fill="none" fill-rule="evenodd">
        <g id="10-4-4-Disb-details---Check" transform="translate(-685.000000, -441.000000)" fill="#1ACE9B">
            <g id="Processing-summary" transform="translate(245.000000, 246.000000)">
                <g id="Summary-statistics" transform="translate(35.000000, 35.000000)">
                    <g id="Upload-success" transform="translate(388.000000, 59.000000)">
                        <g id="Total-txns" transform="translate(0.000000, 78.000000)">
                            <g id="round-done-button" transform="translate(17.000000, 23.000000)">
                                <path d="M17.49965,0 C7.8498875,0 0,7.8505 0,17.5 C0,27.1495 7.8498875,35 17.49965,35 C27.1494125,35 35,27.1495 35,17.5 C35,7.8505 27.1494125,0 17.49965,0 Z M17.49965,32.704875 C9.11575,32.704875 2.295125,25.8839 2.295125,17.5 C2.295125,9.1160125 9.1156625,2.2952125 17.49965,2.2952125 C25.8836375,2.2952125 32.7046125,9.1161 32.7046125,17.5 C32.7047,25.8839 25.88355,32.704875 17.49965,32.704875 Z" id="Shape"></path>
                                <path d="M23.835525,11.771025 L14.8115625,20.79455 L11.163775,17.14755 C10.7155125,16.6998125 9.98935,16.69955 9.5410875,17.1478125 C9.09265,17.59625 9.09265,18.3225 9.5410875,18.7707625 L14.00035,23.229325 C14.2244375,23.45315 14.518,23.56515 14.8115625,23.56515 C15.105125,23.56515 15.399475,23.45315 15.623475,23.228975 C15.624175,23.2280125 15.6247,23.22705 15.6258375,23.2259125 L25.458125,13.3937125 C25.9065625,12.9457125 25.9065625,12.2189375 25.458125,11.7709375 C25.00995,11.322675 24.2832625,11.322675 23.835525,11.771025 Z" id="Shape"></path>
                            </g>
                        </g>
                    </g>
                </g>
            </g>
        </g>
    </g>
</svg>