<svg xmlns="http://www.w3.org/2000/svg" xmlns:xlink="http://www.w3.org/1999/xlink" width="24" height="24" viewBox="0 0 24 24">
    <defs>
        <path id="a" d="M0 0h24v24H0z"/>
    </defs>
    <g fill="none" fill-rule="evenodd">
        <mask id="b" fill="#fff">
            <use xlink:href="#a"/>
        </mask>
        <path fill="#000" d="M6.36 5h15v10h-15V5zm7.5 2.5c.703.026 1.288.273 1.757.742.469.469.703 1.055.703 1.758 0 .703-.234 1.29-.703 1.758-.469.469-1.061.703-1.777.703s-1.309-.234-1.777-.703c-.47-.469-.704-1.055-.704-1.758 0-.703.235-1.29.704-1.758.468-.469 1.067-.716 1.796-.742zm-4.18-.82c0 .468-.163.86-.489 1.172A1.656 1.656 0 0 1 8 8.32v3.36c.469 0 .866.156 1.191.468.326.313.489.704.489 1.172H18c.026-.468.195-.86.508-1.172.312-.312.703-.468 1.172-.468V8.32c-.47 0-.86-.156-1.172-.468A1.734 1.734 0 0 1 18 6.68H9.68zM3 8.32h1.68v8.36H18v1.64H3v-10z" mask="url(#b)"/>
    </g>
</svg>
