<?xml version="1.0" encoding="UTF-8"?>
<svg width="38px" height="34px" viewBox="0 0 38 34" version="1.1" xmlns="http://www.w3.org/2000/svg" xmlns:xlink="http://www.w3.org/1999/xlink">
    <!-- Generator: sketchtool 41.2 (35397) - http://www.bohemiancoding.com/sketch -->
    <title>C5A9B56C-3BD8-4D47-97AB-E04923EEA0C0</title>
    <desc>Created with sketchtool.</desc>
    <defs></defs>
    <g id="New" stroke="none" stroke-width="1" fill="none" fill-rule="evenodd">
        <g id="10-4-4-Disb-details---Check" transform="translate(-686.000000, -542.000000)">
            <g id="Processing-summary" transform="translate(245.000000, 246.000000)">
                <g id="Summary-statistics" transform="translate(35.000000, 35.000000)">
                    <g id="Upload-success" transform="translate(388.000000, 59.000000)">
                        <g id="Total-amount" transform="translate(0.000000, 178.000000)">
                            <g id="IDR" transform="translate(18.000000, 24.000000)">
                                <path d="M36,19.3076923 C36,19.9457692 35.4922667,20.4615385 34.8666667,20.4615385 L3.13333333,20.4615385 C2.50773333,20.4615385 2,19.9457692 2,19.3076923 L2,3.15384615 C2,2.51692308 2.50773333,2 3.13333333,2 L34.8666667,2 C35.4922667,2 36,2.51692308 36,3.15384615 L36,19.3076923 L36,19.3076923 Z" id="Stroke-1" stroke="#1ACE9B" stroke-width="2.26666667" stroke-linecap="round" stroke-linejoin="round"></path>
                                <path d="M36,18.1538462 L36,25.0769231 C36,25.715 35.4922667,26.2307692 34.8666667,26.2307692 L3.13333333,26.2307692 C2.50773333,26.2307692 2,25.715 2,25.0769231 L2,18.1538462" id="Stroke-3" stroke="#1ACE9B" stroke-width="2.26666667" stroke-linecap="round" stroke-linejoin="round"></path>
                                <path d="M36,23.9230769 L36,30.8461538 C36,31.4842308 35.4922667,32 34.8666667,32 L3.13333333,32 C2.50773333,32 2,31.4842308 2,30.8461538 L2,23.9230769" id="Stroke-5" stroke="#1ACE9B" stroke-width="2.26666667" stroke-linecap="round" stroke-linejoin="round"></path>
                                <text font-family="Lato-Bold, Lato" font-size="10.2" font-weight="bold" fill="#1ACE9B">
                                    <tspan x="10.67085" y="14.5714286">IDR</tspan>
                                </text>
                            </g>
                        </g>
                    </g>
                </g>
            </g>
        </g>
    </g>
</svg>