<?xml version="1.0" encoding="UTF-8"?>
<svg width="35px" height="25px" viewBox="0 0 35 25" version="1.1" xmlns="http://www.w3.org/2000/svg" xmlns:xlink="http://www.w3.org/1999/xlink">
    <!-- Generator: sketchtool 41.2 (35397) - http://www.bohemiancoding.com/sketch -->
    <title>4F076DDE-91E7-40F7-9BE4-CDCCD596F1E5</title>
    <desc>Created with sketchtool.</desc>
    <defs></defs>
    <g id="New" stroke="none" stroke-width="1" fill="none" fill-rule="evenodd">
        <g id="10-4-4-Disb-details---Check" transform="translate(-300.000000, -442.000000)" fill="#6C6C6C">
            <g id="Processing-summary" transform="translate(245.000000, 246.000000)">
                <g id="Summary-statistics" transform="translate(35.000000, 35.000000)">
                    <g id="Total-txns" transform="translate(0.000000, 59.000000)">
                        <g transform="translate(0.000000, 78.000000)" id="Group">
                            <g transform="translate(20.000000, 24.000000)">
                                <path d="M5.20929348,10.3296615 L20.0709783,10.3296615 C20.9113587,10.3296615 21.5927174,9.64585874 21.5927174,8.79818833 C21.5927174,7.95051793 20.9113587,7.26671515 20.0709783,7.26671515 L5.20929348,7.26671515 L9.67673913,2.68531313 C10.2725,2.08765572 10.275163,1.06654597 9.68244565,0.465059881 C9.08972826,-0.136043343 8.12608696,-0.163226992 7.53032609,0.434813286 L0.448532609,7.5282142 C0.161304348,7.81651402 -3.55271368e-15,8.2020624 -3.55271368e-15,8.61058287 C-3.55271368e-15,9.01910334 0.161304348,9.40771466 0.448532609,9.69563162 L7.53032609,16.8001357 C7.82706522,17.0980072 8.21548913,17.2461773 8.60353261,17.2461773 C8.99423913,17.2461773 9.38494565,17.0945614 9.68244565,16.7932441 C10.275163,16.1921409 10.2725,15.3153725 9.67673913,14.7173322 L5.20929348,10.3296615 Z M35,15.8804861 C35,16.2890065 34.8383152,16.6776179 34.551087,16.9659177 L27.4692935,24.0654445 C27.1725543,24.363316 26.7841304,24.5 26.396087,24.5 C26.0053804,24.5 25.6146739,24.3242635 25.3171739,24.0225632 C24.7244565,23.42146 24.7271196,22.4003503 25.3232609,21.80231 L29.7903261,17.2212908 L14.9286413,17.2212908 C14.0882609,17.2212908 13.4069022,16.5374881 13.4069022,15.6898177 C13.4069022,14.8421472 14.0882609,14.1583445 14.9286413,14.1583445 L29.7903261,14.1583445 L25.3232609,9.77105667 C24.7271196,9.17301639 24.7244565,8.296248 25.3171739,7.69514477 C25.9102717,7.09442442 26.8735326,7.09136147 27.4692935,7.68940175 L34.551087,14.7954373 C34.8383152,15.0833543 35,15.4719656 35,15.8804861 L35,15.8804861 Z" id="swap"></path>
                            </g>
                        </g>
                    </g>
                </g>
            </g>
        </g>
    </g>
</svg>