<svg width="18" height="18" viewBox="0 0 18 18" fill="none" xmlns="http://www.w3.org/2000/svg">
<path d="M14.25 9C14.25 9.21875 14.2344 9.45312 14.2031 9.70312L15.7031 10.8281C15.8281 10.9531 15.8438 11.1094 15.75 11.2969L14.3438 13.6875C14.25 13.8438 14.1094 13.9062 13.9219 13.875L12.1875 13.1719C11.8125 13.4531 11.4219 13.6719 11.0156 13.8281L10.7344 15.7031C10.7031 15.8906 10.5938 15.9844 10.4062 15.9844H7.59375C7.40625 15.9844 7.29688 15.8906 7.26562 15.7031L6.98438 13.8281C6.54688 13.6719 6.15625 13.4531 5.8125 13.1719L4.07812 13.875C3.89062 13.9062 3.75 13.8438 3.65625 13.6875L2.25 11.2969C2.15625 11.1094 2.17188 10.9531 2.29688 10.8281L3.79688 9.70312C3.76562 9.45312 3.75 9.21875 3.75 9C3.75 8.78125 3.76562 8.54688 3.79688 8.29688L2.29688 7.17188C2.17188 7.04688 2.15625 6.89062 2.25 6.70312L3.65625 4.3125C3.75 4.125 3.89062 4.0625 4.07812 4.125L5.8125 4.82812C6.15625 4.54688 6.54688 4.32812 6.98438 4.17188L7.26562 2.29688C7.29688 2.10938 7.40625 2.01562 7.59375 2.01562H10.4062C10.5938 2.01562 10.7031 2.10938 10.7344 2.29688L11.0156 4.17188C11.4219 4.32812 11.8125 4.54688 12.1875 4.82812L13.9219 4.125C14.1094 4.0625 14.25 4.125 14.3438 4.3125L15.75 6.70312C15.8438 6.89062 15.8281 7.04688 15.7031 7.17188L14.2031 8.29688C14.2344 8.54688 14.25 8.78125 14.25 9ZM15.9844 0H2.01562C1.42188 0 0.9375 0.1875 0.5625 0.5625C0.1875 0.9375 0 1.42187 0 2.01562V15.9844C0 16.5469 0.1875 17.0312 0.5625 17.4375C0.96875 17.8125 1.45312 18 2.01562 18H15.9844C16.5469 18 17.0156 17.8125 17.3906 17.4375C17.7969 17.0312 18 16.5469 18 15.9844V2.01562C18 1.42187 17.7969 0.9375 17.3906 0.5625C17.0156 0.1875 16.5469 0 15.9844 0ZM9 6.98438C8.4375 7.01562 7.96875 7.21875 7.59375 7.59375C7.21875 7.96875 7.03125 8.4375 7.03125 9C7.03125 9.5625 7.21875 10.0312 7.59375 10.4062C7.96875 10.7812 8.4375 10.9688 9 10.9688C9.5625 10.9688 10.0312 10.7812 10.4062 10.4062C10.7812 10.0312 10.9688 9.5625 10.9688 9C10.9688 8.4375 10.7812 7.96875 10.4062 7.59375C10.0312 7.21875 9.5625 7.01562 9 6.98438Z" fill="#333333"/>
</svg>
