<?xml version="1.0" encoding="UTF-8"?>
<svg width="17px" height="15px" viewBox="0 0 17 15" version="1.1" xmlns="http://www.w3.org/2000/svg" xmlns:xlink="http://www.w3.org/1999/xlink">
    <!-- Generator: sketchtool 41.2 (35397) - http://www.bohemiancoding.com/sketch -->
    <title>7ADE0208-70A9-4C9A-ABC3-8C0EE54641AD</title>
    <desc>Created with sketchtool.</desc>
    <defs></defs>
    <g id="New" stroke="none" stroke-width="1" fill="none" fill-rule="evenodd">
        <g id="12-1-2-Approver-&amp;-Uploader---Approve" transform="translate(-1267.000000, -85.000000)" fill="#FFFFFF">
            <g id="Tabs" transform="translate(215.000000, 61.000000)">
                <g id="Group-9" transform="translate(1025.000000, 13.000000)">
                    <g id="Group-4" transform="translate(27.000000, 9.000000)">
                        <path d="M11.1052563,11.1472829 C11.2495716,11.2943088 11.4389739,11.3676342 11.628561,11.3676342 C11.817409,11.3676342 12.0064417,11.2946839 12.1505723,11.1484081 C12.4397573,10.8558567 12.4403116,10.3806481 12.1518658,10.0873465 L9.02256999,6.90341138 C8.88398293,6.76238657 8.69568931,6.68306012 8.49945004,6.68306012 C8.30302598,6.68306012 8.11473237,6.76238657 7.97614531,6.90341138 L4.84684954,10.0873465 C4.55858846,10.3806481 4.55895803,10.8558567 4.84814302,11.1484081 C5.13695845,11.4413347 5.60501314,11.4407721 5.893459,11.1472829 L7.7653082,9.24269789 L7.78692778,16.2532436 C7.78822126,16.6669414 8.11898237,17 8.52605875,17 L8.52846093,17 C8.93683079,17 9.26666799,16.6630032 9.26537451,16.2485553 L9.24375493,9.25282467 L11.1052563,11.1472829 L11.1052563,11.1472829 Z M16.9909563,10.5317997 C16.8756518,12.170838 15.6270748,13.9396491 13.1580078,13.9396491 C12.0295396,13.9396491 11.4332457,13.9443375 11.4332457,13.9443375 C11.0250606,13.9411494 10.6965169,13.6212181 10.6996582,13.2067702 C10.7027995,12.7943852 11.033191,12.4992083 11.4387891,12.4992083 L11.4445174,12.4992083 C11.4461805,12.4992083 12.0384092,12.4665775 13.1580078,12.4665775 C14.6894872,12.4665775 15.4459877,11.420331 15.51639,10.4202175 C15.58864,9.39272428 14.9526178,8.25271124 13.3686601,8.0216706 C13.1635513,7.99166532 12.9802468,7.87576993 12.8632793,7.70211438 C12.7464966,7.52845884 12.7067683,7.31298343 12.7538879,7.10819741 C12.956225,6.22885522 12.7424314,5.53610836 12.1673875,5.20717549 C11.686398,4.93225213 10.9167779,4.93694045 10.2814948,5.56742636 C10.1148208,5.73283046 9.88144018,5.80915639 9.65083132,5.77239992 C9.42059202,5.73583099 9.22065709,5.59143059 9.11145049,5.3823313 C8.0480258,3.34478537 6.39163328,3.23507857 5.29605639,3.76073354 C4.24242519,4.26594742 3.40443544,5.5301073 4.05450113,7.11063533 C4.13469685,7.30585718 4.13007728,7.52695857 4.04156634,7.71861729 C3.95324019,7.910276 3.7893379,8.05617667 3.5901421,8.11862515 C1.38993397,8.80743382 1.4335427,10.3086354 1.49932535,10.7514008 C1.62202109,11.5778587 2.27079331,12.4191317 3.27360926,12.4191317 L5.57785008,12.440698 C5.98621994,12.4429484 6.31550279,12.7998236 6.3132854,13.2142715 C6.31125279,13.6274067 5.98067646,13.9994722 5.57415442,13.9994722 L5.57027398,13.9994722 L3.2699136,13.9488383 C1.65140155,13.9488383 0.290291859,12.6738015 0.0373242825,10.9702518 C-0.158730209,9.64870681 0.384715841,7.88570918 2.45261953,6.94823177 C1.97624961,4.88555642 3.12393524,3.14224975 4.66465376,2.40336977 C6.253231,1.64142323 8.48799351,1.85577344 9.96958155,3.94339068 C10.8934953,3.41623544 11.9879635,3.38210444 12.8932141,3.89969549 C13.6668995,4.34227334 14.3764652,5.28743961 14.3019978,6.6959999 C16.2865644,7.29948106 17.0962824,9.0364116 16.9909563,10.5317997 L16.9909563,10.5317997 Z" id="cloud-upload"></path>
                    </g>
                </g>
            </g>
        </g>
    </g>
</svg>