<svg width="34" height="34" viewBox="0 0 34 34" fill="none" xmlns="http://www.w3.org/2000/svg">
<path fill-rule="evenodd" clip-rule="evenodd" d="M30 18V4H4V18H30ZM31 20C31.552 20 32 19.4971 32 18.875V3.125C32 2.504 31.552 2 31 2H3C2.448 2 2 2.504 2 3.125V18.875C2 19.4971 2.448 20 3 20H31Z" fill="#777777"/>
<path fill-rule="evenodd" clip-rule="evenodd" d="M30 24V18H32V24.8571C32 25.4891 31.552 26 31 26H3C2.448 26 2 25.4891 2 24.8571V18H4V24H30Z" fill="#777777"/>
<path fill-rule="evenodd" clip-rule="evenodd" d="M30 30V24H32V30.8571C32 31.4891 31.552 32 31 32H3C2.448 32 2 31.4891 2 30.8571V24H4V30H30Z" fill="#777777"/>
<path d="M9.80469 11.2207H10.3027C10.7682 11.2207 11.1165 11.1296 11.3477 10.9473C11.5788 10.7617 11.6943 10.4932 11.6943 10.1416C11.6943 9.78678 11.5967 9.52474 11.4014 9.35547C11.2093 9.1862 10.9066 9.10156 10.4932 9.10156H9.80469V11.2207ZM13.2227 10.0879C13.2227 10.8561 12.9818 11.4437 12.5 11.8506C12.0215 12.2575 11.3395 12.4609 10.4541 12.4609H9.80469V15H8.29102V7.86133H10.5713C11.4372 7.86133 12.0947 8.0485 12.5439 8.42285C12.9964 8.79395 13.2227 9.34896 13.2227 10.0879Z" fill="#777777"/>
<path d="M20.4199 15H18.9111V11.9189H16.084V15H14.5703V7.86133H16.084V10.6592H18.9111V7.86133H20.4199V15Z" fill="#777777"/>
<path d="M23.7402 11.2207H24.2383C24.7038 11.2207 25.0521 11.1296 25.2832 10.9473C25.5143 10.7617 25.6299 10.4932 25.6299 10.1416C25.6299 9.78678 25.5322 9.52474 25.3369 9.35547C25.1449 9.1862 24.8421 9.10156 24.4287 9.10156H23.7402V11.2207ZM27.1582 10.0879C27.1582 10.8561 26.9173 11.4437 26.4355 11.8506C25.957 12.2575 25.2751 12.4609 24.3896 12.4609H23.7402V15H22.2266V7.86133H24.5068C25.3727 7.86133 26.0303 8.0485 26.4795 8.42285C26.932 8.79395 27.1582 9.34896 27.1582 10.0879Z" fill="#777777"/>
</svg>
