<svg width="12" height="9" viewBox="0 0 12 9" fill="none" xmlns="http://www.w3.org/2000/svg">
<path d="M7.5 0.492188C8.64062 0.523437 9.58594 0.914062 10.3359 1.66406C11.0859 2.41406 11.4766 3.35938 11.5078 4.5C11.4766 5.64062 11.0859 6.58594 10.3359 7.33594C9.58594 8.08594 8.64062 8.47656 7.5 8.50781C6.35938 8.47656 5.41406 8.08594 4.66406 7.33594C3.91406 6.58594 3.52344 5.64062 3.49219 4.5C3.52344 3.35938 3.91406 2.41406 4.66406 1.66406C5.41406 0.914062 6.35938 0.523437 7.5 0.492188ZM7.5 1.5C6.65625 1.51563 5.94531 1.8125 5.36719 2.39062C4.80469 2.95312 4.51562 3.65625 4.5 4.5C4.51562 5.34375 4.80469 6.05469 5.36719 6.63281C5.94531 7.19531 6.65625 7.48438 7.5 7.5C8.34375 7.48438 9.04688 7.19531 9.60938 6.63281C10.1875 6.05469 10.4844 5.34375 10.5 4.5C10.4844 3.65625 10.1875 2.95312 9.60938 2.39062C9.04688 1.8125 8.34375 1.51563 7.5 1.5ZM7.00781 2.50781H7.75781V4.38281L8.90625 5.55469L8.39062 6.09375L7.00781 4.71094V2.50781ZM1.00781 7.5C0.867188 7.5 0.75 7.45312 0.65625 7.35938C0.5625 7.26562 0.515625 7.14844 0.515625 7.00781C0.515625 6.86719 0.5625 6.75 0.65625 6.65625C0.75 6.5625 0.867188 6.50781 1.00781 6.49219H2.90625C3.0625 6.85156 3.25781 7.1875 3.49219 7.5H1.00781ZM1.5 4.99219C1.35938 4.99219 1.24219 4.94531 1.14844 4.85156C1.05469 4.75781 1.00781 4.64062 1.00781 4.5C1.00781 4.35938 1.05469 4.24219 1.14844 4.14844C1.24219 4.05469 1.35938 4.00781 1.5 4.00781H2.53125L2.50781 4.5L2.53125 4.99219H1.5ZM1.99219 2.50781C1.85156 2.49219 1.73438 2.4375 1.64062 2.34375C1.54688 2.25 1.5 2.13281 1.5 1.99219C1.5 1.85156 1.54688 1.73438 1.64062 1.64062C1.73438 1.54688 1.85156 1.5 1.99219 1.5H3.49219C3.25781 1.8125 3.0625 2.14844 2.90625 2.50781H1.99219Z" fill="#323232"/>
</svg>
