<svg width="16" height="14" viewBox="0 0 16 14" fill="none" xmlns="http://www.w3.org/2000/svg">
<path d="M3.2 7H0L4 11.375L8 7L4.8 7C4.8 4.10375 6.952 1.75 9.6 1.75C12.248 1.75 14.4 4.10375 14.4 7C14.4 9.89625 12.248 12.25 9.6 12.25V14C13.136 14 16 10.8675 16 7C16 3.1325 13.136 0 9.6 0C6.064 0 3.2 3.1325 3.2 7Z" fill="white"/>
<path d="M10.9885 6.63333C10.2239 6.43667 9.97807 6.23333 9.97807 5.91667C9.97807 5.55333 10.3182 5.3 10.8874 5.3C11.4869 5.3 11.7092 5.58333 11.7294 6H12.4737C12.4501 5.42667 12.0965 4.9 11.3926 4.73V4H10.3822V4.72C9.72885 4.86 9.20345 5.28 9.20345 5.92333C9.20345 6.69333 9.84672 7.07667 10.7864 7.3C11.6284 7.5 11.7968 7.79333 11.7968 8.10333C11.7968 8.33333 11.6317 8.7 10.8874 8.7C10.1936 8.7 9.92082 8.39333 9.88377 8H9.14282C9.18324 8.73 9.73558 9.14 10.3822 9.27667V10H11.3926V9.28333C12.0494 9.16 12.5714 8.78333 12.5714 8.1C12.5714 7.15333 11.753 6.83 10.9885 6.63333Z" fill="white"/>
</svg>
