<?xml version="1.0" encoding="UTF-8"?>
<svg width="85px" height="56px" viewBox="0 0 85 56" version="1.1" xmlns="http://www.w3.org/2000/svg" xmlns:xlink="http://www.w3.org/1999/xlink">
    <!-- Generator: Sketch 52.5 (67469) - http://www.bohemiancoding.com/sketch -->
    <title>email_verified_icon@1x</title>
    <desc>Created with Sketch.</desc>
    <defs>
        <rect id="path-1" x="0" y="0" width="85" height="85"></rect>
    </defs>
    <g id="V1.2" stroke="none" stroke-width="1" fill="none" fill-rule="evenodd">
        <g id="XT-Email-Verified" transform="translate(-598.000000, -295.000000)">
            <g id="email_verified_icon" transform="translate(598.000000, 280.000000)">
                <mask id="mask-2" fill="white">
                    <use xlink:href="#path-1"></use>
                </mask>
                <g id="Rectangle" fill-rule="nonzero"></g>
                <g id="email-verified-outlined-interface-symbol-of-closed-envelope-back" mask="url(#mask-2)" fill="#52479c">
                    <g transform="translate(0.000000, 15.000000)">
                        <polygon id="Path" fill-rule="evenodd" points="76.7141458 34 67.8571144 42.9555321 63.2857048 38.333283 61 40.3555925 67.8571144 47 79 36.0221584"></polygon>
                        <path d="M73.27573,24.1684211 L73.27573,5.89473684 C73.27573,2.65255452 70.637727,0 67.4136716,0 L5.8620584,0 C2.63784965,0 0,2.65255452 0,5.89473684 L0,41.2631579 C0,44.5051861 2.63784965,47.1578947 5.8620584,47.1578947 L54.5171431,47.1578947 C57.155146,52.4631579 62.7240248,56 68.8792628,56 C77.6723504,56 85,48.631656 85,39.7893966 C84.9998467,32.4210526 80.0170205,26.2315019 73.27573,24.1684211 Z M65.9480803,2.94736842 L36.6377883,28.5895507 L7.32749637,2.94736842 L65.9480803,2.94736842 Z M3.81026133,43.3263928 C3.22405549,42.7369192 2.9310292,42.1474455 2.9310292,41.2631579 L2.9310292,5.89473684 C2.9310292,5.01060337 3.22420875,4.42112969 3.81026133,3.83150189 L26.3792628,23.5789474 L3.81026133,43.3263928 Z M53.3447314,44.2105263 L7.32749637,44.2105263 L28.7239329,25.6421823 L36.6377883,32.4210526 L44.5516438,25.6421823 L53.9309372,33.8948139 C53.0515519,35.663235 52.7585256,37.7263158 52.7585256,40.0842105 C52.7585256,41.2631579 53.0515519,42.7369192 53.3447314,44.2105263 Z M46.8964672,23.5789474 L69.4654686,3.83150189 C70.0516745,4.42097558 70.3447008,5.01044926 70.3447008,5.89473684 L70.3447008,23.5789474 C69.7584949,23.5789474 69.4654686,23.5789474 68.8792628,23.5789474 C63.3102307,23.5789474 58.0343781,26.5263158 55.3965285,30.9472914 L46.8964672,23.5789474 Z M68.8792628,53.0526316 C61.5517664,53.0526316 55.689708,47.1578947 55.689708,39.7895507 C55.689708,32.4212067 61.5517664,26.5264699 68.8792628,26.5264699 C76.2067591,26.5264699 82.0688175,32.4210526 82.0688175,39.7893966 C82.0688175,47.1577406 76.2067591,53.0526316 68.8792628,53.0526316 Z" id="Shape" fill-rule="nonzero"></path>
                    </g>
                </g>
            </g>
        </g>
    </g>
</svg>