<?xml version="1.0" encoding="UTF-8"?>
<svg width="22px" height="22px" viewBox="0 0 22 22" version="1.1" xmlns="http://www.w3.org/2000/svg" xmlns:xlink="http://www.w3.org/1999/xlink">
    <!-- Generator: sketchtool 41.2 (35397) - http://www.bohemiancoding.com/sketch -->
    <title>1F4E9E42-3BC5-4D40-AA3E-67C82433242C</title>
    <desc>Created with sketchtool.</desc>
    <defs></defs>
    <g id="Mockup" stroke="none" stroke-width="1" fill="none" fill-rule="evenodd" stroke-linecap="round">
        <g id="7-2-2-1-Users-(invite)" transform="translate(-544.000000, -645.000000)" stroke="#43484D" stroke-width="2">
            <g id="Modol">
                <g id="Manage" transform="translate(544.000000, 637.000000)">
                    <g id="icon-user" transform="translate(1.000000, 9.000000)">
                        <path d="M19.2418779,16.1904762 C19.2418779,13.0347619 14.9613475,10.4761905 9.68072007,10.4761905 C4.40009262,10.4761905 0.119562278,13.0347619 0.119562278,16.1904762" id="Stroke-13"></path>
                        <path d="M9.68072007,10.4803333 C12.5849218,10.4803333 14.9393569,8.13509524 14.9393569,5.2422381 C14.9393569,2.34938095 12.5849218,0.00414285714 9.68072007,0.00414285714 C6.77651839,0.00414285714 4.42208329,2.34938095 4.42208329,5.2422381 C4.42208329,8.13509524 6.77651839,10.4803333 9.68072007,10.4803333 L9.68072007,10.4803333 Z" id="Stroke-15"></path>
                        <path d="M19.1223156,16.1904762 L19.1223156,19.3166667 C19.1223156,19.5957143 19.0271821,20 18.7499085,20 L0.611436041,20 C0.33989916,20 0,19.592381 0,19.3166667 L0,16.1904762" id="Stroke-17"></path>
                    </g>
                </g>
            </g>
        </g>
    </g>
</svg>