<svg width="320" height="218" viewBox="0 0 320 218" fill="none" xmlns="http://www.w3.org/2000/svg">
<mask id="mask0" mask-type="alpha" maskUnits="userSpaceOnUse" x="0" y="0" width="320" height="218">
<rect width="320" height="218" fill="white"/>
</mask>
<g mask="url(#mask0)">
<path d="M0 0H320V218H0V0Z" fill="#CFEEF1"/>
<g filter="url(#filter0_d)">
<rect x="16" y="16" width="427.038" height="269" fill="#F7F7F7"/>
<g filter="url(#filter1_d)">
<rect x="98.3811" y="106.788" width="334.569" height="168.966" rx="4" fill="white"/>
</g>
<path d="M169.931 118.481C169.931 118.939 169.781 119.29 169.481 119.533C169.182 119.777 168.755 119.899 168.201 119.899H167.746V121.539H167.03V117.157H168.291C168.839 117.157 169.248 117.269 169.52 117.492C169.794 117.716 169.931 118.046 169.931 118.481ZM167.746 119.297H168.127C168.494 119.297 168.764 119.233 168.936 119.105C169.108 118.977 169.194 118.777 169.194 118.505C169.194 118.254 169.117 118.066 168.963 117.942C168.809 117.818 168.569 117.756 168.243 117.756H167.746V119.297Z" fill="#777777"/>
<path d="M172.179 121.598C171.663 121.598 171.26 121.449 170.968 121.149C170.678 120.847 170.533 120.433 170.533 119.905C170.533 119.364 170.668 118.938 170.938 118.628C171.208 118.319 171.578 118.164 172.05 118.164C172.487 118.164 172.833 118.297 173.087 118.562C173.341 118.828 173.467 119.194 173.467 119.659V120.04H171.259C171.269 120.362 171.355 120.609 171.519 120.783C171.683 120.955 171.914 121.041 172.212 121.041C172.407 121.041 172.589 121.023 172.757 120.987C172.927 120.949 173.109 120.887 173.303 120.801V121.374C173.131 121.456 172.957 121.514 172.781 121.547C172.605 121.581 172.404 121.598 172.179 121.598ZM172.05 118.697C171.826 118.697 171.646 118.768 171.51 118.91C171.376 119.052 171.296 119.259 171.271 119.53H172.775C172.771 119.257 172.705 119.05 172.577 118.91C172.449 118.768 172.274 118.697 172.05 118.697Z" fill="#777777"/>
<path d="M177.184 121.539H176.476V119.5C176.476 119.245 176.425 119.054 176.321 118.928C176.219 118.802 176.056 118.739 175.832 118.739C175.534 118.739 175.317 118.827 175.179 119.003C175.041 119.179 174.972 119.473 174.972 119.887V121.539H174.268V118.224H174.819L174.918 118.658H174.954C175.054 118.5 175.196 118.379 175.38 118.293C175.563 118.207 175.767 118.164 175.991 118.164C176.786 118.164 177.184 118.568 177.184 119.378V121.539Z" fill="#777777"/>
<path d="M179.282 121.598C178.868 121.598 178.546 121.449 178.314 121.149C178.082 120.849 177.966 120.429 177.966 119.887C177.966 119.344 178.083 118.921 178.317 118.619C178.552 118.316 178.878 118.164 179.294 118.164C179.729 118.164 180.061 118.325 180.289 118.646H180.325C180.291 118.409 180.274 118.221 180.274 118.083V116.875H180.981V121.539H180.43L180.307 121.104H180.274C180.048 121.434 179.717 121.598 179.282 121.598ZM179.471 121.029C179.76 121.029 179.971 120.948 180.103 120.786C180.235 120.622 180.303 120.358 180.307 119.992V119.893C180.307 119.475 180.239 119.179 180.103 119.003C179.967 118.827 179.754 118.739 179.465 118.739C179.217 118.739 179.026 118.84 178.892 119.042C178.758 119.242 178.691 119.527 178.691 119.899C178.691 120.267 178.756 120.547 178.886 120.741C179.016 120.933 179.211 121.029 179.471 121.029Z" fill="#777777"/>
<path d="M182.693 121.539H181.988V118.224H182.693V121.539ZM181.946 117.346C181.946 117.22 181.98 117.123 182.048 117.055C182.118 116.987 182.217 116.953 182.345 116.953C182.469 116.953 182.565 116.987 182.633 117.055C182.702 117.123 182.737 117.22 182.737 117.346C182.737 117.465 182.702 117.56 182.633 117.63C182.565 117.698 182.469 117.732 182.345 117.732C182.217 117.732 182.118 117.698 182.048 117.63C181.98 117.56 181.946 117.465 181.946 117.346Z" fill="#777777"/>
<path d="M186.619 121.539H185.911V119.5C185.911 119.245 185.859 119.054 185.756 118.928C185.654 118.802 185.491 118.739 185.267 118.739C184.969 118.739 184.752 118.827 184.614 119.003C184.476 119.179 184.407 119.473 184.407 119.887V121.539H183.703V118.224H184.254L184.353 118.658H184.389C184.489 118.5 184.631 118.379 184.814 118.293C184.998 118.207 185.202 118.164 185.426 118.164C186.221 118.164 186.619 118.568 186.619 119.378V121.539Z" fill="#777777"/>
<path d="M190.398 118.224V118.61L189.832 118.715C189.884 118.785 189.927 118.871 189.961 118.973C189.994 119.075 190.011 119.183 190.011 119.297C190.011 119.638 189.894 119.907 189.658 120.103C189.422 120.299 189.097 120.397 188.684 120.397C188.578 120.397 188.482 120.389 188.396 120.373C188.244 120.467 188.168 120.576 188.168 120.702C188.168 120.778 188.203 120.835 188.273 120.873C188.345 120.911 188.476 120.93 188.666 120.93H189.244C189.61 120.93 189.888 121.008 190.077 121.164C190.267 121.32 190.362 121.545 190.362 121.838C190.362 122.214 190.207 122.504 189.898 122.707C189.588 122.911 189.14 123.013 188.555 123.013C188.103 123.013 187.759 122.933 187.521 122.773C187.283 122.613 187.164 122.386 187.164 122.09C187.164 121.886 187.228 121.714 187.356 121.574C187.486 121.437 187.667 121.341 187.898 121.287C187.805 121.247 187.727 121.183 187.665 121.095C187.605 121.005 187.575 120.911 187.575 120.813C187.575 120.689 187.61 120.584 187.68 120.499C187.75 120.413 187.854 120.328 187.991 120.244C187.82 120.17 187.68 120.05 187.572 119.884C187.466 119.716 187.413 119.52 187.413 119.297C187.413 118.937 187.526 118.658 187.752 118.46C187.979 118.263 188.303 118.164 188.723 118.164C188.817 118.164 188.915 118.171 189.016 118.185C189.12 118.197 189.198 118.21 189.25 118.224H190.398ZM187.794 122.054C187.794 122.206 187.862 122.323 187.997 122.405C188.135 122.487 188.328 122.528 188.576 122.528C188.959 122.528 189.245 122.473 189.433 122.363C189.621 122.253 189.715 122.107 189.715 121.925C189.715 121.781 189.663 121.678 189.559 121.616C189.457 121.556 189.266 121.527 188.986 121.527H188.453C188.251 121.527 188.09 121.573 187.97 121.667C187.853 121.763 187.794 121.892 187.794 122.054ZM188.096 119.297C188.096 119.504 188.149 119.664 188.255 119.776C188.363 119.888 188.517 119.944 188.717 119.944C189.124 119.944 189.328 119.726 189.328 119.291C189.328 119.075 189.277 118.909 189.175 118.793C189.075 118.675 188.923 118.616 188.717 118.616C188.513 118.616 188.358 118.674 188.252 118.79C188.148 118.906 188.096 119.075 188.096 119.297Z" fill="#777777"/>
<path d="M192.352 119.857C192.352 119.328 192.429 118.832 192.583 118.371C192.739 117.909 192.963 117.504 193.254 117.157H193.869C193.591 117.532 193.378 117.954 193.23 118.422C193.083 118.887 193.009 119.364 193.009 119.851C193.009 120.339 193.083 120.811 193.23 121.269C193.378 121.726 193.589 122.14 193.863 122.51H193.254C192.961 122.17 192.737 121.773 192.583 121.32C192.429 120.866 192.352 120.379 192.352 119.857Z" fill="#777777"/>
<path d="M197.13 118.164C197.13 118.441 197.049 118.673 196.887 118.859C196.725 119.043 196.497 119.167 196.203 119.231V119.255C196.555 119.299 196.819 119.409 196.995 119.584C197.171 119.758 197.258 119.99 197.258 120.28C197.258 120.701 197.11 121.027 196.812 121.257C196.514 121.485 196.091 121.598 195.541 121.598C195.056 121.598 194.646 121.52 194.312 121.362V120.735C194.498 120.827 194.695 120.898 194.903 120.948C195.111 120.998 195.31 121.023 195.502 121.023C195.842 121.023 196.096 120.96 196.263 120.834C196.431 120.708 196.515 120.513 196.515 120.25C196.515 120.016 196.422 119.844 196.236 119.734C196.051 119.624 195.759 119.569 195.361 119.569H194.981V118.997H195.367C196.067 118.997 196.416 118.755 196.416 118.272C196.416 118.084 196.355 117.939 196.233 117.837C196.112 117.735 195.932 117.684 195.694 117.684C195.528 117.684 195.368 117.708 195.214 117.756C195.061 117.802 194.879 117.893 194.669 118.029L194.324 117.537C194.726 117.242 195.192 117.094 195.724 117.094C196.166 117.094 196.51 117.189 196.758 117.379C197.006 117.568 197.13 117.83 197.13 118.164Z" fill="#777777"/>
<path d="M199.261 119.857C199.261 120.383 199.183 120.872 199.027 121.326C198.873 121.779 198.65 122.174 198.358 122.51H197.75C198.026 122.136 198.237 121.721 198.382 121.266C198.53 120.81 198.604 120.339 198.604 119.851C198.604 119.362 198.53 118.885 198.382 118.422C198.235 117.956 198.022 117.534 197.744 117.157H198.358C198.652 117.506 198.876 117.913 199.03 118.377C199.184 118.838 199.261 119.332 199.261 119.857Z" fill="#777777"/>
<path d="M108.206 117.157H109.507C110.111 117.157 110.546 117.245 110.814 117.42C111.084 117.596 111.218 117.874 111.218 118.254C111.218 118.509 111.153 118.722 111.021 118.892C110.889 119.062 110.699 119.169 110.451 119.213V119.243C110.759 119.301 110.985 119.416 111.129 119.587C111.274 119.757 111.347 119.988 111.347 120.28C111.347 120.673 111.209 120.982 110.934 121.206C110.66 121.428 110.278 121.539 109.789 121.539H108.206V117.157ZM108.923 118.967H109.612C109.912 118.967 110.131 118.92 110.268 118.826C110.406 118.73 110.475 118.568 110.475 118.341C110.475 118.135 110.4 117.986 110.25 117.894C110.103 117.802 109.867 117.756 109.543 117.756H108.923V118.967ZM108.923 119.548V120.936H109.684C109.984 120.936 110.209 120.879 110.361 120.765C110.515 120.649 110.592 120.468 110.592 120.22C110.592 119.992 110.514 119.823 110.358 119.713C110.202 119.603 109.966 119.548 109.648 119.548H108.923Z" fill="#52479C"/>
<path d="M114.258 121.539L114.117 121.077H114.093C113.933 121.279 113.772 121.417 113.61 121.491C113.448 121.562 113.241 121.598 112.987 121.598C112.661 121.598 112.406 121.511 112.222 121.335C112.041 121.159 111.95 120.91 111.95 120.588C111.95 120.247 112.077 119.989 112.33 119.815C112.584 119.641 112.971 119.546 113.49 119.53L114.063 119.512V119.336C114.063 119.124 114.013 118.966 113.913 118.862C113.815 118.756 113.662 118.703 113.454 118.703C113.284 118.703 113.122 118.728 112.966 118.778C112.81 118.828 112.66 118.887 112.516 118.955L112.288 118.451C112.468 118.358 112.665 118.287 112.879 118.239C113.093 118.189 113.294 118.164 113.484 118.164C113.906 118.164 114.224 118.256 114.437 118.439C114.653 118.623 114.761 118.912 114.761 119.306V121.539H114.258ZM113.209 121.059C113.464 121.059 113.669 120.988 113.823 120.846C113.979 120.702 114.057 120.502 114.057 120.244V119.956L113.631 119.974C113.299 119.986 113.058 120.042 112.906 120.142C112.756 120.24 112.681 120.391 112.681 120.594C112.681 120.742 112.725 120.857 112.813 120.939C112.901 121.019 113.033 121.059 113.209 121.059Z" fill="#52479C"/>
<path d="M116.448 121.539H115.744V116.875H116.448V121.539Z" fill="#52479C"/>
<path d="M119.532 121.539L119.392 121.077H119.368C119.208 121.279 119.047 121.417 118.885 121.491C118.723 121.562 118.515 121.598 118.262 121.598C117.936 121.598 117.681 121.511 117.497 121.335C117.316 121.159 117.225 120.91 117.225 120.588C117.225 120.247 117.352 119.989 117.605 119.815C117.859 119.641 118.246 119.546 118.765 119.53L119.338 119.512V119.336C119.338 119.124 119.288 118.966 119.188 118.862C119.09 118.756 118.937 118.703 118.729 118.703C118.559 118.703 118.397 118.728 118.241 118.778C118.085 118.828 117.935 118.887 117.791 118.955L117.563 118.451C117.743 118.358 117.94 118.287 118.154 118.239C118.368 118.189 118.569 118.164 118.759 118.164C119.181 118.164 119.498 118.256 119.712 118.439C119.928 118.623 120.036 118.912 120.036 119.306V121.539H119.532ZM118.483 121.059C118.739 121.059 118.944 120.988 119.098 120.846C119.254 120.702 119.332 120.502 119.332 120.244V119.956L118.906 119.974C118.574 119.986 118.333 120.042 118.181 120.142C118.031 120.24 117.956 120.391 117.956 120.594C117.956 120.742 118 120.857 118.088 120.939C118.176 121.019 118.308 121.059 118.483 121.059Z" fill="#52479C"/>
<path d="M123.935 121.539H123.228V119.5C123.228 119.245 123.176 119.054 123.072 118.928C122.97 118.802 122.807 118.739 122.584 118.739C122.286 118.739 122.068 118.827 121.93 119.003C121.792 119.179 121.723 119.473 121.723 119.887V121.539H121.019V118.224H121.57L121.669 118.658H121.705C121.805 118.5 121.947 118.379 122.131 118.293C122.315 118.207 122.519 118.164 122.742 118.164C123.538 118.164 123.935 118.568 123.935 119.378V121.539Z" fill="#52479C"/>
<path d="M126.252 121.598C125.75 121.598 125.369 121.453 125.107 121.161C124.847 120.867 124.717 120.447 124.717 119.899C124.717 119.342 124.853 118.913 125.125 118.613C125.399 118.314 125.793 118.164 126.309 118.164C126.659 118.164 126.973 118.229 127.253 118.359L127.04 118.925C126.743 118.809 126.497 118.751 126.303 118.751C125.729 118.751 125.443 119.132 125.443 119.893C125.443 120.265 125.514 120.544 125.656 120.732C125.799 120.918 126.009 121.011 126.285 121.011C126.599 121.011 126.895 120.933 127.175 120.777V121.392C127.049 121.466 126.914 121.519 126.77 121.55C126.629 121.582 126.456 121.598 126.252 121.598Z" fill="#52479C"/>
<path d="M129.402 121.598C128.886 121.598 128.483 121.449 128.191 121.149C127.901 120.847 127.757 120.433 127.757 119.905C127.757 119.364 127.891 118.938 128.161 118.628C128.431 118.319 128.802 118.164 129.273 118.164C129.711 118.164 130.056 118.297 130.31 118.562C130.564 118.828 130.691 119.194 130.691 119.659V120.04H128.482C128.492 120.362 128.579 120.609 128.743 120.783C128.906 120.955 129.137 121.041 129.435 121.041C129.631 121.041 129.813 121.023 129.98 120.987C130.15 120.949 130.332 120.887 130.526 120.801V121.374C130.354 121.456 130.18 121.514 130.004 121.547C129.829 121.581 129.628 121.598 129.402 121.598ZM129.273 118.697C129.049 118.697 128.869 118.768 128.734 118.91C128.6 119.052 128.52 119.259 128.494 119.53H129.998C129.994 119.257 129.928 119.05 129.801 118.91C129.673 118.768 129.497 118.697 129.273 118.697Z" fill="#52479C"/>
<path d="M136.616 121.539H135.897V119.563H133.877V121.539H133.16V117.157H133.877V118.949H135.897V117.157H136.616V121.539Z" fill="#52479C"/>
<path d="M138.399 121.539H137.695V118.224H138.399V121.539ZM137.653 117.346C137.653 117.22 137.687 117.123 137.755 117.055C137.825 116.987 137.924 116.953 138.052 116.953C138.175 116.953 138.271 116.987 138.339 117.055C138.409 117.123 138.444 117.22 138.444 117.346C138.444 117.465 138.409 117.56 138.339 117.63C138.271 117.698 138.175 117.732 138.052 117.732C137.924 117.732 137.825 117.698 137.755 117.63C137.687 117.56 137.653 117.465 137.653 117.346Z" fill="#52479C"/>
<path d="M141.636 120.594C141.636 120.918 141.518 121.167 141.283 121.341C141.047 121.513 140.709 121.598 140.269 121.598C139.828 121.598 139.473 121.532 139.206 121.398V120.789C139.595 120.969 139.958 121.059 140.293 121.059C140.727 121.059 140.944 120.928 140.944 120.666C140.944 120.582 140.92 120.512 140.872 120.457C140.824 120.401 140.745 120.343 140.635 120.283C140.525 120.223 140.372 120.155 140.177 120.079C139.795 119.931 139.536 119.783 139.4 119.635C139.266 119.487 139.2 119.296 139.2 119.06C139.2 118.776 139.313 118.556 139.541 118.401C139.771 118.243 140.083 118.164 140.476 118.164C140.866 118.164 141.235 118.243 141.582 118.401L141.354 118.931C140.997 118.783 140.696 118.709 140.452 118.709C140.081 118.709 139.895 118.815 139.895 119.027C139.895 119.131 139.943 119.219 140.039 119.291C140.137 119.363 140.348 119.462 140.674 119.587C140.948 119.693 141.147 119.79 141.271 119.878C141.394 119.966 141.486 120.068 141.546 120.184C141.606 120.298 141.636 120.435 141.636 120.594Z" fill="#52479C"/>
<path d="M143.635 121.029C143.807 121.029 143.979 121.002 144.151 120.948V121.479C144.073 121.513 143.972 121.541 143.848 121.562C143.726 121.586 143.599 121.598 143.467 121.598C142.8 121.598 142.466 121.247 142.466 120.543V118.757H142.014V118.445L142.499 118.188L142.739 117.486H143.174V118.224H144.118V118.757H143.174V120.531C143.174 120.701 143.216 120.827 143.3 120.909C143.385 120.989 143.497 121.029 143.635 121.029Z" fill="#52479C"/>
<path d="M147.756 119.875C147.756 120.417 147.617 120.839 147.34 121.143C147.062 121.447 146.675 121.598 146.18 121.598C145.87 121.598 145.596 121.529 145.359 121.389C145.121 121.249 144.938 121.048 144.81 120.786C144.682 120.524 144.618 120.221 144.618 119.875C144.618 119.338 144.756 118.918 145.032 118.616C145.308 118.315 145.696 118.164 146.198 118.164C146.677 118.164 147.057 118.319 147.337 118.628C147.616 118.936 147.756 119.352 147.756 119.875ZM145.344 119.875C145.344 120.64 145.626 121.023 146.192 121.023C146.751 121.023 147.031 120.64 147.031 119.875C147.031 119.118 146.749 118.739 146.186 118.739C145.89 118.739 145.675 118.837 145.541 119.033C145.41 119.229 145.344 119.509 145.344 119.875Z" fill="#52479C"/>
<path d="M150.25 118.164C150.392 118.164 150.509 118.174 150.601 118.194L150.532 118.85C150.432 118.826 150.328 118.814 150.22 118.814C149.938 118.814 149.709 118.906 149.534 119.09C149.36 119.274 149.273 119.512 149.273 119.806V121.539H148.568V118.224H149.12L149.213 118.808H149.249C149.359 118.61 149.502 118.453 149.677 118.338C149.855 118.222 150.046 118.164 150.25 118.164Z" fill="#52479C"/>
<path d="M150.714 118.224H151.482L152.156 120.103C152.258 120.371 152.326 120.622 152.36 120.858H152.384C152.402 120.748 152.435 120.615 152.483 120.46C152.531 120.302 152.784 119.556 153.244 118.224H154.005L152.588 121.979C152.33 122.668 151.9 123.013 151.299 123.013C151.143 123.013 150.991 122.996 150.843 122.962V122.405C150.949 122.429 151.07 122.441 151.206 122.441C151.546 122.441 151.784 122.244 151.922 121.85L152.045 121.539L150.714 118.224Z" fill="#52479C"/>
<rect x="107.628" y="125.325" width="47.0587" height="1.02301" rx="0.511507" fill="#52479C"/>
<rect x="98.4802" y="135.172" width="334.477" height="0.198502" rx="0.0992512" fill="white" stroke="#DFDFDF" stroke-width="0.198502"/>
<rect x="121.078" y="169.931" width="17.0658" height="5.95507" rx="2.97754" fill="#CFCFCF"/>
<rect x="105.106" y="169.834" width="5.95507" height="5.95507" rx="2.97754" fill="#CFCFCF"/>
<rect x="105.106" y="187.7" width="5.95507" height="5.95507" rx="2.97754" fill="#ECECEC"/>
<rect x="105.106" y="203.183" width="5.95507" height="5.95507" rx="2.97754" fill="#ECECEC"/>
<rect x="230.359" y="169.931" width="18.6533" height="5.95507" rx="2.97754" fill="#CFCFCF"/>
<rect x="174.878" y="169.931" width="17.8595" height="5.95507" rx="2.97754" fill="#CFCFCF"/>
<rect x="295.928" y="169.931" width="21.0346" height="5.95507" rx="2.97754" fill="#CFCFCF"/>
<rect x="121.078" y="187.796" width="26.5909" height="5.95507" rx="2.97754" fill="#ECECEC"/>
<rect x="230.359" y="187.796" width="32.5441" height="5.95507" rx="2.97754" fill="#ECECEC"/>
<rect x="174.878" y="187.796" width="23.4158" height="5.95507" rx="2.97754" fill="#ECECEC"/>
<rect x="295.928" y="187.796" width="33.7347" height="5.95507" rx="2.97754" fill="#ECECEC"/>
<rect x="121.078" y="203.279" width="26.5909" height="5.95507" rx="2.97754" fill="#ECECEC"/>
<rect x="230.359" y="203.279" width="32.5441" height="5.95507" rx="2.97754" fill="#ECECEC"/>
<rect x="174.878" y="203.279" width="23.4158" height="5.95507" rx="2.97754" fill="#ECECEC"/>
<rect x="295.928" y="203.279" width="33.7347" height="5.95507" rx="2.97754" fill="#ECECEC"/>
<rect x="98.4802" y="163.281" width="334.37" height="0.198502" rx="0.0992512" fill="white" stroke="#DFDFDF" stroke-width="0.198502"/>
<rect x="150.475" y="143.831" width="39.0847" height="12.4982" rx="3.5" fill="white" stroke="#CFCFCF"/>
<rect x="200.085" y="143.831" width="39.0847" height="12.4982" rx="3.5" fill="white" stroke="#CFCFCF"/>
<rect x="203.951" y="146.904" width="24.6065" height="5.95507" rx="2.97754" fill="#ECECEC"/>
<rect x="154.341" y="146.904" width="24.6065" height="5.95507" rx="2.97754" fill="#ECECEC"/>
<path d="M193.311 157.274V156.102H196.322V157.274H193.311Z" fill="#CFCFCF"/>
<rect x="105.231" y="143.831" width="37.8941" height="12.4982" rx="3.5" fill="white" stroke="#CFCFCF"/>
<rect x="109.097" y="147.698" width="24.6065" height="5.95507" rx="2.97754" fill="#ECECEC"/>
<path d="M137.157 149.997L138.069 150.909L138.981 149.997L139.26 150.276L138.069 151.467L136.878 150.276L137.157 149.997Z" fill="#CFCFCF"/>
<rect x="246.52" y="143.831" width="70.0413" height="12.4982" rx="3.5" fill="white" stroke="#CFCFCF"/>
<path fill-rule="evenodd" clip-rule="evenodd" d="M253.402 150.395H253.624L255.027 151.801L254.608 152.22L253.203 150.817V150.594L253.127 150.516C252.806 150.791 252.39 150.957 251.937 150.957C250.928 150.957 250.11 150.139 250.11 149.129C250.11 148.12 250.928 147.301 251.937 147.301C252.947 147.301 253.765 148.12 253.765 149.129C253.765 149.582 253.599 149.998 253.323 150.319L253.402 150.395ZM250.673 149.129C250.673 149.83 251.238 150.395 251.938 150.395C252.638 150.395 253.204 149.83 253.204 149.129C253.204 148.429 252.638 147.864 251.938 147.864C251.238 147.864 250.673 148.429 250.673 149.129Z" fill="#B1B1B1"/>
<path d="M233.518 149.482H233.118V149.882H233.518V149.482ZM234.309 149.482H233.918V149.882H234.309V149.482ZM235.109 149.482H234.709V149.882H235.109V149.482ZM235.5 148.095H235.304V147.695H234.904V148.095H233.323V147.695H232.923V148.095H232.728C232.61 148.095 232.514 148.136 232.439 148.216C232.365 148.291 232.328 148.384 232.328 148.496V151.268C232.328 151.38 232.365 151.476 232.439 151.557C232.52 151.631 232.616 151.668 232.728 151.668H235.5C235.611 151.668 235.704 151.631 235.779 151.557C235.859 151.476 235.9 151.38 235.9 151.268V148.496C235.9 148.384 235.859 148.291 235.779 148.216C235.704 148.136 235.611 148.095 235.5 148.095ZM235.5 151.268H232.728V149.091H235.5V151.268Z" fill="#CFCFCF"/>
<path d="M183.908 149.482H183.508V149.882H183.908V149.482ZM184.699 149.482H184.308V149.882H184.699V149.482ZM185.499 149.482H185.099V149.882H185.499V149.482ZM185.89 148.095H185.694V147.695H185.294V148.095H183.713V147.695H183.313V148.095H183.118C183 148.095 182.904 148.136 182.829 148.216C182.755 148.291 182.718 148.384 182.718 148.496V151.268C182.718 151.38 182.755 151.476 182.829 151.557C182.91 151.631 183.006 151.668 183.118 151.668H185.89C186.001 151.668 186.094 151.631 186.169 151.557C186.249 151.476 186.29 151.38 186.29 151.268V148.496C186.29 148.384 186.249 148.291 186.169 148.216C186.094 148.136 186.001 148.095 185.89 148.095ZM185.89 151.268H183.118V149.091H185.89V151.268Z" fill="#CFCFCF"/>
<rect x="104.83" y="182.337" width="321.67" height="0.198502" rx="0.0992512" fill="white" stroke="#DFDFDF" stroke-width="0.198502"/>
<g filter="url(#filter2_d)">
<rect x="98.3812" y="51.3063" width="334.569" height="48.7562" rx="1.5875" fill="white"/>
</g>
<path d="M109.328 89.574L110.902 91.1442L112.475 89.574L112.959 90.0574L110.902 92.1145L108.844 90.0574L109.328 89.574Z" fill="#52479C"/>
<path d="M119.166 91.5916C119.166 91.9833 119.025 92.2907 118.741 92.5137C118.458 92.7367 118.067 92.8482 117.569 92.8482C117.071 92.8482 116.663 92.7708 116.346 92.6161V91.9351C116.547 92.0295 116.76 92.1039 116.985 92.1581C117.212 92.2124 117.422 92.2395 117.617 92.2395C117.903 92.2395 118.113 92.1852 118.247 92.0768C118.384 91.9683 118.452 91.8226 118.452 91.6398C118.452 91.4751 118.39 91.3355 118.265 91.221C118.141 91.1065 117.884 90.9709 117.494 90.8142C117.092 90.6515 116.809 90.4656 116.644 90.2567C116.479 90.0478 116.397 89.7967 116.397 89.5034C116.397 89.1358 116.528 88.8465 116.789 88.6356C117.05 88.4246 117.4 88.3192 117.84 88.3192C118.262 88.3192 118.682 88.4116 119.1 88.5964L118.871 89.184C118.479 89.0192 118.13 88.9369 117.822 88.9369C117.589 88.9369 117.412 88.9881 117.292 89.0906C117.171 89.191 117.111 89.3246 117.111 89.4913C117.111 89.6058 117.135 89.7043 117.183 89.7866C117.232 89.867 117.311 89.9433 117.421 90.0156C117.532 90.088 117.731 90.1834 118.018 90.3019C118.342 90.4365 118.579 90.5621 118.729 90.6786C118.88 90.7951 118.99 90.9267 119.061 91.0733C119.131 91.22 119.166 91.3927 119.166 91.5916Z" fill="#52479C"/>
<path d="M121.399 92.8482C120.881 92.8482 120.475 92.6975 120.182 92.3962C119.89 92.0928 119.745 91.676 119.745 91.1456C119.745 90.6012 119.88 90.1733 120.152 89.862C120.423 89.5506 120.795 89.3949 121.269 89.3949C121.709 89.3949 122.057 89.5285 122.312 89.7957C122.567 90.0629 122.695 90.4305 122.695 90.8985V91.2812H120.474C120.484 91.6047 120.571 91.8538 120.736 92.0285C120.901 92.2013 121.133 92.2877 121.432 92.2877C121.629 92.2877 121.812 92.2696 121.981 92.2334C122.151 92.1953 122.334 92.133 122.529 92.0466V92.6222C122.356 92.7045 122.182 92.7628 122.005 92.7969C121.828 92.8311 121.626 92.8482 121.399 92.8482ZM121.269 89.9313C121.044 89.9313 120.864 90.0026 120.727 90.1452C120.592 90.2879 120.512 90.4958 120.486 90.769H121.999C121.995 90.4938 121.928 90.2858 121.8 90.1452C121.671 90.0026 121.494 89.9313 121.269 89.9313Z" fill="#52479C"/>
<path d="M124.955 92.8482C124.436 92.8482 124.031 92.6975 123.737 92.3962C123.446 92.0928 123.3 91.676 123.3 91.1456C123.3 90.6012 123.436 90.1733 123.707 89.862C123.978 89.5506 124.351 89.3949 124.825 89.3949C125.265 89.3949 125.613 89.5285 125.868 89.7957C126.123 90.0629 126.25 90.4305 126.25 90.8985V91.2812H124.03C124.04 91.6047 124.127 91.8538 124.292 92.0285C124.457 92.2013 124.689 92.2877 124.988 92.2877C125.185 92.2877 125.368 92.2696 125.536 92.2334C125.707 92.1953 125.89 92.133 126.085 92.0466V92.6222C125.912 92.7045 125.737 92.7628 125.56 92.7969C125.384 92.8311 125.182 92.8482 124.955 92.8482ZM124.825 89.9313C124.6 89.9313 124.419 90.0026 124.283 90.1452C124.148 90.2879 124.068 90.4958 124.042 90.769H125.554C125.55 90.4938 125.484 90.2858 125.356 90.1452C125.227 90.0026 125.05 89.9313 124.825 89.9313Z" fill="#52479C"/>
<path d="M130.361 89.3949C130.776 89.3949 131.1 89.5456 131.331 89.8469C131.564 90.1482 131.68 90.5711 131.68 91.1155C131.68 91.6619 131.563 92.0878 131.328 92.3932C131.093 92.6965 130.766 92.8482 130.349 92.8482C129.927 92.8482 129.599 92.6965 129.366 92.3932H129.318L129.188 92.7879H128.658V88.0992H129.366V89.2141C129.366 89.2965 129.362 89.419 129.354 89.5817C129.346 89.7445 129.34 89.8479 129.336 89.8921H129.366C129.591 89.5606 129.923 89.3949 130.361 89.3949ZM130.177 89.9735C129.892 89.9735 129.686 90.0578 129.559 90.2266C129.435 90.3933 129.37 90.6736 129.366 91.0673V91.1155C129.366 91.5213 129.431 91.8156 129.559 91.9984C129.688 92.1792 129.898 92.2696 130.189 92.2696C130.44 92.2696 130.63 92.1702 130.758 91.9713C130.889 91.7724 130.954 91.4851 130.954 91.1095C130.954 90.3521 130.695 89.9735 130.177 89.9735Z" fill="#52479C"/>
<path d="M134.194 89.3949C134.336 89.3949 134.454 89.405 134.546 89.425L134.477 90.085C134.376 90.0608 134.272 90.0488 134.163 90.0488C133.88 90.0488 133.65 90.1412 133.473 90.326C133.299 90.5108 133.211 90.7509 133.211 91.0462V92.7879H132.503V89.4552H133.058L133.151 90.0428H133.187C133.298 89.8439 133.441 89.6862 133.618 89.5697C133.797 89.4532 133.989 89.3949 134.194 89.3949Z" fill="#52479C"/>
<path d="M136.622 92.8482C136.104 92.8482 135.698 92.6975 135.405 92.3962C135.114 92.0928 134.968 91.676 134.968 91.1456C134.968 90.6012 135.104 90.1733 135.375 89.862C135.646 89.5506 136.019 89.3949 136.493 89.3949C136.933 89.3949 137.28 89.5285 137.535 89.7957C137.79 90.0629 137.918 90.4305 137.918 90.8985V91.2812H135.697C135.707 91.6047 135.795 91.8538 135.959 92.0285C136.124 92.2013 136.356 92.2877 136.655 92.2877C136.852 92.2877 137.035 92.2696 137.204 92.2334C137.375 92.1953 137.557 92.133 137.752 92.0466V92.6222C137.58 92.7045 137.405 92.7628 137.228 92.7969C137.051 92.8311 136.849 92.8482 136.622 92.8482ZM136.493 89.9313C136.268 89.9313 136.087 90.0026 135.95 90.1452C135.816 90.2879 135.735 90.4958 135.709 90.769H137.222C137.218 90.4938 137.152 90.2858 137.023 90.1452C136.895 90.0026 136.718 89.9313 136.493 89.9313Z" fill="#52479C"/>
<path d="M140.808 92.7879L140.666 92.3238H140.642C140.481 92.5267 140.32 92.6654 140.157 92.7397C139.994 92.812 139.785 92.8482 139.53 92.8482C139.203 92.8482 138.947 92.7598 138.762 92.583C138.579 92.4062 138.488 92.1561 138.488 91.8327C138.488 91.4892 138.615 91.23 138.87 91.0552C139.125 90.8805 139.514 90.785 140.036 90.769L140.612 90.7509V90.5731C140.612 90.3602 140.562 90.2015 140.461 90.097C140.363 89.9905 140.209 89.9373 140 89.9373C139.829 89.9373 139.666 89.9624 139.509 90.0126C139.352 90.0629 139.202 90.1221 139.057 90.1904L138.828 89.6842C139.009 89.5898 139.207 89.5185 139.422 89.4702C139.637 89.42 139.84 89.3949 140.03 89.3949C140.454 89.3949 140.774 89.4873 140.989 89.6721C141.206 89.8569 141.314 90.1472 141.314 90.543V92.7879H140.808ZM139.753 92.3058C140.01 92.3058 140.216 92.2345 140.371 92.0918C140.528 91.9472 140.606 91.7453 140.606 91.4861V91.1969L140.178 91.2149C139.845 91.227 139.601 91.2832 139.449 91.3837C139.298 91.4821 139.223 91.6338 139.223 91.8387C139.223 91.9874 139.267 92.1029 139.355 92.1852C139.444 92.2656 139.576 92.3058 139.753 92.3058Z" fill="#52479C"/>
<path d="M142.986 91.0281L143.387 90.5279L144.394 89.4552H145.21L143.869 90.8865L145.295 92.7879H144.463L143.393 91.3264L143.004 91.6459V92.7879H142.302V88.0992H143.004V90.3863L142.968 91.0281H142.986Z" fill="#52479C"/>
<path d="M146.958 92.8482C146.542 92.8482 146.218 92.6975 145.985 92.3962C145.752 92.0948 145.635 91.672 145.635 91.1276C145.635 90.5811 145.753 90.1563 145.988 89.8529C146.225 89.5476 146.552 89.3949 146.97 89.3949C147.408 89.3949 147.741 89.5566 147.97 89.88H148.007C147.972 89.641 147.955 89.4522 147.955 89.3135V88.0992H148.667V92.7879H148.112L147.989 92.351H147.955C147.728 92.6824 147.396 92.8482 146.958 92.8482ZM147.148 92.2756C147.439 92.2756 147.651 92.1943 147.784 92.0316C147.916 91.8668 147.984 91.6007 147.989 91.233V91.1336C147.989 90.7137 147.92 90.4154 147.784 90.2386C147.647 90.0619 147.433 89.9735 147.142 89.9735C146.893 89.9735 146.701 90.0749 146.566 90.2778C146.432 90.4787 146.364 90.766 146.364 91.1396C146.364 91.5092 146.43 91.7915 146.56 91.9864C146.691 92.1792 146.887 92.2756 147.148 92.2756Z" fill="#52479C"/>
<path d="M152.635 91.1155C152.635 91.6599 152.495 92.0848 152.216 92.3901C151.937 92.6955 151.548 92.8482 151.05 92.8482C150.739 92.8482 150.463 92.7779 150.224 92.6372C149.985 92.4966 149.802 92.2947 149.673 92.0316C149.544 91.7684 149.48 91.463 149.48 91.1155C149.48 90.5751 149.619 90.1533 149.896 89.8499C150.173 89.5466 150.564 89.3949 151.068 89.3949C151.55 89.3949 151.932 89.5506 152.213 89.862C152.494 90.1713 152.635 90.5892 152.635 91.1155ZM150.209 91.1155C150.209 91.8849 150.494 92.2696 151.062 92.2696C151.625 92.2696 151.906 91.8849 151.906 91.1155C151.906 90.3541 151.623 89.9735 151.056 89.9735C150.759 89.9735 150.543 90.0719 150.408 90.2688C150.276 90.4656 150.209 90.7479 150.209 91.1155Z" fill="#52479C"/>
<path d="M156.185 92.7879L155.754 91.233C155.702 91.0683 155.607 90.6856 155.471 90.085H155.443C155.327 90.6274 155.235 91.0121 155.166 91.2391L154.723 92.7879H153.94L153.006 89.4552H153.729L154.154 91.0974C154.25 91.5032 154.318 91.8508 154.359 92.14H154.377C154.397 91.9934 154.427 91.8256 154.467 91.6368C154.509 91.446 154.545 91.3033 154.576 91.2089L155.082 89.4552H155.859L156.35 91.2089C156.381 91.3074 156.418 91.458 156.462 91.6609C156.508 91.8638 156.535 92.0215 156.543 92.134H156.567C156.598 91.8869 156.668 91.5414 156.778 91.0974L157.209 89.4552H157.92L156.98 92.7879H156.185Z" fill="#52479C"/>
<path d="M161.428 92.7879H160.717V90.7388C160.717 90.4817 160.665 90.2899 160.56 90.1633C160.458 90.0367 160.294 89.9735 160.069 89.9735C159.77 89.9735 159.551 90.0619 159.412 90.2386C159.273 90.4154 159.204 90.7117 159.204 91.1276V92.7879H158.496V89.4552H159.05L159.15 89.8921H159.186C159.286 89.7334 159.429 89.6109 159.614 89.5245C159.799 89.4381 160.004 89.3949 160.229 89.3949C161.028 89.3949 161.428 89.8017 161.428 90.6153V92.7879Z" fill="#52479C"/>
<path d="M110.51 63.7113L110.156 62.548H108.374L108.02 63.7113H106.903L108.628 58.8039H109.895L111.627 63.7113H110.51ZM109.908 61.6788C109.581 60.6247 109.396 60.0286 109.353 59.8904C109.313 59.7522 109.284 59.643 109.267 59.5628C109.193 59.848 108.982 60.5534 108.635 61.6788H109.908Z" fill="#B1B1B1"/>
<path d="M113.054 63.7113L111.63 59.974H112.696L113.418 62.1034C113.499 62.373 113.549 62.6282 113.569 62.8689H113.589C113.6 62.6549 113.65 62.3998 113.739 62.1034L114.458 59.974H115.524L114.1 63.7113H113.054Z" fill="#B1B1B1"/>
<path d="M118.436 63.7113L118.239 63.2032H118.212C118.041 63.4194 117.863 63.5698 117.681 63.6545C117.5 63.7369 117.264 63.7782 116.972 63.7782C116.613 63.7782 116.33 63.6756 116.123 63.4706C115.918 63.2656 115.815 62.9736 115.815 62.5948C115.815 62.1981 115.953 61.9061 116.23 61.7189C116.508 61.5295 116.927 61.4248 117.487 61.4047L118.135 61.3847V61.2208C118.135 60.842 117.941 60.6526 117.554 60.6526C117.255 60.6526 116.904 60.7428 116.501 60.9233L116.163 60.2347C116.593 60.0096 117.07 59.8971 117.594 59.8971C118.095 59.8971 118.48 60.0063 118.747 60.2247C119.014 60.4431 119.148 60.7751 119.148 61.2208V63.7113H118.436ZM118.135 61.9797L117.741 61.9931C117.444 62.002 117.224 62.0555 117.079 62.1535C116.934 62.2516 116.862 62.4009 116.862 62.6015C116.862 62.889 117.027 63.0327 117.356 63.0327C117.593 63.0327 117.781 62.9647 117.921 62.8288C118.064 62.6928 118.135 62.5123 118.135 62.2872V61.9797Z" fill="#B1B1B1"/>
<path d="M120.158 59.0079C120.158 58.6758 120.343 58.5098 120.713 58.5098C121.083 58.5098 121.268 58.6758 121.268 59.0079C121.268 59.1661 121.221 59.2898 121.127 59.3789C121.036 59.4658 120.898 59.5093 120.713 59.5093C120.343 59.5093 120.158 59.3421 120.158 59.0079ZM121.221 63.7113H120.201V59.974H121.221V63.7113Z" fill="#B1B1B1"/>
<path d="M123.313 63.7113H122.294V58.5098H123.313V63.7113Z" fill="#B1B1B1"/>
<path d="M126.76 63.7113L126.563 63.2032H126.536C126.364 63.4194 126.187 63.5698 126.004 63.6545C125.824 63.7369 125.588 63.7782 125.296 63.7782C124.937 63.7782 124.654 63.6756 124.447 63.4706C124.242 63.2656 124.139 62.9736 124.139 62.5948C124.139 62.1981 124.277 61.9061 124.554 61.7189C124.832 61.5295 125.251 61.4248 125.811 61.4047L126.459 61.3847V61.2208C126.459 60.842 126.265 60.6526 125.877 60.6526C125.579 60.6526 125.228 60.7428 124.824 60.9233L124.487 60.2347C124.917 60.0096 125.394 59.8971 125.918 59.8971C126.419 59.8971 126.803 60.0063 127.071 60.2247C127.338 60.4431 127.472 60.7751 127.472 61.2208V63.7113H126.76ZM126.459 61.9797L126.065 61.9931C125.768 62.002 125.548 62.0555 125.403 62.1535C125.258 62.2516 125.185 62.4009 125.185 62.6015C125.185 62.889 125.35 63.0327 125.68 63.0327C125.916 63.0327 126.105 62.9647 126.245 62.8288C126.388 62.6928 126.459 62.5123 126.459 62.2872V61.9797Z" fill="#B1B1B1"/>
<path d="M130.604 59.9038C131.045 59.9038 131.391 60.0765 131.641 60.4219C131.89 60.7651 132.015 61.2364 132.015 61.8359C132.015 62.4533 131.886 62.9313 131.627 63.27C131.371 63.6088 131.021 63.7782 130.577 63.7782C130.138 63.7782 129.794 63.6188 129.545 63.3001H129.474L129.304 63.7113H128.525V58.5098H129.545V59.7199C129.545 59.8737 129.531 60.1199 129.504 60.4587H129.545C129.783 60.0887 130.136 59.9038 130.604 59.9038ZM130.277 60.7194C130.025 60.7194 129.841 60.7974 129.725 60.9534C129.609 61.1072 129.549 61.3624 129.545 61.7189V61.8293C129.545 62.2304 129.604 62.5179 129.722 62.6917C129.842 62.8656 130.031 62.9525 130.29 62.9525C130.499 62.9525 130.666 62.8566 130.788 62.665C130.913 62.4711 130.975 62.1903 130.975 61.8226C130.975 61.4549 130.913 61.1796 130.788 60.9969C130.663 60.8119 130.493 60.7194 130.277 60.7194Z" fill="#B1B1B1"/>
<path d="M133.877 63.7113H132.857V58.5098H133.877V63.7113Z" fill="#B1B1B1"/>
<path d="M136.498 60.6292C136.282 60.6292 136.112 60.6982 135.99 60.8364C135.867 60.9724 135.797 61.1662 135.779 61.4181H137.21C137.205 61.1662 137.14 60.9724 137.013 60.8364C136.886 60.6982 136.714 60.6292 136.498 60.6292ZM136.642 63.7782C136.04 63.7782 135.57 63.6121 135.231 63.2801C134.892 62.948 134.723 62.4778 134.723 61.8694C134.723 61.2431 134.879 60.7595 135.191 60.4186C135.505 60.0754 135.938 59.9038 136.491 59.9038C137.019 59.9038 137.43 60.0542 137.725 60.355C138.019 60.6559 138.166 61.0715 138.166 61.6019V62.0967H135.756C135.767 62.3864 135.853 62.6126 136.013 62.7753C136.173 62.938 136.399 63.0193 136.688 63.0193C136.913 63.0193 137.126 62.9959 137.327 62.9491C137.527 62.9023 137.737 62.8277 137.955 62.7252V63.5141C137.777 63.6032 137.586 63.669 137.384 63.7113C137.181 63.7559 136.933 63.7782 136.642 63.7782Z" fill="#B1B1B1"/>
<path d="M140.854 58.824H142.375C143.068 58.824 143.57 58.9232 143.882 59.1215C144.196 59.3176 144.354 59.6307 144.354 60.0609C144.354 60.3528 144.284 60.5924 144.146 60.7796C144.01 60.9668 143.829 61.0793 143.601 61.1172V61.1506C143.911 61.2197 144.134 61.349 144.27 61.5384C144.408 61.7279 144.477 61.9797 144.477 62.2939C144.477 62.7396 144.316 63.0873 143.993 63.3369C143.672 63.5865 143.235 63.7113 142.682 63.7113H140.854V58.824ZM141.89 60.7595H142.492C142.772 60.7595 142.975 60.7161 143.1 60.6292C143.227 60.5422 143.291 60.3985 143.291 60.1979C143.291 60.0107 143.221 59.877 143.083 59.7968C142.947 59.7143 142.731 59.6731 142.435 59.6731H141.89V60.7595ZM141.89 61.5819V62.8555H142.565C142.85 62.8555 143.061 62.8009 143.197 62.6917C143.333 62.5825 143.401 62.4154 143.401 62.1903C143.401 61.7847 143.111 61.5819 142.532 61.5819H141.89Z" fill="#B1B1B1"/>
<path d="M147.747 63.7113L147.549 63.2032H147.523C147.351 63.4194 147.174 63.5698 146.991 63.6545C146.811 63.7369 146.574 63.7782 146.282 63.7782C145.924 63.7782 145.641 63.6756 145.433 63.4706C145.228 63.2656 145.126 62.9736 145.126 62.5948C145.126 62.1981 145.264 61.9061 145.54 61.7189C145.819 61.5295 146.238 61.4248 146.797 61.4047L147.446 61.3847V61.2208C147.446 60.842 147.252 60.6526 146.864 60.6526C146.565 60.6526 146.214 60.7428 145.811 60.9233L145.473 60.2347C145.904 60.0096 146.38 59.8971 146.904 59.8971C147.406 59.8971 147.79 60.0063 148.057 60.2247C148.325 60.4431 148.459 60.7751 148.459 61.2208V63.7113H147.747ZM147.446 61.9797L147.051 61.9931C146.755 62.002 146.534 62.0555 146.389 62.1535C146.245 62.2516 146.172 62.4009 146.172 62.6015C146.172 62.889 146.337 63.0327 146.667 63.0327C146.903 63.0327 147.091 62.9647 147.232 62.8288C147.374 62.6928 147.446 62.5123 147.446 62.2872V61.9797Z" fill="#B1B1B1"/>
<path d="M150.531 63.7113H149.512V58.5098H150.531V63.7113Z" fill="#B1B1B1"/>
<path d="M153.978 63.7113L153.78 63.2032H153.754C153.582 63.4194 153.405 63.5698 153.222 63.6545C153.042 63.7369 152.805 63.7782 152.514 63.7782C152.155 63.7782 151.872 63.6756 151.664 63.4706C151.459 63.2656 151.357 62.9736 151.357 62.5948C151.357 62.1981 151.495 61.9061 151.771 61.7189C152.05 61.5295 152.469 61.4248 153.028 61.4047L153.677 61.3847V61.2208C153.677 60.842 153.483 60.6526 153.095 60.6526C152.797 60.6526 152.446 60.7428 152.042 60.9233L151.705 60.2347C152.135 60.0096 152.612 59.8971 153.135 59.8971C153.637 59.8971 154.021 60.0063 154.289 60.2247C154.556 60.4431 154.69 60.7751 154.69 61.2208V63.7113H153.978ZM153.677 61.9797L153.282 61.9931C152.986 62.002 152.765 62.0555 152.621 62.1535C152.476 62.2516 152.403 62.4009 152.403 62.6015C152.403 62.889 152.568 63.0327 152.898 63.0327C153.134 63.0327 153.323 62.9647 153.463 62.8288C153.606 62.6928 153.677 62.5123 153.677 62.2872V61.9797Z" fill="#B1B1B1"/>
<path d="M159.193 63.7113H158.173V61.5284C158.173 61.2587 158.125 61.057 158.029 60.9233C157.933 60.7874 157.781 60.7194 157.571 60.7194C157.286 60.7194 157.08 60.8152 156.953 61.0069C156.826 61.1963 156.762 61.5117 156.762 61.9529V63.7113H155.743V59.974H156.522L156.659 60.452H156.716C156.829 60.2715 156.985 60.1355 157.184 60.0442C157.384 59.9506 157.611 59.9038 157.866 59.9038C158.3 59.9038 158.63 60.0219 158.855 60.2581C159.08 60.4921 159.193 60.8308 159.193 61.2743V63.7113Z" fill="#B1B1B1"/>
<path d="M161.76 63.7782C160.597 63.7782 160.015 63.1397 160.015 61.8627C160.015 61.2275 160.173 60.7428 160.49 60.4085C160.806 60.072 161.26 59.9038 161.85 59.9038C162.283 59.9038 162.67 59.9884 163.014 60.1578L162.713 60.9467C162.552 60.8821 162.403 60.8297 162.265 60.7896C162.127 60.7473 161.988 60.7261 161.85 60.7261C161.32 60.7261 161.055 61.1027 161.055 61.856C161.055 62.587 161.32 62.9525 161.85 62.9525C162.046 62.9525 162.228 62.9268 162.395 62.8756C162.562 62.8221 162.729 62.7396 162.897 62.6282V63.5007C162.732 63.6054 162.564 63.6779 162.395 63.718C162.228 63.7581 162.016 63.7782 161.76 63.7782Z" fill="#B1B1B1"/>
<path d="M165.313 60.6292C165.097 60.6292 164.928 60.6982 164.805 60.8364C164.683 60.9724 164.613 61.1662 164.595 61.4181H166.026C166.021 61.1662 165.955 60.9724 165.828 60.8364C165.701 60.6982 165.53 60.6292 165.313 60.6292ZM165.457 63.7782C164.855 63.7782 164.385 63.6121 164.047 63.2801C163.708 62.948 163.538 62.4778 163.538 61.8694C163.538 61.2431 163.694 60.7595 164.006 60.4186C164.321 60.0754 164.754 59.9038 165.307 59.9038C165.835 59.9038 166.246 60.0542 166.54 60.355C166.834 60.6559 166.982 61.0715 166.982 61.6019V62.0967H164.571C164.582 62.3864 164.668 62.6126 164.829 62.7753C164.989 62.938 165.214 63.0193 165.504 63.0193C165.729 63.0193 165.942 62.9959 166.143 62.9491C166.343 62.9023 166.553 62.8277 166.771 62.7252V63.5141C166.593 63.6032 166.402 63.669 166.199 63.7113C165.997 63.7559 165.749 63.7782 165.457 63.7782Z" fill="#B1B1B1"/>
<circle cx="173.226" cy="60.8711" r="2.13945" fill="#B1B1B1"/>
<path d="M173.471 61.9947H173.079V60.1461H173.471V61.9947ZM173.055 59.6564C173.055 59.5862 173.074 59.5322 173.112 59.4943C173.151 59.4564 173.206 59.4374 173.278 59.4374C173.347 59.4374 173.4 59.4564 173.438 59.4943C173.477 59.5322 173.497 59.5862 173.497 59.6564C173.497 59.7233 173.477 59.7762 173.438 59.8152C173.4 59.8531 173.347 59.872 173.278 59.872C173.206 59.872 173.151 59.8531 173.112 59.8152C173.074 59.7762 173.055 59.7233 173.055 59.6564Z" fill="white"/>
<path d="M107.826 78.0709V70.7399H109.38V78.0709H107.826Z" fill="#B1B1B1"/>
<path d="M117.308 74.3352C117.308 75.542 116.964 76.4663 116.275 77.1081C115.59 77.7499 114.598 78.0709 113.301 78.0709H111.226V70.7399H113.527C114.724 70.7399 115.653 71.0558 116.315 71.6876C116.977 72.3194 117.308 73.2019 117.308 74.3352ZM115.693 74.3753C115.693 72.8008 114.998 72.0135 113.607 72.0135H112.78V76.7872H113.447C114.944 76.7872 115.693 75.9832 115.693 74.3753Z" fill="#B1B1B1"/>
<path d="M120.382 73.9942H120.883C121.375 73.9942 121.737 73.9123 121.971 73.7485C122.205 73.5847 122.322 73.3273 122.322 72.9763C122.322 72.6286 122.202 72.3813 121.961 72.2342C121.724 72.0871 121.354 72.0135 120.853 72.0135H120.382V73.9942ZM120.382 75.2578V78.0709H118.827V70.7399H120.963C121.96 70.7399 122.697 70.9221 123.175 71.2865C123.653 71.6475 123.892 72.1974 123.892 72.9362C123.892 73.3674 123.773 73.7518 123.536 74.0895C123.298 74.4238 122.962 74.6862 122.528 74.8767C123.631 76.5248 124.35 77.5895 124.684 78.0709H122.959L121.209 75.2578H120.382Z" fill="#B1B1B1"/>
<path d="M135.269 72.3796C135.269 72.8376 135.131 73.227 134.853 73.5479C134.576 73.8688 134.186 74.0895 133.685 74.2098V74.2399C134.276 74.3135 134.724 74.494 135.029 74.7815C135.333 75.0656 135.485 75.45 135.485 75.9348C135.485 76.6401 135.229 77.19 134.718 77.5845C134.206 77.9756 133.476 78.1711 132.526 78.1711C131.731 78.1711 131.025 78.0391 130.41 77.775V76.4562C130.695 76.6 131.007 76.717 131.348 76.8072C131.689 76.8975 132.027 76.9426 132.361 76.9426C132.872 76.9426 133.25 76.8557 133.494 76.6819C133.738 76.5081 133.86 76.2289 133.86 75.8445C133.86 75.5002 133.72 75.2561 133.439 75.1124C133.158 74.9687 132.71 74.8968 132.095 74.8968H131.539V73.7084H132.105C132.673 73.7084 133.088 73.6348 133.349 73.4878C133.613 73.3373 133.745 73.0816 133.745 72.7206C133.745 72.1656 133.397 71.8882 132.702 71.8882C132.461 71.8882 132.216 71.9283 131.965 72.0085C131.717 72.0888 131.442 72.2275 131.137 72.4247L130.42 71.3567C131.089 70.8753 131.886 70.6346 132.812 70.6346C133.571 70.6346 134.169 70.7884 134.607 71.0959C135.049 71.4035 135.269 71.8314 135.269 72.3796Z" fill="#B1B1B1"/>
<path d="M141.587 76.5515H140.705V78.0709H139.19V76.5515H136.062V75.4734L139.276 70.7399H140.705V75.3481H141.587V76.5515ZM139.19 75.3481V74.1045C139.19 73.8973 139.199 73.5964 139.216 73.2019C139.232 72.8075 139.246 72.5785 139.256 72.515H139.216C139.092 72.7891 138.943 73.0565 138.769 73.3173L137.425 75.3481H139.19Z" fill="#B1B1B1"/>
<path d="M147.259 73.8688C147.259 75.313 146.954 76.3911 146.346 77.1031C145.738 77.8151 144.817 78.1711 143.583 78.1711C143.148 78.1711 142.819 78.1477 142.595 78.1009V76.8574C142.876 76.9276 143.17 76.9627 143.478 76.9627C143.996 76.9627 144.422 76.8875 144.756 76.737C145.091 76.5833 145.346 76.3443 145.524 76.02C145.701 75.6924 145.803 75.2428 145.829 74.6711H145.769C145.575 74.9854 145.351 75.206 145.097 75.333C144.843 75.4601 144.526 75.5236 144.145 75.5236C143.506 75.5236 143.003 75.3197 142.635 74.9118C142.268 74.5007 142.084 73.9307 142.084 73.2019C142.084 72.4164 142.306 71.7963 142.751 71.3416C143.199 70.8836 143.807 70.6547 144.576 70.6547C145.117 70.6547 145.59 70.7817 145.995 71.0357C146.403 71.2898 146.715 71.6592 146.933 72.1439C147.15 72.6253 147.259 73.2003 147.259 73.8688ZM144.606 71.8982C144.285 71.8982 144.034 72.0085 143.854 72.2292C143.673 72.4498 143.583 72.7674 143.583 73.1819C143.583 73.5362 143.665 73.817 143.829 74.0243C143.993 74.2316 144.242 74.3352 144.576 74.3352C144.89 74.3352 145.159 74.2332 145.383 74.0293C145.607 73.822 145.719 73.5847 145.719 73.3173C145.719 72.9195 145.614 72.5835 145.403 72.3094C145.196 72.0353 144.93 71.8982 144.606 71.8982Z" fill="#B1B1B1"/>
<path d="M148.206 77.3538C148.206 77.073 148.281 76.8607 148.432 76.717C148.582 76.5732 148.801 76.5014 149.089 76.5014C149.366 76.5014 149.58 76.5749 149.731 76.722C149.884 76.8691 149.961 77.0797 149.961 77.3538C149.961 77.6179 149.884 77.8268 149.731 77.9806C149.577 78.131 149.363 78.2062 149.089 78.2062C148.808 78.2062 148.591 78.1327 148.437 77.9856C148.283 77.8352 148.206 77.6246 148.206 77.3538Z" fill="#B1B1B1"/>
<path d="M156.054 73.8688C156.054 75.313 155.749 76.3911 155.141 77.1031C154.533 77.8151 153.612 78.1711 152.378 78.1711C151.944 78.1711 151.614 78.1477 151.39 78.1009V76.8574C151.671 76.9276 151.965 76.9627 152.273 76.9627C152.791 76.9627 153.217 76.8875 153.552 76.737C153.886 76.5833 154.142 76.3443 154.319 76.02C154.496 75.6924 154.598 75.2428 154.625 74.6711H154.564C154.371 74.9854 154.147 75.206 153.892 75.333C153.638 75.4601 153.321 75.5236 152.94 75.5236C152.301 75.5236 151.798 75.3197 151.43 74.9118C151.063 74.5007 150.879 73.9307 150.879 73.2019C150.879 72.4164 151.101 71.7963 151.546 71.3416C151.994 70.8836 152.602 70.6547 153.371 70.6547C153.913 70.6547 154.386 70.7817 154.79 71.0357C155.198 71.2898 155.51 71.6592 155.728 72.1439C155.945 72.6253 156.054 73.2003 156.054 73.8688ZM153.401 71.8982C153.08 71.8982 152.829 72.0085 152.649 72.2292C152.468 72.4498 152.378 72.7674 152.378 73.1819C152.378 73.5362 152.46 73.817 152.624 74.0243C152.788 74.2316 153.037 74.3352 153.371 74.3352C153.685 74.3352 153.954 74.2332 154.178 74.0293C154.402 73.822 154.514 73.5847 154.514 73.3173C154.514 72.9195 154.409 72.5835 154.198 72.3094C153.991 72.0353 153.725 71.8982 153.401 71.8982Z" fill="#B1B1B1"/>
<path d="M161.91 74.4054C161.91 75.6857 161.7 76.6334 161.279 77.2485C160.861 77.8636 160.216 78.1711 159.343 78.1711C158.497 78.1711 157.859 77.8536 157.428 77.2184C157 76.5833 156.786 75.6456 156.786 74.4054C156.786 73.1117 156.995 72.159 157.413 71.5472C157.83 70.9321 158.474 70.6246 159.343 70.6246C160.189 70.6246 160.827 70.9455 161.259 71.5873C161.693 72.2292 161.91 73.1685 161.91 74.4054ZM158.325 74.4054C158.325 75.3046 158.402 75.9498 158.556 76.3409C158.713 76.7287 158.975 76.9226 159.343 76.9226C159.704 76.9226 159.965 76.7253 160.125 76.3309C160.286 75.9364 160.366 75.2946 160.366 74.4054C160.366 73.5061 160.284 72.861 160.12 72.4698C159.96 72.0754 159.701 71.8782 159.343 71.8782C158.979 71.8782 158.718 72.0754 158.561 72.4698C158.404 72.861 158.325 73.5061 158.325 74.4054Z" fill="#B1B1B1"/>
<path d="M167.777 74.4054C167.777 75.6857 167.567 76.6334 167.145 77.2485C166.728 77.8636 166.082 78.1711 165.21 78.1711C164.364 78.1711 163.726 77.8536 163.294 77.2184C162.866 76.5833 162.653 75.6456 162.653 74.4054C162.653 73.1117 162.861 72.159 163.279 71.5472C163.697 70.9321 164.341 70.6246 165.21 70.6246C166.056 70.6246 166.694 70.9455 167.125 71.5873C167.56 72.2292 167.777 73.1685 167.777 74.4054ZM164.192 74.4054C164.192 75.3046 164.269 75.9498 164.423 76.3409C164.58 76.7287 164.842 76.9226 165.21 76.9226C165.571 76.9226 165.832 76.7253 165.992 76.3309C166.153 75.9364 166.233 75.2946 166.233 74.4054C166.233 73.5061 166.151 72.861 165.987 72.4698C165.827 72.0754 165.568 71.8782 165.21 71.8782C164.845 71.8782 164.585 72.0754 164.428 72.4698C164.27 72.861 164.192 73.5061 164.192 74.4054Z" fill="#B1B1B1"/>
<path d="M168.735 77.3538C168.735 77.073 168.81 76.8607 168.961 76.717C169.111 76.5732 169.33 76.5014 169.617 76.5014C169.895 76.5014 170.109 76.5749 170.259 76.722C170.413 76.8691 170.49 77.0797 170.49 77.3538C170.49 77.6179 170.413 77.8268 170.259 77.9806C170.106 78.131 169.892 78.2062 169.617 78.2062C169.337 78.2062 169.119 78.1327 168.966 77.9856C168.812 77.8352 168.735 77.6246 168.735 77.3538Z" fill="#B1B1B1"/>
<path d="M176.572 74.4054C176.572 75.6857 176.362 76.6334 175.941 77.2485C175.523 77.8636 174.877 78.1711 174.005 78.1711C173.159 78.1711 172.521 77.8536 172.09 77.2184C171.662 76.5833 171.448 75.6456 171.448 74.4054C171.448 73.1117 171.657 72.159 172.074 71.5472C172.492 70.9321 173.136 70.6246 174.005 70.6246C174.851 70.6246 175.489 70.9455 175.92 71.5873C176.355 72.2292 176.572 73.1685 176.572 74.4054ZM172.987 74.4054C172.987 75.3046 173.064 75.9498 173.218 76.3409C173.375 76.7287 173.637 76.9226 174.005 76.9226C174.366 76.9226 174.627 76.7253 174.787 76.3309C174.948 75.9364 175.028 75.2946 175.028 74.4054C175.028 73.5061 174.946 72.861 174.782 72.4698C174.622 72.0754 174.363 71.8782 174.005 71.8782C173.641 71.8782 173.38 72.0754 173.223 72.4698C173.066 72.861 172.987 73.5061 172.987 74.4054Z" fill="#B1B1B1"/>
<path d="M182.439 74.4054C182.439 75.6857 182.229 76.6334 181.807 77.2485C181.389 77.8636 180.744 78.1711 179.872 78.1711C179.026 78.1711 178.388 77.8536 177.956 77.2184C177.528 76.5833 177.314 75.6456 177.314 74.4054C177.314 73.1117 177.523 72.159 177.941 71.5472C178.359 70.9321 179.003 70.6246 179.872 70.6246C180.718 70.6246 181.356 70.9455 181.787 71.5873C182.222 72.2292 182.439 73.1685 182.439 74.4054ZM178.854 74.4054C178.854 75.3046 178.931 75.9498 179.085 76.3409C179.242 76.7287 179.504 76.9226 179.872 76.9226C180.233 76.9226 180.494 76.7253 180.654 76.3309C180.814 75.9364 180.895 75.2946 180.895 74.4054C180.895 73.5061 180.813 72.861 180.649 72.4698C180.489 72.0754 180.229 71.8782 179.872 71.8782C179.507 71.8782 179.247 72.0754 179.09 72.4698C178.932 72.861 178.854 73.5061 178.854 74.4054Z" fill="#B1B1B1"/>
<path d="M188.306 74.4054C188.306 75.6857 188.095 76.6334 187.674 77.2485C187.256 77.8636 186.611 78.1711 185.739 78.1711C184.893 78.1711 184.254 77.8536 183.823 77.2184C183.395 76.5833 183.181 75.6456 183.181 74.4054C183.181 73.1117 183.39 72.159 183.808 71.5472C184.226 70.9321 184.869 70.6246 185.739 70.6246C186.584 70.6246 187.223 70.9455 187.654 71.5873C188.089 72.2292 188.306 73.1685 188.306 74.4054ZM184.721 74.4054C184.721 75.3046 184.798 75.9498 184.951 76.3409C185.108 76.7287 185.371 76.9226 185.739 76.9226C186.1 76.9226 186.36 76.7253 186.521 76.3309C186.681 75.9364 186.761 75.2946 186.761 74.4054C186.761 73.5061 186.68 72.861 186.516 72.4698C186.355 72.0754 186.096 71.8782 185.739 71.8782C185.374 71.8782 185.113 72.0754 184.956 72.4698C184.799 72.861 184.721 73.5061 184.721 74.4054Z" fill="#B1B1B1"/>
<rect x="317.784" y="61.3938" width="47.9156" height="14.2906" rx="4" fill="#52479C"/>
<g filter="url(#filter3_d)">
<rect x="84.9313" y="16" width="358.106" height="21.8563" fill="white"/>
</g>
<rect x="292.713" y="23.5431" width="28.5844" height="7.9401" rx="3.97005" fill="#ECECEC"/>
<rect x="257.776" y="23.5431" width="28.5844" height="7.9401" rx="3.97005" fill="#ECECEC"/>
<rect x="98.9741" y="21.9551" width="50.8166" height="11.1161" rx="4" fill="#ECECEC"/>
<rect x="16" y="61.2585" width="65.9028" height="13.1012" fill="#78A5ED"/>
<rect x="16" y="16" width="68.9313" height="269" fill="#52479C"/>
<path fill-rule="evenodd" clip-rule="evenodd" d="M26.1639 24.1224C25.6295 23.8388 24.9462 24.0071 24.6377 24.4984L23.3109 26.6112C23.0023 27.1025 23.1854 27.7307 23.7198 28.0144C24.2542 28.298 24.9376 28.1297 25.2461 27.6384L26.5729 25.5256C26.8814 25.0343 26.6983 24.4061 26.1639 24.1224Z" fill="#52489C"/>
<path fill-rule="evenodd" clip-rule="evenodd" d="M33.8826 27.6233C33.3482 27.907 32.6649 27.7387 32.3564 27.2474L29.9821 23.4666C29.6736 22.9753 29.8567 22.347 30.3911 22.0634C30.9255 21.7797 31.6088 21.9481 31.9173 22.4394L34.2916 26.2201C34.6001 26.7115 34.417 27.3397 33.8826 27.6233Z" fill="url(#paint0_linear)"/>
<path fill-rule="evenodd" clip-rule="evenodd" d="M27.1378 28.9721C27.6721 29.2558 28.3555 29.0875 28.664 28.5961L31.9112 23.4254C32.2197 22.9341 32.0366 22.3058 31.5022 22.0222C30.9678 21.7385 30.2845 21.9069 29.9759 22.3982L26.7288 27.5689C26.4203 28.0602 26.6034 28.6885 27.1378 28.9721Z" fill="url(#paint1_linear)"/>
<path fill-rule="evenodd" clip-rule="evenodd" d="M28.2038 29.0162C27.6694 29.2999 26.9861 29.1316 26.6776 28.6402L24.6699 25.4433C24.3614 24.952 24.5445 24.3237 25.0789 24.0401C25.6133 23.7564 26.2966 23.9248 26.6051 24.4161L28.6128 27.613C28.9213 28.1043 28.7382 28.7326 28.2038 29.0162Z" fill="url(#paint2_linear)"/>
<path fill-rule="evenodd" clip-rule="evenodd" d="M21.8845 29.091C21.8845 28.5225 22.3454 28.0615 22.914 28.0615C23.4826 28.0615 23.9435 28.5225 23.9435 29.091C23.9435 29.6596 23.4826 30.1206 22.914 30.1206C22.3454 30.1206 21.8845 29.6596 21.8845 29.091Z" fill="url(#paint3_linear)"/>
<path fill-rule="evenodd" clip-rule="evenodd" d="M26.1639 24.1224C25.6295 23.8388 24.9462 24.0071 24.6377 24.4984L23.3109 26.6112C23.0023 27.1025 23.1854 27.7307 23.7198 28.0144C24.2542 28.298 24.9376 28.1297 25.2461 27.6384L26.5729 25.5256C26.8814 25.0343 26.6983 24.4061 26.1639 24.1224Z" fill="white"/>
<path fill-rule="evenodd" clip-rule="evenodd" d="M33.8826 27.6233C33.3482 27.907 32.6649 27.7387 32.3564 27.2474L29.9821 23.4666C29.6736 22.9753 29.8567 22.347 30.3911 22.0634C30.9255 21.7797 31.6088 21.9481 31.9173 22.4394L34.2916 26.2201C34.6001 26.7115 34.417 27.3397 33.8826 27.6233Z" fill="white"/>
<path fill-rule="evenodd" clip-rule="evenodd" d="M27.1378 28.9721C27.6721 29.2558 28.3555 29.0875 28.664 28.5961L31.9112 23.4254C32.2197 22.9341 32.0366 22.3058 31.5022 22.0222C30.9678 21.7385 30.2845 21.9069 29.9759 22.3982L26.7288 27.5689C26.4203 28.0602 26.6034 28.6885 27.1378 28.9721Z" fill="white"/>
<path fill-rule="evenodd" clip-rule="evenodd" d="M28.2038 29.0162C27.6694 29.2999 26.9861 29.1316 26.6776 28.6402L24.6699 25.4433C24.3614 24.952 24.5445 24.3237 25.0789 24.0401C25.6133 23.7564 26.2966 23.9248 26.6051 24.4161L28.6128 27.613C28.9213 28.1043 28.7382 28.7326 28.2038 29.0162Z" fill="white"/>
<path fill-rule="evenodd" clip-rule="evenodd" d="M21.8845 29.091C21.8845 28.5225 22.3454 28.0615 22.914 28.0615C23.4826 28.0615 23.9435 28.5225 23.9435 29.091C23.9435 29.6596 23.4826 30.1206 22.914 30.1206C22.3454 30.1206 21.8845 29.6596 21.8845 29.091Z" fill="white"/>
<path d="M38.0148 25.544V28.0514L38.3437 28.0693V28.5469H36.9706V28.0932L37.161 28.0753C37.2725 28.0633 37.3283 27.9997 37.3283 27.8842V26.2246C37.3283 26.1569 37.3167 26.1111 37.2936 26.0873C37.2744 26.0634 37.2379 26.0514 37.184 26.0514L36.9821 26.0395V25.544H38.0148ZM37.2879 25.0306C37.2071 24.947 37.1667 24.8415 37.1667 24.7142C37.1667 24.5868 37.2071 24.4813 37.2879 24.3978C37.3687 24.3102 37.4744 24.2664 37.6052 24.2664C37.736 24.2664 37.8417 24.3102 37.9225 24.3978C38.0071 24.4813 38.0494 24.5868 38.0494 24.7142C38.0494 24.8415 38.0071 24.947 37.9225 25.0306C37.8417 25.1102 37.736 25.15 37.6052 25.15C37.4744 25.15 37.3687 25.1102 37.2879 25.0306Z" fill="white"/>
<path d="M38.6431 26.0216V25.544H39.6181V25.932C39.7181 25.7848 39.8508 25.6694 40.0162 25.5858C40.1816 25.4982 40.3604 25.4544 40.5527 25.4544C40.8451 25.4544 41.0701 25.542 41.2278 25.7171C41.3893 25.8883 41.4701 26.147 41.4701 26.4932V28.0514L41.7989 28.0693V28.5469H40.4258V28.0932L40.6162 28.0753C40.6739 28.0673 40.7162 28.0514 40.7431 28.0275C40.7701 27.9997 40.7835 27.9499 40.7835 27.8783V26.6484C40.7835 26.4295 40.7508 26.2684 40.6854 26.1649C40.6201 26.0574 40.4951 26.0037 40.3104 26.0037C40.1297 26.0037 39.9854 26.0634 39.8777 26.1828C39.77 26.3022 39.7162 26.4435 39.7162 26.6067V28.0514L40.045 28.0693V28.5469H38.6719V28.0932L38.8623 28.0753C38.92 28.0673 38.9623 28.0514 38.9893 28.0275C39.0162 27.9997 39.0296 27.9499 39.0296 27.8783V26.2246C39.0296 26.1052 38.9816 26.0435 38.8854 26.0395L38.6431 26.0216Z" fill="white"/>
<path d="M43.6486 25.9977C43.5563 25.9619 43.4448 25.944 43.314 25.944C43.1832 25.944 43.0775 25.9758 42.9967 26.0395C42.9198 26.0992 42.8813 26.1748 42.8813 26.2664C42.8813 26.3539 42.8948 26.4236 42.9217 26.4753C42.9525 26.5231 42.9986 26.5649 43.0602 26.6007C43.1563 26.6524 43.2717 26.6982 43.4063 26.738C43.5409 26.7738 43.6409 26.8037 43.7063 26.8275C43.7717 26.8474 43.8525 26.8833 43.9486 26.935C44.0486 26.9867 44.1237 27.0425 44.1737 27.1022C44.3083 27.2494 44.3756 27.4385 44.3756 27.6693C44.3756 27.9678 44.2698 28.2026 44.0583 28.3738C43.8506 28.5409 43.5852 28.6245 43.2621 28.6245C42.7929 28.6245 42.439 28.5628 42.2005 28.4394V27.6096L42.7198 27.5678V27.8544C42.7198 28.0295 42.8813 28.1171 43.2044 28.1171C43.5275 28.1171 43.689 27.9957 43.689 27.7529C43.689 27.6653 43.6602 27.5937 43.6025 27.538C43.5486 27.4823 43.4948 27.4444 43.4409 27.4245C43.3871 27.4046 43.3217 27.3847 43.2448 27.3648C43.1717 27.3449 43.0986 27.325 43.0255 27.3051C42.9563 27.2852 42.8794 27.2594 42.7948 27.2275C42.714 27.1917 42.6236 27.142 42.5236 27.0783C42.3275 26.9469 42.2294 26.728 42.2294 26.4216C42.2294 26.1111 42.3351 25.8723 42.5467 25.7052C42.7582 25.538 43.0236 25.4544 43.3429 25.4544C43.6659 25.4544 43.9852 25.534 44.3006 25.6932V26.4096L43.7813 26.4514V26.2007C43.7813 26.1012 43.7371 26.0335 43.6486 25.9977Z" fill="white"/>
<path d="M45.3241 24.9112H45.6991V25.544H46.4664L46.4087 26.0455H45.6991V27.6156C45.6991 27.7907 45.7299 27.9141 45.7914 27.9857C45.853 28.0534 45.9472 28.0872 46.0741 28.0872C46.2049 28.0872 46.3357 28.0454 46.4664 27.9618L46.6395 28.4215C46.4472 28.5608 46.203 28.6305 45.9068 28.6305C45.7337 28.6305 45.5876 28.6066 45.4683 28.5588C45.3491 28.5151 45.2606 28.4653 45.2029 28.4096C45.1452 28.3539 45.101 28.2723 45.0702 28.1648C45.0395 28.0574 45.0222 27.9738 45.0183 27.9141C45.0145 27.8504 45.0126 27.7589 45.0126 27.6395V26.0455H44.6029L44.6606 25.6097C44.8414 25.5937 44.9779 25.5281 45.0702 25.4127C45.1626 25.2933 45.2472 25.1261 45.3241 24.9112Z" fill="white"/>
<path d="M49.4489 25.6634V27.8842C49.4489 27.9479 49.4585 27.9917 49.4778 28.0156C49.5008 28.0395 49.5393 28.0534 49.5932 28.0574L49.7778 28.0693V28.5469H48.8604V28.2006L48.8431 28.1947C48.6508 28.4812 48.3874 28.6245 48.0527 28.6245C47.6604 28.6245 47.37 28.4952 47.1816 28.2365C46.9931 27.9778 46.8989 27.6235 46.8989 27.1738C46.8989 26.6325 47.0258 26.2106 47.2796 25.9082C47.5335 25.6057 47.9143 25.4544 48.422 25.4544C48.7489 25.4544 49.0912 25.5241 49.4489 25.6634ZM48.7797 27.5977V26.0514C48.672 25.9997 48.5239 25.9738 48.3354 25.9738C48.0777 25.9738 47.8912 26.0813 47.7758 26.2962C47.6604 26.5111 47.6027 26.7957 47.6027 27.1499C47.6027 27.7947 47.8027 28.1171 48.2027 28.1171C48.372 28.1171 48.5104 28.0653 48.6181 27.9618C48.7258 27.8544 48.7797 27.733 48.7797 27.5977Z" fill="white"/>
<path d="M50.0973 26.0276V25.544H51.0723V25.932C51.2877 25.6136 51.5819 25.4544 51.955 25.4544C52.332 25.4544 52.5858 25.6136 52.7166 25.932C52.932 25.6136 53.2243 25.4544 53.5935 25.4544C53.8705 25.4544 54.0839 25.542 54.2339 25.7171C54.3839 25.8883 54.4589 26.147 54.4589 26.4932V28.0514L54.7878 28.0693V28.5469H53.4147V28.0932L53.6051 28.0753C53.6628 28.0673 53.7031 28.0514 53.7262 28.0275C53.7531 27.9997 53.7685 27.9519 53.7724 27.8842V26.6484C53.7724 26.4295 53.7474 26.2684 53.6974 26.1649C53.6512 26.0574 53.5397 26.0037 53.3627 26.0037C53.1858 26.0037 53.0493 26.0594 52.9531 26.1708C52.8608 26.2823 52.8147 26.4315 52.8147 26.6186V28.0514L53.132 28.0693V28.5469H51.7704V28.0932L51.9608 28.0753C52.0185 28.0673 52.0608 28.0514 52.0877 28.0275C52.1146 27.9997 52.1281 27.9499 52.1281 27.8783V26.6484C52.1281 26.4295 52.1031 26.2684 52.0531 26.1649C52.0069 26.0574 51.8935 26.0037 51.7127 26.0037C51.5358 26.0037 51.4012 26.0614 51.3089 26.1768C51.2165 26.2922 51.1704 26.4355 51.1704 26.6067V28.0514L51.4819 28.0693V28.5469H50.1204V28.0932L50.3108 28.0753C50.3685 28.0673 50.4108 28.0514 50.4377 28.0275C50.4646 27.9997 50.4781 27.9499 50.4781 27.8783H50.4838V26.2305C50.4838 26.1629 50.4723 26.1171 50.4492 26.0932C50.43 26.0654 50.3935 26.0495 50.3396 26.0455L50.0973 26.0276Z" fill="white"/>
<path d="M56.4563 28.1111C56.8756 28.1111 57.0852 27.7609 57.0852 27.0604C57.0852 26.7062 57.0371 26.4375 56.941 26.2544C56.8487 26.0713 56.691 25.9798 56.4679 25.9798C56.2486 25.9798 56.0871 26.0674 55.9833 26.2425C55.8794 26.4176 55.8275 26.6564 55.8275 26.9589C55.8275 27.5201 55.9275 27.8723 56.1275 28.0156C56.2159 28.0793 56.3256 28.1111 56.4563 28.1111ZM55.1294 27.0425C55.1294 26.7479 55.1717 26.4932 55.2563 26.2783C55.3409 26.0594 55.4544 25.8922 55.5967 25.7768C55.8698 25.5619 56.1717 25.4544 56.5025 25.4544C56.7333 25.4544 56.9275 25.4942 57.0852 25.5738C57.2467 25.6495 57.3717 25.739 57.4602 25.8425C57.5525 25.942 57.6294 26.0893 57.691 26.2843C57.7564 26.4753 57.7891 26.7022 57.7891 26.9649C57.7891 27.5141 57.6602 27.93 57.4025 28.2126C57.1448 28.4952 56.814 28.6365 56.4102 28.6365C56.0102 28.6365 55.6967 28.5031 55.4698 28.2365C55.2429 27.9658 55.1294 27.5678 55.1294 27.0425Z" fill="white"/>
<path d="M58.1428 26.0216V25.544H59.1179V25.932C59.2179 25.7848 59.3506 25.6694 59.5159 25.5858C59.6813 25.4982 59.8602 25.4544 60.0525 25.4544C60.3448 25.4544 60.5698 25.542 60.7275 25.7171C60.8891 25.8883 60.9698 26.147 60.9698 26.4932V28.0514L61.2987 28.0693V28.5469H59.9256V28.0932L60.116 28.0753C60.1737 28.0673 60.216 28.0514 60.2429 28.0275C60.2698 27.9997 60.2833 27.9499 60.2833 27.8783V26.6484C60.2833 26.4295 60.2506 26.2684 60.1852 26.1649C60.1198 26.0574 59.9948 26.0037 59.8102 26.0037C59.6294 26.0037 59.4852 26.0634 59.3775 26.1828C59.2698 26.3022 59.2159 26.4435 59.2159 26.6067V28.0514L59.5448 28.0693V28.5469H58.1717V28.0932L58.3621 28.0753C58.4198 28.0673 58.4621 28.0514 58.489 28.0275C58.5159 27.9997 58.5294 27.9499 58.5294 27.8783V26.2246C58.5294 26.1052 58.4813 26.0435 58.3852 26.0395L58.1428 26.0216Z" fill="white"/>
<path d="M63.0849 25.4544C63.3734 25.4544 63.6022 25.5281 63.7715 25.6753C63.9407 25.8186 64.0253 26.0216 64.0253 26.2843C64.0253 26.4594 63.9888 26.6146 63.9157 26.7499C63.8426 26.8813 63.7522 26.9848 63.6446 27.0604C63.5369 27.136 63.4061 27.1977 63.2522 27.2454C62.9945 27.325 62.7041 27.3648 62.3811 27.3648C62.3926 27.5758 62.4561 27.7469 62.5715 27.8783C62.6868 28.0056 62.8638 28.0693 63.1022 28.0693C63.3407 28.0693 63.5792 27.9817 63.8176 27.8066L64.0369 28.2902C63.9599 28.3618 63.8292 28.4355 63.6446 28.5111C63.4638 28.5867 63.2561 28.6245 63.0215 28.6245C62.5522 28.6245 62.208 28.4912 61.9887 28.2245C61.7695 27.9539 61.6599 27.5837 61.6599 27.1141C61.6599 26.6445 61.7849 26.2504 62.0349 25.932C62.2849 25.6136 62.6349 25.4544 63.0849 25.4544ZM62.8195 26.8216C62.9618 26.7937 63.0926 26.736 63.2118 26.6484C63.3311 26.5569 63.3907 26.4494 63.3907 26.3261C63.3907 26.0833 63.2753 25.9619 63.0445 25.9619C62.8291 25.9619 62.6638 26.0514 62.5484 26.2305C62.433 26.4057 62.3695 26.6166 62.358 26.8634C62.5272 26.8594 62.6811 26.8455 62.8195 26.8216Z" fill="white"/>
<path d="M66.5545 28.4335V27.9798C66.3429 28.2902 66.0314 28.4454 65.6198 28.4454C65.0237 28.4454 64.7256 28.1011 64.7256 27.4126V26.2126C64.7256 26.1052 64.6775 26.0495 64.5814 26.0455L64.3967 26.0335V25.544H65.4121V27.2574C65.4121 27.4683 65.441 27.6275 65.4987 27.735C65.5564 27.8424 65.6756 27.8962 65.8564 27.8962C66.0372 27.8962 66.1814 27.8385 66.2891 27.723C66.4006 27.6076 66.4564 27.4683 66.4564 27.3051V26.2246C66.4564 26.1569 66.4449 26.1111 66.4218 26.0873C66.4025 26.0594 66.366 26.0455 66.3122 26.0455L66.1275 26.0335V25.544H67.1429V28.4335C67.1429 28.9151 67.0295 29.2673 66.8026 29.4902C66.5795 29.713 66.2391 29.8245 65.7814 29.8245C65.3275 29.8245 64.9737 29.7588 64.7198 29.6275V28.7976L65.2679 28.7499V29.0364C65.2679 29.1439 65.316 29.2155 65.4121 29.2514C65.5083 29.2912 65.641 29.3111 65.8102 29.3111C66.3064 29.3111 66.5545 29.0185 66.5545 28.4335Z" fill="white"/>
<rect x="22.3519" y="39.0263" width="17.0712" height="6.35208" rx="3.17604" fill="#9791C4"/>
<rect x="35.4534" y="59.2736" width="32.1574" height="6.35208" rx="3.17604" fill="#9791C4"/>
<rect x="35.4534" y="75.1537" width="32.1574" height="6.35208" rx="3.17604" fill="#9791C4"/>
<rect x="35.4534" y="91.0339" width="32.1574" height="6.35208" rx="3.17604" fill="white"/>
<rect x="35.4534" y="154.555" width="32.1574" height="6.35208" rx="3.17604" fill="#9791C4"/>
<rect x="35.4534" y="113.513" width="32.1574" height="6.35208" rx="3.17604" fill="#9791C4"/>
<rect x="35.4534" y="170.435" width="32.1574" height="6.35208" rx="3.17604" fill="#9791C4"/>
<rect x="35.4534" y="129.393" width="32.1574" height="6.35208" rx="3.17604" fill="#9791C4"/>
<rect x="35.4534" y="190.85" width="32.1574" height="6.35208" rx="3.17604" fill="#9791C4"/>
<rect x="72.7717" y="39.0263" width="6.35208" height="6.35208" rx="3.17604" fill="#9791C4"/>
<rect x="22.3519" y="59.2736" width="6.35208" height="6.35208" rx="3.17604" fill="#9791C4"/>
<rect x="22.3519" y="75.1537" width="6.35208" height="6.35208" rx="3.17604" fill="#9791C4"/>
<rect x="22.3519" y="91.0339" width="6.35208" height="6.35208" rx="3.17604" fill="white"/>
<rect x="22.3519" y="154.555" width="6.35208" height="6.35208" rx="3.17604" fill="#9791C4"/>
<rect x="22.3519" y="113.513" width="6.35208" height="6.35208" rx="3.17604" fill="#9791C4"/>
<rect x="22.3519" y="170.435" width="6.35208" height="6.35208" rx="3.17604" fill="#9791C4"/>
<rect x="22.3519" y="129.393" width="6.35208" height="6.35208" rx="3.17604" fill="#9791C4"/>
<rect x="22.3519" y="190.85" width="6.35208" height="6.35208" rx="3.17604" fill="#9791C4"/>
</g>
</g>
<defs>
<filter id="filter0_d" x="-28" y="-24" width="515.038" height="357" filterUnits="userSpaceOnUse" color-interpolation-filters="sRGB">
<feFlood flood-opacity="0" result="BackgroundImageFix"/>
<feColorMatrix in="SourceAlpha" type="matrix" values="0 0 0 0 0 0 0 0 0 0 0 0 0 0 0 0 0 0 127 0"/>
<feOffset dy="4"/>
<feGaussianBlur stdDeviation="22"/>
<feColorMatrix type="matrix" values="0 0 0 0 0 0 0 0 0 0 0 0 0 0 0 0 0 0 0.15 0"/>
<feBlend mode="normal" in2="BackgroundImageFix" result="effect1_dropShadow"/>
<feBlend mode="normal" in="SourceGraphic" in2="effect1_dropShadow" result="shape"/>
</filter>
<filter id="filter1_d" x="94.3811" y="104.788" width="342.569" height="176.966" filterUnits="userSpaceOnUse" color-interpolation-filters="sRGB">
<feFlood flood-opacity="0" result="BackgroundImageFix"/>
<feColorMatrix in="SourceAlpha" type="matrix" values="0 0 0 0 0 0 0 0 0 0 0 0 0 0 0 0 0 0 127 0"/>
<feOffset dy="2"/>
<feGaussianBlur stdDeviation="2"/>
<feColorMatrix type="matrix" values="0 0 0 0 0 0 0 0 0 0 0 0 0 0 0 0 0 0 0.08 0"/>
<feBlend mode="normal" in2="BackgroundImageFix" result="effect1_dropShadow"/>
<feBlend mode="normal" in="SourceGraphic" in2="effect1_dropShadow" result="shape"/>
</filter>
<filter id="filter2_d" x="96.7937" y="50.5125" width="337.744" height="51.9312" filterUnits="userSpaceOnUse" color-interpolation-filters="sRGB">
<feFlood flood-opacity="0" result="BackgroundImageFix"/>
<feColorMatrix in="SourceAlpha" type="matrix" values="0 0 0 0 0 0 0 0 0 0 0 0 0 0 0 0 0 0 127 0"/>
<feOffset dy="0.79375"/>
<feGaussianBlur stdDeviation="0.79375"/>
<feColorMatrix type="matrix" values="0 0 0 0 0 0 0 0 0 0 0 0 0 0 0 0 0 0 0.08 0"/>
<feBlend mode="normal" in2="BackgroundImageFix" result="effect1_dropShadow"/>
<feBlend mode="normal" in="SourceGraphic" in2="effect1_dropShadow" result="shape"/>
</filter>
<filter id="filter3_d" x="80.9313" y="14" width="366.106" height="29.8563" filterUnits="userSpaceOnUse" color-interpolation-filters="sRGB">
<feFlood flood-opacity="0" result="BackgroundImageFix"/>
<feColorMatrix in="SourceAlpha" type="matrix" values="0 0 0 0 0 0 0 0 0 0 0 0 0 0 0 0 0 0 127 0"/>
<feOffset dy="2"/>
<feGaussianBlur stdDeviation="2"/>
<feColorMatrix type="matrix" values="0 0 0 0 0 0 0 0 0 0 0 0 0 0 0 0 0 0 0.08 0"/>
<feBlend mode="normal" in2="BackgroundImageFix" result="effect1_dropShadow"/>
<feBlend mode="normal" in="SourceGraphic" in2="effect1_dropShadow" result="shape"/>
</filter>
<linearGradient id="paint0_linear" x1="32.282" y1="29.4682" x2="35.6515" y2="26.6369" gradientUnits="userSpaceOnUse">
<stop stop-color="#92E3E3"/>
<stop offset="0.257959" stop-color="#8BDFDF"/>
<stop offset="1" stop-color="#4B428F"/>
</linearGradient>
<linearGradient id="paint1_linear" x1="22.2334" y1="29.0101" x2="32.5303" y2="32.9793" gradientUnits="userSpaceOnUse">
<stop stop-color="white"/>
<stop offset="0.433893" stop-color="#52489C"/>
<stop offset="1"/>
</linearGradient>
<linearGradient id="paint2_linear" x1="26.775" y1="30.6903" x2="29.8184" y2="28.0747" gradientUnits="userSpaceOnUse">
<stop stop-color="#92E3E3"/>
<stop offset="0.257959" stop-color="#8BDFDF"/>
<stop offset="1" stop-color="#4B428F"/>
</linearGradient>
<linearGradient id="paint3_linear" x1="22.3938" y1="31.4969" x2="24.6707" y2="29.6557" gradientUnits="userSpaceOnUse">
<stop stop-color="#92E3E3"/>
<stop offset="0.520627" stop-color="#8BDFDF"/>
<stop offset="1" stop-color="#59C3C3"/>
</linearGradient>
</defs>
</svg>
