<svg width="320" height="218" viewBox="0 0 320 218" fill="none" xmlns="http://www.w3.org/2000/svg">
<mask id="mask0" mask-type="alpha" maskUnits="userSpaceOnUse" x="0" y="0" width="320" height="218">
<rect width="320" height="218" fill="white"/>
</mask>
<g mask="url(#mask0)">
<path d="M0 0H320V218H0V0Z" fill="#BFF3E6"/>
<g filter="url(#filter0_d)">
<rect x="16" y="16" width="427.038" height="269" fill="#F7F7F7"/>
<g filter="url(#filter1_d)">
<rect x="98.3811" y="106.787" width="334.569" height="168.966" rx="4" fill="white"/>
</g>
<path d="M169.931 118.481C169.931 118.939 169.781 119.29 169.481 119.533C169.181 119.777 168.755 119.899 168.201 119.899H167.746V121.539H167.03V117.157H168.291C168.839 117.157 169.248 117.269 169.52 117.492C169.794 117.716 169.931 118.046 169.931 118.481ZM167.746 119.297H168.126C168.494 119.297 168.764 119.233 168.936 119.105C169.108 118.977 169.193 118.777 169.193 118.505C169.193 118.254 169.117 118.066 168.963 117.942C168.809 117.818 168.569 117.756 168.243 117.756H167.746V119.297Z" fill="#777777"/>
<path d="M172.179 121.598C171.663 121.598 171.259 121.449 170.968 121.149C170.678 120.847 170.533 120.433 170.533 119.905C170.533 119.364 170.668 118.938 170.938 118.628C171.208 118.319 171.578 118.164 172.05 118.164C172.487 118.164 172.833 118.297 173.087 118.562C173.34 118.828 173.467 119.194 173.467 119.659V120.04H171.258C171.268 120.362 171.355 120.609 171.519 120.783C171.683 120.955 171.914 121.041 172.212 121.041C172.407 121.041 172.589 121.023 172.757 120.987C172.927 120.949 173.109 120.887 173.303 120.801V121.374C173.131 121.456 172.957 121.514 172.781 121.547C172.605 121.581 172.404 121.598 172.179 121.598ZM172.05 118.697C171.826 118.697 171.646 118.768 171.51 118.91C171.376 119.052 171.296 119.259 171.27 119.53H172.775C172.771 119.257 172.705 119.05 172.577 118.91C172.449 118.768 172.273 118.697 172.05 118.697Z" fill="#777777"/>
<path d="M177.184 121.539H176.476V119.5C176.476 119.245 176.425 119.054 176.321 118.928C176.219 118.802 176.056 118.739 175.832 118.739C175.534 118.739 175.317 118.827 175.179 119.003C175.041 119.179 174.972 119.473 174.972 119.887V121.539H174.268V118.224H174.819L174.918 118.658H174.954C175.054 118.5 175.196 118.379 175.38 118.293C175.563 118.207 175.767 118.164 175.991 118.164C176.786 118.164 177.184 118.568 177.184 119.378V121.539Z" fill="#777777"/>
<path d="M179.282 121.598C178.868 121.598 178.545 121.449 178.314 121.149C178.082 120.849 177.966 120.429 177.966 119.887C177.966 119.344 178.083 118.921 178.317 118.619C178.552 118.316 178.878 118.164 179.294 118.164C179.729 118.164 180.061 118.325 180.289 118.646H180.325C180.291 118.409 180.274 118.221 180.274 118.083V116.875H180.981V121.539H180.43L180.307 121.104H180.274C180.048 121.434 179.717 121.598 179.282 121.598ZM179.471 121.029C179.76 121.029 179.971 120.948 180.103 120.786C180.235 120.622 180.303 120.358 180.307 119.992V119.893C180.307 119.475 180.239 119.179 180.103 119.003C179.967 118.827 179.754 118.739 179.465 118.739C179.217 118.739 179.026 118.84 178.892 119.042C178.758 119.242 178.691 119.527 178.691 119.899C178.691 120.267 178.756 120.547 178.886 120.741C179.016 120.933 179.211 121.029 179.471 121.029Z" fill="#777777"/>
<path d="M182.692 121.539H181.988V118.224H182.692V121.539ZM181.946 117.346C181.946 117.22 181.98 117.123 182.048 117.055C182.118 116.987 182.217 116.953 182.345 116.953C182.469 116.953 182.565 116.987 182.633 117.055C182.702 117.123 182.737 117.22 182.737 117.346C182.737 117.465 182.702 117.56 182.633 117.63C182.565 117.698 182.469 117.732 182.345 117.732C182.217 117.732 182.118 117.698 182.048 117.63C181.98 117.56 181.946 117.465 181.946 117.346Z" fill="#777777"/>
<path d="M186.619 121.539H185.911V119.5C185.911 119.245 185.859 119.054 185.756 118.928C185.654 118.802 185.491 118.739 185.267 118.739C184.969 118.739 184.751 118.827 184.614 119.003C184.476 119.179 184.407 119.473 184.407 119.887V121.539H183.702V118.224H184.254L184.353 118.658H184.389C184.489 118.5 184.631 118.379 184.814 118.293C184.998 118.207 185.202 118.164 185.426 118.164C186.221 118.164 186.619 118.568 186.619 119.378V121.539Z" fill="#777777"/>
<path d="M190.398 118.224V118.61L189.832 118.715C189.884 118.785 189.926 118.871 189.96 118.973C189.994 119.075 190.011 119.183 190.011 119.297C190.011 119.638 189.894 119.907 189.658 120.103C189.422 120.299 189.097 120.397 188.684 120.397C188.578 120.397 188.482 120.389 188.396 120.373C188.244 120.467 188.168 120.576 188.168 120.702C188.168 120.778 188.203 120.835 188.273 120.873C188.345 120.911 188.476 120.93 188.666 120.93H189.244C189.61 120.93 189.888 121.008 190.077 121.164C190.267 121.32 190.362 121.544 190.362 121.838C190.362 122.214 190.207 122.504 189.898 122.707C189.588 122.911 189.14 123.013 188.555 123.013C188.103 123.013 187.759 122.933 187.521 122.773C187.283 122.613 187.164 122.386 187.164 122.09C187.164 121.886 187.228 121.714 187.356 121.574C187.486 121.437 187.667 121.341 187.898 121.287C187.805 121.247 187.727 121.183 187.665 121.095C187.605 121.005 187.575 120.911 187.575 120.813C187.575 120.689 187.61 120.584 187.68 120.499C187.75 120.413 187.853 120.328 187.991 120.244C187.82 120.17 187.68 120.05 187.572 119.884C187.466 119.716 187.413 119.52 187.413 119.297C187.413 118.937 187.526 118.658 187.752 118.46C187.979 118.263 188.303 118.164 188.723 118.164C188.817 118.164 188.914 118.171 189.016 118.185C189.12 118.197 189.198 118.21 189.25 118.224H190.398ZM187.794 122.054C187.794 122.206 187.861 122.323 187.997 122.405C188.135 122.487 188.328 122.528 188.576 122.528C188.959 122.528 189.245 122.473 189.433 122.363C189.621 122.253 189.715 122.107 189.715 121.925C189.715 121.781 189.663 121.678 189.559 121.616C189.457 121.556 189.266 121.527 188.986 121.527H188.453C188.251 121.527 188.09 121.573 187.97 121.667C187.852 121.763 187.794 121.892 187.794 122.054ZM188.096 119.297C188.096 119.504 188.149 119.664 188.255 119.776C188.363 119.888 188.517 119.944 188.717 119.944C189.124 119.944 189.328 119.726 189.328 119.291C189.328 119.075 189.277 118.909 189.175 118.793C189.075 118.675 188.922 118.616 188.717 118.616C188.513 118.616 188.358 118.674 188.252 118.79C188.148 118.906 188.096 119.075 188.096 119.297Z" fill="#777777"/>
<path d="M192.352 119.857C192.352 119.328 192.429 118.832 192.583 118.371C192.739 117.909 192.963 117.504 193.254 117.157H193.869C193.591 117.532 193.378 117.954 193.23 118.422C193.082 118.887 193.009 119.364 193.009 119.851C193.009 120.339 193.082 120.811 193.23 121.269C193.378 121.726 193.589 122.14 193.863 122.51H193.254C192.961 122.17 192.737 121.773 192.583 121.32C192.429 120.866 192.352 120.379 192.352 119.857Z" fill="#777777"/>
<path d="M197.13 118.164C197.13 118.441 197.049 118.673 196.887 118.859C196.725 119.043 196.497 119.167 196.203 119.231V119.255C196.555 119.299 196.819 119.409 196.995 119.584C197.171 119.758 197.258 119.99 197.258 120.28C197.258 120.701 197.11 121.027 196.812 121.257C196.514 121.485 196.091 121.598 195.541 121.598C195.056 121.598 194.646 121.52 194.312 121.362V120.735C194.498 120.827 194.695 120.898 194.903 120.948C195.111 120.998 195.31 121.023 195.502 121.023C195.842 121.023 196.096 120.96 196.263 120.834C196.431 120.708 196.515 120.513 196.515 120.25C196.515 120.016 196.422 119.844 196.236 119.734C196.051 119.624 195.759 119.569 195.361 119.569H194.981V118.997H195.367C196.067 118.997 196.416 118.755 196.416 118.272C196.416 118.084 196.355 117.939 196.233 117.837C196.112 117.735 195.932 117.684 195.694 117.684C195.528 117.684 195.368 117.708 195.214 117.756C195.061 117.802 194.879 117.893 194.669 118.029L194.324 117.537C194.726 117.242 195.192 117.094 195.724 117.094C196.165 117.094 196.51 117.189 196.758 117.379C197.006 117.568 197.13 117.83 197.13 118.164Z" fill="#777777"/>
<path d="M199.261 119.857C199.261 120.383 199.183 120.872 199.027 121.326C198.873 121.779 198.65 122.174 198.358 122.51H197.75C198.026 122.136 198.236 121.721 198.382 121.266C198.53 120.81 198.604 120.339 198.604 119.851C198.604 119.362 198.53 118.885 198.382 118.422C198.234 117.956 198.022 117.534 197.744 117.157H198.358C198.652 117.506 198.876 117.913 199.03 118.377C199.184 118.838 199.261 119.332 199.261 119.857Z" fill="#777777"/>
<path d="M108.206 117.157H109.507C110.11 117.157 110.546 117.245 110.814 117.42C111.083 117.596 111.218 117.874 111.218 118.254C111.218 118.509 111.152 118.722 111.02 118.892C110.889 119.062 110.699 119.169 110.451 119.213V119.243C110.759 119.301 110.984 119.416 111.128 119.587C111.274 119.757 111.347 119.988 111.347 120.28C111.347 120.673 111.209 120.982 110.933 121.206C110.66 121.428 110.278 121.539 109.789 121.539H108.206V117.157ZM108.922 118.967H109.612C109.911 118.967 110.13 118.92 110.268 118.826C110.406 118.73 110.475 118.568 110.475 118.341C110.475 118.135 110.4 117.986 110.25 117.894C110.102 117.802 109.867 117.756 109.543 117.756H108.922V118.967ZM108.922 119.548V120.936H109.684C109.983 120.936 110.209 120.879 110.361 120.765C110.515 120.649 110.592 120.468 110.592 120.22C110.592 119.992 110.514 119.823 110.358 119.713C110.202 119.603 109.965 119.548 109.648 119.548H108.922Z" fill="#4573FF"/>
<path d="M114.257 121.539L114.116 121.077H114.092C113.933 121.279 113.772 121.417 113.61 121.491C113.448 121.562 113.24 121.598 112.987 121.598C112.661 121.598 112.406 121.511 112.222 121.335C112.04 121.159 111.95 120.91 111.95 120.588C111.95 120.247 112.076 119.989 112.33 119.815C112.584 119.641 112.971 119.546 113.49 119.53L114.062 119.512V119.336C114.062 119.124 114.013 118.966 113.913 118.862C113.815 118.756 113.662 118.703 113.454 118.703C113.284 118.703 113.121 118.728 112.966 118.778C112.81 118.828 112.66 118.887 112.516 118.955L112.288 118.451C112.468 118.358 112.665 118.287 112.879 118.239C113.092 118.189 113.294 118.164 113.484 118.164C113.906 118.164 114.223 118.256 114.437 118.439C114.653 118.623 114.761 118.912 114.761 119.306V121.539H114.257ZM113.208 121.059C113.464 121.059 113.669 120.988 113.823 120.846C113.979 120.702 114.056 120.502 114.056 120.244V119.956L113.631 119.974C113.299 119.986 113.057 120.042 112.906 120.142C112.756 120.24 112.681 120.391 112.681 120.594C112.681 120.742 112.725 120.857 112.813 120.939C112.901 121.019 113.032 121.059 113.208 121.059Z" fill="#4573FF"/>
<path d="M116.448 121.539H115.744V116.875H116.448V121.539Z" fill="#4573FF"/>
<path d="M119.532 121.539L119.391 121.077H119.367C119.208 121.279 119.047 121.417 118.885 121.491C118.723 121.562 118.515 121.598 118.261 121.598C117.936 121.598 117.681 121.511 117.497 121.335C117.315 121.159 117.224 120.91 117.224 120.588C117.224 120.247 117.351 119.989 117.605 119.815C117.859 119.641 118.245 119.546 118.765 119.53L119.337 119.512V119.336C119.337 119.124 119.287 118.966 119.188 118.862C119.09 118.756 118.937 118.703 118.729 118.703C118.559 118.703 118.396 118.728 118.24 118.778C118.085 118.828 117.935 118.887 117.791 118.955L117.563 118.451C117.743 118.358 117.94 118.287 118.154 118.239C118.367 118.189 118.569 118.164 118.759 118.164C119.181 118.164 119.498 118.256 119.712 118.439C119.928 118.623 120.036 118.912 120.036 119.306V121.539H119.532ZM118.483 121.059C118.739 121.059 118.944 120.988 119.098 120.846C119.253 120.702 119.331 120.502 119.331 120.244V119.956L118.906 119.974C118.574 119.986 118.332 120.042 118.181 120.142C118.031 120.24 117.956 120.391 117.956 120.594C117.956 120.742 118 120.857 118.088 120.939C118.176 121.019 118.307 121.059 118.483 121.059Z" fill="#4573FF"/>
<path d="M123.935 121.539H123.228V119.5C123.228 119.245 123.176 119.054 123.072 118.928C122.97 118.802 122.807 118.739 122.583 118.739C122.286 118.739 122.068 118.827 121.93 119.003C121.792 119.179 121.723 119.473 121.723 119.887V121.539H121.019V118.224H121.57L121.669 118.658H121.705C121.805 118.5 121.947 118.379 122.131 118.293C122.315 118.207 122.518 118.164 122.742 118.164C123.537 118.164 123.935 118.568 123.935 119.378V121.539Z" fill="#4573FF"/>
<path d="M126.252 121.598C125.75 121.598 125.369 121.453 125.107 121.161C124.847 120.867 124.717 120.447 124.717 119.899C124.717 119.342 124.853 118.913 125.125 118.613C125.399 118.314 125.793 118.164 126.309 118.164C126.658 118.164 126.973 118.229 127.253 118.359L127.04 118.925C126.742 118.809 126.497 118.751 126.303 118.751C125.729 118.751 125.443 119.132 125.443 119.893C125.443 120.265 125.513 120.544 125.655 120.732C125.799 120.918 126.009 121.011 126.285 121.011C126.598 121.011 126.895 120.933 127.175 120.777V121.392C127.049 121.466 126.914 121.519 126.77 121.55C126.628 121.582 126.456 121.598 126.252 121.598Z" fill="#4573FF"/>
<path d="M129.402 121.598C128.886 121.598 128.483 121.449 128.191 121.149C127.901 120.847 127.756 120.433 127.756 119.905C127.756 119.364 127.891 118.938 128.161 118.628C128.431 118.319 128.801 118.164 129.273 118.164C129.71 118.164 130.056 118.297 130.31 118.562C130.564 118.828 130.69 119.194 130.69 119.659V120.04H128.482C128.492 120.362 128.578 120.609 128.742 120.783C128.906 120.955 129.137 121.041 129.435 121.041C129.63 121.041 129.812 121.023 129.98 120.987C130.15 120.949 130.332 120.887 130.526 120.801V121.374C130.354 121.456 130.18 121.514 130.004 121.547C129.828 121.581 129.627 121.598 129.402 121.598ZM129.273 118.697C129.049 118.697 128.869 118.768 128.733 118.91C128.599 119.052 128.52 119.259 128.494 119.53H129.998C129.994 119.257 129.928 119.05 129.8 118.91C129.672 118.768 129.497 118.697 129.273 118.697Z" fill="#4573FF"/>
<path d="M136.616 121.539H135.896V119.563H133.876V121.539H133.16V117.157H133.876V118.949H135.896V117.157H136.616V121.539Z" fill="#4573FF"/>
<path d="M138.399 121.539H137.695V118.224H138.399V121.539ZM137.653 117.346C137.653 117.22 137.687 117.123 137.755 117.055C137.825 116.987 137.923 116.953 138.051 116.953C138.175 116.953 138.271 116.987 138.339 117.055C138.409 117.123 138.444 117.22 138.444 117.346C138.444 117.465 138.409 117.56 138.339 117.63C138.271 117.698 138.175 117.732 138.051 117.732C137.923 117.732 137.825 117.698 137.755 117.63C137.687 117.56 137.653 117.465 137.653 117.346Z" fill="#4573FF"/>
<path d="M141.636 120.594C141.636 120.918 141.518 121.167 141.282 121.341C141.046 121.513 140.709 121.598 140.269 121.598C139.828 121.598 139.473 121.532 139.205 121.398V120.789C139.595 120.969 139.958 121.059 140.293 121.059C140.727 121.059 140.944 120.928 140.944 120.666C140.944 120.582 140.92 120.512 140.872 120.457C140.824 120.401 140.745 120.343 140.635 120.283C140.525 120.223 140.372 120.155 140.176 120.079C139.795 119.931 139.536 119.783 139.4 119.635C139.266 119.487 139.199 119.296 139.199 119.06C139.199 118.776 139.313 118.556 139.541 118.401C139.771 118.243 140.082 118.164 140.476 118.164C140.866 118.164 141.234 118.243 141.582 118.401L141.354 118.931C140.997 118.783 140.696 118.709 140.452 118.709C140.08 118.709 139.895 118.815 139.895 119.027C139.895 119.131 139.943 119.219 140.038 119.291C140.136 119.363 140.348 119.462 140.674 119.587C140.948 119.693 141.146 119.79 141.27 119.878C141.394 119.966 141.486 120.068 141.546 120.184C141.606 120.298 141.636 120.435 141.636 120.594Z" fill="#4573FF"/>
<path d="M143.635 121.029C143.807 121.029 143.979 121.002 144.151 120.948V121.479C144.073 121.513 143.972 121.54 143.848 121.562C143.726 121.586 143.599 121.598 143.467 121.598C142.8 121.598 142.466 121.247 142.466 120.543V118.757H142.014V118.445L142.499 118.188L142.739 117.486H143.173V118.224H144.118V118.757H143.173V120.531C143.173 120.701 143.215 120.827 143.299 120.909C143.385 120.989 143.497 121.029 143.635 121.029Z" fill="#4573FF"/>
<path d="M147.756 119.875C147.756 120.417 147.617 120.839 147.339 121.143C147.062 121.447 146.675 121.598 146.18 121.598C145.87 121.598 145.596 121.529 145.358 121.389C145.121 121.249 144.938 121.048 144.81 120.786C144.682 120.524 144.618 120.221 144.618 119.875C144.618 119.338 144.756 118.918 145.032 118.616C145.307 118.315 145.696 118.164 146.198 118.164C146.677 118.164 147.057 118.319 147.336 118.628C147.616 118.936 147.756 119.352 147.756 119.875ZM145.343 119.875C145.343 120.64 145.626 121.023 146.192 121.023C146.751 121.023 147.031 120.64 147.031 119.875C147.031 119.118 146.749 118.739 146.186 118.739C145.89 118.739 145.675 118.837 145.541 119.033C145.409 119.229 145.343 119.509 145.343 119.875Z" fill="#4573FF"/>
<path d="M150.25 118.164C150.391 118.164 150.508 118.174 150.6 118.194L150.531 118.85C150.431 118.826 150.328 118.814 150.22 118.814C149.938 118.814 149.709 118.906 149.533 119.09C149.359 119.274 149.273 119.512 149.273 119.806V121.539H148.568V118.224H149.12L149.213 118.808H149.249C149.358 118.61 149.501 118.453 149.677 118.338C149.855 118.222 150.046 118.164 150.25 118.164Z" fill="#4573FF"/>
<path d="M150.714 118.224H151.481L152.156 120.103C152.258 120.371 152.326 120.622 152.36 120.858H152.384C152.402 120.748 152.435 120.615 152.482 120.46C152.53 120.302 152.784 119.556 153.244 118.224H154.005L152.587 121.979C152.33 122.668 151.9 123.013 151.299 123.013C151.143 123.013 150.991 122.996 150.843 122.962V122.405C150.949 122.429 151.07 122.441 151.206 122.441C151.545 122.441 151.784 122.244 151.922 121.85L152.045 121.539L150.714 118.224Z" fill="#4573FF"/>
<rect x="107.628" y="125.324" width="47.0587" height="1.02301" rx="0.511507" fill="#4573FF"/>
<rect x="98.4802" y="135.172" width="334.477" height="0.198502" rx="0.0992512" fill="white" stroke="#DFDFDF" stroke-width="0.198502"/>
<rect x="121.078" y="169.931" width="17.0658" height="5.95507" rx="2.97754" fill="#CFCFCF"/>
<rect x="105.106" y="169.834" width="5.95507" height="5.95507" rx="2.97754" fill="#CFCFCF"/>
<rect x="105.106" y="187.7" width="5.95507" height="5.95507" rx="2.97754" fill="#ECECEC"/>
<rect x="105.106" y="203.183" width="5.95507" height="5.95507" rx="2.97754" fill="#ECECEC"/>
<rect x="230.359" y="169.931" width="18.6533" height="5.95507" rx="2.97754" fill="#CFCFCF"/>
<rect x="174.878" y="169.931" width="17.8595" height="5.95507" rx="2.97754" fill="#CFCFCF"/>
<rect x="295.928" y="169.931" width="21.0346" height="5.95507" rx="2.97754" fill="#CFCFCF"/>
<rect x="121.078" y="187.796" width="26.5909" height="5.95507" rx="2.97754" fill="#ECECEC"/>
<rect x="230.359" y="187.796" width="32.5441" height="5.95507" rx="2.97754" fill="#ECECEC"/>
<rect x="174.878" y="187.796" width="23.4158" height="5.95507" rx="2.97754" fill="#ECECEC"/>
<rect x="295.928" y="187.796" width="33.7347" height="5.95507" rx="2.97754" fill="#ECECEC"/>
<rect x="121.078" y="203.279" width="26.5909" height="5.95507" rx="2.97754" fill="#ECECEC"/>
<rect x="230.359" y="203.279" width="32.5441" height="5.95507" rx="2.97754" fill="#ECECEC"/>
<rect x="174.878" y="203.279" width="23.4158" height="5.95507" rx="2.97754" fill="#ECECEC"/>
<rect x="295.928" y="203.279" width="33.7347" height="5.95507" rx="2.97754" fill="#ECECEC"/>
<rect x="98.4802" y="163.281" width="334.37" height="0.198502" rx="0.0992512" fill="white" stroke="#DFDFDF" stroke-width="0.198502"/>
<rect x="150.475" y="143.831" width="39.0847" height="12.4982" rx="3.5" fill="white" stroke="#CFCFCF"/>
<rect x="200.085" y="143.831" width="39.0847" height="12.4982" rx="3.5" fill="white" stroke="#CFCFCF"/>
<rect x="203.951" y="146.905" width="24.6065" height="5.95507" rx="2.97754" fill="#ECECEC"/>
<rect x="154.341" y="146.905" width="24.6065" height="5.95507" rx="2.97754" fill="#ECECEC"/>
<path d="M193.311 157.274V156.102H196.322V157.274H193.311Z" fill="#CFCFCF"/>
<rect x="105.231" y="143.831" width="37.8941" height="12.4982" rx="3.5" fill="white" stroke="#CFCFCF"/>
<rect x="109.096" y="147.698" width="24.6065" height="5.95507" rx="2.97754" fill="#ECECEC"/>
<path d="M137.157 149.997L138.069 150.909L138.98 149.997L139.26 150.276L138.069 151.467L136.878 150.276L137.157 149.997Z" fill="#CFCFCF"/>
<rect x="246.52" y="143.831" width="70.0413" height="12.4982" rx="3.5" fill="white" stroke="#CFCFCF"/>
<path fill-rule="evenodd" clip-rule="evenodd" d="M253.402 150.395H253.624L255.027 151.801L254.608 152.22L253.203 150.817V150.594L253.127 150.516C252.806 150.791 252.39 150.957 251.937 150.957C250.928 150.957 250.11 150.139 250.11 149.129C250.11 148.12 250.928 147.301 251.937 147.301C252.947 147.301 253.765 148.12 253.765 149.129C253.765 149.582 253.599 149.998 253.323 150.319L253.402 150.395ZM250.673 149.129C250.673 149.83 251.238 150.395 251.938 150.395C252.638 150.395 253.204 149.83 253.204 149.129C253.204 148.429 252.638 147.864 251.938 147.864C251.238 147.864 250.673 148.429 250.673 149.129Z" fill="#B1B1B1"/>
<path d="M233.518 149.482H233.118V149.882H233.518V149.482ZM234.309 149.482H233.918V149.882H234.309V149.482ZM235.109 149.482H234.709V149.882H235.109V149.482ZM235.5 148.095H235.304V147.695H234.904V148.095H233.323V147.695H232.923V148.095H232.728C232.61 148.095 232.514 148.136 232.439 148.216C232.365 148.291 232.328 148.384 232.328 148.496V151.268C232.328 151.38 232.365 151.476 232.439 151.557C232.52 151.631 232.616 151.669 232.728 151.669H235.5C235.611 151.669 235.704 151.631 235.779 151.557C235.859 151.476 235.9 151.38 235.9 151.268V148.496C235.9 148.384 235.859 148.291 235.779 148.216C235.704 148.136 235.611 148.095 235.5 148.095ZM235.5 151.268H232.728V149.091H235.5V151.268Z" fill="#CFCFCF"/>
<path d="M183.908 149.482H183.508V149.882H183.908V149.482ZM184.699 149.482H184.308V149.882H184.699V149.482ZM185.499 149.482H185.099V149.882H185.499V149.482ZM185.89 148.095H185.694V147.695H185.294V148.095H183.713V147.695H183.313V148.095H183.118C183 148.095 182.904 148.136 182.829 148.216C182.755 148.291 182.718 148.384 182.718 148.496V151.268C182.718 151.38 182.755 151.476 182.829 151.557C182.91 151.631 183.006 151.669 183.118 151.669H185.89C186.001 151.669 186.094 151.631 186.169 151.557C186.249 151.476 186.29 151.38 186.29 151.268V148.496C186.29 148.384 186.249 148.291 186.169 148.216C186.094 148.136 186.001 148.095 185.89 148.095ZM185.89 151.268H183.118V149.091H185.89V151.268Z" fill="#CFCFCF"/>
<rect x="104.83" y="182.337" width="321.67" height="0.198502" rx="0.0992512" fill="white" stroke="#DFDFDF" stroke-width="0.198502"/>
<g filter="url(#filter2_d)">
<rect x="98.3812" y="51.3062" width="334.569" height="48.7562" rx="1.5875" fill="white"/>
</g>
<path d="M109.328 89.5739L110.902 91.1441L112.475 89.5739L112.959 90.0573L110.902 92.1144L108.844 90.0573L109.328 89.5739Z" fill="#4573FF"/>
<path d="M119.166 91.5916C119.166 91.9833 119.025 92.2907 118.742 92.5137C118.458 92.7367 118.068 92.8482 117.569 92.8482C117.071 92.8482 116.663 92.7708 116.346 92.6161V91.9351C116.547 92.0295 116.76 92.1039 116.985 92.1581C117.212 92.2124 117.423 92.2395 117.618 92.2395C117.903 92.2395 118.113 92.1852 118.247 92.0768C118.384 91.9683 118.452 91.8226 118.452 91.6398C118.452 91.4751 118.39 91.3355 118.265 91.221C118.141 91.1065 117.884 90.9709 117.494 90.8142C117.092 90.6515 116.809 90.4656 116.644 90.2567C116.48 90.0478 116.397 89.7967 116.397 89.5034C116.397 89.1358 116.528 88.8465 116.789 88.6356C117.05 88.4246 117.401 88.3192 117.841 88.3192C118.262 88.3192 118.682 88.4116 119.1 88.5964L118.871 89.184C118.479 89.0192 118.13 88.9369 117.822 88.9369C117.589 88.9369 117.413 88.9881 117.292 89.0906C117.172 89.191 117.111 89.3246 117.111 89.4913C117.111 89.6058 117.135 89.7043 117.184 89.7866C117.232 89.867 117.311 89.9433 117.422 90.0156C117.532 90.088 117.731 90.1834 118.018 90.3019C118.342 90.4365 118.579 90.5621 118.729 90.6786C118.88 90.7951 118.991 90.9267 119.061 91.0733C119.131 91.22 119.166 91.3927 119.166 91.5916Z" fill="#4573FF"/>
<path d="M121.399 92.8482C120.881 92.8482 120.475 92.6975 120.182 92.3962C119.891 92.0928 119.745 91.676 119.745 91.1456C119.745 90.6012 119.881 90.1733 120.152 89.862C120.423 89.5506 120.796 89.3949 121.27 89.3949C121.71 89.3949 122.057 89.5285 122.312 89.7957C122.567 90.0629 122.695 90.4305 122.695 90.8985V91.2812H120.474C120.484 91.6047 120.572 91.8538 120.736 92.0285C120.901 92.2013 121.133 92.2877 121.432 92.2877C121.629 92.2877 121.812 92.2696 121.981 92.2334C122.152 92.1953 122.334 92.133 122.529 92.0466V92.6222C122.356 92.7045 122.182 92.7628 122.005 92.7969C121.828 92.8311 121.626 92.8482 121.399 92.8482ZM121.27 89.9313C121.045 89.9313 120.864 90.0026 120.727 90.1452C120.593 90.2879 120.512 90.4958 120.486 90.769H121.999C121.995 90.4938 121.929 90.2858 121.8 90.1452C121.671 90.0026 121.495 89.9313 121.27 89.9313Z" fill="#4573FF"/>
<path d="M124.955 92.8482C124.437 92.8482 124.031 92.6975 123.738 92.3962C123.446 92.0928 123.301 91.676 123.301 91.1456C123.301 90.6012 123.436 90.1733 123.707 89.862C123.979 89.5506 124.351 89.3949 124.825 89.3949C125.265 89.3949 125.613 89.5285 125.868 89.7957C126.123 90.0629 126.251 90.4305 126.251 90.8985V91.2812H124.03C124.04 91.6047 124.127 91.8538 124.292 92.0285C124.457 92.2013 124.689 92.2877 124.988 92.2877C125.185 92.2877 125.368 92.2696 125.537 92.2334C125.707 92.1953 125.89 92.133 126.085 92.0466V92.6222C125.912 92.7045 125.737 92.7628 125.561 92.7969C125.384 92.8311 125.182 92.8482 124.955 92.8482ZM124.825 89.9313C124.6 89.9313 124.42 90.0026 124.283 90.1452C124.148 90.2879 124.068 90.4958 124.042 90.769H125.555C125.551 90.4938 125.484 90.2858 125.356 90.1452C125.227 90.0026 125.05 89.9313 124.825 89.9313Z" fill="#4573FF"/>
<path d="M130.361 89.3949C130.777 89.3949 131.1 89.5456 131.331 89.8469C131.564 90.1482 131.681 90.5711 131.681 91.1155C131.681 91.6619 131.563 92.0878 131.328 92.3932C131.093 92.6965 130.767 92.8482 130.349 92.8482C129.927 92.8482 129.599 92.6965 129.366 92.3932H129.318L129.189 92.7879H128.658V88.0992H129.366V89.2141C129.366 89.2965 129.362 89.419 129.354 89.5817C129.346 89.7445 129.34 89.8479 129.336 89.8921H129.366C129.591 89.5606 129.923 89.3949 130.361 89.3949ZM130.177 89.9735C129.892 89.9735 129.686 90.0578 129.559 90.2266C129.435 90.3933 129.37 90.6736 129.366 91.0673V91.1155C129.366 91.5213 129.431 91.8156 129.559 91.9984C129.688 92.1792 129.898 92.2696 130.189 92.2696C130.44 92.2696 130.63 92.1702 130.759 91.9713C130.889 91.7724 130.954 91.4851 130.954 91.1095C130.954 90.3521 130.695 89.9735 130.177 89.9735Z" fill="#4573FF"/>
<path d="M134.194 89.3949C134.336 89.3949 134.454 89.405 134.546 89.425L134.477 90.085C134.377 90.0608 134.272 90.0488 134.164 90.0488C133.88 90.0488 133.65 90.1412 133.474 90.326C133.299 90.5108 133.211 90.7509 133.211 91.0462V92.7879H132.503V89.4552H133.058L133.151 90.0428H133.187C133.298 89.8439 133.441 89.6862 133.618 89.5697C133.797 89.4532 133.989 89.3949 134.194 89.3949Z" fill="#4573FF"/>
<path d="M136.623 92.8482C136.104 92.8482 135.698 92.6975 135.405 92.3962C135.114 92.0928 134.968 91.676 134.968 91.1456C134.968 90.6012 135.104 90.1733 135.375 89.862C135.646 89.5506 136.019 89.3949 136.493 89.3949C136.933 89.3949 137.28 89.5285 137.536 89.7957C137.791 90.0629 137.918 90.4305 137.918 90.8985V91.2812H135.697C135.707 91.6047 135.795 91.8538 135.96 92.0285C136.124 92.2013 136.356 92.2877 136.656 92.2877C136.853 92.2877 137.035 92.2696 137.204 92.2334C137.375 92.1953 137.558 92.133 137.753 92.0466V92.6222C137.58 92.7045 137.405 92.7628 137.228 92.7969C137.051 92.8311 136.85 92.8482 136.623 92.8482ZM136.493 89.9313C136.268 89.9313 136.087 90.0026 135.951 90.1452C135.816 90.2879 135.736 90.4958 135.709 90.769H137.222C137.218 90.4938 137.152 90.2858 137.023 90.1452C136.895 90.0026 136.718 89.9313 136.493 89.9313Z" fill="#4573FF"/>
<path d="M140.808 92.7879L140.666 92.3238H140.642C140.482 92.5267 140.32 92.6654 140.157 92.7397C139.994 92.812 139.785 92.8482 139.53 92.8482C139.203 92.8482 138.947 92.7598 138.762 92.583C138.579 92.4062 138.488 92.1561 138.488 91.8327C138.488 91.4892 138.615 91.23 138.87 91.0552C139.126 90.8805 139.514 90.785 140.037 90.769L140.612 90.7509V90.5731C140.612 90.3602 140.562 90.2015 140.461 90.097C140.363 89.9905 140.209 89.9373 140 89.9373C139.83 89.9373 139.666 89.9624 139.509 90.0126C139.353 90.0629 139.202 90.1221 139.057 90.1904L138.828 89.6842C139.009 89.5898 139.207 89.5185 139.422 89.4702C139.637 89.42 139.84 89.3949 140.031 89.3949C140.454 89.3949 140.774 89.4873 140.989 89.6721C141.206 89.8569 141.314 90.1472 141.314 90.543V92.7879H140.808ZM139.753 92.3058C140.01 92.3058 140.216 92.2345 140.371 92.0918C140.528 91.9472 140.606 91.7453 140.606 91.4861V91.1969L140.178 91.2149C139.845 91.227 139.602 91.2832 139.449 91.3837C139.298 91.4821 139.223 91.6338 139.223 91.8387C139.223 91.9874 139.267 92.1029 139.356 92.1852C139.444 92.2656 139.577 92.3058 139.753 92.3058Z" fill="#4573FF"/>
<path d="M142.987 91.0281L143.387 90.5279L144.394 89.4552H145.21L143.87 90.8865L145.295 92.7879H144.463L143.393 91.3264L143.005 91.6459V92.7879H142.303V88.0992H143.005V90.3863L142.969 91.0281H142.987Z" fill="#4573FF"/>
<path d="M146.958 92.8482C146.542 92.8482 146.218 92.6975 145.985 92.3962C145.752 92.0948 145.635 91.672 145.635 91.1276C145.635 90.5811 145.753 90.1563 145.988 89.8529C146.225 89.5476 146.552 89.3949 146.97 89.3949C147.408 89.3949 147.742 89.5566 147.971 89.88H148.007C147.973 89.641 147.956 89.4522 147.956 89.3135V88.0992H148.667V92.7879H148.112L147.989 92.351H147.956C147.729 92.6824 147.396 92.8482 146.958 92.8482ZM147.148 92.2756C147.439 92.2756 147.651 92.1943 147.784 92.0316C147.916 91.8668 147.985 91.6007 147.989 91.233V91.1336C147.989 90.7137 147.92 90.4154 147.784 90.2386C147.647 90.0619 147.433 89.9735 147.142 89.9735C146.893 89.9735 146.701 90.0749 146.566 90.2778C146.432 90.4787 146.365 90.766 146.365 91.1396C146.365 91.5092 146.43 91.7915 146.56 91.9864C146.691 92.1792 146.887 92.2756 147.148 92.2756Z" fill="#4573FF"/>
<path d="M152.635 91.1155C152.635 91.6599 152.496 92.0848 152.216 92.3901C151.937 92.6955 151.548 92.8482 151.05 92.8482C150.739 92.8482 150.464 92.7779 150.225 92.6372C149.986 92.4966 149.802 92.2947 149.673 92.0316C149.545 91.7684 149.48 91.463 149.48 91.1155C149.48 90.5751 149.619 90.1533 149.896 89.8499C150.173 89.5466 150.564 89.3949 151.068 89.3949C151.55 89.3949 151.932 89.5506 152.213 89.862C152.495 90.1713 152.635 90.5892 152.635 91.1155ZM150.21 91.1155C150.21 91.8849 150.494 92.2696 151.062 92.2696C151.625 92.2696 151.906 91.8849 151.906 91.1155C151.906 90.3541 151.623 89.9735 151.056 89.9735C150.759 89.9735 150.543 90.0719 150.408 90.2688C150.276 90.4656 150.21 90.7479 150.21 91.1155Z" fill="#4573FF"/>
<path d="M156.185 92.7879L155.754 91.233C155.702 91.0683 155.607 90.6856 155.471 90.085H155.444C155.327 90.6274 155.235 91.0121 155.166 91.2391L154.723 92.7879H153.94L153.006 89.4552H153.729L154.154 91.0974C154.25 91.5032 154.319 91.8508 154.359 92.14H154.377C154.397 91.9934 154.427 91.8256 154.467 91.6368C154.51 91.446 154.546 91.3033 154.576 91.2089L155.082 89.4552H155.859L156.351 91.2089C156.381 91.3074 156.418 91.458 156.462 91.6609C156.508 91.8638 156.535 92.0215 156.544 92.134H156.568C156.598 91.8869 156.668 91.5414 156.779 91.0974L157.209 89.4552H157.921L156.98 92.7879H156.185Z" fill="#4573FF"/>
<path d="M161.428 92.7879H160.717V90.7388C160.717 90.4817 160.665 90.2899 160.56 90.1633C160.458 90.0367 160.294 89.9735 160.069 89.9735C159.77 89.9735 159.551 90.0619 159.412 90.2386C159.274 90.4154 159.204 90.7117 159.204 91.1276V92.7879H158.496V89.4552H159.051L159.15 89.8921H159.186C159.287 89.7334 159.429 89.6109 159.614 89.5245C159.799 89.4381 160.004 89.3949 160.229 89.3949C161.028 89.3949 161.428 89.8017 161.428 90.6153V92.7879Z" fill="#4573FF"/>
<path d="M110.51 63.7113L110.156 62.5479H108.374L108.02 63.7113H106.903L108.628 58.8039H109.895L111.627 63.7113H110.51ZM109.908 61.6788C109.581 60.6247 109.396 60.0285 109.353 59.8903C109.313 59.7522 109.284 59.643 109.267 59.5627C109.193 59.848 108.982 60.5533 108.635 61.6788H109.908Z" fill="#B1B1B1"/>
<path d="M113.054 63.7113L111.63 59.9739H112.696L113.418 62.1033C113.499 62.373 113.549 62.6282 113.569 62.8688H113.589C113.6 62.6549 113.65 62.3997 113.739 62.1033L114.458 59.9739H115.524L114.1 63.7113H113.054Z" fill="#B1B1B1"/>
<path d="M118.436 63.7113L118.239 63.2031H118.212C118.041 63.4193 117.863 63.5697 117.681 63.6544C117.5 63.7369 117.264 63.7781 116.972 63.7781C116.613 63.7781 116.33 63.6756 116.123 63.4706C115.918 63.2655 115.815 62.9736 115.815 62.5947C115.815 62.198 115.953 61.9061 116.23 61.7189C116.508 61.5295 116.927 61.4247 117.487 61.4047L118.135 61.3846V61.2208C118.135 60.8419 117.941 60.6525 117.554 60.6525C117.255 60.6525 116.904 60.7428 116.501 60.9233L116.163 60.2347C116.593 60.0096 117.07 59.897 117.594 59.897C118.095 59.897 118.48 60.0062 118.747 60.2246C119.014 60.443 119.148 60.7751 119.148 61.2208V63.7113H118.436ZM118.135 61.9796L117.741 61.993C117.444 62.0019 117.224 62.0554 117.079 62.1535C116.934 62.2515 116.862 62.4008 116.862 62.6014C116.862 62.8889 117.027 63.0326 117.356 63.0326C117.593 63.0326 117.781 62.9647 117.921 62.8287C118.064 62.6928 118.135 62.5123 118.135 62.2872V61.9796Z" fill="#B1B1B1"/>
<path d="M120.158 59.0078C120.158 58.6758 120.343 58.5097 120.713 58.5097C121.083 58.5097 121.268 58.6758 121.268 59.0078C121.268 59.166 121.221 59.2897 121.127 59.3789C121.036 59.4658 120.898 59.5092 120.713 59.5092C120.343 59.5092 120.158 59.3421 120.158 59.0078ZM121.221 63.7113H120.201V59.9739H121.221V63.7113Z" fill="#B1B1B1"/>
<path d="M123.313 63.7113H122.294V58.5097H123.313V63.7113Z" fill="#B1B1B1"/>
<path d="M126.76 63.7113L126.563 63.2031H126.536C126.364 63.4193 126.187 63.5697 126.004 63.6544C125.824 63.7369 125.588 63.7781 125.296 63.7781C124.937 63.7781 124.654 63.6756 124.447 63.4706C124.242 63.2655 124.139 62.9736 124.139 62.5947C124.139 62.198 124.277 61.9061 124.554 61.7189C124.832 61.5295 125.251 61.4247 125.811 61.4047L126.459 61.3846V61.2208C126.459 60.8419 126.265 60.6525 125.877 60.6525C125.579 60.6525 125.228 60.7428 124.824 60.9233L124.487 60.2347C124.917 60.0096 125.394 59.897 125.918 59.897C126.419 59.897 126.803 60.0062 127.071 60.2246C127.338 60.443 127.472 60.7751 127.472 61.2208V63.7113H126.76ZM126.459 61.9796L126.065 61.993C125.768 62.0019 125.548 62.0554 125.403 62.1535C125.258 62.2515 125.185 62.4008 125.185 62.6014C125.185 62.8889 125.35 63.0326 125.68 63.0326C125.916 63.0326 126.105 62.9647 126.245 62.8287C126.388 62.6928 126.459 62.5123 126.459 62.2872V61.9796Z" fill="#B1B1B1"/>
<path d="M130.604 59.9037C131.045 59.9037 131.391 60.0764 131.641 60.4219C131.89 60.7651 132.015 61.2364 132.015 61.8359C132.015 62.4532 131.886 62.9312 131.627 63.27C131.371 63.6087 131.021 63.7781 130.577 63.7781C130.138 63.7781 129.794 63.6188 129.545 63.3001H129.474L129.304 63.7113H128.525V58.5097H129.545V59.7198C129.545 59.8736 129.531 60.1199 129.504 60.4586H129.545C129.783 60.0887 130.136 59.9037 130.604 59.9037ZM130.277 60.7194C130.025 60.7194 129.841 60.7974 129.725 60.9534C129.609 61.1071 129.549 61.3623 129.545 61.7189V61.8292C129.545 62.2304 129.604 62.5178 129.722 62.6917C129.842 62.8655 130.031 62.9524 130.29 62.9524C130.499 62.9524 130.666 62.8566 130.788 62.6649C130.913 62.471 130.975 62.1902 130.975 61.8225C130.975 61.4548 130.913 61.1796 130.788 60.9968C130.663 60.8119 130.493 60.7194 130.277 60.7194Z" fill="#B1B1B1"/>
<path d="M133.877 63.7113H132.857V58.5097H133.877V63.7113Z" fill="#B1B1B1"/>
<path d="M136.498 60.6291C136.282 60.6291 136.112 60.6982 135.99 60.8364C135.867 60.9723 135.797 61.1662 135.779 61.418H137.21C137.205 61.1662 137.14 60.9723 137.013 60.8364C136.886 60.6982 136.714 60.6291 136.498 60.6291ZM136.642 63.7781C136.04 63.7781 135.57 63.6121 135.231 63.28C134.892 62.948 134.723 62.4777 134.723 61.8693C134.723 61.2431 134.879 60.7595 135.191 60.4185C135.505 60.0753 135.938 59.9037 136.491 59.9037C137.019 59.9037 137.43 60.0541 137.725 60.355C138.019 60.6559 138.166 61.0715 138.166 61.6019V62.0966H135.756C135.767 62.3864 135.853 62.6126 136.013 62.7752C136.173 62.9379 136.399 63.0193 136.688 63.0193C136.913 63.0193 137.126 62.9959 137.327 62.9491C137.527 62.9023 137.737 62.8276 137.955 62.7251V63.514C137.777 63.6032 137.586 63.6689 137.384 63.7113C137.181 63.7558 136.933 63.7781 136.642 63.7781Z" fill="#B1B1B1"/>
<path d="M140.854 58.824H142.375C143.068 58.824 143.57 58.9231 143.882 59.1215C144.196 59.3176 144.354 59.6307 144.354 60.0608C144.354 60.3528 144.284 60.5923 144.146 60.7795C144.01 60.9667 143.829 61.0793 143.601 61.1172V61.1506C143.911 61.2197 144.134 61.3489 144.27 61.5384C144.408 61.7278 144.477 61.9796 144.477 62.2939C144.477 62.7396 144.316 63.0873 143.993 63.3369C143.672 63.5865 143.235 63.7113 142.682 63.7113H140.854V58.824ZM141.89 60.7595H142.492C142.772 60.7595 142.975 60.716 143.1 60.6291C143.227 60.5422 143.291 60.3985 143.291 60.1979C143.291 60.0107 143.221 59.877 143.083 59.7967C142.947 59.7143 142.731 59.673 142.435 59.673H141.89V60.7595ZM141.89 61.5818V62.8555H142.565C142.85 62.8555 143.061 62.8009 143.197 62.6917C143.333 62.5825 143.401 62.4153 143.401 62.1902C143.401 61.7846 143.111 61.5818 142.532 61.5818H141.89Z" fill="#B1B1B1"/>
<path d="M147.747 63.7113L147.549 63.2031H147.523C147.351 63.4193 147.174 63.5697 146.991 63.6544C146.811 63.7369 146.574 63.7781 146.282 63.7781C145.924 63.7781 145.641 63.6756 145.433 63.4706C145.228 63.2655 145.126 62.9736 145.126 62.5947C145.126 62.198 145.264 61.9061 145.54 61.7189C145.819 61.5295 146.238 61.4247 146.797 61.4047L147.446 61.3846V61.2208C147.446 60.8419 147.252 60.6525 146.864 60.6525C146.565 60.6525 146.214 60.7428 145.811 60.9233L145.473 60.2347C145.904 60.0096 146.38 59.897 146.904 59.897C147.406 59.897 147.79 60.0062 148.057 60.2246C148.325 60.443 148.459 60.7751 148.459 61.2208V63.7113H147.747ZM147.446 61.9796L147.051 61.993C146.755 62.0019 146.534 62.0554 146.389 62.1535C146.245 62.2515 146.172 62.4008 146.172 62.6014C146.172 62.8889 146.337 63.0326 146.667 63.0326C146.903 63.0326 147.091 62.9647 147.232 62.8287C147.374 62.6928 147.446 62.5123 147.446 62.2872V61.9796Z" fill="#B1B1B1"/>
<path d="M150.531 63.7113H149.512V58.5097H150.531V63.7113Z" fill="#B1B1B1"/>
<path d="M153.978 63.7113L153.78 63.2031H153.754C153.582 63.4193 153.405 63.5697 153.222 63.6544C153.042 63.7369 152.805 63.7781 152.514 63.7781C152.155 63.7781 151.872 63.6756 151.664 63.4706C151.459 63.2655 151.357 62.9736 151.357 62.5947C151.357 62.198 151.495 61.9061 151.771 61.7189C152.05 61.5295 152.469 61.4247 153.028 61.4047L153.677 61.3846V61.2208C153.677 60.8419 153.483 60.6525 153.095 60.6525C152.797 60.6525 152.446 60.7428 152.042 60.9233L151.705 60.2347C152.135 60.0096 152.612 59.897 153.135 59.897C153.637 59.897 154.021 60.0062 154.289 60.2246C154.556 60.443 154.69 60.7751 154.69 61.2208V63.7113H153.978ZM153.677 61.9796L153.282 61.993C152.986 62.0019 152.765 62.0554 152.621 62.1535C152.476 62.2515 152.403 62.4008 152.403 62.6014C152.403 62.8889 152.568 63.0326 152.898 63.0326C153.134 63.0326 153.323 62.9647 153.463 62.8287C153.606 62.6928 153.677 62.5123 153.677 62.2872V61.9796Z" fill="#B1B1B1"/>
<path d="M159.193 63.7113H158.173V61.5283C158.173 61.2587 158.125 61.057 158.029 60.9233C157.933 60.7873 157.781 60.7194 157.571 60.7194C157.286 60.7194 157.08 60.8152 156.953 61.0069C156.826 61.1963 156.762 61.5116 156.762 61.9529V63.7113H155.743V59.9739H156.522L156.659 60.4519H156.716C156.829 60.2714 156.985 60.1355 157.184 60.0441C157.384 59.9505 157.611 59.9037 157.866 59.9037C158.3 59.9037 158.63 60.0218 158.855 60.2581C159.08 60.4921 159.193 60.8308 159.193 61.2743V63.7113Z" fill="#B1B1B1"/>
<path d="M161.76 63.7781C160.597 63.7781 160.015 63.1396 160.015 61.8626C160.015 61.2275 160.173 60.7428 160.49 60.4085C160.806 60.072 161.26 59.9037 161.85 59.9037C162.283 59.9037 162.67 59.9884 163.014 60.1578L162.713 60.9467C162.552 60.8821 162.403 60.8297 162.265 60.7896C162.127 60.7472 161.988 60.7261 161.85 60.7261C161.32 60.7261 161.055 61.1027 161.055 61.856C161.055 62.5869 161.32 62.9524 161.85 62.9524C162.046 62.9524 162.228 62.9268 162.395 62.8755C162.562 62.822 162.729 62.7396 162.897 62.6282V63.5007C162.732 63.6054 162.564 63.6778 162.395 63.7179C162.228 63.7581 162.016 63.7781 161.76 63.7781Z" fill="#B1B1B1"/>
<path d="M165.313 60.6291C165.097 60.6291 164.928 60.6982 164.805 60.8364C164.683 60.9723 164.613 61.1662 164.595 61.418H166.026C166.021 61.1662 165.955 60.9723 165.828 60.8364C165.701 60.6982 165.53 60.6291 165.313 60.6291ZM165.457 63.7781C164.855 63.7781 164.385 63.6121 164.047 63.28C163.708 62.948 163.538 62.4777 163.538 61.8693C163.538 61.2431 163.694 60.7595 164.006 60.4185C164.321 60.0753 164.754 59.9037 165.307 59.9037C165.835 59.9037 166.246 60.0541 166.54 60.355C166.834 60.6559 166.982 61.0715 166.982 61.6019V62.0966H164.571C164.582 62.3864 164.668 62.6126 164.829 62.7752C164.989 62.9379 165.214 63.0193 165.504 63.0193C165.729 63.0193 165.942 62.9959 166.143 62.9491C166.343 62.9023 166.553 62.8276 166.771 62.7251V63.514C166.593 63.6032 166.402 63.6689 166.199 63.7113C165.997 63.7558 165.749 63.7781 165.457 63.7781Z" fill="#B1B1B1"/>
<circle cx="173.226" cy="60.871" r="2.13945" fill="#B1B1B1"/>
<path d="M173.472 61.9946H173.079V60.146H173.472V61.9946ZM173.056 59.6562C173.056 59.586 173.074 59.532 173.112 59.4941C173.151 59.4562 173.207 59.4373 173.278 59.4373C173.347 59.4373 173.4 59.4562 173.438 59.4941C173.477 59.532 173.497 59.586 173.497 59.6562C173.497 59.7231 173.477 59.776 173.438 59.815C173.4 59.8529 173.347 59.8718 173.278 59.8718C173.207 59.8718 173.151 59.8529 173.112 59.815C173.074 59.776 173.056 59.7231 173.056 59.6562Z" fill="white"/>
<path d="M107.826 78.0708V70.7398H109.38V78.0708H107.826Z" fill="#B1B1B1"/>
<path d="M117.308 74.3351C117.308 75.5419 116.964 76.4662 116.275 77.108C115.59 77.7498 114.599 78.0708 113.302 78.0708H111.226V70.7398H113.527C114.724 70.7398 115.653 71.0557 116.315 71.6875C116.977 72.3193 117.308 73.2018 117.308 74.3351ZM115.693 74.3752C115.693 72.8007 114.998 72.0134 113.608 72.0134H112.78V76.7871H113.447C114.945 76.7871 115.693 75.9831 115.693 74.3752Z" fill="#B1B1B1"/>
<path d="M120.382 73.9941H120.883C121.375 73.9941 121.737 73.9122 121.971 73.7484C122.205 73.5846 122.322 73.3272 122.322 72.9762C122.322 72.6285 122.202 72.3812 121.961 72.2341C121.724 72.087 121.355 72.0134 120.853 72.0134H120.382V73.9941ZM120.382 75.2577V78.0708H118.827V70.7398H120.964C121.96 70.7398 122.697 70.922 123.175 71.2864C123.653 71.6474 123.892 72.1973 123.892 72.9361C123.892 73.3673 123.773 73.7517 123.536 74.0894C123.299 74.4237 122.963 74.6861 122.528 74.8766C123.631 76.5247 124.35 77.5894 124.684 78.0708H122.959L121.209 75.2577H120.382Z" fill="#B1B1B1"/>
<path d="M135.269 72.3795C135.269 72.8375 135.131 73.2269 134.853 73.5478C134.576 73.8687 134.186 74.0894 133.685 74.2097V74.2398C134.277 74.3133 134.725 74.4939 135.029 74.7814C135.333 75.0655 135.485 75.4499 135.485 75.9346C135.485 76.64 135.229 77.1899 134.718 77.5844C134.206 77.9755 133.476 78.171 132.527 78.171C131.731 78.171 131.026 78.039 130.411 77.7749V76.4561C130.695 76.5999 131.007 76.7169 131.348 76.8071C131.689 76.8974 132.027 76.9425 132.361 76.9425C132.873 76.9425 133.25 76.8556 133.494 76.6818C133.738 76.508 133.86 76.2288 133.86 75.8444C133.86 75.5001 133.72 75.256 133.439 75.1123C133.158 74.9686 132.71 74.8967 132.095 74.8967H131.539V73.7083H132.105C132.674 73.7083 133.088 73.6347 133.349 73.4877C133.613 73.3372 133.745 73.0815 133.745 72.7205C133.745 72.1655 133.397 71.8881 132.702 71.8881C132.461 71.8881 132.216 71.9282 131.965 72.0084C131.718 72.0887 131.442 72.2274 131.138 72.4246L130.421 71.3566C131.089 70.8752 131.886 70.6345 132.812 70.6345C133.571 70.6345 134.17 70.7883 134.608 71.0958C135.049 71.4034 135.269 71.8312 135.269 72.3795Z" fill="#B1B1B1"/>
<path d="M141.588 76.5514H140.705V78.0708H139.191V76.5514H136.062V75.4733L139.276 70.7398H140.705V75.348H141.588V76.5514ZM139.191 75.348V74.1044C139.191 73.8972 139.199 73.5963 139.216 73.2018C139.232 72.8074 139.246 72.5784 139.256 72.5149H139.216C139.092 72.789 138.943 73.0564 138.769 73.3172L137.426 75.348H139.191Z" fill="#B1B1B1"/>
<path d="M147.259 73.8687C147.259 75.3129 146.955 76.391 146.346 77.103C145.738 77.815 144.817 78.171 143.583 78.171C143.149 78.171 142.819 78.1476 142.595 78.1008V76.8573C142.876 76.9275 143.17 76.9626 143.478 76.9626C143.996 76.9626 144.422 76.8874 144.757 76.7369C145.091 76.5832 145.347 76.3442 145.524 76.0199C145.701 75.6923 145.803 75.2427 145.83 74.671H145.769C145.576 74.9853 145.352 75.2059 145.098 75.3329C144.843 75.46 144.526 75.5235 144.145 75.5235C143.506 75.5235 143.003 75.3196 142.636 74.9117C142.268 74.5005 142.084 73.9306 142.084 73.2018C142.084 72.4163 142.306 71.7961 142.751 71.3415C143.199 70.8835 143.807 70.6546 144.576 70.6546C145.118 70.6546 145.591 70.7816 145.995 71.0356C146.403 71.2897 146.716 71.6591 146.933 72.1438C147.15 72.6252 147.259 73.2002 147.259 73.8687ZM144.606 71.8981C144.285 71.8981 144.035 72.0084 143.854 72.2291C143.673 72.4497 143.583 72.7673 143.583 73.1818C143.583 73.5361 143.665 73.8169 143.829 74.0242C143.993 74.2314 144.242 74.3351 144.576 74.3351C144.89 74.3351 145.159 74.2331 145.383 74.0292C145.607 73.8219 145.719 73.5846 145.719 73.3172C145.719 72.9194 145.614 72.5834 145.403 72.3093C145.196 72.0352 144.93 71.8981 144.606 71.8981Z" fill="#B1B1B1"/>
<path d="M148.206 77.3537C148.206 77.0729 148.282 76.8606 148.432 76.7169C148.583 76.5731 148.801 76.5013 149.089 76.5013C149.366 76.5013 149.58 76.5748 149.731 76.7219C149.885 76.869 149.961 77.0796 149.961 77.3537C149.961 77.6178 149.885 77.8267 149.731 77.9805C149.577 78.1309 149.363 78.2061 149.089 78.2061C148.808 78.2061 148.591 78.1326 148.437 77.9855C148.283 77.8351 148.206 77.6245 148.206 77.3537Z" fill="#B1B1B1"/>
<path d="M156.054 73.8687C156.054 75.3129 155.75 76.391 155.141 77.103C154.533 77.815 153.612 78.171 152.378 78.171C151.944 78.171 151.615 78.1476 151.391 78.1008V76.8573C151.671 76.9275 151.966 76.9626 152.273 76.9626C152.791 76.9626 153.217 76.8874 153.552 76.7369C153.886 76.5832 154.142 76.3442 154.319 76.0199C154.496 75.6923 154.598 75.2427 154.625 74.671H154.565C154.371 74.9853 154.147 75.2059 153.893 75.3329C153.639 75.46 153.321 75.5235 152.94 75.5235C152.301 75.5235 151.798 75.3196 151.431 74.9117C151.063 74.5005 150.879 73.9306 150.879 73.2018C150.879 72.4163 151.101 71.7961 151.546 71.3415C151.994 70.8835 152.602 70.6546 153.371 70.6546C153.913 70.6546 154.386 70.7816 154.79 71.0356C155.198 71.2897 155.511 71.6591 155.728 72.1438C155.945 72.6252 156.054 73.2002 156.054 73.8687ZM153.401 71.8981C153.08 71.8981 152.83 72.0084 152.649 72.2291C152.469 72.4497 152.378 72.7673 152.378 73.1818C152.378 73.5361 152.46 73.8169 152.624 74.0242C152.788 74.2314 153.037 74.3351 153.371 74.3351C153.685 74.3351 153.955 74.2331 154.179 74.0292C154.402 73.8219 154.514 73.5846 154.514 73.3172C154.514 72.9194 154.409 72.5834 154.199 72.3093C153.991 72.0352 153.726 71.8981 153.401 71.8981Z" fill="#B1B1B1"/>
<path d="M161.911 74.4053C161.911 75.6856 161.7 76.6333 161.279 77.2484C160.861 77.8635 160.216 78.171 159.343 78.171C158.498 78.171 157.859 77.8535 157.428 77.2183C157 76.5832 156.786 75.6455 156.786 74.4053C156.786 73.1116 156.995 72.1589 157.413 71.5471C157.831 70.932 158.474 70.6245 159.343 70.6245C160.189 70.6245 160.828 70.9454 161.259 71.5872C161.693 72.2291 161.911 73.1684 161.911 74.4053ZM158.325 74.4053C158.325 75.3045 158.402 75.9497 158.556 76.3408C158.713 76.7286 158.976 76.9225 159.343 76.9225C159.704 76.9225 159.965 76.7252 160.126 76.3308C160.286 75.9363 160.366 75.2945 160.366 74.4053C160.366 73.506 160.284 72.8609 160.121 72.4697C159.96 72.0753 159.701 71.878 159.343 71.878C158.979 71.878 158.718 72.0753 158.561 72.4697C158.404 72.8609 158.325 73.506 158.325 74.4053Z" fill="#B1B1B1"/>
<path d="M167.777 74.4053C167.777 75.6856 167.567 76.6333 167.146 77.2484C166.728 77.8635 166.083 78.171 165.21 78.171C164.364 78.171 163.726 77.8535 163.295 77.2183C162.867 76.5832 162.653 75.6455 162.653 74.4053C162.653 73.1116 162.862 72.1589 163.28 71.5471C163.697 70.932 164.341 70.6245 165.21 70.6245C166.056 70.6245 166.694 70.9454 167.126 71.5872C167.56 72.2291 167.777 73.1684 167.777 74.4053ZM164.192 74.4053C164.192 75.3045 164.269 75.9497 164.423 76.3408C164.58 76.7286 164.842 76.9225 165.21 76.9225C165.571 76.9225 165.832 76.7252 165.992 76.3308C166.153 75.9363 166.233 75.2945 166.233 74.4053C166.233 73.506 166.151 72.8609 165.987 72.4697C165.827 72.0753 165.568 71.878 165.21 71.878C164.846 71.878 164.585 72.0753 164.428 72.4697C164.271 72.8609 164.192 73.506 164.192 74.4053Z" fill="#B1B1B1"/>
<path d="M168.735 77.3537C168.735 77.0729 168.81 76.8606 168.961 76.7169C169.111 76.5731 169.33 76.5013 169.618 76.5013C169.895 76.5013 170.109 76.5748 170.259 76.7219C170.413 76.869 170.49 77.0796 170.49 77.3537C170.49 77.6178 170.413 77.8267 170.259 77.9805C170.106 78.1309 169.892 78.2061 169.618 78.2061C169.337 78.2061 169.12 78.1326 168.966 77.9855C168.812 77.8351 168.735 77.6245 168.735 77.3537Z" fill="#B1B1B1"/>
<path d="M176.573 74.4053C176.573 75.6856 176.362 76.6333 175.941 77.2484C175.523 77.8635 174.878 78.171 174.005 78.171C173.159 78.171 172.521 77.8535 172.09 77.2183C171.662 76.5832 171.448 75.6455 171.448 74.4053C171.448 73.1116 171.657 72.1589 172.075 71.5471C172.493 70.932 173.136 70.6245 174.005 70.6245C174.851 70.6245 175.489 70.9454 175.921 71.5872C176.355 72.2291 176.573 73.1684 176.573 74.4053ZM172.987 74.4053C172.987 75.3045 173.064 75.9497 173.218 76.3408C173.375 76.7286 173.637 76.9225 174.005 76.9225C174.366 76.9225 174.627 76.7252 174.787 76.3308C174.948 75.9363 175.028 75.2945 175.028 74.4053C175.028 73.506 174.946 72.8609 174.782 72.4697C174.622 72.0753 174.363 71.878 174.005 71.878C173.641 71.878 173.38 72.0753 173.223 72.4697C173.066 72.8609 172.987 73.506 172.987 74.4053Z" fill="#B1B1B1"/>
<path d="M182.439 74.4053C182.439 75.6856 182.229 76.6333 181.808 77.2484C181.39 77.8635 180.744 78.171 179.872 78.171C179.026 78.171 178.388 77.8535 177.956 77.2183C177.529 76.5832 177.315 75.6455 177.315 74.4053C177.315 73.1116 177.524 72.1589 177.941 71.5471C178.359 70.932 179.003 70.6245 179.872 70.6245C180.718 70.6245 181.356 70.9454 181.787 71.5872C182.222 72.2291 182.439 73.1684 182.439 74.4053ZM178.854 74.4053C178.854 75.3045 178.931 75.9497 179.085 76.3408C179.242 76.7286 179.504 76.9225 179.872 76.9225C180.233 76.9225 180.494 76.7252 180.654 76.3308C180.815 75.9363 180.895 75.2945 180.895 74.4053C180.895 73.506 180.813 72.8609 180.649 72.4697C180.489 72.0753 180.23 71.878 179.872 71.878C179.508 71.878 179.247 72.0753 179.09 72.4697C178.933 72.8609 178.854 73.506 178.854 74.4053Z" fill="#B1B1B1"/>
<path d="M188.306 74.4053C188.306 75.6856 188.095 76.6333 187.674 77.2484C187.256 77.8635 186.611 78.171 185.739 78.171C184.893 78.171 184.254 77.8535 183.823 77.2183C183.395 76.5832 183.181 75.6455 183.181 74.4053C183.181 73.1116 183.39 72.1589 183.808 71.5471C184.226 70.932 184.87 70.6245 185.739 70.6245C186.584 70.6245 187.223 70.9454 187.654 71.5872C188.089 72.2291 188.306 73.1684 188.306 74.4053ZM184.721 74.4053C184.721 75.3045 184.798 75.9497 184.951 76.3408C185.109 76.7286 185.371 76.9225 185.739 76.9225C186.1 76.9225 186.361 76.7252 186.521 76.3308C186.681 75.9363 186.762 75.2945 186.762 74.4053C186.762 73.506 186.68 72.8609 186.516 72.4697C186.355 72.0753 186.096 71.878 185.739 71.878C185.374 71.878 185.114 72.0753 184.957 72.4697C184.799 72.8609 184.721 73.506 184.721 74.4053Z" fill="#B1B1B1"/>
<rect x="317.784" y="61.3937" width="47.9156" height="14.2906" rx="4" fill="#4573FF"/>
<g filter="url(#filter3_d)">
<rect x="84.9313" y="16" width="358.106" height="21.8563" fill="white"/>
</g>
<rect x="292.713" y="23.543" width="28.5844" height="7.9401" rx="3.97005" fill="#ECECEC"/>
<rect x="257.776" y="23.543" width="28.5844" height="7.9401" rx="3.97005" fill="#ECECEC"/>
<rect x="98.9743" y="21.9551" width="50.8166" height="11.1161" rx="4" fill="#ECECEC"/>
<rect x="16" y="61.2586" width="65.9028" height="13.1012" fill="#78A5ED"/>
<rect x="16" y="16" width="68.9313" height="269" fill="#4573FF"/>
<mask id="mask1" mask-type="alpha" maskUnits="userSpaceOnUse" x="22" y="22" width="11" height="10">
<rect x="22.3521" y="22.3521" width="9.75479" height="9.52812" fill="white"/>
</mask>
<g mask="url(#mask1)">
<path d="M28.0589 29.4017L28.9555 30.9164L29.3887 30.6543L29.5408 30.1527L28.5782 28.5245L28.0589 29.4017Z" fill="#D24D57"/>
<path d="M25.1567 23.4031L24.7336 23.7618L25.8697 25.6801L26.3876 24.8043L25.3504 23.0514L25.1567 23.4031Z" fill="#D24D57"/>
<path d="M26.1322 28.0915L24.8698 30.2256L25.0276 30.793L25.4149 31.0607L27.2354 27.9822L27.7547 27.1037L29.7687 23.6932L29.4345 23.2392L29.3212 23.0809L28.8306 23.5251L26.1322 28.0915Z" fill="#D24D57"/>
<path d="M25.1165 22.6534L24.5972 23.5334H24.5986L23.0063 26.2321L23.0048 26.2307L22.487 27.1092L25.1165 31.565L25.6358 30.6879L23.5241 27.1106L25.6358 23.5334H27.1463L27.6656 22.6534H25.1165Z" fill="white"/>
<path d="M28.825 23.5348L30.9352 27.1107L28.825 30.6865H27.3144L26.7965 31.5651H29.3443L29.8636 30.6865L31.4545 27.9892L31.9738 27.1121L31.4559 26.2279L29.8621 23.5334L29.3457 22.6535L28.825 23.5348Z" fill="white"/>
</g>
<path fill-rule="evenodd" clip-rule="evenodd" d="M36.4324 25.5128L35.4704 26.8832L34.5049 25.5128H33.7366L35.0779 27.3524L33.6677 29.2794H34.4328L35.4702 27.8279L36.4977 29.2794H37.2627L35.8527 27.3524L37.194 25.5128H36.4324Z" fill="white"/>
<path fill-rule="evenodd" clip-rule="evenodd" d="M39.3457 26.0066C39.6265 26.0066 39.8447 26.095 39.9942 26.2693C40.1387 26.4376 40.2154 26.6822 40.2224 26.9966H38.3608C38.3972 26.6937 38.4977 26.4526 38.6599 26.2791C38.8289 26.0983 39.0596 26.0066 39.3457 26.0066ZM39.3524 25.4457C38.8367 25.4457 38.4197 25.6273 38.1131 25.9853C37.8085 26.341 37.6541 26.8257 37.6541 27.4262C37.6541 28.0234 37.8207 28.4977 38.1494 28.8357C38.4786 29.1746 38.9331 29.3464 39.4999 29.3464C39.7559 29.3464 39.9778 29.3274 40.1598 29.2901C40.3417 29.2527 40.5368 29.1903 40.7401 29.1046L40.7696 29.0922V28.4929L40.7016 28.5213C40.314 28.6833 39.9166 28.7653 39.5205 28.7653C39.1524 28.7653 38.8638 28.6578 38.663 28.4457C38.4687 28.2405 38.3612 27.9374 38.3433 27.5442H40.9307V27.1448C40.9307 26.6394 40.7881 26.2259 40.507 25.9158C40.2242 25.6038 39.8358 25.4457 39.3524 25.4457Z" fill="white"/>
<path fill-rule="evenodd" clip-rule="evenodd" d="M43.6291 25.4457C43.3645 25.4457 43.1209 25.4975 42.9048 25.5995C42.7136 25.6899 42.5579 25.8145 42.4408 25.9707L42.3564 25.5127H41.8039V29.2793H42.4707V27.3056C42.4707 26.8415 42.5591 26.506 42.7332 26.3083C42.9056 26.1126 43.184 26.0133 43.5605 26.0133C43.8422 26.0133 44.0505 26.0826 44.1798 26.219C44.3099 26.3568 44.3759 26.5713 44.3759 26.8568V29.2793H45.0428V26.8367C45.0428 26.3564 44.9223 26.0005 44.6848 25.7788C44.4478 25.5578 44.0926 25.4457 43.6291 25.4457Z" fill="white"/>
<path fill-rule="evenodd" clip-rule="evenodd" d="M47.5829 28.7855C47.2558 28.7855 47.0153 28.6748 46.8474 28.4468C46.6784 28.2173 46.5926 27.8695 46.5926 27.4129C46.5926 26.9625 46.6791 26.6103 46.8498 26.3661C47.0189 26.1242 47.2564 26.0067 47.5761 26.0067C47.9471 26.0067 48.2197 26.1126 48.3863 26.3217C48.5559 26.5343 48.6418 26.8991 48.6418 27.4061V27.5234C48.6418 27.9699 48.5573 28.296 48.3907 28.493C48.2263 28.6871 47.9546 28.7855 47.5829 28.7855ZM48.6421 25.5161L48.656 25.7756L48.6711 25.9424C48.3931 25.6127 48.0033 25.4458 47.5111 25.4458C47.0086 25.4458 46.6104 25.6208 46.3276 25.9661C46.0474 26.3082 45.9054 26.7927 45.9054 27.4061C45.9054 28.0197 46.047 28.501 46.3261 28.8364C46.6078 29.1748 47.0064 29.3464 47.5111 29.3464C48.0202 29.3464 48.4149 29.1718 48.6858 28.8271L48.7552 29.2794H49.3089V23.9719H48.642L48.6421 25.5161Z" fill="white"/>
<path fill-rule="evenodd" clip-rule="evenodd" d="M50.7552 24.1494C50.6468 24.1494 50.5547 24.1836 50.4816 24.2512C50.4078 24.3195 50.3704 24.4252 50.3704 24.5655C50.3704 24.7032 50.4076 24.8088 50.4809 24.8792C50.5541 24.9494 50.6464 24.985 50.7552 24.985C50.8591 24.985 50.95 24.9496 51.0254 24.8798C51.1015 24.8093 51.1401 24.7036 51.1401 24.5655C51.1401 24.4272 51.1014 24.322 51.0252 24.2526C50.9498 24.1841 50.8589 24.1494 50.7552 24.1494Z" fill="white"/>
<path fill-rule="evenodd" clip-rule="evenodd" d="M50.4184 29.2794H51.0853V25.5128H50.4184V29.2794Z" fill="white"/>
<path fill-rule="evenodd" clip-rule="evenodd" d="M53.9584 28.727C53.9057 28.7421 53.8328 28.7568 53.7416 28.771C53.6507 28.785 53.5552 28.7922 53.4577 28.7922C53.2832 28.7922 53.1504 28.7393 53.0518 28.6306C52.953 28.5219 52.9028 28.3612 52.9028 28.1532V26.0402H53.9934V25.5128H52.9028V24.662H52.4886L52.2446 25.4587L51.6976 25.6935V26.0402H52.236V28.1766C52.236 28.9528 52.6194 29.3464 53.3754 29.3464C53.4729 29.3464 53.5846 29.3366 53.7072 29.3172C53.8331 29.2974 53.9266 29.2725 53.9932 29.2412L54.0208 29.2282V28.7092L53.9584 28.727Z" fill="white"/>
<rect x="22.3521" y="39.0263" width="17.0712" height="6.35208" rx="3.17604" fill="#7D9DFF"/>
<rect x="35.4532" y="59.2735" width="32.1574" height="6.35208" rx="3.17604" fill="#7D9DFF"/>
<rect x="35.4532" y="75.1537" width="32.1574" height="6.35208" rx="3.17604" fill="#7D9DFF"/>
<rect x="35.4532" y="91.034" width="32.1574" height="6.35208" rx="3.17604" fill="#B5C7FF"/>
<rect x="35.4534" y="154.555" width="32.1574" height="6.35208" rx="3.17604" fill="#7D9DFF"/>
<rect x="35.4534" y="113.512" width="32.1574" height="6.35208" rx="3.17604" fill="#7D9DFF"/>
<rect x="35.4534" y="170.435" width="32.1574" height="6.35208" rx="3.17604" fill="#7D9DFF"/>
<rect x="35.4534" y="129.393" width="32.1574" height="6.35208" rx="3.17604" fill="#7D9DFF"/>
<rect x="35.4534" y="190.85" width="32.1574" height="6.35208" rx="3.17604" fill="#7D9DFF"/>
<rect x="72.7717" y="39.0263" width="6.35208" height="6.35208" rx="3.17604" fill="#7D9DFF"/>
<rect x="22.3521" y="59.2735" width="6.35208" height="6.35208" rx="3.17604" fill="#7D9DFF"/>
<rect x="22.3521" y="75.1537" width="6.35208" height="6.35208" rx="3.17604" fill="#7D9DFF"/>
<rect x="22.3521" y="91.034" width="6.35208" height="6.35208" rx="3.17604" fill="#B5C7FF"/>
<rect x="22.3519" y="154.555" width="6.35208" height="6.35208" rx="3.17604" fill="#7D9DFF"/>
<rect x="22.3519" y="113.512" width="6.35208" height="6.35208" rx="3.17604" fill="#7D9DFF"/>
<rect x="22.3519" y="170.435" width="6.35208" height="6.35208" rx="3.17604" fill="#7D9DFF"/>
<rect x="22.3519" y="129.393" width="6.35208" height="6.35208" rx="3.17604" fill="#7D9DFF"/>
<rect x="22.3519" y="190.85" width="6.35208" height="6.35208" rx="3.17604" fill="#7D9DFF"/>
</g>
</g>
<defs>
<filter id="filter0_d" x="-28" y="-24" width="515.038" height="357" filterUnits="userSpaceOnUse" color-interpolation-filters="sRGB">
<feFlood flood-opacity="0" result="BackgroundImageFix"/>
<feColorMatrix in="SourceAlpha" type="matrix" values="0 0 0 0 0 0 0 0 0 0 0 0 0 0 0 0 0 0 127 0"/>
<feOffset dy="4"/>
<feGaussianBlur stdDeviation="22"/>
<feColorMatrix type="matrix" values="0 0 0 0 0 0 0 0 0 0 0 0 0 0 0 0 0 0 0.15 0"/>
<feBlend mode="normal" in2="BackgroundImageFix" result="effect1_dropShadow"/>
<feBlend mode="normal" in="SourceGraphic" in2="effect1_dropShadow" result="shape"/>
</filter>
<filter id="filter1_d" x="94.3811" y="104.787" width="342.569" height="176.966" filterUnits="userSpaceOnUse" color-interpolation-filters="sRGB">
<feFlood flood-opacity="0" result="BackgroundImageFix"/>
<feColorMatrix in="SourceAlpha" type="matrix" values="0 0 0 0 0 0 0 0 0 0 0 0 0 0 0 0 0 0 127 0"/>
<feOffset dy="2"/>
<feGaussianBlur stdDeviation="2"/>
<feColorMatrix type="matrix" values="0 0 0 0 0 0 0 0 0 0 0 0 0 0 0 0 0 0 0.08 0"/>
<feBlend mode="normal" in2="BackgroundImageFix" result="effect1_dropShadow"/>
<feBlend mode="normal" in="SourceGraphic" in2="effect1_dropShadow" result="shape"/>
</filter>
<filter id="filter2_d" x="96.7937" y="50.5125" width="337.744" height="51.9312" filterUnits="userSpaceOnUse" color-interpolation-filters="sRGB">
<feFlood flood-opacity="0" result="BackgroundImageFix"/>
<feColorMatrix in="SourceAlpha" type="matrix" values="0 0 0 0 0 0 0 0 0 0 0 0 0 0 0 0 0 0 127 0"/>
<feOffset dy="0.79375"/>
<feGaussianBlur stdDeviation="0.79375"/>
<feColorMatrix type="matrix" values="0 0 0 0 0 0 0 0 0 0 0 0 0 0 0 0 0 0 0.08 0"/>
<feBlend mode="normal" in2="BackgroundImageFix" result="effect1_dropShadow"/>
<feBlend mode="normal" in="SourceGraphic" in2="effect1_dropShadow" result="shape"/>
</filter>
<filter id="filter3_d" x="80.9313" y="14" width="366.106" height="29.8563" filterUnits="userSpaceOnUse" color-interpolation-filters="sRGB">
<feFlood flood-opacity="0" result="BackgroundImageFix"/>
<feColorMatrix in="SourceAlpha" type="matrix" values="0 0 0 0 0 0 0 0 0 0 0 0 0 0 0 0 0 0 127 0"/>
<feOffset dy="2"/>
<feGaussianBlur stdDeviation="2"/>
<feColorMatrix type="matrix" values="0 0 0 0 0 0 0 0 0 0 0 0 0 0 0 0 0 0 0.08 0"/>
<feBlend mode="normal" in2="BackgroundImageFix" result="effect1_dropShadow"/>
<feBlend mode="normal" in="SourceGraphic" in2="effect1_dropShadow" result="shape"/>
</filter>
</defs>
</svg>
