<svg width="320" height="218" viewBox="0 0 320 218" fill="none" xmlns="http://www.w3.org/2000/svg">
<mask id="mask0" mask-type="alpha" maskUnits="userSpaceOnUse" x="0" y="0" width="320" height="218">
<rect width="320" height="218" fill="white"/>
</mask>
<g mask="url(#mask0)">
<path d="M0 0H320V218H0V0Z" fill="#D8CDF7"/>
<g filter="url(#filter0_d)">
<rect x="16" y="16" width="427.038" height="269" fill="#F7F7F7"/>
<g filter="url(#filter1_d)">
<rect x="98.3811" y="95.0187" width="334.462" height="179.894" rx="4" fill="white"/>
</g>
<rect x="105.106" y="128.939" width="17.8595" height="5.95507" rx="2.97754" fill="#CFCFCF"/>
<rect x="159.746" y="128.939" width="17.0658" height="5.95507" rx="2.97754" fill="#CFCFCF"/>
<rect x="219.825" y="128.939" width="18.6533" height="5.95507" rx="2.97754" fill="#CFCFCF"/>
<rect x="271.419" y="128.939" width="17.8595" height="5.95507" rx="2.97754" fill="#CFCFCF"/>
<rect x="313.581" y="128.939" width="21.0346" height="5.95507" rx="2.97754" fill="#CFCFCF"/>
<rect x="105.106" y="146.804" width="30.1628" height="5.95507" rx="2.97754" fill="#BFF3E6"/>
<rect x="159.746" y="146.804" width="26.5909" height="5.95507" rx="2.97754" fill="#ECECEC"/>
<rect x="219.825" y="146.804" width="32.5441" height="5.95507" rx="2.97754" fill="#ECECEC"/>
<rect x="271.419" y="146.804" width="23.4158" height="5.95507" rx="2.97754" fill="#ECECEC"/>
<rect x="313.581" y="147.137" width="33.7347" height="5.95507" rx="2.97754" fill="#ECECEC"/>
<rect x="105.106" y="177.771" width="30.1628" height="5.95507" rx="2.97754" fill="#FFEFC2"/>
<rect x="159.746" y="177.771" width="26.5909" height="5.95507" rx="2.97754" fill="#ECECEC"/>
<rect x="219.825" y="177.771" width="32.5441" height="5.95507" rx="2.97754" fill="#ECECEC"/>
<rect x="271.419" y="177.771" width="23.4158" height="5.95507" rx="2.97754" fill="#ECECEC"/>
<rect x="313.581" y="177.4" width="33.7347" height="5.95507" rx="2.97754" fill="#ECECEC"/>
<rect x="105.106" y="208.737" width="30.1628" height="5.95507" rx="2.97754" fill="#F9D1D5"/>
<rect x="159.746" y="208.737" width="26.5909" height="5.95507" rx="2.97754" fill="#ECECEC"/>
<rect x="219.825" y="208.737" width="32.5441" height="5.95507" rx="2.97754" fill="#ECECEC"/>
<rect x="271.419" y="208.737" width="23.4158" height="5.95507" rx="2.97754" fill="#ECECEC"/>
<rect x="313.581" y="208.503" width="33.7347" height="5.95507" rx="2.97754" fill="#ECECEC"/>
<rect x="105.106" y="162.287" width="30.1628" height="5.95507" rx="2.97754" fill="#FFEFC2"/>
<rect x="159.746" y="162.287" width="26.5909" height="5.95507" rx="2.97754" fill="#ECECEC"/>
<rect x="219.825" y="162.287" width="32.5441" height="5.95507" rx="2.97754" fill="#ECECEC"/>
<rect x="271.419" y="162.287" width="23.4158" height="5.95507" rx="2.97754" fill="#ECECEC"/>
<rect x="313.581" y="162.269" width="33.7347" height="5.95507" rx="2.97754" fill="#ECECEC"/>
<rect x="105.106" y="193.254" width="30.1628" height="5.95507" rx="2.97754" fill="#BFF3E6"/>
<rect x="159.746" y="193.254" width="26.5909" height="5.95507" rx="2.97754" fill="#ECECEC"/>
<rect x="219.825" y="193.254" width="32.5441" height="5.95507" rx="2.97754" fill="#ECECEC"/>
<rect x="271.419" y="193.254" width="23.4158" height="5.95507" rx="2.97754" fill="#ECECEC"/>
<rect x="313.581" y="193.372" width="33.7347" height="5.95507" rx="2.97754" fill="#ECECEC"/>
<rect x="98.4802" y="122.289" width="334.37" height="0.198502" rx="0.0992512" fill="white" stroke="#DFDFDF" stroke-width="0.198502"/>
<rect x="150.475" y="102.84" width="39.0847" height="12.4982" rx="3.5" fill="white" stroke="#CFCFCF"/>
<rect x="200.085" y="102.84" width="39.0847" height="12.4982" rx="3.5" fill="white" stroke="#CFCFCF"/>
<rect x="203.951" y="105.913" width="24.6065" height="5.95507" rx="2.97754" fill="#ECECEC"/>
<rect x="154.341" y="105.913" width="24.6065" height="5.95507" rx="2.97754" fill="#ECECEC"/>
<path d="M193.311 116.282V115.11H196.322V116.282H193.311Z" fill="#CFCFCF"/>
<rect x="105.231" y="102.84" width="37.8941" height="12.4982" rx="3.5" fill="white" stroke="#CFCFCF"/>
<rect x="109.097" y="106.707" width="24.6065" height="5.95507" rx="2.97754" fill="#ECECEC"/>
<path d="M137.157 109.005L138.069 109.917L138.981 109.005L139.26 109.284L138.069 110.475L136.878 109.284L137.157 109.005Z" fill="#CFCFCF"/>
<rect x="246.52" y="102.84" width="70.0413" height="12.4982" rx="3.5" fill="white" stroke="#CFCFCF"/>
<path fill-rule="evenodd" clip-rule="evenodd" d="M253.402 109.403H253.624L255.027 110.809L254.608 111.228L253.203 109.825V109.603L253.127 109.524C252.806 109.799 252.39 109.965 251.938 109.965C250.928 109.965 250.11 109.147 250.11 108.138C250.11 107.128 250.928 106.31 251.938 106.31C252.947 106.31 253.765 107.128 253.765 108.138C253.765 108.59 253.599 109.006 253.324 109.327L253.402 109.403ZM250.673 108.138C250.673 108.838 251.238 109.403 251.938 109.403C252.638 109.403 253.204 108.838 253.204 108.138C253.204 107.437 252.638 106.872 251.938 106.872C251.238 106.872 250.673 107.437 250.673 108.138Z" fill="#B1B1B1"/>
<path d="M233.518 108.49H233.118V108.89H233.518V108.49ZM234.309 108.49H233.918V108.89H234.309V108.49ZM235.109 108.49H234.709V108.89H235.109V108.49ZM235.5 107.104H235.304V106.703H234.904V107.104H233.323V106.703H232.923V107.104H232.728C232.61 107.104 232.514 107.144 232.439 107.225C232.365 107.299 232.328 107.392 232.328 107.504V110.277C232.328 110.388 232.365 110.484 232.439 110.565C232.52 110.639 232.616 110.677 232.728 110.677H235.5C235.611 110.677 235.704 110.639 235.779 110.565C235.859 110.484 235.9 110.388 235.9 110.277V107.504C235.9 107.392 235.859 107.299 235.779 107.225C235.704 107.144 235.611 107.104 235.5 107.104ZM235.5 110.277H232.728V108.099H235.5V110.277Z" fill="#CFCFCF"/>
<path d="M183.908 108.49H183.508V108.89H183.908V108.49ZM184.699 108.49H184.308V108.89H184.699V108.49ZM185.499 108.49H185.099V108.89H185.499V108.49ZM185.89 107.104H185.694V106.703H185.294V107.104H183.713V106.703H183.313V107.104H183.118C183 107.104 182.904 107.144 182.829 107.225C182.755 107.299 182.718 107.392 182.718 107.504V110.277C182.718 110.388 182.755 110.484 182.829 110.565C182.91 110.639 183.006 110.677 183.118 110.677H185.89C186.001 110.677 186.094 110.639 186.169 110.565C186.249 110.484 186.29 110.388 186.29 110.277V107.504C186.29 107.392 186.249 107.299 186.169 107.225C186.094 107.144 186.001 107.104 185.89 107.104ZM185.89 110.277H183.118V108.099H185.89V110.277Z" fill="#CFCFCF"/>
<rect x="104.83" y="141.345" width="321.67" height="0.198502" rx="0.0992512" fill="white" stroke="#DFDFDF" stroke-width="0.198502"/>
<g filter="url(#filter2_d)">
<rect x="98.3813" y="51.3062" width="163.922" height="36.9875" rx="4" fill="white"/>
</g>
<g filter="url(#filter3_d)">
<rect x="269.028" y="51.3062" width="163.922" height="36.9875" rx="4" fill="white"/>
</g>
<path d="M109.776 66.3262H112.445V69.8918H114.592L111.11 73.374L107.628 69.8918H109.776V66.3262Z" fill="#00BA8A"/>
<path d="M308.734 147.978H310.022V149.679H311.059L309.378 151.341L307.697 149.679H308.734V147.978Z" fill="#00BA8A"/>
<path d="M308.734 194.212H310.022V195.914H311.059L309.378 197.575L307.697 195.914H308.734V194.212Z" fill="#00BA8A"/>
<path d="M308.734 210.184H310.022V211.885H311.059L309.378 213.547L307.697 211.885H308.734V210.184Z" fill="#00BA8A"/>
<path d="M198.476 74.5807C198.476 73.0898 199.083 72.3444 200.298 72.3444C200.489 72.3444 200.651 72.3591 200.783 72.3887V72.8995C200.651 72.8613 200.498 72.8422 200.324 72.8422C199.916 72.8422 199.609 72.9517 199.404 73.1706C199.199 73.3896 199.088 73.7406 199.07 74.2236H199.101C199.183 74.0829 199.298 73.9743 199.445 73.8978C199.593 73.8196 199.767 73.7805 199.967 73.7805C200.313 73.7805 200.582 73.8865 200.775 74.0985C200.968 74.3105 201.064 74.5981 201.064 74.9612C201.064 75.3609 200.952 75.6771 200.728 75.91C200.505 76.1411 200.201 76.2566 199.816 76.2566C199.543 76.2566 199.306 76.1915 199.104 76.0611C198.902 75.9291 198.747 75.738 198.637 75.4877C198.53 75.2358 198.476 74.9334 198.476 74.5807ZM199.805 75.751C200.015 75.751 200.177 75.6832 200.29 75.5477C200.405 75.4121 200.462 75.2184 200.462 74.9664C200.462 74.7475 200.408 74.5755 200.3 74.4504C200.194 74.3253 200.035 74.2627 199.821 74.2627C199.689 74.2627 199.567 74.2914 199.456 74.3487C199.345 74.4043 199.257 74.4817 199.193 74.5807C199.128 74.678 199.096 74.7779 199.096 74.8804C199.096 75.1254 199.162 75.3322 199.294 75.5008C199.428 75.6676 199.598 75.751 199.805 75.751Z" fill="#7A7A7A"/>
<path d="M202.803 72.3444C203.164 72.3444 203.45 72.4278 203.66 72.5946C203.87 72.7597 203.975 72.9812 203.975 73.2592C203.975 73.6502 203.741 73.9612 203.272 74.1923C203.571 74.3418 203.783 74.499 203.908 74.6641C204.035 74.8292 204.098 75.0134 204.098 75.2167C204.098 75.5312 203.982 75.7831 203.751 75.9725C203.52 76.1619 203.207 76.2566 202.813 76.2566C202.399 76.2566 202.079 76.168 201.851 75.9908C201.624 75.8135 201.51 75.5625 201.51 75.2375C201.51 75.0255 201.569 74.8353 201.687 74.6667C201.807 74.4964 202.002 74.3452 202.273 74.2132C202.041 74.0742 201.875 73.9274 201.776 73.7727C201.677 73.6181 201.627 73.4443 201.627 73.2514C201.627 72.9751 201.736 72.7553 201.953 72.592C202.17 72.4269 202.453 72.3444 202.803 72.3444ZM202.096 75.2167C202.096 75.3974 202.16 75.5381 202.286 75.6389C202.413 75.738 202.585 75.7875 202.803 75.7875C203.027 75.7875 203.2 75.7362 203.324 75.6337C203.449 75.5294 203.512 75.3887 203.512 75.2115C203.512 75.0707 203.454 74.9421 203.339 74.8257C203.225 74.7093 203.051 74.6015 202.818 74.5025L202.743 74.4686C202.513 74.5694 202.348 74.6806 202.247 74.8022C202.147 74.9221 202.096 75.0603 202.096 75.2167ZM202.797 72.8161C202.624 72.8161 202.484 72.8596 202.378 72.9465C202.272 73.0316 202.219 73.148 202.219 73.2957C202.219 73.3861 202.238 73.4669 202.276 73.5381C202.314 73.6094 202.37 73.6745 202.443 73.7336C202.516 73.7909 202.639 73.8605 202.813 73.9421C203.022 73.85 203.168 73.7536 203.253 73.6528C203.34 73.5503 203.384 73.4313 203.384 73.2957C203.384 73.148 203.33 73.0316 203.222 72.9465C203.116 72.8596 202.975 72.8161 202.797 72.8161Z" fill="#7A7A7A"/>
<path d="M207.142 74.0203C207.142 74.771 206.991 75.3313 206.689 75.7015C206.386 76.0716 205.931 76.2566 205.323 76.2566C205.092 76.2566 204.926 76.2427 204.825 76.2149V75.7015C204.98 75.7449 205.135 75.7666 205.292 75.7666C205.705 75.7666 206.014 75.6554 206.217 75.433C206.42 75.2106 206.531 74.8613 206.551 74.3852H206.519C206.417 74.5416 206.293 74.6545 206.147 74.7241C206.002 74.7936 205.833 74.8283 205.638 74.8283C205.301 74.8283 205.036 74.7232 204.843 74.5129C204.651 74.3027 204.554 74.0142 204.554 73.6476C204.554 73.2497 204.665 72.9334 204.888 72.6989C205.112 72.4625 205.417 72.3444 205.803 72.3444C206.074 72.3444 206.31 72.4104 206.512 72.5425C206.713 72.6745 206.869 72.8665 206.978 73.1185C207.088 73.3687 207.142 73.6693 207.142 74.0203ZM205.813 72.8526C205.601 72.8526 205.439 72.9221 205.326 73.0611C205.213 73.1984 205.156 73.3922 205.156 73.6424C205.156 73.8596 205.208 74.0307 205.313 74.1558C205.419 74.2792 205.578 74.3409 205.792 74.3409C205.999 74.3409 206.173 74.2792 206.313 74.1558C206.454 74.0325 206.525 73.8883 206.525 73.7232C206.525 73.5685 206.494 73.4243 206.433 73.2905C206.374 73.155 206.291 73.0481 206.183 72.9699C206.075 72.8917 205.952 72.8526 205.813 72.8526Z" fill="#7A7A7A"/>
<path d="M210.197 74.2992C210.197 74.9612 210.09 75.453 209.876 75.7744C209.664 76.0959 209.339 76.2566 208.902 76.2566C208.478 76.2566 208.156 76.0907 207.937 75.7588C207.718 75.4269 207.609 74.9404 207.609 74.2992C207.609 73.6267 207.715 73.1315 207.927 72.8135C208.141 72.4938 208.465 72.334 208.902 72.334C209.327 72.334 209.65 72.5008 209.869 72.8344C210.088 73.168 210.197 73.6563 210.197 74.2992ZM208.229 74.2992C208.229 74.8188 208.282 75.1897 208.388 75.4121C208.496 75.6346 208.667 75.7458 208.902 75.7458C209.136 75.7458 209.307 75.6328 209.415 75.4069C209.525 75.181 209.579 74.8118 209.579 74.2992C209.579 73.7883 209.525 73.4191 209.415 73.1915C209.307 72.9621 209.136 72.8474 208.902 72.8474C208.667 72.8474 208.496 72.9595 208.388 73.1837C208.282 73.4078 208.229 73.7797 208.229 74.2992Z" fill="#7A7A7A"/>
<path d="M119.139 76.8848V72.1216H120.149V76.8848H119.139Z" fill="#777777"/>
<path d="M125.3 74.4576C125.3 75.2417 125.076 75.8422 124.629 76.2593C124.184 76.6763 123.54 76.8848 122.697 76.8848H121.348V72.1216H122.843C123.621 72.1216 124.225 72.3268 124.655 72.7373C125.085 73.1478 125.3 73.7213 125.3 74.4576ZM124.251 74.4836C124.251 73.4606 123.799 72.9491 122.896 72.9491H122.358V76.0508H122.791C123.764 76.0508 124.251 75.5284 124.251 74.4836Z" fill="#777777"/>
<path d="M127.297 74.236H127.623C127.942 74.236 128.178 74.1828 128.33 74.0764C128.482 73.97 128.558 73.8027 128.558 73.5747C128.558 73.3488 128.48 73.188 128.323 73.0925C128.169 72.9969 127.929 72.9491 127.603 72.9491H127.297V74.236ZM127.297 75.0571V76.8848H126.287V72.1216H127.675C128.322 72.1216 128.801 72.2399 129.112 72.4767C129.422 72.7113 129.578 73.0686 129.578 73.5486C129.578 73.8288 129.501 74.0786 129.346 74.2979C129.192 74.5151 128.974 74.6856 128.692 74.8094C129.408 75.8803 129.875 76.572 130.093 76.8848H128.972L127.835 75.0571H127.297Z" fill="#777777"/>
<path d="M134.299 76.8848L136.087 72.9752H133.738V72.1281H137.156V72.7601L135.354 76.8848H134.299Z" fill="#777777"/>
<path d="M139.28 72.0597C139.736 72.0597 140.103 72.1639 140.381 72.3724C140.662 72.5788 140.802 72.8579 140.802 73.2098C140.802 73.453 140.734 73.6702 140.6 73.8614C140.465 74.0503 140.248 74.2197 139.948 74.3696C140.304 74.5608 140.56 74.7606 140.714 74.9691C140.87 75.1754 140.948 75.4024 140.948 75.65C140.948 76.041 140.795 76.3559 140.489 76.5949C140.183 76.8316 139.78 76.95 139.28 76.95C138.759 76.95 138.35 76.8392 138.052 76.6177C137.754 76.3961 137.606 76.0823 137.606 75.6761C137.606 75.4046 137.677 75.1635 137.821 74.9528C137.966 74.7421 138.199 74.5564 138.518 74.3957C138.246 74.2241 138.051 74.0405 137.931 73.8451C137.812 73.6496 137.752 73.4356 137.752 73.2032C137.752 72.8622 137.893 72.5864 138.176 72.3757C138.458 72.165 138.826 72.0597 139.28 72.0597ZM138.537 75.6174C138.537 75.8042 138.603 75.9498 138.733 76.054C138.863 76.1583 139.041 76.2104 139.267 76.2104C139.517 76.2104 139.704 76.1572 139.828 76.0508C139.951 75.9422 140.013 75.7999 140.013 75.624C140.013 75.4784 139.951 75.3427 139.828 75.2167C139.706 75.0886 139.507 74.9528 139.231 74.8094C138.769 75.0223 138.537 75.2916 138.537 75.6174ZM139.274 72.796C139.102 72.796 138.963 72.8405 138.857 72.9296C138.752 73.0164 138.7 73.1337 138.7 73.2814C138.7 73.4117 138.742 73.529 138.824 73.6333C138.909 73.7354 139.061 73.8407 139.28 73.9493C139.493 73.8494 139.642 73.7473 139.727 73.6431C139.811 73.5388 139.854 73.4183 139.854 73.2814C139.854 73.1316 139.799 73.0132 139.691 72.9263C139.582 72.8394 139.443 72.796 139.274 72.796Z" fill="#777777"/>
<path d="M144.754 74.5032C144.754 75.3351 144.617 75.9508 144.343 76.3505C144.072 76.7502 143.653 76.95 143.086 76.95C142.536 76.95 142.121 76.7436 141.841 76.331C141.563 75.9183 141.424 75.309 141.424 74.5032C141.424 73.6626 141.56 73.0436 141.831 72.6461C142.103 72.2465 142.521 72.0466 143.086 72.0466C143.635 72.0466 144.05 72.2551 144.33 72.6722C144.613 73.0892 144.754 73.6995 144.754 74.5032ZM142.424 74.5032C142.424 75.0875 142.474 75.5067 142.574 75.7608C142.676 76.0127 142.847 76.1387 143.086 76.1387C143.32 76.1387 143.49 76.0106 143.594 75.7543C143.698 75.498 143.75 75.081 143.75 74.5032C143.75 73.9189 143.697 73.4997 143.591 73.2456C143.486 72.9893 143.318 72.8611 143.086 72.8611C142.849 72.8611 142.679 72.9893 142.577 73.2456C142.475 73.4997 142.424 73.9189 142.424 74.5032Z" fill="#777777"/>
<path d="M145.376 76.4189C145.376 76.2365 145.425 76.0985 145.523 76.0051C145.62 75.9117 145.763 75.8651 145.949 75.8651C146.13 75.8651 146.269 75.9128 146.366 76.0084C146.466 76.104 146.516 76.2408 146.516 76.4189C146.516 76.5905 146.466 76.7263 146.366 76.8262C146.267 76.9239 146.128 76.9728 145.949 76.9728C145.767 76.9728 145.626 76.925 145.526 76.8294C145.426 76.7317 145.376 76.5949 145.376 76.4189Z" fill="#777777"/>
<path d="M150.468 74.5032C150.468 75.3351 150.331 75.9508 150.058 76.3505C149.786 76.7502 149.367 76.95 148.8 76.95C148.251 76.95 147.836 76.7436 147.556 76.331C147.278 75.9183 147.139 75.309 147.139 74.5032C147.139 73.6626 147.274 73.0436 147.546 72.6461C147.817 72.2465 148.235 72.0466 148.8 72.0466C149.35 72.0466 149.765 72.2551 150.045 72.6722C150.327 73.0892 150.468 73.6995 150.468 74.5032ZM148.139 74.5032C148.139 75.0875 148.189 75.5067 148.289 75.7608C148.391 76.0127 148.561 76.1387 148.8 76.1387C149.035 76.1387 149.204 76.0106 149.308 75.7543C149.413 75.498 149.465 75.081 149.465 74.5032C149.465 73.9189 149.412 73.4997 149.305 73.2456C149.201 72.9893 149.033 72.8611 148.8 72.8611C148.563 72.8611 148.394 72.9893 148.292 73.2456C148.19 73.4997 148.139 73.9189 148.139 74.5032Z" fill="#777777"/>
<path d="M154.28 74.5032C154.28 75.3351 154.143 75.9508 153.87 76.3505C153.598 76.7502 153.179 76.95 152.612 76.95C152.063 76.95 151.648 76.7436 151.368 76.331C151.09 75.9183 150.951 75.309 150.951 74.5032C150.951 73.6626 151.086 73.0436 151.358 72.6461C151.629 72.2465 152.047 72.0466 152.612 72.0466C153.162 72.0466 153.576 72.2551 153.857 72.6722C154.139 73.0892 154.28 73.6995 154.28 74.5032ZM151.951 74.5032C151.951 75.0875 152.001 75.5067 152.101 75.7608C152.203 76.0127 152.373 76.1387 152.612 76.1387C152.847 76.1387 153.016 76.0106 153.12 75.7543C153.225 75.498 153.277 75.081 153.277 74.5032C153.277 73.9189 153.224 73.4997 153.117 73.2456C153.013 72.9893 152.845 72.8611 152.612 72.8611C152.375 72.8611 152.206 72.9893 152.104 73.2456C152.002 73.4997 151.951 73.9189 151.951 74.5032Z" fill="#777777"/>
<path d="M158.092 74.5032C158.092 75.3351 157.955 75.9508 157.682 76.3505C157.41 76.7502 156.991 76.95 156.424 76.95C155.875 76.95 155.46 76.7436 155.179 76.331C154.901 75.9183 154.762 75.309 154.762 74.5032C154.762 73.6626 154.898 73.0436 155.17 72.6461C155.441 72.2465 155.859 72.0466 156.424 72.0466C156.974 72.0466 157.388 72.2551 157.669 72.6722C157.951 73.0892 158.092 73.6995 158.092 74.5032ZM155.763 74.5032C155.763 75.0875 155.813 75.5067 155.913 75.7608C156.015 76.0127 156.185 76.1387 156.424 76.1387C156.659 76.1387 156.828 76.0106 156.932 75.7543C157.037 75.498 157.089 75.081 157.089 74.5032C157.089 73.9189 157.035 73.4997 156.929 73.2456C156.825 72.9893 156.656 72.8611 156.424 72.8611C156.187 72.8611 156.018 72.9893 155.916 73.2456C155.814 73.4997 155.763 73.9189 155.763 74.5032Z" fill="#777777"/>
<path d="M158.714 76.4189C158.714 76.2365 158.763 76.0985 158.861 76.0051C158.959 75.9117 159.101 75.8651 159.288 75.8651C159.468 75.8651 159.607 75.9128 159.705 76.0084C159.805 76.104 159.855 76.2408 159.855 76.4189C159.855 76.5905 159.805 76.7263 159.705 76.8262C159.605 76.9239 159.466 76.9728 159.288 76.9728C159.105 76.9728 158.964 76.925 158.864 76.8294C158.764 76.7317 158.714 76.5949 158.714 76.4189Z" fill="#777777"/>
<path d="M163.807 74.5032C163.807 75.3351 163.67 75.9508 163.396 76.3505C163.125 76.7502 162.706 76.95 162.139 76.95C161.589 76.95 161.174 76.7436 160.894 76.331C160.616 75.9183 160.477 75.309 160.477 74.5032C160.477 73.6626 160.613 73.0436 160.884 72.6461C161.156 72.2465 161.574 72.0466 162.139 72.0466C162.688 72.0466 163.103 72.2551 163.383 72.6722C163.666 73.0892 163.807 73.6995 163.807 74.5032ZM161.477 74.5032C161.477 75.0875 161.527 75.5067 161.627 75.7608C161.729 76.0127 161.9 76.1387 162.139 76.1387C162.373 76.1387 162.543 76.0106 162.647 75.7543C162.751 75.498 162.803 75.081 162.803 74.5032C162.803 73.9189 162.75 73.4997 162.644 73.2456C162.539 72.9893 162.371 72.8611 162.139 72.8611C161.902 72.8611 161.732 72.9893 161.63 73.2456C161.528 73.4997 161.477 73.9189 161.477 74.5032Z" fill="#777777"/>
<path d="M167.619 74.5032C167.619 75.3351 167.482 75.9508 167.208 76.3505C166.937 76.7502 166.517 76.95 165.951 76.95C165.401 76.95 164.986 76.7436 164.706 76.331C164.428 75.9183 164.289 75.309 164.289 74.5032C164.289 73.6626 164.425 73.0436 164.696 72.6461C164.968 72.2465 165.386 72.0466 165.951 72.0466C166.5 72.0466 166.915 72.2551 167.195 72.6722C167.477 73.0892 167.619 73.6995 167.619 74.5032ZM165.289 74.5032C165.289 75.0875 165.339 75.5067 165.439 75.7608C165.541 76.0127 165.712 76.1387 165.951 76.1387C166.185 76.1387 166.355 76.0106 166.459 75.7543C166.563 75.498 166.615 75.081 166.615 74.5032C166.615 73.9189 166.562 73.4997 166.456 73.2456C166.351 72.9893 166.183 72.8611 165.951 72.8611C165.714 72.8611 165.544 72.9893 165.442 73.2456C165.34 73.4997 165.289 73.9189 165.289 74.5032Z" fill="#777777"/>
<path d="M171.431 74.5032C171.431 75.3351 171.294 75.9508 171.02 76.3505C170.749 76.7502 170.329 76.95 169.762 76.95C169.213 76.95 168.798 76.7436 168.518 76.331C168.24 75.9183 168.101 75.309 168.101 74.5032C168.101 73.6626 168.237 73.0436 168.508 72.6461C168.78 72.2465 169.198 72.0466 169.762 72.0466C170.312 72.0466 170.727 72.2551 171.007 72.6722C171.289 73.0892 171.431 73.6995 171.431 74.5032ZM169.101 74.5032C169.101 75.0875 169.151 75.5067 169.251 75.7608C169.353 76.0127 169.524 76.1387 169.762 76.1387C169.997 76.1387 170.166 76.0106 170.271 75.7543C170.375 75.498 170.427 75.081 170.427 74.5032C170.427 73.9189 170.374 73.4997 170.267 73.2456C170.163 72.9893 169.995 72.8611 169.762 72.8611C169.526 72.8611 169.356 72.9893 169.254 73.2456C169.152 73.4997 169.101 73.9189 169.101 74.5032Z" fill="#777777"/>
<path d="M120.131 66.6897H119.586V63.823H118.605V63.3554H121.112V63.823H120.131V66.6897Z" fill="#777777"/>
<path d="M123.805 65.424C123.805 65.836 123.7 66.1576 123.488 66.3887C123.277 66.6198 122.983 66.7353 122.606 66.7353C122.37 66.7353 122.162 66.6821 121.981 66.5757C121.8 66.4692 121.661 66.3164 121.563 66.1173C121.466 65.9181 121.417 65.687 121.417 65.424C121.417 65.015 121.522 64.6957 121.732 64.4661C121.942 64.2365 122.238 64.1217 122.619 64.1217C122.984 64.1217 123.273 64.2396 123.486 64.4752C123.699 64.7094 123.805 65.0256 123.805 65.424ZM121.969 65.424C121.969 66.0063 122.185 66.2974 122.615 66.2974C123.041 66.2974 123.253 66.0063 123.253 65.424C123.253 64.8477 123.039 64.5596 122.61 64.5596C122.385 64.5596 122.222 64.6341 122.12 64.7831C122.02 64.9321 121.969 65.1457 121.969 65.424Z" fill="#777777"/>
<path d="M125.363 66.302C125.494 66.302 125.624 66.2815 125.755 66.2404V66.6441C125.696 66.6699 125.619 66.6912 125.525 66.708C125.432 66.7262 125.336 66.7353 125.235 66.7353C124.727 66.7353 124.474 66.4677 124.474 65.9325V64.5733H124.129V64.3361L124.499 64.14L124.681 63.6063H125.012V64.1673H125.73V64.5733H125.012V65.9234C125.012 66.0527 125.044 66.1484 125.108 66.2108C125.173 66.2716 125.258 66.302 125.363 66.302Z" fill="#777777"/>
<path d="M127.84 66.6897L127.733 66.3385H127.714C127.593 66.4921 127.47 66.597 127.347 66.6532C127.224 66.708 127.066 66.7353 126.873 66.7353C126.625 66.7353 126.431 66.6684 126.291 66.5346C126.153 66.4008 126.084 66.2115 126.084 65.9667C126.084 65.7068 126.18 65.5106 126.373 65.3783C126.566 65.2461 126.861 65.1739 127.256 65.1617L127.691 65.148V65.0134C127.691 64.8523 127.653 64.7322 127.577 64.6531C127.503 64.5725 127.387 64.5322 127.229 64.5322C127.099 64.5322 126.975 64.5512 126.857 64.5893C126.738 64.6273 126.624 64.6721 126.515 64.7238L126.341 64.3407C126.478 64.2692 126.628 64.2152 126.791 64.1787C126.953 64.1407 127.107 64.1217 127.251 64.1217C127.572 64.1217 127.814 64.1917 127.977 64.3315C128.141 64.4714 128.223 64.6911 128.223 64.9906V66.6897H127.84ZM127.042 66.3248C127.236 66.3248 127.392 66.2708 127.509 66.1629C127.628 66.0534 127.687 65.9006 127.687 65.7045V65.4855L127.363 65.4992C127.111 65.5083 126.927 65.5509 126.811 65.6269C126.697 65.7014 126.64 65.8162 126.64 65.9713C126.64 66.0838 126.674 66.1712 126.74 66.2336C126.807 66.2944 126.908 66.3248 127.042 66.3248Z" fill="#777777"/>
<path d="M129.507 66.6897H128.971V63.1411H129.507V66.6897Z" fill="#777777"/>
<path d="M131.546 66.6897V63.3554H132.091V66.6897H131.546Z" fill="#777777"/>
<path d="M135.135 66.6897H134.597V65.1389C134.597 64.9443 134.558 64.7991 134.479 64.7033C134.401 64.6075 134.277 64.5596 134.107 64.5596C133.88 64.5596 133.715 64.6265 133.61 64.7603C133.505 64.8941 133.452 65.1184 133.452 65.4331V66.6897H132.916V64.1673H133.336L133.411 64.498H133.439C133.515 64.3779 133.623 64.2852 133.763 64.2198C133.902 64.1544 134.057 64.1217 134.228 64.1217C134.833 64.1217 135.135 64.4296 135.135 65.0454V66.6897Z" fill="#777777"/>
<path d="M136.898 66.7353C136.517 66.7353 136.226 66.6243 136.027 66.4023C135.83 66.1788 135.731 65.8588 135.731 65.4422C135.731 65.018 135.834 64.6919 136.041 64.4638C136.249 64.2358 136.549 64.1217 136.942 64.1217C137.208 64.1217 137.447 64.1711 137.66 64.27L137.498 64.701C137.272 64.6128 137.085 64.5687 136.937 64.5687C136.501 64.5687 136.283 64.8584 136.283 65.4376C136.283 65.7204 136.337 65.9333 136.445 66.0762C136.554 66.2176 136.714 66.2883 136.923 66.2883C137.162 66.2883 137.388 66.229 137.601 66.1104V66.578C137.505 66.6342 137.402 66.6745 137.293 66.6988C137.185 66.7232 137.053 66.7353 136.898 66.7353Z" fill="#777777"/>
<path d="M140.431 65.424C140.431 65.836 140.325 66.1576 140.114 66.3887C139.903 66.6198 139.609 66.7353 139.231 66.7353C138.996 66.7353 138.787 66.6821 138.607 66.5757C138.426 66.4692 138.287 66.3164 138.189 66.1173C138.092 65.9181 138.043 65.687 138.043 65.424C138.043 65.015 138.148 64.6957 138.358 64.4661C138.568 64.2365 138.864 64.1217 139.245 64.1217C139.61 64.1217 139.899 64.2396 140.112 64.4752C140.325 64.7094 140.431 65.0256 140.431 65.424ZM138.595 65.424C138.595 66.0063 138.81 66.2974 139.241 66.2974C139.666 66.2974 139.879 66.0063 139.879 65.424C139.879 64.8477 139.665 64.5596 139.236 64.5596C139.011 64.5596 138.848 64.6341 138.746 64.7831C138.645 64.9321 138.595 65.1457 138.595 65.424Z" fill="#777777"/>
<path d="M143.175 66.6897H142.636V65.1343C142.636 64.9412 142.6 64.7975 142.527 64.7033C142.454 64.6075 142.34 64.5596 142.185 64.5596C141.978 64.5596 141.826 64.6273 141.729 64.7626C141.633 64.8964 141.585 65.1199 141.585 65.4331V66.6897H141.049V64.1673H141.469L141.544 64.498H141.571C141.641 64.3779 141.742 64.2852 141.875 64.2198C142.008 64.1544 142.155 64.1217 142.315 64.1217C142.703 64.1217 142.96 64.254 143.086 64.5186H143.122C143.197 64.3939 143.302 64.2966 143.437 64.2266C143.572 64.1567 143.727 64.1217 143.902 64.1217C144.203 64.1217 144.422 64.1977 144.559 64.3498C144.697 64.5018 144.767 64.7337 144.767 65.0454V66.6897H144.231V65.1343C144.231 64.9412 144.193 64.7975 144.119 64.7033C144.046 64.6075 143.932 64.5596 143.777 64.5596C143.568 64.5596 143.416 64.625 143.318 64.7557C143.223 64.885 143.175 65.0841 143.175 65.3533V66.6897Z" fill="#777777"/>
<path d="M146.051 66.6897H145.515V64.1673H146.051V66.6897ZM145.483 63.4991C145.483 63.4033 145.508 63.3296 145.56 63.2779C145.613 63.2262 145.689 63.2003 145.786 63.2003C145.88 63.2003 145.953 63.2262 146.005 63.2779C146.058 63.3296 146.085 63.4033 146.085 63.4991C146.085 63.5903 146.058 63.6626 146.005 63.7158C145.953 63.7675 145.88 63.7933 145.786 63.7933C145.689 63.7933 145.613 63.7675 145.56 63.7158C145.508 63.6626 145.483 63.5903 145.483 63.4991Z" fill="#777777"/>
<path d="M149.038 66.6897H148.5V65.1389C148.5 64.9443 148.46 64.7991 148.381 64.7033C148.304 64.6075 148.18 64.5596 148.01 64.5596C147.783 64.5596 147.617 64.6265 147.512 64.7603C147.407 64.8941 147.355 65.1184 147.355 65.4331V66.6897H146.819V64.1673H147.239L147.314 64.498H147.341C147.417 64.3779 147.525 64.2852 147.665 64.2198C147.805 64.1544 147.96 64.1217 148.13 64.1217C148.736 64.1217 149.038 64.4296 149.038 65.0454V66.6897Z" fill="#777777"/>
<path d="M151.914 64.1673V64.4615L151.483 64.5414C151.523 64.5946 151.555 64.6599 151.581 64.7375C151.607 64.815 151.62 64.8971 151.62 64.9838C151.62 65.2438 151.53 65.4483 151.351 65.5973C151.171 65.7463 150.924 65.8208 150.609 65.8208C150.529 65.8208 150.456 65.8147 150.391 65.8025C150.275 65.874 150.217 65.9576 150.217 66.0534C150.217 66.1112 150.244 66.1545 150.297 66.1834C150.352 66.2123 150.451 66.2267 150.596 66.2267H151.036C151.314 66.2267 151.526 66.286 151.67 66.4046C151.814 66.5232 151.887 66.6943 151.887 66.9178C151.887 67.2036 151.769 67.4241 151.533 67.5792C151.297 67.7342 150.957 67.8118 150.511 67.8118C150.168 67.8118 149.906 67.751 149.725 67.6293C149.544 67.5077 149.453 67.3344 149.453 67.1093C149.453 66.9543 149.502 66.8235 149.599 66.7171C149.698 66.6122 149.836 66.5392 150.012 66.4981C149.941 66.4677 149.881 66.4191 149.834 66.3522C149.788 66.2838 149.766 66.2123 149.766 66.1378C149.766 66.0435 149.792 65.9637 149.845 65.8983C149.899 65.833 149.978 65.7683 150.083 65.7045C149.952 65.6482 149.845 65.557 149.763 65.4308C149.683 65.3031 149.643 65.1541 149.643 64.9838C149.643 64.7101 149.728 64.498 149.9 64.3475C150.074 64.197 150.32 64.1217 150.639 64.1217C150.711 64.1217 150.785 64.127 150.863 64.1377C150.942 64.1468 151.001 64.1567 151.041 64.1673H151.914ZM149.932 67.082C149.932 67.1975 149.984 67.2865 150.087 67.3488C150.192 67.4111 150.339 67.4423 150.527 67.4423C150.819 67.4423 151.037 67.4005 151.18 67.3169C151.323 67.2333 151.394 67.1223 151.394 66.9839C151.394 66.8744 151.354 66.7961 151.275 66.749C151.198 66.7034 151.053 66.6806 150.84 66.6806H150.434C150.28 66.6806 150.158 66.7163 150.067 66.7878C149.977 66.8608 149.932 66.9588 149.932 67.082ZM150.162 64.9838C150.162 65.1419 150.203 65.2636 150.283 65.3487C150.365 65.4338 150.483 65.4764 150.635 65.4764C150.945 65.4764 151.1 65.3107 151.1 64.9792C151.1 64.815 151.061 64.6888 150.984 64.6007C150.908 64.5109 150.791 64.4661 150.635 64.4661C150.48 64.4661 150.362 64.5102 150.281 64.5984C150.202 64.6866 150.162 64.815 150.162 64.9838Z" fill="#777777"/>
<path d="M155.723 66.6897L155.39 65.7638H154.115L153.789 66.6897H153.214L154.461 63.3417H155.054L156.302 66.6897H155.723ZM155.246 65.294L154.934 64.3863C154.911 64.3255 154.879 64.2297 154.838 64.0989C154.798 63.9682 154.771 63.8724 154.756 63.8116C154.715 63.9986 154.655 64.2031 154.576 64.425L154.274 65.294H155.246Z" fill="#777777"/>
<path d="M158.811 66.6897H158.272V65.1343C158.272 64.9412 158.236 64.7975 158.163 64.7033C158.09 64.6075 157.976 64.5596 157.821 64.5596C157.614 64.5596 157.462 64.6273 157.365 64.7626C157.269 64.8964 157.221 65.1199 157.221 65.4331V66.6897H156.685V64.1673H157.105L157.18 64.498H157.207C157.277 64.3779 157.378 64.2852 157.511 64.2198C157.644 64.1544 157.791 64.1217 157.951 64.1217C158.339 64.1217 158.595 64.254 158.722 64.5186H158.758C158.833 64.3939 158.938 64.2966 159.073 64.2266C159.208 64.1567 159.363 64.1217 159.538 64.1217C159.839 64.1217 160.058 64.1977 160.195 64.3498C160.333 64.5018 160.403 64.7337 160.403 65.0454V66.6897H159.867V65.1343C159.867 64.9412 159.829 64.7975 159.755 64.7033C159.682 64.6075 159.568 64.5596 159.413 64.5596C159.204 64.5596 159.052 64.625 158.954 64.7557C158.859 64.885 158.811 65.0841 158.811 65.3533V66.6897Z" fill="#777777"/>
<path d="M163.388 65.424C163.388 65.836 163.282 66.1576 163.071 66.3887C162.86 66.6198 162.565 66.7353 162.188 66.7353C161.953 66.7353 161.744 66.6821 161.563 66.5757C161.382 66.4692 161.243 66.3164 161.146 66.1173C161.049 65.9181 161 65.687 161 65.424C161 65.015 161.105 64.6957 161.315 64.4661C161.525 64.2365 161.82 64.1217 162.202 64.1217C162.567 64.1217 162.856 64.2396 163.069 64.4752C163.281 64.7094 163.388 65.0256 163.388 65.424ZM161.552 65.424C161.552 66.0063 161.767 66.2974 162.197 66.2974C162.623 66.2974 162.836 66.0063 162.836 65.424C162.836 64.8477 162.622 64.5596 162.193 64.5596C161.968 64.5596 161.804 64.6341 161.702 64.7831C161.602 64.9321 161.552 65.1457 161.552 65.424Z" fill="#777777"/>
<path d="M165.785 66.6897L165.71 66.359H165.682C165.608 66.4761 165.501 66.5681 165.363 66.635C165.226 66.7019 165.069 66.7353 164.893 66.7353C164.587 66.7353 164.359 66.6593 164.209 66.5073C164.058 66.3552 163.983 66.1249 163.983 65.8162V64.1673H164.524V65.7227C164.524 65.9158 164.563 66.061 164.642 66.1583C164.721 66.2541 164.845 66.302 165.014 66.302C165.239 66.302 165.404 66.2351 165.509 66.1013C165.615 65.966 165.668 65.7402 165.668 65.424V64.1673H166.207V66.6897H165.785Z" fill="#777777"/>
<path d="M169.19 66.6897H168.652V65.1389C168.652 64.9443 168.612 64.7991 168.533 64.7033C168.455 64.6075 168.331 64.5596 168.161 64.5596C167.935 64.5596 167.769 64.6265 167.664 64.7603C167.559 64.8941 167.507 65.1184 167.507 65.4331V66.6897H166.971V64.1673H167.39L167.466 64.498H167.493C167.569 64.3779 167.677 64.2852 167.817 64.2198C167.957 64.1544 168.112 64.1217 168.282 64.1217C168.887 64.1217 169.19 64.4296 169.19 65.0454V66.6897Z" fill="#777777"/>
<path d="M170.875 66.302C171.006 66.302 171.137 66.2815 171.267 66.2404V66.6441C171.208 66.6699 171.131 66.6912 171.037 66.708C170.944 66.7262 170.848 66.7353 170.747 66.7353C170.24 66.7353 169.986 66.4677 169.986 65.9325V64.5733H169.641V64.3361L170.011 64.14L170.193 63.6063H170.524V64.1673H171.242V64.5733H170.524V65.9234C170.524 66.0527 170.556 66.1484 170.62 66.2108C170.685 66.2716 170.77 66.302 170.875 66.302Z" fill="#777777"/>
<path d="M199.209 66.6897H198.664V63.823H197.683V63.3554H200.189V63.823H199.209V66.6897Z" fill="#777777"/>
<path d="M201.925 64.1217C202.033 64.1217 202.122 64.1293 202.192 64.1445L202.139 64.644C202.063 64.6257 201.984 64.6166 201.902 64.6166C201.688 64.6166 201.514 64.6866 201.38 64.8264C201.247 64.9663 201.181 65.148 201.181 65.3715V66.6897H200.645V64.1673H201.065L201.136 64.6121H201.163C201.247 64.4615 201.355 64.3422 201.489 64.254C201.625 64.1658 201.77 64.1217 201.925 64.1217Z" fill="#777777"/>
<path d="M204.24 66.6897L204.132 66.3385H204.114C203.993 66.4921 203.87 66.597 203.747 66.6532C203.624 66.708 203.466 66.7353 203.273 66.7353C203.025 66.7353 202.831 66.6684 202.691 66.5346C202.553 66.4008 202.484 66.2115 202.484 65.9667C202.484 65.7068 202.58 65.5106 202.773 65.3783C202.966 65.2461 203.261 65.1739 203.656 65.1617L204.091 65.148V65.0134C204.091 64.8523 204.053 64.7322 203.977 64.6531C203.903 64.5725 203.787 64.5322 203.628 64.5322C203.499 64.5322 203.375 64.5512 203.257 64.5892C203.138 64.6273 203.024 64.6721 202.915 64.7238L202.741 64.3407C202.878 64.2692 203.028 64.2152 203.191 64.1787C203.353 64.1407 203.507 64.1217 203.651 64.1217C203.972 64.1217 204.214 64.1917 204.376 64.3315C204.541 64.4714 204.623 64.6911 204.623 64.9906V66.6897H204.24ZM203.441 66.3248C203.636 66.3248 203.792 66.2708 203.909 66.1629C204.028 66.0534 204.087 65.9006 204.087 65.7045V65.4855L203.763 65.4992C203.511 65.5083 203.327 65.5509 203.211 65.6269C203.097 65.7014 203.04 65.8162 203.04 65.9713C203.04 66.0838 203.074 66.1712 203.14 66.2336C203.207 66.2944 203.308 66.3248 203.441 66.3248Z" fill="#777777"/>
<path d="M207.59 66.6897H207.052V65.1389C207.052 64.9443 207.012 64.7991 206.933 64.7033C206.856 64.6075 206.732 64.5596 206.561 64.5596C206.335 64.5596 206.169 64.6265 206.064 64.7603C205.959 64.8941 205.907 65.1184 205.907 65.4331V66.6897H205.371V64.1673H205.79L205.866 64.498H205.893C205.969 64.3779 206.077 64.2852 206.217 64.2198C206.357 64.1544 206.512 64.1217 206.682 64.1217C207.287 64.1217 207.59 64.4296 207.59 65.0454V66.6897Z" fill="#777777"/>
<path d="M210.03 65.9713C210.03 66.2176 209.94 66.4069 209.761 66.5392C209.582 66.6699 209.325 66.7353 208.99 66.7353C208.654 66.7353 208.384 66.6844 208.181 66.5825V66.1196C208.477 66.2564 208.753 66.3248 209.008 66.3248C209.338 66.3248 209.503 66.2252 209.503 66.026C209.503 65.9622 209.485 65.909 209.449 65.8664C209.412 65.8238 209.352 65.7797 209.268 65.7341C209.185 65.6885 209.069 65.6368 208.92 65.579C208.629 65.4665 208.432 65.354 208.329 65.2415C208.227 65.129 208.176 64.983 208.176 64.8036C208.176 64.5877 208.263 64.4205 208.436 64.3019C208.611 64.1818 208.848 64.1217 209.148 64.1217C209.444 64.1217 209.725 64.1818 209.989 64.3019L209.816 64.7056C209.544 64.5931 209.315 64.5368 209.129 64.5368C208.847 64.5368 208.705 64.6174 208.705 64.7785C208.705 64.8576 208.742 64.9245 208.815 64.9792C208.889 65.034 209.05 65.1092 209.298 65.205C209.506 65.2856 209.658 65.3593 209.752 65.4262C209.846 65.4931 209.916 65.5707 209.962 65.6589C210.007 65.7455 210.03 65.8497 210.03 65.9713Z" fill="#777777"/>
<path d="M212.19 66.6897L212.083 66.3385H212.064C211.943 66.4921 211.82 66.597 211.697 66.6532C211.574 66.708 211.416 66.7353 211.223 66.7353C210.975 66.7353 210.781 66.6684 210.641 66.5346C210.503 66.4008 210.434 66.2115 210.434 65.9667C210.434 65.7068 210.53 65.5106 210.723 65.3783C210.917 65.2461 211.211 65.1739 211.606 65.1617L212.042 65.148V65.0134C212.042 64.8523 212.004 64.7322 211.928 64.6531C211.853 64.5725 211.737 64.5322 211.579 64.5322C211.449 64.5322 211.326 64.5512 211.207 64.5892C211.088 64.6273 210.974 64.6721 210.865 64.7238L210.692 64.3407C210.828 64.2692 210.978 64.2152 211.141 64.1787C211.304 64.1407 211.457 64.1217 211.602 64.1217C211.922 64.1217 212.164 64.1917 212.327 64.3315C212.491 64.4714 212.573 64.6911 212.573 64.9906V66.6897H212.19ZM211.392 66.3248C211.586 66.3248 211.742 66.2708 211.859 66.1629C211.978 66.0534 212.037 65.9006 212.037 65.7045V65.4855L211.713 65.4992C211.461 65.5083 211.277 65.5509 211.161 65.6269C211.047 65.7014 210.99 65.8162 210.99 65.9713C210.99 66.0838 211.024 66.1712 211.091 66.2336C211.158 66.2944 211.258 66.3248 211.392 66.3248Z" fill="#777777"/>
<path d="M214.338 66.7353C213.957 66.7353 213.666 66.6243 213.467 66.4023C213.269 66.1788 213.171 65.8588 213.171 65.4422C213.171 65.018 213.274 64.6919 213.481 64.4638C213.689 64.2358 213.989 64.1217 214.382 64.1217C214.648 64.1217 214.887 64.1711 215.1 64.27L214.938 64.701C214.712 64.6128 214.525 64.5687 214.377 64.5687C213.941 64.5687 213.723 64.8584 213.723 65.4376C213.723 65.7204 213.776 65.9333 213.884 66.0762C213.994 66.2176 214.154 66.2883 214.363 66.2883C214.602 66.2883 214.828 66.229 215.041 66.1104V66.578C214.945 66.6342 214.842 66.6745 214.733 66.6988C214.625 66.7232 214.493 66.7353 214.338 66.7353Z" fill="#777777"/>
<path d="M216.573 66.302C216.704 66.302 216.835 66.2815 216.966 66.2404V66.6441C216.906 66.6699 216.829 66.6912 216.735 66.708C216.642 66.7262 216.546 66.7353 216.446 66.7353C215.938 66.7353 215.684 66.4677 215.684 65.9325V64.5733H215.339V64.3361L215.709 64.14L215.891 63.6063H216.222V64.1673H216.94V64.5733H216.222V65.9234C216.222 66.0527 216.254 66.1484 216.318 66.2108C216.383 66.2716 216.468 66.302 216.573 66.302Z" fill="#777777"/>
<path d="M218.008 66.6897H217.472V64.1673H218.008V66.6897ZM217.44 63.4991C217.44 63.4033 217.466 63.3296 217.517 63.2779C217.571 63.2262 217.646 63.2003 217.743 63.2003C217.838 63.2003 217.91 63.2262 217.962 63.2779C218.015 63.3296 218.042 63.4033 218.042 63.4991C218.042 63.5903 218.015 63.6626 217.962 63.7158C217.91 63.7675 217.838 63.7933 217.743 63.7933C217.646 63.7933 217.571 63.7675 217.517 63.7158C217.466 63.6626 217.44 63.5903 217.44 63.4991Z" fill="#777777"/>
<path d="M221.014 65.424C221.014 65.836 220.908 66.1576 220.697 66.3887C220.485 66.6198 220.191 66.7353 219.814 66.7353C219.578 66.7353 219.37 66.6821 219.189 66.5757C219.008 66.4692 218.869 66.3164 218.772 66.1173C218.675 65.9181 218.626 65.687 218.626 65.424C218.626 65.015 218.731 64.6957 218.941 64.4661C219.15 64.2365 219.446 64.1217 219.828 64.1217C220.193 64.1217 220.482 64.2396 220.694 64.4752C220.907 64.7094 221.014 65.0256 221.014 65.424ZM219.178 65.424C219.178 66.0063 219.393 66.2974 219.823 66.2974C220.249 66.2974 220.462 66.0063 220.462 65.424C220.462 64.8477 220.247 64.5596 219.819 64.5596C219.594 64.5596 219.43 64.6341 219.328 64.7831C219.228 64.9321 219.178 65.1457 219.178 65.424Z" fill="#777777"/>
<path d="M223.851 66.6897H223.313V65.1389C223.313 64.9443 223.273 64.7991 223.194 64.7033C223.116 64.6075 222.992 64.5596 222.822 64.5596C222.596 64.5596 222.43 64.6265 222.325 64.7603C222.22 64.8941 222.168 65.1184 222.168 65.4331V66.6897H221.632V64.1673H222.051L222.127 64.498H222.154C222.23 64.3779 222.338 64.2852 222.478 64.2198C222.618 64.1544 222.773 64.1217 222.943 64.1217C223.548 64.1217 223.851 64.4296 223.851 65.0454V66.6897Z" fill="#777777"/>
<path d="M226.291 65.9713C226.291 66.2176 226.201 66.4069 226.022 66.5392C225.843 66.6699 225.586 66.7353 225.251 66.7353C224.915 66.7353 224.645 66.6844 224.441 66.5825V66.1196C224.738 66.2564 225.014 66.3248 225.269 66.3248C225.599 66.3248 225.764 66.2252 225.764 66.026C225.764 65.9622 225.746 65.909 225.709 65.8664C225.673 65.8238 225.613 65.7797 225.529 65.7341C225.446 65.6885 225.329 65.6368 225.18 65.579C224.89 65.4665 224.693 65.354 224.59 65.2415C224.488 65.129 224.437 64.983 224.437 64.8036C224.437 64.5877 224.524 64.4205 224.697 64.3019C224.872 64.1818 225.109 64.1217 225.408 64.1217C225.705 64.1217 225.985 64.1818 226.25 64.3019L226.077 64.7056C225.805 64.5931 225.576 64.5368 225.39 64.5368C225.107 64.5368 224.966 64.6174 224.966 64.7785C224.966 64.8576 225.002 64.9245 225.075 64.9792C225.15 65.034 225.311 65.1092 225.559 65.205C225.767 65.2856 225.919 65.3593 226.013 65.4262C226.107 65.4931 226.177 65.5707 226.223 65.6589C226.268 65.7455 226.291 65.8497 226.291 65.9713Z" fill="#777777"/>
<path d="M230.921 66.6897H230.252L228.613 64.0328H228.594L228.606 64.181C228.627 64.4638 228.638 64.7223 228.638 64.9564V66.6897H228.143V63.3554H228.804L230.439 65.9987H230.453C230.45 65.9637 230.444 65.8368 230.435 65.6178C230.426 65.3974 230.421 65.2255 230.421 65.1024V63.3554H230.921V66.6897Z" fill="#777777"/>
<path d="M233.523 66.6897L233.448 66.359H233.42C233.346 66.4761 233.239 66.5681 233.101 66.635C232.964 66.7019 232.808 66.7353 232.631 66.7353C232.326 66.7353 232.098 66.6593 231.947 66.5073C231.796 66.3552 231.721 66.1249 231.721 65.8162V64.1673H232.262V65.7227C232.262 65.9158 232.301 66.061 232.38 66.1583C232.459 66.2541 232.583 66.302 232.752 66.302C232.977 66.302 233.142 66.2351 233.247 66.1013C233.353 65.966 233.407 65.7402 233.407 65.424V64.1673H233.945V66.6897H233.523Z" fill="#777777"/>
<path d="M236.834 66.6897H236.296V65.1343C236.296 64.9412 236.26 64.7975 236.187 64.7033C236.114 64.6075 236 64.5596 235.845 64.5596C235.638 64.5596 235.486 64.6273 235.388 64.7626C235.293 64.8964 235.245 65.1199 235.245 65.4331V66.6897H234.709V64.1673H235.128L235.204 64.498H235.231C235.301 64.3779 235.402 64.2852 235.534 64.2198C235.668 64.1544 235.815 64.1217 235.975 64.1217C236.362 64.1217 236.619 64.254 236.745 64.5186H236.782C236.856 64.3939 236.961 64.2966 237.097 64.2266C237.232 64.1567 237.387 64.1217 237.562 64.1217C237.863 64.1217 238.082 64.1977 238.219 64.3498C238.357 64.5018 238.426 64.7337 238.426 65.0454V66.6897H237.89V65.1343C237.89 64.9412 237.853 64.7975 237.779 64.7033C237.706 64.6075 237.592 64.5596 237.436 64.5596C237.228 64.5596 237.075 64.625 236.978 64.7557C236.882 64.885 236.834 65.0841 236.834 65.3533V66.6897Z" fill="#777777"/>
<path d="M240.463 64.1217C240.778 64.1217 241.022 64.2358 241.197 64.4638C241.374 64.6919 241.462 65.0119 241.462 65.424C241.462 65.8375 241.373 66.1598 241.195 66.3909C241.017 66.6205 240.77 66.7353 240.454 66.7353C240.134 66.7353 239.887 66.6205 239.71 66.3909H239.674L239.576 66.6897H239.174V63.1411H239.71V63.9849C239.71 64.0472 239.707 64.14 239.701 64.2631C239.695 64.3863 239.69 64.4646 239.687 64.498H239.71C239.881 64.2472 240.131 64.1217 240.463 64.1217ZM240.324 64.5596C240.108 64.5596 239.952 64.6235 239.856 64.7512C239.762 64.8774 239.713 65.0895 239.71 65.3875V65.424C239.71 65.7311 239.759 65.9538 239.856 66.0922C239.954 66.229 240.112 66.2974 240.333 66.2974C240.523 66.2974 240.667 66.2222 240.764 66.0717C240.863 65.9211 240.912 65.7037 240.912 65.4194C240.912 64.8462 240.716 64.5596 240.324 64.5596Z" fill="#777777"/>
<path d="M243.186 66.7353C242.794 66.7353 242.487 66.6213 242.265 66.3932C242.044 66.1636 241.934 65.8482 241.934 65.4468C241.934 65.0347 242.036 64.7109 242.242 64.4752C242.447 64.2396 242.729 64.1217 243.088 64.1217C243.421 64.1217 243.684 64.2228 243.877 64.425C244.07 64.6273 244.167 64.9055 244.167 65.2598V65.5494H242.486C242.493 65.7942 242.56 65.9827 242.684 66.115C242.809 66.2457 242.984 66.3111 243.211 66.3111C243.36 66.3111 243.498 66.2974 243.626 66.2701C243.755 66.2412 243.894 66.1941 244.041 66.1287V66.5643C243.91 66.6266 243.778 66.6707 243.644 66.6965C243.511 66.7224 243.358 66.7353 243.186 66.7353ZM243.088 64.5277C242.918 64.5277 242.781 64.5816 242.677 64.6896C242.575 64.7975 242.515 64.9549 242.495 65.1617H243.64C243.637 64.9534 243.587 64.796 243.489 64.6896C243.392 64.5816 243.258 64.5277 243.088 64.5277Z" fill="#777777"/>
<path d="M246.055 64.1217C246.163 64.1217 246.252 64.1293 246.322 64.1445L246.269 64.644C246.193 64.6257 246.114 64.6166 246.032 64.6166C245.818 64.6166 245.644 64.6866 245.51 64.8264C245.378 64.9663 245.311 65.148 245.311 65.3715V66.6897H244.776V64.1673H245.195L245.266 64.6121H245.293C245.377 64.4615 245.486 64.3422 245.619 64.254C245.755 64.1658 245.9 64.1217 246.055 64.1217Z" fill="#777777"/>
<path d="M282.251 73.4575H279.582V69.8919H277.434L280.917 66.4097L284.399 69.8919H282.251V73.4575Z" fill="#E84855"/>
<path d="M310.022 167.312H308.734V165.611H307.697L309.378 163.95L311.059 165.611H310.022V167.312Z" fill="#E84855"/>
<path d="M310.022 182.444H308.734V180.743H307.697L309.378 179.081L311.059 180.743H310.022V182.444Z" fill="#E84855"/>
<path d="M292.192 76.8848V72.1216H293.202V76.8848H292.192Z" fill="#777777"/>
<path d="M298.353 74.4576C298.353 75.2417 298.129 75.8422 297.681 76.2593C297.236 76.6763 296.592 76.8848 295.749 76.8848H294.401V72.1216H295.896C296.674 72.1216 297.277 72.3268 297.708 72.7373C298.138 73.1478 298.353 73.7213 298.353 74.4576ZM297.304 74.4836C297.304 73.4606 296.852 72.9491 295.948 72.9491H295.411V76.0508H295.844C296.817 76.0508 297.304 75.5284 297.304 74.4836Z" fill="#777777"/>
<path d="M300.35 74.236H300.676C300.995 74.236 301.231 74.1828 301.383 74.0764C301.535 73.97 301.611 73.8027 301.611 73.5747C301.611 73.3488 301.532 73.188 301.376 73.0925C301.222 72.9969 300.982 72.9491 300.656 72.9491H300.35V74.236ZM300.35 75.0571V76.8848H299.34V72.1216H300.728C301.375 72.1216 301.854 72.2399 302.165 72.4767C302.475 72.7113 302.63 73.0686 302.63 73.5486C302.63 73.8288 302.553 74.0786 302.399 74.2979C302.245 74.5151 302.027 74.6856 301.744 74.8094C302.461 75.8803 302.928 76.572 303.145 76.8848H302.024L300.887 75.0571H300.35Z" fill="#777777"/>
<path d="M310.209 76.8848H306.879V76.1843L308.075 74.9756C308.429 74.6129 308.66 74.362 308.769 74.223C308.877 74.0818 308.955 73.9515 309.003 73.832C309.051 73.7126 309.075 73.5888 309.075 73.4606C309.075 73.2695 309.022 73.1272 308.915 73.0338C308.811 72.9404 308.671 72.8937 308.495 72.8937C308.31 72.8937 308.131 72.9361 307.957 73.0208C307.784 73.1055 307.602 73.226 307.413 73.3824L306.866 72.7341C307.1 72.5343 307.295 72.3931 307.449 72.3105C307.603 72.228 307.772 72.165 307.954 72.1216C308.136 72.076 308.341 72.0531 308.567 72.0531C308.864 72.0531 309.127 72.1074 309.355 72.216C309.583 72.3247 309.76 72.4767 309.886 72.6722C310.012 72.8677 310.075 73.0914 310.075 73.3433C310.075 73.5627 310.036 73.769 309.958 73.9624C309.882 74.1535 309.762 74.3501 309.599 74.5521C309.439 74.7541 309.154 75.0419 308.746 75.4154L308.133 75.9921V76.0377H310.209V76.8848Z" fill="#777777"/>
<path d="M310.658 74.8616C310.658 73.9189 310.857 73.2174 311.254 72.7569C311.654 72.2964 312.251 72.0662 313.046 72.0662C313.318 72.0662 313.531 72.0825 313.685 72.115V72.9198C313.492 72.8763 313.3 72.8546 313.112 72.8546C312.766 72.8546 312.484 72.9068 312.264 73.011C312.047 73.1153 311.884 73.2695 311.776 73.4737C311.667 73.6778 311.603 73.9678 311.583 74.3435H311.626C311.841 73.9743 312.185 73.7897 312.659 73.7897C313.084 73.7897 313.418 73.9233 313.659 74.1904C313.9 74.4576 314.021 74.8268 314.021 75.2982C314.021 75.8064 313.877 76.2093 313.59 76.5069C313.304 76.8023 312.906 76.95 312.398 76.95C312.046 76.95 311.739 76.8685 311.476 76.7056C311.215 76.5427 311.013 76.3049 310.87 75.9921C310.729 75.6793 310.658 75.3025 310.658 74.8616ZM312.378 76.1452C312.593 76.1452 312.759 76.0736 312.874 75.9302C312.989 75.7847 313.046 75.5783 313.046 75.3112C313.046 75.0788 312.992 74.8963 312.883 74.7638C312.777 74.6292 312.615 74.5618 312.398 74.5618C312.194 74.5618 312.019 74.6281 311.873 74.7606C311.73 74.8931 311.658 75.0473 311.658 75.2232C311.658 75.4817 311.726 75.7 311.86 75.8781C311.997 76.0562 312.17 76.1452 312.378 76.1452Z" fill="#777777"/>
<path d="M314.617 76.4189C314.617 76.2365 314.666 76.0985 314.763 76.0051C314.861 75.9117 315.003 75.8651 315.19 75.8651C315.37 75.8651 315.509 75.9128 315.607 76.0084C315.707 76.104 315.757 76.2408 315.757 76.4189C315.757 76.5905 315.707 76.7263 315.607 76.8262C315.507 76.9239 315.368 76.9728 315.19 76.9728C315.008 76.9728 314.867 76.925 314.767 76.8294C314.667 76.7317 314.617 76.5949 314.617 76.4189Z" fill="#777777"/>
<path d="M319.709 74.5032C319.709 75.3351 319.572 75.9508 319.299 76.3505C319.027 76.7502 318.608 76.95 318.041 76.95C317.491 76.95 317.077 76.7436 316.796 76.331C316.518 75.9183 316.379 75.309 316.379 74.5032C316.379 73.6626 316.515 73.0436 316.787 72.6461C317.058 72.2465 317.476 72.0466 318.041 72.0466C318.59 72.0466 319.005 72.2551 319.285 72.6722C319.568 73.0892 319.709 73.6995 319.709 74.5032ZM317.38 74.5032C317.38 75.0875 317.429 75.5067 317.529 75.7608C317.631 76.0127 317.802 76.1387 318.041 76.1387C318.276 76.1387 318.445 76.0106 318.549 75.7543C318.653 75.498 318.706 75.081 318.706 74.5032C318.706 73.9189 318.652 73.4997 318.546 73.2456C318.442 72.9893 318.273 72.8611 318.041 72.8611C317.804 72.8611 317.635 72.9893 317.533 73.2456C317.431 73.4997 317.38 73.9189 317.38 74.5032Z" fill="#777777"/>
<path d="M323.521 74.5032C323.521 75.3351 323.384 75.9508 323.11 76.3505C322.839 76.7502 322.42 76.95 321.853 76.95C321.303 76.95 320.888 76.7436 320.608 76.331C320.33 75.9183 320.191 75.309 320.191 74.5032C320.191 73.6626 320.327 73.0436 320.598 72.6461C320.87 72.2465 321.288 72.0466 321.853 72.0466C322.402 72.0466 322.817 72.2551 323.097 72.6722C323.38 73.0892 323.521 73.6995 323.521 74.5032ZM321.191 74.5032C321.191 75.0875 321.241 75.5067 321.341 75.7608C321.443 76.0127 321.614 76.1387 321.853 76.1387C322.087 76.1387 322.257 76.0106 322.361 75.7543C322.465 75.498 322.517 75.081 322.517 74.5032C322.517 73.9189 322.464 73.4997 322.358 73.2456C322.254 72.9893 322.085 72.8611 321.853 72.8611C321.616 72.8611 321.447 72.9893 321.345 73.2456C321.242 73.4997 321.191 73.9189 321.191 74.5032Z" fill="#777777"/>
<path d="M327.333 74.5032C327.333 75.3351 327.196 75.9508 326.922 76.3505C326.651 76.7502 326.232 76.95 325.665 76.95C325.115 76.95 324.7 76.7436 324.42 76.331C324.142 75.9183 324.003 75.309 324.003 74.5032C324.003 73.6626 324.139 73.0436 324.41 72.6461C324.682 72.2465 325.1 72.0466 325.665 72.0466C326.214 72.0466 326.629 72.2551 326.909 72.6722C327.192 73.0892 327.333 73.6995 327.333 74.5032ZM325.003 74.5032C325.003 75.0875 325.053 75.5067 325.153 75.7608C325.255 76.0127 325.426 76.1387 325.665 76.1387C325.899 76.1387 326.069 76.0106 326.173 75.7543C326.277 75.498 326.329 75.081 326.329 74.5032C326.329 73.9189 326.276 73.4997 326.17 73.2456C326.065 72.9893 325.897 72.8611 325.665 72.8611C325.428 72.8611 325.259 72.9893 325.156 73.2456C325.054 73.4997 325.003 73.9189 325.003 74.5032Z" fill="#777777"/>
<path d="M327.955 76.4189C327.955 76.2365 328.004 76.0985 328.102 76.0051C328.199 75.9117 328.342 75.8651 328.529 75.8651C328.709 75.8651 328.848 75.9128 328.946 76.0084C329.045 76.104 329.095 76.2408 329.095 76.4189C329.095 76.5905 329.045 76.7263 328.946 76.8262C328.846 76.9239 328.707 76.9728 328.529 76.9728C328.346 76.9728 328.205 76.925 328.105 76.8294C328.005 76.7317 327.955 76.5949 327.955 76.4189Z" fill="#777777"/>
<path d="M333.047 74.5032C333.047 75.3351 332.911 75.9508 332.637 76.3505C332.365 76.7502 331.946 76.95 331.379 76.95C330.83 76.95 330.415 76.7436 330.135 76.331C329.857 75.9183 329.718 75.309 329.718 74.5032C329.718 73.6626 329.853 73.0436 330.125 72.6461C330.396 72.2465 330.815 72.0466 331.379 72.0466C331.929 72.0466 332.344 72.2551 332.624 72.6722C332.906 73.0892 333.047 73.6995 333.047 74.5032ZM330.718 74.5032C330.718 75.0875 330.768 75.5067 330.868 75.7608C330.97 76.0127 331.14 76.1387 331.379 76.1387C331.614 76.1387 331.783 76.0106 331.888 75.7543C331.992 75.498 332.044 75.081 332.044 74.5032C332.044 73.9189 331.991 73.4997 331.884 73.2456C331.78 72.9893 331.612 72.8611 331.379 72.8611C331.143 72.8611 330.973 72.9893 330.871 73.2456C330.769 73.4997 330.718 73.9189 330.718 74.5032Z" fill="#777777"/>
<path d="M336.859 74.5032C336.859 75.3351 336.723 75.9508 336.449 76.3505C336.177 76.7502 335.758 76.95 335.191 76.95C334.642 76.95 334.227 76.7436 333.947 76.331C333.669 75.9183 333.53 75.309 333.53 74.5032C333.53 73.6626 333.665 73.0436 333.937 72.6461C334.208 72.2465 334.627 72.0466 335.191 72.0466C335.741 72.0466 336.156 72.2551 336.436 72.6722C336.718 73.0892 336.859 73.6995 336.859 74.5032ZM334.53 74.5032C334.53 75.0875 334.58 75.5067 334.68 75.7608C334.782 76.0127 334.952 76.1387 335.191 76.1387C335.426 76.1387 335.595 76.0106 335.699 75.7543C335.804 75.498 335.856 75.081 335.856 74.5032C335.856 73.9189 335.803 73.4997 335.696 73.2456C335.592 72.9893 335.424 72.8611 335.191 72.8611C334.954 72.8611 334.785 72.9893 334.683 73.2456C334.581 73.4997 334.53 73.9189 334.53 74.5032Z" fill="#777777"/>
<path d="M340.671 74.5032C340.671 75.3351 340.534 75.9508 340.261 76.3505C339.989 76.7502 339.57 76.95 339.003 76.95C338.454 76.95 338.039 76.7436 337.759 76.331C337.481 75.9183 337.342 75.309 337.342 74.5032C337.342 73.6626 337.477 73.0436 337.749 72.6461C338.02 72.2465 338.438 72.0466 339.003 72.0466C339.553 72.0466 339.968 72.2551 340.248 72.6722C340.53 73.0892 340.671 73.6995 340.671 74.5032ZM338.342 74.5032C338.342 75.0875 338.392 75.5067 338.492 75.7608C338.594 76.0127 338.764 76.1387 339.003 76.1387C339.238 76.1387 339.407 76.0106 339.511 75.7543C339.616 75.498 339.668 75.081 339.668 74.5032C339.668 73.9189 339.615 73.4997 339.508 73.2456C339.404 72.9893 339.236 72.8611 339.003 72.8611C338.766 72.8611 338.597 72.9893 338.495 73.2456C338.393 73.4997 338.342 73.9189 338.342 74.5032Z" fill="#777777"/>
<path d="M293.184 66.6897H292.639V63.823H291.658V63.3554H294.165V63.823H293.184V66.6897Z" fill="#777777"/>
<path d="M296.858 65.424C296.858 65.836 296.753 66.1576 296.541 66.3887C296.33 66.6198 296.036 66.7353 295.659 66.7353C295.423 66.7353 295.215 66.6821 295.034 66.5757C294.853 66.4692 294.714 66.3164 294.616 66.1173C294.519 65.9181 294.47 65.687 294.47 65.424C294.47 65.015 294.575 64.6957 294.785 64.4661C294.995 64.2365 295.291 64.1217 295.672 64.1217C296.037 64.1217 296.326 64.2396 296.539 64.4752C296.752 64.7094 296.858 65.0256 296.858 65.424ZM295.022 65.424C295.022 66.0063 295.238 66.2974 295.668 66.2974C296.094 66.2974 296.306 66.0063 296.306 65.424C296.306 64.8477 296.092 64.5596 295.663 64.5596C295.438 64.5596 295.275 64.6341 295.173 64.7831C295.073 64.9321 295.022 65.1457 295.022 65.424Z" fill="#777777"/>
<path d="M298.416 66.302C298.547 66.302 298.677 66.2815 298.808 66.2404V66.6441C298.749 66.6699 298.672 66.6912 298.578 66.708C298.485 66.7262 298.389 66.7353 298.288 66.7353C297.78 66.7353 297.526 66.4677 297.526 65.9325V64.5733H297.182V64.3361L297.552 64.14L297.734 63.6063H298.065V64.1673H298.783V64.5733H298.065V65.9234C298.065 66.0527 298.097 66.1484 298.161 66.2108C298.226 66.2716 298.311 66.302 298.416 66.302Z" fill="#777777"/>
<path d="M300.893 66.6897L300.786 66.3385H300.767C300.646 66.4921 300.523 66.597 300.4 66.6532C300.277 66.708 300.119 66.7353 299.926 66.7353C299.678 66.7353 299.484 66.6684 299.344 66.5346C299.206 66.4008 299.137 66.2115 299.137 65.9667C299.137 65.7068 299.233 65.5106 299.426 65.3783C299.619 65.2461 299.914 65.1739 300.309 65.1617L300.744 65.148V65.0134C300.744 64.8523 300.706 64.7322 300.63 64.6531C300.556 64.5725 300.44 64.5322 300.281 64.5322C300.152 64.5322 300.028 64.5512 299.91 64.5893C299.791 64.6273 299.677 64.6721 299.568 64.7238L299.394 64.3407C299.531 64.2692 299.681 64.2152 299.844 64.1787C300.006 64.1407 300.16 64.1217 300.304 64.1217C300.625 64.1217 300.867 64.1917 301.03 64.3315C301.194 64.4714 301.276 64.6911 301.276 64.9906V66.6897H300.893ZM300.094 66.3248C300.289 66.3248 300.445 66.2708 300.562 66.1629C300.681 66.0534 300.74 65.9006 300.74 65.7045V65.4855L300.416 65.4992C300.164 65.5083 299.98 65.5509 299.864 65.6269C299.75 65.7014 299.693 65.8162 299.693 65.9713C299.693 66.0838 299.727 66.1712 299.793 66.2336C299.86 66.2944 299.961 66.3248 300.094 66.3248Z" fill="#777777"/>
<path d="M302.56 66.6897H302.024V63.1411H302.56V66.6897Z" fill="#777777"/>
<path d="M307.559 65.018C307.559 65.5608 307.423 65.9827 307.151 66.2838C306.88 66.5848 306.496 66.7353 305.999 66.7353C305.496 66.7353 305.109 66.5863 304.838 66.2883C304.569 65.9888 304.435 65.5638 304.435 65.0134C304.435 64.4631 304.57 64.0404 304.84 63.7454C305.113 63.4505 305.5 63.303 306.004 63.303C306.499 63.303 306.882 63.4527 307.153 63.7523C307.424 64.0518 307.559 64.4737 307.559 65.018ZM305.014 65.018C305.014 65.4285 305.097 65.7402 305.262 65.9531C305.428 66.1644 305.674 66.2701 305.999 66.2701C306.323 66.2701 306.567 66.1652 306.731 65.9553C306.897 65.7455 306.98 65.4331 306.98 65.018C306.98 64.609 306.898 64.2989 306.733 64.0875C306.571 63.8762 306.327 63.7705 306.004 63.7705C305.677 63.7705 305.43 63.8762 305.262 64.0875C305.097 64.2989 305.014 64.609 305.014 65.018Z" fill="#777777"/>
<path d="M309.997 66.6897L309.922 66.359H309.894C309.82 66.4761 309.713 66.5681 309.575 66.635C309.438 66.7019 309.282 66.7353 309.105 66.7353C308.8 66.7353 308.572 66.6593 308.421 66.5073C308.271 66.3552 308.195 66.1249 308.195 65.8162V64.1673H308.736V65.7227C308.736 65.9158 308.775 66.061 308.854 66.1583C308.933 66.2541 309.057 66.302 309.226 66.302C309.451 66.302 309.616 66.2351 309.721 66.1013C309.827 65.966 309.881 65.7402 309.881 65.424V64.1673H310.419V66.6897H309.997Z" fill="#777777"/>
<path d="M312.123 66.302C312.253 66.302 312.384 66.2815 312.515 66.2404V66.6441C312.455 66.6699 312.379 66.6912 312.284 66.708C312.192 66.7262 312.095 66.7353 311.995 66.7353C311.487 66.7353 311.233 66.4677 311.233 65.9325V64.5733H310.889V64.3361L311.258 64.14L311.441 63.6063H311.771V64.1673H312.49V64.5733H311.771V65.9234C311.771 66.0527 311.803 66.1484 311.867 66.2108C311.932 66.2716 312.018 66.302 312.123 66.302Z" fill="#777777"/>
<path d="M315.151 64.1673V64.4615L314.72 64.5414C314.76 64.5946 314.792 64.6599 314.818 64.7375C314.844 64.815 314.857 64.8971 314.857 64.9838C314.857 65.2438 314.767 65.4483 314.588 65.5973C314.408 65.7463 314.161 65.8208 313.847 65.8208C313.766 65.8208 313.693 65.8147 313.628 65.8025C313.512 65.874 313.454 65.9576 313.454 66.0534C313.454 66.1112 313.481 66.1545 313.534 66.1834C313.589 66.2123 313.689 66.2267 313.833 66.2267H314.273C314.551 66.2267 314.763 66.286 314.907 66.4046C315.052 66.5232 315.124 66.6943 315.124 66.9178C315.124 67.2036 315.006 67.4241 314.77 67.5792C314.535 67.7342 314.194 67.8118 313.749 67.8118C313.405 67.8118 313.143 67.751 312.962 67.6293C312.781 67.5077 312.69 67.3344 312.69 67.1093C312.69 66.9543 312.739 66.8235 312.836 66.7171C312.935 66.6122 313.073 66.5392 313.249 66.4981C313.178 66.4677 313.118 66.4191 313.071 66.3522C313.026 66.2838 313.003 66.2123 313.003 66.1378C313.003 66.0435 313.029 65.9637 313.083 65.8983C313.136 65.833 313.215 65.7683 313.32 65.7045C313.189 65.6482 313.083 65.557 313.001 65.4308C312.92 65.3031 312.88 65.1541 312.88 64.9838C312.88 64.7101 312.966 64.498 313.137 64.3475C313.311 64.197 313.557 64.1217 313.876 64.1217C313.948 64.1217 314.022 64.127 314.1 64.1377C314.179 64.1468 314.238 64.1567 314.278 64.1673H315.151ZM313.169 67.082C313.169 67.1975 313.221 67.2865 313.324 67.3488C313.429 67.4111 313.576 67.4423 313.765 67.4423C314.056 67.4423 314.274 67.4005 314.417 67.3169C314.56 67.2333 314.631 67.1223 314.631 66.9839C314.631 66.8744 314.592 66.7961 314.513 66.749C314.435 66.7034 314.29 66.6806 314.077 66.6806H313.671C313.517 66.6806 313.395 66.7163 313.304 66.7878C313.214 66.8608 313.169 66.9588 313.169 67.082ZM313.4 64.9838C313.4 65.1419 313.44 65.2636 313.521 65.3487C313.603 65.4338 313.72 65.4764 313.872 65.4764C314.182 65.4764 314.337 65.3107 314.337 64.9792C314.337 64.815 314.298 64.6888 314.221 64.6007C314.145 64.5109 314.028 64.4661 313.872 64.4661C313.717 64.4661 313.599 64.5102 313.518 64.5984C313.439 64.6866 313.4 64.815 313.4 64.9838Z" fill="#777777"/>
<path d="M317.858 65.424C317.858 65.836 317.753 66.1576 317.541 66.3887C317.33 66.6198 317.036 66.7353 316.659 66.7353C316.423 66.7353 316.215 66.6821 316.034 66.5757C315.853 66.4692 315.714 66.3164 315.616 66.1173C315.519 65.9181 315.47 65.687 315.47 65.424C315.47 65.015 315.575 64.6957 315.785 64.4661C315.995 64.2365 316.291 64.1217 316.672 64.1217C317.037 64.1217 317.326 64.2396 317.539 64.4752C317.752 64.7094 317.858 65.0256 317.858 65.424ZM316.022 65.424C316.022 66.0063 316.238 66.2974 316.668 66.2974C317.094 66.2974 317.306 66.0063 317.306 65.424C317.306 64.8477 317.092 64.5596 316.663 64.5596C316.438 64.5596 316.275 64.6341 316.173 64.7831C316.073 64.9321 316.022 65.1457 316.022 65.424Z" fill="#777777"/>
<path d="M319.012 66.6897H318.476V64.1673H319.012V66.6897ZM318.444 63.4991C318.444 63.4033 318.47 63.3296 318.522 63.2779C318.575 63.2262 318.65 63.2003 318.748 63.2003C318.842 63.2003 318.915 63.2262 318.967 63.2779C319.02 63.3296 319.046 63.4033 319.046 63.4991C319.046 63.5903 319.02 63.6626 318.967 63.7158C318.915 63.7675 318.842 63.7933 318.748 63.7933C318.65 63.7933 318.575 63.7675 318.522 63.7158C318.47 63.6626 318.444 63.5903 318.444 63.4991Z" fill="#777777"/>
<path d="M322 66.6897H321.462V65.1389C321.462 64.9443 321.422 64.7991 321.343 64.7033C321.266 64.6075 321.142 64.5596 320.971 64.5596C320.745 64.5596 320.579 64.6265 320.474 64.7603C320.369 64.8941 320.317 65.1184 320.317 65.4331V66.6897H319.781V64.1673H320.2L320.276 64.498H320.303C320.379 64.3779 320.487 64.2852 320.627 64.2198C320.767 64.1544 320.922 64.1217 321.092 64.1217C321.697 64.1217 322 64.4296 322 65.0454V66.6897Z" fill="#777777"/>
<path d="M324.876 64.1673V64.4615L324.445 64.5414C324.484 64.5946 324.517 64.6599 324.543 64.7375C324.569 64.815 324.582 64.8971 324.582 64.9838C324.582 65.2438 324.492 65.4483 324.312 65.5973C324.133 65.7463 323.886 65.8208 323.571 65.8208C323.491 65.8208 323.418 65.8147 323.352 65.8025C323.237 65.874 323.179 65.9576 323.179 66.0534C323.179 66.1112 323.206 66.1545 323.259 66.1834C323.314 66.2123 323.413 66.2267 323.558 66.2267H323.998C324.276 66.2267 324.487 66.286 324.632 66.4046C324.776 66.5232 324.848 66.6943 324.848 66.9178C324.848 67.2036 324.731 67.4241 324.495 67.5792C324.259 67.7342 323.919 67.8118 323.473 67.8118C323.13 67.8118 322.867 67.751 322.686 67.6293C322.505 67.5077 322.415 67.3344 322.415 67.1093C322.415 66.9543 322.464 66.8235 322.561 66.7171C322.66 66.6122 322.797 66.5392 322.974 66.4981C322.902 66.4677 322.843 66.4191 322.796 66.3522C322.75 66.2838 322.727 66.2123 322.727 66.1378C322.727 66.0435 322.754 65.9637 322.807 65.8983C322.86 65.833 322.94 65.7683 323.044 65.7045C322.914 65.6482 322.807 65.557 322.725 65.4308C322.645 65.3031 322.604 65.1541 322.604 64.9838C322.604 64.7101 322.69 64.498 322.862 64.3475C323.035 64.197 323.282 64.1217 323.601 64.1217C323.672 64.1217 323.747 64.127 323.824 64.1377C323.903 64.1468 323.963 64.1567 324.002 64.1673H324.876ZM322.894 67.082C322.894 67.1975 322.946 67.2865 323.049 67.3488C323.154 67.4111 323.301 67.4423 323.489 67.4423C323.781 67.4423 323.998 67.4005 324.141 67.3169C324.284 67.2333 324.356 67.1223 324.356 66.9839C324.356 66.8744 324.316 66.7961 324.237 66.749C324.16 66.7034 324.014 66.6806 323.802 66.6806H323.396C323.242 66.6806 323.12 66.7163 323.028 66.7878C322.939 66.8608 322.894 66.9588 322.894 67.082ZM323.124 64.9838C323.124 65.1419 323.165 65.2636 323.245 65.3487C323.327 65.4338 323.444 65.4764 323.596 65.4764C323.907 65.4764 324.062 65.3107 324.062 64.9792C324.062 64.815 324.023 64.6888 323.945 64.6007C323.869 64.5109 323.753 64.4661 323.596 64.4661C323.441 64.4661 323.323 64.5102 323.243 64.5984C323.164 64.6866 323.124 64.815 323.124 64.9838Z" fill="#777777"/>
<path d="M328.684 66.6897L328.351 65.7638H327.077L326.75 66.6897H326.176L327.423 63.3417H328.016L329.264 66.6897H328.684ZM328.208 65.294L327.895 64.3863C327.873 64.3255 327.841 64.2297 327.8 64.0989C327.76 63.9682 327.733 63.8724 327.717 63.8116C327.676 63.9986 327.616 64.2031 327.537 64.425L327.236 65.294H328.208Z" fill="#777777"/>
<path d="M331.772 66.6897H331.234V65.1343C331.234 64.9412 331.198 64.7975 331.125 64.7033C331.052 64.6075 330.938 64.5596 330.783 64.5596C330.576 64.5596 330.424 64.6273 330.326 64.7626C330.231 64.8964 330.183 65.1199 330.183 65.4331V66.6897H329.647V64.1673H330.066L330.142 64.498H330.169C330.239 64.3779 330.34 64.2852 330.472 64.2198C330.606 64.1544 330.753 64.1217 330.913 64.1217C331.3 64.1217 331.557 64.254 331.683 64.5186H331.72C331.794 64.3939 331.899 64.2966 332.035 64.2266C332.17 64.1567 332.325 64.1217 332.5 64.1217C332.801 64.1217 333.02 64.1977 333.157 64.3498C333.295 64.5018 333.364 64.7337 333.364 65.0454V66.6897H332.828V65.1343C332.828 64.9412 332.791 64.7975 332.717 64.7033C332.644 64.6075 332.53 64.5596 332.374 64.5596C332.166 64.5596 332.013 64.625 331.916 64.7557C331.82 64.885 331.772 65.0841 331.772 65.3533V66.6897Z" fill="#777777"/>
<path d="M336.35 65.424C336.35 65.836 336.244 66.1576 336.033 66.3887C335.821 66.6198 335.527 66.7353 335.15 66.7353C334.914 66.7353 334.706 66.6821 334.525 66.5757C334.344 66.4692 334.205 66.3164 334.108 66.1173C334.01 65.9181 333.962 65.687 333.962 65.424C333.962 65.015 334.067 64.6957 334.277 64.4661C334.486 64.2365 334.782 64.1217 335.164 64.1217C335.529 64.1217 335.817 64.2396 336.03 64.4752C336.243 64.7094 336.35 65.0256 336.35 65.424ZM334.514 65.424C334.514 66.0063 334.729 66.2974 335.159 66.2974C335.585 66.2974 335.798 66.0063 335.798 65.424C335.798 64.8477 335.583 64.5596 335.155 64.5596C334.93 64.5596 334.766 64.6341 334.664 64.7831C334.564 64.9321 334.514 65.1457 334.514 65.424Z" fill="#777777"/>
<path d="M338.747 66.6897L338.671 66.359H338.644C338.569 66.4761 338.463 66.5681 338.325 66.635C338.188 66.7019 338.031 66.7353 337.855 66.7353C337.549 66.7353 337.321 66.6593 337.171 66.5073C337.02 66.3552 336.945 66.1249 336.945 65.8162V64.1673H337.485V65.7227C337.485 65.9158 337.525 66.061 337.604 66.1583C337.683 66.2541 337.807 66.302 337.976 66.302C338.201 66.302 338.366 66.2351 338.471 66.1013C338.577 65.966 338.63 65.7402 338.63 65.424V64.1673H339.168V66.6897H338.747Z" fill="#777777"/>
<path d="M342.152 66.6897H341.613V65.1389C341.613 64.9443 341.574 64.7991 341.495 64.7033C341.417 64.6075 341.293 64.5596 341.123 64.5596C340.896 64.5596 340.731 64.6265 340.626 64.7603C340.521 64.8941 340.468 65.1184 340.468 65.4331V66.6897H339.932V64.1673H340.352L340.427 64.498H340.455C340.531 64.3779 340.639 64.2852 340.779 64.2198C340.918 64.1544 341.074 64.1217 341.244 64.1217C341.849 64.1217 342.152 64.4296 342.152 65.0454V66.6897Z" fill="#777777"/>
<path d="M343.837 66.302C343.968 66.302 344.098 66.2815 344.229 66.2404V66.6441C344.17 66.6699 344.093 66.6912 343.999 66.708C343.906 66.7262 343.81 66.7353 343.709 66.7353C343.201 66.7353 342.947 66.4677 342.947 65.9325V64.5733H342.603V64.3361L342.973 64.14L343.155 63.6063H343.486V64.1673H344.204V64.5733H343.486V65.9234C343.486 66.0527 343.518 66.1484 343.581 66.2108C343.647 66.2716 343.732 66.302 343.837 66.302Z" fill="#777777"/>
<g filter="url(#filter4_d)">
<rect x="84.9313" y="16" width="358.106" height="21.8563" fill="white"/>
</g>
<rect x="292.713" y="23.543" width="28.5844" height="7.9401" rx="3.97005" fill="#ECECEC"/>
<rect x="257.776" y="23.543" width="28.5844" height="7.9401" rx="3.97005" fill="#ECECEC"/>
<rect x="98.9741" y="21.9551" width="50.8166" height="11.1161" rx="4" fill="#ECECEC"/>
<rect x="16" y="61.2586" width="65.9028" height="13.1012" fill="#78A5ED"/>
<rect x="16" y="16" width="68.9313" height="269" fill="#4573FF"/>
<mask id="mask1" mask-type="alpha" maskUnits="userSpaceOnUse" x="22" y="22" width="11" height="10">
<rect x="22.3519" y="22.3521" width="9.75479" height="9.52812" fill="white"/>
</mask>
<g mask="url(#mask1)">
<path d="M28.0581 29.4017L28.9547 30.9164L29.3879 30.6543L29.54 30.1527L28.5774 28.5245L28.0581 29.4017Z" fill="#D24D57"/>
<path d="M25.1562 23.4031L24.733 23.7618L25.8691 25.6801L26.387 24.8043L25.3498 23.0514L25.1562 23.4031Z" fill="#D24D57"/>
<path d="M26.1316 28.0915L24.8693 30.2256L25.0271 30.793L25.4144 31.0607L27.2348 27.9822L27.7541 27.1037L29.7682 23.6932L29.4339 23.2392L29.3206 23.0809L28.83 23.5251L26.1316 28.0915Z" fill="#D24D57"/>
<path d="M25.1158 22.6534L24.5965 23.5334H24.598L23.0056 26.2321L23.0042 26.2307L22.4863 27.1092L25.1158 31.565L25.6351 30.6879L23.5235 27.1106L25.6351 23.5334H27.1457L27.665 22.6534H25.1158Z" fill="white"/>
<path d="M28.8244 23.5348L30.9346 27.1107L28.8244 30.6865H27.3138L26.796 31.5651H29.3437L29.863 30.6865L31.4539 27.9892L31.9732 27.1121L31.4553 26.2279L29.8615 23.5334L29.3451 22.6535L28.8244 23.5348Z" fill="white"/>
</g>
<path fill-rule="evenodd" clip-rule="evenodd" d="M36.432 25.5128L35.47 26.8832L34.5045 25.5128H33.7362L35.0774 27.3524L33.6673 29.2794H34.4324L35.4698 27.8279L36.4973 29.2794H37.2623L35.8523 27.3524L37.1936 25.5128H36.432Z" fill="white"/>
<path fill-rule="evenodd" clip-rule="evenodd" d="M39.3451 26.0066C39.6259 26.0066 39.8441 26.095 39.9936 26.2693C40.1381 26.4376 40.2149 26.6822 40.2218 26.9966H38.3602C38.3966 26.6937 38.4971 26.4526 38.6593 26.2791C38.8283 26.0983 39.059 26.0066 39.3451 26.0066ZM39.352 25.4457C38.8363 25.4457 38.4192 25.6273 38.1126 25.9853C37.8081 26.341 37.6537 26.8257 37.6537 27.4262C37.6537 28.0234 37.8203 28.4977 38.1489 28.8357C38.4782 29.1746 38.9326 29.3464 39.4995 29.3464C39.7555 29.3464 39.9774 29.3274 40.1594 29.2901C40.3412 29.2527 40.5364 29.1903 40.7397 29.1046L40.7692 29.0922V28.4929L40.7012 28.5213C40.3135 28.6833 39.9162 28.7653 39.5201 28.7653C39.1519 28.7653 38.8634 28.6578 38.6625 28.4457C38.4683 28.2405 38.3608 27.9374 38.3429 27.5442H40.9303V27.1448C40.9303 26.6394 40.7877 26.2259 40.5066 25.9158C40.2238 25.6038 39.8353 25.4457 39.352 25.4457Z" fill="white"/>
<path fill-rule="evenodd" clip-rule="evenodd" d="M43.6287 25.4457C43.3641 25.4457 43.1205 25.4975 42.9044 25.5995C42.7132 25.6899 42.5575 25.8145 42.4404 25.9707L42.356 25.5127H41.8035V29.2793H42.4703V27.3056C42.4703 26.8415 42.5587 26.506 42.7328 26.3083C42.9052 26.1126 43.1836 26.0133 43.5601 26.0133C43.8418 26.0133 44.0501 26.0826 44.1793 26.219C44.3095 26.3568 44.3755 26.5713 44.3755 26.8568V29.2793H45.0424V26.8367C45.0424 26.3564 44.9219 26.0005 44.6843 25.7788C44.4474 25.5578 44.0922 25.4457 43.6287 25.4457Z" fill="white"/>
<path fill-rule="evenodd" clip-rule="evenodd" d="M47.5828 28.7855C47.2557 28.7855 47.0152 28.6748 46.8473 28.4468C46.6783 28.2173 46.5925 27.8695 46.5925 27.4129C46.5925 26.9625 46.679 26.6103 46.8497 26.3661C47.0188 26.1242 47.2563 26.0067 47.576 26.0067C47.947 26.0067 48.2196 26.1126 48.3862 26.3217C48.5558 26.5343 48.6417 26.8991 48.6417 27.4061V27.5234C48.6417 27.9699 48.5572 28.296 48.3906 28.493C48.2262 28.6871 47.9545 28.7855 47.5828 28.7855ZM48.6415 25.5161L48.6553 25.7756L48.6705 25.9424C48.3925 25.6127 48.0027 25.4458 47.5105 25.4458C47.008 25.4458 46.6098 25.6208 46.327 25.9661C46.0468 26.3082 45.9048 26.7927 45.9048 27.4061C45.9048 28.0197 46.0463 28.501 46.3255 28.8364C46.6071 29.1748 47.0058 29.3464 47.5105 29.3464C48.0195 29.3464 48.4143 29.1718 48.6852 28.8271L48.7545 29.2794H49.3082V23.9719H48.6414L48.6415 25.5161Z" fill="white"/>
<path fill-rule="evenodd" clip-rule="evenodd" d="M50.7551 24.1494C50.6466 24.1494 50.5545 24.1836 50.4814 24.2512C50.4076 24.3195 50.3702 24.4252 50.3702 24.5655C50.3702 24.7032 50.4074 24.8088 50.4808 24.8792C50.5539 24.9494 50.6462 24.985 50.7551 24.985C50.859 24.985 50.9499 24.9496 51.0253 24.8798C51.1014 24.8093 51.1399 24.7036 51.1399 24.5655C51.1399 24.4272 51.1013 24.322 51.025 24.2526C50.9496 24.1841 50.8588 24.1494 50.7551 24.1494Z" fill="white"/>
<path fill-rule="evenodd" clip-rule="evenodd" d="M50.4182 29.2794H51.0851V25.5128H50.4182V29.2794Z" fill="white"/>
<path fill-rule="evenodd" clip-rule="evenodd" d="M53.958 28.727C53.9054 28.7421 53.8324 28.7568 53.7412 28.771C53.6504 28.785 53.5549 28.7922 53.4573 28.7922C53.2828 28.7922 53.15 28.7393 53.0514 28.6306C52.9526 28.5219 52.9025 28.3612 52.9025 28.1532V26.0402H53.9931V25.5128H52.9025V24.662H52.4882L52.2442 25.4587L51.6973 25.6935V26.0402H52.2356V28.1766C52.2356 28.9528 52.619 29.3464 53.375 29.3464C53.4725 29.3464 53.5842 29.3366 53.7069 29.3172C53.8327 29.2974 53.9262 29.2725 53.9929 29.2412L54.0205 29.2282V28.7092L53.958 28.727Z" fill="white"/>
<rect x="22.3519" y="39.0263" width="17.0712" height="6.35208" rx="3.17604" fill="#7D9DFF"/>
<rect x="35.4534" y="59.2735" width="32.1574" height="6.35208" rx="3.17604" fill="#7D9DFF"/>
<rect x="35.4534" y="75.1537" width="32.1574" height="6.35208" rx="3.17604" fill="#7D9DFF"/>
<rect x="35.4534" y="91.034" width="32.1574" height="6.35208" rx="3.17604" fill="#B5C7FF"/>
<rect x="35.4534" y="154.555" width="32.1574" height="6.35208" rx="3.17604" fill="#7D9DFF"/>
<rect x="35.4534" y="113.512" width="32.1574" height="6.35208" rx="3.17604" fill="#7D9DFF"/>
<rect x="35.4534" y="170.435" width="32.1574" height="6.35208" rx="3.17604" fill="#7D9DFF"/>
<rect x="35.4534" y="129.393" width="32.1574" height="6.35208" rx="3.17604" fill="#7D9DFF"/>
<rect x="35.4534" y="190.85" width="32.1574" height="6.35208" rx="3.17604" fill="#7D9DFF"/>
<rect x="72.7717" y="39.0263" width="6.35208" height="6.35208" rx="3.17604" fill="#7D9DFF"/>
<rect x="22.3519" y="59.2735" width="6.35208" height="6.35208" rx="3.17604" fill="#7D9DFF"/>
<rect x="22.3519" y="75.1537" width="6.35208" height="6.35208" rx="3.17604" fill="#7D9DFF"/>
<rect x="22.3519" y="91.034" width="6.35208" height="6.35208" rx="3.17604" fill="#B5C7FF"/>
<rect x="22.3519" y="154.555" width="6.35208" height="6.35208" rx="3.17604" fill="#7D9DFF"/>
<rect x="22.3519" y="113.512" width="6.35208" height="6.35208" rx="3.17604" fill="#7D9DFF"/>
<rect x="22.3519" y="170.435" width="6.35208" height="6.35208" rx="3.17604" fill="#7D9DFF"/>
<rect x="22.3519" y="129.393" width="6.35208" height="6.35208" rx="3.17604" fill="#7D9DFF"/>
<rect x="22.3519" y="190.85" width="6.35208" height="6.35208" rx="3.17604" fill="#7D9DFF"/>
</g>
</g>
<defs>
<filter id="filter0_d" x="-28" y="-24" width="515.038" height="357" filterUnits="userSpaceOnUse" color-interpolation-filters="sRGB">
<feFlood flood-opacity="0" result="BackgroundImageFix"/>
<feColorMatrix in="SourceAlpha" type="matrix" values="0 0 0 0 0 0 0 0 0 0 0 0 0 0 0 0 0 0 127 0"/>
<feOffset dy="4"/>
<feGaussianBlur stdDeviation="22"/>
<feColorMatrix type="matrix" values="0 0 0 0 0 0 0 0 0 0 0 0 0 0 0 0 0 0 0.15 0"/>
<feBlend mode="normal" in2="BackgroundImageFix" result="effect1_dropShadow"/>
<feBlend mode="normal" in="SourceGraphic" in2="effect1_dropShadow" result="shape"/>
</filter>
<filter id="filter1_d" x="94.3811" y="93.0187" width="342.462" height="187.894" filterUnits="userSpaceOnUse" color-interpolation-filters="sRGB">
<feFlood flood-opacity="0" result="BackgroundImageFix"/>
<feColorMatrix in="SourceAlpha" type="matrix" values="0 0 0 0 0 0 0 0 0 0 0 0 0 0 0 0 0 0 127 0"/>
<feOffset dy="2"/>
<feGaussianBlur stdDeviation="2"/>
<feColorMatrix type="matrix" values="0 0 0 0 0 0 0 0 0 0 0 0 0 0 0 0 0 0 0.08 0"/>
<feBlend mode="normal" in2="BackgroundImageFix" result="effect1_dropShadow"/>
<feBlend mode="normal" in="SourceGraphic" in2="effect1_dropShadow" result="shape"/>
</filter>
<filter id="filter2_d" x="94.3813" y="49.3062" width="171.922" height="44.9875" filterUnits="userSpaceOnUse" color-interpolation-filters="sRGB">
<feFlood flood-opacity="0" result="BackgroundImageFix"/>
<feColorMatrix in="SourceAlpha" type="matrix" values="0 0 0 0 0 0 0 0 0 0 0 0 0 0 0 0 0 0 127 0"/>
<feOffset dy="2"/>
<feGaussianBlur stdDeviation="2"/>
<feColorMatrix type="matrix" values="0 0 0 0 0 0 0 0 0 0 0 0 0 0 0 0 0 0 0.08 0"/>
<feBlend mode="normal" in2="BackgroundImageFix" result="effect1_dropShadow"/>
<feBlend mode="normal" in="SourceGraphic" in2="effect1_dropShadow" result="shape"/>
</filter>
<filter id="filter3_d" x="265.028" y="49.3062" width="171.922" height="44.9875" filterUnits="userSpaceOnUse" color-interpolation-filters="sRGB">
<feFlood flood-opacity="0" result="BackgroundImageFix"/>
<feColorMatrix in="SourceAlpha" type="matrix" values="0 0 0 0 0 0 0 0 0 0 0 0 0 0 0 0 0 0 127 0"/>
<feOffset dy="2"/>
<feGaussianBlur stdDeviation="2"/>
<feColorMatrix type="matrix" values="0 0 0 0 0 0 0 0 0 0 0 0 0 0 0 0 0 0 0.08 0"/>
<feBlend mode="normal" in2="BackgroundImageFix" result="effect1_dropShadow"/>
<feBlend mode="normal" in="SourceGraphic" in2="effect1_dropShadow" result="shape"/>
</filter>
<filter id="filter4_d" x="80.9313" y="14" width="366.106" height="29.8563" filterUnits="userSpaceOnUse" color-interpolation-filters="sRGB">
<feFlood flood-opacity="0" result="BackgroundImageFix"/>
<feColorMatrix in="SourceAlpha" type="matrix" values="0 0 0 0 0 0 0 0 0 0 0 0 0 0 0 0 0 0 127 0"/>
<feOffset dy="2"/>
<feGaussianBlur stdDeviation="2"/>
<feColorMatrix type="matrix" values="0 0 0 0 0 0 0 0 0 0 0 0 0 0 0 0 0 0 0.08 0"/>
<feBlend mode="normal" in2="BackgroundImageFix" result="effect1_dropShadow"/>
<feBlend mode="normal" in="SourceGraphic" in2="effect1_dropShadow" result="shape"/>
</filter>
</defs>
</svg>
