<svg width="604" height="324" viewBox="0 0 604 324" fill="none" xmlns="http://www.w3.org/2000/svg">
<mask id="mask0" mask-type="alpha" maskUnits="userSpaceOnUse" x="0" y="0" width="604" height="324">
<rect width="604" height="324" fill="white"/>
</mask>
<g mask="url(#mask0)">
<path d="M0 0H604V324H0V0Z" fill="#D8CDF7"/>
<g filter="url(#filter0_d)">
<rect x="48" y="48" width="508" height="320" fill="#F7F7F7"/>
<g filter="url(#filter1_d)">
<rect x="146" y="142" width="397.873" height="214" rx="4" fill="white"/>
</g>
<rect x="154" y="182.351" width="21.2456" height="7.0841" rx="3.54205" fill="#CFCFCF"/>
<rect x="219" y="182.351" width="20.3013" height="7.0841" rx="3.54205" fill="#CFCFCF"/>
<rect x="290.47" y="182.351" width="22.1898" height="7.0841" rx="3.54205" fill="#CFCFCF"/>
<rect x="351.846" y="182.351" width="21.2456" height="7.0841" rx="3.54205" fill="#CFCFCF"/>
<rect x="402" y="182.351" width="25.0225" height="7.0841" rx="3.54205" fill="#CFCFCF"/>
<rect x="461" y="182.351" width="25.0225" height="7.0841" rx="3.54205" fill="#CFCFCF"/>
<rect x="154" y="203.604" width="35.8814" height="7.0841" rx="3.54205" fill="#BFF3E6"/>
<rect x="219" y="203.604" width="31.6323" height="7.0841" rx="3.54205" fill="#ECECEC"/>
<rect x="290.47" y="203.604" width="38.7141" height="7.0841" rx="3.54205" fill="#ECECEC"/>
<rect x="351.846" y="203.604" width="27.8553" height="7.0841" rx="3.54205" fill="#ECECEC"/>
<rect x="402" y="204" width="40.1305" height="7.0841" rx="3.54205" fill="#ECECEC"/>
<rect x="461" y="203.604" width="40.1305" height="7.0841" rx="3.54205" fill="#ECECEC"/>
<rect x="520" y="203.604" width="7.08185" height="7.0841" rx="3.54093" fill="#ECECEC"/>
<rect x="154" y="240.441" width="35.8814" height="7.0841" rx="3.54205" fill="#FFEFC2"/>
<rect x="219" y="240.441" width="31.6323" height="7.0841" rx="3.54205" fill="#ECECEC"/>
<rect x="290.47" y="240.441" width="38.7141" height="7.0841" rx="3.54205" fill="#ECECEC"/>
<rect x="351.846" y="240.441" width="27.8553" height="7.0841" rx="3.54205" fill="#ECECEC"/>
<rect x="402" y="240" width="40.1305" height="7.0841" rx="3.54205" fill="#ECECEC"/>
<rect x="461" y="240.441" width="40.1305" height="7.0841" rx="3.54205" fill="#ECECEC"/>
<rect x="520" y="240.441" width="7.08185" height="7.0841" rx="3.54093" fill="#ECECEC"/>
<rect x="154" y="277.278" width="35.8814" height="7.0841" rx="3.54205" fill="#F9D1D5"/>
<rect x="219" y="277.278" width="31.6323" height="7.0841" rx="3.54205" fill="#ECECEC"/>
<rect x="290.47" y="277.278" width="38.7141" height="7.0841" rx="3.54205" fill="#ECECEC"/>
<rect x="351.846" y="277.278" width="27.8553" height="7.0841" rx="3.54205" fill="#ECECEC"/>
<rect x="402" y="277" width="40.1305" height="7.0841" rx="3.54205" fill="#ECECEC"/>
<rect x="461" y="277.278" width="40.1305" height="7.0841" rx="3.54205" fill="#ECECEC"/>
<rect x="520" y="277.278" width="7.08185" height="7.0841" rx="3.54093" fill="#ECECEC"/>
<rect x="154" y="314.116" width="35.8814" height="7.0841" rx="3.54205" fill="#BFF3E6"/>
<rect x="219" y="314.116" width="31.6323" height="7.0841" rx="3.54205" fill="#ECECEC"/>
<rect x="290.47" y="314.116" width="38.7141" height="7.0841" rx="3.54205" fill="#ECECEC"/>
<rect x="351.846" y="314.116" width="27.8553" height="7.0841" rx="3.54205" fill="#ECECEC"/>
<rect x="402" y="314" width="40.1305" height="7.0841" rx="3.54205" fill="#ECECEC"/>
<rect x="461" y="314.116" width="40.1305" height="7.0841" rx="3.54205" fill="#ECECEC"/>
<rect x="520" y="314.116" width="7.08185" height="7.0841" rx="3.54093" fill="#ECECEC"/>
<rect x="154" y="222.022" width="35.8814" height="7.0841" rx="3.54205" fill="#FFEFC2"/>
<rect x="219" y="222.022" width="31.6323" height="7.0841" rx="3.54205" fill="#ECECEC"/>
<rect x="290.47" y="222.022" width="38.7141" height="7.0841" rx="3.54205" fill="#ECECEC"/>
<rect x="351.846" y="222.022" width="27.8553" height="7.0841" rx="3.54205" fill="#ECECEC"/>
<rect x="402" y="222" width="40.1305" height="7.0841" rx="3.54205" fill="#ECECEC"/>
<rect x="461" y="222.022" width="40.1305" height="7.0841" rx="3.54205" fill="#ECECEC"/>
<rect x="520" y="222.022" width="7.08185" height="7.0841" rx="3.54093" fill="#ECECEC"/>
<rect x="154" y="258.859" width="35.8814" height="7.0841" rx="3.54205" fill="#BFF3E6"/>
<rect x="219" y="258.859" width="31.6323" height="7.0841" rx="3.54205" fill="#ECECEC"/>
<rect x="290.47" y="258.859" width="38.7141" height="7.0841" rx="3.54205" fill="#ECECEC"/>
<rect x="351.846" y="258.859" width="27.8553" height="7.0841" rx="3.54205" fill="#ECECEC"/>
<rect x="402" y="259" width="40.1305" height="7.0841" rx="3.54205" fill="#ECECEC"/>
<rect x="461" y="258.859" width="40.1305" height="7.0841" rx="3.54205" fill="#ECECEC"/>
<rect x="520" y="258.859" width="7.08185" height="7.0841" rx="3.54093" fill="#ECECEC"/>
<rect x="154" y="295.697" width="35.8814" height="7.0841" rx="3.54205" fill="#BFF3E6"/>
<rect x="219" y="295.697" width="31.6323" height="7.0841" rx="3.54205" fill="#ECECEC"/>
<rect x="290.47" y="295.697" width="38.7141" height="7.0841" rx="3.54205" fill="#ECECEC"/>
<rect x="351.846" y="295.697" width="27.8553" height="7.0841" rx="3.54205" fill="#ECECEC"/>
<rect x="402" y="296" width="40.1305" height="7.0841" rx="3.54205" fill="#ECECEC"/>
<rect x="461" y="295.697" width="40.1305" height="7.0841" rx="3.54205" fill="#ECECEC"/>
<rect x="520" y="295.697" width="7.08185" height="7.0841" rx="3.54093" fill="#ECECEC"/>
<rect x="146.118" y="174.441" width="397.764" height="0.236137" rx="0.118068" fill="white" stroke="#DFDFDF" stroke-width="0.236137"/>
<rect x="207.876" y="151.209" width="46.6845" height="15.0573" rx="3.5" fill="white" stroke="#CFCFCF"/>
<rect x="266.891" y="151.209" width="46.6845" height="15.0573" rx="3.5" fill="white" stroke="#CFCFCF"/>
<rect x="271.585" y="154.959" width="29.2717" height="7.0841" rx="3.54205" fill="#ECECEC"/>
<rect x="212.57" y="154.959" width="29.2717" height="7.0841" rx="3.54205" fill="#ECECEC"/>
<path d="M259.214 165.328V164.157H262.226V165.328H259.214Z" fill="#CFCFCF"/>
<rect x="154.054" y="151.209" width="45.2681" height="15.0573" rx="3.5" fill="white" stroke="#CFCFCF"/>
<rect x="158.747" y="155.904" width="29.2717" height="7.0841" rx="3.54205" fill="#ECECEC"/>
<path d="M192.127 158.638L193.212 159.723L194.297 158.638L194.629 158.97L193.212 160.387L191.795 158.97L192.127 158.638Z" fill="#CFCFCF"/>
<rect x="322.13" y="151.209" width="83.5101" height="15.0573" rx="3.5" fill="white" stroke="#CFCFCF"/>
<path fill-rule="evenodd" clip-rule="evenodd" d="M330.412 159.111H330.676L332.345 160.784L331.846 161.282L330.174 159.613V159.349L330.084 159.255C329.703 159.583 329.208 159.78 328.669 159.78C327.469 159.78 326.496 158.807 326.496 157.606C326.496 156.405 327.469 155.432 328.669 155.432C329.87 155.432 330.843 156.405 330.843 157.606C330.843 158.145 330.646 158.64 330.318 159.021L330.412 159.111ZM327.165 157.606C327.165 158.439 327.837 159.111 328.67 159.111C329.503 159.111 330.175 158.439 330.175 157.606C330.175 156.773 329.503 156.101 328.67 156.101C327.837 156.101 327.165 156.773 327.165 157.606Z" fill="#B1B1B1"/>
<path d="M306.758 158.025H306.282V158.501H306.758V158.025ZM307.699 158.025H307.234V158.501H307.699V158.025ZM308.65 158.025H308.174V158.501H308.65V158.025ZM309.115 156.376H308.883V155.9H308.407V156.376H306.526V155.9H306.05V156.376H305.817C305.677 156.376 305.563 156.424 305.474 156.52C305.386 156.609 305.342 156.719 305.342 156.852V160.151C305.342 160.283 305.386 160.398 305.474 160.494C305.57 160.582 305.685 160.627 305.817 160.627H309.115C309.248 160.627 309.358 160.582 309.447 160.494C309.543 160.398 309.591 160.283 309.591 160.151V156.852C309.591 156.719 309.543 156.609 309.447 156.52C309.358 156.424 309.248 156.376 309.115 156.376ZM309.115 160.151H305.817V157.561H309.115V160.151Z" fill="#CFCFCF"/>
<path d="M247.742 158.025H247.267V158.501H247.742V158.025ZM248.683 158.025H248.218V158.501H248.683V158.025ZM249.635 158.025H249.159V158.501H249.635V158.025ZM250.099 156.376H249.867V155.9H249.391V156.376H247.51V155.9H247.034V156.376H246.802C246.662 156.376 246.547 156.424 246.459 156.52C246.37 156.609 246.326 156.719 246.326 156.852V160.151C246.326 160.283 246.37 160.398 246.459 160.494C246.555 160.582 246.669 160.627 246.802 160.627H250.099C250.232 160.627 250.343 160.582 250.431 160.494C250.527 160.398 250.575 160.283 250.575 160.151V156.852C250.575 156.719 250.527 156.609 250.431 156.52C250.343 156.424 250.232 156.376 250.099 156.376ZM250.099 160.151H246.802V157.561H250.099V160.151Z" fill="#CFCFCF"/>
<rect x="153.672" y="197.11" width="382.656" height="0.236137" rx="0.118068" fill="white" stroke="#DFDFDF" stroke-width="0.236137"/>
<rect x="482" y="151" width="46.7402" height="16.0573" rx="4" fill="#4573FF"/>
<path d="M505.893 161H503.649V157.034H505.893V157.582H504.298V158.661H505.793V159.204H504.298V160.449H505.893V161ZM507.353 159.467L506.346 157.999H507.073L507.757 159.049L508.446 157.999H509.168L508.158 159.467L509.219 161H508.498L507.757 159.877L507.019 161H506.297L507.353 159.467ZM511.268 161.054C510.888 161.054 510.593 160.918 510.383 160.645H510.345C510.37 160.898 510.383 161.052 510.383 161.106V162.335H509.746V157.999H510.261C510.276 158.055 510.305 158.189 510.351 158.401H510.383C510.582 158.097 510.881 157.945 511.278 157.945C511.653 157.945 511.944 158.081 512.152 158.352C512.362 158.623 512.467 159.004 512.467 159.494C512.467 159.984 512.36 160.367 512.147 160.642C511.935 160.917 511.642 161.054 511.268 161.054ZM511.113 158.466C510.86 158.466 510.674 158.54 510.557 158.689C510.441 158.837 510.383 159.074 510.383 159.399V159.494C510.383 159.86 510.441 160.125 510.557 160.289C510.673 160.452 510.862 160.533 511.124 160.533C511.344 160.533 511.514 160.443 511.634 160.262C511.753 160.081 511.813 159.823 511.813 159.489C511.813 159.152 511.753 158.898 511.634 158.726C511.516 158.553 511.343 158.466 511.113 158.466ZM515.869 159.494C515.869 159.984 515.743 160.367 515.492 160.642C515.24 160.917 514.89 161.054 514.442 161.054C514.161 161.054 513.914 160.991 513.698 160.864C513.483 160.738 513.318 160.556 513.202 160.319C513.086 160.082 513.028 159.807 513.028 159.494C513.028 159.008 513.153 158.628 513.403 158.355C513.652 158.082 514.004 157.945 514.458 157.945C514.892 157.945 515.236 158.085 515.489 158.366C515.742 158.644 515.869 159.02 515.869 159.494ZM513.685 159.494C513.685 160.187 513.941 160.533 514.453 160.533C514.959 160.533 515.212 160.187 515.212 159.494C515.212 158.809 514.957 158.466 514.447 158.466C514.18 158.466 513.985 158.555 513.864 158.732C513.745 158.909 513.685 159.163 513.685 159.494ZM518.126 157.945C518.254 157.945 518.36 157.954 518.444 157.972L518.381 158.566C518.291 158.545 518.197 158.534 518.099 158.534C517.844 158.534 517.637 158.617 517.478 158.783C517.32 158.95 517.242 159.166 517.242 159.432V161H516.604V157.999H517.103L517.187 158.528H517.22C517.319 158.349 517.449 158.207 517.608 158.103C517.769 157.998 517.942 157.945 518.126 157.945ZM520.12 160.539C520.276 160.539 520.431 160.514 520.587 160.466V160.946C520.516 160.976 520.425 161.002 520.313 161.022C520.202 161.043 520.088 161.054 519.968 161.054C519.364 161.054 519.062 160.736 519.062 160.099V158.482H518.652V158.2L519.092 157.967L519.309 157.332H519.702V157.999H520.557V158.482H519.702V160.088C519.702 160.242 519.74 160.356 519.816 160.43C519.894 160.503 519.995 160.539 520.12 160.539Z" fill="white"/>
<path fill-rule="evenodd" clip-rule="evenodd" d="M497.45 158.347C497.223 157.197 496.213 156.333 495 156.333C494.037 156.333 493.2 156.88 492.783 157.68C491.78 157.787 491 158.637 491 159.667C491 160.77 491.897 161.667 493 161.667H497.333C498.253 161.667 499 160.92 499 160C499 159.12 498.317 158.407 497.45 158.347ZM497.333 161H493C492.263 161 491.667 160.403 491.667 159.667C491.667 158.983 492.177 158.413 492.853 158.343L493.21 158.307L493.377 157.99C493.693 157.38 494.313 157 495 157C495.873 157 496.627 157.62 496.797 158.477L496.897 158.977L497.407 159.013C497.927 159.047 498.333 159.483 498.333 160C498.333 160.55 497.883 161 497.333 161ZM494.517 158.333H495.483V159.333H496.333L495 160.667L493.667 159.333H494.517V158.333Z" fill="white"/>
<rect x="440.133" y="155.432" width="29.2717" height="7.0841" rx="3.54205" fill="#ECECEC"/>
<rect x="428.92" y="150.355" width="0.236137" height="15.8212" rx="0.118068" fill="white" stroke="#CFCFCF" stroke-width="0.236137"/>
<g filter="url(#filter2_d)">
<rect x="146" y="90" width="195" height="44" rx="4" fill="white"/>
</g>
<g filter="url(#filter3_d)">
<rect x="349" y="90" width="195" height="44" rx="4" fill="white"/>
</g>
<path d="M159.555 107.868H162.73V112.109H165.285L161.142 116.252L157 112.109H159.555V107.868Z" fill="#00BA8A"/>
<path d="M396.234 205H397.766V207.024H399L397 209L395 207.024H396.234V205Z" fill="#00BA8A"/>
<path d="M396.234 260H397.766V262.024H399L397 264L395 262.024H396.234V260Z" fill="#00BA8A"/>
<path d="M396.234 279H397.766V281.024H399L397 283L395 281.024H396.234V279Z" fill="#00BA8A"/>
<path d="M396.234 316H397.766V318.024H399L397 320L395 318.024H396.234V316Z" fill="#00BA8A"/>
<path d="M265.072 117.687C265.072 115.914 265.794 115.027 267.239 115.027C267.466 115.027 267.659 115.044 267.816 115.08V115.687C267.659 115.642 267.477 115.619 267.27 115.619C266.784 115.619 266.419 115.749 266.175 116.01C265.932 116.27 265.799 116.688 265.779 117.262H265.816C265.913 117.095 266.049 116.966 266.225 116.875C266.401 116.782 266.607 116.735 266.845 116.735C267.257 116.735 267.577 116.861 267.806 117.114C268.036 117.366 268.151 117.708 268.151 118.14C268.151 118.615 268.017 118.991 267.751 119.268C267.486 119.543 267.124 119.681 266.665 119.681C266.341 119.681 266.059 119.603 265.819 119.448C265.579 119.291 265.394 119.064 265.264 118.766C265.136 118.466 265.072 118.107 265.072 117.687ZM266.653 119.079C266.903 119.079 267.095 118.999 267.23 118.837C267.366 118.676 267.434 118.446 267.434 118.146C267.434 117.886 267.37 117.681 267.242 117.532C267.116 117.383 266.926 117.309 266.672 117.309C266.514 117.309 266.37 117.343 266.237 117.411C266.105 117.477 266.001 117.569 265.924 117.687C265.848 117.803 265.81 117.922 265.81 118.044C265.81 118.335 265.888 118.581 266.045 118.782C266.204 118.98 266.407 119.079 266.653 119.079Z" fill="#7A7A7A"/>
<path d="M270.219 115.027C270.649 115.027 270.989 115.126 271.239 115.324C271.489 115.521 271.614 115.784 271.614 116.115C271.614 116.58 271.335 116.95 270.777 117.225C271.132 117.403 271.384 117.59 271.533 117.786C271.684 117.983 271.76 118.202 271.76 118.444C271.76 118.818 271.622 119.118 271.347 119.343C271.072 119.568 270.7 119.681 270.231 119.681C269.739 119.681 269.358 119.575 269.087 119.365C268.816 119.154 268.681 118.855 268.681 118.468C268.681 118.216 268.751 117.99 268.892 117.789C269.034 117.587 269.267 117.407 269.589 117.25C269.312 117.085 269.115 116.91 268.997 116.726C268.879 116.542 268.82 116.335 268.82 116.106C268.82 115.777 268.949 115.516 269.208 115.321C269.466 115.125 269.803 115.027 270.219 115.027ZM269.378 118.444C269.378 118.659 269.454 118.826 269.605 118.946C269.756 119.064 269.96 119.123 270.219 119.123C270.485 119.123 270.692 119.062 270.839 118.94C270.988 118.816 271.062 118.648 271.062 118.437C271.062 118.27 270.994 118.117 270.857 117.979C270.721 117.84 270.514 117.712 270.237 117.594L270.147 117.554C269.874 117.674 269.678 117.806 269.558 117.951C269.438 118.093 269.378 118.258 269.378 118.444ZM270.212 115.588C270.006 115.588 269.839 115.64 269.713 115.743C269.587 115.844 269.524 115.983 269.524 116.159C269.524 116.266 269.547 116.362 269.592 116.447C269.638 116.532 269.704 116.609 269.791 116.679C269.878 116.748 270.024 116.83 270.231 116.927C270.479 116.818 270.654 116.703 270.755 116.583C270.858 116.461 270.91 116.32 270.91 116.159C270.91 115.983 270.846 115.844 270.718 115.743C270.592 115.64 270.423 115.588 270.212 115.588Z" fill="#7A7A7A"/>
<path d="M275.381 117.02C275.381 117.913 275.201 118.58 274.842 119.02C274.482 119.461 273.94 119.681 273.217 119.681C272.942 119.681 272.745 119.664 272.625 119.631V119.02C272.809 119.072 272.994 119.098 273.18 119.098C273.672 119.098 274.039 118.966 274.28 118.701C274.522 118.436 274.655 118.021 274.677 117.455H274.64C274.518 117.641 274.37 117.775 274.197 117.858C274.025 117.94 273.824 117.982 273.592 117.982C273.191 117.982 272.876 117.857 272.646 117.606C272.417 117.356 272.302 117.013 272.302 116.577C272.302 116.104 272.435 115.728 272.699 115.448C272.966 115.167 273.329 115.027 273.787 115.027C274.11 115.027 274.391 115.105 274.631 115.262C274.871 115.42 275.056 115.648 275.186 115.948C275.316 116.245 275.381 116.603 275.381 117.02ZM273.8 115.631C273.548 115.631 273.354 115.714 273.22 115.879C273.086 116.043 273.018 116.273 273.018 116.571C273.018 116.829 273.08 117.033 273.204 117.182C273.331 117.328 273.521 117.402 273.775 117.402C274.021 117.402 274.228 117.328 274.395 117.182C274.563 117.035 274.646 116.863 274.646 116.667C274.646 116.483 274.61 116.311 274.538 116.152C274.467 115.991 274.368 115.864 274.24 115.771C274.112 115.678 273.965 115.631 273.8 115.631Z" fill="#7A7A7A"/>
<path d="M279.015 117.352C279.015 118.14 278.888 118.725 278.634 119.107C278.381 119.49 277.995 119.681 277.474 119.681C276.97 119.681 276.587 119.483 276.327 119.089C276.066 118.694 275.936 118.115 275.936 117.352C275.936 116.552 276.062 115.963 276.314 115.585C276.569 115.205 276.955 115.014 277.474 115.014C277.98 115.014 278.364 115.213 278.624 115.61C278.885 116.007 279.015 116.587 279.015 117.352ZM276.674 117.352C276.674 117.97 276.737 118.412 276.863 118.676C276.991 118.941 277.195 119.073 277.474 119.073C277.753 119.073 277.957 118.939 278.085 118.67C278.215 118.401 278.28 117.962 278.28 117.352C278.28 116.745 278.215 116.305 278.085 116.034C277.957 115.762 277.753 115.625 277.474 115.625C277.195 115.625 276.991 115.759 276.863 116.025C276.737 116.292 276.674 116.734 276.674 117.352Z" fill="#7A7A7A"/>
<path d="M170.693 120.428V114.762H171.895V120.428H170.693Z" fill="#777777"/>
<path d="M178.022 117.541C178.022 118.473 177.756 119.188 177.224 119.684C176.694 120.18 175.928 120.428 174.926 120.428H173.321V114.762H175.1C176.025 114.762 176.743 115.006 177.255 115.494C177.767 115.983 178.022 116.665 178.022 117.541ZM176.774 117.572C176.774 116.355 176.237 115.746 175.162 115.746H174.523V119.436H175.038C176.196 119.436 176.774 118.815 176.774 117.572Z" fill="#777777"/>
<path d="M180.398 117.277H180.786C181.166 117.277 181.446 117.214 181.627 117.087C181.808 116.961 181.898 116.762 181.898 116.49C181.898 116.222 181.805 116.03 181.619 115.917C181.436 115.803 181.15 115.746 180.762 115.746H180.398V117.277ZM180.398 118.254V120.428H179.197V114.762H180.848C181.618 114.762 182.187 114.903 182.557 115.184C182.926 115.463 183.111 115.888 183.111 116.459C183.111 116.793 183.019 117.09 182.836 117.351C182.653 117.609 182.393 117.812 182.057 117.959C182.91 119.233 183.465 120.056 183.724 120.428H182.39L181.038 118.254H180.398Z" fill="#777777"/>
<path d="M188.727 120.428L190.855 115.777H188.06V114.77H192.126V115.521L189.983 120.428H188.727Z" fill="#777777"/>
<path d="M194.653 114.688C195.196 114.688 195.632 114.812 195.963 115.06C196.296 115.306 196.463 115.638 196.463 116.056C196.463 116.346 196.383 116.604 196.223 116.831C196.063 117.056 195.804 117.258 195.448 117.436C195.871 117.663 196.175 117.901 196.358 118.149C196.544 118.395 196.637 118.665 196.637 118.959C196.637 119.424 196.455 119.799 196.091 120.083C195.727 120.365 195.247 120.506 194.653 120.506C194.033 120.506 193.546 120.374 193.192 120.11C192.838 119.847 192.661 119.473 192.661 118.99C192.661 118.667 192.746 118.38 192.917 118.13C193.09 117.879 193.366 117.658 193.746 117.467C193.423 117.263 193.191 117.045 193.049 116.812C192.906 116.58 192.835 116.325 192.835 116.049C192.835 115.643 193.003 115.315 193.339 115.064C193.675 114.813 194.113 114.688 194.653 114.688ZM193.769 118.92C193.769 119.143 193.847 119.316 194.002 119.44C194.157 119.564 194.369 119.626 194.638 119.626C194.935 119.626 195.157 119.563 195.304 119.436C195.452 119.307 195.525 119.138 195.525 118.928C195.525 118.755 195.452 118.594 195.304 118.444C195.16 118.291 194.923 118.13 194.595 117.959C194.045 118.213 193.769 118.533 193.769 118.92ZM194.645 115.564C194.441 115.564 194.276 115.617 194.149 115.723C194.025 115.826 193.963 115.966 193.963 116.142C193.963 116.297 194.012 116.436 194.111 116.56C194.211 116.682 194.392 116.807 194.653 116.936C194.906 116.817 195.083 116.696 195.184 116.572C195.285 116.448 195.335 116.304 195.335 116.142C195.335 115.963 195.271 115.822 195.141 115.719C195.012 115.616 194.847 115.564 194.645 115.564Z" fill="#777777"/>
<path d="M201.164 117.595C201.164 118.585 201.002 119.317 200.676 119.793C200.353 120.268 199.854 120.506 199.18 120.506C198.526 120.506 198.033 120.26 197.699 119.769C197.369 119.278 197.203 118.554 197.203 117.595C197.203 116.595 197.365 115.859 197.688 115.386C198.011 114.91 198.508 114.673 199.18 114.673C199.834 114.673 200.327 114.921 200.66 115.417C200.996 115.913 201.164 116.639 201.164 117.595ZM198.393 117.595C198.393 118.29 198.453 118.789 198.571 119.091C198.693 119.391 198.896 119.541 199.18 119.541C199.459 119.541 199.661 119.388 199.785 119.083C199.909 118.778 199.971 118.282 199.971 117.595C199.971 116.9 199.907 116.401 199.781 116.099C199.657 115.794 199.456 115.642 199.18 115.642C198.898 115.642 198.697 115.794 198.575 116.099C198.454 116.401 198.393 116.9 198.393 117.595Z" fill="#777777"/>
<path d="M201.905 119.874C201.905 119.657 201.963 119.493 202.079 119.382C202.195 119.271 202.365 119.215 202.587 119.215C202.801 119.215 202.967 119.272 203.083 119.386C203.202 119.499 203.261 119.662 203.261 119.874C203.261 120.078 203.202 120.24 203.083 120.358C202.964 120.475 202.799 120.533 202.587 120.533C202.37 120.533 202.202 120.476 202.083 120.362C201.964 120.246 201.905 120.083 201.905 119.874Z" fill="#777777"/>
<path d="M207.962 117.595C207.962 118.585 207.8 119.317 207.474 119.793C207.151 120.268 206.652 120.506 205.978 120.506C205.324 120.506 204.831 120.26 204.497 119.769C204.167 119.278 204.001 118.554 204.001 117.595C204.001 116.595 204.163 115.859 204.486 115.386C204.809 114.91 205.306 114.673 205.978 114.673C206.632 114.673 207.125 114.921 207.459 115.417C207.794 115.913 207.962 116.639 207.962 117.595ZM205.191 117.595C205.191 118.29 205.251 118.789 205.37 119.091C205.491 119.391 205.694 119.541 205.978 119.541C206.257 119.541 206.459 119.388 206.583 119.083C206.707 118.778 206.769 118.282 206.769 117.595C206.769 116.9 206.705 116.401 206.579 116.099C206.455 115.794 206.254 115.642 205.978 115.642C205.696 115.642 205.495 115.794 205.373 116.099C205.252 116.401 205.191 116.9 205.191 117.595Z" fill="#777777"/>
<path d="M212.497 117.595C212.497 118.585 212.334 119.317 212.009 119.793C211.686 120.268 211.187 120.506 210.513 120.506C209.859 120.506 209.365 120.26 209.032 119.769C208.701 119.278 208.536 118.554 208.536 117.595C208.536 116.595 208.697 115.859 209.02 115.386C209.343 114.91 209.841 114.673 210.513 114.673C211.166 114.673 211.66 114.921 211.993 115.417C212.329 115.913 212.497 116.639 212.497 117.595ZM209.726 117.595C209.726 118.29 209.785 118.789 209.904 119.091C210.026 119.391 210.228 119.541 210.513 119.541C210.792 119.541 210.993 119.388 211.117 119.083C211.241 118.778 211.303 118.282 211.303 117.595C211.303 116.9 211.24 116.401 211.113 116.099C210.989 115.794 210.789 115.642 210.513 115.642C210.231 115.642 210.029 115.794 209.908 116.099C209.787 116.401 209.726 116.9 209.726 117.595Z" fill="#777777"/>
<path d="M217.032 117.595C217.032 118.585 216.869 119.317 216.543 119.793C216.22 120.268 215.722 120.506 215.047 120.506C214.394 120.506 213.9 120.26 213.567 119.769C213.236 119.278 213.071 118.554 213.071 117.595C213.071 116.595 213.232 115.859 213.555 115.386C213.878 114.91 214.375 114.673 215.047 114.673C215.701 114.673 216.194 114.921 216.528 115.417C216.864 115.913 217.032 116.639 217.032 117.595ZM214.26 117.595C214.26 118.29 214.32 118.789 214.439 119.091C214.56 119.391 214.763 119.541 215.047 119.541C215.326 119.541 215.528 119.388 215.652 119.083C215.776 118.778 215.838 118.282 215.838 117.595C215.838 116.9 215.775 116.401 215.648 116.099C215.524 115.794 215.324 115.642 215.047 115.642C214.766 115.642 214.564 115.794 214.443 116.099C214.321 116.401 214.26 116.9 214.26 117.595Z" fill="#777777"/>
<path d="M217.772 119.874C217.772 119.657 217.83 119.493 217.946 119.382C218.063 119.271 218.232 119.215 218.454 119.215C218.668 119.215 218.834 119.272 218.95 119.386C219.069 119.499 219.128 119.662 219.128 119.874C219.128 120.078 219.069 120.24 218.95 120.358C218.831 120.475 218.666 120.533 218.454 120.533C218.237 120.533 218.069 120.476 217.95 120.362C217.831 120.246 217.772 120.083 217.772 119.874Z" fill="#777777"/>
<path d="M223.83 117.595C223.83 118.585 223.667 119.317 223.341 119.793C223.018 120.268 222.52 120.506 221.845 120.506C221.192 120.506 220.698 120.26 220.365 119.769C220.034 119.278 219.869 118.554 219.869 117.595C219.869 116.595 220.03 115.859 220.353 115.386C220.676 114.91 221.173 114.673 221.845 114.673C222.499 114.673 222.992 114.921 223.326 115.417C223.662 115.913 223.83 116.639 223.83 117.595ZM221.058 117.595C221.058 118.29 221.118 118.789 221.237 119.091C221.358 119.391 221.561 119.541 221.845 119.541C222.124 119.541 222.326 119.388 222.45 119.083C222.574 118.778 222.636 118.282 222.636 117.595C222.636 116.9 222.573 116.401 222.446 116.099C222.322 115.794 222.122 115.642 221.845 115.642C221.564 115.642 221.362 115.794 221.241 116.099C221.119 116.401 221.058 116.9 221.058 117.595Z" fill="#777777"/>
<path d="M228.364 117.595C228.364 118.585 228.201 119.317 227.876 119.793C227.553 120.268 227.054 120.506 226.38 120.506C225.726 120.506 225.233 120.26 224.899 119.769C224.569 119.278 224.403 118.554 224.403 117.595C224.403 116.595 224.565 115.859 224.888 115.386C225.211 114.91 225.708 114.673 226.38 114.673C227.034 114.673 227.527 114.921 227.86 115.417C228.196 115.913 228.364 116.639 228.364 117.595ZM225.593 117.595C225.593 118.29 225.653 118.789 225.771 119.091C225.893 119.391 226.096 119.541 226.38 119.541C226.659 119.541 226.86 119.388 226.984 119.083C227.108 118.778 227.171 118.282 227.171 117.595C227.171 116.9 227.107 116.401 226.981 116.099C226.857 115.794 226.656 115.642 226.38 115.642C226.098 115.642 225.897 115.794 225.775 116.099C225.654 116.401 225.593 116.9 225.593 117.595Z" fill="#777777"/>
<path d="M232.899 117.595C232.899 118.585 232.736 119.317 232.41 119.793C232.088 120.268 231.589 120.506 230.914 120.506C230.261 120.506 229.767 120.26 229.434 119.769C229.103 119.278 228.938 118.554 228.938 117.595C228.938 116.595 229.099 115.859 229.422 115.386C229.745 114.91 230.243 114.673 230.914 114.673C231.568 114.673 232.062 114.921 232.395 115.417C232.731 115.913 232.899 116.639 232.899 117.595ZM230.128 117.595C230.128 118.29 230.187 118.789 230.306 119.091C230.427 119.391 230.63 119.541 230.914 119.541C231.194 119.541 231.395 119.388 231.519 119.083C231.643 118.778 231.705 118.282 231.705 117.595C231.705 116.9 231.642 116.401 231.515 116.099C231.391 115.794 231.191 115.642 230.914 115.642C230.633 115.642 230.431 115.794 230.31 116.099C230.188 116.401 230.128 116.9 230.128 117.595Z" fill="#777777"/>
<path d="M171.874 108.3H171.225V104.89H170.059V104.334H173.04V104.89H171.874V108.3Z" fill="#777777"/>
<path d="M176.244 106.794C176.244 107.284 176.119 107.667 175.867 107.942C175.616 108.217 175.266 108.354 174.817 108.354C174.537 108.354 174.289 108.291 174.074 108.164C173.859 108.038 173.693 107.856 173.577 107.619C173.462 107.382 173.404 107.107 173.404 106.794C173.404 106.308 173.529 105.928 173.778 105.655C174.028 105.382 174.379 105.245 174.833 105.245C175.268 105.245 175.611 105.385 175.864 105.666C176.118 105.944 176.244 106.32 176.244 106.794ZM174.06 106.794C174.06 107.487 174.316 107.833 174.828 107.833C175.334 107.833 175.588 107.487 175.588 106.794C175.588 106.109 175.333 105.766 174.823 105.766C174.555 105.766 174.36 105.855 174.239 106.032C174.12 106.209 174.06 106.463 174.06 106.794Z" fill="#777777"/>
<path d="M178.097 107.839C178.253 107.839 178.408 107.814 178.564 107.766V108.246C178.493 108.277 178.402 108.302 178.29 108.322C178.18 108.343 178.065 108.354 177.945 108.354C177.341 108.354 177.039 108.036 177.039 107.399V105.782H176.629V105.5L177.069 105.267L177.286 104.632H177.679V105.299H178.534V105.782H177.679V107.388C177.679 107.542 177.717 107.656 177.793 107.73C177.871 107.803 177.972 107.839 178.097 107.839Z" fill="#777777"/>
<path d="M181.044 108.3L180.916 107.882H180.894C180.75 108.065 180.604 108.19 180.458 108.257C180.311 108.322 180.123 108.354 179.893 108.354C179.598 108.354 179.368 108.275 179.201 108.116C179.037 107.956 178.955 107.731 178.955 107.44C178.955 107.131 179.069 106.897 179.299 106.74C179.529 106.583 179.879 106.497 180.349 106.482L180.867 106.466V106.306C180.867 106.114 180.822 105.971 180.732 105.877C180.643 105.781 180.505 105.734 180.316 105.734C180.163 105.734 180.015 105.756 179.874 105.801C179.733 105.847 179.598 105.9 179.467 105.961L179.261 105.506C179.424 105.421 179.602 105.356 179.796 105.313C179.989 105.268 180.172 105.245 180.344 105.245C180.725 105.245 181.013 105.328 181.206 105.495C181.402 105.661 181.499 105.923 181.499 106.279V108.3H181.044ZM180.094 107.866C180.326 107.866 180.511 107.802 180.65 107.673C180.791 107.543 180.862 107.361 180.862 107.128V106.868L180.477 106.884C180.176 106.895 179.957 106.945 179.82 107.036C179.684 107.124 179.617 107.261 179.617 107.445C179.617 107.579 179.656 107.683 179.736 107.757C179.815 107.83 179.935 107.866 180.094 107.866Z" fill="#777777"/>
<path d="M183.027 108.3H182.389V104.079H183.027V108.3Z" fill="#777777"/>
<path d="M185.452 108.3V104.334H186.101V108.3H185.452Z" fill="#777777"/>
<path d="M189.722 108.3H189.082V106.455C189.082 106.224 189.035 106.051 188.941 105.937C188.849 105.823 188.701 105.766 188.499 105.766C188.229 105.766 188.032 105.846 187.907 106.005C187.783 106.164 187.72 106.431 187.72 106.805V108.3H187.083V105.299H187.582L187.671 105.693H187.704C187.794 105.55 187.923 105.44 188.089 105.362C188.256 105.284 188.44 105.245 188.643 105.245C189.363 105.245 189.722 105.611 189.722 106.344V108.3Z" fill="#777777"/>
<path d="M191.82 108.354C191.366 108.354 191.02 108.222 190.783 107.958C190.548 107.692 190.431 107.312 190.431 106.816C190.431 106.311 190.554 105.923 190.8 105.652C191.047 105.381 191.405 105.245 191.871 105.245C192.188 105.245 192.473 105.304 192.726 105.422L192.533 105.934C192.264 105.829 192.041 105.777 191.866 105.777C191.347 105.777 191.087 106.122 191.087 106.811C191.087 107.147 191.151 107.4 191.28 107.57C191.41 107.738 191.6 107.823 191.849 107.823C192.133 107.823 192.402 107.752 192.655 107.611V108.167C192.541 108.234 192.419 108.282 192.289 108.311C192.161 108.34 192.004 108.354 191.82 108.354Z" fill="#777777"/>
<path d="M196.022 106.794C196.022 107.284 195.896 107.667 195.645 107.942C195.394 108.217 195.044 108.354 194.595 108.354C194.315 108.354 194.067 108.291 193.852 108.164C193.636 108.038 193.471 107.856 193.355 107.619C193.239 107.382 193.182 107.107 193.182 106.794C193.182 106.308 193.306 105.928 193.556 105.655C193.806 105.382 194.157 105.245 194.611 105.245C195.045 105.245 195.389 105.385 195.642 105.666C195.895 105.944 196.022 106.32 196.022 106.794ZM193.838 106.794C193.838 107.487 194.094 107.833 194.606 107.833C195.112 107.833 195.366 107.487 195.366 106.794C195.366 106.109 195.111 105.766 194.6 105.766C194.333 105.766 194.138 105.855 194.017 106.032C193.898 106.209 193.838 106.463 193.838 106.794Z" fill="#777777"/>
<path d="M199.286 108.3H198.646V106.45C198.646 106.22 198.602 106.049 198.515 105.937C198.429 105.823 198.293 105.766 198.108 105.766C197.862 105.766 197.682 105.847 197.566 106.008C197.452 106.167 197.395 106.433 197.395 106.805V108.3H196.757V105.299H197.257L197.346 105.693H197.379C197.462 105.55 197.582 105.44 197.739 105.362C197.899 105.284 198.073 105.245 198.263 105.245C198.724 105.245 199.03 105.403 199.18 105.717H199.223C199.312 105.569 199.437 105.453 199.598 105.37C199.759 105.287 199.943 105.245 200.151 105.245C200.509 105.245 200.77 105.336 200.933 105.517C201.097 105.697 201.18 105.973 201.18 106.344V108.3H200.542V106.45C200.542 106.22 200.498 106.049 200.409 105.937C200.322 105.823 200.187 105.766 200.002 105.766C199.754 105.766 199.573 105.844 199.457 105.999C199.343 106.153 199.286 106.39 199.286 106.71V108.3Z" fill="#777777"/>
<path d="M202.707 108.3H202.069V105.299H202.707V108.3ZM202.031 104.505C202.031 104.391 202.062 104.303 202.124 104.241C202.187 104.18 202.276 104.149 202.392 104.149C202.504 104.149 202.591 104.18 202.653 104.241C202.716 104.303 202.748 104.391 202.748 104.505C202.748 104.613 202.716 104.699 202.653 104.762C202.591 104.824 202.504 104.855 202.392 104.855C202.276 104.855 202.187 104.824 202.124 104.762C202.062 104.699 202.031 104.613 202.031 104.505Z" fill="#777777"/>
<path d="M206.261 108.3H205.621V106.455C205.621 106.224 205.574 106.051 205.48 105.937C205.387 105.823 205.24 105.766 205.037 105.766C204.768 105.766 204.571 105.846 204.446 106.005C204.321 106.164 204.259 106.431 204.259 106.805V108.3H203.621V105.299H204.12L204.21 105.693H204.243C204.333 105.55 204.461 105.44 204.628 105.362C204.794 105.284 204.979 105.245 205.181 105.245C205.901 105.245 206.261 105.611 206.261 106.344V108.3Z" fill="#777777"/>
<path d="M209.682 105.299V105.649L209.169 105.744C209.216 105.808 209.255 105.885 209.286 105.978C209.317 106.07 209.332 106.168 209.332 106.271C209.332 106.58 209.225 106.823 209.012 107.001C208.799 107.178 208.505 107.266 208.13 107.266C208.034 107.266 207.948 107.259 207.87 107.245C207.732 107.33 207.664 107.429 207.664 107.543C207.664 107.612 207.695 107.663 207.759 107.698C207.824 107.732 207.942 107.749 208.114 107.749H208.638C208.969 107.749 209.22 107.82 209.392 107.961C209.564 108.102 209.65 108.305 209.65 108.571C209.65 108.911 209.509 109.174 209.229 109.358C208.949 109.543 208.544 109.635 208.014 109.635C207.605 109.635 207.293 109.563 207.078 109.418C206.862 109.273 206.755 109.067 206.755 108.799C206.755 108.615 206.813 108.459 206.928 108.333C207.046 108.208 207.21 108.121 207.419 108.072C207.334 108.036 207.264 107.978 207.208 107.899C207.154 107.817 207.126 107.732 207.126 107.644C207.126 107.531 207.158 107.436 207.221 107.359C207.285 107.281 207.379 107.204 207.504 107.128C207.348 107.061 207.221 106.953 207.124 106.802C207.028 106.651 206.98 106.473 206.98 106.271C206.98 105.945 207.082 105.693 207.287 105.514C207.493 105.335 207.786 105.245 208.166 105.245C208.251 105.245 208.339 105.252 208.431 105.264C208.525 105.275 208.596 105.287 208.643 105.299H209.682ZM207.325 108.767C207.325 108.904 207.386 109.01 207.509 109.084C207.634 109.158 207.808 109.195 208.033 109.195C208.38 109.195 208.639 109.146 208.809 109.046C208.979 108.947 209.064 108.815 209.064 108.65C209.064 108.52 209.017 108.427 208.922 108.371C208.83 108.316 208.658 108.289 208.404 108.289H207.921C207.739 108.289 207.593 108.332 207.485 108.417C207.378 108.504 207.325 108.62 207.325 108.767ZM207.599 106.271C207.599 106.459 207.646 106.604 207.742 106.705C207.84 106.806 207.979 106.857 208.16 106.857C208.529 106.857 208.714 106.66 208.714 106.265C208.714 106.07 208.667 105.92 208.575 105.815C208.485 105.708 208.346 105.655 208.16 105.655C207.976 105.655 207.835 105.707 207.74 105.812C207.646 105.917 207.599 106.07 207.599 106.271Z" fill="#777777"/>
<path d="M214.213 108.3L213.817 107.199H212.3L211.912 108.3H211.229L212.713 104.317H213.418L214.902 108.3H214.213ZM213.646 106.64L213.274 105.56C213.247 105.488 213.209 105.374 213.16 105.218C213.113 105.063 213.081 104.949 213.063 104.876C213.014 105.099 212.942 105.342 212.848 105.606L212.49 106.64H213.646Z" fill="#777777"/>
<path d="M217.886 108.3H217.246V106.45C217.246 106.22 217.203 106.049 217.116 105.937C217.029 105.823 216.893 105.766 216.709 105.766C216.463 105.766 216.282 105.847 216.166 106.008C216.052 106.167 215.995 106.433 215.995 106.805V108.3H215.358V105.299H215.857L215.946 105.693H215.979C216.062 105.55 216.182 105.44 216.34 105.362C216.499 105.284 216.674 105.245 216.863 105.245C217.325 105.245 217.63 105.403 217.78 105.717H217.824C217.912 105.569 218.037 105.453 218.198 105.37C218.359 105.287 218.544 105.245 218.752 105.245C219.11 105.245 219.37 105.336 219.533 105.517C219.698 105.697 219.78 105.973 219.78 106.344V108.3H219.142V106.45C219.142 106.22 219.098 106.049 219.009 105.937C218.923 105.823 218.787 105.766 218.603 105.766C218.355 105.766 218.173 105.844 218.057 105.999C217.943 106.153 217.886 106.39 217.886 106.71V108.3Z" fill="#777777"/>
<path d="M223.331 106.794C223.331 107.284 223.206 107.667 222.954 107.942C222.703 108.217 222.353 108.354 221.904 108.354C221.624 108.354 221.376 108.291 221.161 108.164C220.946 108.038 220.78 107.856 220.664 107.619C220.549 107.382 220.491 107.107 220.491 106.794C220.491 106.308 220.616 105.928 220.865 105.655C221.115 105.382 221.467 105.245 221.921 105.245C222.355 105.245 222.698 105.385 222.951 105.666C223.205 105.944 223.331 106.32 223.331 106.794ZM221.147 106.794C221.147 107.487 221.403 107.833 221.915 107.833C222.422 107.833 222.675 107.487 222.675 106.794C222.675 106.109 222.42 105.766 221.91 105.766C221.642 105.766 221.448 105.855 221.326 106.032C221.207 106.209 221.147 106.463 221.147 106.794Z" fill="#777777"/>
<path d="M226.183 108.3L226.093 107.907H226.061C225.972 108.046 225.845 108.155 225.681 108.235C225.518 108.315 225.332 108.354 225.122 108.354C224.758 108.354 224.487 108.264 224.308 108.083C224.129 107.902 224.039 107.628 224.039 107.261V105.299H224.682V107.15C224.682 107.379 224.729 107.552 224.823 107.668C224.917 107.782 225.065 107.839 225.266 107.839C225.533 107.839 225.73 107.759 225.854 107.6C225.981 107.439 226.044 107.171 226.044 106.794V105.299H226.685V108.3H226.183Z" fill="#777777"/>
<path d="M230.233 108.3H229.593V106.455C229.593 106.224 229.546 106.051 229.452 105.937C229.36 105.823 229.212 105.766 229.01 105.766C228.74 105.766 228.543 105.846 228.418 106.005C228.293 106.164 228.231 106.431 228.231 106.805V108.3H227.593V105.299H228.093L228.182 105.693H228.215C228.305 105.55 228.434 105.44 228.6 105.362C228.766 105.284 228.951 105.245 229.153 105.245C229.873 105.245 230.233 105.611 230.233 106.344V108.3Z" fill="#777777"/>
<path d="M232.238 107.839C232.394 107.839 232.549 107.814 232.705 107.766V108.246C232.634 108.277 232.543 108.302 232.431 108.322C232.32 108.343 232.206 108.354 232.086 108.354C231.482 108.354 231.18 108.036 231.18 107.399V105.782H230.77V105.5L231.21 105.267L231.427 104.632H231.82V105.299H232.675V105.782H231.82V107.388C231.82 107.542 231.858 107.656 231.934 107.73C232.012 107.803 232.113 107.839 232.238 107.839Z" fill="#777777"/>
<path d="M265.943 108.3H265.295V104.89H264.128V104.334H267.11V104.89H265.943V108.3Z" fill="#777777"/>
<path d="M269.174 105.245C269.303 105.245 269.409 105.254 269.492 105.272L269.43 105.866C269.339 105.845 269.245 105.834 269.147 105.834C268.892 105.834 268.685 105.917 268.526 106.084C268.369 106.25 268.29 106.466 268.29 106.732V108.3H267.652V105.299H268.152L268.236 105.829H268.268C268.368 105.649 268.497 105.507 268.656 105.403C268.817 105.298 268.99 105.245 269.174 105.245Z" fill="#777777"/>
<path d="M271.928 108.3L271.801 107.882H271.779C271.634 108.065 271.489 108.19 271.342 108.257C271.196 108.322 271.008 108.354 270.778 108.354C270.483 108.354 270.252 108.275 270.086 108.116C269.921 107.956 269.839 107.731 269.839 107.44C269.839 107.131 269.954 106.897 270.184 106.74C270.413 106.583 270.763 106.497 271.234 106.482L271.752 106.466V106.306C271.752 106.114 271.707 105.971 271.616 105.877C271.528 105.781 271.389 105.734 271.201 105.734C271.047 105.734 270.9 105.756 270.759 105.801C270.618 105.847 270.482 105.9 270.352 105.961L270.146 105.506C270.309 105.421 270.487 105.356 270.68 105.313C270.874 105.268 271.056 105.245 271.228 105.245C271.61 105.245 271.897 105.328 272.091 105.495C272.286 105.661 272.384 105.923 272.384 106.279V108.3H271.928ZM270.979 107.866C271.21 107.866 271.396 107.802 271.535 107.673C271.676 107.543 271.746 107.361 271.746 107.128V106.868L271.361 106.884C271.061 106.895 270.842 106.945 270.705 107.036C270.569 107.124 270.501 107.261 270.501 107.445C270.501 107.579 270.541 107.683 270.621 107.757C270.7 107.83 270.819 107.866 270.979 107.866Z" fill="#777777"/>
<path d="M275.914 108.3H275.273V106.455C275.273 106.224 275.226 106.051 275.132 105.937C275.04 105.823 274.893 105.766 274.69 105.766C274.421 105.766 274.223 105.846 274.099 106.005C273.974 106.164 273.911 106.431 273.911 106.805V108.3H273.274V105.299H273.773L273.863 105.693H273.895C273.986 105.55 274.114 105.44 274.28 105.362C274.447 105.284 274.631 105.245 274.834 105.245C275.554 105.245 275.914 105.611 275.914 106.344V108.3Z" fill="#777777"/>
<path d="M278.817 107.445C278.817 107.738 278.71 107.964 278.496 108.121C278.283 108.277 277.977 108.354 277.579 108.354C277.18 108.354 276.859 108.294 276.616 108.173V107.622C276.969 107.785 277.297 107.866 277.601 107.866C277.994 107.866 278.19 107.748 278.19 107.511C278.19 107.435 278.168 107.371 278.125 107.321C278.081 107.27 278.01 107.218 277.91 107.163C277.811 107.109 277.673 107.048 277.495 106.979C277.15 106.845 276.916 106.711 276.793 106.577C276.671 106.443 276.611 106.27 276.611 106.056C276.611 105.8 276.714 105.601 276.92 105.46C277.128 105.317 277.41 105.245 277.767 105.245C278.119 105.245 278.453 105.317 278.768 105.46L278.562 105.94C278.238 105.806 277.966 105.739 277.745 105.739C277.408 105.739 277.24 105.835 277.24 106.027C277.24 106.121 277.284 106.2 277.371 106.265C277.459 106.33 277.651 106.42 277.946 106.534C278.193 106.63 278.373 106.717 278.486 106.797C278.598 106.877 278.681 106.969 278.735 107.074C278.789 107.177 278.817 107.301 278.817 107.445Z" fill="#777777"/>
<path d="M281.386 108.3L281.258 107.882H281.237C281.092 108.065 280.946 108.19 280.8 108.257C280.653 108.322 280.465 108.354 280.235 108.354C279.941 108.354 279.71 108.275 279.544 108.116C279.379 107.956 279.297 107.731 279.297 107.44C279.297 107.131 279.412 106.897 279.641 106.74C279.871 106.583 280.221 106.497 280.691 106.482L281.209 106.466V106.306C281.209 106.114 281.164 105.971 281.074 105.877C280.985 105.781 280.847 105.734 280.659 105.734C280.505 105.734 280.358 105.756 280.216 105.801C280.075 105.847 279.94 105.9 279.81 105.961L279.603 105.506C279.766 105.421 279.944 105.356 280.138 105.313C280.331 105.268 280.514 105.245 280.686 105.245C281.067 105.245 281.355 105.328 281.549 105.495C281.744 105.661 281.842 105.923 281.842 106.279V108.3H281.386ZM280.436 107.866C280.668 107.866 280.853 107.802 280.992 107.673C281.133 107.543 281.204 107.361 281.204 107.128V106.868L280.819 106.884C280.519 106.895 280.3 106.945 280.162 107.036C280.027 107.124 279.959 107.261 279.959 107.445C279.959 107.579 279.999 107.683 280.078 107.757C280.158 107.83 280.277 107.866 280.436 107.866Z" fill="#777777"/>
<path d="M283.941 108.354C283.487 108.354 283.142 108.222 282.905 107.958C282.67 107.692 282.552 107.312 282.552 106.816C282.552 106.311 282.675 105.923 282.921 105.652C283.169 105.381 283.526 105.245 283.993 105.245C284.309 105.245 284.594 105.304 284.848 105.422L284.655 105.934C284.385 105.829 284.163 105.777 283.988 105.777C283.468 105.777 283.209 106.122 283.209 106.811C283.209 107.147 283.273 107.4 283.402 107.57C283.532 107.738 283.722 107.823 283.971 107.823C284.255 107.823 284.524 107.752 284.777 107.611V108.167C284.663 108.234 284.541 108.282 284.411 108.311C284.282 108.34 284.126 108.354 283.941 108.354Z" fill="#777777"/>
<path d="M286.6 107.839C286.756 107.839 286.911 107.814 287.067 107.766V108.246C286.996 108.277 286.905 108.302 286.793 108.322C286.682 108.343 286.568 108.354 286.448 108.354C285.844 108.354 285.542 108.036 285.542 107.399V105.782H285.132V105.5L285.572 105.267L285.789 104.632H286.182V105.299H287.037V105.782H286.182V107.388C286.182 107.542 286.22 107.656 286.296 107.73C286.374 107.803 286.475 107.839 286.6 107.839Z" fill="#777777"/>
<path d="M288.307 108.3H287.669V105.299H288.307V108.3ZM287.631 104.505C287.631 104.391 287.662 104.303 287.723 104.241C287.787 104.18 287.876 104.149 287.992 104.149C288.104 104.149 288.191 104.18 288.252 104.241C288.316 104.303 288.347 104.391 288.347 104.505C288.347 104.613 288.316 104.699 288.252 104.762C288.191 104.824 288.104 104.855 287.992 104.855C287.876 104.855 287.787 104.824 287.723 104.762C287.662 104.699 287.631 104.613 287.631 104.505Z" fill="#777777"/>
<path d="M291.882 106.794C291.882 107.284 291.757 107.667 291.505 107.942C291.254 108.217 290.904 108.354 290.455 108.354C290.175 108.354 289.927 108.291 289.712 108.164C289.497 108.038 289.331 107.856 289.216 107.619C289.1 107.382 289.042 107.107 289.042 106.794C289.042 106.308 289.167 105.928 289.416 105.655C289.666 105.382 290.018 105.245 290.472 105.245C290.906 105.245 291.249 105.385 291.503 105.666C291.756 105.944 291.882 106.32 291.882 106.794ZM289.698 106.794C289.698 107.487 289.954 107.833 290.466 107.833C290.973 107.833 291.226 107.487 291.226 106.794C291.226 106.109 290.971 105.766 290.461 105.766C290.193 105.766 289.999 105.855 289.877 106.032C289.758 106.209 289.698 106.463 289.698 106.794Z" fill="#777777"/>
<path d="M295.257 108.3H294.617V106.455C294.617 106.224 294.57 106.051 294.476 105.937C294.384 105.823 294.236 105.766 294.034 105.766C293.764 105.766 293.567 105.846 293.442 106.005C293.318 106.164 293.255 106.431 293.255 106.805V108.3H292.618V105.299H293.117L293.206 105.693H293.239C293.329 105.55 293.458 105.44 293.624 105.362C293.791 105.284 293.975 105.245 294.178 105.245C294.897 105.245 295.257 105.611 295.257 106.344V108.3Z" fill="#777777"/>
<path d="M298.16 107.445C298.16 107.738 298.054 107.964 297.84 108.121C297.627 108.277 297.321 108.354 296.923 108.354C296.523 108.354 296.202 108.294 295.96 108.173V107.622C296.313 107.785 296.641 107.866 296.945 107.866C297.337 107.866 297.534 107.748 297.534 107.511C297.534 107.435 297.512 107.371 297.469 107.321C297.425 107.27 297.354 107.218 297.254 107.163C297.155 107.109 297.016 107.048 296.839 106.979C296.494 106.845 296.259 106.711 296.136 106.577C296.015 106.443 295.955 106.27 295.955 106.056C295.955 105.8 296.058 105.601 296.264 105.46C296.472 105.317 296.754 105.245 297.11 105.245C297.463 105.245 297.797 105.317 298.111 105.46L297.905 105.94C297.582 105.806 297.309 105.739 297.089 105.739C296.752 105.739 296.584 105.835 296.584 106.027C296.584 106.121 296.627 106.2 296.714 106.265C296.803 106.33 296.995 106.42 297.289 106.534C297.537 106.63 297.717 106.717 297.829 106.797C297.941 106.877 298.025 106.969 298.079 107.074C298.133 107.177 298.16 107.301 298.16 107.445Z" fill="#777777"/>
<path d="M303.668 108.3H302.873L300.922 105.139H300.9L300.914 105.316C300.939 105.652 300.952 105.96 300.952 106.238V108.3H300.363V104.334H301.15L303.095 107.478H303.112C303.108 107.436 303.101 107.285 303.09 107.025C303.079 106.763 303.074 106.558 303.074 106.412V104.334H303.668V108.3Z" fill="#777777"/>
<path d="M306.763 108.3L306.674 107.907H306.641C306.553 108.046 306.426 108.155 306.261 108.235C306.099 108.315 305.912 108.354 305.702 108.354C305.339 108.354 305.068 108.264 304.889 108.083C304.71 107.902 304.62 107.628 304.62 107.261V105.299H305.263V107.15C305.263 107.379 305.31 107.552 305.404 107.668C305.498 107.782 305.646 107.839 305.846 107.839C306.114 107.839 306.31 107.759 306.435 107.6C306.562 107.439 306.625 107.171 306.625 106.794V105.299H307.265V108.3H306.763Z" fill="#777777"/>
<path d="M310.703 108.3H310.062V106.45C310.062 106.22 310.019 106.049 309.932 105.937C309.845 105.823 309.71 105.766 309.525 105.766C309.279 105.766 309.098 105.847 308.983 106.008C308.869 106.167 308.812 106.433 308.812 106.805V108.3H308.174V105.299H308.673L308.763 105.693H308.795C308.879 105.55 308.999 105.44 309.156 105.362C309.315 105.284 309.49 105.245 309.68 105.245C310.141 105.245 310.447 105.403 310.597 105.717H310.64C310.729 105.569 310.854 105.453 311.015 105.37C311.176 105.287 311.36 105.245 311.568 105.245C311.926 105.245 312.187 105.336 312.349 105.517C312.514 105.697 312.596 105.973 312.596 106.344V108.3H311.959V106.45C311.959 106.22 311.914 106.049 311.826 105.937C311.739 105.823 311.603 105.766 311.419 105.766C311.171 105.766 310.989 105.844 310.874 105.999C310.76 106.153 310.703 106.39 310.703 106.71V108.3Z" fill="#777777"/>
<path d="M315.019 105.245C315.393 105.245 315.685 105.381 315.893 105.652C316.102 105.923 316.207 106.304 316.207 106.794C316.207 107.286 316.101 107.67 315.89 107.945C315.678 108.218 315.384 108.354 315.008 108.354C314.628 108.354 314.333 108.218 314.124 107.945H314.08L313.964 108.3H313.486V104.079H314.124V105.082C314.124 105.157 314.12 105.267 314.113 105.413C314.106 105.56 314.1 105.653 314.097 105.693H314.124C314.326 105.394 314.625 105.245 315.019 105.245ZM314.853 105.766C314.597 105.766 314.411 105.842 314.297 105.994C314.185 106.144 314.127 106.396 314.124 106.751V106.794C314.124 107.16 314.182 107.425 314.297 107.589C314.413 107.752 314.602 107.833 314.864 107.833C315.09 107.833 315.261 107.744 315.377 107.565C315.495 107.386 315.553 107.127 315.553 106.789C315.553 106.107 315.32 105.766 314.853 105.766Z" fill="#777777"/>
<path d="M318.258 108.354C317.792 108.354 317.426 108.219 317.162 107.947C316.9 107.674 316.769 107.299 316.769 106.821C316.769 106.331 316.891 105.946 317.135 105.666C317.379 105.385 317.715 105.245 318.142 105.245C318.538 105.245 318.851 105.365 319.08 105.606C319.31 105.847 319.425 106.178 319.425 106.599V106.944H317.425C317.434 107.235 317.513 107.459 317.661 107.616C317.81 107.772 318.019 107.85 318.288 107.85C318.465 107.85 318.63 107.833 318.782 107.801C318.936 107.767 319.1 107.71 319.276 107.633V108.151C319.12 108.225 318.963 108.277 318.804 108.308C318.644 108.339 318.463 108.354 318.258 108.354ZM318.142 105.728C317.939 105.728 317.776 105.792 317.653 105.921C317.532 106.049 317.46 106.236 317.436 106.482H318.798C318.795 106.235 318.735 106.047 318.619 105.921C318.503 105.792 318.344 105.728 318.142 105.728Z" fill="#777777"/>
<path d="M321.671 105.245C321.8 105.245 321.906 105.254 321.989 105.272L321.926 105.866C321.836 105.845 321.742 105.834 321.644 105.834C321.389 105.834 321.182 105.917 321.023 106.084C320.866 106.25 320.787 106.466 320.787 106.732V108.3H320.149V105.299H320.648L320.733 105.829H320.765C320.865 105.649 320.994 105.507 321.153 105.403C321.314 105.298 321.487 105.245 321.671 105.245Z" fill="#777777"/>
<path d="M364.73 116.351H361.555V112.109H359L363.142 107.967L367.285 112.109H364.73V116.351Z" fill="#E84855"/>
<path d="M397.766 228H396.234V225.976H395L397 224L399 225.976H397.766V228Z" fill="#E84855"/>
<path d="M397.766 246H396.234V243.976H395L397 242L399 243.976H397.766V246Z" fill="#E84855"/>
<path d="M397.766 302H396.234V299.976H395L397 298L399 299.976H397.766V302Z" fill="#E84855"/>
<path d="M473.738 116.788C474.195 116.788 474.557 116.909 474.824 117.151C475.09 117.393 475.224 117.722 475.224 118.14C475.224 118.623 475.072 119.002 474.768 119.275C474.466 119.545 474.036 119.681 473.478 119.681C472.971 119.681 472.574 119.599 472.284 119.436V118.775C472.452 118.87 472.644 118.944 472.861 118.996C473.078 119.047 473.279 119.073 473.465 119.073C473.794 119.073 474.044 119 474.216 118.853C474.387 118.706 474.473 118.491 474.473 118.208C474.473 117.666 474.128 117.396 473.438 117.396C473.34 117.396 473.221 117.406 473.078 117.427C472.935 117.445 472.81 117.467 472.703 117.492L472.377 117.3L472.551 115.086H474.907V115.734H473.193L473.09 116.856C473.163 116.844 473.25 116.829 473.354 116.813C473.459 116.796 473.587 116.788 473.738 116.788Z" fill="#7A7A7A"/>
<path d="M475.841 117.687C475.841 115.914 476.563 115.027 478.008 115.027C478.235 115.027 478.427 115.044 478.585 115.08V115.687C478.427 115.642 478.246 115.619 478.039 115.619C477.553 115.619 477.188 115.749 476.944 116.01C476.7 116.27 476.568 116.688 476.547 117.262H476.585C476.682 117.095 476.818 116.966 476.994 116.875C477.17 116.782 477.376 116.735 477.614 116.735C478.025 116.735 478.346 116.861 478.575 117.113C478.805 117.366 478.919 117.708 478.919 118.14C478.919 118.615 478.786 118.991 478.519 119.268C478.255 119.543 477.893 119.681 477.434 119.681C477.11 119.681 476.828 119.603 476.588 119.448C476.348 119.291 476.163 119.064 476.033 118.766C475.905 118.466 475.841 118.107 475.841 117.687ZM477.422 119.079C477.672 119.079 477.864 118.999 477.999 118.837C478.135 118.676 478.203 118.446 478.203 118.146C478.203 117.886 478.139 117.681 478.011 117.532C477.885 117.383 477.695 117.309 477.44 117.309C477.283 117.309 477.139 117.343 477.006 117.411C476.874 117.477 476.77 117.569 476.693 117.687C476.617 117.803 476.578 117.922 476.578 118.044C476.578 118.335 476.657 118.581 476.814 118.782C476.973 118.98 477.176 119.079 477.422 119.079Z" fill="#7A7A7A"/>
<path d="M376.555 120.428V114.762H377.757V120.428H376.555Z" fill="#777777"/>
<path d="M383.884 117.541C383.884 118.473 383.618 119.188 383.086 119.684C382.556 120.18 381.79 120.428 380.787 120.428H379.183V114.762H380.962C381.887 114.762 382.605 115.006 383.117 115.494C383.628 115.983 383.884 116.665 383.884 117.541ZM382.636 117.572C382.636 116.355 382.099 115.746 381.024 115.746H380.384V119.436H380.9C382.057 119.436 382.636 118.815 382.636 117.572Z" fill="#777777"/>
<path d="M386.26 117.277H386.648C387.027 117.277 387.308 117.214 387.489 117.087C387.669 116.961 387.76 116.762 387.76 116.49C387.76 116.222 387.667 116.03 387.481 115.917C387.297 115.803 387.012 115.746 386.624 115.746H386.26V117.277ZM386.26 118.254V120.428H385.059V114.762H386.71C387.48 114.762 388.049 114.903 388.419 115.184C388.788 115.463 388.973 115.888 388.973 116.459C388.973 116.793 388.881 117.09 388.698 117.351C388.514 117.609 388.255 117.812 387.919 117.959C388.771 119.233 389.327 120.056 389.585 120.428H388.252L386.899 118.254H386.26Z" fill="#777777"/>
<path d="M397.988 120.428H394.027V119.595L395.449 118.157C395.871 117.725 396.146 117.427 396.275 117.262C396.404 117.094 396.497 116.939 396.554 116.797C396.611 116.654 396.639 116.507 396.639 116.355C396.639 116.127 396.576 115.958 396.449 115.847C396.325 115.736 396.159 115.68 395.949 115.68C395.73 115.68 395.517 115.731 395.31 115.832C395.103 115.932 394.887 116.076 394.663 116.262L394.011 115.49C394.29 115.253 394.522 115.085 394.705 114.987C394.889 114.888 395.089 114.813 395.306 114.762C395.523 114.708 395.766 114.68 396.035 114.68C396.389 114.68 396.701 114.745 396.973 114.874C397.244 115.003 397.454 115.184 397.604 115.417C397.754 115.649 397.829 115.915 397.829 116.215C397.829 116.476 397.783 116.722 397.69 116.952C397.599 117.179 397.457 117.413 397.263 117.653C397.072 117.893 396.734 118.236 396.248 118.68L395.519 119.366V119.42H397.988V120.428Z" fill="#777777"/>
<path d="M398.523 118.021C398.523 116.9 398.759 116.065 399.232 115.518C399.707 114.97 400.418 114.696 401.364 114.696C401.687 114.696 401.94 114.715 402.123 114.754V115.711C401.893 115.66 401.666 115.634 401.441 115.634C401.03 115.634 400.694 115.696 400.434 115.82C400.175 115.944 399.981 116.127 399.852 116.37C399.723 116.613 399.647 116.958 399.624 117.405H399.674C399.93 116.966 400.339 116.746 400.902 116.746C401.409 116.746 401.806 116.905 402.092 117.223C402.379 117.541 402.523 117.98 402.523 118.541C402.523 119.145 402.352 119.625 402.011 119.979C401.67 120.33 401.197 120.506 400.592 120.506C400.174 120.506 399.808 120.409 399.496 120.215C399.186 120.021 398.945 119.738 398.775 119.366C398.607 118.994 398.523 118.546 398.523 118.021ZM400.569 119.548C400.825 119.548 401.021 119.463 401.158 119.293C401.295 119.119 401.364 118.874 401.364 118.556C401.364 118.28 401.299 118.063 401.17 117.905C401.043 117.745 400.851 117.665 400.592 117.665C400.35 117.665 400.142 117.744 399.968 117.901C399.798 118.059 399.713 118.242 399.713 118.452C399.713 118.759 399.793 119.019 399.953 119.231C400.116 119.442 400.321 119.548 400.569 119.548Z" fill="#777777"/>
<path d="M403.232 119.874C403.232 119.657 403.29 119.493 403.406 119.382C403.522 119.271 403.692 119.215 403.914 119.215C404.128 119.215 404.294 119.272 404.41 119.386C404.529 119.499 404.588 119.662 404.588 119.874C404.588 120.078 404.529 120.24 404.41 120.358C404.291 120.475 404.126 120.533 403.914 120.533C403.697 120.533 403.529 120.476 403.41 120.362C403.291 120.246 403.232 120.083 403.232 119.874Z" fill="#777777"/>
<path d="M409.29 117.595C409.29 118.585 409.127 119.317 408.801 119.793C408.478 120.268 407.98 120.506 407.305 120.506C406.652 120.506 406.158 120.26 405.825 119.769C405.494 119.278 405.329 118.554 405.329 117.595C405.329 116.595 405.49 115.859 405.813 115.386C406.136 114.91 406.633 114.673 407.305 114.673C407.959 114.673 408.452 114.921 408.786 115.417C409.122 115.913 409.29 116.639 409.29 117.595ZM406.518 117.595C406.518 118.29 406.578 118.789 406.697 119.091C406.818 119.391 407.021 119.541 407.305 119.541C407.584 119.541 407.786 119.388 407.91 119.083C408.034 118.778 408.096 118.282 408.096 117.595C408.096 116.9 408.033 116.401 407.906 116.099C407.782 115.794 407.582 115.642 407.305 115.642C407.024 115.642 406.822 115.794 406.701 116.099C406.579 116.401 406.518 116.9 406.518 117.595Z" fill="#777777"/>
<path d="M413.824 117.595C413.824 118.585 413.661 119.317 413.336 119.793C413.013 120.268 412.514 120.506 411.84 120.506C411.186 120.506 410.693 120.26 410.359 119.769C410.029 119.278 409.863 118.554 409.863 117.595C409.863 116.595 410.025 115.859 410.348 115.386C410.671 114.91 411.168 114.673 411.84 114.673C412.494 114.673 412.987 114.921 413.32 115.417C413.656 115.913 413.824 116.639 413.824 117.595ZM411.053 117.595C411.053 118.29 411.112 118.789 411.231 119.091C411.353 119.391 411.556 119.541 411.84 119.541C412.119 119.541 412.32 119.388 412.444 119.083C412.568 118.778 412.63 118.282 412.63 117.595C412.63 116.9 412.567 116.401 412.441 116.099C412.317 115.794 412.116 115.642 411.84 115.642C411.558 115.642 411.357 115.794 411.235 116.099C411.114 116.401 411.053 116.9 411.053 117.595Z" fill="#777777"/>
<path d="M418.359 117.595C418.359 118.585 418.196 119.317 417.87 119.793C417.547 120.268 417.049 120.506 416.374 120.506C415.721 120.506 415.227 120.26 414.894 119.769C414.563 119.278 414.398 118.554 414.398 117.595C414.398 116.595 414.559 115.859 414.882 115.386C415.205 114.91 415.703 114.673 416.374 114.673C417.028 114.673 417.522 114.921 417.855 115.417C418.191 115.913 418.359 116.639 418.359 117.595ZM415.588 117.595C415.588 118.29 415.647 118.789 415.766 119.091C415.887 119.391 416.09 119.541 416.374 119.541C416.653 119.541 416.855 119.388 416.979 119.083C417.103 118.778 417.165 118.282 417.165 117.595C417.165 116.9 417.102 116.401 416.975 116.099C416.851 115.794 416.651 115.642 416.374 115.642C416.093 115.642 415.891 115.794 415.77 116.099C415.648 116.401 415.588 116.9 415.588 117.595Z" fill="#777777"/>
<path d="M419.099 119.874C419.099 119.657 419.157 119.493 419.273 119.382C419.39 119.271 419.559 119.215 419.781 119.215C419.996 119.215 420.161 119.272 420.277 119.386C420.396 119.499 420.456 119.662 420.456 119.874C420.456 120.078 420.396 120.24 420.277 120.358C420.158 120.475 419.993 120.533 419.781 120.533C419.564 120.533 419.396 120.476 419.277 120.362C419.158 120.246 419.099 120.083 419.099 119.874Z" fill="#777777"/>
<path d="M425.157 117.595C425.157 118.585 424.994 119.317 424.668 119.793C424.346 120.268 423.847 120.506 423.172 120.506C422.519 120.506 422.025 120.26 421.692 119.769C421.361 119.278 421.196 118.554 421.196 117.595C421.196 116.595 421.357 115.859 421.68 115.386C422.003 114.91 422.501 114.673 423.172 114.673C423.826 114.673 424.32 114.921 424.653 115.417C424.989 115.913 425.157 116.639 425.157 117.595ZM422.386 117.595C422.386 118.29 422.445 118.789 422.564 119.091C422.685 119.391 422.888 119.541 423.172 119.541C423.452 119.541 423.653 119.388 423.777 119.083C423.901 118.778 423.963 118.282 423.963 117.595C423.963 116.9 423.9 116.401 423.773 116.099C423.649 115.794 423.449 115.642 423.172 115.642C422.891 115.642 422.689 115.794 422.568 116.099C422.446 116.401 422.386 116.9 422.386 117.595Z" fill="#777777"/>
<path d="M429.691 117.595C429.691 118.585 429.529 119.317 429.203 119.793C428.88 120.268 428.381 120.506 427.707 120.506C427.053 120.506 426.56 120.26 426.227 119.769C425.896 119.278 425.73 118.554 425.73 117.595C425.73 116.595 425.892 115.859 426.215 115.386C426.538 114.91 427.035 114.673 427.707 114.673C428.361 114.673 428.854 114.921 429.188 115.417C429.523 115.913 429.691 116.639 429.691 117.595ZM426.92 117.595C426.92 118.29 426.98 118.789 427.099 119.091C427.22 119.391 427.423 119.541 427.707 119.541C427.986 119.541 428.188 119.388 428.312 119.083C428.436 118.778 428.498 118.282 428.498 117.595C428.498 116.9 428.434 116.401 428.308 116.099C428.184 115.794 427.984 115.642 427.707 115.642C427.425 115.642 427.224 115.794 427.102 116.099C426.981 116.401 426.92 116.9 426.92 117.595Z" fill="#777777"/>
<path d="M434.226 117.595C434.226 118.585 434.063 119.317 433.738 119.793C433.415 120.268 432.916 120.506 432.242 120.506C431.588 120.506 431.094 120.26 430.761 119.769C430.43 119.278 430.265 118.554 430.265 117.595C430.265 116.595 430.427 115.859 430.75 115.386C431.072 114.91 431.57 114.673 432.242 114.673C432.895 114.673 433.389 114.921 433.722 115.417C434.058 115.913 434.226 116.639 434.226 117.595ZM431.455 117.595C431.455 118.29 431.514 118.789 431.633 119.091C431.755 119.391 431.957 119.541 432.242 119.541C432.521 119.541 432.722 119.388 432.846 119.083C432.97 118.778 433.032 118.282 433.032 117.595C433.032 116.9 432.969 116.401 432.842 116.099C432.718 115.794 432.518 115.642 432.242 115.642C431.96 115.642 431.758 115.794 431.637 116.099C431.516 116.401 431.455 116.9 431.455 117.595Z" fill="#777777"/>
<path d="M377.736 108.3H377.087V104.89H375.921V104.334H378.902V104.89H377.736V108.3Z" fill="#777777"/>
<path d="M382.107 106.794C382.107 107.284 381.981 107.667 381.729 107.942C381.478 108.217 381.128 108.354 380.679 108.354C380.399 108.354 380.151 108.291 379.936 108.164C379.721 108.038 379.555 107.856 379.44 107.619C379.324 107.382 379.266 107.107 379.266 106.794C379.266 106.308 379.391 105.928 379.64 105.655C379.89 105.382 380.242 105.245 380.696 105.245C381.13 105.245 381.474 105.385 381.727 105.666C381.98 105.944 382.107 106.32 382.107 106.794ZM379.923 106.794C379.923 107.487 380.178 107.833 380.69 107.833C381.197 107.833 381.45 107.487 381.45 106.794C381.45 106.109 381.195 105.766 380.685 105.766C380.417 105.766 380.223 105.855 380.102 106.032C379.982 106.209 379.923 106.463 379.923 106.794Z" fill="#777777"/>
<path d="M383.96 107.839C384.115 107.839 384.271 107.814 384.426 107.766V108.246C384.356 108.277 384.264 108.302 384.152 108.322C384.042 108.343 383.927 108.354 383.808 108.354C383.203 108.354 382.901 108.036 382.901 107.399V105.782H382.492V105.5L382.931 105.267L383.148 104.632H383.542V105.299H384.396V105.782H383.542V107.388C383.542 107.542 383.58 107.656 383.656 107.73C383.733 107.803 383.835 107.839 383.96 107.839Z" fill="#777777"/>
<path d="M386.906 108.3L386.778 107.882H386.757C386.612 108.065 386.466 108.19 386.32 108.257C386.173 108.322 385.985 108.354 385.756 108.354C385.461 108.354 385.23 108.275 385.064 108.116C384.899 107.956 384.817 107.731 384.817 107.44C384.817 107.131 384.932 106.897 385.161 106.74C385.391 106.583 385.741 106.497 386.211 106.482L386.73 106.466V106.306C386.73 106.114 386.684 105.971 386.594 105.877C386.505 105.781 386.367 105.734 386.179 105.734C386.025 105.734 385.878 105.756 385.737 105.801C385.595 105.847 385.46 105.9 385.33 105.961L385.123 105.506C385.286 105.421 385.464 105.356 385.658 105.313C385.851 105.268 386.034 105.245 386.206 105.245C386.588 105.245 386.875 105.328 387.069 105.495C387.264 105.661 387.362 105.923 387.362 106.279V108.3H386.906ZM385.956 107.866C386.188 107.866 386.373 107.802 386.512 107.673C386.654 107.543 386.724 107.361 386.724 107.128V106.868L386.339 106.884C386.039 106.895 385.82 106.945 385.682 107.036C385.547 107.124 385.479 107.261 385.479 107.445C385.479 107.579 385.519 107.683 385.598 107.757C385.678 107.83 385.797 107.866 385.956 107.866Z" fill="#777777"/>
<path d="M388.889 108.3H388.252V104.079H388.889V108.3Z" fill="#777777"/>
<path d="M394.836 106.311C394.836 106.957 394.674 107.459 394.35 107.817C394.028 108.175 393.572 108.354 392.98 108.354C392.382 108.354 391.921 108.177 391.599 107.823C391.279 107.466 391.119 106.961 391.119 106.306C391.119 105.651 391.28 105.148 391.602 104.798C391.926 104.447 392.387 104.271 392.986 104.271C393.575 104.271 394.031 104.449 394.353 104.806C394.675 105.162 394.836 105.664 394.836 106.311ZM391.808 106.311C391.808 106.8 391.907 107.171 392.104 107.424C392.301 107.675 392.593 107.801 392.98 107.801C393.366 107.801 393.656 107.676 393.851 107.426C394.048 107.177 394.147 106.805 394.147 106.311C394.147 105.825 394.049 105.456 393.854 105.205C393.66 104.953 393.371 104.827 392.986 104.827C392.597 104.827 392.303 104.953 392.104 105.205C391.907 105.456 391.808 105.825 391.808 106.311Z" fill="#777777"/>
<path d="M397.736 108.3L397.647 107.907H397.614C397.525 108.046 397.399 108.155 397.234 108.235C397.072 108.315 396.885 108.354 396.675 108.354C396.312 108.354 396.041 108.264 395.862 108.083C395.682 107.902 395.593 107.628 395.593 107.261V105.299H396.236V107.15C396.236 107.379 396.283 107.552 396.377 107.668C396.471 107.782 396.618 107.839 396.819 107.839C397.087 107.839 397.283 107.759 397.408 107.6C397.535 107.439 397.598 107.171 397.598 106.794V105.299H398.238V108.3H397.736Z" fill="#777777"/>
<path d="M400.265 107.839C400.42 107.839 400.576 107.814 400.731 107.766V108.246C400.661 108.277 400.569 108.302 400.457 108.322C400.347 108.343 400.232 108.354 400.113 108.354C399.509 108.354 399.207 108.036 399.207 107.399V105.782H398.797V105.5L399.236 105.267L399.454 104.632H399.847V105.299H400.702V105.782H399.847V107.388C399.847 107.542 399.885 107.656 399.961 107.73C400.039 107.803 400.14 107.839 400.265 107.839Z" fill="#777777"/>
<path d="M403.868 105.299V105.649L403.355 105.744C403.402 105.808 403.441 105.885 403.472 105.978C403.502 106.07 403.518 106.168 403.518 106.271C403.518 106.58 403.411 106.823 403.197 107.001C402.984 107.178 402.69 107.266 402.316 107.266C402.22 107.266 402.133 107.259 402.055 107.245C401.918 107.33 401.849 107.429 401.849 107.543C401.849 107.612 401.881 107.663 401.944 107.698C402.009 107.732 402.128 107.749 402.299 107.749H402.823C403.154 107.749 403.405 107.82 403.577 107.961C403.749 108.102 403.835 108.305 403.835 108.571C403.835 108.911 403.695 109.174 403.415 109.358C403.134 109.543 402.729 109.635 402.199 109.635C401.79 109.635 401.478 109.563 401.263 109.418C401.048 109.273 400.94 109.067 400.94 108.799C400.94 108.615 400.998 108.459 401.114 108.333C401.231 108.208 401.395 108.121 401.605 108.072C401.52 108.036 401.449 107.978 401.393 107.899C401.339 107.817 401.312 107.732 401.312 107.644C401.312 107.531 401.344 107.436 401.407 107.359C401.47 107.281 401.564 107.204 401.689 107.128C401.534 107.061 401.407 106.953 401.309 106.802C401.213 106.651 401.165 106.473 401.165 106.271C401.165 105.945 401.268 105.693 401.472 105.514C401.678 105.335 401.971 105.245 402.351 105.245C402.436 105.245 402.525 105.252 402.617 105.264C402.711 105.275 402.782 105.287 402.829 105.299H403.868ZM401.51 108.767C401.51 108.904 401.571 109.01 401.694 109.084C401.819 109.158 401.994 109.195 402.218 109.195C402.565 109.195 402.824 109.146 402.994 109.046C403.164 108.947 403.249 108.815 403.249 108.65C403.249 108.52 403.202 108.427 403.108 108.371C403.016 108.316 402.843 108.289 402.59 108.289H402.107C401.924 108.289 401.779 108.332 401.67 108.417C401.563 108.504 401.51 108.62 401.51 108.767ZM401.784 106.271C401.784 106.459 401.832 106.604 401.928 106.705C402.025 106.806 402.165 106.857 402.346 106.857C402.715 106.857 402.899 106.66 402.899 106.265C402.899 106.07 402.853 105.92 402.761 105.815C402.67 105.708 402.532 105.655 402.346 105.655C402.161 105.655 402.021 105.707 401.925 105.812C401.831 105.917 401.784 106.07 401.784 106.271Z" fill="#777777"/>
<path d="M407.088 106.794C407.088 107.284 406.962 107.667 406.711 107.942C406.459 108.217 406.109 108.354 405.661 108.354C405.381 108.354 405.133 108.291 404.918 108.164C404.702 108.038 404.537 107.856 404.421 107.619C404.305 107.382 404.247 107.107 404.247 106.794C404.247 106.308 404.372 105.928 404.622 105.655C404.871 105.382 405.223 105.245 405.677 105.245C406.111 105.245 406.455 105.385 406.708 105.666C406.961 105.944 407.088 106.32 407.088 106.794ZM404.904 106.794C404.904 107.487 405.16 107.833 405.672 107.833C406.178 107.833 406.431 107.487 406.431 106.794C406.431 106.109 406.176 105.766 405.666 105.766C405.399 105.766 405.204 105.855 405.083 106.032C404.964 106.209 404.904 106.463 404.904 106.794Z" fill="#777777"/>
<path d="M408.461 108.3H407.823V105.299H408.461V108.3ZM407.785 104.505C407.785 104.391 407.816 104.303 407.877 104.241C407.941 104.18 408.03 104.149 408.146 104.149C408.258 104.149 408.345 104.18 408.406 104.241C408.47 104.303 408.501 104.391 408.501 104.505C408.501 104.613 408.47 104.699 408.406 104.762C408.345 104.824 408.258 104.855 408.146 104.855C408.03 104.855 407.941 104.824 407.877 104.762C407.816 104.699 407.785 104.613 407.785 104.505Z" fill="#777777"/>
<path d="M412.015 108.3H411.375V106.455C411.375 106.224 411.327 106.051 411.233 105.937C411.141 105.823 410.994 105.766 410.791 105.766C410.522 105.766 410.325 105.846 410.2 106.005C410.075 106.164 410.013 106.431 410.013 106.805V108.3H409.375V105.299H409.874L409.964 105.693H409.996C410.087 105.55 410.215 105.44 410.382 105.362C410.548 105.284 410.732 105.245 410.935 105.245C411.655 105.245 412.015 105.611 412.015 106.344V108.3Z" fill="#777777"/>
<path d="M415.436 105.299V105.649L414.923 105.744C414.97 105.808 415.009 105.885 415.04 105.978C415.071 106.07 415.086 106.168 415.086 106.271C415.086 106.58 414.979 106.823 414.766 107.001C414.552 107.178 414.258 107.266 413.884 107.266C413.788 107.266 413.701 107.259 413.624 107.245C413.486 107.33 413.417 107.429 413.417 107.543C413.417 107.612 413.449 107.663 413.512 107.698C413.577 107.732 413.696 107.749 413.868 107.749H414.391C414.722 107.749 414.974 107.82 415.146 107.961C415.317 108.102 415.403 108.305 415.403 108.571C415.403 108.911 415.263 109.174 414.983 109.358C414.702 109.543 414.297 109.635 413.767 109.635C413.359 109.635 413.047 109.563 412.831 109.418C412.616 109.273 412.509 109.067 412.509 108.799C412.509 108.615 412.566 108.459 412.682 108.333C412.8 108.208 412.963 108.121 413.173 108.072C413.088 108.036 413.018 107.978 412.962 107.899C412.907 107.817 412.88 107.732 412.88 107.644C412.88 107.531 412.912 107.436 412.975 107.359C413.038 107.281 413.133 107.204 413.257 107.128C413.102 107.061 412.975 106.953 412.878 106.802C412.782 106.651 412.734 106.473 412.734 106.271C412.734 105.945 412.836 105.693 413.04 105.514C413.246 105.335 413.54 105.245 413.919 105.245C414.004 105.245 414.093 105.252 414.185 105.264C414.279 105.275 414.35 105.287 414.397 105.299H415.436ZM413.078 108.767C413.078 108.904 413.14 109.01 413.263 109.084C413.388 109.158 413.562 109.195 413.786 109.195C414.134 109.195 414.392 109.146 414.562 109.046C414.732 108.947 414.817 108.815 414.817 108.65C414.817 108.52 414.77 108.427 414.676 108.371C414.584 108.316 414.411 108.289 414.158 108.289H413.675C413.492 108.289 413.347 108.332 413.238 108.417C413.132 108.504 413.078 108.62 413.078 108.767ZM413.352 106.271C413.352 106.459 413.4 106.604 413.496 106.705C413.594 106.806 413.733 106.857 413.914 106.857C414.283 106.857 414.467 106.66 414.467 106.265C414.467 106.07 414.421 105.92 414.329 105.815C414.239 105.708 414.1 105.655 413.914 105.655C413.729 105.655 413.589 105.707 413.493 105.812C413.399 105.917 413.352 106.07 413.352 106.271Z" fill="#777777"/>
<path d="M419.967 108.3L419.571 107.199H418.054L417.666 108.3H416.982L418.466 104.317H419.172L420.656 108.3H419.967ZM419.4 106.64L419.028 105.56C419.001 105.488 418.963 105.374 418.914 105.218C418.867 105.063 418.834 104.949 418.816 104.876C418.767 105.099 418.696 105.342 418.602 105.606L418.244 106.64H419.4Z" fill="#777777"/>
<path d="M423.64 108.3H423V106.45C423 106.22 422.956 106.049 422.87 105.937C422.783 105.823 422.647 105.766 422.463 105.766C422.217 105.766 422.036 105.847 421.92 106.008C421.806 106.167 421.749 106.433 421.749 106.805V108.3H421.112V105.299H421.611L421.7 105.693H421.733C421.816 105.55 421.936 105.44 422.094 105.362C422.253 105.284 422.427 105.245 422.617 105.245C423.078 105.245 423.384 105.403 423.534 105.717H423.578C423.666 105.569 423.791 105.453 423.952 105.37C424.113 105.287 424.298 105.245 424.506 105.245C424.864 105.245 425.124 105.336 425.287 105.517C425.451 105.697 425.534 105.973 425.534 106.344V108.3H424.896V106.45C424.896 106.22 424.852 106.049 424.763 105.937C424.676 105.823 424.541 105.766 424.356 105.766C424.108 105.766 423.927 105.844 423.811 105.999C423.697 106.153 423.64 106.39 423.64 106.71V108.3Z" fill="#777777"/>
<path d="M429.085 106.794C429.085 107.284 428.959 107.667 428.708 107.942C428.457 108.217 428.107 108.354 427.658 108.354C427.378 108.354 427.13 108.291 426.915 108.164C426.699 108.038 426.534 107.856 426.418 107.619C426.302 107.382 426.245 107.107 426.245 106.794C426.245 106.308 426.369 105.928 426.619 105.655C426.869 105.382 427.22 105.245 427.674 105.245C428.108 105.245 428.452 105.385 428.705 105.666C428.958 105.944 429.085 106.32 429.085 106.794ZM426.901 106.794C426.901 107.487 427.157 107.833 427.669 107.833C428.175 107.833 428.429 107.487 428.429 106.794C428.429 106.109 428.173 105.766 427.663 105.766C427.396 105.766 427.201 105.855 427.08 106.032C426.961 106.209 426.901 106.463 426.901 106.794Z" fill="#777777"/>
<path d="M431.936 108.3L431.847 107.907H431.814C431.726 108.046 431.599 108.155 431.435 108.235C431.272 108.315 431.085 108.354 430.876 108.354C430.512 108.354 430.241 108.264 430.062 108.083C429.883 107.902 429.793 107.628 429.793 107.261V105.299H430.436V107.15C430.436 107.379 430.483 107.552 430.577 107.668C430.671 107.782 430.819 107.839 431.019 107.839C431.287 107.839 431.483 107.759 431.608 107.6C431.735 107.439 431.798 107.171 431.798 106.794V105.299H432.438V108.3H431.936Z" fill="#777777"/>
<path d="M435.987 108.3H435.347V106.455C435.347 106.224 435.3 106.051 435.206 105.937C435.113 105.823 434.966 105.766 434.763 105.766C434.494 105.766 434.297 105.846 434.172 106.005C434.047 106.164 433.985 106.431 433.985 106.805V108.3H433.347V105.299H433.846L433.936 105.693H433.968C434.059 105.55 434.187 105.44 434.354 105.362C434.52 105.284 434.705 105.245 434.907 105.245C435.627 105.245 435.987 105.611 435.987 106.344V108.3Z" fill="#777777"/>
<path d="M437.992 107.839C438.147 107.839 438.303 107.814 438.459 107.766V108.246C438.388 108.277 438.297 108.302 438.185 108.322C438.074 108.343 437.959 108.354 437.84 108.354C437.236 108.354 436.934 108.036 436.934 107.399V105.782H436.524V105.5L436.964 105.267L437.181 104.632H437.574V105.299H438.429V105.782H437.574V107.388C437.574 107.542 437.612 107.656 437.688 107.73C437.766 107.803 437.867 107.839 437.992 107.839Z" fill="#777777"/>
<path d="M473.815 108.3H473.167V104.89H472V104.334H474.982V104.89H473.815V108.3Z" fill="#777777"/>
<path d="M477.046 105.245C477.175 105.245 477.28 105.254 477.364 105.272L477.301 105.866C477.211 105.845 477.117 105.834 477.019 105.834C476.764 105.834 476.557 105.917 476.398 106.084C476.24 106.25 476.162 106.466 476.162 106.732V108.3H475.524V105.299H476.023L476.107 105.829H476.14C476.24 105.649 476.369 105.507 476.528 105.403C476.689 105.298 476.862 105.245 477.046 105.245Z" fill="#777777"/>
<path d="M479.8 108.3L479.672 107.882H479.651C479.506 108.065 479.36 108.19 479.214 108.257C479.067 108.322 478.879 108.354 478.65 108.354C478.355 108.354 478.124 108.275 477.958 108.116C477.793 107.956 477.711 107.731 477.711 107.44C477.711 107.131 477.826 106.897 478.055 106.74C478.285 106.583 478.635 106.497 479.105 106.482L479.624 106.466V106.306C479.624 106.114 479.578 105.971 479.488 105.877C479.399 105.781 479.261 105.734 479.073 105.734C478.919 105.734 478.772 105.756 478.631 105.801C478.489 105.847 478.354 105.9 478.224 105.961L478.017 105.506C478.18 105.421 478.358 105.356 478.552 105.313C478.745 105.268 478.928 105.245 479.1 105.245C479.482 105.245 479.769 105.328 479.963 105.495C480.158 105.661 480.256 105.923 480.256 106.279V108.3H479.8ZM478.85 107.866C479.082 107.866 479.267 107.802 479.406 107.673C479.548 107.543 479.618 107.361 479.618 107.128V106.868L479.233 106.884C478.933 106.895 478.714 106.945 478.576 107.036C478.441 107.124 478.373 107.261 478.373 107.445C478.373 107.579 478.413 107.683 478.492 107.757C478.572 107.83 478.691 107.866 478.85 107.866Z" fill="#777777"/>
<path d="M483.785 108.3H483.145V106.455C483.145 106.224 483.098 106.051 483.004 105.937C482.912 105.823 482.764 105.766 482.562 105.766C482.292 105.766 482.095 105.846 481.97 106.005C481.845 106.164 481.783 106.431 481.783 106.805V108.3H481.146V105.299H481.645L481.734 105.693H481.767C481.857 105.55 481.986 105.44 482.152 105.362C482.318 105.284 482.503 105.245 482.706 105.245C483.425 105.245 483.785 105.611 483.785 106.344V108.3Z" fill="#777777"/>
<path d="M486.688 107.445C486.688 107.738 486.582 107.964 486.368 108.121C486.155 108.277 485.849 108.354 485.451 108.354C485.051 108.354 484.73 108.294 484.488 108.173V107.622C484.841 107.785 485.169 107.866 485.473 107.866C485.865 107.866 486.062 107.748 486.062 107.511C486.062 107.435 486.04 107.371 485.996 107.321C485.953 107.27 485.882 107.218 485.782 107.163C485.683 107.109 485.544 107.048 485.367 106.979C485.022 106.845 484.787 106.711 484.664 106.577C484.543 106.443 484.483 106.27 484.483 106.056C484.483 105.8 484.586 105.601 484.792 105.46C485 105.317 485.282 105.245 485.638 105.245C485.991 105.245 486.325 105.317 486.639 105.46L486.433 105.94C486.109 105.806 485.837 105.739 485.617 105.739C485.28 105.739 485.112 105.835 485.112 106.027C485.112 106.121 485.155 106.2 485.242 106.265C485.331 106.33 485.523 106.42 485.817 106.534C486.065 106.63 486.245 106.717 486.357 106.797C486.469 106.877 486.553 106.969 486.607 107.074C486.661 107.177 486.688 107.301 486.688 107.445Z" fill="#777777"/>
<path d="M489.257 108.3L489.13 107.882H489.108C488.964 108.065 488.818 108.19 488.671 108.257C488.525 108.322 488.337 108.354 488.107 108.354C487.812 108.354 487.582 108.275 487.415 108.116C487.251 107.956 487.168 107.731 487.168 107.44C487.168 107.131 487.283 106.897 487.513 106.74C487.743 106.583 488.093 106.497 488.563 106.482L489.081 106.466V106.306C489.081 106.114 489.036 105.971 488.945 105.877C488.857 105.781 488.718 105.734 488.53 105.734C488.377 105.734 488.229 105.756 488.088 105.801C487.947 105.847 487.811 105.9 487.681 105.961L487.475 105.506C487.638 105.421 487.816 105.356 488.009 105.313C488.203 105.268 488.386 105.245 488.557 105.245C488.939 105.245 489.227 105.328 489.42 105.495C489.616 105.661 489.713 105.923 489.713 106.279V108.3H489.257ZM488.308 107.866C488.539 107.866 488.725 107.802 488.864 107.673C489.005 107.543 489.076 107.361 489.076 107.128V106.868L488.69 106.884C488.39 106.895 488.171 106.945 488.034 107.036C487.898 107.124 487.83 107.261 487.83 107.445C487.83 107.579 487.87 107.683 487.95 107.757C488.029 107.83 488.149 107.866 488.308 107.866Z" fill="#777777"/>
<path d="M491.813 108.354C491.359 108.354 491.014 108.222 490.777 107.958C490.542 107.692 490.424 107.312 490.424 106.816C490.424 106.311 490.547 105.923 490.793 105.652C491.041 105.381 491.398 105.245 491.865 105.245C492.181 105.245 492.466 105.304 492.719 105.422L492.527 105.934C492.257 105.829 492.035 105.777 491.859 105.777C491.34 105.777 491.081 106.122 491.081 106.811C491.081 107.147 491.145 107.4 491.273 107.57C491.403 107.738 491.593 107.823 491.843 107.823C492.127 107.823 492.395 107.752 492.649 107.611V108.167C492.535 108.234 492.413 108.282 492.282 108.311C492.154 108.34 491.998 108.354 491.813 108.354Z" fill="#777777"/>
<path d="M494.472 107.839C494.627 107.839 494.783 107.814 494.938 107.766V108.246C494.868 108.277 494.777 108.302 494.664 108.322C494.554 108.343 494.439 108.354 494.32 108.354C493.716 108.354 493.414 108.036 493.414 107.399V105.782H493.004V105.5L493.444 105.267L493.661 104.632H494.054V105.299H494.909V105.782H494.054V107.388C494.054 107.542 494.092 107.656 494.168 107.73C494.246 107.803 494.347 107.839 494.472 107.839Z" fill="#777777"/>
<path d="M496.178 108.3H495.541V105.299H496.178V108.3ZM495.503 104.505C495.503 104.391 495.534 104.303 495.595 104.241C495.658 104.18 495.748 104.149 495.864 104.149C495.976 104.149 496.063 104.18 496.124 104.241C496.187 104.303 496.219 104.391 496.219 104.505C496.219 104.613 496.187 104.699 496.124 104.762C496.063 104.824 495.976 104.855 495.864 104.855C495.748 104.855 495.658 104.824 495.595 104.762C495.534 104.699 495.503 104.613 495.503 104.505Z" fill="#777777"/>
<path d="M499.754 106.794C499.754 107.284 499.628 107.667 499.377 107.942C499.126 108.217 498.776 108.354 498.327 108.354C498.047 108.354 497.799 108.291 497.584 108.164C497.368 108.038 497.203 107.856 497.087 107.619C496.971 107.382 496.914 107.107 496.914 106.794C496.914 106.308 497.038 105.928 497.288 105.655C497.538 105.382 497.889 105.245 498.343 105.245C498.777 105.245 499.121 105.385 499.374 105.666C499.627 105.944 499.754 106.32 499.754 106.794ZM497.57 106.794C497.57 107.487 497.826 107.833 498.338 107.833C498.844 107.833 499.098 107.487 499.098 106.794C499.098 106.109 498.843 105.766 498.332 105.766C498.065 105.766 497.87 105.855 497.749 106.032C497.63 106.209 497.57 106.463 497.57 106.794Z" fill="#777777"/>
<path d="M503.129 108.3H502.489V106.455C502.489 106.224 502.442 106.051 502.348 105.937C502.255 105.823 502.108 105.766 501.906 105.766C501.636 105.766 501.439 105.846 501.314 106.005C501.189 106.164 501.127 106.431 501.127 106.805V108.3H500.489V105.299H500.989L501.078 105.693H501.111C501.201 105.55 501.329 105.44 501.496 105.362C501.662 105.284 501.847 105.245 502.049 105.245C502.769 105.245 503.129 105.611 503.129 106.344V108.3Z" fill="#777777"/>
<path d="M506.032 107.445C506.032 107.738 505.925 107.964 505.712 108.121C505.498 108.277 505.193 108.354 504.795 108.354C504.395 108.354 504.074 108.294 503.832 108.173V107.622C504.184 107.785 504.513 107.866 504.817 107.866C505.209 107.866 505.405 107.748 505.405 107.511C505.405 107.435 505.384 107.371 505.34 107.321C505.297 107.27 505.225 107.218 505.126 107.163C505.026 107.109 504.888 107.048 504.711 106.979C504.365 106.845 504.131 106.711 504.008 106.577C503.887 106.443 503.826 106.27 503.826 106.056C503.826 105.8 503.929 105.601 504.136 105.46C504.344 105.317 504.626 105.245 504.982 105.245C505.335 105.245 505.668 105.317 505.983 105.46L505.777 105.94C505.453 105.806 505.181 105.739 504.96 105.739C504.624 105.739 504.456 105.835 504.456 106.027C504.456 106.121 504.499 106.2 504.586 106.265C504.675 106.33 504.866 106.42 505.161 106.534C505.409 106.63 505.589 106.717 505.701 106.797C505.813 106.877 505.896 106.969 505.951 107.074C506.005 107.177 506.032 107.301 506.032 107.445Z" fill="#777777"/>
<path d="M511.539 108.3H510.745L508.794 105.139H508.772L508.786 105.316C508.811 105.652 508.824 105.96 508.824 106.238V108.3H508.235V104.334H509.022L510.967 107.478H510.983C510.98 107.436 510.972 107.285 510.962 107.025C510.951 106.763 510.945 106.558 510.945 106.412V104.334H511.539V108.3Z" fill="#777777"/>
<path d="M514.635 108.3L514.545 107.907H514.513C514.424 108.046 514.298 108.155 514.133 108.235C513.97 108.315 513.784 108.354 513.574 108.354C513.211 108.354 512.939 108.264 512.76 108.083C512.581 107.902 512.492 107.628 512.492 107.261V105.299H513.135V107.15C513.135 107.379 513.182 107.552 513.276 107.668C513.37 107.782 513.517 107.839 513.718 107.839C513.986 107.839 514.182 107.759 514.307 107.6C514.433 107.439 514.497 107.171 514.497 106.794V105.299H515.137V108.3H514.635Z" fill="#777777"/>
<path d="M518.574 108.3H517.934V106.45C517.934 106.22 517.891 106.049 517.804 105.937C517.717 105.823 517.581 105.766 517.397 105.766C517.151 105.766 516.97 105.847 516.854 106.008C516.74 106.167 516.683 106.433 516.683 106.805V108.3H516.046V105.299H516.545L516.634 105.693H516.667C516.75 105.55 516.87 105.44 517.028 105.362C517.187 105.284 517.362 105.245 517.551 105.245C518.013 105.245 518.318 105.403 518.468 105.717H518.512C518.6 105.569 518.725 105.453 518.886 105.37C519.047 105.287 519.232 105.245 519.44 105.245C519.798 105.245 520.058 105.336 520.221 105.517C520.386 105.697 520.468 105.973 520.468 106.344V108.3H519.83V106.45C519.83 106.22 519.786 106.049 519.697 105.937C519.611 105.823 519.475 105.766 519.29 105.766C519.043 105.766 518.861 105.844 518.745 105.999C518.631 106.153 518.574 106.39 518.574 106.71V108.3Z" fill="#777777"/>
<path d="M522.891 105.245C523.265 105.245 523.556 105.381 523.764 105.652C523.974 105.923 524.079 106.304 524.079 106.794C524.079 107.286 523.973 107.67 523.762 107.945C523.55 108.218 523.256 108.354 522.88 108.354C522.5 108.354 522.205 108.218 521.995 107.945H521.952L521.835 108.3H521.358V104.079H521.995V105.082C521.995 105.157 521.992 105.267 521.985 105.413C521.977 105.56 521.972 105.653 521.968 105.693H521.995C522.198 105.394 522.496 105.245 522.891 105.245ZM522.725 105.766C522.468 105.766 522.283 105.842 522.169 105.994C522.057 106.144 521.999 106.396 521.995 106.751V106.794C521.995 107.16 522.053 107.425 522.169 107.589C522.285 107.752 522.474 107.833 522.736 107.833C522.962 107.833 523.133 107.744 523.249 107.565C523.366 107.386 523.425 107.127 523.425 106.789C523.425 106.107 523.192 105.766 522.725 105.766Z" fill="#777777"/>
<path d="M526.13 108.354C525.663 108.354 525.298 108.219 525.034 107.947C524.772 107.674 524.641 107.299 524.641 106.821C524.641 106.331 524.763 105.946 525.007 105.666C525.251 105.385 525.586 105.245 526.013 105.245C526.409 105.245 526.722 105.365 526.952 105.606C527.182 105.847 527.297 106.178 527.297 106.599V106.944H525.297C525.306 107.235 525.385 107.459 525.533 107.616C525.681 107.772 525.89 107.85 526.16 107.85C526.337 107.85 526.502 107.833 526.654 107.801C526.807 107.767 526.972 107.71 527.147 107.633V108.151C526.992 108.225 526.834 108.277 526.675 108.308C526.516 108.339 526.334 108.354 526.13 108.354ZM526.013 105.728C525.811 105.728 525.648 105.792 525.525 105.921C525.404 106.049 525.331 106.236 525.308 106.482H526.67C526.666 106.235 526.607 106.047 526.491 105.921C526.375 105.792 526.216 105.728 526.013 105.728Z" fill="#777777"/>
<path d="M529.543 105.245C529.671 105.245 529.777 105.254 529.86 105.272L529.798 105.866C529.708 105.845 529.614 105.834 529.516 105.834C529.261 105.834 529.054 105.917 528.895 106.084C528.737 106.25 528.659 106.466 528.659 106.732V108.3H528.021V105.299H528.52L528.604 105.829H528.637C528.736 105.649 528.866 105.507 529.025 105.403C529.186 105.298 529.358 105.245 529.543 105.245Z" fill="#777777"/>
<g filter="url(#filter4_d)">
<rect x="130" y="48" width="426" height="26" fill="white"/>
</g>
<rect x="462.656" y="51.7782" width="81.2311" height="18.8909" rx="4" fill="white"/>
<g filter="url(#filter5_d)">
<circle cx="532.553" cy="61.2237" r="7.55638" fill="#C4C4C4"/>
</g>
<rect x="377.175" y="56.9732" width="34.0037" height="9.44547" rx="4" fill="#ECECEC"/>
<rect x="418.735" y="56.9732" width="13.2237" height="9.44547" rx="4" fill="#ECECEC"/>
<rect x="488.159" y="54.1396" width="33.0592" height="6.13956" rx="3.06978" fill="#ECECEC"/>
<rect x="464.545" y="62.1682" width="56.6728" height="6.13956" rx="3.06978" fill="#ECECEC"/>
<rect x="335.615" y="56.9732" width="34.0037" height="9.44547" rx="4" fill="#ECECEC"/>
<rect x="146.705" y="55.0841" width="60.451" height="13.2237" rx="4" fill="#ECECEC"/>
<rect x="48" y="101.839" width="78.3974" height="15.585" fill="#78A5ED"/>
<rect x="48" y="48" width="82" height="320" fill="#4573FF"/>
<mask id="mask1" mask-type="alpha" maskUnits="userSpaceOnUse" x="55" y="55" width="13" height="12">
<rect x="55.5564" y="55.5564" width="11.6042" height="11.3346" fill="white"/>
</mask>
<g mask="url(#mask1)">
<path d="M62.3448 63.9423L63.4114 65.7442L63.9267 65.4325L64.1076 64.8357L62.9625 62.8988L62.3448 63.9423Z" fill="#D24D57"/>
<path d="M58.8926 56.8065L58.3892 57.2333L59.7407 59.5152L60.3568 58.4734L59.123 56.3882L58.8926 56.8065Z" fill="#D24D57"/>
<path d="M60.053 62.3838L58.5513 64.9224L58.739 65.5975L59.1997 65.9159L61.3653 62.2538L61.983 61.2087L64.379 57.1516L63.9814 56.6115L63.8465 56.4232L63.2629 56.9515L60.053 62.3838Z" fill="#D24D57"/>
<path d="M58.8448 55.9148L58.227 56.9615H58.2287L56.3345 60.1719L56.3328 60.1702L55.7167 61.2153L58.8448 66.5159L59.4625 65.4725L56.9505 61.217L59.4625 56.9615H61.2595L61.8772 55.9148H58.8448Z" fill="white"/>
<path d="M63.2561 56.9632L65.7663 61.217L63.2561 65.4708H61.4591L60.8431 66.5159H63.8738L64.4916 65.4708L66.3841 62.2621L67.0018 61.2187L66.3858 60.1669L64.4899 56.9615L63.8755 55.9148L63.2561 56.9632Z" fill="white"/>
</g>
<path fill-rule="evenodd" clip-rule="evenodd" d="M72.3061 59.3163L71.1617 60.9465L70.0131 59.3163H69.0992L70.6947 61.5047L69.0172 63.797H69.9274L71.1615 62.0703L72.3837 63.797H73.2939L71.6165 61.5047L73.212 59.3163H72.3061Z" fill="white"/>
<path fill-rule="evenodd" clip-rule="evenodd" d="M75.7717 59.9038C76.1056 59.9038 76.3652 60.009 76.5431 60.2163C76.715 60.4166 76.8063 60.7075 76.8145 61.0816H74.6C74.6433 60.7213 74.7629 60.4344 74.9558 60.228C75.1569 60.013 75.4313 59.9038 75.7717 59.9038ZM75.7798 59.2365C75.1662 59.2365 74.6702 59.4526 74.3054 59.8784C73.9432 60.3015 73.7595 60.8781 73.7595 61.5924C73.7595 62.3029 73.9577 62.8671 74.3486 63.2691C74.7402 63.6723 75.2809 63.8767 75.9552 63.8767C76.2597 63.8767 76.5237 63.8541 76.7402 63.8097C76.9565 63.7653 77.1887 63.691 77.4306 63.5891L77.4656 63.5744V62.8614L77.3847 62.8952C76.9236 63.0879 76.4509 63.1855 75.9797 63.1855C75.5418 63.1855 75.1985 63.0575 74.9596 62.8052C74.7285 62.5612 74.6006 62.2006 74.5793 61.7329H77.6573V61.2577C77.6573 60.6565 77.4877 60.1646 77.1532 59.7957C76.8168 59.4246 76.3547 59.2365 75.7798 59.2365Z" fill="white"/>
<path fill-rule="evenodd" clip-rule="evenodd" d="M80.8671 59.2366C80.5524 59.2366 80.2625 59.2981 80.0055 59.4195C79.7781 59.5271 79.5929 59.6752 79.4535 59.8611L79.3531 59.3162H78.6959V63.7969H79.4891V61.4491C79.4891 60.897 79.5943 60.4979 79.8014 60.2627C80.0064 60.0299 80.3376 59.9118 80.7855 59.9118C81.1207 59.9118 81.3684 59.9942 81.5222 60.1565C81.677 60.3204 81.7555 60.5755 81.7555 60.9151V63.7969H82.5488V60.8912C82.5488 60.3199 82.4055 59.8965 82.1229 59.6328C81.8411 59.3699 81.4186 59.2366 80.8671 59.2366Z" fill="white"/>
<path fill-rule="evenodd" clip-rule="evenodd" d="M85.5709 63.2094C85.1818 63.2094 84.8956 63.0777 84.6959 62.8066C84.4948 62.5335 84.3928 62.1198 84.3928 61.5766C84.3928 61.0408 84.4957 60.6218 84.6988 60.3313C84.8999 60.0436 85.1825 59.9038 85.5628 59.9038C86.0041 59.9038 86.3284 60.0298 86.5266 60.2785C86.7283 60.5314 86.8305 60.9654 86.8305 61.5685V61.708C86.8305 62.2392 86.73 62.6272 86.5318 62.8614C86.3363 63.0923 86.013 63.2094 85.5709 63.2094ZM86.8306 59.3202L86.8471 59.6289L86.8651 59.8273C86.5344 59.4351 86.0707 59.2365 85.4852 59.2365C84.8874 59.2365 84.4137 59.4448 84.0773 59.8555C83.744 60.2624 83.5751 60.8388 83.5751 61.5685C83.5751 62.2985 83.7435 62.871 84.0756 63.2699C84.4106 63.6726 84.8848 63.8767 85.4852 63.8767C86.0908 63.8767 86.5604 63.6689 86.8826 63.259L86.9651 63.797H87.6238V57.4832H86.8305L86.8306 59.3202Z" fill="white"/>
<path fill-rule="evenodd" clip-rule="evenodd" d="M89.3445 57.6944C89.2155 57.6944 89.106 57.7351 89.019 57.8155C88.9312 57.8967 88.8867 58.0226 88.8867 58.1894C88.8867 58.3532 88.931 58.4789 89.0182 58.5625C89.1053 58.6461 89.215 58.6885 89.3445 58.6885C89.4681 58.6885 89.5763 58.6463 89.666 58.5633C89.7565 58.4795 89.8023 58.3536 89.8023 58.1894C89.8023 58.0249 89.7564 57.8998 89.6656 57.8172C89.5759 57.7357 89.4679 57.6944 89.3445 57.6944Z" fill="white"/>
<path fill-rule="evenodd" clip-rule="evenodd" d="M88.9438 63.797H89.737V59.3163H88.9438V63.797Z" fill="white"/>
<path fill-rule="evenodd" clip-rule="evenodd" d="M93.1549 63.1399C93.0922 63.1578 93.0054 63.1753 92.8969 63.1921C92.7889 63.2088 92.6753 63.2174 92.5593 63.2174C92.3517 63.2174 92.1937 63.1545 92.0764 63.0252C91.9589 62.8959 91.8992 62.7046 91.8992 62.4572V59.9437H93.1966V59.3163H91.8992V58.3041H91.4064L91.1162 59.2519L90.4655 59.5312V59.9437H91.106V62.4851C91.106 63.4084 91.562 63.8766 92.4613 63.8766C92.5774 63.8766 92.7102 63.865 92.8561 63.8419C93.0058 63.8184 93.1171 63.7888 93.1963 63.7515L93.2292 63.7361V63.1187L93.1549 63.1399Z" fill="white"/>
<rect x="55.5564" y="75.3919" width="20.3078" height="7.55638" rx="3.77819" fill="#7D9DFF"/>
<rect x="71.1414" y="99.4778" width="38.2542" height="7.55638" rx="3.77819" fill="#7D9DFF"/>
<rect x="71.1414" y="118.369" width="38.2542" height="7.55638" rx="3.77819" fill="#7D9DFF"/>
<rect x="71.1414" y="137.26" width="38.2542" height="7.55638" rx="3.77819" fill="#B5C7FF"/>
<rect x="71.1416" y="212.823" width="38.2542" height="7.55638" rx="3.77819" fill="#7D9DFF"/>
<rect x="71.1416" y="164" width="38.2542" height="7.55638" rx="3.77819" fill="#7D9DFF"/>
<rect x="71.1416" y="231.714" width="38.2542" height="7.55638" rx="3.77819" fill="#7D9DFF"/>
<rect x="71.1416" y="182.891" width="38.2542" height="7.55638" rx="3.77819" fill="#7D9DFF"/>
<rect x="71.1416" y="256" width="38.2542" height="7.55638" rx="3.77819" fill="#7D9DFF"/>
<rect x="115.535" y="75.3919" width="7.55638" height="7.55638" rx="3.77819" fill="#7D9DFF"/>
<rect x="55.5564" y="99.4778" width="7.55638" height="7.55638" rx="3.77819" fill="#7D9DFF"/>
<rect x="55.5564" y="118.369" width="7.55638" height="7.55638" rx="3.77819" fill="#7D9DFF"/>
<rect x="55.5564" y="137.26" width="7.55638" height="7.55638" rx="3.77819" fill="#B5C7FF"/>
<rect x="55.5562" y="212.823" width="7.55638" height="7.55638" rx="3.77819" fill="#7D9DFF"/>
<rect x="55.5562" y="164" width="7.55638" height="7.55638" rx="3.77819" fill="#7D9DFF"/>
<rect x="55.5562" y="231.714" width="7.55638" height="7.55638" rx="3.77819" fill="#7D9DFF"/>
<rect x="55.5562" y="182.891" width="7.55638" height="7.55638" rx="3.77819" fill="#7D9DFF"/>
<rect x="55.5562" y="256" width="7.55638" height="7.55638" rx="3.77819" fill="#7D9DFF"/>
</g>
</g>
<defs>
<filter id="filter0_d" x="4" y="8" width="596" height="408" filterUnits="userSpaceOnUse" color-interpolation-filters="sRGB">
<feFlood flood-opacity="0" result="BackgroundImageFix"/>
<feColorMatrix in="SourceAlpha" type="matrix" values="0 0 0 0 0 0 0 0 0 0 0 0 0 0 0 0 0 0 127 0"/>
<feOffset dy="4"/>
<feGaussianBlur stdDeviation="22"/>
<feColorMatrix type="matrix" values="0 0 0 0 0 0 0 0 0 0 0 0 0 0 0 0 0 0 0.15 0"/>
<feBlend mode="normal" in2="BackgroundImageFix" result="effect1_dropShadow"/>
<feBlend mode="normal" in="SourceGraphic" in2="effect1_dropShadow" result="shape"/>
</filter>
<filter id="filter1_d" x="142" y="140" width="405.873" height="222" filterUnits="userSpaceOnUse" color-interpolation-filters="sRGB">
<feFlood flood-opacity="0" result="BackgroundImageFix"/>
<feColorMatrix in="SourceAlpha" type="matrix" values="0 0 0 0 0 0 0 0 0 0 0 0 0 0 0 0 0 0 127 0"/>
<feOffset dy="2"/>
<feGaussianBlur stdDeviation="2"/>
<feColorMatrix type="matrix" values="0 0 0 0 0 0 0 0 0 0 0 0 0 0 0 0 0 0 0.08 0"/>
<feBlend mode="normal" in2="BackgroundImageFix" result="effect1_dropShadow"/>
<feBlend mode="normal" in="SourceGraphic" in2="effect1_dropShadow" result="shape"/>
</filter>
<filter id="filter2_d" x="142" y="88" width="203" height="52" filterUnits="userSpaceOnUse" color-interpolation-filters="sRGB">
<feFlood flood-opacity="0" result="BackgroundImageFix"/>
<feColorMatrix in="SourceAlpha" type="matrix" values="0 0 0 0 0 0 0 0 0 0 0 0 0 0 0 0 0 0 127 0"/>
<feOffset dy="2"/>
<feGaussianBlur stdDeviation="2"/>
<feColorMatrix type="matrix" values="0 0 0 0 0 0 0 0 0 0 0 0 0 0 0 0 0 0 0.08 0"/>
<feBlend mode="normal" in2="BackgroundImageFix" result="effect1_dropShadow"/>
<feBlend mode="normal" in="SourceGraphic" in2="effect1_dropShadow" result="shape"/>
</filter>
<filter id="filter3_d" x="345" y="88" width="203" height="52" filterUnits="userSpaceOnUse" color-interpolation-filters="sRGB">
<feFlood flood-opacity="0" result="BackgroundImageFix"/>
<feColorMatrix in="SourceAlpha" type="matrix" values="0 0 0 0 0 0 0 0 0 0 0 0 0 0 0 0 0 0 127 0"/>
<feOffset dy="2"/>
<feGaussianBlur stdDeviation="2"/>
<feColorMatrix type="matrix" values="0 0 0 0 0 0 0 0 0 0 0 0 0 0 0 0 0 0 0.08 0"/>
<feBlend mode="normal" in2="BackgroundImageFix" result="effect1_dropShadow"/>
<feBlend mode="normal" in="SourceGraphic" in2="effect1_dropShadow" result="shape"/>
</filter>
<filter id="filter4_d" x="126" y="46" width="434" height="34" filterUnits="userSpaceOnUse" color-interpolation-filters="sRGB">
<feFlood flood-opacity="0" result="BackgroundImageFix"/>
<feColorMatrix in="SourceAlpha" type="matrix" values="0 0 0 0 0 0 0 0 0 0 0 0 0 0 0 0 0 0 127 0"/>
<feOffset dy="2"/>
<feGaussianBlur stdDeviation="2"/>
<feColorMatrix type="matrix" values="0 0 0 0 0 0 0 0 0 0 0 0 0 0 0 0 0 0 0.08 0"/>
<feBlend mode="normal" in2="BackgroundImageFix" result="effect1_dropShadow"/>
<feBlend mode="normal" in="SourceGraphic" in2="effect1_dropShadow" result="shape"/>
</filter>
<filter id="filter5_d" x="520.996" y="51.6673" width="23.1128" height="23.1128" filterUnits="userSpaceOnUse" color-interpolation-filters="sRGB">
<feFlood flood-opacity="0" result="BackgroundImageFix"/>
<feColorMatrix in="SourceAlpha" type="matrix" values="0 0 0 0 0 0 0 0 0 0 0 0 0 0 0 0 0 0 127 0"/>
<feOffset dy="2"/>
<feGaussianBlur stdDeviation="2"/>
<feColorMatrix type="matrix" values="0 0 0 0 0 0 0 0 0 0 0 0 0 0 0 0 0 0 0.08 0"/>
<feBlend mode="normal" in2="BackgroundImageFix" result="effect1_dropShadow"/>
<feBlend mode="normal" in="SourceGraphic" in2="effect1_dropShadow" result="shape"/>
</filter>
</defs>
</svg>
