<svg width="320" height="218" viewBox="0 0 320 218" fill="none" xmlns="http://www.w3.org/2000/svg">
<mask id="mask0" mask-type="alpha" maskUnits="userSpaceOnUse" x="0" y="0" width="320" height="218">
<rect width="320" height="218" fill="white"/>
</mask>
<g mask="url(#mask0)">
<path d="M0 0H320V218H0V0Z" fill="#FEDDCD"/>
<g filter="url(#filter0_d)">
<rect x="16" y="16" width="427.038" height="269" fill="#F7F7F7"/>
<g filter="url(#filter1_d)">
<rect x="98.3815" y="95.0188" width="334.462" height="179.894" rx="3.98092" fill="white"/>
</g>
<rect x="105.106" y="128.939" width="17.8595" height="5.95507" rx="2.97754" fill="#CFCFCF"/>
<rect x="159.747" y="128.939" width="17.0658" height="5.95507" rx="2.97754" fill="#CFCFCF"/>
<rect x="219.825" y="128.939" width="18.6533" height="5.95507" rx="2.97754" fill="#CFCFCF"/>
<rect x="271.42" y="128.939" width="17.8595" height="5.95507" rx="2.97754" fill="#CFCFCF"/>
<rect x="313.581" y="128.939" width="21.0346" height="5.95507" rx="2.97754" fill="#CFCFCF"/>
<rect x="105.106" y="146.804" width="30.1628" height="5.95507" rx="2.97754" fill="#C6EAEE"/>
<rect x="159.747" y="146.804" width="26.5909" height="5.95507" rx="2.97754" fill="#ECECEC"/>
<rect x="219.825" y="146.804" width="32.5441" height="5.95507" rx="2.97754" fill="#ECECEC"/>
<rect x="271.42" y="146.804" width="23.4158" height="5.95507" rx="2.97754" fill="#ECECEC"/>
<rect x="313.581" y="147.138" width="33.7347" height="5.95507" rx="2.97754" fill="#ECECEC"/>
<rect x="105.106" y="177.771" width="30.1628" height="5.95507" rx="2.97754" fill="#FFDBCF"/>
<rect x="159.747" y="177.771" width="26.5909" height="5.95507" rx="2.97754" fill="#ECECEC"/>
<rect x="219.825" y="177.771" width="32.5441" height="5.95507" rx="2.97754" fill="#ECECEC"/>
<rect x="271.42" y="177.771" width="23.4158" height="5.95507" rx="2.97754" fill="#ECECEC"/>
<rect x="313.581" y="177.4" width="33.7347" height="5.95507" rx="2.97754" fill="#ECECEC"/>
<rect x="105.106" y="208.737" width="30.1628" height="5.95507" rx="2.97754" fill="#FFCDDF"/>
<rect x="159.747" y="208.737" width="26.5909" height="5.95507" rx="2.97754" fill="#ECECEC"/>
<rect x="219.825" y="208.737" width="32.5441" height="5.95507" rx="2.97754" fill="#ECECEC"/>
<rect x="271.42" y="208.737" width="23.4158" height="5.95507" rx="2.97754" fill="#ECECEC"/>
<rect x="313.581" y="208.503" width="33.7347" height="5.95507" rx="2.97754" fill="#ECECEC"/>
<rect x="105.106" y="162.287" width="30.1628" height="5.95507" rx="2.97754" fill="#FFDBCF"/>
<rect x="159.746" y="162.287" width="26.5909" height="5.95507" rx="2.97754" fill="#ECECEC"/>
<rect x="219.825" y="162.287" width="32.5441" height="5.95507" rx="2.97754" fill="#ECECEC"/>
<rect x="271.419" y="162.287" width="23.4158" height="5.95507" rx="2.97754" fill="#ECECEC"/>
<rect x="313.581" y="162.269" width="33.7347" height="5.95507" rx="2.97754" fill="#ECECEC"/>
<rect x="105.106" y="193.254" width="30.1628" height="5.95507" rx="2.97754" fill="#C6EAEE"/>
<rect x="159.747" y="193.254" width="26.5909" height="5.95507" rx="2.97754" fill="#ECECEC"/>
<rect x="219.825" y="193.254" width="32.5441" height="5.95507" rx="2.97754" fill="#ECECEC"/>
<rect x="271.42" y="193.254" width="23.4158" height="5.95507" rx="2.97754" fill="#ECECEC"/>
<rect x="313.581" y="193.372" width="33.7347" height="5.95507" rx="2.97754" fill="#ECECEC"/>
<rect x="98.4806" y="122.289" width="334.37" height="0.198502" rx="0.0992512" fill="white" stroke="#DFDFDF" stroke-width="0.198502"/>
<rect x="150.473" y="102.837" width="39.0895" height="12.5029" rx="3.4833" fill="white" stroke="#CFCFCF" stroke-width="0.995229"/>
<rect x="200.083" y="102.837" width="39.0895" height="12.5029" rx="3.4833" fill="white" stroke="#CFCFCF" stroke-width="0.995229"/>
<rect x="203.951" y="105.913" width="24.6065" height="5.95507" rx="2.97754" fill="#ECECEC"/>
<rect x="154.341" y="105.913" width="24.6065" height="5.95507" rx="2.97754" fill="#ECECEC"/>
<path d="M193.318 116.294V115.128H196.316V116.294H193.318Z" fill="#CFCFCF"/>
<rect x="105.229" y="102.837" width="37.8989" height="12.5029" rx="3.4833" fill="white" stroke="#CFCFCF" stroke-width="0.995229"/>
<rect x="109.097" y="106.707" width="24.6065" height="5.95507" rx="2.97754" fill="#ECECEC"/>
<path d="M137.157 109.005L138.069 109.917L138.981 109.005L139.26 109.284L138.069 110.475L136.878 109.284L137.157 109.005Z" fill="#CFCFCF"/>
<rect x="246.517" y="102.837" width="70.0461" height="12.5029" rx="3.4833" fill="white" stroke="#CFCFCF" stroke-width="0.995229"/>
<path fill-rule="evenodd" clip-rule="evenodd" d="M253.402 109.403H253.624L255.027 110.809L254.608 111.228L253.203 109.825V109.603L253.127 109.524C252.806 109.8 252.39 109.965 251.937 109.965C250.928 109.965 250.11 109.147 250.11 108.138C250.11 107.128 250.928 106.31 251.937 106.31C252.947 106.31 253.765 107.128 253.765 108.138C253.765 108.59 253.599 109.007 253.323 109.327L253.402 109.403ZM250.673 108.138C250.673 108.838 251.238 109.403 251.938 109.403C252.639 109.403 253.204 108.838 253.204 108.138C253.204 107.437 252.639 106.872 251.938 106.872C251.238 106.872 250.673 107.437 250.673 108.138Z" fill="#B1B1B1"/>
<path d="M233.519 108.49H233.119V108.89H233.519V108.49ZM234.309 108.49H233.919V108.89H234.309V108.49ZM235.109 108.49H234.709V108.89H235.109V108.49ZM235.5 107.104H235.305V106.704H234.905V107.104H233.323V106.704H232.923V107.104H232.728C232.61 107.104 232.514 107.144 232.44 107.225C232.365 107.299 232.328 107.392 232.328 107.504V110.277C232.328 110.388 232.365 110.485 232.44 110.565C232.52 110.64 232.616 110.677 232.728 110.677H235.5C235.612 110.677 235.705 110.64 235.779 110.565C235.86 110.485 235.9 110.388 235.9 110.277V107.504C235.9 107.392 235.86 107.299 235.779 107.225C235.705 107.144 235.612 107.104 235.5 107.104ZM235.5 110.277H232.728V108.099H235.5V110.277Z" fill="#CFCFCF"/>
<path d="M183.908 108.49H183.508V108.89H183.908V108.49ZM184.699 108.49H184.308V108.89H184.699V108.49ZM185.499 108.49H185.099V108.89H185.499V108.49ZM185.89 107.104H185.694V106.704H185.294V107.104H183.713V106.704H183.313V107.104H183.118C183 107.104 182.904 107.144 182.829 107.225C182.755 107.299 182.718 107.392 182.718 107.504V110.277C182.718 110.388 182.755 110.485 182.829 110.565C182.91 110.64 183.006 110.677 183.118 110.677H185.89C186.001 110.677 186.094 110.64 186.169 110.565C186.249 110.485 186.29 110.388 186.29 110.277V107.504C186.29 107.392 186.249 107.299 186.169 107.225C186.094 107.144 186.001 107.104 185.89 107.104ZM185.89 110.277H183.118V108.099H185.89V110.277Z" fill="#CFCFCF"/>
<rect x="104.83" y="141.345" width="321.67" height="0.198502" rx="0.0992512" fill="white" stroke="#DFDFDF" stroke-width="0.198502"/>
<g filter="url(#filter2_d)">
<rect x="98.3818" y="51.3063" width="163.922" height="36.9875" rx="3.98092" fill="white"/>
</g>
<g filter="url(#filter3_d)">
<rect x="269.029" y="51.3063" width="163.922" height="36.9875" rx="3.98092" fill="white"/>
</g>
<path d="M109.776 66.3264H112.445V69.892H114.592L111.11 73.3741L107.628 69.892H109.776V66.3264Z" fill="#3AA7B2"/>
<path d="M308.734 147.978H310.023V149.679H311.059L309.378 151.341L307.697 149.679H308.734V147.978Z" fill="#3AA7B2"/>
<path d="M308.734 194.213H310.023V195.914H311.059L309.378 197.575L307.697 195.914H308.734V194.213Z" fill="#3AA7B2"/>
<path d="M308.734 210.184H310.023V211.886H311.059L309.378 213.547L307.697 211.886H308.734V210.184Z" fill="#3AA7B2"/>
<path d="M198.476 74.5807C198.476 73.0898 199.083 72.3444 200.298 72.3444C200.489 72.3444 200.651 72.3592 200.783 72.3887V72.8996C200.651 72.8614 200.498 72.8422 200.324 72.8422C199.916 72.8422 199.609 72.9517 199.404 73.1706C199.199 73.3896 199.088 73.7406 199.07 74.2236H199.102C199.183 74.0829 199.298 73.9743 199.446 73.8978C199.593 73.8196 199.767 73.7806 199.967 73.7806C200.313 73.7806 200.582 73.8865 200.775 74.0985C200.968 74.3105 201.064 74.5981 201.064 74.9613C201.064 75.3609 200.952 75.6772 200.728 75.91C200.506 76.1411 200.202 76.2567 199.816 76.2567C199.543 76.2567 199.306 76.1915 199.104 76.0612C198.903 75.9291 198.747 75.738 198.638 75.4878C198.53 75.2358 198.476 74.9335 198.476 74.5807ZM199.805 75.751C200.016 75.751 200.177 75.6832 200.29 75.5477C200.405 75.4122 200.462 75.2184 200.462 74.9665C200.462 74.7475 200.408 74.5755 200.301 74.4504C200.195 74.3253 200.035 74.2627 199.821 74.2627C199.689 74.2627 199.567 74.2914 199.456 74.3488C199.345 74.4044 199.257 74.4817 199.193 74.5807C199.129 74.678 199.096 74.7779 199.096 74.8805C199.096 75.1255 199.162 75.3322 199.295 75.5008C199.428 75.6676 199.599 75.751 199.805 75.751Z" fill="#7A7A7A"/>
<path d="M202.803 72.3444C203.164 72.3444 203.45 72.4278 203.66 72.5946C203.871 72.7597 203.976 72.9812 203.976 73.2593C203.976 73.6502 203.741 73.9613 203.272 74.1924C203.571 74.3418 203.783 74.4991 203.908 74.6641C204.035 74.8292 204.098 75.0134 204.098 75.2167C204.098 75.5312 203.983 75.7832 203.752 75.9726C203.52 76.162 203.208 76.2567 202.813 76.2567C202.4 76.2567 202.079 76.168 201.851 75.9908C201.624 75.8136 201.51 75.5625 201.51 75.2375C201.51 75.0256 201.569 74.8353 201.687 74.6667C201.807 74.4965 202.003 74.3453 202.274 74.2132C202.041 74.0742 201.875 73.9274 201.776 73.7727C201.677 73.6181 201.627 73.4443 201.627 73.2514C201.627 72.9752 201.736 72.7554 201.953 72.592C202.17 72.4269 202.454 72.3444 202.803 72.3444ZM202.096 75.2167C202.096 75.3974 202.16 75.5382 202.287 75.6389C202.414 75.738 202.586 75.7875 202.803 75.7875C203.027 75.7875 203.201 75.7362 203.324 75.6337C203.449 75.5295 203.512 75.3887 203.512 75.2115C203.512 75.0707 203.454 74.9422 203.34 74.8257C203.225 74.7093 203.051 74.6016 202.818 74.5025L202.743 74.4687C202.513 74.5694 202.348 74.6806 202.248 74.8023C202.147 74.9222 202.096 75.0603 202.096 75.2167ZM202.798 72.8162C202.624 72.8162 202.484 72.8596 202.378 72.9465C202.272 73.0316 202.219 73.1481 202.219 73.2958C202.219 73.3861 202.238 73.4669 202.276 73.5382C202.315 73.6094 202.37 73.6746 202.443 73.7336C202.516 73.791 202.639 73.8605 202.813 73.9422C203.022 73.8501 203.169 73.7536 203.254 73.6528C203.341 73.5503 203.384 73.4313 203.384 73.2958C203.384 73.1481 203.33 73.0316 203.222 72.9465C203.116 72.8596 202.975 72.8162 202.798 72.8162Z" fill="#7A7A7A"/>
<path d="M207.143 74.0203C207.143 74.771 206.991 75.3314 206.689 75.7015C206.387 76.0716 205.931 76.2567 205.323 76.2567C205.092 76.2567 204.926 76.2428 204.825 76.215V75.7015C204.98 75.7449 205.136 75.7667 205.292 75.7667C205.706 75.7667 206.014 75.6554 206.217 75.433C206.421 75.2106 206.532 74.8614 206.551 74.3852H206.52C206.417 74.5416 206.293 74.6546 206.147 74.7241C206.003 74.7936 205.833 74.8283 205.639 74.8283C205.302 74.8283 205.037 74.7232 204.844 74.513C204.651 74.3027 204.554 74.0143 204.554 73.6476C204.554 73.2497 204.666 72.9335 204.888 72.6989C205.112 72.4626 205.417 72.3444 205.803 72.3444C206.074 72.3444 206.31 72.4104 206.512 72.5425C206.713 72.6746 206.869 72.8666 206.978 73.1185C207.088 73.3687 207.143 73.6693 207.143 74.0203ZM205.813 72.8527C205.601 72.8527 205.439 72.9222 205.326 73.0612C205.213 73.1985 205.156 73.3922 205.156 73.6424C205.156 73.8596 205.209 74.0308 205.313 74.1559C205.419 74.2793 205.579 74.3409 205.792 74.3409C205.999 74.3409 206.173 74.2793 206.314 74.1559C206.454 74.0325 206.525 73.8883 206.525 73.7232C206.525 73.5686 206.494 73.4243 206.434 73.2905C206.374 73.155 206.291 73.0481 206.183 72.97C206.076 72.8918 205.952 72.8527 205.813 72.8527Z" fill="#7A7A7A"/>
<path d="M210.197 74.2992C210.197 74.9613 210.09 75.453 209.877 75.7745C209.665 76.0959 209.34 76.2567 208.902 76.2567C208.478 76.2567 208.156 76.0907 207.937 75.7588C207.719 75.4269 207.609 74.9404 207.609 74.2992C207.609 73.6268 207.715 73.1316 207.927 72.8136C208.141 72.4938 208.466 72.334 208.902 72.334C209.328 72.334 209.65 72.5008 209.869 72.8344C210.088 73.168 210.197 73.6563 210.197 74.2992ZM208.229 74.2992C208.229 74.8188 208.282 75.1898 208.388 75.4122C208.496 75.6346 208.667 75.7458 208.902 75.7458C209.136 75.7458 209.308 75.6329 209.415 75.407C209.525 75.1811 209.58 74.8118 209.58 74.2992C209.58 73.7884 209.525 73.4191 209.415 73.1915C209.308 72.9621 209.136 72.8475 208.902 72.8475C208.667 72.8475 208.496 72.9595 208.388 73.1837C208.282 73.4078 208.229 73.7797 208.229 74.2992Z" fill="#7A7A7A"/>
<path d="M119.139 76.8849V72.1217H120.149V76.8849H119.139Z" fill="#777777"/>
<path d="M125.3 74.4577C125.3 75.2418 125.076 75.8424 124.629 76.2594C124.184 76.6764 123.54 76.8849 122.697 76.8849H121.348V72.1217H122.843C123.621 72.1217 124.225 72.3269 124.655 72.7375C125.085 73.148 125.3 73.7214 125.3 74.4577ZM124.251 74.4838C124.251 73.4607 123.799 72.9492 122.896 72.9492H122.358V76.0509H122.791C123.764 76.0509 124.251 75.5285 124.251 74.4838Z" fill="#777777"/>
<path d="M127.297 74.2362H127.623C127.942 74.2362 128.178 74.1829 128.33 74.0765C128.482 73.9701 128.558 73.8028 128.558 73.5748C128.558 73.3489 128.48 73.1882 128.324 73.0926C128.169 72.997 127.929 72.9492 127.603 72.9492H127.297V74.2362ZM127.297 75.0572V76.8849H126.287V72.1217H127.675C128.322 72.1217 128.801 72.2401 129.112 72.4768C129.423 72.7114 129.578 73.0687 129.578 73.5487C129.578 73.8289 129.501 74.0787 129.347 74.2981C129.192 74.5153 128.974 74.6858 128.692 74.8096C129.408 75.8804 129.875 76.5722 130.093 76.8849H128.972L127.835 75.0572H127.297Z" fill="#777777"/>
<path d="M134.299 76.8849L136.087 72.9753H133.738V72.1282H137.156V72.7603L135.354 76.8849H134.299Z" fill="#777777"/>
<path d="M139.28 72.0598C139.736 72.0598 140.103 72.164 140.382 72.3726C140.662 72.5789 140.802 72.858 140.802 73.2099C140.802 73.4531 140.734 73.6703 140.6 73.8615C140.465 74.0504 140.248 74.2199 139.948 74.3697C140.304 74.5609 140.56 74.7607 140.714 74.9692C140.87 75.1756 140.948 75.4025 140.948 75.6501C140.948 76.0411 140.795 76.3561 140.489 76.595C140.183 76.8317 139.78 76.9501 139.28 76.9501C138.759 76.9501 138.35 76.8393 138.052 76.6178C137.754 76.3962 137.606 76.0824 137.606 75.6762C137.606 75.4047 137.677 75.1636 137.821 74.9529C137.966 74.7422 138.199 74.5565 138.518 74.3958C138.246 74.2242 138.051 74.0407 137.931 73.8452C137.812 73.6497 137.752 73.4358 137.752 73.2034C137.752 72.8623 137.893 72.5865 138.176 72.3758C138.458 72.1651 138.826 72.0598 139.28 72.0598ZM138.537 75.6176C138.537 75.8044 138.603 75.9499 138.733 76.0541C138.863 76.1584 139.041 76.2105 139.267 76.2105C139.517 76.2105 139.704 76.1573 139.828 76.0509C139.951 75.9423 140.013 75.8 140.013 75.6241C140.013 75.4786 139.951 75.3428 139.828 75.2168C139.706 75.0887 139.507 74.9529 139.231 74.8096C138.769 75.0224 138.537 75.2918 138.537 75.6176ZM139.274 72.7961C139.102 72.7961 138.963 72.8406 138.857 72.9297C138.752 73.0166 138.7 73.1339 138.7 73.2815C138.7 73.4119 138.742 73.5292 138.824 73.6334C138.909 73.7355 139.061 73.8408 139.28 73.9494C139.493 73.8495 139.642 73.7474 139.727 73.6432C139.811 73.5389 139.854 73.4184 139.854 73.2815C139.854 73.1317 139.799 73.0133 139.691 72.9264C139.582 72.8395 139.443 72.7961 139.274 72.7961Z" fill="#777777"/>
<path d="M144.754 74.5033C144.754 75.3352 144.617 75.951 144.343 76.3506C144.072 76.7503 143.653 76.9501 143.086 76.9501C142.536 76.9501 142.121 76.7438 141.841 76.3311C141.563 75.9184 141.424 75.3091 141.424 74.5033C141.424 73.6627 141.56 73.0437 141.831 72.6462C142.103 72.2466 142.521 72.0468 143.086 72.0468C143.635 72.0468 144.05 72.2553 144.33 72.6723C144.613 73.0893 144.754 73.6997 144.754 74.5033ZM142.424 74.5033C142.424 75.0876 142.474 75.5068 142.574 75.7609C142.676 76.0129 142.847 76.1388 143.086 76.1388C143.32 76.1388 143.49 76.0107 143.594 75.7544C143.698 75.4981 143.75 75.0811 143.75 74.5033C143.75 73.919 143.697 73.4998 143.591 73.2457C143.486 72.9894 143.318 72.8613 143.086 72.8613C142.849 72.8613 142.68 72.9894 142.577 73.2457C142.475 73.4998 142.424 73.919 142.424 74.5033Z" fill="#777777"/>
<path d="M145.376 76.419C145.376 76.2366 145.425 76.0987 145.523 76.0053C145.62 75.9119 145.763 75.8652 145.949 75.8652C146.13 75.8652 146.269 75.913 146.367 76.0085C146.466 76.1041 146.516 76.2409 146.516 76.419C146.516 76.5906 146.466 76.7264 146.367 76.8263C146.267 76.924 146.128 76.9729 145.949 76.9729C145.767 76.9729 145.626 76.9251 145.526 76.8296C145.426 76.7318 145.376 76.595 145.376 76.419Z" fill="#777777"/>
<path d="M150.468 74.5033C150.468 75.3352 150.332 75.951 150.058 76.3506C149.786 76.7503 149.367 76.9501 148.8 76.9501C148.251 76.9501 147.836 76.7438 147.556 76.3311C147.278 75.9184 147.139 75.3091 147.139 74.5033C147.139 73.6627 147.274 73.0437 147.546 72.6462C147.817 72.2466 148.236 72.0468 148.8 72.0468C149.35 72.0468 149.765 72.2553 150.045 72.6723C150.327 73.0893 150.468 73.6997 150.468 74.5033ZM148.139 74.5033C148.139 75.0876 148.189 75.5068 148.289 75.7609C148.391 76.0129 148.561 76.1388 148.8 76.1388C149.035 76.1388 149.204 76.0107 149.309 75.7544C149.413 75.4981 149.465 75.0811 149.465 74.5033C149.465 73.919 149.412 73.4998 149.305 73.2457C149.201 72.9894 149.033 72.8613 148.8 72.8613C148.564 72.8613 148.394 72.9894 148.292 73.2457C148.19 73.4998 148.139 73.919 148.139 74.5033Z" fill="#777777"/>
<path d="M154.28 74.5033C154.28 75.3352 154.143 75.951 153.87 76.3506C153.598 76.7503 153.179 76.9501 152.612 76.9501C152.063 76.9501 151.648 76.7438 151.368 76.3311C151.09 75.9184 150.951 75.3091 150.951 74.5033C150.951 73.6627 151.086 73.0437 151.358 72.6462C151.629 72.2466 152.047 72.0468 152.612 72.0468C153.162 72.0468 153.577 72.2553 153.857 72.6723C154.139 73.0893 154.28 73.6997 154.28 74.5033ZM151.951 74.5033C151.951 75.0876 152.001 75.5068 152.101 75.7609C152.203 76.0129 152.373 76.1388 152.612 76.1388C152.847 76.1388 153.016 76.0107 153.12 75.7544C153.225 75.4981 153.277 75.0811 153.277 74.5033C153.277 73.919 153.224 73.4998 153.117 73.2457C153.013 72.9894 152.845 72.8613 152.612 72.8613C152.375 72.8613 152.206 72.9894 152.104 73.2457C152.002 73.4998 151.951 73.919 151.951 74.5033Z" fill="#777777"/>
<path d="M158.092 74.5033C158.092 75.3352 157.955 75.951 157.682 76.3506C157.41 76.7503 156.991 76.9501 156.424 76.9501C155.875 76.9501 155.46 76.7438 155.18 76.3311C154.901 75.9184 154.762 75.3091 154.762 74.5033C154.762 73.6627 154.898 73.0437 155.17 72.6462C155.441 72.2466 155.859 72.0468 156.424 72.0468C156.974 72.0468 157.388 72.2553 157.669 72.6723C157.951 73.0893 158.092 73.6997 158.092 74.5033ZM155.763 74.5033C155.763 75.0876 155.813 75.5068 155.913 75.7609C156.015 76.0129 156.185 76.1388 156.424 76.1388C156.659 76.1388 156.828 76.0107 156.932 75.7544C157.037 75.4981 157.089 75.0811 157.089 74.5033C157.089 73.919 157.036 73.4998 156.929 73.2457C156.825 72.9894 156.656 72.8613 156.424 72.8613C156.187 72.8613 156.018 72.9894 155.916 73.2457C155.814 73.4998 155.763 73.919 155.763 74.5033Z" fill="#777777"/>
<path d="M158.714 76.419C158.714 76.2366 158.763 76.0987 158.861 76.0053C158.959 75.9119 159.101 75.8652 159.288 75.8652C159.468 75.8652 159.607 75.913 159.705 76.0085C159.805 76.1041 159.855 76.2409 159.855 76.419C159.855 76.5906 159.805 76.7264 159.705 76.8263C159.605 76.924 159.466 76.9729 159.288 76.9729C159.105 76.9729 158.964 76.9251 158.864 76.8296C158.764 76.7318 158.714 76.595 158.714 76.419Z" fill="#777777"/>
<path d="M163.807 74.5033C163.807 75.3352 163.67 75.951 163.396 76.3506C163.125 76.7503 162.706 76.9501 162.139 76.9501C161.589 76.9501 161.174 76.7438 160.894 76.3311C160.616 75.9184 160.477 75.3091 160.477 74.5033C160.477 73.6627 160.613 73.0437 160.884 72.6462C161.156 72.2466 161.574 72.0468 162.139 72.0468C162.688 72.0468 163.103 72.2553 163.383 72.6723C163.666 73.0893 163.807 73.6997 163.807 74.5033ZM161.477 74.5033C161.477 75.0876 161.527 75.5068 161.627 75.7609C161.729 76.0129 161.9 76.1388 162.139 76.1388C162.373 76.1388 162.543 76.0107 162.647 75.7544C162.751 75.4981 162.803 75.0811 162.803 74.5033C162.803 73.919 162.75 73.4998 162.644 73.2457C162.539 72.9894 162.371 72.8613 162.139 72.8613C161.902 72.8613 161.733 72.9894 161.63 73.2457C161.528 73.4998 161.477 73.919 161.477 74.5033Z" fill="#777777"/>
<path d="M167.619 74.5033C167.619 75.3352 167.482 75.951 167.208 76.3506C166.937 76.7503 166.517 76.9501 165.951 76.9501C165.401 76.9501 164.986 76.7438 164.706 76.3311C164.428 75.9184 164.289 75.3091 164.289 74.5033C164.289 73.6627 164.425 73.0437 164.696 72.6462C164.968 72.2466 165.386 72.0468 165.951 72.0468C166.5 72.0468 166.915 72.2553 167.195 72.6723C167.478 73.0893 167.619 73.6997 167.619 74.5033ZM165.289 74.5033C165.289 75.0876 165.339 75.5068 165.439 75.7609C165.541 76.0129 165.712 76.1388 165.951 76.1388C166.185 76.1388 166.355 76.0107 166.459 75.7544C166.563 75.4981 166.615 75.0811 166.615 74.5033C166.615 73.919 166.562 73.4998 166.456 73.2457C166.351 72.9894 166.183 72.8613 165.951 72.8613C165.714 72.8613 165.544 72.9894 165.442 73.2457C165.34 73.4998 165.289 73.919 165.289 74.5033Z" fill="#777777"/>
<path d="M171.431 74.5033C171.431 75.3352 171.294 75.951 171.02 76.3506C170.749 76.7503 170.329 76.9501 169.762 76.9501C169.213 76.9501 168.798 76.7438 168.518 76.3311C168.24 75.9184 168.101 75.3091 168.101 74.5033C168.101 73.6627 168.237 73.0437 168.508 72.6462C168.78 72.2466 169.198 72.0468 169.762 72.0468C170.312 72.0468 170.727 72.2553 171.007 72.6723C171.289 73.0893 171.431 73.6997 171.431 74.5033ZM169.101 74.5033C169.101 75.0876 169.151 75.5068 169.251 75.7609C169.353 76.0129 169.524 76.1388 169.762 76.1388C169.997 76.1388 170.166 76.0107 170.271 75.7544C170.375 75.4981 170.427 75.0811 170.427 74.5033C170.427 73.919 170.374 73.4998 170.267 73.2457C170.163 72.9894 169.995 72.8613 169.762 72.8613C169.526 72.8613 169.356 72.9894 169.254 73.2457C169.152 73.4998 169.101 73.919 169.101 74.5033Z" fill="#777777"/>
<path d="M120.131 66.6898H119.586V63.823H118.605V63.3555H121.112V63.823H120.131V66.6898Z" fill="#777777"/>
<path d="M123.805 65.424C123.805 65.8361 123.699 66.1576 123.488 66.3887C123.277 66.6198 122.983 66.7354 122.606 66.7354C122.37 66.7354 122.162 66.6822 121.981 66.5757C121.8 66.4693 121.661 66.3165 121.563 66.1173C121.466 65.9182 121.417 65.6871 121.417 65.424C121.417 65.015 121.522 64.6957 121.732 64.4662C121.942 64.2366 122.238 64.1218 122.619 64.1218C122.984 64.1218 123.273 64.2396 123.486 64.4753C123.699 64.7094 123.805 65.0257 123.805 65.424ZM121.969 65.424C121.969 66.0063 122.184 66.2975 122.615 66.2975C123.04 66.2975 123.253 66.0063 123.253 65.424C123.253 64.8478 123.039 64.5597 122.61 64.5597C122.385 64.5597 122.222 64.6342 122.12 64.7832C122.019 64.9322 121.969 65.1458 121.969 65.424Z" fill="#777777"/>
<path d="M125.363 66.3021C125.494 66.3021 125.624 66.2815 125.755 66.2405V66.6442C125.696 66.67 125.619 66.6913 125.525 66.708C125.432 66.7263 125.335 66.7354 125.235 66.7354C124.727 66.7354 124.473 66.4678 124.473 65.9326V64.5733H124.129V64.3362L124.498 64.14L124.681 63.6064H125.012V64.1674H125.73V64.5733H125.012V65.9235C125.012 66.0527 125.043 66.1485 125.107 66.2108C125.173 66.2717 125.258 66.3021 125.363 66.3021Z" fill="#777777"/>
<path d="M127.84 66.6898L127.732 66.3386H127.714C127.592 66.4921 127.47 66.597 127.347 66.6533C127.224 66.708 127.066 66.7354 126.873 66.7354C126.625 66.7354 126.431 66.6685 126.291 66.5347C126.153 66.4009 126.083 66.2116 126.083 65.9668C126.083 65.7068 126.18 65.5107 126.373 65.3784C126.566 65.2461 126.86 65.1739 127.256 65.1617L127.691 65.1481V65.0135C127.691 64.8523 127.653 64.7322 127.577 64.6532C127.503 64.5726 127.386 64.5323 127.228 64.5323C127.099 64.5323 126.975 64.5513 126.857 64.5893C126.738 64.6273 126.624 64.6722 126.514 64.7239L126.341 64.3407C126.478 64.2693 126.628 64.2153 126.79 64.1788C126.953 64.1408 127.107 64.1218 127.251 64.1218C127.572 64.1218 127.814 64.1917 127.976 64.3316C128.141 64.4715 128.223 64.6912 128.223 64.9907V66.6898H127.84ZM127.041 66.3249C127.236 66.3249 127.392 66.2709 127.509 66.1629C127.627 66.0535 127.687 65.9007 127.687 65.7045V65.4856L127.363 65.4993C127.111 65.5084 126.927 65.551 126.811 65.627C126.697 65.7015 126.64 65.8163 126.64 65.9714C126.64 66.0839 126.673 66.1713 126.74 66.2336C126.807 66.2945 126.908 66.3249 127.041 66.3249Z" fill="#777777"/>
<path d="M129.507 66.6898H128.971V63.1411H129.507V66.6898Z" fill="#777777"/>
<path d="M131.546 66.6898V63.3555H132.091V66.6898H131.546Z" fill="#777777"/>
<path d="M135.135 66.6898H134.597V65.1389C134.597 64.9443 134.558 64.7991 134.478 64.7033C134.401 64.6076 134.277 64.5597 134.107 64.5597C133.88 64.5597 133.714 64.6266 133.61 64.7604C133.505 64.8942 133.452 65.1184 133.452 65.4331V66.6898H132.916V64.1674H133.336L133.411 64.4981H133.438C133.515 64.378 133.622 64.2852 133.762 64.2198C133.902 64.1545 134.057 64.1218 134.228 64.1218C134.833 64.1218 135.135 64.4297 135.135 65.0454V66.6898Z" fill="#777777"/>
<path d="M136.898 66.7354C136.517 66.7354 136.226 66.6244 136.027 66.4024C135.829 66.1789 135.731 65.8589 135.731 65.4423C135.731 65.0181 135.834 64.6919 136.041 64.4639C136.249 64.2358 136.549 64.1218 136.942 64.1218C137.208 64.1218 137.447 64.1712 137.66 64.27L137.498 64.7011C137.271 64.6129 137.084 64.5688 136.937 64.5688C136.501 64.5688 136.282 64.8584 136.282 65.4377C136.282 65.7205 136.336 65.9334 136.444 66.0763C136.554 66.2177 136.713 66.2884 136.923 66.2884C137.162 66.2884 137.388 66.2291 137.601 66.1105V66.578C137.505 66.6343 137.402 66.6746 137.293 66.6989C137.185 66.7232 137.053 66.7354 136.898 66.7354Z" fill="#777777"/>
<path d="M140.431 65.424C140.431 65.8361 140.325 66.1576 140.114 66.3887C139.903 66.6198 139.608 66.7354 139.231 66.7354C138.996 66.7354 138.787 66.6822 138.606 66.5757C138.425 66.4693 138.286 66.3165 138.189 66.1173C138.092 65.9182 138.043 65.6871 138.043 65.424C138.043 65.015 138.148 64.6957 138.358 64.4662C138.568 64.2366 138.863 64.1218 139.245 64.1218C139.61 64.1218 139.899 64.2396 140.112 64.4753C140.324 64.7094 140.431 65.0257 140.431 65.424ZM138.595 65.424C138.595 66.0063 138.81 66.2975 139.24 66.2975C139.666 66.2975 139.879 66.0063 139.879 65.424C139.879 64.8478 139.665 64.5597 139.236 64.5597C139.011 64.5597 138.847 64.6342 138.745 64.7832C138.645 64.9322 138.595 65.1458 138.595 65.424Z" fill="#777777"/>
<path d="M143.174 66.6898H142.636V65.1344C142.636 64.9413 142.6 64.7976 142.527 64.7033C142.454 64.6076 142.34 64.5597 142.185 64.5597C141.978 64.5597 141.826 64.6273 141.729 64.7626C141.633 64.8964 141.585 65.1199 141.585 65.4331V66.6898H141.049V64.1674H141.469L141.544 64.4981H141.571C141.641 64.378 141.742 64.2852 141.875 64.2198C142.008 64.1545 142.155 64.1218 142.315 64.1218C142.702 64.1218 142.959 64.2541 143.086 64.5186H143.122C143.197 64.3939 143.301 64.2966 143.437 64.2267C143.572 64.1568 143.727 64.1218 143.902 64.1218C144.203 64.1218 144.422 64.1978 144.559 64.3498C144.697 64.5019 144.766 64.7338 144.766 65.0454V66.6898H144.23V65.1344C144.23 64.9413 144.193 64.7976 144.119 64.7033C144.046 64.6076 143.932 64.5597 143.777 64.5597C143.568 64.5597 143.415 64.625 143.318 64.7558C143.222 64.885 143.174 65.0842 143.174 65.3533V66.6898Z" fill="#777777"/>
<path d="M146.05 66.6898H145.514V64.1674H146.05V66.6898ZM145.482 63.4992C145.482 63.4034 145.508 63.3296 145.56 63.278C145.613 63.2263 145.688 63.2004 145.786 63.2004C145.88 63.2004 145.953 63.2263 146.005 63.278C146.058 63.3296 146.085 63.4034 146.085 63.4992C146.085 63.5904 146.058 63.6626 146.005 63.7158C145.953 63.7675 145.88 63.7934 145.786 63.7934C145.688 63.7934 145.613 63.7675 145.56 63.7158C145.508 63.6626 145.482 63.5904 145.482 63.4992Z" fill="#777777"/>
<path d="M149.038 66.6898H148.5V65.1389C148.5 64.9443 148.46 64.7991 148.381 64.7033C148.304 64.6076 148.18 64.5597 148.009 64.5597C147.783 64.5597 147.617 64.6266 147.512 64.7604C147.407 64.8942 147.355 65.1184 147.355 65.4331V66.6898H146.819V64.1674H147.239L147.314 64.4981H147.341C147.417 64.378 147.525 64.2852 147.665 64.2198C147.805 64.1545 147.96 64.1218 148.13 64.1218C148.735 64.1218 149.038 64.4297 149.038 65.0454V66.6898Z" fill="#777777"/>
<path d="M151.914 64.1674V64.4616L151.483 64.5414C151.522 64.5946 151.555 64.66 151.581 64.7376C151.607 64.8151 151.62 64.8972 151.62 64.9839C151.62 65.2439 151.53 65.4483 151.351 65.5973C151.171 65.7463 150.924 65.8208 150.609 65.8208C150.529 65.8208 150.456 65.8148 150.39 65.8026C150.275 65.8741 150.217 65.9577 150.217 66.0535C150.217 66.1112 150.244 66.1546 150.297 66.1835C150.352 66.2124 150.451 66.2268 150.596 66.2268H151.036C151.314 66.2268 151.525 66.2861 151.67 66.4047C151.814 66.5233 151.886 66.6943 151.886 66.9178C151.886 67.2037 151.769 67.4241 151.533 67.5792C151.297 67.7343 150.957 67.8118 150.511 67.8118C150.168 67.8118 149.905 67.751 149.724 67.6294C149.544 67.5078 149.453 67.3344 149.453 67.1094C149.453 66.9543 149.502 66.8236 149.599 66.7171C149.698 66.6122 149.835 66.5392 150.012 66.4982C149.94 66.4678 149.881 66.4191 149.834 66.3522C149.788 66.2838 149.765 66.2124 149.765 66.1379C149.765 66.0436 149.792 65.9638 149.845 65.8984C149.899 65.833 149.978 65.7684 150.082 65.7045C149.952 65.6483 149.845 65.5571 149.763 65.4309C149.683 65.3031 149.642 65.1541 149.642 64.9839C149.642 64.7102 149.728 64.4981 149.9 64.3476C150.073 64.197 150.32 64.1218 150.639 64.1218C150.71 64.1218 150.785 64.1271 150.862 64.1377C150.942 64.1469 151.001 64.1568 151.04 64.1674H151.914ZM149.932 67.082C149.932 67.1976 149.984 67.2865 150.087 67.3489C150.192 67.4112 150.339 67.4424 150.527 67.4424C150.819 67.4424 151.037 67.4006 151.179 67.3169C151.322 67.2333 151.394 67.1223 151.394 66.984C151.394 66.8745 151.354 66.7962 151.275 66.7491C151.198 66.7035 151.053 66.6806 150.84 66.6806H150.434C150.28 66.6806 150.158 66.7164 150.067 66.7878C149.977 66.8608 149.932 66.9589 149.932 67.082ZM150.162 64.9839C150.162 65.142 150.203 65.2636 150.283 65.3488C150.365 65.4339 150.482 65.4765 150.634 65.4765C150.945 65.4765 151.1 65.3107 151.1 64.9793C151.1 64.8151 151.061 64.6889 150.983 64.6007C150.907 64.511 150.791 64.4662 150.634 64.4662C150.479 64.4662 150.361 64.5102 150.281 64.5984C150.202 64.6866 150.162 64.8151 150.162 64.9839Z" fill="#777777"/>
<path d="M155.722 66.6898L155.39 65.7638H154.115L153.789 66.6898H153.214L154.461 63.3418H155.054L156.302 66.6898H155.722ZM155.246 65.294L154.933 64.3863C154.911 64.3255 154.879 64.2297 154.838 64.099C154.798 63.9682 154.771 63.8724 154.755 63.8116C154.714 63.9986 154.654 64.2031 154.575 64.4251L154.274 65.294H155.246Z" fill="#777777"/>
<path d="M158.81 66.6898H158.272V65.1344C158.272 64.9413 158.236 64.7976 158.163 64.7033C158.09 64.6076 157.976 64.5597 157.821 64.5597C157.614 64.5597 157.462 64.6273 157.365 64.7626C157.269 64.8964 157.221 65.1199 157.221 65.4331V66.6898H156.685V64.1674H157.105L157.18 64.4981H157.207C157.277 64.378 157.378 64.2852 157.51 64.2198C157.644 64.1545 157.791 64.1218 157.951 64.1218C158.338 64.1218 158.595 64.2541 158.722 64.5186H158.758C158.832 64.3939 158.937 64.2966 159.073 64.2267C159.208 64.1568 159.363 64.1218 159.538 64.1218C159.839 64.1218 160.058 64.1978 160.195 64.3498C160.333 64.5019 160.402 64.7338 160.402 65.0454V66.6898H159.866V65.1344C159.866 64.9413 159.829 64.7976 159.755 64.7033C159.682 64.6076 159.568 64.5597 159.413 64.5597C159.204 64.5597 159.051 64.625 158.954 64.7558C158.858 64.885 158.81 65.0842 158.81 65.3533V66.6898Z" fill="#777777"/>
<path d="M163.388 65.424C163.388 65.8361 163.282 66.1576 163.071 66.3887C162.859 66.6198 162.565 66.7354 162.188 66.7354C161.952 66.7354 161.744 66.6822 161.563 66.5757C161.382 66.4693 161.243 66.3165 161.146 66.1173C161.049 65.9182 161 65.6871 161 65.424C161 65.015 161.105 64.6957 161.315 64.4662C161.524 64.2366 161.82 64.1218 162.202 64.1218C162.567 64.1218 162.856 64.2396 163.068 64.4753C163.281 64.7094 163.388 65.0257 163.388 65.424ZM161.552 65.424C161.552 66.0063 161.767 66.2975 162.197 66.2975C162.623 66.2975 162.836 66.0063 162.836 65.424C162.836 64.8478 162.621 64.5597 162.193 64.5597C161.968 64.5597 161.804 64.6342 161.702 64.7832C161.602 64.9322 161.552 65.1458 161.552 65.424Z" fill="#777777"/>
<path d="M165.785 66.6898L165.709 66.3591H165.682C165.607 66.4761 165.501 66.5681 165.363 66.635C165.226 66.7019 165.069 66.7354 164.893 66.7354C164.587 66.7354 164.359 66.6594 164.209 66.5073C164.058 66.3553 163.983 66.1249 163.983 65.8163V64.1674H164.523V65.7228C164.523 65.9159 164.563 66.0611 164.642 66.1584C164.721 66.2542 164.845 66.3021 165.014 66.3021C165.239 66.3021 165.404 66.2352 165.509 66.1014C165.615 65.966 165.668 65.7403 165.668 65.424V64.1674H166.207V66.6898H165.785Z" fill="#777777"/>
<path d="M169.19 66.6898H168.651V65.1389C168.651 64.9443 168.612 64.7991 168.533 64.7033C168.455 64.6076 168.331 64.5597 168.161 64.5597C167.934 64.5597 167.769 64.6266 167.664 64.7604C167.559 64.8942 167.506 65.1184 167.506 65.4331V66.6898H166.971V64.1674H167.39L167.465 64.4981H167.493C167.569 64.378 167.677 64.2852 167.817 64.2198C167.957 64.1545 168.112 64.1218 168.282 64.1218C168.887 64.1218 169.19 64.4297 169.19 65.0454V66.6898Z" fill="#777777"/>
<path d="M170.875 66.3021C171.006 66.3021 171.136 66.2815 171.267 66.2405V66.6442C171.208 66.67 171.131 66.6913 171.037 66.708C170.944 66.7263 170.848 66.7354 170.747 66.7354C170.239 66.7354 169.986 66.4678 169.986 65.9326V64.5733H169.641V64.3362L170.011 64.14L170.193 63.6064H170.524V64.1674H171.242V64.5733H170.524V65.9235C170.524 66.0527 170.556 66.1485 170.62 66.2108C170.685 66.2717 170.77 66.3021 170.875 66.3021Z" fill="#777777"/>
<path d="M199.209 66.6898H198.664V63.823H197.683V63.3555H200.19V63.823H199.209V66.6898Z" fill="#777777"/>
<path d="M201.925 64.1218C202.033 64.1218 202.122 64.1294 202.192 64.1446L202.14 64.644C202.064 64.6258 201.985 64.6167 201.902 64.6167C201.688 64.6167 201.514 64.6866 201.38 64.8265C201.248 64.9664 201.182 65.1481 201.182 65.3716V66.6898H200.646V64.1674H201.065L201.136 64.6121H201.164C201.247 64.4616 201.356 64.3422 201.49 64.2541C201.625 64.1659 201.77 64.1218 201.925 64.1218Z" fill="#777777"/>
<path d="M204.24 66.6898L204.133 66.3386H204.115C203.993 66.4921 203.871 66.597 203.747 66.6533C203.624 66.708 203.466 66.7354 203.273 66.7354C203.025 66.7354 202.831 66.6685 202.692 66.5347C202.553 66.4009 202.484 66.2116 202.484 65.9668C202.484 65.7068 202.581 65.5107 202.774 65.3784C202.967 65.2461 203.261 65.1739 203.656 65.1617L204.092 65.1481V65.0135C204.092 64.8523 204.054 64.7322 203.978 64.6532C203.903 64.5726 203.787 64.5323 203.629 64.5323C203.5 64.5323 203.376 64.5513 203.257 64.5893C203.139 64.6273 203.025 64.6722 202.915 64.7239L202.742 64.3407C202.879 64.2693 203.028 64.2153 203.191 64.1788C203.354 64.1408 203.507 64.1218 203.652 64.1218C203.972 64.1218 204.214 64.1917 204.377 64.3316C204.541 64.4715 204.623 64.6912 204.623 64.9907V66.6898H204.24ZM203.442 66.3249C203.636 66.3249 203.792 66.2709 203.909 66.1629C204.028 66.0535 204.087 65.9007 204.087 65.7045V65.4856L203.763 65.4993C203.511 65.5084 203.327 65.551 203.212 65.627C203.097 65.7015 203.04 65.8163 203.04 65.9714C203.04 66.0839 203.074 66.1713 203.141 66.2336C203.208 66.2945 203.308 66.3249 203.442 66.3249Z" fill="#777777"/>
<path d="M207.59 66.6898H207.052V65.1389C207.052 64.9443 207.013 64.7991 206.934 64.7033C206.856 64.6076 206.732 64.5597 206.562 64.5597C206.335 64.5597 206.17 64.6266 206.065 64.7604C205.96 64.8942 205.907 65.1184 205.907 65.4331V66.6898H205.371V64.1674H205.791L205.866 64.4981H205.894C205.97 64.378 206.078 64.2852 206.217 64.2198C206.357 64.1545 206.512 64.1218 206.683 64.1218C207.288 64.1218 207.59 64.4297 207.59 65.0454V66.6898Z" fill="#777777"/>
<path d="M210.031 65.9714C210.031 66.2177 209.941 66.407 209.761 66.5392C209.582 66.67 209.325 66.7354 208.991 66.7354C208.655 66.7354 208.385 66.6844 208.181 66.5826V66.1196C208.477 66.2564 208.753 66.3249 209.009 66.3249C209.339 66.3249 209.504 66.2253 209.504 66.0261C209.504 65.9622 209.486 65.909 209.449 65.8665C209.413 65.8239 209.352 65.7798 209.269 65.7342C209.185 65.6886 209.069 65.6369 208.92 65.5791C208.63 65.4666 208.433 65.3541 208.329 65.2416C208.227 65.1291 208.176 64.9831 208.176 64.8037C208.176 64.5878 208.263 64.4205 208.436 64.302C208.611 64.1818 208.848 64.1218 209.148 64.1218C209.444 64.1218 209.725 64.1818 209.99 64.302L209.816 64.7056C209.544 64.5931 209.315 64.5369 209.13 64.5369C208.847 64.5369 208.706 64.6174 208.706 64.7786C208.706 64.8577 208.742 64.9246 208.815 64.9793C208.89 65.034 209.051 65.1093 209.299 65.2051C209.507 65.2857 209.658 65.3594 209.752 65.4263C209.847 65.4932 209.917 65.5707 209.962 65.6589C210.008 65.7456 210.031 65.8497 210.031 65.9714Z" fill="#777777"/>
<path d="M212.19 66.6898L212.083 66.3386H212.065C211.943 66.4921 211.821 66.597 211.698 66.6533C211.575 66.708 211.416 66.7354 211.223 66.7354C210.976 66.7354 210.782 66.6685 210.642 66.5347C210.503 66.4009 210.434 66.2116 210.434 65.9668C210.434 65.7068 210.531 65.5107 210.724 65.3784C210.917 65.2461 211.211 65.1739 211.607 65.1617L212.042 65.1481V65.0135C212.042 64.8523 212.004 64.7322 211.928 64.6532C211.854 64.5726 211.737 64.5323 211.579 64.5323C211.45 64.5323 211.326 64.5513 211.207 64.5893C211.089 64.6273 210.975 64.6722 210.865 64.7239L210.692 64.3407C210.829 64.2693 210.979 64.2153 211.141 64.1788C211.304 64.1408 211.458 64.1218 211.602 64.1218C211.923 64.1218 212.165 64.1917 212.327 64.3316C212.491 64.4715 212.573 64.6912 212.573 64.9907V66.6898H212.19ZM211.392 66.3249C211.587 66.3249 211.743 66.2709 211.86 66.1629C211.978 66.0535 212.038 65.9007 212.038 65.7045V65.4856L211.714 65.4993C211.461 65.5084 211.277 65.551 211.162 65.627C211.048 65.7015 210.991 65.8163 210.991 65.9714C210.991 66.0839 211.024 66.1713 211.091 66.2336C211.158 66.2945 211.258 66.3249 211.392 66.3249Z" fill="#777777"/>
<path d="M214.339 66.7354C213.957 66.7354 213.667 66.6244 213.468 66.4024C213.27 66.1789 213.171 65.8589 213.171 65.4423C213.171 65.0181 213.274 64.6919 213.481 64.4639C213.689 64.2358 213.99 64.1218 214.382 64.1218C214.648 64.1218 214.888 64.1712 215.1 64.27L214.939 64.7011C214.712 64.6129 214.525 64.5688 214.377 64.5688C213.941 64.5688 213.723 64.8584 213.723 65.4377C213.723 65.7205 213.777 65.9334 213.885 66.0763C213.994 66.2177 214.154 66.2884 214.364 66.2884C214.602 66.2884 214.828 66.2291 215.041 66.1105V66.578C214.945 66.6343 214.843 66.6746 214.733 66.6989C214.625 66.7232 214.494 66.7354 214.339 66.7354Z" fill="#777777"/>
<path d="M216.574 66.3021C216.704 66.3021 216.835 66.2815 216.966 66.2405V66.6442C216.907 66.67 216.83 66.6913 216.736 66.708C216.643 66.7263 216.546 66.7354 216.446 66.7354C215.938 66.7354 215.684 66.4678 215.684 65.9326V64.5733H215.34V64.3362L215.709 64.14L215.892 63.6064H216.223V64.1674H216.941V64.5733H216.223V65.9235C216.223 66.0527 216.254 66.1485 216.318 66.2108C216.384 66.2717 216.469 66.3021 216.574 66.3021Z" fill="#777777"/>
<path d="M218.008 66.6898H217.472V64.1674H218.008V66.6898ZM217.44 63.4992C217.44 63.4034 217.466 63.3296 217.518 63.278C217.571 63.2263 217.646 63.2004 217.744 63.2004C217.838 63.2004 217.911 63.2263 217.963 63.278C218.016 63.3296 218.042 63.4034 218.042 63.4992C218.042 63.5904 218.016 63.6626 217.963 63.7158C217.911 63.7675 217.838 63.7934 217.744 63.7934C217.646 63.7934 217.571 63.7675 217.518 63.7158C217.466 63.6626 217.44 63.5904 217.44 63.4992Z" fill="#777777"/>
<path d="M221.014 65.424C221.014 65.8361 220.908 66.1576 220.697 66.3887C220.486 66.6198 220.192 66.7354 219.814 66.7354C219.579 66.7354 219.371 66.6822 219.19 66.5757C219.009 66.4693 218.87 66.3165 218.772 66.1173C218.675 65.9182 218.626 65.6871 218.626 65.424C218.626 65.015 218.731 64.6957 218.941 64.4662C219.151 64.2366 219.447 64.1218 219.828 64.1218C220.193 64.1218 220.482 64.2396 220.695 64.4753C220.908 64.7094 221.014 65.0257 221.014 65.424ZM219.178 65.424C219.178 66.0063 219.393 66.2975 219.824 66.2975C220.249 66.2975 220.462 66.0063 220.462 65.424C220.462 64.8478 220.248 64.5597 219.819 64.5597C219.594 64.5597 219.431 64.6342 219.329 64.7832C219.228 64.9322 219.178 65.1458 219.178 65.424Z" fill="#777777"/>
<path d="M223.851 66.6898H223.313V65.1389C223.313 64.9443 223.273 64.7991 223.194 64.7033C223.117 64.6076 222.993 64.5597 222.823 64.5597C222.596 64.5597 222.43 64.6266 222.325 64.7604C222.221 64.8942 222.168 65.1184 222.168 65.4331V66.6898H221.632V64.1674H222.052L222.127 64.4981H222.154C222.23 64.378 222.338 64.2852 222.478 64.2198C222.618 64.1545 222.773 64.1218 222.944 64.1218C223.549 64.1218 223.851 64.4297 223.851 65.0454V66.6898Z" fill="#777777"/>
<path d="M226.291 65.9714C226.291 66.2177 226.202 66.407 226.022 66.5392C225.843 66.67 225.586 66.7354 225.252 66.7354C224.915 66.7354 224.646 66.6844 224.442 66.5826V66.1196C224.738 66.2564 225.014 66.3249 225.27 66.3249C225.6 66.3249 225.765 66.2253 225.765 66.0261C225.765 65.9622 225.746 65.909 225.71 65.8665C225.673 65.8239 225.613 65.7798 225.53 65.7342C225.446 65.6886 225.33 65.6369 225.181 65.5791C224.89 65.4666 224.694 65.3541 224.59 65.2416C224.488 65.1291 224.437 64.9831 224.437 64.8037C224.437 64.5878 224.524 64.4205 224.697 64.302C224.872 64.1818 225.109 64.1218 225.409 64.1218C225.705 64.1218 225.986 64.1818 226.25 64.302L226.077 64.7056C225.805 64.5931 225.576 64.5369 225.391 64.5369C225.108 64.5369 224.966 64.6174 224.966 64.7786C224.966 64.8577 225.003 64.9246 225.076 64.9793C225.15 65.034 225.312 65.1093 225.559 65.2051C225.768 65.2857 225.919 65.3594 226.013 65.4263C226.108 65.4932 226.177 65.5707 226.223 65.6589C226.269 65.7456 226.291 65.8497 226.291 65.9714Z" fill="#777777"/>
<path d="M230.921 66.6898H230.253L228.613 64.0328H228.595L228.606 64.1811C228.628 64.4639 228.638 64.7223 228.638 64.9565V66.6898H228.143V63.3555H228.805L230.44 65.9987H230.454C230.451 65.9638 230.444 65.8368 230.435 65.6179C230.426 65.3974 230.422 65.2256 230.422 65.1025V63.3555H230.921V66.6898Z" fill="#777777"/>
<path d="M233.523 66.6898L233.448 66.3591H233.421C233.346 66.4761 233.24 66.5681 233.101 66.635C232.965 66.7019 232.808 66.7354 232.632 66.7354C232.326 66.7354 232.098 66.6594 231.947 66.5073C231.797 66.3553 231.722 66.1249 231.722 65.8163V64.1674H232.262V65.7228C232.262 65.9159 232.302 66.0611 232.381 66.1584C232.46 66.2542 232.584 66.3021 232.752 66.3021C232.978 66.3021 233.142 66.2352 233.247 66.1014C233.354 65.966 233.407 65.7403 233.407 65.424V64.1674H233.945V66.6898H233.523Z" fill="#777777"/>
<path d="M236.835 66.6898H236.297V65.1344C236.297 64.9413 236.26 64.7976 236.187 64.7033C236.114 64.6076 236 64.5597 235.845 64.5597C235.638 64.5597 235.486 64.6273 235.389 64.7626C235.293 64.8964 235.245 65.1199 235.245 65.4331V66.6898H234.709V64.1674H235.129L235.204 64.4981H235.232C235.301 64.378 235.403 64.2852 235.535 64.2198C235.669 64.1545 235.815 64.1218 235.975 64.1218C236.363 64.1218 236.62 64.2541 236.746 64.5186H236.782C236.857 64.3939 236.962 64.2966 237.097 64.2267C237.232 64.1568 237.387 64.1218 237.562 64.1218C237.863 64.1218 238.082 64.1978 238.219 64.3498C238.358 64.5019 238.427 64.7338 238.427 65.0454V66.6898H237.891V65.1344C237.891 64.9413 237.853 64.7976 237.779 64.7033C237.706 64.6076 237.592 64.5597 237.437 64.5597C237.229 64.5597 237.076 64.625 236.978 64.7558C236.883 64.885 236.835 65.0842 236.835 65.3533V66.6898Z" fill="#777777"/>
<path d="M240.463 64.1218C240.778 64.1218 241.023 64.2358 241.198 64.4639C241.374 64.6919 241.462 65.012 241.462 65.424C241.462 65.8376 241.373 66.1599 241.195 66.391C241.017 66.6206 240.77 66.7354 240.454 66.7354C240.135 66.7354 239.887 66.6206 239.711 66.391H239.674L239.576 66.6898H239.175V63.1411H239.711V63.9849C239.711 64.0473 239.708 64.14 239.702 64.2632C239.695 64.3863 239.691 64.4646 239.688 64.4981H239.711C239.881 64.2472 240.132 64.1218 240.463 64.1218ZM240.324 64.5597C240.108 64.5597 239.952 64.6235 239.857 64.7512C239.762 64.8774 239.714 65.0895 239.711 65.3875V65.424C239.711 65.7311 239.759 65.9539 239.857 66.0922C239.954 66.2291 240.113 66.2975 240.333 66.2975C240.523 66.2975 240.667 66.2222 240.764 66.0717C240.863 65.9212 240.913 65.7038 240.913 65.4195C240.913 64.8463 240.716 64.5597 240.324 64.5597Z" fill="#777777"/>
<path d="M243.186 66.7354C242.794 66.7354 242.487 66.6213 242.265 66.3933C242.045 66.1637 241.934 65.8482 241.934 65.4468C241.934 65.0348 242.037 64.7109 242.242 64.4753C242.447 64.2396 242.729 64.1218 243.088 64.1218C243.421 64.1218 243.684 64.2229 243.877 64.4251C244.07 64.6273 244.167 64.9056 244.167 65.2598V65.5495H242.486C242.494 65.7942 242.56 65.9828 242.685 66.1151C242.809 66.2458 242.985 66.3112 243.211 66.3112C243.36 66.3112 243.499 66.2975 243.627 66.2701C243.756 66.2412 243.894 66.1941 244.042 66.1287V66.5643C243.911 66.6267 243.779 66.6708 243.645 66.6966C243.511 66.7225 243.358 66.7354 243.186 66.7354ZM243.088 64.5277C242.918 64.5277 242.781 64.5817 242.678 64.6897C242.576 64.7976 242.515 64.955 242.495 65.1617H243.64C243.637 64.9535 243.587 64.7961 243.49 64.6897C243.392 64.5817 243.259 64.5277 243.088 64.5277Z" fill="#777777"/>
<path d="M246.055 64.1218C246.163 64.1218 246.252 64.1294 246.322 64.1446L246.27 64.644C246.194 64.6258 246.115 64.6167 246.033 64.6167C245.818 64.6167 245.644 64.6866 245.51 64.8265C245.378 64.9664 245.312 65.1481 245.312 65.3716V66.6898H244.776V64.1674H245.196L245.266 64.6121H245.294C245.377 64.4616 245.486 64.3422 245.62 64.2541C245.755 64.1659 245.9 64.1218 246.055 64.1218Z" fill="#777777"/>
<path d="M282.251 73.4575H279.582V69.8919H277.434L280.917 66.4097L284.399 69.8919H282.251V73.4575Z" fill="#FF5894"/>
<path d="M310.023 167.313H308.734V165.611H307.697L309.378 163.95L311.059 165.611H310.023V167.313Z" fill="#FF5894"/>
<path d="M310.023 182.444H308.734V180.743H307.697L309.378 179.081L311.059 180.743H310.023V182.444Z" fill="#FF5894"/>
<path d="M292.192 76.8849V72.1217H293.202V76.8849H292.192Z" fill="#777777"/>
<path d="M298.353 74.4577C298.353 75.2418 298.129 75.8424 297.682 76.2594C297.236 76.6764 296.592 76.8849 295.75 76.8849H294.401V72.1217H295.896C296.674 72.1217 297.278 72.3269 297.708 72.7375C298.138 73.148 298.353 73.7214 298.353 74.4577ZM297.304 74.4838C297.304 73.4607 296.852 72.9492 295.948 72.9492H295.411V76.0509H295.844C296.817 76.0509 297.304 75.5285 297.304 74.4838Z" fill="#777777"/>
<path d="M300.35 74.2362H300.676C300.995 74.2362 301.231 74.1829 301.383 74.0765C301.535 73.9701 301.611 73.8028 301.611 73.5748C301.611 73.3489 301.533 73.1882 301.376 73.0926C301.222 72.997 300.982 72.9492 300.656 72.9492H300.35V74.2362ZM300.35 75.0572V76.8849H299.34V72.1217H300.728C301.375 72.1217 301.854 72.2401 302.165 72.4768C302.475 72.7114 302.631 73.0687 302.631 73.5487C302.631 73.8289 302.553 74.0787 302.399 74.2981C302.245 74.5153 302.027 74.6858 301.744 74.8096C302.461 75.8804 302.928 76.5722 303.145 76.8849H302.025L300.888 75.0572H300.35Z" fill="#777777"/>
<path d="M310.209 76.8849H306.879V76.1845L308.075 74.9757C308.429 74.613 308.66 74.3621 308.769 74.2231C308.877 74.0819 308.956 73.9516 309.003 73.8322C309.051 73.7127 309.075 73.5889 309.075 73.4607C309.075 73.2696 309.022 73.1273 308.915 73.0339C308.811 72.9405 308.671 72.8938 308.495 72.8938C308.31 72.8938 308.131 72.9362 307.957 73.0209C307.784 73.1056 307.602 73.2262 307.413 73.3825L306.866 72.7342C307.101 72.5344 307.295 72.3932 307.449 72.3107C307.603 72.2281 307.772 72.1651 307.954 72.1217C308.137 72.0761 308.341 72.0533 308.567 72.0533C308.864 72.0533 309.127 72.1076 309.355 72.2162C309.583 72.3248 309.76 72.4768 309.886 72.6723C310.012 72.8678 310.075 73.0915 310.075 73.3435C310.075 73.5628 310.036 73.7692 309.958 73.9625C309.882 74.1536 309.762 74.3502 309.6 74.5522C309.439 74.7542 309.154 75.042 308.746 75.4156L308.133 75.9922V76.0378H310.209V76.8849Z" fill="#777777"/>
<path d="M310.658 74.8617C310.658 73.919 310.857 73.2175 311.255 72.757C311.654 72.2965 312.252 72.0663 313.047 72.0663C313.318 72.0663 313.531 72.0826 313.685 72.1152V72.9199C313.492 72.8765 313.301 72.8547 313.112 72.8547C312.766 72.8547 312.484 72.9069 312.265 73.0111C312.047 73.1154 311.885 73.2696 311.776 73.4738C311.667 73.6779 311.603 73.9679 311.584 74.3437H311.626C311.841 73.9744 312.185 73.7898 312.659 73.7898C313.085 73.7898 313.418 73.9234 313.659 74.1905C313.9 74.4577 314.021 74.8269 314.021 75.2983C314.021 75.8065 313.877 76.2094 313.591 76.507C313.304 76.8024 312.906 76.9501 312.398 76.9501C312.046 76.9501 311.739 76.8686 311.476 76.7057C311.216 76.5428 311.014 76.305 310.87 75.9922C310.729 75.6795 310.658 75.3026 310.658 74.8617ZM312.379 76.1454C312.594 76.1454 312.759 76.0737 312.874 75.9303C312.989 75.7848 313.047 75.5785 313.047 75.3113C313.047 75.0789 312.992 74.8965 312.884 74.764C312.777 74.6293 312.615 74.562 312.398 74.562C312.194 74.562 312.019 74.6282 311.874 74.7607C311.73 74.8932 311.659 75.0474 311.659 75.2233C311.659 75.4818 311.726 75.7001 311.861 75.8782C311.997 76.0563 312.17 76.1454 312.379 76.1454Z" fill="#777777"/>
<path d="M314.617 76.419C314.617 76.2366 314.666 76.0987 314.764 76.0053C314.861 75.9119 315.004 75.8652 315.19 75.8652C315.371 75.8652 315.51 75.913 315.607 76.0085C315.707 76.1041 315.757 76.2409 315.757 76.419C315.757 76.5906 315.707 76.7264 315.607 76.8263C315.507 76.924 315.368 76.9729 315.19 76.9729C315.008 76.9729 314.867 76.9251 314.767 76.8296C314.667 76.7318 314.617 76.595 314.617 76.419Z" fill="#777777"/>
<path d="M319.709 74.5033C319.709 75.3352 319.572 75.951 319.299 76.3506C319.027 76.7503 318.608 76.9501 318.041 76.9501C317.492 76.9501 317.077 76.7438 316.797 76.3311C316.519 75.9184 316.38 75.3091 316.38 74.5033C316.38 73.6627 316.515 73.0437 316.787 72.6462C317.058 72.2466 317.476 72.0468 318.041 72.0468C318.591 72.0468 319.005 72.2553 319.286 72.6723C319.568 73.0893 319.709 73.6997 319.709 74.5033ZM317.38 74.5033C317.38 75.0876 317.43 75.5068 317.53 75.7609C317.632 76.0129 317.802 76.1388 318.041 76.1388C318.276 76.1388 318.445 76.0107 318.549 75.7544C318.654 75.4981 318.706 75.0811 318.706 74.5033C318.706 73.919 318.653 73.4998 318.546 73.2457C318.442 72.9894 318.274 72.8613 318.041 72.8613C317.804 72.8613 317.635 72.9894 317.533 73.2457C317.431 73.4998 317.38 73.919 317.38 74.5033Z" fill="#777777"/>
<path d="M323.521 74.5033C323.521 75.3352 323.384 75.951 323.111 76.3506C322.839 76.7503 322.42 76.9501 321.853 76.9501C321.303 76.9501 320.889 76.7438 320.608 76.3311C320.33 75.9184 320.191 75.3091 320.191 74.5033C320.191 73.6627 320.327 73.0437 320.599 72.6462C320.87 72.2466 321.288 72.0468 321.853 72.0468C322.403 72.0468 322.817 72.2553 323.098 72.6723C323.38 73.0893 323.521 73.6997 323.521 74.5033ZM321.192 74.5033C321.192 75.0876 321.242 75.5068 321.342 75.7609C321.444 76.0129 321.614 76.1388 321.853 76.1388C322.088 76.1388 322.257 76.0107 322.361 75.7544C322.466 75.4981 322.518 75.0811 322.518 74.5033C322.518 73.919 322.464 73.4998 322.358 73.2457C322.254 72.9894 322.085 72.8613 321.853 72.8613C321.616 72.8613 321.447 72.9894 321.345 73.2457C321.243 73.4998 321.192 73.919 321.192 74.5033Z" fill="#777777"/>
<path d="M327.333 74.5033C327.333 75.3352 327.196 75.951 326.923 76.3506C326.651 76.7503 326.232 76.9501 325.665 76.9501C325.115 76.9501 324.701 76.7438 324.42 76.3311C324.142 75.9184 324.003 75.3091 324.003 74.5033C324.003 73.6627 324.139 73.0437 324.411 72.6462C324.682 72.2466 325.1 72.0468 325.665 72.0468C326.214 72.0468 326.629 72.2553 326.909 72.6723C327.192 73.0893 327.333 73.6997 327.333 74.5033ZM325.004 74.5033C325.004 75.0876 325.053 75.5068 325.153 75.7609C325.255 76.0129 325.426 76.1388 325.665 76.1388C325.899 76.1388 326.069 76.0107 326.173 75.7544C326.277 75.4981 326.33 75.0811 326.33 74.5033C326.33 73.919 326.276 73.4998 326.17 73.2457C326.066 72.9894 325.897 72.8613 325.665 72.8613C325.428 72.8613 325.259 72.9894 325.157 73.2457C325.055 73.4998 325.004 73.919 325.004 74.5033Z" fill="#777777"/>
<path d="M327.955 76.419C327.955 76.2366 328.004 76.0987 328.102 76.0053C328.2 75.9119 328.342 75.8652 328.529 75.8652C328.709 75.8652 328.848 75.913 328.946 76.0085C329.046 76.1041 329.096 76.2409 329.096 76.419C329.096 76.5906 329.046 76.7264 328.946 76.8263C328.846 76.924 328.707 76.9729 328.529 76.9729C328.346 76.9729 328.205 76.9251 328.105 76.8296C328.005 76.7318 327.955 76.595 327.955 76.419Z" fill="#777777"/>
<path d="M333.048 74.5033C333.048 75.3352 332.911 75.951 332.637 76.3506C332.366 76.7503 331.946 76.9501 331.38 76.9501C330.83 76.9501 330.415 76.7438 330.135 76.3311C329.857 75.9184 329.718 75.3091 329.718 74.5033C329.718 73.6627 329.854 73.0437 330.125 72.6462C330.397 72.2466 330.815 72.0468 331.38 72.0468C331.929 72.0468 332.344 72.2553 332.624 72.6723C332.906 73.0893 333.048 73.6997 333.048 74.5033ZM330.718 74.5033C330.718 75.0876 330.768 75.5068 330.868 75.7609C330.97 76.0129 331.141 76.1388 331.38 76.1388C331.614 76.1388 331.784 76.0107 331.888 75.7544C331.992 75.4981 332.044 75.0811 332.044 74.5033C332.044 73.919 331.991 73.4998 331.885 73.2457C331.78 72.9894 331.612 72.8613 331.38 72.8613C331.143 72.8613 330.973 72.9894 330.871 73.2457C330.769 73.4998 330.718 73.919 330.718 74.5033Z" fill="#777777"/>
<path d="M336.86 74.5033C336.86 75.3352 336.723 75.951 336.449 76.3506C336.178 76.7503 335.758 76.9501 335.191 76.9501C334.642 76.9501 334.227 76.7438 333.947 76.3311C333.669 75.9184 333.53 75.3091 333.53 74.5033C333.53 73.6627 333.666 73.0437 333.937 72.6462C334.209 72.2466 334.627 72.0468 335.191 72.0468C335.741 72.0468 336.156 72.2553 336.436 72.6723C336.718 73.0893 336.86 73.6997 336.86 74.5033ZM334.53 74.5033C334.53 75.0876 334.58 75.5068 334.68 75.7609C334.782 76.0129 334.952 76.1388 335.191 76.1388C335.426 76.1388 335.595 76.0107 335.7 75.7544C335.804 75.4981 335.856 75.0811 335.856 74.5033C335.856 73.919 335.803 73.4998 335.696 73.2457C335.592 72.9894 335.424 72.8613 335.191 72.8613C334.955 72.8613 334.785 72.9894 334.683 73.2457C334.581 73.4998 334.53 73.919 334.53 74.5033Z" fill="#777777"/>
<path d="M340.671 74.5033C340.671 75.3352 340.535 75.951 340.261 76.3506C339.989 76.7503 339.57 76.9501 339.003 76.9501C338.454 76.9501 338.039 76.7438 337.759 76.3311C337.481 75.9184 337.342 75.3091 337.342 74.5033C337.342 73.6627 337.477 73.0437 337.749 72.6462C338.02 72.2466 338.439 72.0468 339.003 72.0468C339.553 72.0468 339.968 72.2553 340.248 72.6723C340.53 73.0893 340.671 73.6997 340.671 74.5033ZM338.342 74.5033C338.342 75.0876 338.392 75.5068 338.492 75.7609C338.594 76.0129 338.764 76.1388 339.003 76.1388C339.238 76.1388 339.407 76.0107 339.512 75.7544C339.616 75.4981 339.668 75.0811 339.668 74.5033C339.668 73.919 339.615 73.4998 339.508 73.2457C339.404 72.9894 339.236 72.8613 339.003 72.8613C338.767 72.8613 338.597 72.9894 338.495 73.2457C338.393 73.4998 338.342 73.919 338.342 74.5033Z" fill="#777777"/>
<path d="M293.184 66.6898H292.639V63.823H291.659V63.3555H294.165V63.823H293.184V66.6898Z" fill="#777777"/>
<path d="M296.858 65.424C296.858 65.8361 296.753 66.1576 296.541 66.3887C296.33 66.6198 296.036 66.7354 295.659 66.7354C295.423 66.7354 295.215 66.6822 295.034 66.5757C294.853 66.4693 294.714 66.3165 294.616 66.1173C294.519 65.9182 294.471 65.6871 294.471 65.424C294.471 65.015 294.575 64.6957 294.785 64.4662C294.995 64.2366 295.291 64.1218 295.672 64.1218C296.037 64.1218 296.326 64.2396 296.539 64.4753C296.752 64.7094 296.858 65.0257 296.858 65.424ZM295.022 65.424C295.022 66.0063 295.238 66.2975 295.668 66.2975C296.094 66.2975 296.306 66.0063 296.306 65.424C296.306 64.8478 296.092 64.5597 295.663 64.5597C295.438 64.5597 295.275 64.6342 295.173 64.7832C295.073 64.9322 295.022 65.1458 295.022 65.424Z" fill="#777777"/>
<path d="M298.416 66.3021C298.547 66.3021 298.678 66.2815 298.808 66.2405V66.6442C298.749 66.67 298.672 66.6913 298.578 66.708C298.485 66.7263 298.389 66.7354 298.288 66.7354C297.78 66.7354 297.527 66.4678 297.527 65.9326V64.5733H297.182V64.3362L297.552 64.14L297.734 63.6064H298.065V64.1674H298.783V64.5733H298.065V65.9235C298.065 66.0527 298.097 66.1485 298.161 66.2108C298.226 66.2717 298.311 66.3021 298.416 66.3021Z" fill="#777777"/>
<path d="M300.893 66.6898L300.786 66.3386H300.767C300.646 66.4921 300.523 66.597 300.4 66.6533C300.277 66.708 300.119 66.7354 299.926 66.7354C299.678 66.7354 299.484 66.6685 299.344 66.5347C299.206 66.4009 299.137 66.2116 299.137 65.9668C299.137 65.7068 299.233 65.5107 299.426 65.3784C299.619 65.2461 299.914 65.1739 300.309 65.1617L300.745 65.1481V65.0135C300.745 64.8523 300.707 64.7322 300.63 64.6532C300.556 64.5726 300.44 64.5323 300.282 64.5323C300.152 64.5323 300.028 64.5513 299.91 64.5893C299.791 64.6273 299.677 64.6722 299.568 64.7239L299.394 64.3407C299.531 64.2693 299.681 64.2153 299.844 64.1788C300.006 64.1408 300.16 64.1218 300.304 64.1218C300.625 64.1218 300.867 64.1917 301.03 64.3316C301.194 64.4715 301.276 64.6912 301.276 64.9907V66.6898H300.893ZM300.095 66.3249C300.289 66.3249 300.445 66.2709 300.562 66.1629C300.681 66.0535 300.74 65.9007 300.74 65.7045V65.4856L300.416 65.4993C300.164 65.5084 299.98 65.551 299.864 65.627C299.75 65.7015 299.693 65.8163 299.693 65.9714C299.693 66.0839 299.727 66.1713 299.794 66.2336C299.86 66.2945 299.961 66.3249 300.095 66.3249Z" fill="#777777"/>
<path d="M302.56 66.6898H302.024V63.1411H302.56V66.6898Z" fill="#777777"/>
<path d="M307.559 65.0181C307.559 65.5609 307.423 65.9828 307.151 66.2838C306.88 66.5849 306.496 66.7354 305.999 66.7354C305.496 66.7354 305.109 66.5864 304.838 66.2884C304.569 65.9889 304.435 65.5639 304.435 65.0135C304.435 64.4631 304.57 64.0404 304.841 63.7455C305.113 63.4505 305.5 63.303 306.004 63.303C306.499 63.303 306.882 63.4528 307.153 63.7523C307.424 64.0518 307.559 64.4738 307.559 65.0181ZM305.014 65.0181C305.014 65.4286 305.097 65.7403 305.262 65.9531C305.428 66.1645 305.674 66.2701 305.999 66.2701C306.323 66.2701 306.567 66.1652 306.731 65.9554C306.897 65.7456 306.98 65.4331 306.98 65.0181C306.98 64.6091 306.898 64.2989 306.733 64.0876C306.571 63.8762 306.327 63.7706 306.004 63.7706C305.677 63.7706 305.43 63.8762 305.262 64.0876C305.097 64.2989 305.014 64.6091 305.014 65.0181Z" fill="#777777"/>
<path d="M309.997 66.6898L309.922 66.3591H309.894C309.82 66.4761 309.713 66.5681 309.575 66.635C309.438 66.7019 309.282 66.7354 309.105 66.7354C308.8 66.7354 308.572 66.6594 308.421 66.5073C308.271 66.3553 308.195 66.1249 308.195 65.8163V64.1674H308.736V65.7228C308.736 65.9159 308.775 66.0611 308.854 66.1584C308.933 66.2542 309.057 66.3021 309.226 66.3021C309.451 66.3021 309.616 66.2352 309.721 66.1014C309.827 65.966 309.881 65.7403 309.881 65.424V64.1674H310.419V66.6898H309.997Z" fill="#777777"/>
<path d="M312.123 66.3021C312.253 66.3021 312.384 66.2815 312.515 66.2405V66.6442C312.456 66.67 312.379 66.6913 312.284 66.708C312.192 66.7263 312.095 66.7354 311.995 66.7354C311.487 66.7354 311.233 66.4678 311.233 65.9326V64.5733H310.889V64.3362L311.258 64.14L311.441 63.6064H311.771V64.1674H312.49V64.5733H311.771V65.9235C311.771 66.0527 311.803 66.1485 311.867 66.2108C311.933 66.2717 312.018 66.3021 312.123 66.3021Z" fill="#777777"/>
<path d="M315.151 64.1674V64.4616L314.72 64.5414C314.76 64.5946 314.792 64.66 314.818 64.7376C314.844 64.8151 314.857 64.8972 314.857 64.9839C314.857 65.2439 314.767 65.4483 314.588 65.5973C314.409 65.7463 314.161 65.8208 313.847 65.8208C313.766 65.8208 313.693 65.8148 313.628 65.8026C313.512 65.8741 313.454 65.9577 313.454 66.0535C313.454 66.1112 313.481 66.1546 313.534 66.1835C313.589 66.2124 313.689 66.2268 313.833 66.2268H314.273C314.551 66.2268 314.763 66.2861 314.907 66.4047C315.052 66.5233 315.124 66.6943 315.124 66.9178C315.124 67.2037 315.006 67.4241 314.77 67.5792C314.535 67.7343 314.194 67.8118 313.749 67.8118C313.405 67.8118 313.143 67.751 312.962 67.6294C312.781 67.5078 312.69 67.3344 312.69 67.1094C312.69 66.9543 312.739 66.8236 312.836 66.7171C312.935 66.6122 313.073 66.5392 313.249 66.4982C313.178 66.4678 313.118 66.4191 313.071 66.3522C313.026 66.2838 313.003 66.2124 313.003 66.1379C313.003 66.0436 313.029 65.9638 313.083 65.8984C313.136 65.833 313.215 65.7684 313.32 65.7045C313.189 65.6483 313.083 65.5571 313.001 65.4309C312.92 65.3031 312.88 65.1541 312.88 64.9839C312.88 64.7102 312.966 64.4981 313.137 64.3476C313.311 64.197 313.557 64.1218 313.876 64.1218C313.948 64.1218 314.022 64.1271 314.1 64.1377C314.179 64.1469 314.238 64.1568 314.278 64.1674H315.151ZM313.169 67.082C313.169 67.1976 313.221 67.2865 313.324 67.3489C313.429 67.4112 313.576 67.4424 313.765 67.4424C314.057 67.4424 314.274 67.4006 314.417 67.3169C314.56 67.2333 314.631 67.1223 314.631 66.984C314.631 66.8745 314.592 66.7962 314.513 66.7491C314.435 66.7035 314.29 66.6806 314.077 66.6806H313.671C313.518 66.6806 313.395 66.7164 313.304 66.7878C313.214 66.8608 313.169 66.9589 313.169 67.082ZM313.4 64.9839C313.4 65.142 313.44 65.2636 313.521 65.3488C313.603 65.4339 313.72 65.4765 313.872 65.4765C314.182 65.4765 314.337 65.3107 314.337 64.9793C314.337 64.8151 314.298 64.6889 314.221 64.6007C314.145 64.511 314.028 64.4662 313.872 64.4662C313.717 64.4662 313.599 64.5102 313.518 64.5984C313.439 64.6866 313.4 64.8151 313.4 64.9839Z" fill="#777777"/>
<path d="M317.858 65.424C317.858 65.8361 317.753 66.1576 317.541 66.3887C317.33 66.6198 317.036 66.7354 316.659 66.7354C316.423 66.7354 316.215 66.6822 316.034 66.5757C315.853 66.4693 315.714 66.3165 315.616 66.1173C315.519 65.9182 315.471 65.6871 315.471 65.424C315.471 65.015 315.575 64.6957 315.785 64.4662C315.995 64.2366 316.291 64.1218 316.672 64.1218C317.037 64.1218 317.326 64.2396 317.539 64.4753C317.752 64.7094 317.858 65.0257 317.858 65.424ZM316.022 65.424C316.022 66.0063 316.238 66.2975 316.668 66.2975C317.094 66.2975 317.306 66.0063 317.306 65.424C317.306 64.8478 317.092 64.5597 316.663 64.5597C316.438 64.5597 316.275 64.6342 316.173 64.7832C316.073 64.9322 316.022 65.1458 316.022 65.424Z" fill="#777777"/>
<path d="M319.012 66.6898H318.476V64.1674H319.012V66.6898ZM318.444 63.4992C318.444 63.4034 318.47 63.3296 318.522 63.278C318.575 63.2263 318.65 63.2004 318.748 63.2004C318.842 63.2004 318.915 63.2263 318.967 63.278C319.02 63.3296 319.047 63.4034 319.047 63.4992C319.047 63.5904 319.02 63.6626 318.967 63.7158C318.915 63.7675 318.842 63.7934 318.748 63.7934C318.65 63.7934 318.575 63.7675 318.522 63.7158C318.47 63.6626 318.444 63.5904 318.444 63.4992Z" fill="#777777"/>
<path d="M322 66.6898H321.462V65.1389C321.462 64.9443 321.422 64.7991 321.343 64.7033C321.266 64.6076 321.142 64.5597 320.971 64.5597C320.745 64.5597 320.579 64.6266 320.474 64.7604C320.369 64.8942 320.317 65.1184 320.317 65.4331V66.6898H319.781V64.1674H320.201L320.276 64.4981H320.303C320.379 64.378 320.487 64.2852 320.627 64.2198C320.767 64.1545 320.922 64.1218 321.092 64.1218C321.697 64.1218 322 64.4297 322 65.0454V66.6898Z" fill="#777777"/>
<path d="M324.876 64.1674V64.4616L324.445 64.5414C324.484 64.5946 324.517 64.66 324.543 64.7376C324.569 64.8151 324.582 64.8972 324.582 64.9839C324.582 65.2439 324.492 65.4483 324.313 65.5973C324.133 65.7463 323.886 65.8208 323.571 65.8208C323.491 65.8208 323.418 65.8148 323.352 65.8026C323.237 65.8741 323.179 65.9577 323.179 66.0535C323.179 66.1112 323.206 66.1546 323.259 66.1835C323.314 66.2124 323.413 66.2268 323.558 66.2268H323.998C324.276 66.2268 324.487 66.2861 324.632 66.4047C324.776 66.5233 324.848 66.6943 324.848 66.9178C324.848 67.2037 324.731 67.4241 324.495 67.5792C324.259 67.7343 323.919 67.8118 323.473 67.8118C323.13 67.8118 322.867 67.751 322.686 67.6294C322.505 67.5078 322.415 67.3344 322.415 67.1094C322.415 66.9543 322.464 66.8236 322.561 66.7171C322.66 66.6122 322.797 66.5392 322.974 66.4982C322.902 66.4678 322.843 66.4191 322.796 66.3522C322.75 66.2838 322.727 66.2124 322.727 66.1379C322.727 66.0436 322.754 65.9638 322.807 65.8984C322.861 65.833 322.94 65.7684 323.044 65.7045C322.914 65.6483 322.807 65.5571 322.725 65.4309C322.645 65.3031 322.604 65.1541 322.604 64.9839C322.604 64.7102 322.69 64.4981 322.862 64.3476C323.035 64.197 323.282 64.1218 323.601 64.1218C323.672 64.1218 323.747 64.1271 323.824 64.1377C323.904 64.1469 323.963 64.1568 324.002 64.1674H324.876ZM322.894 67.082C322.894 67.1976 322.946 67.2865 323.049 67.3489C323.154 67.4112 323.301 67.4424 323.489 67.4424C323.781 67.4424 323.999 67.4006 324.141 67.3169C324.284 67.2333 324.356 67.1223 324.356 66.984C324.356 66.8745 324.316 66.7962 324.237 66.7491C324.16 66.7035 324.015 66.6806 323.802 66.6806H323.396C323.242 66.6806 323.12 66.7164 323.029 66.7878C322.939 66.8608 322.894 66.9589 322.894 67.082ZM323.124 64.9839C323.124 65.142 323.165 65.2636 323.245 65.3488C323.327 65.4339 323.444 65.4765 323.596 65.4765C323.907 65.4765 324.062 65.3107 324.062 64.9793C324.062 64.8151 324.023 64.6889 323.945 64.6007C323.869 64.511 323.753 64.4662 323.596 64.4662C323.441 64.4662 323.323 64.5102 323.243 64.5984C323.164 64.6866 323.124 64.8151 323.124 64.9839Z" fill="#777777"/>
<path d="M328.684 66.6898L328.352 65.7638H327.077L326.751 66.6898H326.176L327.423 63.3418H328.016L329.264 66.6898H328.684ZM328.208 65.294L327.895 64.3863C327.873 64.3255 327.841 64.2297 327.8 64.099C327.76 63.9682 327.733 63.8724 327.717 63.8116C327.676 63.9986 327.616 64.2031 327.537 64.4251L327.236 65.294H328.208Z" fill="#777777"/>
<path d="M331.772 66.6898H331.234V65.1344C331.234 64.9413 331.198 64.7976 331.125 64.7033C331.052 64.6076 330.938 64.5597 330.783 64.5597C330.576 64.5597 330.424 64.6273 330.327 64.7626C330.231 64.8964 330.183 65.1199 330.183 65.4331V66.6898H329.647V64.1674H330.067L330.142 64.4981H330.169C330.239 64.378 330.34 64.2852 330.472 64.2198C330.606 64.1545 330.753 64.1218 330.913 64.1218C331.3 64.1218 331.557 64.2541 331.684 64.5186H331.72C331.794 64.3939 331.899 64.2966 332.035 64.2267C332.17 64.1568 332.325 64.1218 332.5 64.1218C332.801 64.1218 333.02 64.1978 333.157 64.3498C333.295 64.5019 333.364 64.7338 333.364 65.0454V66.6898H332.828V65.1344C332.828 64.9413 332.791 64.7976 332.717 64.7033C332.644 64.6076 332.53 64.5597 332.375 64.5597C332.166 64.5597 332.013 64.625 331.916 64.7558C331.82 64.885 331.772 65.0842 331.772 65.3533V66.6898Z" fill="#777777"/>
<path d="M336.35 65.424C336.35 65.8361 336.244 66.1576 336.033 66.3887C335.821 66.6198 335.527 66.7354 335.15 66.7354C334.914 66.7354 334.706 66.6822 334.525 66.5757C334.344 66.4693 334.205 66.3165 334.108 66.1173C334.01 65.9182 333.962 65.6871 333.962 65.424C333.962 65.015 334.067 64.6957 334.277 64.4662C334.486 64.2366 334.782 64.1218 335.164 64.1218C335.529 64.1218 335.818 64.2396 336.03 64.4753C336.243 64.7094 336.35 65.0257 336.35 65.424ZM334.514 65.424C334.514 66.0063 334.729 66.2975 335.159 66.2975C335.585 66.2975 335.798 66.0063 335.798 65.424C335.798 64.8478 335.583 64.5597 335.155 64.5597C334.93 64.5597 334.766 64.6342 334.664 64.7832C334.564 64.9322 334.514 65.1458 334.514 65.424Z" fill="#777777"/>
<path d="M338.747 66.6898L338.671 66.3591H338.644C338.569 66.4761 338.463 66.5681 338.325 66.635C338.188 66.7019 338.031 66.7354 337.855 66.7354C337.549 66.7354 337.321 66.6594 337.171 66.5073C337.02 66.3553 336.945 66.1249 336.945 65.8163V64.1674H337.485V65.7228C337.485 65.9159 337.525 66.0611 337.604 66.1584C337.683 66.2542 337.807 66.3021 337.976 66.3021C338.201 66.3021 338.366 66.2352 338.471 66.1014C338.577 65.966 338.63 65.7403 338.63 65.424V64.1674H339.169V66.6898H338.747Z" fill="#777777"/>
<path d="M342.152 66.6898H341.613V65.1389C341.613 64.9443 341.574 64.7991 341.495 64.7033C341.417 64.6076 341.293 64.5597 341.123 64.5597C340.896 64.5597 340.731 64.6266 340.626 64.7604C340.521 64.8942 340.468 65.1184 340.468 65.4331V66.6898H339.933V64.1674H340.352L340.427 64.4981H340.455C340.531 64.378 340.639 64.2852 340.779 64.2198C340.919 64.1545 341.074 64.1218 341.244 64.1218C341.849 64.1218 342.152 64.4297 342.152 65.0454V66.6898Z" fill="#777777"/>
<path d="M343.837 66.3021C343.968 66.3021 344.098 66.2815 344.229 66.2405V66.6442C344.17 66.67 344.093 66.6913 343.999 66.708C343.906 66.7263 343.81 66.7354 343.709 66.7354C343.201 66.7354 342.948 66.4678 342.948 65.9326V64.5733H342.603V64.3362L342.973 64.14L343.155 63.6064H343.486V64.1674H344.204V64.5733H343.486V65.9235C343.486 66.0527 343.518 66.1485 343.582 66.2108C343.647 66.2717 343.732 66.3021 343.837 66.3021Z" fill="#777777"/>
<g filter="url(#filter4_d)">
<rect x="84.9309" y="16" width="358.106" height="21.8563" fill="white"/>
</g>
<rect x="292.712" y="23.5431" width="28.5844" height="7.9401" rx="3.97005" fill="#ECECEC"/>
<rect x="257.776" y="23.5431" width="28.5844" height="7.9401" rx="3.97005" fill="#ECECEC"/>
<rect x="98.9738" y="21.9551" width="50.8166" height="11.1161" rx="3.98092" fill="#ECECEC"/>
<rect x="16" y="61.2585" width="65.9028" height="13.1012" fill="#78A5ED"/>
<rect x="16" y="16" width="68.9313" height="269" fill="#52479C"/>
<path fill-rule="evenodd" clip-rule="evenodd" d="M26.1643 24.1224C25.6299 23.8388 24.9466 24.0071 24.638 24.4984L23.3113 26.6112C23.0027 27.1025 23.1858 27.7307 23.7202 28.0144C24.2546 28.298 24.9379 28.1297 25.2465 27.6384L26.5733 25.5256C26.8818 25.0343 26.6987 24.4061 26.1643 24.1224Z" fill="#52489C"/>
<path fill-rule="evenodd" clip-rule="evenodd" d="M33.8822 27.6233C33.3478 27.907 32.6645 27.7387 32.356 27.2474L29.9817 23.4666C29.6732 22.9753 29.8563 22.347 30.3907 22.0634C30.9251 21.7797 31.6084 21.9481 31.9169 22.4394L34.2912 26.2201C34.5997 26.7115 34.4166 27.3397 33.8822 27.6233Z" fill="url(#paint0_linear)"/>
<path fill-rule="evenodd" clip-rule="evenodd" d="M27.1374 28.9721C27.6718 29.2558 28.3551 29.0875 28.6636 28.5961L31.9108 23.4254C32.2193 22.9341 32.0362 22.3058 31.5018 22.0222C30.9674 21.7385 30.2841 21.9069 29.9756 22.3982L26.7284 27.5689C26.4199 28.0602 26.603 28.6885 27.1374 28.9721Z" fill="url(#paint1_linear)"/>
<path fill-rule="evenodd" clip-rule="evenodd" d="M28.2037 29.0162C27.6693 29.2999 26.986 29.1316 26.6774 28.6402L24.6698 25.4433C24.3612 24.952 24.5443 24.3237 25.0787 24.0401C25.6131 23.7564 26.2965 23.9248 26.605 24.4161L28.6126 27.613C28.9212 28.1043 28.7381 28.7326 28.2037 29.0162Z" fill="url(#paint2_linear)"/>
<path fill-rule="evenodd" clip-rule="evenodd" d="M21.8843 29.091C21.8843 28.5225 22.3452 28.0615 22.9138 28.0615C23.4824 28.0615 23.9433 28.5225 23.9433 29.091C23.9433 29.6596 23.4824 30.1206 22.9138 30.1206C22.3452 30.1206 21.8843 29.6596 21.8843 29.091Z" fill="url(#paint3_linear)"/>
<path fill-rule="evenodd" clip-rule="evenodd" d="M26.1643 24.1224C25.6299 23.8388 24.9466 24.0071 24.638 24.4984L23.3113 26.6112C23.0027 27.1025 23.1858 27.7307 23.7202 28.0144C24.2546 28.298 24.9379 28.1297 25.2465 27.6384L26.5733 25.5256C26.8818 25.0343 26.6987 24.4061 26.1643 24.1224Z" fill="white"/>
<path fill-rule="evenodd" clip-rule="evenodd" d="M33.8822 27.6233C33.3478 27.907 32.6645 27.7387 32.356 27.2474L29.9817 23.4666C29.6732 22.9753 29.8563 22.347 30.3907 22.0634C30.9251 21.7797 31.6084 21.9481 31.9169 22.4394L34.2912 26.2201C34.5997 26.7115 34.4166 27.3397 33.8822 27.6233Z" fill="white"/>
<path fill-rule="evenodd" clip-rule="evenodd" d="M27.1374 28.9721C27.6718 29.2558 28.3551 29.0875 28.6636 28.5961L31.9108 23.4254C32.2193 22.9341 32.0362 22.3058 31.5018 22.0222C30.9674 21.7385 30.2841 21.9069 29.9756 22.3982L26.7284 27.5689C26.4199 28.0602 26.603 28.6885 27.1374 28.9721Z" fill="white"/>
<path fill-rule="evenodd" clip-rule="evenodd" d="M28.2037 29.0162C27.6693 29.2999 26.986 29.1316 26.6774 28.6402L24.6698 25.4433C24.3612 24.952 24.5443 24.3237 25.0787 24.0401C25.6131 23.7564 26.2965 23.9248 26.605 24.4161L28.6126 27.613C28.9212 28.1043 28.7381 28.7326 28.2037 29.0162Z" fill="white"/>
<path fill-rule="evenodd" clip-rule="evenodd" d="M21.8843 29.091C21.8843 28.5225 22.3452 28.0615 22.9138 28.0615C23.4824 28.0615 23.9433 28.5225 23.9433 29.091C23.9433 29.6596 23.4824 30.1206 22.9138 30.1206C22.3452 30.1206 21.8843 29.6596 21.8843 29.091Z" fill="white"/>
<path d="M38.0151 25.544V28.0514L38.344 28.0693V28.5469H36.9709V28.0932L37.1613 28.0753C37.2728 28.0633 37.3286 27.9997 37.3286 27.8842V26.2246C37.3286 26.1569 37.317 26.1111 37.294 26.0873C37.2747 26.0634 37.2382 26.0514 37.1844 26.0514L36.9824 26.0395V25.544H38.0151ZM37.2882 25.0306C37.2074 24.947 37.167 24.8415 37.167 24.7142C37.167 24.5868 37.2074 24.4813 37.2882 24.3978C37.369 24.3102 37.4747 24.2664 37.6055 24.2664C37.7363 24.2664 37.8421 24.3102 37.9228 24.3978C38.0074 24.4813 38.0498 24.5868 38.0498 24.7142C38.0498 24.8415 38.0074 24.947 37.9228 25.0306C37.8421 25.1102 37.7363 25.15 37.6055 25.15C37.4747 25.15 37.369 25.1102 37.2882 25.0306Z" fill="white"/>
<path d="M38.6434 26.0216V25.544H39.6184V25.932C39.7184 25.7848 39.8511 25.6694 40.0165 25.5858C40.1819 25.4982 40.3608 25.4544 40.5531 25.4544C40.8454 25.4544 41.0704 25.542 41.2281 25.7171C41.3896 25.8883 41.4704 26.147 41.4704 26.4932V28.0514L41.7993 28.0693V28.5469H40.4261V28.0932L40.6165 28.0753C40.6742 28.0673 40.7165 28.0514 40.7435 28.0275C40.7704 27.9997 40.7838 27.9499 40.7838 27.8783V26.6484C40.7838 26.4295 40.7512 26.2684 40.6858 26.1649C40.6204 26.0574 40.4954 26.0037 40.3108 26.0037C40.13 26.0037 39.9858 26.0634 39.8781 26.1828C39.7704 26.3022 39.7165 26.4435 39.7165 26.6067V28.0514L40.0454 28.0693V28.5469H38.6723V28.0932L38.8626 28.0753C38.9203 28.0673 38.9627 28.0514 38.9896 28.0275C39.0165 27.9997 39.03 27.9499 39.03 27.8783V26.2246C39.03 26.1052 38.9819 26.0435 38.8857 26.0395L38.6434 26.0216Z" fill="white"/>
<path d="M43.649 25.9977C43.5567 25.9619 43.4451 25.944 43.3143 25.944C43.1836 25.944 43.0778 25.9758 42.997 26.0395C42.9201 26.0992 42.8816 26.1748 42.8816 26.2664C42.8816 26.3539 42.8951 26.4236 42.922 26.4753C42.9528 26.5231 42.9989 26.5649 43.0605 26.6007C43.1566 26.6524 43.272 26.6982 43.4066 26.738C43.5413 26.7738 43.6413 26.8037 43.7067 26.8275C43.772 26.8474 43.8528 26.8833 43.949 26.935C44.049 26.9867 44.124 27.0425 44.174 27.1022C44.3086 27.2494 44.3759 27.4385 44.3759 27.6693C44.3759 27.9678 44.2701 28.2026 44.0586 28.3738C43.8509 28.5409 43.5855 28.6245 43.2624 28.6245C42.7932 28.6245 42.4393 28.5628 42.2009 28.4394V27.6096L42.7201 27.5678V27.8544C42.7201 28.0295 42.8816 28.1171 43.2047 28.1171C43.5278 28.1171 43.6893 27.9957 43.6893 27.7529C43.6893 27.6653 43.6605 27.5937 43.6028 27.538C43.549 27.4823 43.4951 27.4444 43.4413 27.4245C43.3874 27.4046 43.322 27.3847 43.2451 27.3648C43.172 27.3449 43.0989 27.325 43.0259 27.3051C42.9566 27.2852 42.8797 27.2594 42.7951 27.2275C42.7143 27.1917 42.6239 27.142 42.5239 27.0783C42.3278 26.9469 42.2297 26.728 42.2297 26.4216C42.2297 26.1111 42.3355 25.8723 42.547 25.7052C42.7586 25.538 43.0239 25.4544 43.3432 25.4544C43.6663 25.4544 43.9855 25.534 44.3009 25.6932V26.4096L43.7817 26.4514V26.2007C43.7817 26.1012 43.7374 26.0335 43.649 25.9977Z" fill="white"/>
<path d="M45.3244 24.9112H45.6994V25.544H46.4668L46.4091 26.0455H45.6994V27.6156C45.6994 27.7907 45.7302 27.9141 45.7917 27.9857C45.8533 28.0534 45.9475 28.0872 46.0744 28.0872C46.2052 28.0872 46.336 28.0454 46.4668 27.9618L46.6398 28.4215C46.4475 28.5608 46.2033 28.6305 45.9071 28.6305C45.734 28.6305 45.5879 28.6066 45.4687 28.5588C45.3494 28.5151 45.261 28.4653 45.2033 28.4096C45.1456 28.3539 45.1013 28.2723 45.0706 28.1648C45.0398 28.0574 45.0225 27.9738 45.0186 27.9141C45.0148 27.8504 45.0129 27.7589 45.0129 27.6395V26.0455H44.6032L44.6609 25.6097C44.8417 25.5937 44.9783 25.5281 45.0706 25.4127C45.1629 25.2933 45.2475 25.1261 45.3244 24.9112Z" fill="white"/>
<path d="M49.4492 25.6634V27.8842C49.4492 27.9479 49.4589 27.9917 49.4781 28.0156C49.5012 28.0395 49.5396 28.0534 49.5935 28.0574L49.7781 28.0693V28.5469H48.8608V28.2006L48.8435 28.1947C48.6511 28.4812 48.3877 28.6245 48.0531 28.6245C47.6607 28.6245 47.3703 28.4952 47.1819 28.2365C46.9934 27.9778 46.8992 27.6235 46.8992 27.1738C46.8992 26.6325 47.0261 26.2106 47.28 25.9082C47.5338 25.6057 47.9146 25.4544 48.4223 25.4544C48.7492 25.4544 49.0915 25.5241 49.4492 25.6634ZM48.78 27.5977V26.0514C48.6723 25.9997 48.5242 25.9738 48.3357 25.9738C48.0781 25.9738 47.8915 26.0813 47.7761 26.2962C47.6607 26.5111 47.603 26.7957 47.603 27.1499C47.603 27.7947 47.803 28.1171 48.2031 28.1171C48.3723 28.1171 48.5108 28.0653 48.6184 27.9618C48.7261 27.8544 48.78 27.733 48.78 27.5977Z" fill="white"/>
<path d="M50.0976 26.0276V25.544H51.0726V25.932C51.288 25.6136 51.5823 25.4544 51.9553 25.4544C52.3323 25.4544 52.5861 25.6136 52.7169 25.932C52.9323 25.6136 53.2246 25.4544 53.5938 25.4544C53.8708 25.4544 54.0842 25.542 54.2342 25.7171C54.3842 25.8883 54.4592 26.147 54.4592 26.4932V28.0514L54.7881 28.0693V28.5469H53.415V28.0932L53.6054 28.0753C53.6631 28.0673 53.7035 28.0514 53.7265 28.0275C53.7535 27.9997 53.7688 27.9519 53.7727 27.8842V26.6484C53.7727 26.4295 53.7477 26.2684 53.6977 26.1649C53.6515 26.0574 53.54 26.0037 53.3631 26.0037C53.1861 26.0037 53.0496 26.0594 52.9534 26.1708C52.8611 26.2823 52.815 26.4315 52.815 26.6186V28.0514L53.1323 28.0693V28.5469H51.7707V28.0932L51.9611 28.0753C52.0188 28.0673 52.0611 28.0514 52.088 28.0275C52.115 27.9997 52.1284 27.9499 52.1284 27.8783V26.6484C52.1284 26.4295 52.1034 26.2684 52.0534 26.1649C52.0073 26.0574 51.8938 26.0037 51.713 26.0037C51.5361 26.0037 51.4015 26.0614 51.3092 26.1768C51.2169 26.2922 51.1707 26.4355 51.1707 26.6067V28.0514L51.4823 28.0693V28.5469H50.1207V28.0932L50.3111 28.0753C50.3688 28.0673 50.4111 28.0514 50.438 28.0275C50.4649 27.9997 50.4784 27.9499 50.4784 27.8783H50.4842V26.2305C50.4842 26.1629 50.4726 26.1171 50.4495 26.0932C50.4303 26.0654 50.3938 26.0495 50.3399 26.0455L50.0976 26.0276Z" fill="white"/>
<path d="M56.4567 28.1111C56.8759 28.1111 57.0855 27.7609 57.0855 27.0604C57.0855 26.7062 57.0374 26.4375 56.9413 26.2544C56.849 26.0713 56.6913 25.9798 56.4682 25.9798C56.249 25.9798 56.0874 26.0674 55.9836 26.2425C55.8797 26.4176 55.8278 26.6564 55.8278 26.9589C55.8278 27.5201 55.9278 27.8723 56.1278 28.0156C56.2163 28.0793 56.3259 28.1111 56.4567 28.1111ZM55.1297 27.0425C55.1297 26.7479 55.172 26.4932 55.2566 26.2783C55.3413 26.0594 55.4547 25.8922 55.597 25.7768C55.8701 25.5619 56.172 25.4544 56.5028 25.4544C56.7336 25.4544 56.9278 25.4942 57.0855 25.5738C57.2471 25.6495 57.3721 25.739 57.4605 25.8425C57.5528 25.942 57.6298 26.0893 57.6913 26.2843C57.7567 26.4753 57.7894 26.7022 57.7894 26.9649C57.7894 27.5141 57.6605 27.93 57.4028 28.2126C57.1451 28.4952 56.8144 28.6365 56.4105 28.6365C56.0105 28.6365 55.697 28.5031 55.4701 28.2365C55.2432 27.9658 55.1297 27.5678 55.1297 27.0425Z" fill="white"/>
<path d="M58.1432 26.0216V25.544H59.1182V25.932C59.2182 25.7848 59.3509 25.6694 59.5163 25.5858C59.6817 25.4982 59.8605 25.4544 60.0528 25.4544C60.3451 25.4544 60.5701 25.542 60.7278 25.7171C60.8894 25.8883 60.9701 26.147 60.9701 26.4932V28.0514L61.299 28.0693V28.5469H59.9259V28.0932L60.1163 28.0753C60.174 28.0673 60.2163 28.0514 60.2432 28.0275C60.2701 27.9997 60.2836 27.9499 60.2836 27.8783V26.6484C60.2836 26.4295 60.2509 26.2684 60.1855 26.1649C60.1201 26.0574 59.9951 26.0037 59.8105 26.0037C59.6297 26.0037 59.4855 26.0634 59.3778 26.1828C59.2701 26.3022 59.2163 26.4435 59.2163 26.6067V28.0514L59.5451 28.0693V28.5469H58.172V28.0932L58.3624 28.0753C58.4201 28.0673 58.4624 28.0514 58.4893 28.0275C58.5162 27.9997 58.5297 27.9499 58.5297 27.8783V26.2246C58.5297 26.1052 58.4816 26.0435 58.3855 26.0395L58.1432 26.0216Z" fill="white"/>
<path d="M63.0852 25.4544C63.3737 25.4544 63.6026 25.5281 63.7718 25.6753C63.941 25.8186 64.0257 26.0216 64.0257 26.2843C64.0257 26.4594 63.9891 26.6146 63.916 26.7499C63.843 26.8813 63.7526 26.9848 63.6449 27.0604C63.5372 27.136 63.4064 27.1977 63.2526 27.2454C62.9949 27.325 62.7045 27.3648 62.3814 27.3648C62.3929 27.5758 62.4564 27.7469 62.5718 27.8783C62.6872 28.0056 62.8641 28.0693 63.1026 28.0693C63.341 28.0693 63.5795 27.9817 63.818 27.8066L64.0372 28.2902C63.9603 28.3618 63.8295 28.4355 63.6449 28.5111C63.4641 28.5867 63.2564 28.6245 63.0218 28.6245C62.5525 28.6245 62.2083 28.4912 61.9891 28.2245C61.7698 27.9539 61.6602 27.5837 61.6602 27.1141C61.6602 26.6445 61.7852 26.2504 62.0352 25.932C62.2852 25.6136 62.6352 25.4544 63.0852 25.4544ZM62.8199 26.8216C62.9622 26.7937 63.0929 26.736 63.2122 26.6484C63.3314 26.5569 63.391 26.4494 63.391 26.3261C63.391 26.0833 63.2756 25.9619 63.0449 25.9619C62.8295 25.9619 62.6641 26.0514 62.5487 26.2305C62.4333 26.4057 62.3698 26.6166 62.3583 26.8634C62.5275 26.8594 62.6814 26.8455 62.8199 26.8216Z" fill="white"/>
<path d="M66.5548 28.4335V27.9798C66.3432 28.2902 66.0317 28.4454 65.6202 28.4454C65.024 28.4454 64.7259 28.1011 64.7259 27.4126V26.2126C64.7259 26.1052 64.6778 26.0495 64.5817 26.0455L64.3971 26.0335V25.544H65.4125V27.2574C65.4125 27.4683 65.4413 27.6275 65.499 27.735C65.5567 27.8424 65.6759 27.8962 65.8567 27.8962C66.0375 27.8962 66.1817 27.8385 66.2894 27.723C66.4009 27.6076 66.4567 27.4683 66.4567 27.3051V26.2246C66.4567 26.1569 66.4452 26.1111 66.4221 26.0873C66.4029 26.0594 66.3663 26.0455 66.3125 26.0455L66.1279 26.0335V25.544H67.1433V28.4335C67.1433 28.9151 67.0298 29.2673 66.8029 29.4902C66.5798 29.713 66.2394 29.8245 65.7817 29.8245C65.3278 29.8245 64.974 29.7588 64.7201 29.6275V28.7976L65.2682 28.7499V29.0364C65.2682 29.1439 65.3163 29.2155 65.4125 29.2514C65.5086 29.2912 65.6413 29.3111 65.8105 29.3111C66.3067 29.3111 66.5548 29.0185 66.5548 28.4335Z" fill="white"/>
<rect x="22.3521" y="39.0263" width="17.0712" height="6.35208" rx="3.17604" fill="#9791C4"/>
<rect x="35.4537" y="59.2736" width="32.1574" height="6.35208" rx="3.17604" fill="#9791C4"/>
<rect x="35.4537" y="75.1537" width="32.1574" height="6.35208" rx="3.17604" fill="#9791C4"/>
<rect x="35.4537" y="91.0339" width="32.1574" height="6.35208" rx="3.17604" fill="white"/>
<rect x="35.4537" y="154.555" width="32.1574" height="6.35208" rx="3.17604" fill="#9791C4"/>
<rect x="35.4537" y="113.513" width="32.1574" height="6.35208" rx="3.17604" fill="#9791C4"/>
<rect x="35.4537" y="170.435" width="32.1574" height="6.35208" rx="3.17604" fill="#9791C4"/>
<rect x="35.4537" y="129.393" width="32.1574" height="6.35208" rx="3.17604" fill="#9791C4"/>
<rect x="35.4537" y="190.85" width="32.1574" height="6.35208" rx="3.17604" fill="#9791C4"/>
<rect x="72.7719" y="39.0263" width="6.35208" height="6.35208" rx="3.17604" fill="#9791C4"/>
<rect x="22.3521" y="59.2736" width="6.35208" height="6.35208" rx="3.17604" fill="#9791C4"/>
<rect x="22.3521" y="75.1537" width="6.35208" height="6.35208" rx="3.17604" fill="#9791C4"/>
<rect x="22.3521" y="91.0339" width="6.35208" height="6.35208" rx="3.17604" fill="white"/>
<rect x="22.3521" y="154.555" width="6.35208" height="6.35208" rx="3.17604" fill="#9791C4"/>
<rect x="22.3521" y="113.513" width="6.35208" height="6.35208" rx="3.17604" fill="#9791C4"/>
<rect x="22.3521" y="170.435" width="6.35208" height="6.35208" rx="3.17604" fill="#9791C4"/>
<rect x="22.3521" y="129.393" width="6.35208" height="6.35208" rx="3.17604" fill="#9791C4"/>
<rect x="22.3521" y="190.85" width="6.35208" height="6.35208" rx="3.17604" fill="#9791C4"/>
</g>
</g>
<defs>
<filter id="filter0_d" x="-27.7901" y="-23.8092" width="514.618" height="356.58" filterUnits="userSpaceOnUse" color-interpolation-filters="sRGB">
<feFlood flood-opacity="0" result="BackgroundImageFix"/>
<feColorMatrix in="SourceAlpha" type="matrix" values="0 0 0 0 0 0 0 0 0 0 0 0 0 0 0 0 0 0 127 0"/>
<feOffset dy="3.98092"/>
<feGaussianBlur stdDeviation="21.895"/>
<feColorMatrix type="matrix" values="0 0 0 0 0 0 0 0 0 0 0 0 0 0 0 0 0 0 0.15 0"/>
<feBlend mode="normal" in2="BackgroundImageFix" result="effect1_dropShadow"/>
<feBlend mode="normal" in="SourceGraphic" in2="effect1_dropShadow" result="shape"/>
</filter>
<filter id="filter1_d" x="94.4006" y="93.0283" width="342.424" height="187.856" filterUnits="userSpaceOnUse" color-interpolation-filters="sRGB">
<feFlood flood-opacity="0" result="BackgroundImageFix"/>
<feColorMatrix in="SourceAlpha" type="matrix" values="0 0 0 0 0 0 0 0 0 0 0 0 0 0 0 0 0 0 127 0"/>
<feOffset dy="1.99046"/>
<feGaussianBlur stdDeviation="1.99046"/>
<feColorMatrix type="matrix" values="0 0 0 0 0 0 0 0 0 0 0 0 0 0 0 0 0 0 0.08 0"/>
<feBlend mode="normal" in2="BackgroundImageFix" result="effect1_dropShadow"/>
<feBlend mode="normal" in="SourceGraphic" in2="effect1_dropShadow" result="shape"/>
</filter>
<filter id="filter2_d" x="94.4009" y="49.3158" width="171.884" height="44.9493" filterUnits="userSpaceOnUse" color-interpolation-filters="sRGB">
<feFlood flood-opacity="0" result="BackgroundImageFix"/>
<feColorMatrix in="SourceAlpha" type="matrix" values="0 0 0 0 0 0 0 0 0 0 0 0 0 0 0 0 0 0 127 0"/>
<feOffset dy="1.99046"/>
<feGaussianBlur stdDeviation="1.99046"/>
<feColorMatrix type="matrix" values="0 0 0 0 0 0 0 0 0 0 0 0 0 0 0 0 0 0 0.08 0"/>
<feBlend mode="normal" in2="BackgroundImageFix" result="effect1_dropShadow"/>
<feBlend mode="normal" in="SourceGraphic" in2="effect1_dropShadow" result="shape"/>
</filter>
<filter id="filter3_d" x="265.048" y="49.3158" width="171.884" height="44.9493" filterUnits="userSpaceOnUse" color-interpolation-filters="sRGB">
<feFlood flood-opacity="0" result="BackgroundImageFix"/>
<feColorMatrix in="SourceAlpha" type="matrix" values="0 0 0 0 0 0 0 0 0 0 0 0 0 0 0 0 0 0 127 0"/>
<feOffset dy="1.99046"/>
<feGaussianBlur stdDeviation="1.99046"/>
<feColorMatrix type="matrix" values="0 0 0 0 0 0 0 0 0 0 0 0 0 0 0 0 0 0 0.08 0"/>
<feBlend mode="normal" in2="BackgroundImageFix" result="effect1_dropShadow"/>
<feBlend mode="normal" in="SourceGraphic" in2="effect1_dropShadow" result="shape"/>
</filter>
<filter id="filter4_d" x="80.95" y="14.0095" width="366.068" height="29.8181" filterUnits="userSpaceOnUse" color-interpolation-filters="sRGB">
<feFlood flood-opacity="0" result="BackgroundImageFix"/>
<feColorMatrix in="SourceAlpha" type="matrix" values="0 0 0 0 0 0 0 0 0 0 0 0 0 0 0 0 0 0 127 0"/>
<feOffset dy="1.99046"/>
<feGaussianBlur stdDeviation="1.99046"/>
<feColorMatrix type="matrix" values="0 0 0 0 0 0 0 0 0 0 0 0 0 0 0 0 0 0 0.08 0"/>
<feBlend mode="normal" in2="BackgroundImageFix" result="effect1_dropShadow"/>
<feBlend mode="normal" in="SourceGraphic" in2="effect1_dropShadow" result="shape"/>
</filter>
<linearGradient id="paint0_linear" x1="32.2816" y1="29.4682" x2="35.6512" y2="26.6369" gradientUnits="userSpaceOnUse">
<stop stop-color="#92E3E3"/>
<stop offset="0.257959" stop-color="#8BDFDF"/>
<stop offset="1" stop-color="#4B428F"/>
</linearGradient>
<linearGradient id="paint1_linear" x1="22.233" y1="29.0101" x2="32.5299" y2="32.9793" gradientUnits="userSpaceOnUse">
<stop stop-color="white"/>
<stop offset="0.433893" stop-color="#52489C"/>
<stop offset="1"/>
</linearGradient>
<linearGradient id="paint2_linear" x1="26.7748" y1="30.6903" x2="29.8183" y2="28.0747" gradientUnits="userSpaceOnUse">
<stop stop-color="#92E3E3"/>
<stop offset="0.257959" stop-color="#8BDFDF"/>
<stop offset="1" stop-color="#4B428F"/>
</linearGradient>
<linearGradient id="paint3_linear" x1="22.3936" y1="31.4969" x2="24.6705" y2="29.6557" gradientUnits="userSpaceOnUse">
<stop stop-color="#92E3E3"/>
<stop offset="0.520627" stop-color="#8BDFDF"/>
<stop offset="1" stop-color="#59C3C3"/>
</linearGradient>
</defs>
</svg>
