<svg width="604" height="324" viewBox="0 0 604 324" fill="none" xmlns="http://www.w3.org/2000/svg">
<mask id="mask0" mask-type="alpha" maskUnits="userSpaceOnUse" x="0" y="0" width="604" height="324">
<rect width="604" height="324" fill="white"/>
</mask>
<g mask="url(#mask0)">
<path d="M0 0H604V324H0V0Z" fill="#BFF3E6"/>
<g filter="url(#filter0_d)">
<rect x="48" y="48" width="508" height="320" fill="#F7F7F7"/>
<g filter="url(#filter1_d)">
<rect x="146" y="156" width="398" height="201" rx="4" fill="white"/>
</g>
<path d="M231.115 169.911C231.115 170.455 230.937 170.872 230.58 171.162C230.223 171.452 229.716 171.597 229.058 171.597H228.516V173.548H227.664V168.335H229.165C229.816 168.335 230.303 168.468 230.626 168.734C230.952 169.001 231.115 169.393 231.115 169.911ZM228.516 170.881H228.968C229.406 170.881 229.727 170.805 229.931 170.653C230.136 170.5 230.238 170.263 230.238 169.94C230.238 169.64 230.146 169.417 229.963 169.269C229.78 169.122 229.495 169.048 229.108 169.048H228.516V170.881Z" fill="#777777"/>
<path d="M233.789 173.619C233.176 173.619 232.695 173.441 232.348 173.084C232.004 172.725 231.831 172.232 231.831 171.605C231.831 170.96 231.992 170.454 232.313 170.086C232.634 169.717 233.075 169.533 233.636 169.533C234.156 169.533 234.567 169.691 234.869 170.007C235.171 170.323 235.322 170.758 235.322 171.312V171.765H232.694C232.706 172.148 232.81 172.442 233.004 172.649C233.199 172.854 233.474 172.956 233.828 172.956C234.061 172.956 234.277 172.934 234.477 172.892C234.679 172.846 234.895 172.773 235.126 172.671V173.352C234.921 173.449 234.715 173.518 234.505 173.558C234.296 173.599 234.057 173.619 233.789 173.619ZM233.636 170.168C233.369 170.168 233.155 170.252 232.994 170.421C232.835 170.59 232.739 170.836 232.709 171.159H234.498C234.494 170.833 234.415 170.587 234.263 170.421C234.111 170.252 233.902 170.168 233.636 170.168Z" fill="#777777"/>
<path d="M239.743 173.548H238.902V171.123C238.902 170.819 238.84 170.592 238.716 170.442C238.595 170.293 238.401 170.218 238.135 170.218C237.781 170.218 237.522 170.322 237.358 170.531C237.194 170.741 237.112 171.091 237.112 171.583V173.548H236.274V169.604H236.93L237.048 170.121H237.09C237.209 169.934 237.378 169.789 237.597 169.686C237.815 169.584 238.058 169.533 238.324 169.533C239.27 169.533 239.743 170.014 239.743 170.977V173.548Z" fill="#777777"/>
<path d="M242.239 173.619C241.747 173.619 241.363 173.441 241.087 173.084C240.811 172.728 240.674 172.227 240.674 171.583C240.674 170.937 240.813 170.434 241.091 170.075C241.371 169.714 241.759 169.533 242.253 169.533C242.771 169.533 243.166 169.724 243.437 170.107H243.479C243.439 169.824 243.419 169.601 243.419 169.437V168H244.26V173.548H243.604L243.458 173.031H243.419C243.15 173.423 242.757 173.619 242.239 173.619ZM242.463 172.942C242.808 172.942 243.059 172.845 243.216 172.653C243.372 172.458 243.453 172.143 243.458 171.708V171.59C243.458 171.094 243.377 170.741 243.216 170.531C243.054 170.322 242.801 170.218 242.456 170.218C242.161 170.218 241.934 170.338 241.775 170.578C241.616 170.815 241.536 171.155 241.536 171.597C241.536 172.035 241.614 172.369 241.768 172.599C241.923 172.827 242.154 172.942 242.463 172.942Z" fill="#777777"/>
<path d="M246.296 173.548H245.458V169.604H246.296V173.548ZM245.408 168.56C245.408 168.41 245.449 168.295 245.529 168.214C245.613 168.133 245.73 168.093 245.882 168.093C246.03 168.093 246.144 168.133 246.225 168.214C246.308 168.295 246.35 168.41 246.35 168.56C246.35 168.702 246.308 168.815 246.225 168.898C246.144 168.979 246.03 169.02 245.882 169.02C245.73 169.02 245.613 168.979 245.529 168.898C245.449 168.815 245.408 168.702 245.408 168.56Z" fill="#777777"/>
<path d="M250.967 173.548H250.125V171.123C250.125 170.819 250.063 170.592 249.94 170.442C249.819 170.293 249.625 170.218 249.359 170.218C249.005 170.218 248.745 170.322 248.581 170.531C248.417 170.741 248.335 171.091 248.335 171.583V173.548H247.498V169.604H248.154L248.271 170.121H248.314C248.433 169.934 248.602 169.789 248.82 169.686C249.039 169.584 249.281 169.533 249.548 169.533C250.494 169.533 250.967 170.014 250.967 170.977V173.548Z" fill="#777777"/>
<path d="M255.463 169.604V170.064L254.789 170.189C254.85 170.272 254.902 170.375 254.942 170.496C254.982 170.617 255.003 170.745 255.003 170.881C255.003 171.287 254.862 171.607 254.582 171.84C254.301 172.073 253.915 172.189 253.423 172.189C253.297 172.189 253.183 172.18 253.081 172.161C252.9 172.272 252.81 172.403 252.81 172.553C252.81 172.643 252.852 172.711 252.935 172.756C253.02 172.801 253.176 172.824 253.402 172.824H254.09C254.525 172.824 254.855 172.917 255.081 173.102C255.307 173.287 255.42 173.555 255.42 173.904C255.42 174.351 255.236 174.696 254.867 174.938C254.499 175.181 253.966 175.302 253.27 175.302C252.733 175.302 252.323 175.207 252.04 175.017C251.757 174.826 251.616 174.555 251.616 174.204C251.616 173.961 251.692 173.757 251.844 173.59C251.998 173.426 252.213 173.312 252.489 173.248C252.377 173.201 252.285 173.125 252.211 173.02C252.14 172.913 252.104 172.801 252.104 172.685C252.104 172.537 252.146 172.413 252.229 172.31C252.312 172.208 252.436 172.107 252.6 172.007C252.395 171.919 252.229 171.777 252.1 171.58C251.974 171.38 251.911 171.147 251.911 170.881C251.911 170.453 252.046 170.121 252.314 169.886C252.585 169.651 252.97 169.533 253.47 169.533C253.581 169.533 253.698 169.541 253.819 169.558C253.943 169.572 254.035 169.588 254.097 169.604H255.463ZM252.364 174.161C252.364 174.342 252.445 174.481 252.607 174.578C252.771 174.676 253 174.724 253.295 174.724C253.751 174.724 254.091 174.659 254.314 174.528C254.538 174.397 254.65 174.224 254.65 174.008C254.65 173.836 254.588 173.714 254.464 173.64C254.343 173.569 254.116 173.533 253.783 173.533H253.149C252.909 173.533 252.717 173.589 252.575 173.701C252.434 173.815 252.364 173.968 252.364 174.161ZM252.724 170.881C252.724 171.128 252.787 171.318 252.913 171.451C253.042 171.584 253.225 171.651 253.462 171.651C253.947 171.651 254.19 171.392 254.19 170.874C254.19 170.617 254.129 170.42 254.008 170.282C253.889 170.142 253.707 170.071 253.462 170.071C253.22 170.071 253.036 170.14 252.91 170.278C252.786 170.416 252.724 170.617 252.724 170.881Z" fill="#777777"/>
<path d="M257.787 171.548C257.787 170.918 257.879 170.328 258.062 169.779C258.247 169.23 258.513 168.749 258.86 168.335H259.591C259.261 168.782 259.008 169.284 258.832 169.84C258.656 170.394 258.568 170.96 258.568 171.54C258.568 172.12 258.656 172.682 258.832 173.227C259.008 173.771 259.258 174.263 259.584 174.703H258.86C258.511 174.299 258.245 173.827 258.062 173.287C257.879 172.748 257.787 172.168 257.787 171.548Z" fill="#777777"/>
<path d="M263.47 169.533C263.47 169.863 263.374 170.139 263.181 170.36C262.989 170.579 262.718 170.726 262.369 170.802V170.831C262.787 170.883 263.101 171.014 263.31 171.223C263.519 171.43 263.624 171.706 263.624 172.05C263.624 172.552 263.447 172.939 263.092 173.213C262.738 173.483 262.234 173.619 261.581 173.619C261.003 173.619 260.516 173.525 260.119 173.337V172.592C260.34 172.701 260.574 172.786 260.821 172.845C261.068 172.905 261.306 172.934 261.534 172.934C261.938 172.934 262.24 172.86 262.44 172.71C262.64 172.56 262.739 172.328 262.739 172.015C262.739 171.736 262.629 171.532 262.408 171.401C262.187 171.271 261.84 171.205 261.367 171.205H260.914V170.524H261.374C262.206 170.524 262.622 170.237 262.622 169.661C262.622 169.438 262.549 169.266 262.404 169.144C262.259 169.023 262.045 168.963 261.762 168.963C261.565 168.963 261.375 168.991 261.192 169.048C261.009 169.103 260.793 169.211 260.543 169.373L260.133 168.788C260.611 168.436 261.166 168.26 261.798 168.26C262.323 168.26 262.733 168.373 263.028 168.599C263.323 168.825 263.47 169.136 263.47 169.533Z" fill="#777777"/>
<path d="M266.005 171.548C266.005 172.173 265.913 172.755 265.727 173.295C265.544 173.834 265.279 174.304 264.932 174.703H264.208C264.536 174.258 264.787 173.765 264.961 173.223C265.136 172.681 265.224 172.12 265.224 171.54C265.224 170.958 265.136 170.391 264.961 169.84C264.785 169.286 264.532 168.784 264.201 168.335H264.932C265.281 168.751 265.548 169.235 265.731 169.786C265.914 170.335 266.005 170.922 266.005 171.548Z" fill="#777777"/>
<path d="M157.688 168.335H159.235C159.953 168.335 160.471 168.44 160.79 168.649C161.111 168.858 161.271 169.188 161.271 169.64C161.271 169.944 161.193 170.197 161.036 170.399C160.879 170.602 160.653 170.729 160.358 170.781V170.817C160.724 170.886 160.993 171.022 161.164 171.227C161.338 171.429 161.424 171.703 161.424 172.05C161.424 172.518 161.26 172.886 160.932 173.152C160.607 173.416 160.153 173.548 159.57 173.548H157.688V168.335ZM158.54 170.489H159.36C159.717 170.489 159.977 170.433 160.141 170.321C160.305 170.207 160.387 170.014 160.387 169.743C160.387 169.499 160.298 169.322 160.119 169.212C159.944 169.103 159.663 169.048 159.278 169.048H158.54V170.489ZM158.54 171.18V172.831H159.446C159.802 172.831 160.071 172.763 160.251 172.628C160.434 172.49 160.526 172.274 160.526 171.979C160.526 171.708 160.433 171.507 160.248 171.376C160.062 171.246 159.781 171.18 159.403 171.18H158.54Z" fill="#4573FF"/>
<path d="M164.886 173.548L164.719 172.999H164.69C164.5 173.239 164.309 173.403 164.116 173.491C163.924 173.576 163.676 173.619 163.375 173.619C162.987 173.619 162.684 173.514 162.465 173.305C162.249 173.096 162.141 172.8 162.141 172.417C162.141 172.011 162.292 171.704 162.594 171.498C162.896 171.291 163.356 171.178 163.974 171.159L164.655 171.137V170.927C164.655 170.675 164.595 170.487 164.476 170.364C164.36 170.238 164.178 170.175 163.931 170.175C163.729 170.175 163.535 170.205 163.35 170.264C163.164 170.323 162.986 170.394 162.815 170.474L162.544 169.875C162.758 169.764 162.992 169.679 163.246 169.622C163.501 169.563 163.741 169.533 163.966 169.533C164.468 169.533 164.846 169.642 165.1 169.861C165.357 170.08 165.485 170.423 165.485 170.891V173.548H164.886ZM163.638 172.977C163.943 172.977 164.186 172.893 164.369 172.724C164.555 172.553 164.647 172.314 164.647 172.007V171.665L164.141 171.687C163.747 171.701 163.459 171.767 163.278 171.886C163.1 172.003 163.011 172.182 163.011 172.425C163.011 172.6 163.063 172.737 163.168 172.835C163.272 172.93 163.429 172.977 163.638 172.977Z" fill="#4573FF"/>
<path d="M167.493 173.548H166.655V168H167.493V173.548Z" fill="#4573FF"/>
<path d="M171.161 173.548L170.994 172.999H170.965C170.775 173.239 170.584 173.403 170.391 173.491C170.199 173.576 169.951 173.619 169.65 173.619C169.262 173.619 168.959 173.514 168.74 173.305C168.524 173.096 168.416 172.8 168.416 172.417C168.416 172.011 168.567 171.704 168.869 171.498C169.171 171.291 169.631 171.178 170.249 171.159L170.93 171.137V170.927C170.93 170.675 170.87 170.487 170.751 170.364C170.635 170.238 170.453 170.175 170.206 170.175C170.004 170.175 169.81 170.205 169.625 170.264C169.439 170.323 169.261 170.394 169.09 170.474L168.819 169.875C169.033 169.764 169.267 169.679 169.521 169.622C169.776 169.563 170.016 169.533 170.241 169.533C170.743 169.533 171.121 169.642 171.375 169.861C171.632 170.08 171.76 170.423 171.76 170.891V173.548H171.161ZM169.913 172.977C170.218 172.977 170.461 172.893 170.644 172.724C170.83 172.553 170.922 172.314 170.922 172.007V171.665L170.416 171.687C170.022 171.701 169.734 171.767 169.553 171.886C169.375 172.003 169.286 172.182 169.286 172.425C169.286 172.6 169.338 172.737 169.443 172.835C169.547 172.93 169.704 172.977 169.913 172.977Z" fill="#4573FF"/>
<path d="M176.399 173.548H175.557V171.123C175.557 170.819 175.496 170.592 175.372 170.442C175.251 170.293 175.057 170.218 174.791 170.218C174.437 170.218 174.178 170.322 174.014 170.531C173.85 170.741 173.768 171.091 173.768 171.583V173.548H172.93V169.604H173.586L173.703 170.121H173.746C173.865 169.934 174.034 169.789 174.252 169.686C174.471 169.584 174.714 169.533 174.98 169.533C175.926 169.533 176.399 170.014 176.399 170.977V173.548Z" fill="#4573FF"/>
<path d="M179.155 173.619C178.558 173.619 178.104 173.445 177.793 173.098C177.484 172.749 177.329 172.249 177.329 171.597C177.329 170.934 177.491 170.424 177.814 170.068C178.14 169.711 178.609 169.533 179.223 169.533C179.638 169.533 180.013 169.61 180.346 169.765L180.092 170.439C179.738 170.301 179.446 170.232 179.215 170.232C178.533 170.232 178.192 170.685 178.192 171.59C178.192 172.032 178.277 172.365 178.445 172.589C178.616 172.81 178.866 172.92 179.194 172.92C179.567 172.92 179.92 172.827 180.253 172.642V173.373C180.103 173.461 179.943 173.524 179.772 173.562C179.603 173.6 179.397 173.619 179.155 173.619Z" fill="#4573FF"/>
<path d="M182.902 173.619C182.289 173.619 181.809 173.441 181.462 173.084C181.117 172.725 180.945 172.232 180.945 171.605C180.945 170.96 181.105 170.454 181.426 170.086C181.747 169.717 182.188 169.533 182.749 169.533C183.269 169.533 183.68 169.691 183.982 170.007C184.284 170.323 184.435 170.758 184.435 171.312V171.765H181.807C181.819 172.148 181.923 172.442 182.118 172.649C182.312 172.854 182.587 172.956 182.941 172.956C183.174 172.956 183.39 172.934 183.59 172.892C183.792 172.846 184.008 172.773 184.239 172.671V173.352C184.035 173.449 183.828 173.518 183.619 173.558C183.409 173.599 183.171 173.619 182.902 173.619ZM182.749 170.168C182.482 170.168 182.269 170.252 182.107 170.421C181.948 170.59 181.853 170.836 181.822 171.159H183.611C183.607 170.833 183.528 170.587 183.376 170.421C183.224 170.252 183.015 170.168 182.749 170.168Z" fill="#4573FF"/>
<path d="M191.484 173.548H190.628V171.198H188.225V173.548H187.373V168.335H188.225V170.467H190.628V168.335H191.484V173.548Z" fill="#4573FF"/>
<path d="M193.605 173.548H192.767V169.604H193.605V173.548ZM192.717 168.56C192.717 168.41 192.758 168.295 192.839 168.214C192.922 168.133 193.039 168.093 193.192 168.093C193.339 168.093 193.453 168.133 193.534 168.214C193.617 168.295 193.659 168.41 193.659 168.56C193.659 168.702 193.617 168.815 193.534 168.898C193.453 168.979 193.339 169.02 193.192 169.02C193.039 169.02 192.922 168.979 192.839 168.898C192.758 168.815 192.717 168.702 192.717 168.56Z" fill="#4573FF"/>
<path d="M197.456 172.425C197.456 172.81 197.315 173.106 197.035 173.312C196.754 173.517 196.353 173.619 195.83 173.619C195.305 173.619 194.883 173.539 194.564 173.38V172.656C195.028 172.87 195.459 172.977 195.858 172.977C196.374 172.977 196.632 172.822 196.632 172.51C196.632 172.41 196.604 172.327 196.547 172.261C196.489 172.194 196.396 172.125 196.265 172.054C196.134 171.982 195.952 171.902 195.719 171.811C195.265 171.635 194.958 171.46 194.796 171.284C194.637 171.108 194.557 170.88 194.557 170.599C194.557 170.262 194.693 170 194.963 169.815C195.237 169.627 195.608 169.533 196.076 169.533C196.539 169.533 196.978 169.627 197.391 169.815L197.121 170.446C196.695 170.27 196.337 170.182 196.047 170.182C195.605 170.182 195.384 170.308 195.384 170.56C195.384 170.684 195.441 170.788 195.555 170.874C195.672 170.959 195.924 171.077 196.311 171.227C196.637 171.353 196.873 171.468 197.021 171.572C197.168 171.677 197.277 171.798 197.349 171.936C197.42 172.072 197.456 172.234 197.456 172.425Z" fill="#4573FF"/>
<path d="M199.834 172.942C200.038 172.942 200.243 172.909 200.447 172.845V173.476C200.354 173.517 200.234 173.55 200.087 173.576C199.942 173.605 199.791 173.619 199.634 173.619C198.84 173.619 198.443 173.201 198.443 172.364V170.239H197.905V169.868L198.482 169.562L198.768 168.727H199.285V169.604H200.408V170.239H199.285V172.35C199.285 172.552 199.335 172.701 199.434 172.799C199.537 172.894 199.67 172.942 199.834 172.942Z" fill="#4573FF"/>
<path d="M204.736 171.569C204.736 172.213 204.571 172.716 204.241 173.077C203.91 173.438 203.45 173.619 202.861 173.619C202.492 173.619 202.167 173.536 201.884 173.369C201.601 173.203 201.383 172.964 201.231 172.653C201.079 172.341 201.003 171.98 201.003 171.569C201.003 170.93 201.167 170.43 201.495 170.071C201.823 169.713 202.286 169.533 202.882 169.533C203.453 169.533 203.904 169.717 204.237 170.086C204.57 170.452 204.736 170.946 204.736 171.569ZM201.866 171.569C201.866 172.479 202.202 172.934 202.875 172.934C203.541 172.934 203.873 172.479 203.873 171.569C203.873 170.668 203.538 170.218 202.868 170.218C202.516 170.218 202.261 170.334 202.101 170.567C201.944 170.8 201.866 171.134 201.866 171.569Z" fill="#4573FF"/>
<path d="M207.702 169.533C207.871 169.533 208.01 169.545 208.12 169.569L208.038 170.35C207.919 170.321 207.795 170.307 207.667 170.307C207.332 170.307 207.06 170.416 206.85 170.635C206.644 170.853 206.54 171.137 206.54 171.487V173.548H205.702V169.604H206.358L206.469 170.3H206.512C206.642 170.064 206.812 169.878 207.021 169.74C207.233 169.602 207.46 169.533 207.702 169.533Z" fill="#4573FF"/>
<path d="M208.255 169.604H209.168L209.97 171.84C210.091 172.158 210.172 172.458 210.212 172.738H210.241C210.262 172.608 210.302 172.45 210.359 172.264C210.416 172.076 210.718 171.19 211.264 169.604H212.17L210.483 174.072C210.177 174.892 209.666 175.302 208.95 175.302C208.765 175.302 208.584 175.282 208.408 175.241V174.578C208.534 174.607 208.678 174.621 208.84 174.621C209.244 174.621 209.528 174.387 209.692 173.918L209.838 173.548L208.255 169.604Z" fill="#4573FF"/>
<rect x="157" y="178.051" width="55.9806" height="1.21697" rx="0.608485" fill="#4573FF"/>
<rect x="146.118" y="189.766" width="397.89" height="0.236137" rx="0.118068" fill="white" stroke="#DFDFDF" stroke-width="0.236137"/>
<rect x="173" y="231.115" width="20.3013" height="7.0841" rx="3.54205" fill="#CFCFCF"/>
<rect x="154" y="231" width="7.0841" height="7.0841" rx="3.54205" fill="#CFCFCF"/>
<rect x="154" y="252.252" width="7.0841" height="7.0841" rx="3.54205" fill="#ECECEC"/>
<rect x="154" y="289.09" width="7.0841" height="7.0841" rx="3.54205" fill="#ECECEC"/>
<rect x="154" y="270.671" width="7.0841" height="7.0841" rx="3.54205" fill="#ECECEC"/>
<rect x="154" y="307.508" width="7.0841" height="7.0841" rx="3.54205" fill="#ECECEC"/>
<rect x="303" y="231.115" width="22.1898" height="7.0841" rx="3.54205" fill="#CFCFCF"/>
<rect x="237" y="231.115" width="21.2456" height="7.0841" rx="3.54205" fill="#CFCFCF"/>
<rect x="381" y="231.115" width="25.0225" height="7.0841" rx="3.54205" fill="#CFCFCF"/>
<rect x="461" y="231.115" width="25.0225" height="7.0841" rx="3.54205" fill="#CFCFCF"/>
<rect x="173" y="252.367" width="31.6323" height="7.0841" rx="3.54205" fill="#ECECEC"/>
<rect x="303" y="252.367" width="38.7141" height="7.0841" rx="3.54205" fill="#ECECEC"/>
<rect x="237" y="252.367" width="27.8553" height="7.0841" rx="3.54205" fill="#ECECEC"/>
<rect x="381" y="252.367" width="40.1305" height="7.0841" rx="3.54205" fill="#ECECEC"/>
<rect x="461" y="252.367" width="40.1305" height="7.0841" rx="3.54205" fill="#ECECEC"/>
<rect x="520" y="252.367" width="7.08185" height="7.0841" rx="3.54093" fill="#ECECEC"/>
<rect x="173" y="289.204" width="31.6323" height="7.0841" rx="3.54205" fill="#ECECEC"/>
<rect x="303" y="289.204" width="38.7141" height="7.0841" rx="3.54205" fill="#ECECEC"/>
<rect x="237" y="289.204" width="27.8553" height="7.0841" rx="3.54205" fill="#ECECEC"/>
<rect x="381" y="289.204" width="40.1305" height="7.0841" rx="3.54205" fill="#ECECEC"/>
<rect x="461" y="289.204" width="40.1305" height="7.0841" rx="3.54205" fill="#ECECEC"/>
<rect x="520" y="289.204" width="7.08185" height="7.0841" rx="3.54093" fill="#ECECEC"/>
<rect x="173" y="270.786" width="31.6323" height="7.0841" rx="3.54205" fill="#ECECEC"/>
<rect x="303" y="270.786" width="38.7141" height="7.0841" rx="3.54205" fill="#ECECEC"/>
<rect x="237" y="270.786" width="27.8553" height="7.0841" rx="3.54205" fill="#ECECEC"/>
<rect x="381" y="270.786" width="40.1305" height="7.0841" rx="3.54205" fill="#ECECEC"/>
<rect x="461" y="270.786" width="40.1305" height="7.0841" rx="3.54205" fill="#ECECEC"/>
<rect x="520" y="270.786" width="7.08185" height="7.0841" rx="3.54093" fill="#ECECEC"/>
<rect x="173" y="307.623" width="31.6323" height="7.0841" rx="3.54205" fill="#ECECEC"/>
<rect x="303" y="307.623" width="38.7141" height="7.0841" rx="3.54205" fill="#ECECEC"/>
<rect x="237" y="307.623" width="27.8553" height="7.0841" rx="3.54205" fill="#ECECEC"/>
<rect x="381" y="307.623" width="40.1305" height="7.0841" rx="3.54205" fill="#ECECEC"/>
<rect x="461" y="307.623" width="40.1305" height="7.0841" rx="3.54205" fill="#ECECEC"/>
<rect x="520" y="307.623" width="7.08185" height="7.0841" rx="3.54093" fill="#ECECEC"/>
<rect x="146.118" y="223.204" width="397.764" height="0.236137" rx="0.118068" fill="white" stroke="#DFDFDF" stroke-width="0.236137"/>
<rect x="207.876" y="199.972" width="46.6845" height="15.0573" rx="3.5" fill="white" stroke="#CFCFCF"/>
<rect x="266.891" y="199.972" width="46.6845" height="15.0573" rx="3.5" fill="white" stroke="#CFCFCF"/>
<rect x="271.585" y="203.723" width="29.2717" height="7.0841" rx="3.54205" fill="#ECECEC"/>
<rect x="212.57" y="203.723" width="29.2717" height="7.0841" rx="3.54205" fill="#ECECEC"/>
<path d="M259.214 214.092V212.92H262.226V214.092H259.214Z" fill="#CFCFCF"/>
<rect x="154.054" y="199.972" width="45.2681" height="15.0573" rx="3.5" fill="white" stroke="#CFCFCF"/>
<rect x="158.747" y="204.667" width="29.2717" height="7.0841" rx="3.54205" fill="#ECECEC"/>
<path d="M192.127 207.401L193.212 208.486L194.297 207.401L194.629 207.733L193.212 209.15L191.795 207.733L192.127 207.401Z" fill="#CFCFCF"/>
<rect x="322.13" y="199.972" width="83.5101" height="15.0573" rx="3.5" fill="white" stroke="#CFCFCF"/>
<path fill-rule="evenodd" clip-rule="evenodd" d="M330.412 207.875H330.676L332.345 209.547L331.846 210.046L330.174 208.377V208.112L330.084 208.019C329.703 208.347 329.208 208.544 328.669 208.544C327.469 208.544 326.496 207.57 326.496 206.369C326.496 205.169 327.469 204.195 328.669 204.195C329.87 204.195 330.843 205.169 330.843 206.369C330.843 206.908 330.646 207.403 330.318 207.785L330.412 207.875ZM327.165 206.369C327.165 207.202 327.837 207.875 328.67 207.875C329.503 207.875 330.175 207.202 330.175 206.369C330.175 205.536 329.503 204.864 328.67 204.864C327.837 204.864 327.165 205.536 327.165 206.369Z" fill="#B1B1B1"/>
<path d="M306.758 206.789H306.282V207.265H306.758V206.789ZM307.699 206.789H307.234V207.265H307.699V206.789ZM308.65 206.789H308.174V207.265H308.65V206.789ZM309.115 205.14H308.883V204.664H308.407V205.14H306.526V204.664H306.05V205.14H305.817C305.677 205.14 305.563 205.188 305.474 205.283C305.386 205.372 305.342 205.483 305.342 205.616V208.914C305.342 209.047 305.386 209.161 305.474 209.257C305.57 209.346 305.685 209.39 305.817 209.39H309.115C309.248 209.39 309.358 209.346 309.447 209.257C309.543 209.161 309.591 209.047 309.591 208.914V205.616C309.591 205.483 309.543 205.372 309.447 205.283C309.358 205.188 309.248 205.14 309.115 205.14ZM309.115 208.914H305.817V206.324H309.115V208.914Z" fill="#CFCFCF"/>
<path d="M247.742 206.789H247.267V207.265H247.742V206.789ZM248.683 206.789H248.218V207.265H248.683V206.789ZM249.635 206.789H249.159V207.265H249.635V206.789ZM250.099 205.14H249.867V204.664H249.391V205.14H247.51V204.664H247.034V205.14H246.802C246.662 205.14 246.547 205.188 246.459 205.283C246.37 205.372 246.326 205.483 246.326 205.616V208.914C246.326 209.047 246.37 209.161 246.459 209.257C246.555 209.346 246.669 209.39 246.802 209.39H250.099C250.232 209.39 250.343 209.346 250.431 209.257C250.527 209.161 250.575 209.047 250.575 208.914V205.616C250.575 205.483 250.527 205.372 250.431 205.283C250.343 205.188 250.232 205.14 250.099 205.14ZM250.099 208.914H246.802V206.324H250.099V208.914Z" fill="#CFCFCF"/>
<rect x="153.672" y="245.873" width="382.656" height="0.236137" rx="0.118068" fill="white" stroke="#DFDFDF" stroke-width="0.236137"/>
<rect x="482" y="199.763" width="46.7402" height="16.0573" rx="4" fill="#4573FF"/>
<path d="M505.893 209.763H503.649V205.797H505.893V206.345H504.298V207.425H505.793V207.967H504.298V209.213H505.893V209.763ZM507.353 208.231L506.346 206.763H507.073L507.757 207.813L508.446 206.763H509.168L508.158 208.231L509.219 209.763H508.498L507.757 208.64L507.019 209.763H506.297L507.353 208.231ZM511.268 209.818C510.888 209.818 510.593 209.681 510.383 209.408H510.345C510.37 209.661 510.383 209.815 510.383 209.869V211.098H509.746V206.763H510.261C510.276 206.819 510.305 206.953 510.351 207.164H510.383C510.582 206.861 510.881 206.709 511.278 206.709C511.653 206.709 511.944 206.844 512.152 207.116C512.362 207.387 512.467 207.768 512.467 208.258C512.467 208.748 512.36 209.13 512.147 209.405C511.935 209.68 511.642 209.818 511.268 209.818ZM511.113 207.229C510.86 207.229 510.674 207.304 510.557 207.452C510.441 207.6 510.383 207.837 510.383 208.163V208.258C510.383 208.623 510.441 208.888 510.557 209.053C510.673 209.215 510.862 209.297 511.124 209.297C511.344 209.297 511.514 209.206 511.634 209.025C511.753 208.845 511.813 208.587 511.813 208.252C511.813 207.916 511.753 207.662 511.634 207.49C511.516 207.316 511.343 207.229 511.113 207.229ZM515.869 208.258C515.869 208.748 515.743 209.13 515.492 209.405C515.24 209.68 514.89 209.818 514.442 209.818C514.161 209.818 513.914 209.754 513.698 209.628C513.483 209.501 513.318 209.319 513.202 209.082C513.086 208.846 513.028 208.571 513.028 208.258C513.028 207.771 513.153 207.391 513.403 207.118C513.652 206.845 514.004 206.709 514.458 206.709C514.892 206.709 515.236 206.849 515.489 207.129C515.742 207.408 515.869 207.784 515.869 208.258ZM513.685 208.258C513.685 208.95 513.941 209.297 514.453 209.297C514.959 209.297 515.212 208.95 515.212 208.258C515.212 207.572 514.957 207.229 514.447 207.229C514.18 207.229 513.985 207.318 513.864 207.495C513.745 207.673 513.685 207.927 513.685 208.258ZM518.126 206.709C518.255 206.709 518.36 206.718 518.444 206.736L518.381 207.33C518.291 207.308 518.197 207.297 518.099 207.297C517.844 207.297 517.637 207.38 517.478 207.547C517.32 207.713 517.242 207.929 517.242 208.195V209.763H516.604V206.763H517.103L517.187 207.292H517.22C517.319 207.113 517.449 206.971 517.608 206.866C517.769 206.761 517.942 206.709 518.126 206.709ZM520.12 209.302C520.276 209.302 520.431 209.278 520.587 209.229V209.709C520.516 209.74 520.425 209.765 520.313 209.785C520.202 209.807 520.088 209.818 519.968 209.818C519.364 209.818 519.062 209.499 519.062 208.863V207.246H518.652V206.964L519.092 206.73L519.309 206.095H519.702V206.763H520.557V207.246H519.702V208.852C519.702 209.006 519.74 209.12 519.816 209.194C519.894 209.266 519.995 209.302 520.12 209.302Z" fill="white"/>
<path fill-rule="evenodd" clip-rule="evenodd" d="M497.45 207.11C497.223 205.96 496.213 205.097 495 205.097C494.037 205.097 493.2 205.643 492.783 206.443C491.78 206.55 491 207.4 491 208.43C491 209.533 491.897 210.43 493 210.43H497.333C498.253 210.43 499 209.683 499 208.763C499 207.883 498.317 207.17 497.45 207.11ZM497.333 209.763H493C492.263 209.763 491.667 209.167 491.667 208.43C491.667 207.747 492.177 207.177 492.853 207.107L493.21 207.07L493.377 206.753C493.693 206.143 494.313 205.763 495 205.763C495.873 205.763 496.627 206.383 496.797 207.24L496.897 207.74L497.407 207.777C497.927 207.81 498.333 208.247 498.333 208.763C498.333 209.313 497.883 209.763 497.333 209.763ZM494.517 207.097H495.483V208.097H496.333L495 209.43L493.667 208.097H494.517V207.097Z" fill="white"/>
<rect x="440.133" y="204.195" width="29.2717" height="7.0841" rx="3.54205" fill="#ECECEC"/>
<rect x="428.92" y="199.118" width="0.236137" height="15.8212" rx="0.118068" fill="white" stroke="#CFCFCF" stroke-width="0.236137"/>
<g filter="url(#filter2_d)">
<rect x="146" y="90" width="398" height="58" rx="1.5875" fill="white"/>
</g>
<path d="M159.022 135.523L160.894 137.391L162.766 135.523L163.341 136.098L160.894 138.545L158.447 136.098L159.022 135.523Z" fill="#4573FF"/>
<path d="M170.726 137.923C170.726 138.389 170.557 138.755 170.22 139.02C169.883 139.285 169.419 139.418 168.826 139.418C168.233 139.418 167.748 139.326 167.371 139.142V138.332C167.61 138.444 167.863 138.532 168.131 138.597C168.401 138.662 168.652 138.694 168.883 138.694C169.223 138.694 169.472 138.629 169.632 138.5C169.795 138.371 169.876 138.198 169.876 137.98C169.876 137.784 169.802 137.618 169.654 137.482C169.506 137.346 169.2 137.185 168.736 136.998C168.258 136.805 167.921 136.584 167.725 136.335C167.53 136.087 167.432 135.788 167.432 135.439C167.432 135.002 167.587 134.657 167.898 134.407C168.208 134.156 168.625 134.03 169.149 134.03C169.65 134.03 170.15 134.14 170.647 134.36L170.375 135.059C169.909 134.863 169.493 134.765 169.127 134.765C168.85 134.765 168.64 134.826 168.496 134.948C168.353 135.067 168.281 135.226 168.281 135.425C168.281 135.561 168.31 135.678 168.367 135.776C168.424 135.871 168.519 135.962 168.65 136.048C168.782 136.134 169.018 136.248 169.36 136.389C169.745 136.549 170.027 136.698 170.206 136.837C170.385 136.976 170.517 137.132 170.6 137.307C170.684 137.481 170.726 137.686 170.726 137.923Z" fill="#4573FF"/>
<path d="M173.382 139.418C172.765 139.418 172.283 139.239 171.934 138.88C171.587 138.519 171.414 138.023 171.414 137.393C171.414 136.745 171.575 136.236 171.898 135.866C172.221 135.495 172.664 135.31 173.228 135.31C173.751 135.31 174.165 135.469 174.468 135.787C174.772 136.104 174.923 136.542 174.923 137.099V137.554H172.282C172.293 137.939 172.397 138.235 172.593 138.443C172.789 138.648 173.065 138.751 173.421 138.751C173.656 138.751 173.873 138.73 174.074 138.687C174.277 138.641 174.494 138.567 174.726 138.464V139.149C174.521 139.247 174.313 139.316 174.103 139.357C173.892 139.398 173.652 139.418 173.382 139.418ZM173.228 135.948C172.96 135.948 172.745 136.033 172.583 136.202C172.423 136.372 172.327 136.619 172.296 136.944H174.095C174.091 136.617 174.012 136.37 173.859 136.202C173.706 136.033 173.496 135.948 173.228 135.948Z" fill="#4573FF"/>
<path d="M177.612 139.418C176.995 139.418 176.513 139.239 176.164 138.88C175.817 138.519 175.644 138.023 175.644 137.393C175.644 136.745 175.805 136.236 176.128 135.866C176.45 135.495 176.894 135.31 177.458 135.31C177.981 135.31 178.394 135.469 178.698 135.787C179.001 136.104 179.153 136.542 179.153 137.099V137.554H176.511C176.523 137.939 176.627 138.235 176.823 138.443C177.019 138.648 177.295 138.751 177.651 138.751C177.885 138.751 178.103 138.73 178.304 138.687C178.507 138.641 178.724 138.567 178.956 138.464V139.149C178.751 139.247 178.543 139.316 178.332 139.357C178.122 139.398 177.882 139.418 177.612 139.418ZM177.458 135.948C177.19 135.948 176.975 136.033 176.812 136.202C176.652 136.372 176.557 136.619 176.526 136.944H178.325C178.32 136.617 178.242 136.37 178.089 136.202C177.936 136.033 177.725 135.948 177.458 135.948Z" fill="#4573FF"/>
<path d="M184.043 135.31C184.537 135.31 184.922 135.489 185.197 135.848C185.474 136.206 185.613 136.709 185.613 137.357C185.613 138.007 185.473 138.513 185.193 138.877C184.914 139.237 184.525 139.418 184.028 139.418C183.526 139.418 183.137 139.237 182.86 138.877H182.802L182.648 139.346H182.017V133.769H182.86V135.095C182.86 135.193 182.855 135.339 182.845 135.532C182.836 135.726 182.829 135.849 182.824 135.901H182.86C183.127 135.507 183.522 135.31 184.043 135.31ZM183.824 135.998C183.485 135.998 183.24 136.099 183.089 136.299C182.941 136.498 182.864 136.831 182.86 137.299V137.357C182.86 137.839 182.936 138.19 183.089 138.407C183.242 138.622 183.492 138.73 183.838 138.73C184.137 138.73 184.363 138.611 184.516 138.375C184.671 138.138 184.749 137.796 184.749 137.35C184.749 136.449 184.441 135.998 183.824 135.998Z" fill="#4573FF"/>
<path d="M188.602 135.31C188.772 135.31 188.912 135.322 189.022 135.346L188.939 136.131C188.82 136.102 188.695 136.088 188.566 136.088C188.229 136.088 187.956 136.198 187.746 136.418C187.538 136.637 187.434 136.923 187.434 137.274V139.346H186.591V135.382H187.251L187.362 136.081H187.405C187.536 135.844 187.707 135.656 187.918 135.518C188.13 135.379 188.358 135.31 188.602 135.31Z" fill="#4573FF"/>
<path d="M191.491 139.418C190.875 139.418 190.392 139.239 190.043 138.88C189.697 138.519 189.523 138.023 189.523 137.393C189.523 136.745 189.685 136.236 190.007 135.866C190.33 135.495 190.773 135.31 191.337 135.31C191.861 135.31 192.274 135.469 192.578 135.787C192.881 136.104 193.033 136.542 193.033 137.099V137.554H190.391C190.403 137.939 190.507 138.235 190.703 138.443C190.899 138.648 191.175 138.751 191.531 138.751C191.765 138.751 191.983 138.73 192.183 138.687C192.386 138.641 192.604 138.567 192.836 138.464V139.149C192.63 139.247 192.422 139.316 192.212 139.357C192.002 139.398 191.761 139.418 191.491 139.418ZM191.337 135.948C191.07 135.948 190.855 136.033 190.692 136.202C190.532 136.372 190.436 136.619 190.405 136.944H192.205C192.2 136.617 192.121 136.37 191.968 136.202C191.815 136.033 191.605 135.948 191.337 135.948Z" fill="#4573FF"/>
<path d="M196.47 139.346L196.302 138.794H196.273C196.082 139.036 195.89 139.2 195.696 139.289C195.503 139.375 195.254 139.418 194.951 139.418C194.561 139.418 194.256 139.313 194.037 139.102C193.819 138.892 193.71 138.595 193.71 138.21C193.71 137.801 193.862 137.493 194.166 137.285C194.469 137.077 194.931 136.964 195.553 136.944L196.237 136.923V136.711C196.237 136.458 196.178 136.269 196.058 136.145C195.941 136.018 195.758 135.955 195.51 135.955C195.307 135.955 195.112 135.985 194.926 136.045C194.739 136.104 194.56 136.175 194.388 136.256L194.115 135.654C194.33 135.542 194.566 135.457 194.822 135.4C195.077 135.34 195.319 135.31 195.546 135.31C196.05 135.31 196.43 135.42 196.686 135.64C196.944 135.86 197.073 136.205 197.073 136.676V139.346H196.47ZM195.216 138.773C195.522 138.773 195.767 138.688 195.951 138.518C196.137 138.346 196.23 138.106 196.23 137.798V137.453L195.721 137.475C195.325 137.489 195.035 137.556 194.854 137.676C194.675 137.793 194.585 137.973 194.585 138.217C194.585 138.394 194.638 138.531 194.743 138.629C194.848 138.725 195.006 138.773 195.216 138.773Z" fill="#4573FF"/>
<path d="M199.062 137.253L199.539 136.658L200.736 135.382H201.708L200.112 137.084L201.808 139.346H200.819L199.546 137.608L199.084 137.988V139.346H198.248V133.769H199.084V136.489L199.041 137.253H199.062Z" fill="#4573FF"/>
<path d="M203.787 139.418C203.292 139.418 202.906 139.239 202.629 138.88C202.352 138.522 202.213 138.019 202.213 137.371C202.213 136.721 202.353 136.216 202.632 135.855C202.914 135.492 203.304 135.31 203.801 135.31C204.322 135.31 204.719 135.502 204.991 135.887H205.034C204.993 135.603 204.973 135.378 204.973 135.213V133.769H205.819V139.346H205.16L205.013 138.826H204.973C204.703 139.221 204.308 139.418 203.787 139.418ZM204.012 138.737C204.359 138.737 204.611 138.64 204.769 138.446C204.927 138.25 205.008 137.934 205.013 137.497V137.378C205.013 136.879 204.931 136.524 204.769 136.314C204.606 136.103 204.352 135.998 204.005 135.998C203.709 135.998 203.481 136.119 203.321 136.36C203.161 136.599 203.08 136.941 203.08 137.385C203.08 137.825 203.158 138.161 203.313 138.393C203.469 138.622 203.702 138.737 204.012 138.737Z" fill="#4573FF"/>
<path d="M210.54 137.357C210.54 138.004 210.374 138.51 210.042 138.873C209.71 139.236 209.247 139.418 208.655 139.418C208.284 139.418 207.957 139.334 207.672 139.167C207.388 139 207.169 138.759 207.016 138.446C206.863 138.133 206.787 137.77 206.787 137.357C206.787 136.714 206.952 136.212 207.282 135.851C207.611 135.49 208.076 135.31 208.676 135.31C209.25 135.31 209.704 135.495 210.038 135.866C210.373 136.234 210.54 136.731 210.54 137.357ZM207.654 137.357C207.654 138.272 207.993 138.73 208.669 138.73C209.338 138.73 209.673 138.272 209.673 137.357C209.673 136.451 209.336 135.998 208.662 135.998C208.308 135.998 208.051 136.115 207.891 136.349C207.733 136.584 207.654 136.919 207.654 137.357Z" fill="#4573FF"/>
<path d="M214.763 139.346L214.25 137.497C214.188 137.301 214.076 136.845 213.913 136.131H213.881C213.742 136.776 213.632 137.234 213.551 137.504L213.024 139.346H212.092L210.981 135.382H211.841L212.347 137.335C212.461 137.818 212.543 138.231 212.59 138.575H212.612C212.636 138.401 212.672 138.201 212.72 137.977C212.77 137.75 212.813 137.58 212.849 137.468L213.451 135.382H214.376L214.96 137.468C214.996 137.585 215.04 137.764 215.093 138.006C215.147 138.247 215.18 138.434 215.189 138.568H215.218C215.254 138.274 215.337 137.863 215.469 137.335L215.982 135.382H216.827L215.709 139.346H214.763Z" fill="#4573FF"/>
<path d="M221 139.346H220.154V136.909C220.154 136.603 220.092 136.375 219.968 136.224C219.846 136.073 219.651 135.998 219.383 135.998C219.027 135.998 218.767 136.103 218.602 136.314C218.437 136.524 218.355 136.876 218.355 137.371V139.346H217.512V135.382H218.172L218.29 135.901H218.333C218.452 135.713 218.622 135.567 218.842 135.464C219.062 135.361 219.306 135.31 219.573 135.31C220.524 135.31 221 135.794 221 136.762V139.346Z" fill="#4573FF"/>
<rect x="474" y="102" width="58" height="17" rx="4" fill="#4573FF"/>
<path d="M493.889 112.221H493.184L492.511 109.856C492.482 109.753 492.446 109.604 492.402 109.411C492.359 109.215 492.333 109.08 492.324 109.004C492.306 109.12 492.276 109.27 492.234 109.454C492.194 109.639 492.161 109.776 492.134 109.867L491.477 112.221H490.772L490.259 110.236L489.738 108.255H490.4L490.967 110.567C491.056 110.937 491.119 111.265 491.157 111.549C491.177 111.395 491.207 111.223 491.247 111.033C491.286 110.843 491.323 110.689 491.355 110.572L492.001 108.255H492.644L493.306 110.583C493.369 110.798 493.436 111.12 493.507 111.549C493.534 111.29 493.599 110.961 493.702 110.561L494.266 108.255H494.923L493.889 112.221Z" fill="white"/>
<path d="M496.057 112.221H495.419V109.221H496.057V112.221ZM495.381 108.426C495.381 108.312 495.412 108.224 495.473 108.163C495.537 108.101 495.626 108.071 495.742 108.071C495.854 108.071 495.941 108.101 496.003 108.163C496.066 108.224 496.097 108.312 496.097 108.426C496.097 108.534 496.066 108.62 496.003 108.684C495.941 108.745 495.854 108.776 495.742 108.776C495.626 108.776 495.537 108.745 495.473 108.684C495.412 108.62 495.381 108.534 495.381 108.426Z" fill="white"/>
<path d="M498.089 111.76C498.244 111.76 498.4 111.736 498.555 111.687V112.167C498.485 112.198 498.394 112.223 498.281 112.243C498.171 112.265 498.056 112.276 497.937 112.276C497.333 112.276 497.031 111.957 497.031 111.321V109.704H496.621V109.422L497.061 109.188L497.278 108.553H497.671V109.221H498.526V109.704H497.671V111.31C497.671 111.464 497.709 111.578 497.785 111.652C497.863 111.724 497.964 111.76 498.089 111.76Z" fill="white"/>
<path d="M501.797 112.221H501.157V110.377C501.157 110.145 501.11 109.972 501.016 109.858C500.924 109.744 500.777 109.687 500.574 109.687C500.306 109.687 500.109 109.768 499.982 109.929C499.858 110.088 499.795 110.356 499.795 110.732V112.221H499.158V108H499.795V109.072C499.795 109.243 499.784 109.427 499.763 109.622H499.803C499.89 109.478 500.011 109.366 500.164 109.286C500.32 109.206 500.501 109.167 500.707 109.167C501.434 109.167 501.797 109.533 501.797 110.265V112.221Z" fill="white"/>
<path d="M503.697 112.276C503.322 112.276 503.03 112.14 502.82 111.869C502.61 111.597 502.506 111.217 502.506 110.727C502.506 110.235 502.611 109.852 502.823 109.579C503.036 109.304 503.331 109.167 503.707 109.167C504.102 109.167 504.402 109.312 504.608 109.603H504.641C504.61 109.388 504.595 109.218 504.595 109.093V108H505.235V112.221H504.736L504.624 111.828H504.595C504.39 112.126 504.091 112.276 503.697 112.276ZM503.868 111.76C504.13 111.76 504.321 111.687 504.44 111.54C504.559 111.392 504.621 111.153 504.624 110.822V110.732C504.624 110.354 504.563 110.085 504.44 109.926C504.317 109.767 504.124 109.687 503.862 109.687C503.638 109.687 503.465 109.779 503.344 109.962C503.223 110.142 503.162 110.401 503.162 110.737C503.162 111.07 503.221 111.324 503.338 111.5C503.456 111.673 503.632 111.76 503.868 111.76Z" fill="white"/>
<path d="M507.668 109.167C507.797 109.167 507.903 109.176 507.986 109.194L507.923 109.788C507.833 109.766 507.739 109.755 507.641 109.755C507.386 109.755 507.179 109.839 507.02 110.005C506.863 110.171 506.784 110.387 506.784 110.653V112.221H506.146V109.221H506.646L506.73 109.75H506.762C506.862 109.571 506.991 109.429 507.15 109.324C507.311 109.219 507.484 109.167 507.668 109.167Z" fill="white"/>
<path d="M510.422 112.221L510.295 111.804H510.273C510.128 111.986 509.983 112.111 509.836 112.178C509.69 112.243 509.502 112.276 509.272 112.276C508.977 112.276 508.746 112.196 508.58 112.037C508.415 111.878 508.333 111.653 508.333 111.361C508.333 111.052 508.448 110.819 508.678 110.661C508.907 110.504 509.257 110.418 509.728 110.404L510.246 110.387V110.227C510.246 110.036 510.201 109.893 510.11 109.799C510.022 109.703 509.883 109.655 509.695 109.655C509.541 109.655 509.394 109.678 509.253 109.723C509.112 109.768 508.976 109.821 508.846 109.883L508.64 109.427C508.802 109.342 508.981 109.278 509.174 109.234C509.368 109.189 509.55 109.167 509.722 109.167C510.104 109.167 510.391 109.25 510.585 109.416C510.78 109.583 510.878 109.844 510.878 110.2V112.221H510.422ZM509.473 111.787C509.704 111.787 509.89 111.723 510.029 111.595C510.17 111.465 510.24 111.283 510.24 111.049V110.789L509.855 110.805C509.555 110.816 509.336 110.867 509.199 110.957C509.063 111.046 508.995 111.182 508.995 111.367C508.995 111.501 509.035 111.605 509.114 111.679C509.194 111.751 509.313 111.787 509.473 111.787Z" fill="white"/>
<path d="M514.229 112.221L513.841 110.822C513.794 110.673 513.709 110.329 513.586 109.788H513.561C513.456 110.276 513.373 110.623 513.312 110.827L512.913 112.221H512.207L511.366 109.221H512.017L512.4 110.699C512.487 111.065 512.548 111.378 512.584 111.638H512.601C512.619 111.506 512.646 111.355 512.682 111.185C512.72 111.013 512.753 110.885 512.78 110.8L513.236 109.221H513.936L514.378 110.8C514.405 110.888 514.438 111.024 514.478 111.207C514.52 111.389 514.544 111.531 514.551 111.633H514.573C514.6 111.41 514.664 111.099 514.763 110.699L515.151 109.221H515.791L514.945 112.221H514.229Z" fill="white"/>
<path d="M160.428 104.757L160.007 103.373H157.887L157.466 104.757H156.138L158.19 98.9192H159.697L161.757 104.757H160.428ZM159.713 102.339C159.323 101.085 159.103 100.376 159.052 100.212C159.005 100.047 158.97 99.9173 158.949 99.8219C158.862 100.161 158.611 101 158.197 102.339H159.713Z" fill="#B1B1B1"/>
<path d="M163.455 104.757L161.761 100.311H163.029L163.888 102.844C163.984 103.165 164.043 103.468 164.067 103.755H164.091C164.104 103.5 164.164 103.197 164.27 102.844L165.125 100.311H166.393L164.699 104.757H163.455Z" fill="#B1B1B1"/>
<path d="M169.857 104.757L169.622 104.152H169.591C169.387 104.41 169.176 104.589 168.958 104.689C168.744 104.787 168.463 104.836 168.115 104.836C167.688 104.836 167.352 104.714 167.105 104.471C166.861 104.227 166.739 103.879 166.739 103.429C166.739 102.957 166.904 102.61 167.232 102.387C167.564 102.161 168.062 102.037 168.728 102.013L169.499 101.989V101.794C169.499 101.344 169.269 101.118 168.807 101.118C168.452 101.118 168.034 101.226 167.555 101.44L167.153 100.621C167.665 100.353 168.232 100.22 168.855 100.22C169.451 100.22 169.909 100.349 170.227 100.609C170.545 100.869 170.704 101.264 170.704 101.794V104.757H169.857ZM169.499 102.697L169.03 102.713C168.677 102.724 168.415 102.787 168.243 102.904C168.07 103.02 167.984 103.198 167.984 103.437C167.984 103.779 168.18 103.95 168.573 103.95C168.854 103.95 169.078 103.869 169.245 103.707C169.414 103.545 169.499 103.331 169.499 103.063V102.697Z" fill="#B1B1B1"/>
<path d="M171.905 99.1617C171.905 98.7667 172.125 98.5692 172.565 98.5692C173.005 98.5692 173.225 98.7667 173.225 99.1617C173.225 99.35 173.17 99.4971 173.058 99.6031C172.95 99.7065 172.785 99.7582 172.565 99.7582C172.125 99.7582 171.905 99.5594 171.905 99.1617ZM173.17 104.757H171.957V100.311H173.17V104.757Z" fill="#B1B1B1"/>
<path d="M175.659 104.757H174.446V98.5692H175.659V104.757Z" fill="#B1B1B1"/>
<path d="M179.759 104.757L179.524 104.152H179.493C179.288 104.41 179.078 104.589 178.86 104.689C178.646 104.787 178.365 104.836 178.017 104.836C177.59 104.836 177.254 104.714 177.007 104.471C176.763 104.227 176.641 103.879 176.641 103.429C176.641 102.957 176.806 102.61 177.134 102.387C177.466 102.161 177.964 102.037 178.63 102.013L179.401 101.989V101.794C179.401 101.344 179.17 101.118 178.709 101.118C178.354 101.118 177.936 101.226 177.457 101.44L177.055 100.621C177.567 100.353 178.134 100.22 178.757 100.22C179.353 100.22 179.811 100.349 180.129 100.609C180.447 100.869 180.606 101.264 180.606 101.794V104.757H179.759ZM179.401 102.697L178.932 102.713C178.579 102.724 178.317 102.787 178.144 102.904C177.972 103.02 177.886 103.198 177.886 103.437C177.886 103.779 178.082 103.95 178.475 103.95C178.756 103.95 178.98 103.869 179.147 103.707C179.316 103.545 179.401 103.331 179.401 103.063V102.697Z" fill="#B1B1B1"/>
<path d="M184.332 100.227C184.857 100.227 185.268 100.433 185.565 100.844C185.862 101.252 186.01 101.813 186.01 102.526C186.01 103.26 185.857 103.829 185.549 104.232C185.244 104.635 184.828 104.836 184.3 104.836C183.778 104.836 183.368 104.647 183.072 104.268H182.988L182.785 104.757H181.859V98.5692H183.072V100.009C183.072 100.192 183.056 100.485 183.024 100.888H183.072C183.355 100.448 183.775 100.227 184.332 100.227ZM183.942 101.198C183.643 101.198 183.424 101.291 183.286 101.476C183.148 101.659 183.077 101.963 183.072 102.387V102.518C183.072 102.995 183.142 103.337 183.282 103.544C183.425 103.751 183.651 103.854 183.958 103.854C184.208 103.854 184.405 103.74 184.551 103.512C184.699 103.282 184.774 102.948 184.774 102.51C184.774 102.073 184.699 101.745 184.551 101.528C184.402 101.308 184.2 101.198 183.942 101.198Z" fill="#B1B1B1"/>
<path d="M188.225 104.757H187.012V98.5692H188.225V104.757Z" fill="#B1B1B1"/>
<path d="M191.343 101.09C191.086 101.09 190.884 101.173 190.739 101.337C190.593 101.499 190.509 101.729 190.488 102.029H192.19C192.185 101.729 192.107 101.499 191.955 101.337C191.804 101.173 191.6 101.09 191.343 101.09ZM191.514 104.836C190.798 104.836 190.239 104.639 189.836 104.244C189.433 103.849 189.231 103.29 189.231 102.566C189.231 101.821 189.417 101.246 189.788 100.84C190.162 100.432 190.678 100.227 191.335 100.227C191.963 100.227 192.453 100.406 192.802 100.764C193.152 101.122 193.327 101.617 193.327 102.248V102.836H190.46C190.473 103.181 190.576 103.45 190.766 103.643C190.957 103.837 191.225 103.934 191.57 103.934C191.837 103.934 192.091 103.906 192.329 103.85C192.568 103.795 192.817 103.706 193.077 103.584V104.522C192.865 104.628 192.638 104.707 192.397 104.757C192.156 104.81 191.861 104.836 191.514 104.836Z" fill="#B1B1B1"/>
<path d="M196.525 98.943H198.334C199.159 98.943 199.756 99.061 200.128 99.2969C200.501 99.5302 200.688 99.9027 200.688 100.414C200.688 100.762 200.606 101.047 200.442 101.269C200.28 101.492 200.064 101.626 199.793 101.671V101.711C200.162 101.793 200.427 101.947 200.589 102.172C200.753 102.397 200.835 102.697 200.835 103.071C200.835 103.601 200.643 104.015 200.259 104.312C199.877 104.608 199.357 104.757 198.7 104.757H196.525V98.943ZM197.757 101.246H198.473C198.807 101.246 199.049 101.194 199.197 101.09C199.348 100.987 199.424 100.816 199.424 100.577C199.424 100.355 199.341 100.196 199.177 100.1C199.015 100.002 198.758 99.9531 198.406 99.9531H197.757V101.246ZM197.757 102.224V103.739H198.561C198.9 103.739 199.151 103.674 199.312 103.544C199.474 103.414 199.555 103.215 199.555 102.948C199.555 102.465 199.21 102.224 198.521 102.224H197.757Z" fill="#B1B1B1"/>
<path d="M204.725 104.757L204.49 104.152H204.458C204.254 104.41 204.043 104.589 203.826 104.689C203.611 104.787 203.33 104.836 202.983 104.836C202.556 104.836 202.219 104.714 201.973 104.471C201.729 104.227 201.607 103.879 201.607 103.429C201.607 102.957 201.771 102.61 202.1 102.387C202.431 102.161 202.93 102.037 203.595 102.013L204.367 101.989V101.794C204.367 101.344 204.136 101.118 203.675 101.118C203.319 101.118 202.902 101.226 202.422 101.44L202.02 100.621C202.532 100.353 203.099 100.22 203.722 100.22C204.319 100.22 204.776 100.349 205.094 100.609C205.413 100.869 205.572 101.264 205.572 101.794V104.757H204.725ZM204.367 102.697L203.897 102.713C203.545 102.724 203.282 102.787 203.11 102.904C202.938 103.02 202.852 103.198 202.852 103.437C202.852 103.779 203.048 103.95 203.44 103.95C203.721 103.95 203.945 103.869 204.112 103.707C204.282 103.545 204.367 103.331 204.367 103.063V102.697Z" fill="#B1B1B1"/>
<path d="M208.037 104.757H206.824V98.5692H208.037V104.757Z" fill="#B1B1B1"/>
<path d="M212.137 104.757L211.902 104.152H211.871C211.666 104.41 211.456 104.589 211.238 104.689C211.024 104.787 210.743 104.836 210.395 104.836C209.968 104.836 209.632 104.714 209.385 104.471C209.141 104.227 209.019 103.879 209.019 103.429C209.019 102.957 209.184 102.61 209.512 102.387C209.844 102.161 210.342 102.037 211.008 102.013L211.779 101.989V101.794C211.779 101.344 211.549 101.118 211.087 101.118C210.732 101.118 210.314 101.226 209.835 101.44L209.433 100.621C209.945 100.353 210.512 100.22 211.135 100.22C211.731 100.22 212.189 100.349 212.507 100.609C212.825 100.869 212.984 101.264 212.984 101.794V104.757H212.137ZM211.779 102.697L211.31 102.713C210.957 102.724 210.695 102.787 210.523 102.904C210.35 103.02 210.264 103.198 210.264 103.437C210.264 103.779 210.46 103.95 210.853 103.95C211.134 103.95 211.358 103.869 211.525 103.707C211.694 103.545 211.779 103.331 211.779 103.063V102.697Z" fill="#B1B1B1"/>
<path d="M218.341 104.757H217.128V102.16C217.128 101.839 217.071 101.599 216.957 101.44C216.843 101.279 216.661 101.198 216.412 101.198C216.073 101.198 215.827 101.312 215.676 101.54C215.525 101.765 215.45 102.14 215.45 102.665V104.757H214.237V100.311H215.163L215.326 100.88H215.394C215.529 100.665 215.715 100.503 215.951 100.395C216.189 100.283 216.46 100.227 216.762 100.227C217.279 100.227 217.671 100.368 217.939 100.649C218.207 100.927 218.341 101.33 218.341 101.858V104.757Z" fill="#B1B1B1"/>
<path d="M221.395 104.836C220.011 104.836 219.319 104.077 219.319 102.558C219.319 101.802 219.507 101.226 219.884 100.828C220.26 100.428 220.8 100.227 221.502 100.227C222.016 100.227 222.478 100.328 222.886 100.53L222.528 101.468C222.337 101.391 222.16 101.329 221.995 101.281C221.831 101.231 221.666 101.206 221.502 101.206C220.871 101.206 220.556 101.654 220.556 102.55C220.556 103.419 220.871 103.854 221.502 103.854C221.735 103.854 221.951 103.824 222.15 103.763C222.349 103.699 222.548 103.601 222.747 103.468V104.506C222.551 104.631 222.352 104.717 222.15 104.765C221.951 104.813 221.7 104.836 221.395 104.836Z" fill="#B1B1B1"/>
<path d="M225.622 101.09C225.365 101.09 225.163 101.173 225.018 101.337C224.872 101.499 224.788 101.729 224.767 102.029H226.469C226.464 101.729 226.385 101.499 226.234 101.337C226.083 101.173 225.879 101.09 225.622 101.09ZM225.793 104.836C225.077 104.836 224.518 104.639 224.115 104.244C223.712 103.849 223.51 103.29 223.51 102.566C223.51 101.821 223.696 101.246 224.067 100.84C224.441 100.432 224.957 100.227 225.614 100.227C226.242 100.227 226.731 100.406 227.081 100.764C227.431 101.122 227.606 101.617 227.606 102.248V102.836H224.739C224.752 103.181 224.854 103.45 225.045 103.643C225.236 103.837 225.504 103.934 225.849 103.934C226.116 103.934 226.37 103.906 226.608 103.85C226.847 103.795 227.096 103.706 227.356 103.584V104.522C227.144 104.628 226.917 104.707 226.676 104.757C226.435 104.81 226.14 104.836 225.793 104.836Z" fill="#B1B1B1"/>
<circle cx="235.035" cy="101.378" r="2.54507" fill="#B1B1B1"/>
<path d="M235.327 102.715H234.86V100.516H235.327V102.715ZM234.832 99.9332C234.832 99.8497 234.854 99.7854 234.899 99.7403C234.946 99.6952 235.011 99.6727 235.096 99.6727C235.178 99.6727 235.242 99.6952 235.287 99.7403C235.334 99.7854 235.357 99.8497 235.357 99.9332C235.357 100.013 235.334 100.076 235.287 100.122C235.242 100.167 235.178 100.19 235.096 100.19C235.011 100.19 234.946 100.167 234.899 100.122C234.854 100.076 234.832 100.013 234.832 99.9332Z" fill="white"/>
<path d="M157.235 121.839V113.118H159.085V121.839H157.235Z" fill="#B1B1B1"/>
<path d="M168.515 117.395C168.515 118.831 168.106 119.93 167.286 120.694C166.471 121.457 165.292 121.839 163.749 121.839H161.28V113.118H164.018C165.441 113.118 166.547 113.494 167.334 114.245C168.121 114.997 168.515 116.047 168.515 117.395ZM166.594 117.443C166.594 115.57 165.767 114.633 164.113 114.633H163.129V120.312H163.922C165.704 120.312 166.594 119.356 166.594 117.443Z" fill="#B1B1B1"/>
<path d="M172.172 116.989H172.768C173.353 116.989 173.784 116.892 174.063 116.697C174.341 116.502 174.48 116.196 174.48 115.778C174.48 115.365 174.337 115.071 174.051 114.896C173.768 114.721 173.329 114.633 172.732 114.633H172.172V116.989ZM172.172 118.493V121.839H170.323V113.118H172.864C174.049 113.118 174.926 113.335 175.494 113.768C176.063 114.198 176.347 114.852 176.347 115.731C176.347 116.244 176.206 116.701 175.924 117.103C175.641 117.5 175.242 117.813 174.725 118.039C176.037 120 176.892 121.266 177.29 121.839H175.238L173.156 118.493H172.172Z" fill="#B1B1B1"/>
<path d="M189.882 115.069C189.882 115.613 189.717 116.077 189.387 116.458C189.057 116.84 188.593 117.103 187.997 117.246V117.282C188.701 117.369 189.234 117.584 189.596 117.926C189.957 118.264 190.138 118.721 190.138 119.298C190.138 120.137 189.834 120.791 189.226 121.26C188.617 121.726 187.748 121.958 186.619 121.958C185.673 121.958 184.833 121.801 184.102 121.487V119.918C184.44 120.089 184.812 120.228 185.217 120.336C185.623 120.443 186.024 120.497 186.422 120.497C187.031 120.497 187.48 120.393 187.77 120.187C188.061 119.98 188.206 119.648 188.206 119.19C188.206 118.781 188.039 118.491 187.705 118.32C187.371 118.149 186.838 118.063 186.106 118.063H185.444V116.649H186.118C186.794 116.649 187.287 116.562 187.597 116.387C187.911 116.208 188.068 115.904 188.068 115.474C188.068 114.814 187.655 114.484 186.828 114.484C186.541 114.484 186.249 114.532 185.951 114.627C185.657 114.723 185.329 114.888 184.967 115.122L184.114 113.852C184.909 113.279 185.857 112.993 186.959 112.993C187.862 112.993 188.574 113.176 189.094 113.542C189.619 113.907 189.882 114.416 189.882 115.069Z" fill="#B1B1B1"/>
<path d="M197.398 120.032H196.348V121.839H194.546V120.032H190.824V118.749L194.648 113.118H196.348V118.6H197.398V120.032ZM194.546 118.6V117.121C194.546 116.874 194.556 116.516 194.576 116.047C194.596 115.578 194.612 115.305 194.624 115.23H194.576C194.429 115.556 194.252 115.874 194.045 116.184L192.447 118.6H194.546Z" fill="#B1B1B1"/>
<path d="M204.144 116.84C204.144 118.558 203.782 119.841 203.059 120.688C202.335 121.535 201.239 121.958 199.772 121.958C199.255 121.958 198.863 121.93 198.597 121.875V120.395C198.931 120.479 199.281 120.521 199.647 120.521C200.263 120.521 200.77 120.431 201.168 120.252C201.565 120.069 201.87 119.785 202.08 119.399C202.291 119.01 202.412 118.475 202.444 117.795H202.373C202.142 118.168 201.875 118.431 201.573 118.582C201.271 118.733 200.893 118.809 200.44 118.809C199.68 118.809 199.082 118.566 198.644 118.081C198.207 117.592 197.988 116.914 197.988 116.047C197.988 115.112 198.253 114.375 198.782 113.834C199.315 113.289 200.038 113.017 200.953 113.017C201.597 113.017 202.16 113.168 202.641 113.47C203.126 113.772 203.498 114.212 203.756 114.788C204.015 115.361 204.144 116.045 204.144 116.84ZM200.989 114.496C200.607 114.496 200.309 114.627 200.094 114.89C199.879 115.152 199.772 115.53 199.772 116.023C199.772 116.445 199.869 116.779 200.064 117.025C200.259 117.272 200.555 117.395 200.953 117.395C201.327 117.395 201.647 117.274 201.913 117.031C202.18 116.785 202.313 116.502 202.313 116.184C202.313 115.711 202.188 115.311 201.937 114.985C201.691 114.659 201.374 114.496 200.989 114.496Z" fill="#B1B1B1"/>
<path d="M205.272 120.986C205.272 120.652 205.361 120.399 205.54 120.228C205.719 120.057 205.979 119.972 206.321 119.972C206.651 119.972 206.906 120.059 207.085 120.234C207.268 120.409 207.359 120.66 207.359 120.986C207.359 121.3 207.268 121.549 207.085 121.732C206.902 121.911 206.647 122 206.321 122C205.987 122 205.729 121.913 205.546 121.738C205.363 121.559 205.272 121.308 205.272 120.986Z" fill="#B1B1B1"/>
<path d="M214.607 116.84C214.607 118.558 214.245 119.841 213.521 120.688C212.797 121.535 211.702 121.958 210.234 121.958C209.717 121.958 209.326 121.93 209.059 121.875V120.395C209.393 120.479 209.743 120.521 210.109 120.521C210.726 120.521 211.233 120.431 211.63 120.252C212.028 120.069 212.332 119.785 212.543 119.399C212.754 119.01 212.875 118.475 212.907 117.795H212.835C212.605 118.168 212.338 118.431 212.036 118.582C211.734 118.733 211.356 118.809 210.903 118.809C210.143 118.809 209.544 118.566 209.107 118.081C208.67 117.592 208.451 116.914 208.451 116.047C208.451 115.112 208.715 114.375 209.244 113.834C209.777 113.289 210.501 113.017 211.416 113.017C212.06 113.017 212.622 113.168 213.104 113.47C213.589 113.772 213.961 114.212 214.219 114.788C214.478 115.361 214.607 116.045 214.607 116.84ZM211.451 114.496C211.07 114.496 210.771 114.627 210.557 114.89C210.342 115.152 210.234 115.53 210.234 116.023C210.234 116.445 210.332 116.779 210.527 117.025C210.722 117.272 211.018 117.395 211.416 117.395C211.789 117.395 212.109 117.274 212.376 117.031C212.642 116.785 212.776 116.502 212.776 116.184C212.776 115.711 212.65 115.311 212.4 114.985C212.153 114.659 211.837 114.496 211.451 114.496Z" fill="#B1B1B1"/>
<path d="M221.574 117.479C221.574 119.002 221.323 120.129 220.822 120.861C220.325 121.592 219.558 121.958 218.52 121.958C217.514 121.958 216.754 121.58 216.241 120.825C215.732 120.069 215.478 118.954 215.478 117.479C215.478 115.94 215.726 114.806 216.223 114.078C216.72 113.347 217.486 112.981 218.52 112.981C219.526 112.981 220.285 113.363 220.798 114.126C221.315 114.89 221.574 116.007 221.574 117.479ZM217.309 117.479C217.309 118.548 217.4 119.316 217.583 119.781C217.77 120.242 218.082 120.473 218.52 120.473C218.949 120.473 219.26 120.238 219.45 119.769C219.641 119.3 219.737 118.536 219.737 117.479C219.737 116.409 219.639 115.641 219.444 115.176C219.254 114.707 218.945 114.472 218.52 114.472C218.086 114.472 217.776 114.707 217.589 115.176C217.402 115.641 217.309 116.409 217.309 117.479Z" fill="#B1B1B1"/>
<path d="M228.553 117.479C228.553 119.002 228.302 120.129 227.801 120.861C227.304 121.592 226.537 121.958 225.499 121.958C224.493 121.958 223.733 121.58 223.22 120.825C222.711 120.069 222.457 118.954 222.457 117.479C222.457 115.94 222.705 114.806 223.202 114.078C223.699 113.347 224.465 112.981 225.499 112.981C226.505 112.981 227.265 113.363 227.778 114.126C228.295 114.89 228.553 116.007 228.553 117.479ZM224.288 117.479C224.288 118.548 224.379 119.316 224.562 119.781C224.749 120.242 225.061 120.473 225.499 120.473C225.928 120.473 226.239 120.238 226.429 119.769C226.62 119.3 226.716 118.536 226.716 117.479C226.716 116.409 226.618 115.641 226.423 115.176C226.233 114.707 225.924 114.472 225.499 114.472C225.065 114.472 224.755 114.707 224.568 115.176C224.381 115.641 224.288 116.409 224.288 117.479Z" fill="#B1B1B1"/>
<path d="M229.692 120.986C229.692 120.652 229.782 120.399 229.961 120.228C230.14 120.057 230.4 119.972 230.742 119.972C231.072 119.972 231.327 120.059 231.506 120.234C231.689 120.409 231.78 120.66 231.78 120.986C231.78 121.3 231.689 121.549 231.506 121.732C231.323 121.911 231.068 122 230.742 122C230.408 122 230.15 121.913 229.967 121.738C229.784 121.559 229.692 121.308 229.692 120.986Z" fill="#B1B1B1"/>
<path d="M239.016 117.479C239.016 119.002 238.765 120.129 238.264 120.861C237.767 121.592 236.999 121.958 235.962 121.958C234.955 121.958 234.196 121.58 233.683 120.825C233.174 120.069 232.919 118.954 232.919 117.479C232.919 115.94 233.168 114.806 233.665 114.078C234.162 113.347 234.928 112.981 235.962 112.981C236.968 112.981 237.727 113.363 238.24 114.126C238.757 114.89 239.016 116.007 239.016 117.479ZM234.751 117.479C234.751 118.548 234.842 119.316 235.025 119.781C235.212 120.242 235.524 120.473 235.962 120.473C236.391 120.473 236.701 120.238 236.892 119.769C237.083 119.3 237.178 118.536 237.178 117.479C237.178 116.409 237.081 115.641 236.886 115.176C236.695 114.707 236.387 114.472 235.962 114.472C235.528 114.472 235.218 114.707 235.031 115.176C234.844 115.641 234.751 116.409 234.751 117.479Z" fill="#B1B1B1"/>
<path d="M245.995 117.479C245.995 119.002 245.744 120.129 245.243 120.861C244.746 121.592 243.979 121.958 242.941 121.958C241.934 121.958 241.175 121.58 240.662 120.825C240.153 120.069 239.898 118.954 239.898 117.479C239.898 115.94 240.147 114.806 240.644 114.078C241.141 113.347 241.907 112.981 242.941 112.981C243.947 112.981 244.706 113.363 245.219 114.126C245.736 114.89 245.995 116.007 245.995 117.479ZM241.73 117.479C241.73 118.548 241.821 119.316 242.004 119.781C242.191 120.242 242.503 120.473 242.941 120.473C243.37 120.473 243.68 120.238 243.871 119.769C244.062 119.3 244.157 118.536 244.157 117.479C244.157 116.409 244.06 115.641 243.865 115.176C243.674 114.707 243.366 114.472 242.941 114.472C242.507 114.472 242.197 114.707 242.01 115.176C241.823 115.641 241.73 116.409 241.73 117.479Z" fill="#B1B1B1"/>
<path d="M252.974 117.479C252.974 119.002 252.723 120.129 252.222 120.861C251.725 121.592 250.958 121.958 249.92 121.958C248.914 121.958 248.154 121.58 247.641 120.825C247.132 120.069 246.877 118.954 246.877 117.479C246.877 115.94 247.126 114.806 247.623 114.078C248.12 113.347 248.886 112.981 249.92 112.981C250.926 112.981 251.685 113.363 252.198 114.126C252.715 114.89 252.974 116.007 252.974 117.479ZM248.709 117.479C248.709 118.548 248.8 119.316 248.983 119.781C249.17 120.242 249.482 120.473 249.92 120.473C250.349 120.473 250.659 120.238 250.85 119.769C251.041 119.3 251.137 118.536 251.137 117.479C251.137 116.409 251.039 115.641 250.844 115.176C250.653 114.707 250.345 114.472 249.92 114.472C249.486 114.472 249.176 114.707 248.989 115.176C248.802 115.641 248.709 116.409 248.709 117.479Z" fill="#B1B1B1"/>
<rect x="407" y="102" width="57" height="17" rx="4" fill="#4573FF"/>
<path d="M427.886 111.966H427.237V108.556H426.071V108H429.052V108.556H427.886V111.966Z" fill="white"/>
<path d="M432.256 110.461C432.256 110.951 432.131 111.333 431.879 111.608C431.628 111.883 431.278 112.021 430.829 112.021C430.549 112.021 430.301 111.957 430.086 111.831C429.871 111.704 429.705 111.522 429.589 111.285C429.474 111.049 429.416 110.774 429.416 110.461C429.416 109.974 429.541 109.594 429.79 109.321C430.04 109.048 430.392 108.912 430.846 108.912C431.28 108.912 431.623 109.052 431.877 109.332C432.13 109.611 432.256 109.987 432.256 110.461ZM430.072 110.461C430.072 111.153 430.328 111.5 430.84 111.5C431.347 111.5 431.6 111.153 431.6 110.461C431.6 109.775 431.345 109.432 430.835 109.432C430.567 109.432 430.373 109.521 430.251 109.698C430.132 109.876 430.072 110.13 430.072 110.461Z" fill="white"/>
<path d="M434.514 112.021C434.134 112.021 433.839 111.884 433.629 111.611H433.591C433.616 111.864 433.629 112.018 433.629 112.072V113.301H432.992V108.966H433.507C433.522 109.022 433.551 109.156 433.597 109.367H433.629C433.828 109.064 434.127 108.912 434.524 108.912C434.899 108.912 435.19 109.047 435.398 109.319C435.608 109.59 435.713 109.971 435.713 110.461C435.713 110.951 435.606 111.333 435.393 111.608C435.181 111.883 434.888 112.021 434.514 112.021ZM434.359 109.432C434.106 109.432 433.92 109.507 433.803 109.655C433.687 109.803 433.629 110.04 433.629 110.366V110.461C433.629 110.826 433.687 111.091 433.803 111.256C433.919 111.418 434.108 111.5 434.37 111.5C434.59 111.5 434.76 111.409 434.88 111.228C434.999 111.048 435.059 110.79 435.059 110.455C435.059 110.119 434.999 109.865 434.88 109.693C434.762 109.519 434.589 109.432 434.359 109.432Z" fill="white"/>
<path d="M441.074 108V110.567C441.074 110.86 441.01 111.116 440.884 111.337C440.759 111.556 440.577 111.725 440.338 111.844C440.101 111.962 439.818 112.021 439.487 112.021C438.995 112.021 438.612 111.89 438.339 111.63C438.066 111.37 437.929 111.011 437.929 110.556V108H438.58V110.51C438.58 110.837 438.656 111.078 438.808 111.234C438.96 111.389 439.194 111.467 439.508 111.467C440.12 111.467 440.425 111.146 440.425 110.504V108H441.074Z" fill="white"/>
<path d="M443.542 112.021C443.163 112.021 442.868 111.884 442.658 111.611H442.62C442.645 111.864 442.658 112.018 442.658 112.072V113.301H442.02V108.966H442.536C442.55 109.022 442.58 109.156 442.625 109.367H442.658C442.857 109.064 443.155 108.912 443.553 108.912C443.928 108.912 444.219 109.047 444.427 109.319C444.637 109.59 444.742 109.971 444.742 110.461C444.742 110.951 444.635 111.333 444.421 111.608C444.21 111.883 443.917 112.021 443.542 112.021ZM443.388 109.432C443.135 109.432 442.949 109.507 442.832 109.655C442.716 109.803 442.658 110.04 442.658 110.366V110.461C442.658 110.826 442.716 111.091 442.832 111.256C442.947 111.418 443.136 111.5 443.399 111.5C443.619 111.5 443.789 111.409 443.909 111.228C444.028 111.048 444.088 110.79 444.088 110.455C444.088 110.119 444.028 109.865 443.909 109.693C443.791 109.519 443.618 109.432 443.388 109.432Z" fill="white"/>
<g filter="url(#filter3_d)">
<rect x="130" y="48" width="426" height="26" fill="white"/>
</g>
<rect x="462.656" y="51.7782" width="81.2311" height="18.8909" rx="4" fill="white"/>
<g filter="url(#filter4_d)">
<circle cx="532.553" cy="61.2237" r="7.55638" fill="#C4C4C4"/>
</g>
<rect x="377.175" y="56.9732" width="34.0037" height="9.44547" rx="4" fill="#ECECEC"/>
<rect x="418.735" y="56.9732" width="13.2237" height="9.44547" rx="4" fill="#ECECEC"/>
<rect x="488.159" y="54.1396" width="33.0592" height="6.13956" rx="3.06978" fill="#ECECEC"/>
<rect x="464.545" y="62.1682" width="56.6728" height="6.13956" rx="3.06978" fill="#ECECEC"/>
<rect x="335.615" y="56.9732" width="34.0037" height="9.44547" rx="4" fill="#ECECEC"/>
<rect x="146.705" y="55.0841" width="60.451" height="13.2237" rx="4" fill="#ECECEC"/>
<rect x="48" y="101.839" width="78.3974" height="15.585" fill="#78A5ED"/>
<rect x="48" y="48" width="82" height="320" fill="#4573FF"/>
<mask id="mask1" mask-type="alpha" maskUnits="userSpaceOnUse" x="55" y="55" width="13" height="12">
<rect x="55.5564" y="55.5564" width="11.6042" height="11.3346" fill="white"/>
</mask>
<g mask="url(#mask1)">
<path d="M62.3448 63.9423L63.4114 65.7442L63.9268 65.4325L64.1077 64.8357L62.9626 62.8988L62.3448 63.9423Z" fill="#D24D57"/>
<path d="M58.8926 56.8065L58.3892 57.2333L59.7407 59.5152L60.3568 58.4734L59.123 56.3882L58.8926 56.8065Z" fill="#D24D57"/>
<path d="M60.053 62.3838L58.5513 64.9224L58.739 65.5975L59.1997 65.9159L61.3653 62.2538L61.983 61.2087L64.379 57.1516L63.9814 56.6115L63.8465 56.4232L63.2629 56.9515L60.053 62.3838Z" fill="#D24D57"/>
<path d="M58.8448 55.9148L58.2271 56.9615H58.2288L56.3346 60.1719L56.3328 60.1702L55.7168 61.2153L58.8448 66.5159L59.4626 65.4725L56.9506 61.217L59.4626 56.9615H61.2595L61.8773 55.9148H58.8448Z" fill="white"/>
<path d="M63.2561 56.9632L65.7664 61.217L63.2561 65.4708H61.4592L60.8431 66.5159H63.8739L64.4916 65.4708L66.3842 62.2621L67.0019 61.2187L66.3859 60.1669L64.4899 56.9615L63.8756 55.9148L63.2561 56.9632Z" fill="white"/>
</g>
<path fill-rule="evenodd" clip-rule="evenodd" d="M72.3061 59.3163L71.1617 60.9465L70.0131 59.3163H69.0991L70.6947 61.5047L69.0172 63.797H69.9273L71.1614 62.0703L72.3837 63.797H73.2938L71.6164 61.5047L73.212 59.3163H72.3061Z" fill="white"/>
<path fill-rule="evenodd" clip-rule="evenodd" d="M75.7716 59.9038C76.1056 59.9038 76.3652 60.009 76.543 60.2163C76.7149 60.4166 76.8062 60.7075 76.8145 61.0816H74.5999C74.6432 60.7213 74.7628 60.4344 74.9557 60.228C75.1568 60.013 75.4312 59.9038 75.7716 59.9038ZM75.7797 59.2365C75.1662 59.2365 74.6701 59.4526 74.3054 59.8784C73.9431 60.3015 73.7594 60.8781 73.7594 61.5924C73.7594 62.3029 73.9576 62.8671 74.3485 63.2691C74.7402 63.6723 75.2808 63.8767 75.9551 63.8767C76.2596 63.8767 76.5236 63.8541 76.7402 63.8097C76.9565 63.7653 77.1887 63.691 77.4305 63.5891L77.4656 63.5744V62.8614L77.3847 62.8952C76.9235 63.0879 76.4509 63.1855 75.9796 63.1855C75.5417 63.1855 75.1984 63.0575 74.9595 62.8052C74.7285 62.5612 74.6006 62.2006 74.5792 61.7329H77.6573V61.2577C77.6573 60.6565 77.4876 60.1646 77.1532 59.7957C76.8168 59.4246 76.3547 59.2365 75.7797 59.2365Z" fill="white"/>
<path fill-rule="evenodd" clip-rule="evenodd" d="M80.8671 59.2366C80.5524 59.2366 80.2625 59.2981 80.0055 59.4195C79.778 59.5271 79.5928 59.6752 79.4534 59.8611L79.3531 59.3162H78.6958V63.7969H79.4891V61.4491C79.4891 60.897 79.5942 60.4979 79.8013 60.2627C80.0064 60.0299 80.3376 59.9118 80.7855 59.9118C81.1206 59.9118 81.3684 59.9942 81.5221 60.1565C81.6769 60.3204 81.7555 60.5755 81.7555 60.9151V63.7969H82.5487V60.8912C82.5487 60.3199 82.4054 59.8965 82.1229 59.6328C81.841 59.3699 81.4185 59.2366 80.8671 59.2366Z" fill="white"/>
<path fill-rule="evenodd" clip-rule="evenodd" d="M85.5709 63.2094C85.1818 63.2094 84.8956 63.0777 84.6959 62.8066C84.4948 62.5335 84.3928 62.1198 84.3928 61.5766C84.3928 61.0408 84.4957 60.6218 84.6988 60.3313C84.8999 60.0436 85.1825 59.9038 85.5628 59.9038C86.0041 59.9038 86.3284 60.0298 86.5266 60.2785C86.7283 60.5314 86.8305 60.9654 86.8305 61.5685V61.708C86.8305 62.2392 86.73 62.6272 86.5318 62.8614C86.3363 63.0923 86.013 63.2094 85.5709 63.2094ZM86.8306 59.3202L86.8471 59.6289L86.8651 59.8273C86.5344 59.4351 86.0707 59.2365 85.4852 59.2365C84.8874 59.2365 84.4137 59.4448 84.0773 59.8555C83.744 60.2624 83.5751 60.8388 83.5751 61.5685C83.5751 62.2985 83.7435 62.871 84.0756 63.2699C84.4106 63.6726 84.8848 63.8767 85.4852 63.8767C86.0908 63.8767 86.5604 63.6689 86.8826 63.259L86.9651 63.797H87.6238V57.4832H86.8305L86.8306 59.3202Z" fill="white"/>
<path fill-rule="evenodd" clip-rule="evenodd" d="M89.3445 57.6944C89.2155 57.6944 89.1059 57.7351 89.019 57.8155C88.9312 57.8967 88.8867 58.0226 88.8867 58.1894C88.8867 58.3532 88.9309 58.4789 89.0182 58.5625C89.1052 58.6461 89.215 58.6885 89.3445 58.6885C89.4681 58.6885 89.5762 58.6463 89.6659 58.5633C89.7565 58.4795 89.8023 58.3536 89.8023 58.1894C89.8023 58.0249 89.7563 57.8998 89.6656 57.8172C89.5759 57.7357 89.4679 57.6944 89.3445 57.6944Z" fill="white"/>
<path fill-rule="evenodd" clip-rule="evenodd" d="M88.9437 63.797H89.737V59.3163H88.9437V63.797Z" fill="white"/>
<path fill-rule="evenodd" clip-rule="evenodd" d="M93.1548 63.1399C93.0922 63.1578 93.0054 63.1753 92.8969 63.1921C92.7888 63.2088 92.6752 63.2174 92.5592 63.2174C92.3516 63.2174 92.1937 63.1545 92.0764 63.0252C91.9588 62.8959 91.8992 62.7046 91.8992 62.4572V59.9437H93.1965V59.3163H91.8992V58.3041H91.4063L91.1161 59.2519L90.4655 59.5312V59.9437H91.1059V62.4851C91.1059 63.4084 91.5619 63.8766 92.4613 63.8766C92.5773 63.8766 92.7102 63.865 92.856 63.8419C93.0057 63.8184 93.117 63.7888 93.1963 63.7515L93.2291 63.7361V63.1187L93.1548 63.1399Z" fill="white"/>
<rect x="55.5564" y="75.3919" width="20.3078" height="7.55638" rx="3.77819" fill="#7D9DFF"/>
<rect x="71.1414" y="99.4778" width="38.2542" height="7.55638" rx="3.77819" fill="#7D9DFF"/>
<rect x="71.1414" y="118.369" width="38.2542" height="7.55638" rx="3.77819" fill="#7D9DFF"/>
<rect x="71.1414" y="137.26" width="38.2542" height="7.55638" rx="3.77819" fill="#B5C7FF"/>
<rect x="71.1416" y="212.823" width="38.2542" height="7.55638" rx="3.77819" fill="#7D9DFF"/>
<rect x="71.1416" y="164" width="38.2542" height="7.55638" rx="3.77819" fill="#7D9DFF"/>
<rect x="71.1416" y="231.714" width="38.2542" height="7.55638" rx="3.77819" fill="#7D9DFF"/>
<rect x="71.1416" y="182.891" width="38.2542" height="7.55638" rx="3.77819" fill="#7D9DFF"/>
<rect x="71.1416" y="256" width="38.2542" height="7.55638" rx="3.77819" fill="#7D9DFF"/>
<rect x="115.535" y="75.3919" width="7.55638" height="7.55638" rx="3.77819" fill="#7D9DFF"/>
<rect x="55.5564" y="99.4778" width="7.55638" height="7.55638" rx="3.77819" fill="#7D9DFF"/>
<rect x="55.5564" y="118.369" width="7.55638" height="7.55638" rx="3.77819" fill="#7D9DFF"/>
<rect x="55.5564" y="137.26" width="7.55638" height="7.55638" rx="3.77819" fill="#B5C7FF"/>
<rect x="55.5562" y="212.823" width="7.55638" height="7.55638" rx="3.77819" fill="#7D9DFF"/>
<rect x="55.5562" y="164" width="7.55638" height="7.55638" rx="3.77819" fill="#7D9DFF"/>
<rect x="55.5562" y="231.714" width="7.55638" height="7.55638" rx="3.77819" fill="#7D9DFF"/>
<rect x="55.5562" y="182.891" width="7.55638" height="7.55638" rx="3.77819" fill="#7D9DFF"/>
<rect x="55.5562" y="256" width="7.55638" height="7.55638" rx="3.77819" fill="#7D9DFF"/>
</g>
</g>
<defs>
<filter id="filter0_d" x="4" y="8" width="596" height="408" filterUnits="userSpaceOnUse" color-interpolation-filters="sRGB">
<feFlood flood-opacity="0" result="BackgroundImageFix"/>
<feColorMatrix in="SourceAlpha" type="matrix" values="0 0 0 0 0 0 0 0 0 0 0 0 0 0 0 0 0 0 127 0"/>
<feOffset dy="4"/>
<feGaussianBlur stdDeviation="22"/>
<feColorMatrix type="matrix" values="0 0 0 0 0 0 0 0 0 0 0 0 0 0 0 0 0 0 0.15 0"/>
<feBlend mode="normal" in2="BackgroundImageFix" result="effect1_dropShadow"/>
<feBlend mode="normal" in="SourceGraphic" in2="effect1_dropShadow" result="shape"/>
</filter>
<filter id="filter1_d" x="142" y="154" width="406" height="209" filterUnits="userSpaceOnUse" color-interpolation-filters="sRGB">
<feFlood flood-opacity="0" result="BackgroundImageFix"/>
<feColorMatrix in="SourceAlpha" type="matrix" values="0 0 0 0 0 0 0 0 0 0 0 0 0 0 0 0 0 0 127 0"/>
<feOffset dy="2"/>
<feGaussianBlur stdDeviation="2"/>
<feColorMatrix type="matrix" values="0 0 0 0 0 0 0 0 0 0 0 0 0 0 0 0 0 0 0.08 0"/>
<feBlend mode="normal" in2="BackgroundImageFix" result="effect1_dropShadow"/>
<feBlend mode="normal" in="SourceGraphic" in2="effect1_dropShadow" result="shape"/>
</filter>
<filter id="filter2_d" x="144.412" y="89.2063" width="401.175" height="61.175" filterUnits="userSpaceOnUse" color-interpolation-filters="sRGB">
<feFlood flood-opacity="0" result="BackgroundImageFix"/>
<feColorMatrix in="SourceAlpha" type="matrix" values="0 0 0 0 0 0 0 0 0 0 0 0 0 0 0 0 0 0 127 0"/>
<feOffset dy="0.79375"/>
<feGaussianBlur stdDeviation="0.79375"/>
<feColorMatrix type="matrix" values="0 0 0 0 0 0 0 0 0 0 0 0 0 0 0 0 0 0 0.08 0"/>
<feBlend mode="normal" in2="BackgroundImageFix" result="effect1_dropShadow"/>
<feBlend mode="normal" in="SourceGraphic" in2="effect1_dropShadow" result="shape"/>
</filter>
<filter id="filter3_d" x="126" y="46" width="434" height="34" filterUnits="userSpaceOnUse" color-interpolation-filters="sRGB">
<feFlood flood-opacity="0" result="BackgroundImageFix"/>
<feColorMatrix in="SourceAlpha" type="matrix" values="0 0 0 0 0 0 0 0 0 0 0 0 0 0 0 0 0 0 127 0"/>
<feOffset dy="2"/>
<feGaussianBlur stdDeviation="2"/>
<feColorMatrix type="matrix" values="0 0 0 0 0 0 0 0 0 0 0 0 0 0 0 0 0 0 0.08 0"/>
<feBlend mode="normal" in2="BackgroundImageFix" result="effect1_dropShadow"/>
<feBlend mode="normal" in="SourceGraphic" in2="effect1_dropShadow" result="shape"/>
</filter>
<filter id="filter4_d" x="520.996" y="51.6673" width="23.1128" height="23.1128" filterUnits="userSpaceOnUse" color-interpolation-filters="sRGB">
<feFlood flood-opacity="0" result="BackgroundImageFix"/>
<feColorMatrix in="SourceAlpha" type="matrix" values="0 0 0 0 0 0 0 0 0 0 0 0 0 0 0 0 0 0 127 0"/>
<feOffset dy="2"/>
<feGaussianBlur stdDeviation="2"/>
<feColorMatrix type="matrix" values="0 0 0 0 0 0 0 0 0 0 0 0 0 0 0 0 0 0 0.08 0"/>
<feBlend mode="normal" in2="BackgroundImageFix" result="effect1_dropShadow"/>
<feBlend mode="normal" in="SourceGraphic" in2="effect1_dropShadow" result="shape"/>
</filter>
</defs>
</svg>
