<svg width="120" height="101" viewBox="0 0 120 101" fill="none" xmlns="http://www.w3.org/2000/svg">
<path opacity="0.24" d="M18.7469 37.1864C17.8406 41.8047 17.8629 46.6266 16.4147 51.0944C13.806 59.1418 6.6783 65.2489 5.23966 73.6107C4.18945 79.7078 6.65433 86.3129 11.3875 90.0992C15.4556 93.3529 20.721 94.4546 25.8106 95.2089C44.8918 98.0374 64.2927 97.3063 83.5162 95.9152C90.5223 95.4074 97.7699 94.7391 103.903 91.2025C107.8 88.9545 111.143 85.504 112.804 81.2197C114.465 76.9355 114.279 71.801 111.845 67.9336C109.167 63.6858 103.994 61.0011 102.967 56.0403C102.091 51.8123 104.613 47.7481 106.437 43.8575C109.474 37.3766 110.657 29.3986 107.292 23.0947C105.214 19.2058 101.633 16.3805 97.7875 14.4021C87.0248 8.86736 74.3728 9.40165 62.4049 10.5596C45.0709 12.2385 22.8279 16.4285 18.7469 37.1864Z" fill="#7D9DFF"/>
<path d="M62.2759 90.4547C63.7003 91.6392 65.4906 92.341 67.014 92.7518C68.0806 93.0527 69.1729 93.2535 70.2768 93.3516L88.8695 69.4479L89.1844 69.037L77.432 66.3201C75.9086 75.1666 64.6689 86.4123 64.6689 86.4123C64.6689 86.4123 59.235 87.9117 62.2759 90.4547Z" fill="#7D9DFF"/>
<path d="M102.617 54.9756C102.003 53.8269 101.153 52.8209 100.123 52.0235C99.0927 51.2261 97.9059 50.6552 96.64 50.3483C84.8486 47.5084 47.9239 37.2314 45.7828 19.5173C45.7828 19.5173 45.102 14.9231 39.3173 14.9231C33.5325 14.9231 24.3441 69.7088 25.8765 70.8994C27.4089 72.0899 32.6809 69.5379 35.4038 67.0009C38.1267 64.4639 45.7828 59.1739 56.1617 62.4067C60.8309 63.8611 69.3356 65.8343 77.2766 67.5617C82.9743 68.8032 88.3902 69.9187 91.8869 70.6265C93.3383 70.9181 94.8417 70.8111 96.2372 70.3169C97.6328 69.8227 98.8684 68.9597 99.8128 67.8196C101.987 65.2226 104.098 61.2851 103.291 56.2591C103.291 56.268 103.019 55.7253 102.617 54.9756Z" fill="#7D9DFF"/>
<path d="M41.0913 45.293C45.0218 29.9399 44.0148 16.4202 38.842 15.0959C33.6692 13.7716 26.2895 25.1442 22.3589 40.4973C18.4283 55.8505 19.4353 69.3702 24.6081 70.6945C29.7809 72.0188 37.1607 60.6462 41.0913 45.293Z" fill="#B5C7FF"/>
<path d="M35.6058 43.9684C36.7884 39.3491 36.4855 35.2815 34.9291 34.883C33.3728 34.4846 31.1525 37.9062 29.9699 42.5255C28.7873 47.1448 29.0903 51.2124 30.6466 51.6108C32.2029 52.0093 34.4233 48.5876 35.6058 43.9684Z" fill="#7D9DFF"/>
<path d="M85.925 58.2532C85.925 58.2532 83.9188 67.3126 77.2644 67.5495L93.758 71.3011C93.758 71.3011 99.6537 70.9592 100.79 68.5781C101.927 66.1971 107.817 57.9233 99.5488 51.4458L86.2759 47.3644C86.2759 47.3644 87.7513 52.8073 85.925 58.2532Z" fill="url(#paint0_linear)"/>
<path opacity="0.14" d="M85.5251 41.7795H66.8262C65.2554 41.7795 63.9821 43.0529 63.9821 44.6237V49.5008C63.9821 51.0716 65.2554 52.345 66.8262 52.345H85.5251C87.0959 52.345 88.3693 51.0716 88.3693 49.5008V44.6237C88.3693 43.0529 87.0959 41.7795 85.5251 41.7795Z" fill="#4573FF"/>
<path d="M86.4687 40.431H67.7699C66.1991 40.431 64.9257 41.7044 64.9257 43.2752V48.1523C64.9257 49.7231 66.1991 50.9965 67.7699 50.9965H86.4687C88.0395 50.9965 89.3129 49.7231 89.3129 48.1523V43.2752C89.3129 41.7044 88.0395 40.431 86.4687 40.431Z" fill="white"/>
<path opacity="0.11" d="M86.0119 42.7753H68.9076C68.6439 42.7753 68.4302 42.989 68.4302 43.2527V43.5101C68.4302 43.7738 68.6439 43.9875 68.9076 43.9875H86.0119C86.2756 43.9875 86.4894 43.7738 86.4894 43.5101V43.2527C86.4894 42.989 86.2756 42.7753 86.0119 42.7753Z" fill="#4573FF"/>
<path opacity="0.11" d="M86.0119 46.953H68.9076C68.6439 46.953 68.4302 47.1668 68.4302 47.4305V47.6878C68.4302 47.9515 68.6439 48.1653 68.9076 48.1653H86.0119C86.2756 48.1653 86.4894 47.9515 86.4894 47.6878V47.4305C86.4894 47.1668 86.2756 46.953 86.0119 46.953Z" fill="#4573FF"/>
<path opacity="0.14" d="M98.5096 75.4753H85.2774C84.1659 75.4753 83.2648 76.3764 83.2648 77.488V80.9392C83.2648 82.0508 84.1659 82.9519 85.2774 82.9519H98.5096C99.6212 82.9519 100.522 82.0508 100.522 80.9392V77.488C100.522 76.3764 99.6212 75.4753 98.5096 75.4753Z" fill="#4573FF"/>
<path d="M97.1319 74.4591H83.8998C82.7882 74.4591 81.8871 75.3602 81.8871 76.4718V79.923C81.8871 81.0346 82.7882 81.9357 83.8998 81.9357H97.1319C98.2435 81.9357 99.1446 81.0346 99.1446 79.923V76.4718C99.1446 75.3602 98.2435 74.4591 97.1319 74.4591Z" fill="white"/>
<path opacity="0.11" d="M96.9355 76.0864H84.8318C84.6452 76.0864 84.4939 76.2377 84.4939 76.4243V76.6064C84.4939 76.793 84.6452 76.9443 84.8318 76.9443H96.9355C97.1221 76.9443 97.2734 76.793 97.2734 76.6064V76.4243C97.2734 76.2377 97.1221 76.0864 96.9355 76.0864Z" fill="#4573FF"/>
<path opacity="0.11" d="M96.9355 79.0427H84.8318C84.6452 79.0427 84.4939 79.194 84.4939 79.3806V79.5627C84.4939 79.7493 84.6452 79.9006 84.8318 79.9006H96.9355C97.1221 79.9006 97.2734 79.7493 97.2734 79.5627V79.3806C97.2734 79.194 97.1221 79.0427 96.9355 79.0427Z" fill="#4573FF"/>
<path opacity="0.14" d="M109.296 87.1592H91.6242C90.1396 87.1592 88.9362 88.3627 88.9362 89.8472V94.4565C88.9362 95.9411 90.1396 97.1446 91.6242 97.1446H109.296C110.781 97.1446 111.985 95.9411 111.985 94.4565V89.8472C111.985 88.3627 110.781 87.1592 109.296 87.1592Z" fill="#4573FF"/>
<path d="M108.218 85.8018H90.5453C89.0608 85.8018 87.8573 87.0052 87.8573 88.4898V93.0991C87.8573 94.5837 89.0608 95.7871 90.5453 95.7871H108.218C109.702 95.7871 110.906 94.5837 110.906 93.0991V88.4898C110.906 87.0052 109.702 85.8018 108.218 85.8018Z" fill="white"/>
<path opacity="0.11" d="M107.955 87.9752H91.7902C91.541 87.9752 91.339 88.1772 91.339 88.4265V88.6697C91.339 88.9189 91.541 89.1209 91.7902 89.1209H107.955C108.205 89.1209 108.407 88.9189 108.407 88.6697V88.4265C108.407 88.1772 108.205 87.9752 107.955 87.9752Z" fill="#4573FF"/>
<path opacity="0.11" d="M107.955 91.9235H91.7902C91.541 91.9235 91.339 92.1255 91.339 92.3747V92.6179C91.339 92.8672 91.541 93.0692 91.7902 93.0692H107.955C108.205 93.0692 108.407 92.8672 108.407 92.6179V92.3747C108.407 92.1255 108.205 91.9235 107.955 91.9235Z" fill="#4573FF"/>
<path opacity="0.14" d="M37.9078 74.8297H19.2089C17.6381 74.8297 16.3647 76.1031 16.3647 77.6739V82.551C16.3647 84.1218 17.6381 85.3952 19.2089 85.3952H37.9078C39.4786 85.3952 40.752 84.1218 40.752 82.551V77.6739C40.752 76.1031 39.4786 74.8297 37.9078 74.8297Z" fill="#4573FF"/>
<path d="M36.785 73.7518H18.0861C16.5153 73.7518 15.2419 75.0252 15.2419 76.596V81.4731C15.2419 83.0439 16.5153 84.3173 18.0861 84.3173H36.785C38.3558 84.3173 39.6292 83.0439 39.6292 81.4731V76.596C39.6292 75.0252 38.3558 73.7518 36.785 73.7518Z" fill="white"/>
<path opacity="0.11" d="M36.5967 75.9619H19.4925C19.2288 75.9619 19.015 76.1757 19.015 76.4394V76.6967C19.015 76.9604 19.2288 77.1742 19.4925 77.1742H36.5967C36.8604 77.1742 37.0742 76.9604 37.0742 76.6967V76.4394C37.0742 76.1757 36.8604 75.9619 36.5967 75.9619Z" fill="#4573FF"/>
<path opacity="0.11" d="M36.5967 80.1395H19.4925C19.2288 80.1395 19.015 80.3533 19.015 80.617V80.8744C19.015 81.138 19.2288 81.3518 19.4925 81.3518H36.5967C36.8604 81.3518 37.0742 81.138 37.0742 80.8744V80.617C37.0742 80.3533 36.8604 80.1395 36.5967 80.1395Z" fill="#4573FF"/>
<path opacity="0.14" d="M78.7197 3H60.0208C58.45 3 57.1766 4.27339 57.1766 5.84419V10.7213C57.1766 12.2921 58.45 13.5655 60.0208 13.5655H78.7197C80.2905 13.5655 81.5639 12.2921 81.5639 10.7213V5.84419C81.5639 4.27339 80.2905 3 78.7197 3Z" fill="#4573FF"/>
<path d="M77.5853 4.13428H58.8864C57.3156 4.13428 56.0422 5.40766 56.0422 6.97846V11.8555C56.0422 13.4263 57.3156 14.6997 58.8864 14.6997H77.5853C79.1561 14.6997 80.4295 13.4263 80.4295 11.8555V6.97846C80.4295 5.40766 79.1561 4.13428 77.5853 4.13428Z" fill="white"/>
<path opacity="0.11" d="M76.8582 6.52515H59.7539C59.4903 6.52515 59.2765 6.73891 59.2765 7.0026V7.25997C59.2765 7.52366 59.4903 7.73742 59.7539 7.73742H76.8582C77.1219 7.73742 77.3357 7.52366 77.3357 7.25997V7.0026C77.3357 6.73891 77.1219 6.52515 76.8582 6.52515Z" fill="#4573FF"/>
<path opacity="0.11" d="M76.8582 10.703H59.7539C59.4903 10.703 59.2765 10.9168 59.2765 11.1805V11.4378C59.2765 11.7015 59.4903 11.9153 59.7539 11.9153H76.8582C77.1219 11.9153 77.3357 11.7015 77.3357 11.4378V11.1805C77.3357 10.9168 77.1219 10.703 76.8582 10.703Z" fill="#4573FF"/>
<path opacity="0.14" d="M110.983 17.7455H81.0191C78.5007 17.7455 76.4591 19.7871 76.4591 22.3055V30.1182C76.4591 32.6366 78.5007 34.6782 81.0191 34.6782H110.983C113.501 34.6782 115.543 32.6366 115.543 30.1182V22.3055C115.543 19.7871 113.501 17.7455 110.983 17.7455Z" fill="#4573FF"/>
<path d="M109.849 18.8799H79.8849C77.3664 18.8799 75.3248 20.9215 75.3248 23.4399V31.2526C75.3248 33.771 77.3664 35.8126 79.8849 35.8126H109.849C112.367 35.8126 114.409 33.771 114.409 31.2526V23.4399C114.409 20.9215 112.367 18.8799 109.849 18.8799Z" fill="white"/>
<path opacity="0.11" d="M109.086 21.7966H81.0527C80.7179 21.7966 80.4465 22.068 80.4465 22.4028C80.4465 22.7375 80.7179 23.0089 81.0527 23.0089H109.086C109.421 23.0089 109.692 22.7375 109.692 22.4028C109.692 22.068 109.421 21.7966 109.086 21.7966Z" fill="#4573FF"/>
<path opacity="0.11" d="M109.086 25.9762H81.0527C80.7179 25.9762 80.4465 26.2476 80.4465 26.5823C80.4465 26.9171 80.7179 27.1885 81.0527 27.1885H109.086C109.421 27.1885 109.692 26.9171 109.692 26.5823C109.692 26.2476 109.421 25.9762 109.086 25.9762Z" fill="#4573FF"/>
<path opacity="0.11" d="M109.086 30.1541H81.0527C80.7179 30.1541 80.4465 30.4254 80.4465 30.7602C80.4465 31.095 80.7179 31.3663 81.0527 31.3663H109.086C109.421 31.3663 109.692 31.095 109.692 30.7602C109.692 30.4254 109.421 30.1541 109.086 30.1541Z" fill="#4573FF"/>
<path d="M34.9269 11.3418C35.1954 11.8808 39.5074 19.2439 39.5074 19.2439L41.5739 17.806L39.3209 9.45435L34.9269 11.3418Z" fill="url(#paint1_linear)"/>
<path d="M26.2116 20.4153L33.1308 25.6262L31.6929 27.8736L23.3375 25.2681L26.2116 20.4153Z" fill="url(#paint2_linear)"/>
<path d="M21.3606 39.8228L30.3445 38.3849L30.4359 40.9903L21.631 43.9558L21.3606 39.8228Z" fill="url(#paint3_linear)"/>
<defs>
<linearGradient id="paint0_linear" x1="-17795.9" y1="6419.32" x2="-19804.4" y2="9439.46" gradientUnits="userSpaceOnUse">
<stop stop-color="#010101" stop-opacity="0"/>
<stop offset="0.95" stop-color="#010101"/>
</linearGradient>
<linearGradient id="paint1_linear" x1="1254.25" y1="1201.53" x2="1491.22" y2="1201.53" gradientUnits="userSpaceOnUse">
<stop stop-color="white" stop-opacity="0"/>
<stop offset="0.95" stop-color="white"/>
</linearGradient>
<linearGradient id="paint2_linear" x1="1224.49" y1="911.309" x2="1738.74" y2="911.309" gradientUnits="userSpaceOnUse">
<stop stop-color="white" stop-opacity="0"/>
<stop offset="0.95" stop-color="white"/>
</linearGradient>
<linearGradient id="paint3_linear" x1="1038.25" y1="1212.39" x2="1479.85" y2="1212.39" gradientUnits="userSpaceOnUse">
<stop stop-color="white" stop-opacity="0"/>
<stop offset="0.95" stop-color="white"/>
</linearGradient>
</defs>
</svg>
