<svg width="111" height="95" viewBox="0 0 111 95" fill="none" xmlns="http://www.w3.org/2000/svg">
<path opacity="0.24" d="M13.7469 34.1864C12.8406 38.8047 12.8629 43.6266 11.4147 48.0944C8.80597 56.1418 1.6783 62.2489 0.239661 70.6107C-0.810548 76.7078 1.65433 83.3129 6.38746 87.0992C10.4556 90.3529 15.721 91.4546 20.8106 92.2089C39.8918 95.0374 59.2927 94.3063 78.5162 92.9152C85.5223 92.4074 92.7699 91.7391 98.9033 88.2025C102.8 85.9545 106.143 82.504 107.804 78.2197C109.465 73.9355 109.279 68.801 106.845 64.9336C104.167 60.6858 98.9944 58.0011 97.9666 53.0403C97.0906 48.8123 99.613 44.7481 101.437 40.8575C104.474 34.3766 105.657 26.3986 102.292 20.0947C100.214 16.2058 96.6335 13.3805 92.7875 11.4021C82.0248 5.86736 69.3728 6.40165 57.4049 7.55956C40.0709 9.23851 17.8279 13.4285 13.7469 34.1864Z" fill="#CFCFCF"/>
<path d="M57.2759 87.4547C58.7003 88.6392 60.4906 89.341 62.014 89.7518C63.0806 90.0527 64.1729 90.2535 65.2768 90.3516L83.8695 66.4479L84.1844 66.037L72.432 63.3201C70.9086 72.1666 59.6689 83.4123 59.6689 83.4123C59.6689 83.4123 54.235 84.9117 57.2759 87.4547Z" fill="#B1B1B1"/>
<path d="M97.6166 51.9756C97.0024 50.8269 96.1525 49.8209 95.1225 49.0235C94.0926 48.2261 92.9058 47.6552 91.6399 47.3483C79.8485 44.5084 42.9238 34.2314 40.7827 16.5173C40.7827 16.5173 40.1019 11.9231 34.3172 11.9231C28.5324 11.9231 19.344 66.7088 20.8764 67.8994C22.4088 69.0899 27.6807 66.5379 30.4037 64.0009C33.1266 61.4639 40.7827 56.1739 51.1616 59.4067C55.8308 60.8611 64.3355 62.8343 72.2764 64.5617C77.9742 65.8032 83.3901 66.9187 86.8868 67.6265C88.3382 67.9181 89.8416 67.8111 91.2371 67.3169C92.6326 66.8227 93.8682 65.9597 94.8127 64.8196C96.9868 62.2226 99.098 58.2851 98.2913 53.2591C98.2913 53.268 98.0184 52.7253 97.6166 51.9756Z" fill="#B1B1B1"/>
<path d="M36.0913 42.293C40.0218 26.9399 39.0148 13.4202 33.842 12.0959C28.6692 10.7716 21.2895 22.1442 17.3589 37.4973C13.4283 52.8505 14.4353 66.3702 19.6081 67.6945C24.7809 69.0188 32.1607 57.6462 36.0913 42.293Z" fill="#CFCFCF"/>
<path d="M30.6058 40.9684C31.7884 36.3491 31.4855 32.2815 29.9291 31.883C28.3728 31.4846 26.1525 34.9062 24.9699 39.5255C23.7873 44.1448 24.0903 48.2124 25.6466 48.6108C27.2029 49.0093 29.4233 45.5876 30.6058 40.9684Z" fill="#B1B1B1"/>
<path d="M80.925 55.2532C80.925 55.2532 78.9188 64.3126 72.2644 64.5495L88.758 68.3011C88.758 68.3011 94.6537 67.9592 95.7903 65.5781C96.9268 63.1971 102.817 54.9233 94.5488 48.4458L81.2759 44.3644C81.2759 44.3644 82.7513 49.8073 80.925 55.2532Z" fill="url(#paint0_linear)"/>
<path opacity="0.14" d="M80.5252 38.7795H61.8264C60.2556 38.7795 58.9822 40.0529 58.9822 41.6237V46.5008C58.9822 48.0716 60.2556 49.345 61.8264 49.345H80.5252C82.0961 49.345 83.3694 48.0716 83.3694 46.5008V41.6237C83.3694 40.0529 82.0961 38.7795 80.5252 38.7795Z" fill="#3D3D3D"/>
<path d="M81.4689 37.431H62.77C61.1992 37.431 59.9258 38.7044 59.9258 40.2752V45.1523C59.9258 46.7231 61.1992 47.9965 62.77 47.9965H81.4689C83.0397 47.9965 84.313 46.7231 84.313 45.1523V40.2752C84.313 38.7044 83.0397 37.431 81.4689 37.431Z" fill="white"/>
<path opacity="0.11" d="M81.0119 39.7753H63.9076C63.6439 39.7753 63.4302 39.989 63.4302 40.2527V40.5101C63.4302 40.7738 63.6439 40.9875 63.9076 40.9875H81.0119C81.2756 40.9875 81.4894 40.7738 81.4894 40.5101V40.2527C81.4894 39.989 81.2756 39.7753 81.0119 39.7753Z" fill="#777777"/>
<path opacity="0.11" d="M81.0119 43.953H63.9076C63.6439 43.953 63.4302 44.1668 63.4302 44.4305V44.6878C63.4302 44.9515 63.6439 45.1653 63.9076 45.1653H81.0119C81.2756 45.1653 81.4894 44.9515 81.4894 44.6878V44.4305C81.4894 44.1668 81.2756 43.953 81.0119 43.953Z" fill="#777777"/>
<path opacity="0.14" d="M93.5095 72.4753H80.2773C79.1658 72.4753 78.2646 73.3764 78.2646 74.488V77.9392C78.2646 79.0508 79.1658 79.9519 80.2773 79.9519H93.5095C94.621 79.9519 95.5221 79.0508 95.5221 77.9392V74.488C95.5221 73.3764 94.621 72.4753 93.5095 72.4753Z" fill="#3D3D3D"/>
<path d="M92.1318 71.4591H78.8996C77.7881 71.4591 76.887 72.3602 76.887 73.4718V76.923C76.887 78.0346 77.7881 78.9357 78.8996 78.9357H92.1318C93.2433 78.9357 94.1444 78.0346 94.1444 76.923V73.4718C94.1444 72.3602 93.2433 71.4591 92.1318 71.4591Z" fill="white"/>
<path opacity="0.11" d="M91.9355 73.0864H79.8318C79.6452 73.0864 79.4939 73.2377 79.4939 73.4243V73.6064C79.4939 73.793 79.6452 73.9443 79.8318 73.9443H91.9355C92.1221 73.9443 92.2734 73.793 92.2734 73.6064V73.4243C92.2734 73.2377 92.1221 73.0864 91.9355 73.0864Z" fill="#777777"/>
<path opacity="0.11" d="M91.9355 76.0427H79.8318C79.6452 76.0427 79.4939 76.194 79.4939 76.3806V76.5627C79.4939 76.7493 79.6452 76.9006 79.8318 76.9006H91.9355C92.1221 76.9006 92.2734 76.7493 92.2734 76.5627V76.3806C92.2734 76.194 92.1221 76.0427 91.9355 76.0427Z" fill="#777777"/>
<path opacity="0.14" d="M104.296 84.1592H86.6241C85.1395 84.1592 83.936 85.3627 83.936 86.8472V91.4565C83.936 92.9411 85.1395 94.1446 86.6241 94.1446H104.296C105.781 94.1446 106.984 92.9411 106.984 91.4565V86.8472C106.984 85.3627 105.781 84.1592 104.296 84.1592Z" fill="#3D3D3D"/>
<path d="M103.217 82.8018H85.5452C84.0607 82.8018 82.8572 84.0052 82.8572 85.4898V90.0991C82.8572 91.5837 84.0607 92.7871 85.5452 92.7871H103.217C104.702 92.7871 105.906 91.5837 105.906 90.0991V85.4898C105.906 84.0052 104.702 82.8018 103.217 82.8018Z" fill="white"/>
<path opacity="0.11" d="M102.955 84.9752H86.7901C86.5409 84.9752 86.3389 85.1772 86.3389 85.4265V85.6697C86.3389 85.9189 86.5409 86.1209 86.7901 86.1209H102.955C103.205 86.1209 103.407 85.9189 103.407 85.6697V85.4265C103.407 85.1772 103.205 84.9752 102.955 84.9752Z" fill="#777777"/>
<path opacity="0.11" d="M102.955 88.9235H86.7901C86.5409 88.9235 86.3389 89.1255 86.3389 89.3747V89.6179C86.3389 89.8672 86.5409 90.0692 86.7901 90.0692H102.955C103.205 90.0692 103.407 89.8672 103.407 89.6179V89.3747C103.407 89.1255 103.205 88.9235 102.955 88.9235Z" fill="#777777"/>
<path opacity="0.14" d="M32.9078 71.8297H14.2089C12.6381 71.8297 11.3647 73.1031 11.3647 74.6739V79.551C11.3647 81.1218 12.6381 82.3952 14.2089 82.3952H32.9078C34.4786 82.3952 35.752 81.1218 35.752 79.551V74.6739C35.752 73.1031 34.4786 71.8297 32.9078 71.8297Z" fill="#3D3D3D"/>
<path d="M31.785 70.7518H13.0861C11.5153 70.7518 10.2419 72.0252 10.2419 73.596V78.4731C10.2419 80.0439 11.5153 81.3173 13.0861 81.3173H31.785C33.3558 81.3173 34.6292 80.0439 34.6292 78.4731V73.596C34.6292 72.0252 33.3558 70.7518 31.785 70.7518Z" fill="white"/>
<path opacity="0.11" d="M31.5969 72.9619H14.4926C14.2289 72.9619 14.0151 73.1757 14.0151 73.4394V73.6967C14.0151 73.9604 14.2289 74.1742 14.4926 74.1742H31.5969C31.8606 74.1742 32.0743 73.9604 32.0743 73.6967V73.4394C32.0743 73.1757 31.8606 72.9619 31.5969 72.9619Z" fill="#777777"/>
<path opacity="0.11" d="M31.5969 77.1395H14.4926C14.2289 77.1395 14.0151 77.3533 14.0151 77.617V77.8744C14.0151 78.138 14.2289 78.3518 14.4926 78.3518H31.5969C31.8606 78.3518 32.0743 78.138 32.0743 77.8744V77.617C32.0743 77.3533 31.8606 77.1395 31.5969 77.1395Z" fill="#777777"/>
<path opacity="0.14" d="M73.7196 0H55.0207C53.4499 0 52.1765 1.27339 52.1765 2.84419V7.72127C52.1765 9.29207 53.4499 10.5655 55.0207 10.5655H73.7196C75.2904 10.5655 76.5638 9.29207 76.5638 7.72127V2.84419C76.5638 1.27339 75.2904 0 73.7196 0Z" fill="#3D3D3D"/>
<path d="M72.5853 1.13428H53.8864C52.3156 1.13428 51.0422 2.40766 51.0422 3.97846V8.85554C51.0422 10.4263 52.3156 11.6997 53.8864 11.6997H72.5853C74.1561 11.6997 75.4295 10.4263 75.4295 8.85554V3.97846C75.4295 2.40766 74.1561 1.13428 72.5853 1.13428Z" fill="white"/>
<path opacity="0.11" d="M71.8583 3.52515H54.7541C54.4904 3.52515 54.2766 3.73891 54.2766 4.0026V4.25997C54.2766 4.52366 54.4904 4.73742 54.7541 4.73742H71.8583C72.122 4.73742 72.3358 4.52366 72.3358 4.25997V4.0026C72.3358 3.73891 72.122 3.52515 71.8583 3.52515Z" fill="#777777"/>
<path opacity="0.11" d="M71.8583 7.703H54.7541C54.4904 7.703 54.2766 7.91676 54.2766 8.18045V8.43783C54.2766 8.70152 54.4904 8.91528 54.7541 8.91528H71.8583C72.122 8.91528 72.3358 8.70152 72.3358 8.43783V8.18045C72.3358 7.91676 72.122 7.703 71.8583 7.703Z" fill="#777777"/>
<path opacity="0.14" d="M105.983 14.7455H76.019C73.5006 14.7455 71.459 16.7871 71.459 19.3055V27.1182C71.459 29.6366 73.5006 31.6782 76.019 31.6782H105.983C108.501 31.6782 110.543 29.6366 110.543 27.1182V19.3055C110.543 16.7871 108.501 14.7455 105.983 14.7455Z" fill="#3D3D3D"/>
<path d="M104.848 15.8799H74.8847C72.3663 15.8799 70.3247 17.9215 70.3247 20.4399V28.2526C70.3247 30.771 72.3663 32.8126 74.8847 32.8126H104.848C107.367 32.8126 109.409 30.771 109.409 28.2526V20.4399C109.409 17.9215 107.367 15.8799 104.848 15.8799Z" fill="white"/>
<path opacity="0.11" d="M104.086 18.7966H76.0524C75.7177 18.7966 75.4463 19.068 75.4463 19.4028C75.4463 19.7375 75.7177 20.0089 76.0524 20.0089H104.086C104.421 20.0089 104.692 19.7375 104.692 19.4028C104.692 19.068 104.421 18.7966 104.086 18.7966Z" fill="#777777"/>
<path opacity="0.11" d="M104.086 22.9762H76.0524C75.7177 22.9762 75.4463 23.2476 75.4463 23.5823C75.4463 23.9171 75.7177 24.1885 76.0524 24.1885H104.086C104.421 24.1885 104.692 23.9171 104.692 23.5823C104.692 23.2476 104.421 22.9762 104.086 22.9762Z" fill="#777777"/>
<path opacity="0.11" d="M104.086 27.1541H76.0524C75.7177 27.1541 75.4463 27.4254 75.4463 27.7602C75.4463 28.095 75.7177 28.3663 76.0524 28.3663H104.086C104.421 28.3663 104.692 28.095 104.692 27.7602C104.692 27.4254 104.421 27.1541 104.086 27.1541Z" fill="#777777"/>
<path d="M29.927 8.34177C30.1956 8.88076 34.5075 16.2439 34.5075 16.2439L36.574 14.806L34.321 6.45435L29.927 8.34177Z" fill="url(#paint1_linear)"/>
<path d="M21.2114 17.4153L28.1307 22.6262L26.6928 24.8736L18.3374 22.2681L21.2114 17.4153Z" fill="url(#paint2_linear)"/>
<path d="M16.3606 36.8228L25.3445 35.3849L25.4359 37.9903L16.631 40.9558L16.3606 36.8228Z" fill="url(#paint3_linear)"/>
<defs>
<linearGradient id="paint0_linear" x1="-17800.9" y1="6416.32" x2="-19809.4" y2="9436.46" gradientUnits="userSpaceOnUse">
<stop stop-color="#010101" stop-opacity="0"/>
<stop offset="0.95" stop-color="#010101"/>
</linearGradient>
<linearGradient id="paint1_linear" x1="1249.25" y1="1198.53" x2="1486.22" y2="1198.53" gradientUnits="userSpaceOnUse">
<stop stop-color="white" stop-opacity="0"/>
<stop offset="0.95" stop-color="white"/>
</linearGradient>
<linearGradient id="paint2_linear" x1="1219.49" y1="908.309" x2="1733.74" y2="908.309" gradientUnits="userSpaceOnUse">
<stop stop-color="white" stop-opacity="0"/>
<stop offset="0.95" stop-color="white"/>
</linearGradient>
<linearGradient id="paint3_linear" x1="1033.25" y1="1209.39" x2="1474.85" y2="1209.39" gradientUnits="userSpaceOnUse">
<stop stop-color="white" stop-opacity="0"/>
<stop offset="0.95" stop-color="white"/>
</linearGradient>
</defs>
</svg>
