<svg width="91" height="78" viewBox="0 0 91 78" fill="none" xmlns="http://www.w3.org/2000/svg">
<path fill-rule="evenodd" clip-rule="evenodd" d="M42.6667 16.666H21.3334C17.6534 16.666 14.6667 19.6527 14.6667 23.3327V68.666C14.6667 72.346 17.6534 75.3327 21.3334 75.3327H42.6667C46.3467 75.3327 49.3334 72.346 49.3334 68.666V23.3327C49.3334 19.6527 46.3467 16.666 42.6667 16.666ZM32 72.666C29.7867 72.666 28 70.8794 28 68.666C28 66.4527 29.7867 64.666 32 64.666C34.2134 64.666 36 66.4527 36 68.666C36 70.8794 34.2134 72.666 32 72.666ZM20 61.9993H44V24.666H20V61.9993Z" fill="#323232" fill-opacity="1"/>
<path fill-rule="evenodd" clip-rule="evenodd" d="M61 3H85C86.65 3 88 4.35 88 6V24C88 25.65 86.65 27 85 27H64L58 33L58.015 6C58.015 4.35 59.35 3 61 3ZM62.7549 24.0001H84.9999V6.00005H60.9999V25.7551L61.8699 24.8851L62.7549 24.0001ZM64.0001 17.9999H67.0001V20.9999H64.0001V17.9999ZM67.0001 13.4999H64.0001V16.4999H67.0001V13.4999ZM64.0001 8.99995H67.0001V11.9999H64.0001V8.99995ZM77.4999 17.9999H69.9999V20.9999H77.4999V17.9999ZM69.9999 13.4999H81.9999V16.4999H69.9999V13.4999ZM81.9999 8.99995H69.9999V11.9999H81.9999V8.99995Z" fill="#323232" fill-opacity="1"/>
</svg>
