<svg width="14" height="14" viewBox="0 0 14 14" fill="none" xmlns="http://www.w3.org/2000/svg">
<path d="M13.8072 0.192609C13.5507 -0.0642029 13.1346 -0.0642029 12.8781 0.192609L0.19741 12.8733C-0.0592928 13.1299 -0.0592928 13.5457 0.19741 13.8023C0.325706 13.9307 0.493924 13.9949 0.662033 13.9949C0.830142 13.9949 0.99836 13.9307 1.12655 13.8023L13.8072 1.12164C14.0639 0.865044 14.0639 0.449202 13.8072 0.192609Z" fill="white"/>
<path d="M3.12112 0.00512695C1.40021 0.00512695 0 1.40545 0 3.12635C0 4.84725 1.40021 6.24747 3.12112 6.24747C4.84213 6.24747 6.24223 4.84714 6.24223 3.12624C6.24223 1.40534 4.84202 0.00512695 3.12112 0.00512695ZM3.12112 4.93322C2.12471 4.93322 1.31414 4.12254 1.31414 3.12624C1.31414 2.12995 2.12482 1.31926 3.12112 1.31926C4.11752 1.31926 4.92809 2.12995 4.92809 3.12624C4.92809 4.12254 4.11752 4.93322 3.12112 4.93322Z" fill="white"/>
<path d="M10.8789 7.75208C9.15803 7.75208 7.75781 9.15229 7.75781 10.8732C7.75781 12.5941 9.15803 13.9943 10.8789 13.9943C12.5998 13.9943 14 12.5942 14 10.8732C14 9.15218 12.5998 7.75208 10.8789 7.75208ZM10.8789 12.6801C9.88252 12.6801 9.07195 11.8694 9.07195 10.8731C9.07195 9.87679 9.88263 9.0661 10.8789 9.0661C11.8752 9.0661 12.6859 9.87679 12.6859 10.8731C12.6859 11.8694 11.8753 12.6801 10.8789 12.6801Z" fill="white"/>
</svg>
