<svg width="22" height="38" viewBox="0 0 22 38" fill="none" xmlns="http://www.w3.org/2000/svg">
<path fill-rule="evenodd" clip-rule="evenodd" d="M17.7451 0.666504H4.41178C2.11178 0.666504 0.245117 2.53317 0.245117 4.83317V33.1665C0.245117 35.4665 2.11178 37.3332 4.41178 37.3332H17.7451C20.0451 37.3332 21.9118 35.4665 21.9118 33.1665V4.83317C21.9118 2.53317 20.0451 0.666504 17.7451 0.666504ZM11.0782 35.6665C9.69484 35.6665 8.57817 34.5498 8.57817 33.1665C8.57817 31.7832 9.69484 30.6665 11.0782 30.6665C12.4615 30.6665 13.5782 31.7832 13.5782 33.1665C13.5782 34.5498 12.4615 35.6665 11.0782 35.6665ZM3.57817 28.9998H18.5782V5.6665H3.57817V28.9998Z" fill="#323232" fill-opacity="1"/>
</svg>
