<svg width="400" height="260" viewBox="0 0 400 260" fill="none" xmlns="http://www.w3.org/2000/svg">
<path d="M254.118 0C257.255 9.44384 265.882 21.2486 275.294 28.3315C268.809 32.67 254.377 50.9604 253.902 57.5646C254.572 59.4053 254.675 60.1433 254.118 59.024C253.927 58.6406 253.86 58.1482 253.902 57.5646C251.744 51.6405 243.712 34.2951 232.941 30.6925C242.353 21.2486 249.412 14.1658 254.118 0Z" fill="#FFBE0B"/>
<path d="M43.6121 75.5515C0.317948 84.9954 -2.66245 197.534 1.25913 252.623C3.14143 260.179 17.7297 260.493 24.7886 259.706C118.122 258.919 308.553 257.818 323.612 259.706C337.73 259.706 340.083 254.984 340.083 247.902V134.576C334.436 91.1338 301.652 77.1255 285.965 75.5515H43.6121Z" fill="#B5C7FF"/>
<path fill-rule="evenodd" clip-rule="evenodd" d="M331.356 245.538H235.695C235.474 245.538 235.295 245.348 235.295 245.127C235.295 242.046 235.299 239.036 235.306 236.095H178.991C178.884 236.095 178.782 236.053 178.707 235.977L160.681 217.89C160.43 217.638 160.608 217.207 160.964 217.207H235.405C235.447 212.262 235.502 207.544 235.571 203.041H146.049C145.943 203.041 145.841 202.999 145.766 202.923L130.093 187.197C129.841 186.944 130.02 186.514 130.376 186.514H235.911C236.045 181.48 236.203 176.767 236.386 172.349H115.461C115.355 172.349 115.253 172.306 115.178 172.231L97.1513 154.143C96.9 153.891 97.0786 153.461 97.4346 153.461H237.455C240.21 116.982 245.932 107.373 256.471 96.7977C272.931 80.2825 298.788 87.3441 308.216 96.778C308.23 96.7914 308.244 96.8034 308.259 96.8148C327.035 110.972 329.407 146.318 331.756 245.121C331.761 245.345 331.581 245.538 331.356 245.538Z" fill="white"/>
<path d="M190.589 2.36237L138.824 23.611C134.118 25.5427 141.177 54.3035 143.53 59.0255C145.883 63.7474 144.295 70.4462 167.06 59.0255C185.883 49.5816 189.805 52.7296 190.589 56.6645C193.726 70.0433 198.215 98.5082 200.001 103.884C202.354 110.967 204.707 110.967 211.765 110.967C223.06 110.967 222.746 103.097 221.177 99.1618C216.471 77.1261 206.589 29.7495 204.707 16.5281C202.824 3.30675 194.51 1.57538 190.589 2.36237Z" fill="#F57E00"/>
<path d="M399 134.574H252.765C252.212 134.574 251.765 135.022 251.765 135.574V237.456C251.765 238.009 252.212 238.456 252.765 238.456H399C399.552 238.456 400 238.009 400 237.456V135.574C400 135.022 399.552 134.574 399 134.574Z" fill="#F57E00"/>
<path d="M387.235 146.378H365.706C365.154 146.378 364.706 146.826 364.706 147.378V171.348C364.706 171.901 365.154 172.348 365.706 172.348H387.235C387.788 172.348 388.235 171.901 388.235 171.348V147.378C388.235 146.826 387.788 146.378 387.235 146.378Z" fill="white"/>
<path d="M356.647 177.071H292.764C292.212 177.071 291.764 177.519 291.764 178.071V185.515C291.764 186.067 292.212 186.515 292.764 186.515H356.647C357.199 186.515 357.647 186.067 357.647 185.515V178.071C357.647 177.519 357.199 177.071 356.647 177.071Z" fill="white"/>
<path d="M356.647 195.959H292.764C292.212 195.959 291.764 196.407 291.764 196.959V204.403C291.764 204.955 292.212 205.403 292.764 205.403H356.647C357.199 205.403 357.647 204.955 357.647 204.403V196.959C357.647 196.407 357.199 195.959 356.647 195.959Z" fill="white"/>
</svg>
