<svg width="120" height="101" viewBox="0 0 120 101" fill="none" xmlns="http://www.w3.org/2000/svg">
    <path opacity="0.18" d="M115.093 71.7654C114.395 76.2641 113.139 79.793 110.848 82.775C109.221 84.8951 107.067 86.743 104.229 88.4643C104.009 88.5963 103.792 88.7337 103.572 88.8469C101.083 90.2547 98.4246 91.3533 95.6586 92.1172C91.6332 93.2128 87.4887 93.8332 83.3132 93.9651C73.0149 94.3854 62.6671 92.7825 52.4237 93.8735C45.8979 94.5658 39.5096 96.3411 32.9481 96.6077C22.603 97.0226 14.1621 92.2976 9.14485 83.5912C9.07066 83.4566 8.99098 83.3219 8.91679 83.1845C8.8426 83.0471 8.76567 82.9151 8.69148 82.775C7.17861 79.9016 5.94583 76.8945 5.00958 73.7939C3.19061 67.9779 2.09978 61.6555 3.98194 55.8611C5.90532 49.9348 10.6286 45.3849 14.8518 40.7435C19.9704 35.1188 24.5457 29.0406 28.5188 22.5872C31.0165 18.5249 33.3108 14.2768 36.6217 10.826C40.1415 7.15432 44.7164 5.40065 49.5359 3.98909C54.9268 2.4159 59.9441 4.97772 64.8845 6.87147C76.15 11.1816 89.1383 11.1546 99.2993 17.5686C107.834 22.9562 113.159 32.3388 115.283 42.0823C117.407 51.8258 116.629 61.9249 115.093 71.7654Z" fill="#4573FF"/>
    <path d="M20.1884 21.0025L24.8793 28.771C26.3544 31.1743 28.8915 31.6841 30.7304 29.9459L46.6074 14.8558C46.6074 14.8558 48.0825 12.7729 46.514 11.1609C44.9455 9.54897 43.6474 11.4037 43.6474 11.4037L29.5848 24.746C28.6948 25.5471 27.4803 25.2849 26.792 24.1342L23.055 17.8855C22.347 16.7056 21.0489 16.5988 20.277 17.6573C19.9546 18.1539 19.776 18.7281 19.7604 19.3177C19.7448 19.9074 19.8928 20.49 20.1884 21.0025Z" fill="#B5C7FF"/>
    <path d="M20.1884 37.1656L24.8793 44.9341C26.3544 47.3374 28.8915 47.8472 30.7304 46.109L46.6074 31.0189C46.6074 31.0189 48.0825 28.936 46.514 27.324C44.9455 25.7121 43.6474 27.5668 43.6474 27.5668L29.5848 40.909C28.6948 41.7102 27.4803 41.448 26.792 40.2973L23.055 34.0485C22.347 32.8687 21.0489 32.7619 20.277 33.8204C19.9546 34.317 19.776 34.8912 19.7604 35.4808C19.7448 36.0705 19.8928 36.6531 20.1884 37.1656Z" fill="#B5C7FF"/>
    <path opacity="0.58" d="M110.848 82.7749C109.221 84.8949 107.067 86.7429 104.229 88.4642C104.009 88.5962 103.792 88.7336 103.572 88.8468C102.503 89.3343 101.412 89.7815 100.338 90.2179L95.6668 92.117C91.6414 93.2127 87.4969 93.8331 83.3214 93.965C73.0231 94.3852 62.6753 92.7824 52.4319 93.8734C45.9062 94.5657 39.5178 96.3409 32.9563 96.6076C22.6113 97.0225 14.1704 92.2975 9.15308 83.5911C9.07889 83.4564 8.9992 83.3217 8.92502 83.1844C8.85083 83.047 8.77389 82.915 8.69971 82.7749H110.848Z" fill="#4573FF"/>
    <path d="M66.39 39.8791C66.1812 40.7653 65.9779 41.7647 66.2087 42.6241C66.4835 43.5884 65.9614 43.2113 65.3404 44.1272C64.7447 44.9413 63.8505 45.4974 62.8455 45.6788C61.846 45.8516 60.8193 45.7963 59.845 45.5172C59.0455 45.3098 57.4793 46.056 57.1413 45.3125C57.0013 44.9483 56.9306 44.5621 56.9325 44.173C56.8858 43.3649 57.559 41.4334 57.7568 40.6495C57.8321 40.4124 57.8783 40.1673 57.8942 39.9195C57.8942 39.3592 57.4573 38.9012 57.2155 38.3921C56.9868 37.9082 56.925 37.3645 57.0397 36.8431C57.177 36.2343 57.5507 35.6929 57.6579 35.0787C57.6968 34.7777 57.7096 34.474 57.6963 34.1709C57.6575 33.6132 57.7703 33.0555 58.0233 32.5546C59.9934 29.2439 64.3705 31.4043 65.2003 32.0993C66.0301 32.7943 66.4038 33.9688 66.4065 35.0625C66.4093 36.1562 66.7527 38.3894 66.4972 39.4588C66.4587 39.5962 66.4368 39.7363 66.39 39.8791Z" fill="#777777"/>
    <path d="M69.3579 59.7783C69.3579 59.7783 69.6684 61.1252 69.4843 61.8929C69.3002 62.6607 68.5418 63.5335 68.1104 63.5846C67.6791 63.6358 67.4125 63.4284 67.4428 63.1375C67.473 62.8465 68.5803 61.8256 68.4099 61.4996C68.2396 61.1737 67.8027 62.165 67.6516 61.9226C67.5005 61.6801 67.5637 61.3138 67.9483 60.845C68.333 60.3763 67.9483 59.719 67.9483 59.719C67.9483 59.719 69.0859 59.2153 69.3579 59.7783Z" fill="#F6C8C9"/>
    <path d="M52.9864 52.8117C52.9864 52.8117 52.2005 52.1274 51.9203 51.9604C51.64 51.7934 50.7696 51.9793 50.6239 52.0844C50.3656 52.2729 52.0027 52.1679 51.0053 52.0844C50.846 52.0844 50.0464 52.0844 49.659 52.4399C49.5849 52.5107 49.5266 52.5959 49.488 52.69C49.4493 52.7841 49.4311 52.885 49.4345 52.9864C49.4378 53.0878 49.4627 53.1874 49.5075 53.2788C49.5523 53.3703 49.6161 53.4515 49.6947 53.5175C49.9557 53.6899 50.857 53.7707 51.3433 53.7572C51.8155 53.7258 52.2881 53.812 52.7171 54.0077" fill="#F6C8C9"/>
    <path d="M58.0733 42.7019C57.8388 43.4158 57.6696 44.1487 57.5678 44.892C57.521 45.6597 57.7051 50.6191 57.5678 50.7753C57.5678 51.7182 52.2535 52.3916 52.2535 52.3916C52.2535 52.3916 51.8963 52.8846 52.1821 53.8139C52.1821 53.8139 55.0342 53.6631 57.6775 53.8139C60.3208 53.9648 60.2715 46.6861 60.2715 46.6861" fill="#F6C8C9"/>
    <path d="M65.9891 61.0387C65.9891 61.0387 66.4507 69.6266 67.0662 76.5793C67.0662 76.5793 58.5951 77.7753 55.1357 76.4446C55.1357 76.4446 55.8804 62.593 56.0342 60.605L65.9891 61.0387Z" fill="#4573FF"/>
    <path d="M65.8875 42.9311C65.8867 42.7272 65.8105 42.5305 65.6731 42.3775C65.5357 42.2244 65.3463 42.1254 65.1402 42.0987C64.8269 42.0583 64.3983 41.9936 63.8103 41.8886C62.2551 41.6192 61.6781 41.7485 60.5543 41.9586C58.5045 42.3411 58.2709 42.465 57.9632 42.7263C57.6555 42.9876 56.2184 47.5752 56.9438 49.7303C57.0949 50.1828 57.5291 51.2603 57.6087 51.826C58.0841 55.1771 57.4686 60.0045 57.4686 60.0045C57.4686 60.0045 54.7072 62.2242 61.2192 62.8761C63.6317 63.1185 65.9562 61.4807 65.9562 61.4807L65.8875 42.9311Z" fill="#3E68E6"/>
    <path d="M65.8981 42.6953C65.8968 42.4874 65.8191 42.2869 65.6794 42.1306C65.5396 41.9743 65.347 41.8725 65.137 41.844C64.8265 41.8009 64.3979 41.7363 63.8208 41.6339C62.2657 41.3645 61.6886 41.4938 60.5648 41.704C58.5151 42.0865 58.2815 42.2104 57.9738 42.4717C57.2319 43.0994 57.9106 58.7558 57.9106 58.7558C57.9106 58.7558 54.7178 61.9884 61.2298 62.6295C63.6422 62.872 65.9668 61.2341 65.9668 61.2341L65.8981 42.6953Z" fill="#3E68E6"/>
    <path d="M65.8546 45.2581V57.8301L62.7305 56.2165L64.6236 48.6792L65.8546 45.2581Z" fill="url(#paint0_linear)"/>
    <path d="M68.1129 54.3555C67.9783 54.3555 67.8381 54.3555 67.7063 54.3555L55.9462 54.28C55.6943 54.2977 55.4419 54.2561 55.2098 54.1588C55.097 54.1056 55.0061 54.0163 54.9521 53.9056C54.8982 53.7949 54.8844 53.6694 54.913 53.55C54.9703 53.4516 55.0494 53.367 55.1445 53.3026C55.2396 53.2383 55.3484 53.1958 55.4626 53.1783C57.3392 52.6395 59.3423 52.8011 61.2986 52.8496C62.928 52.89 64.6371 52.8335 66.1593 52.1977C66.8591 51.9284 67.6058 51.7957 68.3575 51.8071C68.7916 51.8071 69.0306 51.7182 69.234 52.0523C69.3851 52.2974 69.3274 52.9439 69.2834 53.216C69.2609 53.4222 69.1893 53.6204 69.0742 53.7945C68.9592 53.9685 68.804 54.1136 68.6212 54.2181C68.4624 54.2956 68.2898 54.3423 68.1129 54.3555Z" fill="#F6C8C9"/>
    <path d="M65.596 42.333C65.596 42.333 66.6016 43.3001 67.8958 47.2842C68.3739 48.7658 69.2861 52.0765 69.2861 52.0765C69.2861 52.0765 67.5001 52.222 66.1537 52.222C65.5493 48.7901 63.9721 47.955 63.7028 46.371C63.4335 44.7871 64.7881 42.0151 65.596 42.333Z" fill="#4573FF"/>
    <path d="M65.596 42.333C65.596 42.333 66.6016 43.3001 67.8958 47.2842C68.3739 48.7658 69.2861 52.0765 69.2861 52.0765C69.2861 52.0765 67.3078 52.2624 65.9614 52.2624C65.3569 48.8305 63.9721 47.9523 63.7028 46.371C63.4335 44.7897 64.7881 42.0151 65.596 42.333Z" fill="#3E68E6"/>
    <path d="M63.1395 37.8635L63.1917 41.9258C63.0256 42.1644 62.7972 42.3549 62.5305 42.4776C62.2637 42.6003 61.9683 42.6507 61.675 42.6235C60.139 42.4565 60.205 42.0093 60.205 42.0093C60.205 42.0093 60.205 39.7546 60.1445 39.2508" fill="#F6C8C9"/>
    <path d="M63.1672 39.1864L63.1479 37.9607L60.1255 39.5042C60.1475 39.6955 60.1887 41.3549 60.1997 41.8344C61.0542 42.0849 62.8045 40.5306 63.1672 39.1864Z" fill="#DCB5B0"/>
    <path d="M63.8268 33.8282C63.8268 33.8282 63.6977 37.8258 62.5134 39.1943C61.2605 40.6382 60.1229 40.4119 59.5597 40.2718C58.2078 39.9566 58.0182 36.3415 57.9742 35.3448C57.8616 32.7642 61.4913 30.4421 63.8268 33.8282Z" fill="#F6C8C9"/>
    <path d="M63.313 36.2688C63.3148 36.1931 63.3372 36.1193 63.3781 36.055C63.4189 35.9908 63.4766 35.9384 63.5451 35.9035C63.6135 35.8685 63.6903 35.8523 63.7675 35.8563C63.8446 35.8604 63.9191 35.8847 63.9834 35.9267C64.5879 36.196 64.0219 37.2359 63.7856 37.5187C63.6961 37.6041 63.5869 37.6668 63.4672 37.7015C63.3475 37.7363 63.221 37.7419 63.0986 37.718" fill="#F6C8C9"/>
    <path d="M84.9538 55.5059H29.3296V85.8544H84.9538V55.5059Z" fill="#B5C7FF"/>
    <path d="M85.8409 53.7681H28.8456C28.3114 53.7681 27.8784 54.1926 27.8784 54.7163C27.8784 55.24 28.3114 55.6645 28.8456 55.6645H85.8409C86.3751 55.6645 86.8081 55.24 86.8081 54.7163C86.8081 54.1926 86.3751 53.7681 85.8409 53.7681Z" fill="#4573FF"/>
    <path d="M85.8409 53.7681H28.8456C28.3114 53.7681 27.8784 54.1926 27.8784 54.7163C27.8784 55.24 28.3114 55.6645 28.8456 55.6645H85.8409C86.3751 55.6645 86.8081 55.24 86.8081 54.7163C86.8081 54.1926 86.3751 53.7681 85.8409 53.7681Z" fill="#7D9DFF"/>
    <path d="M59.2106 33.0527C59.3155 33.5647 59.4863 34.0617 59.7189 34.5316C59.9546 35.0058 60.3494 35.3863 60.8372 35.6091C61.4288 35.8004 62.0674 35.8004 62.6589 35.6091C62.9326 35.508 63.23 35.4855 63.5162 35.5444C63.7772 35.6333 64.0163 35.8758 64.2801 35.795C64.5438 35.7142 64.5961 35.4475 64.618 35.2104C64.6917 34.6638 64.596 34.1082 64.3433 33.6157C64.1776 33.335 63.9638 33.0844 63.7113 32.8749C62.5298 31.8485 60.6888 31.4983 59.315 32.2688C59.1391 32.3684 58.5786 32.6917 58.5786 32.9234C58.5951 33.3975 59.1941 32.9853 59.2106 33.0527Z" fill="#777777"/>
    <path d="M96.9886 45.7727C97.6865 44.4554 98.9779 43.2298 100.486 43.3483C100.749 43.3575 101.002 43.446 101.212 43.6015C101.428 43.811 101.567 44.0848 101.607 44.38C102.253 47.2381 99.0329 49.8107 99.3654 52.7308C99.5028 53.9107 100.209 54.9398 100.753 56.0011C101.297 57.0625 101.679 58.3447 101.157 59.4169C100.8 60.1496 100.085 60.6372 99.4725 61.1786C98.8598 61.7201 98.2828 62.4474 98.3735 63.2556C98.4119 63.6596 98.6152 64.0395 98.6152 64.4462C98.6152 65.2355 97.8816 65.8362 97.1507 66.1703C96.4198 66.5043 95.5955 66.7252 95.046 67.3071C94.447 67.9428 94.3151 68.8722 93.8727 69.621C93.805 69.7574 93.7005 69.8729 93.5705 69.9551C93.4164 70.0165 93.2448 70.0205 93.0879 69.9664C92.931 69.9123 92.7997 69.8039 92.7187 69.6614C92.5652 69.3705 92.4895 69.0461 92.4989 68.7186L92.0977 61.5746C92.0126 60.1038 91.9301 58.6114 92.1472 57.1622C92.4714 55.0071 93.4359 53.0029 94.4827 51.0957C95.4279 49.3582 96.0709 47.5075 96.9886 45.7727Z" fill="#B5C7FF"/>
    <path d="M84.7831 65.8442C83.2829 64.8636 81.681 63.6406 81.4502 61.8897C81.4085 61.6808 81.4114 61.4658 81.4586 61.258C81.5059 61.0503 81.5966 60.8545 81.7249 60.6828C81.9997 60.3623 82.5767 60.268 82.8652 60.5859C83.0823 60.8256 83.2526 61.2943 83.5494 61.1596C83.7527 61.0681 83.7252 60.7798 83.6566 60.5724C83.1455 59.0261 82.1646 57.5176 82.4146 55.9121C82.4915 55.4245 82.8927 54.848 83.3653 55.0204C83.5242 55.091 83.6547 55.2113 83.7362 55.3626C84.2528 56.1572 84.2995 57.3398 85.165 57.7466C85.2045 57.3242 85.3999 56.9305 85.7146 56.6394C86.2037 57.3452 86.2036 58.2557 86.407 59.0854C86.8136 60.734 88.0336 62.0486 89.1299 63.3632C90.2263 64.6778 91.2814 66.1944 91.2484 67.8888C90.8555 68.2013 90.1658 67.6948 89.7949 68.0316C89.4981 68.3009 89.7399 68.7804 89.696 69.1737C89.6438 69.6317 89.02 69.9226 88.5969 69.7475C88.1737 69.5724 88.0748 68.8424 87.844 68.4814C87.1076 67.3473 85.8959 66.5769 84.7831 65.8442Z" fill="#4573FF"/>
    <path d="M84.7831 65.8442C83.2829 64.8636 81.681 63.6406 81.4502 61.8897C81.4085 61.6808 81.4114 61.4658 81.4586 61.258C81.5059 61.0503 81.5966 60.8545 81.7249 60.6828C81.9997 60.3623 82.5767 60.268 82.8652 60.5859C83.0823 60.8256 83.2526 61.2943 83.5494 61.1596C83.7527 61.0681 83.7252 60.7798 83.6566 60.5724C83.1455 59.0261 82.1646 57.5176 82.4146 55.9121C82.4915 55.4245 82.8927 54.848 83.3653 55.0204C83.5242 55.091 83.6547 55.2113 83.7362 55.3626C84.2528 56.1572 84.2995 57.3398 85.165 57.7466C85.2045 57.3242 85.3999 56.9305 85.7146 56.6394C86.2037 57.3452 86.2036 58.2557 86.407 59.0854C86.8136 60.734 88.0336 62.0486 89.1299 63.3632C90.2263 64.6778 91.2814 66.1944 91.2484 67.8888C90.8555 68.2013 90.1658 67.6948 89.7949 68.0316C89.4981 68.3009 89.7399 68.7804 89.696 69.1737C89.6438 69.6317 89.02 69.9226 88.5969 69.7475C88.1737 69.5724 88.0748 68.8424 87.844 68.4814C87.1076 67.3473 85.8959 66.5769 84.7831 65.8442Z" fill="#7D9DFF"/>
    <path d="M85.3546 63.2985C84.2555 60.9872 86.0168 58.4496 87.4236 56.2946C87.7454 55.8772 87.9517 55.3854 88.0226 54.8669C88.0087 54.3931 87.8926 53.9277 87.6819 53.5011C86.8053 51.3461 86.1239 48.9378 86.8026 46.71C87.1818 45.4655 87.9566 44.3772 88.5391 43.2081C89.4447 41.3946 89.8833 39.3913 89.8168 37.3733C89.7811 36.3361 89.6135 35.2856 89.8168 34.27C90.0201 33.2544 90.7428 32.2415 91.7869 32.0745C92.9382 31.8913 93.985 32.7857 94.5676 33.7851C96.2766 36.786 95.0704 40.5439 95.6446 43.9354C96.1227 46.7477 97.8428 49.4954 97.1421 52.2593C96.6613 54.1853 95.0402 55.8016 94.9742 57.7735C96.1942 57.6873 97.3345 58.7244 97.4774 59.9286C97.6202 61.1327 96.8619 62.3234 95.7738 62.8675C94.8506 63.3281 93.5289 63.6002 93.4163 64.6104C93.3586 65.1276 93.691 65.6071 93.7762 66.1216C94.0785 67.9157 91.5781 71.0782 90.174 69.1845C89.4679 68.239 89.3497 67.218 88.4017 66.3102C87.3604 65.2973 85.9948 64.6562 85.3546 63.2985Z" fill="#4573FF"/>
    <path d="M95.7741 62.8544C94.8509 63.3151 93.532 63.5871 93.4166 64.5946C93.3589 65.1145 93.6914 65.594 93.7738 66.1086C94.0046 67.4555 92.639 69.6105 91.3476 69.7479C91.1168 69.7697 90.8845 69.7275 90.677 69.626C90.4696 69.5246 90.2954 69.368 90.1743 69.1741C89.4682 68.2259 89.35 67.2022 88.4021 66.2971C87.3607 65.3004 85.9951 64.6566 85.3549 63.2989C84.2558 60.9876 86.0143 58.4366 87.4212 56.295C87.7453 55.8787 87.9527 55.3865 88.0229 54.8673C88.009 54.3935 87.8929 53.9281 87.6822 53.5015C86.8057 51.3465 86.1242 48.9382 86.8029 46.7104C87.1849 45.4659 87.957 44.3803 88.5395 43.2085C89.4438 41.3946 89.8824 39.3916 89.8171 37.3737C89.7814 36.3365 89.6138 35.2887 89.8171 34.2731C90.0205 33.2575 90.7431 32.2419 91.7872 32.0776C92.9385 31.8918 93.9854 32.7861 94.5679 33.7855C95.667 35.7062 95.5626 37.9367 95.4966 40.1833C95.4244 41.435 95.4741 42.6906 95.645 43.9331C96.1231 46.7454 97.8431 49.4904 97.1452 52.2597C96.6616 54.1857 95.0405 55.802 94.9745 57.7712C96.1945 57.6877 97.3376 58.7248 97.4804 59.9263C97.6233 61.1277 96.865 62.3103 95.7741 62.8544Z" fill="#7D9DFF"/>
    <path d="M92.0645 86.4088H90.1768C89.4541 86.4089 88.7591 86.1361 88.2362 85.647C87.7133 85.1579 87.4026 84.4901 87.3687 83.7823L86.7422 70.8197C86.7314 70.6081 86.7646 70.3965 86.8399 70.1978C86.9151 69.9991 87.0308 69.8175 87.1799 69.6641C87.3289 69.5106 87.5083 69.3885 87.707 69.3051C87.9058 69.2218 88.1197 69.1789 88.3359 69.1792H94.1473C94.3657 69.1791 94.5819 69.223 94.7824 69.3081C94.9829 69.3933 95.1635 69.5179 95.3129 69.6742C95.4622 69.8305 95.5773 70.0152 95.6509 70.2169C95.7246 70.4186 95.7552 70.6329 95.7409 70.8467L94.8699 83.8335C94.8225 84.5315 94.5064 85.1858 93.9856 85.6639C93.4647 86.142 92.778 86.4083 92.0645 86.4088Z" fill="#4573FF"/>
    <path d="M92.0757 86.4088H90.1661C89.4463 86.4089 88.7541 86.1372 88.2332 85.6501C87.7124 85.1631 87.4028 84.498 87.3689 83.7931L86.748 70.9329C86.7372 70.7066 86.7733 70.4805 86.8542 70.2683C86.9351 70.0561 87.059 69.8621 87.2185 69.6982C87.378 69.5343 87.5697 69.4038 87.7821 69.3146C87.9945 69.2254 88.2232 69.1793 88.4543 69.1792H94.0293C94.2631 69.1794 94.4944 69.2267 94.7088 69.318C94.9232 69.4094 95.1162 69.5429 95.2759 69.7103C95.4355 69.8777 95.5585 70.0754 95.6371 70.2913C95.7157 70.5071 95.7483 70.7365 95.7329 70.9652L94.8701 83.8443C94.8234 84.5397 94.5087 85.1916 93.9897 85.6678C93.4708 86.144 92.7865 86.409 92.0757 86.4088Z" fill="#B5C7FF"/>
    <path d="M43.4057 51.1338H38.6302C37.9898 51.1338 37.4707 51.6427 37.4707 52.2706V52.6854C37.4707 53.3133 37.9898 53.8222 38.6302 53.8222H43.4057C44.0461 53.8222 44.5652 53.3133 44.5652 52.6854V52.2706C44.5652 51.6427 44.0461 51.1338 43.4057 51.1338Z" fill="#7D9DFF"/>
    <defs>
        <linearGradient id="paint0_linear" x1="819.799" y1="2269.37" x2="732.718" y2="2271.68" gradientUnits="userSpaceOnUse">
            <stop offset="0.01"/>
            <stop offset="0.83" stop-opacity="0.07"/>
            <stop offset="1" stop-opacity="0"/>
        </linearGradient>
    </defs>
</svg>