<svg width="12" height="14" viewBox="0 0 12 14" fill="none" xmlns="http://www.w3.org/2000/svg">
<path d="M8.65625 10.3438V8.34375H4V5.65625H8.65625V3.65625L12 7L8.65625 10.3438ZM7.34375 0.34375C7.71875 0.34375 8.03125 0.46875 8.28125 0.71875C8.53125 0.96875 8.65625 1.28125 8.65625 1.65625V3H7.34375V1.65625H1.34375V12.3438H7.34375V11H8.65625V12.3438C8.65625 12.7188 8.53125 13.0312 8.28125 13.2812C8.03125 13.5312 7.71875 13.6562 7.34375 13.6562H1.34375C0.96875 13.6562 0.645833 13.5312 0.375 13.2812C0.125 13.0312 0 12.7188 0 12.3438V1.65625C0 1.28125 0.125 0.96875 0.375 0.71875C0.645833 0.46875 0.96875 0.34375 1.34375 0.34375H7.34375Z" fill="#777777"/>
</svg>
