<svg width="36" height="36" viewBox="0 0 36 36" fill="none" xmlns="http://www.w3.org/2000/svg">
<g id="speaker_notes_24px">
<path id="icon/action/speaker_notes_24px" fill-rule="evenodd" clip-rule="evenodd" d="M6 3H30C31.65 3 33 4.35 33 6V24C33 25.65 31.65 27 30 27H9L3 33L3.015 6C3.015 4.35 4.35 3 6 3ZM7.75489 24.0001H29.9999V6.00005H5.99989V25.7551L6.86989 24.8851L7.75489 24.0001ZM9.00011 17.9999H12.0001V20.9999H9.00011V17.9999ZM12.0001 13.4999H9.00011V16.4999H12.0001V13.4999ZM9.00011 8.99995H12.0001V11.9999H9.00011V8.99995ZM22.4999 17.9999H14.9999V20.9999H22.4999V17.9999ZM14.9999 13.4999H26.9999V16.4999H14.9999V13.4999ZM26.9999 8.99995H14.9999V11.9999H26.9999V8.99995Z" fill="black" fill-opacity="0.54"/>
</g>
</svg>
