<?xml version="1.0" encoding="UTF-8"?>
<svg width="24px" height="26px" viewBox="0 0 24 26" version="1.1" xmlns="http://www.w3.org/2000/svg" xmlns:xlink="http://www.w3.org/1999/xlink">
    <!-- Generator: sketchtool 42 (36781) - http://www.bohemiancoding.com/sketch -->
    <title>65256A7D-628A-43CA-B0C3-A20766A61A3C</title>
    <desc>Created with sketchtool.</desc>
    <defs>
        <path d="M8.4,3.5986883 L8.4,3.5986883 L8.4,2.35590853 C8.4,1.05477618 9.47791275,0 10.7974957,0 L13.2025043,0 C14.5266046,0 15.6,1.0555443 15.6,2.36807121 L15.6,3.55281206" id="path-1"></path>
        <mask id="mask-2" maskContentUnits="userSpaceOnUse" maskUnits="objectBoundingBox" x="0" y="0" width="7.2" height="3.5986883" fill="white">
            <use xlink:href="#path-1"></use>
        </mask>
        <rect id="path-3" x="4.11961524" y="2.5007573" width="1.2" height="2.36363636"></rect>
        <mask id="mask-4" maskContentUnits="userSpaceOnUse" maskUnits="objectBoundingBox" x="0" y="0" width="1.2" height="2.36363636" fill="white">
            <use xlink:href="#path-3"></use>
        </mask>
        <rect id="path-5" x="18.5196152" y="2.5007573" width="1.2" height="2.36363636"></rect>
        <mask id="mask-6" maskContentUnits="userSpaceOnUse" maskUnits="objectBoundingBox" x="0" y="0" width="1.2" height="2.36363636" fill="white">
            <use xlink:href="#path-5"></use>
        </mask>
        <path d="M12,26 C18.627417,26 24,20.7088198 24,14.1818182 C24,7.65481659 18.627417,2.36363636 12,2.36363636 C5.372583,2.36363636 0,7.65481659 0,14.1818182 C0,20.7088198 5.372583,26 12,26 Z" id="path-7"></path>
        <mask id="mask-8" maskContentUnits="userSpaceOnUse" maskUnits="objectBoundingBox" x="0" y="0" width="24" height="23.6363636" fill="white">
            <use xlink:href="#path-7"></use>
        </mask>
        <ellipse id="path-9" cx="12.6" cy="14.7727273" rx="1.8" ry="1.77272727"></ellipse>
        <mask id="mask-10" maskContentUnits="userSpaceOnUse" maskUnits="objectBoundingBox" x="0" y="0" width="3.6" height="3.54545455" fill="white">
            <use xlink:href="#path-9"></use>
        </mask>
        <rect id="path-11" x="14.4" y="7.09090909" width="1.2" height="7.09090909"></rect>
        <mask id="mask-12" maskContentUnits="userSpaceOnUse" maskUnits="objectBoundingBox" x="0" y="0" width="1.2" height="7.09090909" fill="white">
            <use xlink:href="#path-11"></use>
        </mask>
    </defs>
    <g id="New" stroke="none" stroke-width="1" fill="none" fill-rule="evenodd">
        <g id="11-1-3-Approver---Approved" transform="translate(-1307.000000, -228.000000)" stroke="#4990E2" stroke-width="4.72727273">
            <g id="Table" transform="translate(245.000000, 152.000000)">
                <g id="List" transform="translate(19.000000, 59.000000)">
                    <g id="Row1" transform="translate(0.000000, 17.000000)">
                        <g id="stopwatch-icon-copy" transform="translate(1043.000000, 0.000000)">
                            <use id="Rectangle-81" mask="url(#mask-2)" xlink:href="#path-1"></use>
                            <use id="Rectangle-84" mask="url(#mask-4)" transform="translate(4.719615, 3.682575) rotate(-30.000000) translate(-4.719615, -3.682575) " xlink:href="#path-3"></use>
                            <use id="Rectangle-84" mask="url(#mask-6)" transform="translate(19.119615, 3.682575) scale(-1, 1) rotate(-30.000000) translate(-19.119615, -3.682575) " xlink:href="#path-5"></use>
                            <use id="Oval-38" mask="url(#mask-8)" xlink:href="#path-7"></use>
                            <use id="Oval-39" mask="url(#mask-10)" xlink:href="#path-9"></use>
                            <use id="Rectangle-83" mask="url(#mask-12)" transform="translate(15.000000, 10.636364) rotate(-330.000000) translate(-15.000000, -10.636364) " xlink:href="#path-11"></use>
                        </g>
                    </g>
                </g>
            </g>
        </g>
    </g>
</svg>