<svg width="48" height="48" viewBox="0 0 48 48" fill="none" xmlns="http://www.w3.org/2000/svg">
<path d="M34.9473 23.1795H34.8942C34.1909 23.1739 33.5089 23.4227 32.9742 23.88C32.5209 22.7028 31.4244 21.8604 30.1439 21.8604C29.366 21.8683 28.6224 22.1816 28.0736 22.7331C27.5649 21.7207 26.5321 21.079 25.3991 21.071H25.3431C24.7158 21.071 24.1023 21.2335 23.6806 21.5777V14.4382C23.6806 12.6647 22.2969 11.222 20.6161 11.222C18.9369 11.222 17.5617 12.6634 17.5604 14.4359L17.5462 28.6541L16.8168 27.7685C16.0966 26.8721 15.0365 26.3153 13.8896 26.2313C12.7665 26.1545 11.6615 26.5452 10.8366 27.3109L10.1312 27.896C9.88678 28.0986 9.8166 28.4449 9.96354 28.7265L16.8323 41.9271C18.0964 44.3555 20.5021 45.867 23.1107 45.867H30.815C34.7681 45.867 37.9878 42.4404 37.9918 38.2323C37.9934 36.3629 37.9954 34.969 37.9967 33.8393C38.0007 30.8136 38.0023 29.7007 37.9944 26.3677C37.9901 24.5992 36.6232 23.1795 34.9473 23.1795ZM36.6473 33.836C36.6459 34.9661 36.644 36.3616 36.6423 38.2309C36.639 41.6958 34.0248 44.5176 30.815 44.5176H23.1107C21.0071 44.5176 19.0604 43.2844 18.0295 41.3041L11.4115 28.5882L11.71 28.3398C11.7185 28.3325 11.7274 28.3246 11.7357 28.317C12.2898 27.7955 13.0354 27.5277 13.7944 27.5777C14.5703 27.6374 15.2865 28.0166 15.7718 28.6251L17.6942 30.9652C17.875 31.1853 18.1745 31.2679 18.4427 31.1721C18.7108 31.0762 18.8901 30.8219 18.8901 30.5372L18.9016 14.4365C18.9023 13.4083 19.6808 12.5715 20.6167 12.5715C21.5527 12.5715 22.3312 13.4086 22.3312 14.4382V24.1455C22.3312 24.1794 22.3296 24.2137 22.3296 24.248C22.3296 24.2631 22.3312 24.2786 22.3312 24.2938V28.4422C22.3312 28.8148 22.6333 29.1169 23.0059 29.1169C23.3785 29.1169 23.6806 28.8148 23.6806 28.4422V24.1682C23.6806 23.1763 24.4311 22.4205 25.3431 22.4205H25.3991C26.3354 22.4205 27.1386 23.2191 27.1386 24.2486V28.0466C27.1386 28.4192 27.4407 28.7213 27.8133 28.7213C28.1859 28.7213 28.488 28.4192 28.488 28.0466V25.0667C28.488 24.0374 29.2359 23.2 30.1775 23.2C31.1138 23.2 31.8616 24.0371 31.8616 25.0667V27.8779C31.8616 28.2505 32.1637 28.5526 32.5363 28.5526C32.909 28.5526 33.2111 28.2505 33.2111 27.8779V26.3555C33.2111 25.3266 33.9583 24.529 34.8942 24.529H34.9473C35.881 24.529 36.6423 25.3437 36.645 26.37C36.6529 29.7007 36.6512 30.8123 36.6473 33.836Z" fill="#3D3D3D"/>
<path d="M14.2975 8.1908C14.6187 7.86958 14.6187 7.34881 14.2975 7.028L12.8725 5.60301L29.9772 5.60301L28.5526 7.028C28.2314 7.34921 28.2314 7.86998 28.5526 8.1908C28.8738 8.51201 29.3946 8.51201 29.7158 8.1908L32.3385 5.56768C32.6312 5.47934 32.8508 5.23562 32.9082 4.93488C32.9657 4.63455 32.8512 4.32698 32.6111 4.13706L32.6087 4.13425L29.7158 1.24091C29.3946 0.919696 28.8738 0.919696 28.5526 1.24091C28.2314 1.56172 28.2314 2.08249 28.5526 2.40371L30.1072 3.95839L12.7424 3.95839L14.2975 2.40371C14.6187 2.08249 14.6187 1.56213 14.2975 1.24091C13.9762 0.919695 13.4555 0.919695 13.1347 1.24091L10.2409 4.13425C9.91969 4.45547 9.91969 4.97624 10.2409 5.29745L13.1347 8.1908C13.4555 8.51201 13.9762 8.51201 14.2975 8.1908Z" fill="#4573FF"/>
<path d="M16.286 14.0811C16.286 11.7031 18.2136 9.77547 20.5916 9.77547C22.9696 9.77547 24.8972 11.7031 24.8972 14.0811C24.8972 14.4537 25.1993 14.7558 25.5719 14.7558C25.9445 14.7558 26.2466 14.4537 26.2466 14.0811C26.2466 10.9579 23.7148 8.42603 20.5916 8.42603C17.4684 8.42603 14.9365 10.9579 14.9365 14.0811C14.9365 14.4537 15.2386 14.7558 15.6112 14.7558C15.9839 14.7558 16.286 14.4537 16.286 14.0811Z" fill="#3D3D3D"/>
</svg> 