<svg width="320" height="218" viewBox="0 0 320 218" fill="none" xmlns="http://www.w3.org/2000/svg">
<mask id="mask0" mask-type="alpha" maskUnits="userSpaceOnUse" x="0" y="0" width="320" height="218">
<rect width="320" height="218" fill="white"/>
</mask>
<g mask="url(#mask0)">
<path d="M0 0H320V218H0V0Z" fill="#FF885F"/>
<rect x="16" y="16" width="428.03" height="269.002" fill="#F7F7F7"/>
<g filter="url(#filter0_d)">
<rect x="97.8875" y="92.3491" width="333.484" height="179.994" rx="4" fill="white"/>
<rect x="97.8875" y="92.3491" width="333.484" height="179.994" rx="4" stroke="#979797"/>
</g>
<rect x="104.217" y="152.083" width="5.93387" height="5.93387" rx="2.96694" fill="#CFCFCF"/>
<rect x="115.293" y="152.083" width="17.8016" height="5.93387" rx="2.96694" fill="#CFCFCF"/>
<rect x="172.259" y="152.083" width="17.0104" height="5.93387" rx="2.96694" fill="#CFCFCF"/>
<rect x="218.938" y="152.083" width="18.5928" height="5.93387" rx="2.96694" fill="#CFCFCF"/>
<rect x="270.365" y="152.083" width="17.8016" height="5.93387" rx="2.96694" fill="#CFCFCF"/>
<rect x="104.217" y="169.885" width="5.93387" height="5.93387" rx="2.96694" fill="#ECECEC"/>
<rect x="115.293" y="169.885" width="30.065" height="5.93387" rx="2.96694" fill="#ECECEC"/>
<rect x="172.259" y="169.885" width="26.5046" height="5.93387" rx="2.96694" fill="#ECECEC"/>
<rect x="218.938" y="169.885" width="32.4385" height="5.93387" rx="2.96694" fill="#ECECEC"/>
<rect x="270.365" y="169.885" width="23.3399" height="5.93387" rx="2.96694" fill="#ECECEC"/>
<rect x="104.217" y="200.741" width="5.93387" height="5.93387" rx="2.96694" fill="#ECECEC"/>
<rect x="115.293" y="200.741" width="30.065" height="5.93387" rx="2.96694" fill="#ECECEC"/>
<rect x="172.259" y="200.741" width="26.5046" height="5.93387" rx="2.96694" fill="#ECECEC"/>
<rect x="218.938" y="200.741" width="32.4385" height="5.93387" rx="2.96694" fill="#ECECEC"/>
<rect x="270.365" y="200.741" width="23.3399" height="5.93387" rx="2.96694" fill="#ECECEC"/>
<rect x="104.217" y="185.313" width="5.93387" height="5.93387" rx="2.96694" fill="#ECECEC"/>
<rect x="115.293" y="185.313" width="30.065" height="5.93387" rx="2.96694" fill="#ECECEC"/>
<rect x="172.259" y="185.313" width="26.5046" height="5.93387" rx="2.96694" fill="#ECECEC"/>
<rect x="218.938" y="185.313" width="32.4385" height="5.93387" rx="2.96694" fill="#ECECEC"/>
<rect x="270.365" y="185.313" width="23.3399" height="5.93387" rx="2.96694" fill="#ECECEC"/>
<rect x="104.217" y="216.169" width="5.93387" height="5.93387" rx="2.96694" fill="#ECECEC"/>
<rect x="115.293" y="216.169" width="30.065" height="5.93387" rx="2.96694" fill="#ECECEC"/>
<rect x="172.259" y="216.169" width="26.5046" height="5.93387" rx="2.96694" fill="#ECECEC"/>
<rect x="218.938" y="216.169" width="32.4385" height="5.93387" rx="2.96694" fill="#ECECEC"/>
<rect x="270.365" y="216.169" width="23.3399" height="5.93387" rx="2.96694" fill="#ECECEC"/>
<path d="M243.304 106.986L242.853 105.731H241.126L240.684 106.986H239.905L241.595 102.449H242.399L244.089 106.986H243.304ZM242.658 105.095L242.235 103.865C242.204 103.782 242.161 103.652 242.105 103.475C242.052 103.298 242.015 103.168 241.994 103.086C241.938 103.339 241.857 103.616 241.75 103.917L241.342 105.095H242.658Z" fill="#7C7C7C"/>
<path d="M246.342 107.048C245.91 107.048 245.574 106.892 245.335 106.581H245.292C245.32 106.87 245.335 107.045 245.335 107.107V108.507H244.609V103.568H245.196C245.212 103.632 245.246 103.784 245.298 104.025H245.335C245.562 103.679 245.901 103.506 246.355 103.506C246.781 103.506 247.113 103.661 247.35 103.97C247.589 104.279 247.708 104.712 247.708 105.271C247.708 105.829 247.587 106.265 247.344 106.578C247.103 106.891 246.769 107.048 246.342 107.048ZM246.166 104.099C245.878 104.099 245.667 104.184 245.533 104.353C245.401 104.522 245.335 104.792 245.335 105.163V105.271C245.335 105.687 245.401 105.989 245.533 106.176C245.665 106.362 245.88 106.454 246.179 106.454C246.43 106.454 246.624 106.351 246.76 106.145C246.896 105.939 246.964 105.646 246.964 105.265C246.964 104.881 246.896 104.592 246.76 104.396C246.626 104.198 246.428 104.099 246.166 104.099Z" fill="#7C7C7C"/>
<path d="M250.286 107.048C249.853 107.048 249.517 106.892 249.278 106.581H249.235C249.264 106.87 249.278 107.045 249.278 107.107V108.507H248.552V103.568H249.139C249.156 103.632 249.19 103.784 249.241 104.025H249.278C249.505 103.679 249.845 103.506 250.298 103.506C250.725 103.506 251.057 103.661 251.293 103.97C251.532 104.279 251.652 104.712 251.652 105.271C251.652 105.829 251.53 106.265 251.287 106.578C251.046 106.891 250.712 107.048 250.286 107.048ZM250.11 104.099C249.821 104.099 249.61 104.184 249.476 104.353C249.344 104.522 249.278 104.792 249.278 105.163V105.271C249.278 105.687 249.344 105.989 249.476 106.176C249.608 106.362 249.823 106.454 250.122 106.454C250.374 106.454 250.567 106.351 250.703 106.145C250.839 105.939 250.907 105.646 250.907 105.265C250.907 104.881 250.839 104.592 250.703 104.396C250.569 104.198 250.371 104.099 250.11 104.099Z" fill="#7C7C7C"/>
<path d="M254.23 103.506C254.376 103.506 254.496 103.516 254.591 103.537L254.52 104.214C254.417 104.189 254.31 104.177 254.199 104.177C253.908 104.177 253.672 104.271 253.491 104.461C253.312 104.651 253.222 104.897 253.222 105.2V106.986H252.496V103.568H253.064L253.16 104.171H253.197C253.311 103.967 253.458 103.805 253.639 103.685C253.823 103.566 254.019 103.506 254.23 103.506Z" fill="#7C7C7C"/>
<path d="M258.26 105.271C258.26 105.829 258.116 106.265 257.83 106.578C257.544 106.891 257.145 107.048 256.634 107.048C256.315 107.048 256.032 106.976 255.787 106.832C255.542 106.687 255.353 106.48 255.222 106.21C255.09 105.94 255.024 105.627 255.024 105.271C255.024 104.717 255.166 104.284 255.45 103.973C255.735 103.662 256.135 103.506 256.653 103.506C257.147 103.506 257.538 103.666 257.827 103.985C258.115 104.302 258.26 104.731 258.26 105.271ZM255.772 105.271C255.772 106.06 256.063 106.454 256.646 106.454C257.223 106.454 257.512 106.06 257.512 105.271C257.512 104.49 257.221 104.099 256.64 104.099C256.335 104.099 256.114 104.2 255.976 104.402C255.84 104.604 255.772 104.894 255.772 105.271Z" fill="#7C7C7C"/>
<path d="M259.876 106.986L258.578 103.568H259.344L260.04 105.555C260.159 105.889 260.231 106.159 260.256 106.365H260.281C260.299 106.216 260.371 105.947 260.497 105.555L261.193 103.568H261.965L260.661 106.986H259.876Z" fill="#7C7C7C"/>
<path d="M263.977 107.048C263.446 107.048 263.029 106.893 262.729 106.584C262.43 106.273 262.28 105.846 262.28 105.302C262.28 104.743 262.42 104.304 262.698 103.985C262.976 103.666 263.358 103.506 263.844 103.506C264.295 103.506 264.652 103.643 264.914 103.917C265.175 104.191 265.306 104.568 265.306 105.048V105.441H263.028C263.039 105.772 263.128 106.028 263.297 106.207C263.466 106.384 263.704 106.473 264.011 106.473C264.213 106.473 264.401 106.454 264.574 106.417C264.749 106.378 264.936 106.314 265.136 106.226V106.816C264.959 106.901 264.78 106.96 264.598 106.995C264.417 107.03 264.21 107.048 263.977 107.048ZM263.844 104.056C263.613 104.056 263.428 104.129 263.288 104.276C263.15 104.422 263.067 104.635 263.041 104.915H264.592C264.588 104.633 264.52 104.42 264.388 104.276C264.256 104.129 264.075 104.056 263.844 104.056Z" fill="#7C7C7C"/>
<path d="M267.284 107.048C266.858 107.048 266.525 106.893 266.286 106.584C266.047 106.275 265.927 105.841 265.927 105.283C265.927 104.723 266.048 104.287 266.289 103.976C266.532 103.663 266.868 103.506 267.296 103.506C267.746 103.506 268.088 103.672 268.322 104.004H268.36C268.325 103.758 268.307 103.565 268.307 103.423V102.177H269.036V106.986H268.468L268.341 106.538H268.307C268.074 106.878 267.733 107.048 267.284 107.048ZM267.479 106.461C267.778 106.461 267.995 106.377 268.131 106.21C268.267 106.041 268.337 105.768 268.341 105.391V105.289C268.341 104.859 268.271 104.553 268.131 104.371C267.991 104.19 267.771 104.099 267.473 104.099C267.217 104.099 267.02 104.204 266.882 104.412C266.744 104.618 266.675 104.912 266.675 105.295C266.675 105.675 266.742 105.964 266.876 106.164C267.01 106.362 267.211 106.461 267.479 106.461Z" fill="#7C7C7C"/>
<path d="M178.202 106.986H177.296L175.074 103.386H175.049L175.065 103.586C175.094 103.97 175.108 104.32 175.108 104.637V106.986H174.438V102.468H175.334L177.55 106.05H177.568C177.564 106.002 177.556 105.83 177.544 105.533C177.531 105.235 177.525 105.002 177.525 104.835V102.468H178.202V106.986Z" fill="#7C7C7C"/>
<path d="M180.81 107.048C180.279 107.048 179.862 106.893 179.562 106.584C179.263 106.273 179.114 105.846 179.114 105.302C179.114 104.743 179.253 104.304 179.531 103.985C179.809 103.666 180.191 103.506 180.677 103.506C181.129 103.506 181.485 103.643 181.747 103.917C182.008 104.191 182.139 104.568 182.139 105.048V105.441H179.861C179.872 105.772 179.961 106.028 180.13 106.207C180.299 106.384 180.537 106.473 180.844 106.473C181.046 106.473 181.234 106.454 181.407 106.417C181.582 106.378 181.769 106.314 181.969 106.226V106.816C181.792 106.901 181.613 106.96 181.431 106.995C181.25 107.03 181.043 107.048 180.81 107.048ZM180.677 104.056C180.447 104.056 180.261 104.129 180.121 104.276C179.983 104.422 179.901 104.635 179.874 104.915H181.425C181.421 104.633 181.353 104.42 181.221 104.276C181.089 104.129 180.908 104.056 180.677 104.056Z" fill="#7C7C7C"/>
<path d="M184.457 107.048C183.926 107.048 183.509 106.893 183.209 106.584C182.91 106.273 182.76 105.846 182.76 105.302C182.76 104.743 182.899 104.304 183.178 103.985C183.456 103.666 183.838 103.506 184.324 103.506C184.775 103.506 185.132 103.643 185.394 103.917C185.655 104.191 185.786 104.568 185.786 105.048V105.441H183.508C183.519 105.772 183.608 106.028 183.777 106.207C183.946 106.384 184.184 106.473 184.491 106.473C184.693 106.473 184.88 106.454 185.054 106.417C185.229 106.378 185.416 106.314 185.616 106.226V106.816C185.439 106.901 185.26 106.96 185.078 106.995C184.897 107.03 184.69 107.048 184.457 107.048ZM184.324 104.056C184.093 104.056 183.908 104.129 183.768 104.276C183.63 104.422 183.547 104.635 183.521 104.915H185.072C185.068 104.633 185 104.42 184.868 104.276C184.736 104.129 184.555 104.056 184.324 104.056Z" fill="#7C7C7C"/>
<path d="M187.764 107.048C187.337 107.048 187.005 106.893 186.766 106.584C186.527 106.275 186.407 105.841 186.407 105.283C186.407 104.723 186.528 104.287 186.769 103.976C187.012 103.663 187.348 103.506 187.776 103.506C188.226 103.506 188.568 103.672 188.802 104.004H188.84C188.804 103.758 188.787 103.565 188.787 103.423V102.177H189.516V106.986H188.948L188.821 106.538H188.787C188.554 106.878 188.213 107.048 187.764 107.048ZM187.959 106.461C188.257 106.461 188.475 106.377 188.611 106.21C188.747 106.041 188.817 105.768 188.821 105.391V105.289C188.821 104.859 188.751 104.553 188.611 104.371C188.471 104.19 188.251 104.099 187.953 104.099C187.697 104.099 187.5 104.204 187.362 104.412C187.224 104.618 187.155 104.912 187.155 105.295C187.155 105.675 187.222 105.964 187.356 106.164C187.49 106.362 187.691 106.461 187.959 106.461Z" fill="#7C7C7C"/>
<path d="M192.851 106.013C192.851 106.346 192.729 106.603 192.486 106.782C192.243 106.959 191.895 107.048 191.442 107.048C190.986 107.048 190.621 106.979 190.345 106.841V106.213C190.746 106.399 191.12 106.492 191.466 106.492C191.914 106.492 192.137 106.357 192.137 106.087C192.137 106 192.112 105.928 192.063 105.87C192.014 105.813 191.932 105.753 191.819 105.691C191.705 105.629 191.548 105.559 191.346 105.481C190.952 105.328 190.686 105.176 190.545 105.024C190.407 104.871 190.338 104.673 190.338 104.43C190.338 104.138 190.456 103.911 190.691 103.75C190.928 103.587 191.249 103.506 191.655 103.506C192.057 103.506 192.437 103.587 192.795 103.75L192.561 104.297C192.192 104.145 191.882 104.069 191.63 104.069C191.247 104.069 191.055 104.178 191.055 104.396C191.055 104.503 191.105 104.594 191.204 104.668C191.305 104.742 191.523 104.844 191.859 104.974C192.141 105.083 192.346 105.183 192.474 105.274C192.602 105.365 192.697 105.47 192.758 105.589C192.82 105.707 192.851 105.848 192.851 106.013Z" fill="#7C7C7C"/>
<path d="M198.164 106.986L197.712 105.731H195.985L195.543 106.986H194.764L196.455 102.449H197.258L198.949 106.986H198.164ZM197.518 105.095L197.094 103.865C197.063 103.782 197.02 103.652 196.965 103.475C196.911 103.298 196.874 103.168 196.853 103.086C196.798 103.339 196.716 103.616 196.609 103.917L196.201 105.095H197.518Z" fill="#7C7C7C"/>
<path d="M201.202 107.048C200.769 107.048 200.433 106.892 200.194 106.581H200.151C200.18 106.87 200.194 107.045 200.194 107.107V108.507H199.468V103.568H200.055C200.072 103.632 200.106 103.784 200.157 104.025H200.194C200.421 103.679 200.761 103.506 201.214 103.506C201.641 103.506 201.972 103.661 202.209 103.97C202.448 104.279 202.568 104.712 202.568 105.271C202.568 105.829 202.446 106.265 202.203 106.578C201.962 106.891 201.628 107.048 201.202 107.048ZM201.026 104.099C200.737 104.099 200.526 104.184 200.392 104.353C200.26 104.522 200.194 104.792 200.194 105.163V105.271C200.194 105.687 200.26 105.989 200.392 106.176C200.524 106.362 200.739 106.454 201.038 106.454C201.289 106.454 201.483 106.351 201.619 106.145C201.755 105.939 201.823 105.646 201.823 105.265C201.823 104.881 201.755 104.592 201.619 104.396C201.485 104.198 201.287 104.099 201.026 104.099Z" fill="#7C7C7C"/>
<path d="M205.145 107.048C204.713 107.048 204.377 106.892 204.138 106.581H204.094C204.123 106.87 204.138 107.045 204.138 107.107V108.507H203.411V103.568H203.999C204.015 103.632 204.049 103.784 204.101 104.025H204.138C204.364 103.679 204.704 103.506 205.158 103.506C205.584 103.506 205.916 103.661 206.153 103.97C206.392 104.279 206.511 104.712 206.511 105.271C206.511 105.829 206.39 106.265 206.147 106.578C205.906 106.891 205.572 107.048 205.145 107.048ZM204.969 104.099C204.681 104.099 204.469 104.184 204.336 104.353C204.204 104.522 204.138 104.792 204.138 105.163V105.271C204.138 105.687 204.204 105.989 204.336 106.176C204.467 106.362 204.683 106.454 204.981 106.454C205.233 106.454 205.427 106.351 205.563 106.145C205.698 105.939 205.766 105.646 205.766 105.265C205.766 104.881 205.698 104.592 205.563 104.396C205.429 104.198 205.231 104.099 204.969 104.099Z" fill="#7C7C7C"/>
<path d="M209.089 103.506C209.235 103.506 209.356 103.516 209.45 103.537L209.379 104.214C209.276 104.189 209.169 104.177 209.058 104.177C208.767 104.177 208.532 104.271 208.35 104.461C208.171 104.651 208.081 104.897 208.081 105.2V106.986H207.355V103.568H207.924L208.02 104.171H208.057C208.17 103.967 208.317 103.805 208.499 103.685C208.682 103.566 208.879 103.506 209.089 103.506Z" fill="#7C7C7C"/>
<path d="M213.119 105.271C213.119 105.829 212.976 106.265 212.689 106.578C212.403 106.891 212.004 107.048 211.493 107.048C211.174 107.048 210.892 106.976 210.646 106.832C210.401 106.687 210.213 106.48 210.081 106.21C209.949 105.94 209.883 105.627 209.883 105.271C209.883 104.717 210.025 104.284 210.31 103.973C210.594 103.662 210.995 103.506 211.512 103.506C212.006 103.506 212.398 103.666 212.686 103.985C212.975 104.302 213.119 104.731 213.119 105.271ZM210.631 105.271C210.631 106.06 210.923 106.454 211.506 106.454C212.083 106.454 212.371 106.06 212.371 105.271C212.371 104.49 212.081 104.099 211.499 104.099C211.195 104.099 210.973 104.2 210.835 104.402C210.699 104.604 210.631 104.894 210.631 105.271Z" fill="#7C7C7C"/>
<path d="M214.735 106.986L213.437 103.568H214.204L214.899 105.555C215.019 105.889 215.091 106.159 215.115 106.365H215.14C215.159 106.216 215.231 105.947 215.356 105.555L216.052 103.568H216.825L215.52 106.986H214.735Z" fill="#7C7C7C"/>
<path d="M219.482 106.986L219.337 106.51H219.312C219.148 106.718 218.982 106.86 218.815 106.937C218.648 107.011 218.434 107.048 218.172 107.048C217.836 107.048 217.573 106.957 217.384 106.776C217.196 106.595 217.103 106.338 217.103 106.006C217.103 105.654 217.233 105.388 217.495 105.209C217.757 105.03 218.156 104.932 218.691 104.915L219.282 104.897V104.714C219.282 104.496 219.23 104.333 219.127 104.226C219.026 104.117 218.868 104.062 218.654 104.062C218.479 104.062 218.311 104.088 218.15 104.14C217.99 104.191 217.835 104.252 217.687 104.322L217.452 103.803C217.637 103.706 217.84 103.633 218.061 103.583C218.281 103.532 218.489 103.506 218.685 103.506C219.12 103.506 219.447 103.601 219.668 103.79C219.89 103.98 220.002 104.278 220.002 104.684V106.986H219.482ZM218.401 106.492C218.664 106.492 218.876 106.418 219.034 106.272C219.195 106.124 219.275 105.917 219.275 105.651V105.354L218.836 105.373C218.494 105.385 218.245 105.443 218.089 105.546C217.934 105.647 217.857 105.802 217.857 106.013C217.857 106.165 217.902 106.283 217.993 106.368C218.083 106.45 218.219 106.492 218.401 106.492Z" fill="#7C7C7C"/>
<path d="M221.742 106.986H221.015V102.177H221.742V106.986Z" fill="#7C7C7C"/>
<path d="M108.578 106.986H107.672L105.45 103.386H105.425L105.441 103.586C105.47 103.97 105.484 104.32 105.484 104.637V106.986H104.813V102.468H105.71L107.926 106.05H107.944C107.94 106.002 107.932 105.83 107.919 105.533C107.907 105.235 107.901 105.002 107.901 104.835V102.468H108.578V106.986Z" fill="#52479C"/>
<path d="M111.186 107.048C110.655 107.048 110.238 106.893 109.938 106.584C109.639 106.273 109.489 105.846 109.489 105.302C109.489 104.743 109.629 104.304 109.907 103.985C110.185 103.666 110.567 103.506 111.053 103.506C111.505 103.506 111.861 103.643 112.123 103.917C112.384 104.191 112.515 104.568 112.515 105.048V105.441H110.237C110.248 105.772 110.337 106.028 110.506 106.207C110.675 106.384 110.913 106.473 111.22 106.473C111.422 106.473 111.61 106.454 111.783 106.417C111.958 106.378 112.145 106.314 112.345 106.226V106.816C112.168 106.901 111.989 106.96 111.807 106.995C111.626 107.03 111.419 107.048 111.186 107.048ZM111.053 104.056C110.823 104.056 110.637 104.129 110.497 104.276C110.359 104.422 110.277 104.635 110.25 104.915H111.801C111.797 104.633 111.729 104.42 111.597 104.276C111.465 104.129 111.284 104.056 111.053 104.056Z" fill="#52479C"/>
<path d="M114.833 107.048C114.301 107.048 113.885 106.893 113.584 106.584C113.286 106.273 113.136 105.846 113.136 105.302C113.136 104.743 113.275 104.304 113.554 103.985C113.832 103.666 114.214 103.506 114.7 103.506C115.151 103.506 115.508 103.643 115.77 103.917C116.031 104.191 116.162 104.568 116.162 105.048V105.441H113.884C113.895 105.772 113.984 106.028 114.153 106.207C114.322 106.384 114.56 106.473 114.867 106.473C115.069 106.473 115.256 106.454 115.43 106.417C115.605 106.378 115.792 106.314 115.992 106.226V106.816C115.815 106.901 115.636 106.96 115.454 106.995C115.273 107.03 115.066 107.048 114.833 107.048ZM114.7 104.056C114.469 104.056 114.284 104.129 114.144 104.276C114.006 104.422 113.923 104.635 113.897 104.915H115.448C115.444 104.633 115.376 104.42 115.244 104.276C115.112 104.129 114.931 104.056 114.7 104.056Z" fill="#52479C"/>
<path d="M118.14 107.048C117.713 107.048 117.381 106.893 117.142 106.584C116.903 106.275 116.783 105.841 116.783 105.283C116.783 104.723 116.904 104.287 117.145 103.976C117.388 103.663 117.724 103.506 118.152 103.506C118.601 103.506 118.944 103.672 119.178 104.004H119.215C119.18 103.758 119.163 103.565 119.163 103.423V102.177H119.892V106.986H119.324L119.197 106.538H119.163C118.93 106.878 118.589 107.048 118.14 107.048ZM118.335 106.461C118.633 106.461 118.851 106.377 118.987 106.21C119.123 106.041 119.193 105.768 119.197 105.391V105.289C119.197 104.859 119.127 104.553 118.987 104.371C118.847 104.19 118.627 104.099 118.328 104.099C118.073 104.099 117.876 104.204 117.738 104.412C117.6 104.618 117.531 104.912 117.531 105.295C117.531 105.675 117.598 105.964 117.732 106.164C117.866 106.362 118.067 106.461 118.335 106.461Z" fill="#52479C"/>
<path d="M123.227 106.013C123.227 106.346 123.105 106.603 122.862 106.782C122.619 106.959 122.271 107.048 121.818 107.048C121.362 107.048 120.997 106.979 120.721 106.841V106.213C121.122 106.399 121.496 106.492 121.842 106.492C122.29 106.492 122.513 106.357 122.513 106.087C122.513 106 122.488 105.928 122.439 105.87C122.389 105.813 122.308 105.753 122.195 105.691C122.081 105.629 121.924 105.559 121.722 105.481C121.328 105.328 121.062 105.176 120.921 105.024C120.783 104.871 120.714 104.673 120.714 104.43C120.714 104.138 120.832 103.911 121.067 103.75C121.304 103.587 121.625 103.506 122.031 103.506C122.433 103.506 122.813 103.587 123.171 103.75L122.937 104.297C122.568 104.145 122.258 104.069 122.006 104.069C121.623 104.069 121.431 104.178 121.431 104.396C121.431 104.503 121.481 104.594 121.58 104.668C121.681 104.742 121.899 104.844 122.235 104.974C122.517 105.083 122.722 105.183 122.85 105.274C122.978 105.365 123.072 105.47 123.134 105.589C123.196 105.707 123.227 105.848 123.227 106.013Z" fill="#52479C"/>
<path d="M128.311 102.468H129.077L127.495 106.986H126.716L125.14 102.468H125.9L126.843 105.277C126.892 105.411 126.945 105.584 127.001 105.796C127.056 106.006 127.092 106.163 127.109 106.266C127.136 106.109 127.177 105.928 127.232 105.722C127.288 105.516 127.333 105.363 127.368 105.265L128.311 102.468Z" fill="#52479C"/>
<path d="M131.735 106.986L131.59 106.51H131.565C131.401 106.718 131.235 106.86 131.068 106.937C130.901 107.011 130.687 107.048 130.425 107.048C130.089 107.048 129.826 106.957 129.637 106.776C129.449 106.595 129.356 106.338 129.356 106.006C129.356 105.654 129.486 105.388 129.748 105.209C130.01 105.03 130.408 104.932 130.944 104.915L131.534 104.897V104.714C131.534 104.496 131.483 104.333 131.38 104.226C131.279 104.117 131.121 104.062 130.907 104.062C130.732 104.062 130.564 104.088 130.403 104.14C130.243 104.191 130.088 104.252 129.94 104.322L129.705 103.803C129.89 103.706 130.093 103.633 130.314 103.583C130.534 103.532 130.742 103.506 130.938 103.506C131.373 103.506 131.7 103.601 131.921 103.79C132.143 103.98 132.255 104.278 132.255 104.684V106.986H131.735ZM130.654 106.492C130.917 106.492 131.129 106.418 131.287 106.272C131.448 106.124 131.528 105.917 131.528 105.651V105.354L131.089 105.373C130.747 105.385 130.498 105.443 130.341 105.546C130.187 105.647 130.11 105.802 130.11 106.013C130.11 106.165 130.155 106.283 130.246 106.368C130.336 106.45 130.472 106.492 130.654 106.492Z" fill="#52479C"/>
<path d="M133.995 106.986H133.268V102.177H133.995V106.986Z" fill="#52479C"/>
<path d="M135.762 106.986H135.036V103.568H135.762V106.986ZM134.993 102.662C134.993 102.533 135.028 102.433 135.098 102.363C135.17 102.293 135.272 102.257 135.404 102.257C135.532 102.257 135.63 102.293 135.701 102.363C135.773 102.433 135.809 102.533 135.809 102.662C135.809 102.786 135.773 102.884 135.701 102.956C135.63 103.026 135.532 103.061 135.404 103.061C135.272 103.061 135.17 103.026 135.098 102.956C135.028 102.884 134.993 102.786 134.993 102.662Z" fill="#52479C"/>
<path d="M137.957 107.048C137.53 107.048 137.197 106.893 136.958 106.584C136.719 106.275 136.6 105.841 136.6 105.283C136.6 104.723 136.72 104.287 136.961 103.976C137.205 103.663 137.54 103.506 137.969 103.506C138.418 103.506 138.76 103.672 138.995 104.004H139.032C138.997 103.758 138.98 103.565 138.98 103.423V102.177H139.709V106.986H139.14L139.014 106.538H138.98C138.747 106.878 138.406 107.048 137.957 107.048ZM138.151 106.461C138.45 106.461 138.667 106.377 138.803 106.21C138.939 106.041 139.009 105.768 139.014 105.391V105.289C139.014 104.859 138.944 104.553 138.803 104.371C138.663 104.19 138.444 104.099 138.145 104.099C137.89 104.099 137.693 104.204 137.555 104.412C137.417 104.618 137.348 104.912 137.348 105.295C137.348 105.675 137.415 105.964 137.549 106.164C137.683 106.362 137.883 106.461 138.151 106.461Z" fill="#52479C"/>
<path d="M142.886 106.986L142.741 106.51H142.716C142.551 106.718 142.385 106.86 142.219 106.937C142.052 107.011 141.837 107.048 141.576 107.048C141.24 107.048 140.977 106.957 140.788 106.776C140.6 106.595 140.506 106.338 140.506 106.006C140.506 105.654 140.637 105.388 140.899 105.209C141.161 105.03 141.559 104.932 142.095 104.915L142.685 104.897V104.714C142.685 104.496 142.634 104.333 142.531 104.226C142.43 104.117 142.272 104.062 142.058 104.062C141.883 104.062 141.715 104.088 141.554 104.14C141.393 104.191 141.239 104.252 141.09 104.322L140.856 103.803C141.041 103.706 141.244 103.633 141.464 103.583C141.685 103.532 141.893 103.506 142.089 103.506C142.523 103.506 142.851 103.601 143.072 103.79C143.294 103.98 143.405 104.278 143.405 104.684V106.986H142.886ZM141.804 106.492C142.068 106.492 142.279 106.418 142.438 106.272C142.599 106.124 142.679 105.917 142.679 105.651V105.354L142.24 105.373C141.898 105.385 141.649 105.443 141.492 105.546C141.338 105.647 141.26 105.802 141.26 106.013C141.26 106.165 141.306 106.283 141.396 106.368C141.487 106.45 141.623 106.492 141.804 106.492Z" fill="#52479C"/>
<path d="M145.692 106.461C145.869 106.461 146.047 106.433 146.224 106.377V106.924C146.144 106.959 146.039 106.988 145.912 107.011C145.786 107.035 145.655 107.048 145.519 107.048C144.831 107.048 144.487 106.685 144.487 105.96V104.118H144.02V103.797L144.521 103.531L144.768 102.808H145.216V103.568H146.19V104.118H145.216V105.948C145.216 106.123 145.26 106.253 145.346 106.337C145.435 106.419 145.55 106.461 145.692 106.461Z" fill="#52479C"/>
<path d="M147.636 106.986H146.91V103.568H147.636V106.986ZM146.867 102.662C146.867 102.533 146.902 102.433 146.972 102.363C147.044 102.293 147.146 102.257 147.278 102.257C147.405 102.257 147.504 102.293 147.574 102.363C147.647 102.433 147.683 102.533 147.683 102.662C147.683 102.786 147.647 102.884 147.574 102.956C147.504 103.026 147.405 103.061 147.278 103.061C147.146 103.061 147.044 103.026 146.972 102.956C146.902 102.884 146.867 102.786 146.867 102.662Z" fill="#52479C"/>
<path d="M151.71 105.271C151.71 105.829 151.566 106.265 151.28 106.578C150.994 106.891 150.595 107.048 150.084 107.048C149.765 107.048 149.482 106.976 149.237 106.832C148.992 106.687 148.803 106.48 148.672 106.21C148.54 105.94 148.474 105.627 148.474 105.271C148.474 104.717 148.616 104.284 148.9 103.973C149.185 103.662 149.585 103.506 150.103 103.506C150.597 103.506 150.988 103.666 151.277 103.985C151.565 104.302 151.71 104.731 151.71 105.271ZM149.222 105.271C149.222 106.06 149.513 106.454 150.096 106.454C150.673 106.454 150.962 106.06 150.962 105.271C150.962 104.49 150.671 104.099 150.09 104.099C149.785 104.099 149.564 104.2 149.426 104.402C149.29 104.604 149.222 104.894 149.222 105.271Z" fill="#52479C"/>
<path d="M155.554 106.986H154.825V104.884C154.825 104.621 154.771 104.424 154.664 104.294C154.559 104.164 154.391 104.099 154.16 104.099C153.853 104.099 153.629 104.19 153.487 104.371C153.345 104.553 153.273 104.857 153.273 105.283V106.986H152.547V103.568H153.116L153.218 104.016H153.255C153.358 103.853 153.504 103.728 153.694 103.639C153.883 103.55 154.093 103.506 154.324 103.506C155.144 103.506 155.554 103.923 155.554 104.758V106.986Z" fill="#52479C"/>
<rect x="104.217" y="111.338" width="51.8225" height="2.37355" rx="1.18677" fill="#52479C"/>
<rect x="97.9863" y="145.457" width="333.286" height="0.197796" rx="0.0988979" fill="white" stroke="#DFDFDF" stroke-width="0.197796"/>
<rect x="97.9863" y="118.557" width="333.286" height="0.197796" rx="0.0988979" fill="white" stroke="#DFDFDF" stroke-width="0.197796"/>
<rect x="149.814" y="126.079" width="38.9547" height="12.4501" rx="3.5" fill="white" stroke="#CFCFCF"/>
<rect x="199.263" y="126.079" width="38.9547" height="12.4501" rx="3.5" fill="white" stroke="#CFCFCF"/>
<rect x="203.115" y="129.139" width="24.5267" height="5.93387" rx="2.96694" fill="#ECECEC"/>
<rect x="153.666" y="129.139" width="24.5267" height="5.93387" rx="2.96694" fill="#ECECEC"/>
<path d="M192.504 139.508V138.336H195.516V139.508H192.504Z" fill="#CFCFCF"/>
<rect x="104.717" y="126.079" width="37.768" height="12.4501" rx="3.5" fill="white" stroke="#CFCFCF"/>
<rect x="108.569" y="129.93" width="24.5267" height="5.93387" rx="2.96694" fill="#ECECEC"/>
<path d="M136.538 132.221L137.447 133.129L138.355 132.221L138.634 132.499L137.447 133.686L136.26 132.499L136.538 132.221Z" fill="#CFCFCF"/>
<rect x="245.548" y="126.079" width="69.8109" height="12.4501" rx="3.5" fill="white" stroke="#CFCFCF"/>
<path fill-rule="evenodd" clip-rule="evenodd" d="M252.406 132.617H252.627L254.025 134.018L253.608 134.436L252.207 133.037V132.816L252.131 132.738C251.811 133.012 251.397 133.178 250.946 133.178C249.94 133.178 249.124 132.362 249.124 131.356C249.124 130.35 249.94 129.535 250.946 129.535C251.952 129.535 252.767 130.35 252.767 131.356C252.767 131.807 252.602 132.222 252.327 132.541L252.406 132.617ZM249.685 131.356C249.685 132.054 250.248 132.617 250.946 132.617C251.643 132.617 252.207 132.054 252.207 131.356C252.207 130.658 251.643 130.095 250.946 130.095C250.248 130.095 249.685 130.658 249.685 131.356Z" fill="#B1B1B1"/>
<path d="M232.586 131.707H232.188V132.106H232.586V131.707ZM233.375 131.707H232.985V132.106H233.375V131.707ZM234.172 131.707H233.773V132.106H234.172V131.707ZM234.561 130.326H234.367V129.927H233.968V130.326H232.392V129.927H231.993V130.326H231.798C231.681 130.326 231.585 130.366 231.511 130.446C231.437 130.521 231.4 130.613 231.4 130.725V133.488C231.4 133.599 231.437 133.695 231.511 133.775C231.591 133.849 231.687 133.886 231.798 133.886H234.561C234.673 133.886 234.765 133.849 234.839 133.775C234.92 133.695 234.96 133.599 234.96 133.488V130.725C234.96 130.613 234.92 130.521 234.839 130.446C234.765 130.366 234.673 130.326 234.561 130.326ZM234.561 133.488H231.798V131.318H234.561V133.488Z" fill="#CFCFCF"/>
<path d="M183.137 131.707H182.739V132.106H183.137V131.707ZM183.926 131.707H183.536V132.106H183.926V131.707ZM184.723 131.707H184.324V132.106H184.723V131.707ZM185.112 130.326H184.918V129.927H184.519V130.326H182.943V129.927H182.544V130.326H182.349C182.232 130.326 182.136 130.366 182.062 130.446C181.988 130.521 181.951 130.613 181.951 130.725V133.488C181.951 133.599 181.988 133.695 182.062 133.775C182.142 133.849 182.238 133.886 182.349 133.886H185.112C185.224 133.886 185.316 133.849 185.39 133.775C185.471 133.695 185.511 133.599 185.511 133.488V130.725C185.511 130.613 185.471 130.521 185.39 130.446C185.316 130.366 185.224 130.326 185.112 130.326ZM185.112 133.488H182.349V131.318H185.112V133.488Z" fill="#CFCFCF"/>
<rect x="104.316" y="164.446" width="320.627" height="0.197796" rx="0.0988979" fill="white" stroke="#DFDFDF" stroke-width="0.197796"/>
<g filter="url(#filter1_d)">
<rect x="97.8875" y="49.2297" width="333.484" height="36.79" rx="4" fill="white"/>
</g>
<path d="M105.112 76.5255V69.7479H106.22V76.5255H105.112Z" fill="#777777"/>
<path d="M113.526 73.0718C113.526 74.1905 113.215 75.0466 112.594 75.64C111.973 76.2303 111.078 76.5255 109.91 76.5255H108.014V69.7479H110.109C111.188 69.7479 112.027 70.0384 112.627 70.6194C113.226 71.2004 113.526 72.0179 113.526 73.0718ZM112.358 73.1088C112.358 71.4863 111.599 70.675 110.081 70.675H109.122V75.5937H109.91C111.542 75.5937 112.358 74.7654 112.358 73.1088Z" fill="#777777"/>
<path d="M116.094 72.9002H116.864C117.38 72.9002 117.754 72.8044 117.986 72.6128C118.217 72.4212 118.333 72.1369 118.333 71.7598C118.333 71.3766 118.208 71.1015 117.958 70.9346C117.707 70.7677 117.33 70.6843 116.827 70.6843H116.094V72.9002ZM116.094 73.8181V76.5255H114.986V69.7479H116.901C117.775 69.7479 118.423 69.9117 118.843 70.2393C119.263 70.5669 119.474 71.0613 119.474 71.7227C119.474 72.5664 119.035 73.1676 118.157 73.5261L120.072 76.5255H118.811L117.188 73.8181H116.094Z" fill="#777777"/>
<path d="M129.853 71.3055C129.853 71.7351 129.728 72.0936 129.478 72.381C129.227 72.6653 128.875 72.857 128.421 72.9559V72.9929C128.965 73.0609 129.373 73.2309 129.645 73.5029C129.917 73.7718 130.053 74.1303 130.053 74.5784C130.053 75.2305 129.822 75.7343 129.362 76.0897C128.901 76.442 128.246 76.6182 127.396 76.6182C126.645 76.6182 126.012 76.4961 125.496 76.2519V75.2831C125.783 75.4252 126.087 75.5349 126.409 75.6122C126.73 75.6895 127.039 75.7281 127.336 75.7281C127.861 75.7281 128.254 75.6307 128.514 75.436C128.773 75.2413 128.903 74.94 128.903 74.532C128.903 74.1704 128.759 73.9047 128.472 73.7347C128.184 73.5647 127.733 73.4797 127.118 73.4797H126.529V72.5943H127.127C128.209 72.5943 128.75 72.2203 128.75 71.4724C128.75 71.1819 128.656 70.9578 128.467 70.8002C128.279 70.6426 128 70.5638 127.633 70.5638C127.376 70.5638 127.129 70.6009 126.891 70.675C126.653 70.7461 126.372 70.8867 126.047 71.0969L125.514 70.3366C126.135 69.8792 126.857 69.6505 127.679 69.6505C128.362 69.6505 128.895 69.7973 129.278 70.0909C129.662 70.3845 129.853 70.7894 129.853 71.3055Z" fill="#777777"/>
<path d="M133.237 72.2929C133.92 72.2929 134.461 72.4737 134.86 72.8353C135.259 73.1969 135.458 73.6899 135.458 74.3142C135.458 75.0374 135.231 75.6029 134.777 76.0109C134.325 76.4157 133.682 76.6182 132.848 76.6182C132.091 76.6182 131.496 76.4961 131.063 76.2519V75.2645C131.314 75.4067 131.601 75.5164 131.926 75.5937C132.25 75.6709 132.551 75.7095 132.829 75.7095C133.321 75.7095 133.695 75.5998 133.951 75.3804C134.208 75.161 134.336 74.8396 134.336 74.4161C134.336 73.6064 133.82 73.2016 132.788 73.2016C132.643 73.2016 132.463 73.217 132.25 73.2479C132.037 73.2757 131.85 73.3082 131.689 73.3453L131.202 73.0578L131.462 69.7479H134.985V70.7167H132.422L132.269 72.3949C132.377 72.3764 132.508 72.3547 132.663 72.33C132.82 72.3053 133.012 72.2929 133.237 72.2929Z" fill="#777777"/>
<path d="M140.956 73.1367C140.956 74.3142 140.766 75.1888 140.386 75.7605C140.009 76.3323 139.431 76.6182 138.652 76.6182C137.898 76.6182 137.326 76.323 136.937 75.7327C136.547 75.1424 136.353 74.2771 136.353 73.1367C136.353 71.9406 136.541 71.0598 136.918 70.4942C137.298 69.9256 137.876 69.6412 138.652 69.6412C139.409 69.6412 139.983 69.9379 140.372 70.5313C140.761 71.1247 140.956 71.9932 140.956 73.1367ZM137.456 73.1367C137.456 74.0607 137.55 74.7206 137.739 75.1162C137.93 75.5118 138.235 75.7095 138.652 75.7095C139.069 75.7095 139.374 75.5087 139.565 75.1069C139.76 74.7051 139.857 74.0484 139.857 73.1367C139.857 72.228 139.76 71.5713 139.565 71.1664C139.374 70.7585 139.069 70.5545 138.652 70.5545C138.235 70.5545 137.93 70.7538 137.739 71.1525C137.55 71.5512 137.456 72.2126 137.456 73.1367Z" fill="#777777"/>
<path d="M141.985 75.946C141.985 75.7204 142.044 75.5473 142.161 75.4268C142.279 75.3062 142.449 75.246 142.671 75.246C142.897 75.246 143.069 75.3093 143.186 75.436C143.303 75.5597 143.362 75.7296 143.362 75.946C143.362 76.1654 143.302 76.34 143.181 76.4698C143.064 76.5965 142.894 76.6599 142.671 76.6599C142.449 76.6599 142.279 76.5965 142.161 76.4698C142.044 76.3431 141.985 76.1685 141.985 75.946Z" fill="#777777"/>
<path d="M148.995 73.1367C148.995 74.3142 148.805 75.1888 148.424 75.7605C148.047 76.3323 147.469 76.6182 146.691 76.6182C145.937 76.6182 145.365 76.323 144.975 75.7327C144.586 75.1424 144.391 74.2771 144.391 73.1367C144.391 71.9406 144.58 71.0598 144.957 70.4942C145.337 69.9256 145.915 69.6412 146.691 69.6412C147.448 69.6412 148.021 69.9379 148.411 70.5313C148.8 71.1247 148.995 71.9932 148.995 73.1367ZM145.495 73.1367C145.495 74.0607 145.589 74.7206 145.777 75.1162C145.969 75.5118 146.273 75.7095 146.691 75.7095C147.108 75.7095 147.412 75.5087 147.604 75.1069C147.799 74.7051 147.896 74.0484 147.896 73.1367C147.896 72.228 147.799 71.5713 147.604 71.1664C147.412 70.7585 147.108 70.5545 146.691 70.5545C146.273 70.5545 145.969 70.7538 145.777 71.1525C145.589 71.5512 145.495 72.2126 145.495 73.1367Z" fill="#777777"/>
<path d="M154.419 73.1367C154.419 74.3142 154.229 75.1888 153.848 75.7605C153.471 76.3323 152.893 76.6182 152.115 76.6182C151.36 76.6182 150.789 76.323 150.399 75.7327C150.01 75.1424 149.815 74.2771 149.815 73.1367C149.815 71.9406 150.004 71.0598 150.381 70.4942C150.761 69.9256 151.339 69.6412 152.115 69.6412C152.872 69.6412 153.445 69.9379 153.834 70.5313C154.224 71.1247 154.419 71.9932 154.419 73.1367ZM150.919 73.1367C150.919 74.0607 151.013 74.7206 151.201 75.1162C151.393 75.5118 151.697 75.7095 152.115 75.7095C152.532 75.7095 152.836 75.5087 153.028 75.1069C153.223 74.7051 153.32 74.0484 153.32 73.1367C153.32 72.228 153.223 71.5713 153.028 71.1664C152.836 70.7585 152.532 70.5545 152.115 70.5545C151.697 70.5545 151.393 70.7538 151.201 71.1525C151.013 71.5512 150.919 72.2126 150.919 73.1367Z" fill="#777777"/>
<path d="M159.843 73.1367C159.843 74.3142 159.652 75.1888 159.272 75.7605C158.895 76.3323 158.317 76.6182 157.539 76.6182C156.784 76.6182 156.213 76.323 155.823 75.7327C155.434 75.1424 155.239 74.2771 155.239 73.1367C155.239 71.9406 155.428 71.0598 155.805 70.4942C156.185 69.9256 156.763 69.6412 157.539 69.6412C158.296 69.6412 158.869 69.9379 159.258 70.5313C159.648 71.1247 159.843 71.9932 159.843 73.1367ZM156.342 73.1367C156.342 74.0607 156.437 74.7206 156.625 75.1162C156.817 75.5118 157.121 75.7095 157.539 75.7095C157.956 75.7095 158.26 75.5087 158.452 75.1069C158.646 74.7051 158.744 74.0484 158.744 73.1367C158.744 72.228 158.646 71.5713 158.452 71.1664C158.26 70.7585 157.956 70.5545 157.539 70.5545C157.121 70.5545 156.817 70.7538 156.625 71.1525C156.437 71.5512 156.342 72.2126 156.342 73.1367Z" fill="#777777"/>
<path d="M160.872 75.946C160.872 75.7204 160.93 75.5473 161.048 75.4268C161.165 75.3062 161.335 75.246 161.558 75.246C161.783 75.246 161.955 75.3093 162.072 75.436C162.19 75.5597 162.249 75.7296 162.249 75.946C162.249 76.1654 162.188 76.34 162.068 76.4698C161.95 76.5965 161.78 76.6599 161.558 76.6599C161.335 76.6599 161.165 76.5965 161.048 76.4698C160.93 76.3431 160.872 76.1685 160.872 75.946Z" fill="#777777"/>
<path d="M167.881 73.1367C167.881 74.3142 167.691 75.1888 167.311 75.7605C166.934 76.3323 166.356 76.6182 165.577 76.6182C164.823 76.6182 164.251 76.323 163.862 75.7327C163.472 75.1424 163.278 74.2771 163.278 73.1367C163.278 71.9406 163.466 71.0598 163.843 70.4942C164.223 69.9256 164.801 69.6412 165.577 69.6412C166.334 69.6412 166.908 69.9379 167.297 70.5313C167.686 71.1247 167.881 71.9932 167.881 73.1367ZM164.381 73.1367C164.381 74.0607 164.475 74.7206 164.664 75.1162C164.855 75.5118 165.16 75.7095 165.577 75.7095C165.994 75.7095 166.299 75.5087 166.49 75.1069C166.685 74.7051 166.782 74.0484 166.782 73.1367C166.782 72.228 166.685 71.5713 166.49 71.1664C166.299 70.7585 165.994 70.5545 165.577 70.5545C165.16 70.5545 164.855 70.7538 164.664 71.1525C164.475 71.5512 164.381 72.2126 164.381 73.1367Z" fill="#777777"/>
<path d="M173.305 73.1367C173.305 74.3142 173.115 75.1888 172.735 75.7605C172.358 76.3323 171.78 76.6182 171.001 76.6182C170.247 76.6182 169.675 76.323 169.286 75.7327C168.896 75.1424 168.702 74.2771 168.702 73.1367C168.702 71.9406 168.89 71.0598 169.267 70.4942C169.647 69.9256 170.225 69.6412 171.001 69.6412C171.758 69.6412 172.331 69.9379 172.721 70.5313C173.11 71.1247 173.305 71.9932 173.305 73.1367ZM169.805 73.1367C169.805 74.0607 169.899 74.7206 170.088 75.1162C170.279 75.5118 170.584 75.7095 171.001 75.7095C171.418 75.7095 171.723 75.5087 171.914 75.1069C172.109 74.7051 172.206 74.0484 172.206 73.1367C172.206 72.228 172.109 71.5713 171.914 71.1664C171.723 70.7585 171.418 70.5545 171.001 70.5545C170.584 70.5545 170.279 70.7538 170.088 71.1525C169.899 71.5512 169.805 72.2126 169.805 73.1367Z" fill="#777777"/>
<path d="M178.729 73.1367C178.729 74.3142 178.539 75.1888 178.159 75.7605C177.782 76.3323 177.204 76.6182 176.425 76.6182C175.671 76.6182 175.099 76.323 174.71 75.7327C174.32 75.1424 174.126 74.2771 174.126 73.1367C174.126 71.9406 174.314 71.0598 174.691 70.4942C175.071 69.9256 175.649 69.6412 176.425 69.6412C177.182 69.6412 177.755 69.9379 178.145 70.5313C178.534 71.1247 178.729 71.9932 178.729 73.1367ZM175.229 73.1367C175.229 74.0607 175.323 74.7206 175.512 75.1162C175.703 75.5118 176.008 75.7095 176.425 75.7095C176.842 75.7095 177.147 75.5087 177.338 75.1069C177.533 74.7051 177.63 74.0484 177.63 73.1367C177.63 72.228 177.533 71.5713 177.338 71.1664C177.147 70.7585 176.842 70.5545 176.425 70.5545C176.008 70.5545 175.703 70.7538 175.512 71.1525C175.323 71.5512 175.229 72.2126 175.229 73.1367Z" fill="#777777"/>
<path d="M106.09 59.8273L107.159 57.7659H107.963L106.458 60.5319V62.2843H105.716V60.5566L104.217 57.7659H105.021L106.09 59.8273Z" fill="#9B9B9B"/>
<path d="M111.514 60.569C111.514 61.1274 111.371 61.5631 111.084 61.8763C110.798 62.1895 110.399 62.3461 109.888 62.3461C109.569 62.3461 109.287 62.2739 109.041 62.1297C108.796 61.9855 108.608 61.7784 108.476 61.5085C108.344 61.2386 108.278 60.9254 108.278 60.569C108.278 60.0148 108.42 59.5821 108.705 59.271C108.989 58.9598 109.39 58.8043 109.907 58.8043C110.401 58.8043 110.793 58.964 111.081 59.2833C111.37 59.6006 111.514 60.0292 111.514 60.569ZM109.026 60.569C109.026 61.3581 109.317 61.7527 109.901 61.7527C110.477 61.7527 110.766 61.3581 110.766 60.569C110.766 59.7881 110.475 59.3977 109.894 59.3977C109.589 59.3977 109.368 59.4986 109.23 59.7005C109.094 59.9025 109.026 60.1919 109.026 60.569Z" fill="#9B9B9B"/>
<path d="M114.762 62.2843L114.66 61.8361H114.623C114.522 61.9948 114.378 62.1194 114.19 62.2101C114.005 62.3007 113.793 62.3461 113.554 62.3461C113.139 62.3461 112.83 62.243 112.626 62.037C112.422 61.831 112.32 61.5188 112.32 61.1006V58.8661H113.053V60.9739C113.053 61.2355 113.107 61.4323 113.214 61.5642C113.321 61.694 113.489 61.7589 113.717 61.7589C114.022 61.7589 114.246 61.6682 114.388 61.4869C114.532 61.3035 114.604 60.9975 114.604 60.569V58.8661H115.334V62.2843H114.762Z" fill="#9B9B9B"/>
<path d="M118.103 58.8043C118.249 58.8043 118.37 58.8146 118.465 58.8352L118.393 59.512C118.29 59.4873 118.183 59.4749 118.072 59.4749C117.782 59.4749 117.546 59.5697 117.364 59.7593C117.185 59.9488 117.095 60.195 117.095 60.4979V62.2843H116.369V58.8661H116.938L117.034 59.4688H117.071C117.184 59.2648 117.331 59.103 117.513 58.9835C117.696 58.864 117.893 58.8043 118.103 58.8043Z" fill="#9B9B9B"/>
<path d="M122.745 58.3345C122.321 58.3345 121.987 58.4849 121.744 58.7857C121.5 59.0866 121.379 59.5017 121.379 60.0312C121.379 60.5855 121.495 61.0048 121.728 61.2891C121.963 61.5734 122.302 61.7156 122.745 61.7156C122.937 61.7156 123.122 61.697 123.301 61.66C123.48 61.6208 123.667 61.5714 123.861 61.5116V62.1452C123.506 62.2791 123.104 62.3461 122.655 62.3461C121.994 62.3461 121.486 62.1462 121.132 61.7465C120.777 61.3447 120.6 60.7709 120.6 60.0251C120.6 59.5553 120.686 59.1442 120.857 58.7919C121.03 58.4396 121.279 58.1697 121.605 57.9822C121.93 57.7947 122.312 57.701 122.751 57.701C123.213 57.701 123.639 57.7978 124.031 57.9915L123.765 58.6065C123.612 58.5344 123.451 58.4715 123.28 58.418C123.111 58.3623 122.932 58.3345 122.745 58.3345Z" fill="#9B9B9B"/>
<path d="M126.896 62.2843L126.75 61.8083H126.726C126.561 62.0164 126.395 62.1586 126.228 62.2348C126.061 62.309 125.847 62.3461 125.585 62.3461C125.249 62.3461 124.987 62.2554 124.797 62.0741C124.61 61.8928 124.516 61.6363 124.516 61.3045C124.516 60.9522 124.647 60.6864 124.908 60.5072C125.17 60.3279 125.569 60.2301 126.104 60.2136L126.695 60.195V60.0127C126.695 59.7943 126.643 59.6315 126.54 59.5244C126.439 59.4152 126.282 59.3606 126.067 59.3606C125.892 59.3606 125.724 59.3863 125.564 59.4378C125.403 59.4894 125.248 59.5501 125.1 59.6202L124.865 59.101C125.05 59.0041 125.253 58.931 125.474 58.8815C125.694 58.83 125.902 58.8043 126.098 58.8043C126.533 58.8043 126.861 58.8991 127.081 59.0886C127.304 59.2782 127.415 59.5759 127.415 59.9818V62.2843H126.896ZM125.814 61.7898C126.078 61.7898 126.289 61.7166 126.447 61.5703C126.608 61.422 126.688 61.2149 126.688 60.9491V60.6524L126.25 60.671C125.908 60.6833 125.658 60.741 125.502 60.8441C125.347 60.945 125.27 61.1006 125.27 61.3107C125.27 61.4632 125.315 61.5817 125.406 61.6661C125.497 61.7486 125.633 61.7898 125.814 61.7898Z" fill="#9B9B9B"/>
<path d="M130.725 61.3107C130.725 61.6445 130.603 61.901 130.36 62.0803C130.117 62.2575 129.769 62.3461 129.315 62.3461C128.86 62.3461 128.494 62.277 128.218 62.139V61.5116C128.62 61.697 128.994 61.7898 129.34 61.7898C129.787 61.7898 130.011 61.6548 130.011 61.3849C130.011 61.2984 129.986 61.2262 129.937 61.1686C129.887 61.1109 129.806 61.0511 129.693 60.9893C129.579 60.9275 129.422 60.8574 129.22 60.7791C128.826 60.6267 128.559 60.4742 128.419 60.3217C128.281 60.1693 128.212 59.9715 128.212 59.7284C128.212 59.4358 128.33 59.2091 128.564 59.0484C128.801 58.8857 129.123 58.8043 129.529 58.8043C129.93 58.8043 130.311 58.8857 130.669 59.0484L130.434 59.5955C130.065 59.443 129.755 59.3668 129.504 59.3668C129.121 59.3668 128.929 59.476 128.929 59.6944C128.929 59.8015 128.979 59.8922 129.077 59.9663C129.178 60.0405 129.397 60.1425 129.733 60.2723C130.015 60.3815 130.22 60.4814 130.348 60.5721C130.475 60.6627 130.57 60.7678 130.632 60.8873C130.694 61.0048 130.725 61.1459 130.725 61.3107Z" fill="#9B9B9B"/>
<path d="M134.52 62.2843H133.791V60.1827C133.791 59.9189 133.737 59.7222 133.63 59.5924C133.525 59.4626 133.357 59.3977 133.126 59.3977C132.821 59.3977 132.597 59.4894 132.452 59.6727C132.31 59.854 132.239 60.159 132.239 60.5875V62.2843H131.513V57.4753H132.239V58.6961C132.239 58.8918 132.227 59.101 132.202 59.3235H132.248C132.347 59.1587 132.484 59.0309 132.659 58.9403C132.837 58.8496 133.043 58.8043 133.278 58.8043C134.106 58.8043 134.52 59.2215 134.52 60.056V62.2843Z" fill="#9B9B9B"/>
<path d="M137.252 57.7659H138.593C139.216 57.7659 139.665 57.8565 139.941 58.0378C140.219 58.2191 140.358 58.5055 140.358 58.897C140.358 59.1607 140.29 59.3802 140.154 59.5553C140.018 59.7304 139.822 59.8406 139.567 59.886V59.9169C139.884 59.9766 140.117 60.0951 140.265 60.2723C140.416 60.4474 140.491 60.6854 140.491 60.9862C140.491 61.3921 140.349 61.7104 140.064 61.9412C139.782 62.1699 139.389 62.2843 138.884 62.2843H137.252V57.7659ZM137.991 59.6326H138.701C139.011 59.6326 139.236 59.5841 139.378 59.4873C139.52 59.3884 139.592 59.2215 139.592 58.9866C139.592 58.7744 139.514 58.6209 139.36 58.5261C139.207 58.4314 138.964 58.384 138.63 58.384H137.991V59.6326ZM137.991 60.2321V61.663H138.776C139.085 61.663 139.318 61.6043 139.474 61.4869C139.633 61.3674 139.712 61.1799 139.712 60.9244C139.712 60.6895 139.632 60.5154 139.471 60.4021C139.31 60.2888 139.066 60.2321 138.739 60.2321H137.991Z" fill="#9B9B9B"/>
<path d="M143.492 62.2843L143.347 61.8083H143.322C143.157 62.0164 142.991 62.1586 142.824 62.2348C142.657 62.309 142.443 62.3461 142.181 62.3461C141.846 62.3461 141.583 62.2554 141.393 62.0741C141.206 61.8928 141.112 61.6363 141.112 61.3045C141.112 60.9522 141.243 60.6864 141.505 60.5072C141.766 60.3279 142.165 60.2301 142.701 60.2136L143.291 60.195V60.0127C143.291 59.7943 143.239 59.6315 143.136 59.5244C143.035 59.4152 142.878 59.3606 142.664 59.3606C142.488 59.3606 142.321 59.3863 142.16 59.4378C141.999 59.4894 141.845 59.5501 141.696 59.6202L141.461 59.101C141.647 59.0041 141.85 58.931 142.07 58.8815C142.291 58.83 142.499 58.8043 142.694 58.8043C143.129 58.8043 143.457 58.8991 143.677 59.0886C143.9 59.2782 144.011 59.5759 144.011 59.9818V62.2843H143.492ZM142.41 61.7898C142.674 61.7898 142.885 61.7166 143.044 61.5703C143.204 61.422 143.285 61.2149 143.285 60.9491V60.6524L142.846 60.671C142.504 60.6833 142.255 60.741 142.098 60.8441C141.943 60.945 141.866 61.1006 141.866 61.3107C141.866 61.4632 141.912 61.5817 142.002 61.6661C142.093 61.7486 142.229 61.7898 142.41 61.7898Z" fill="#9B9B9B"/>
<path d="M145.751 62.2843H145.025V57.4753H145.751V62.2843Z" fill="#9B9B9B"/>
<path d="M148.931 62.2843L148.786 61.8083H148.761C148.596 62.0164 148.431 62.1586 148.264 62.2348C148.097 62.309 147.883 62.3461 147.621 62.3461C147.285 62.3461 147.022 62.2554 146.833 62.0741C146.645 61.8928 146.552 61.6363 146.552 61.3045C146.552 60.9522 146.682 60.6864 146.944 60.5072C147.206 60.3279 147.604 60.2301 148.14 60.2136L148.73 60.195V60.0127C148.73 59.7943 148.679 59.6315 148.576 59.5244C148.475 59.4152 148.317 59.3606 148.103 59.3606C147.928 59.3606 147.76 59.3863 147.599 59.4378C147.439 59.4894 147.284 59.5501 147.136 59.6202L146.901 59.101C147.086 59.0041 147.289 58.931 147.51 58.8815C147.73 58.83 147.938 58.8043 148.134 58.8043C148.569 58.8043 148.896 58.8991 149.117 59.0886C149.339 59.2782 149.45 59.5759 149.45 59.9818V62.2843H148.931ZM147.85 61.7898C148.113 61.7898 148.324 61.7166 148.483 61.5703C148.644 61.422 148.724 61.2149 148.724 60.9491V60.6524L148.285 60.671C147.943 60.6833 147.694 60.741 147.537 60.8441C147.383 60.945 147.306 61.1006 147.306 61.3107C147.306 61.4632 147.351 61.5817 147.442 61.6661C147.532 61.7486 147.668 61.7898 147.85 61.7898Z" fill="#9B9B9B"/>
<path d="M153.471 62.2843H152.742V60.1827C152.742 59.9189 152.688 59.7222 152.581 59.5924C152.476 59.4626 152.308 59.3977 152.077 59.3977C151.77 59.3977 151.546 59.4883 151.404 59.6696C151.262 59.851 151.19 60.1549 151.19 60.5814V62.2843H150.464V58.8661H151.033L151.135 59.3142H151.172C151.275 59.1515 151.421 59.0258 151.611 58.9372C151.8 58.8486 152.01 58.8043 152.241 58.8043C153.061 58.8043 153.471 59.2215 153.471 60.056V62.2843Z" fill="#9B9B9B"/>
<path d="M155.86 62.3461C155.343 62.3461 154.95 62.1957 154.68 61.8948C154.412 61.592 154.278 61.1583 154.278 60.5937C154.278 60.0189 154.418 59.5769 154.698 59.2679C154.98 58.9588 155.387 58.8043 155.919 58.8043C156.28 58.8043 156.604 58.8712 156.893 59.0052L156.673 59.5893C156.366 59.4698 156.113 59.41 155.913 59.41C155.321 59.41 155.026 59.8025 155.026 60.5875C155.026 60.9708 155.099 61.2592 155.245 61.4529C155.394 61.6445 155.61 61.7403 155.894 61.7403C156.218 61.7403 156.524 61.66 156.812 61.4992V62.1328C156.682 62.209 156.543 62.2636 156.395 62.2966C156.249 62.3296 156.07 62.3461 155.86 62.3461Z" fill="#9B9B9B"/>
<path d="M159.108 62.3461C158.577 62.3461 158.161 62.1915 157.86 61.8825C157.561 61.5714 157.412 61.1438 157.412 60.5999C157.412 60.0415 157.551 59.6027 157.829 59.2833C158.107 58.964 158.489 58.8043 158.976 58.8043C159.427 58.8043 159.783 58.9413 160.045 59.2153C160.307 59.4894 160.437 59.8664 160.437 60.3465V60.739H158.16C158.17 61.0707 158.26 61.3262 158.429 61.5054C158.597 61.6826 158.835 61.7712 159.142 61.7712C159.344 61.7712 159.532 61.7527 159.705 61.7156C159.88 61.6764 160.068 61.6126 160.267 61.524V62.1143C160.09 62.1987 159.911 62.2585 159.73 62.2935C159.548 62.3285 159.341 62.3461 159.108 62.3461ZM158.976 59.3544C158.745 59.3544 158.559 59.4275 158.419 59.5738C158.281 59.7201 158.199 59.9334 158.172 60.2136H159.723C159.719 59.9313 159.651 59.7181 159.519 59.5738C159.388 59.4275 159.206 59.3544 158.976 59.3544Z" fill="#9B9B9B"/>
<g filter="url(#filter2_d)">
<rect x="85.2285" y="16" width="358.801" height="22.1531" fill="white"/>
</g>
<rect x="291.727" y="23.5162" width="28.4826" height="7.91183" rx="3.95592" fill="#ECECEC"/>
<rect x="256.915" y="23.5162" width="28.4826" height="7.91183" rx="3.95592" fill="#ECECEC"/>
<rect x="98.6787" y="21.9338" width="50.6357" height="11.0766" rx="4" fill="#ECECEC"/>
<rect x="16" y="16" width="69.2285" height="269.002" fill="#52479C"/>
<path fill-rule="evenodd" clip-rule="evenodd" d="M26.5936 24.5595C26.0611 24.2769 25.3802 24.4446 25.0727 24.9342L23.7507 27.0395C23.4432 27.529 23.6257 28.155 24.1582 28.4377C24.6907 28.7203 25.3716 28.5526 25.679 28.063L27.0011 25.9577C27.3085 25.4682 27.126 24.8422 26.5936 24.5595Z" fill="#52489C"/>
<path fill-rule="evenodd" clip-rule="evenodd" d="M34.285 28.0479C33.7525 28.3306 33.0716 28.1629 32.7642 27.6733L30.3984 23.906C30.0909 23.4164 30.2734 22.7904 30.8059 22.5078C31.3384 22.2251 32.0193 22.3929 32.3267 22.8824L34.6925 26.6497C34.9999 27.1393 34.8175 27.7653 34.285 28.0479Z" fill="url(#paint0_linear)"/>
<path fill-rule="evenodd" clip-rule="evenodd" d="M27.5642 29.392C28.0967 29.6746 28.7776 29.5069 29.085 29.0173L32.3206 23.865C32.628 23.3754 32.4456 22.7494 31.9131 22.4668C31.3806 22.1841 30.6997 22.3519 30.3923 22.8414L27.1567 27.9938C26.8492 28.4833 27.0317 29.1093 27.5642 29.392Z" fill="url(#paint1_linear)"/>
<path fill-rule="evenodd" clip-rule="evenodd" d="M28.6262 29.4358C28.0937 29.7185 27.4128 29.5507 27.1054 29.0612L25.1049 25.8756C24.7975 25.386 24.9799 24.76 25.5124 24.4774C26.0449 24.1947 26.7258 24.3625 27.0332 24.852L29.0337 28.0376C29.3412 28.5272 29.1587 29.1532 28.6262 29.4358Z" fill="url(#paint2_linear)"/>
<path fill-rule="evenodd" clip-rule="evenodd" d="M22.3293 29.5105C22.3293 28.9439 22.7886 28.4846 23.3552 28.4846C23.9218 28.4846 24.3811 28.9439 24.3811 29.5105C24.3811 30.077 23.9218 30.5363 23.3552 30.5363C22.7886 30.5363 22.3293 30.077 22.3293 29.5105Z" fill="url(#paint3_linear)"/>
<path fill-rule="evenodd" clip-rule="evenodd" d="M26.5936 24.5595C26.0611 24.2769 25.3802 24.4446 25.0727 24.9342L23.7507 27.0395C23.4432 27.529 23.6257 28.155 24.1582 28.4377C24.6907 28.7203 25.3716 28.5526 25.679 28.063L27.0011 25.9577C27.3085 25.4682 27.126 24.8422 26.5936 24.5595Z" fill="white"/>
<path fill-rule="evenodd" clip-rule="evenodd" d="M34.285 28.0479C33.7525 28.3306 33.0716 28.1629 32.7642 27.6733L30.3984 23.906C30.0909 23.4164 30.2734 22.7904 30.8059 22.5078C31.3384 22.2251 32.0193 22.3929 32.3267 22.8824L34.6925 26.6497C34.9999 27.1393 34.8175 27.7653 34.285 28.0479Z" fill="white"/>
<path fill-rule="evenodd" clip-rule="evenodd" d="M27.5642 29.392C28.0967 29.6746 28.7776 29.5069 29.085 29.0173L32.3206 23.865C32.628 23.3754 32.4456 22.7494 31.9131 22.4668C31.3806 22.1841 30.6997 22.3519 30.3923 22.8414L27.1567 27.9938C26.8492 28.4833 27.0317 29.1093 27.5642 29.392Z" fill="white"/>
<path fill-rule="evenodd" clip-rule="evenodd" d="M28.6262 29.4358C28.0937 29.7185 27.4128 29.5507 27.1054 29.0612L25.1049 25.8756C24.7975 25.386 24.9799 24.76 25.5124 24.4774C26.0449 24.1947 26.7258 24.3625 27.0332 24.852L29.0337 28.0376C29.3412 28.5272 29.1587 29.1532 28.6262 29.4358Z" fill="white"/>
<path fill-rule="evenodd" clip-rule="evenodd" d="M22.3293 29.5105C22.3293 28.9439 22.7886 28.4846 23.3552 28.4846C23.9218 28.4846 24.3811 28.9439 24.3811 29.5105C24.3811 30.077 23.9218 30.5363 23.3552 30.5363C22.7886 30.5363 22.3293 30.077 22.3293 29.5105Z" fill="white"/>
<path d="M38.4024 25.976V28.4745L38.73 28.4924V28.9683H37.3618V28.5161L37.5515 28.4983C37.6627 28.4864 37.7182 28.423 37.7182 28.3079V26.6542C37.7182 26.5868 37.7067 26.5412 37.6837 26.5174C37.6646 26.4936 37.6282 26.4817 37.5745 26.4817L37.3733 26.4698V25.976H38.4024ZM37.678 25.4644C37.5975 25.3812 37.5573 25.2761 37.5573 25.1492C37.5573 25.0223 37.5975 24.9172 37.678 24.8339C37.7585 24.7466 37.8639 24.703 37.9942 24.703C38.1245 24.703 38.2299 24.7466 38.3104 24.8339C38.3947 24.9172 38.4368 25.0223 38.4368 25.1492C38.4368 25.2761 38.3947 25.3812 38.3104 25.4644C38.2299 25.5438 38.1245 25.5834 37.9942 25.5834C37.8639 25.5834 37.7585 25.5438 37.678 25.4644Z" fill="white"/>
<path d="M39.0284 26.4519V25.976H39.9999V26.3627C40.0996 26.216 40.2318 26.101 40.3966 26.0177C40.5614 25.9304 40.7396 25.8868 40.9312 25.8868C41.2225 25.8868 41.4467 25.9741 41.6039 26.1485C41.7648 26.3191 41.8453 26.5769 41.8453 26.9219V28.4745L42.173 28.4924V28.9683H40.8048V28.5161L40.9945 28.4983C41.052 28.4904 41.0941 28.4745 41.121 28.4507C41.1478 28.423 41.1612 28.3734 41.1612 28.302V27.0766C41.1612 26.8584 41.1286 26.6978 41.0635 26.5947C40.9983 26.4876 40.8738 26.4341 40.6898 26.4341C40.5097 26.4341 40.3659 26.4936 40.2586 26.6125C40.1513 26.7315 40.0977 26.8723 40.0977 27.0349V28.4745L40.4254 28.4924V28.9683H39.0571V28.5161L39.2468 28.4983C39.3043 28.4904 39.3465 28.4745 39.3733 28.4507C39.4001 28.423 39.4136 28.3734 39.4136 28.302V26.6542C39.4136 26.5352 39.3657 26.4737 39.2698 26.4698L39.0284 26.4519Z" fill="white"/>
<path d="M44.0161 26.4281C43.9241 26.3924 43.813 26.3746 43.6827 26.3746C43.5524 26.3746 43.447 26.4063 43.3665 26.4698C43.2898 26.5293 43.2515 26.6046 43.2515 26.6958C43.2515 26.7831 43.2649 26.8525 43.2918 26.904C43.3224 26.9516 43.3684 26.9933 43.4297 27.029C43.5255 27.0805 43.6405 27.1261 43.7747 27.1658C43.9088 27.2015 44.0084 27.2312 44.0736 27.255C44.1388 27.2748 44.2192 27.3105 44.3151 27.3621C44.4147 27.4136 44.4894 27.4692 44.5393 27.5287C44.6734 27.6754 44.7405 27.8638 44.7405 28.0938C44.7405 28.3912 44.6351 28.6252 44.4243 28.7957C44.2173 28.9623 43.9529 29.0456 43.6309 29.0456C43.1634 29.0456 42.8108 28.9841 42.5732 28.8612V28.0343L43.0906 27.9927V28.2782C43.0906 28.4527 43.2515 28.5399 43.5735 28.5399C43.8954 28.5399 44.0564 28.419 44.0564 28.1771C44.0564 28.0898 44.0276 28.0184 43.9701 27.9629C43.9165 27.9074 43.8628 27.8697 43.8092 27.8499C43.7555 27.8301 43.6903 27.8102 43.6137 27.7904C43.5409 27.7706 43.4681 27.7507 43.3952 27.7309C43.3263 27.7111 43.2496 27.6853 43.1653 27.6536C43.0848 27.6179 42.9947 27.5683 42.8951 27.5049C42.6996 27.374 42.6019 27.1559 42.6019 26.8505C42.6019 26.5412 42.7073 26.3032 42.9181 26.1367C43.1289 25.9701 43.3933 25.8868 43.7114 25.8868C44.0334 25.8868 44.3515 25.9661 44.6657 26.1248V26.8386L44.1483 26.8802V26.6304C44.1483 26.5313 44.1043 26.4638 44.0161 26.4281Z" fill="white"/>
<path d="M45.6856 25.3455H46.0593V25.976H46.8239L46.7664 26.4757H46.0593V28.0402C46.0593 28.2147 46.0899 28.3377 46.1513 28.4091C46.2126 28.4765 46.3065 28.5102 46.433 28.5102C46.5633 28.5102 46.6936 28.4686 46.8239 28.3853L46.9963 28.8433C46.8047 28.9821 46.5613 29.0515 46.2662 29.0515C46.0938 29.0515 45.9481 29.0277 45.8293 28.9801C45.7105 28.9365 45.6224 28.887 45.5649 28.8314C45.5074 28.7759 45.4633 28.6946 45.4327 28.5875C45.402 28.4805 45.3848 28.3972 45.3809 28.3377C45.3771 28.2742 45.3752 28.183 45.3752 28.064V26.4757H44.967L45.0245 26.0415C45.2046 26.0256 45.3407 25.9602 45.4327 25.8452C45.5246 25.7262 45.609 25.5596 45.6856 25.3455Z" fill="white"/>
<path d="M49.7957 26.095V28.3079C49.7957 28.3714 49.8053 28.415 49.8245 28.4388C49.8475 28.4626 49.8858 28.4765 49.9395 28.4805L50.1234 28.4924V28.9683H49.2094V28.6232L49.1921 28.6173C49.0005 28.9028 48.738 29.0456 48.4045 29.0456C48.0136 29.0456 47.7242 28.9167 47.5365 28.6589C47.3487 28.4011 47.2548 28.0482 47.2548 27.6C47.2548 27.0607 47.3812 26.6403 47.6342 26.3389C47.8871 26.0375 48.2666 25.8868 48.7725 25.8868C49.0982 25.8868 49.4393 25.9562 49.7957 26.095ZM49.1289 28.0224V26.4817C49.0216 26.4301 48.874 26.4043 48.6862 26.4043C48.4294 26.4043 48.2436 26.5114 48.1286 26.7256C48.0136 26.9397 47.9561 27.2233 47.9561 27.5762C47.9561 28.2187 48.1554 28.5399 48.554 28.5399C48.7226 28.5399 48.8606 28.4884 48.9679 28.3853C49.0752 28.2782 49.1289 28.1572 49.1289 28.0224Z" fill="white"/>
<path d="M50.4418 26.4579V25.976H51.4134V26.3627C51.628 26.0454 51.9212 25.8868 52.2929 25.8868C52.6685 25.8868 52.9215 26.0454 53.0518 26.3627C53.2664 26.0454 53.5577 25.8868 53.9256 25.8868C54.2015 25.8868 54.4142 25.9741 54.5637 26.1485C54.7132 26.3191 54.7879 26.5769 54.7879 26.9219V28.4745L55.1156 28.4924V28.9683H53.7474V28.5161L53.9371 28.4983C53.9946 28.4904 54.0348 28.4745 54.0578 28.4507C54.0846 28.423 54.1 28.3754 54.1038 28.3079V27.0766C54.1038 26.8584 54.0789 26.6978 54.0291 26.5947C53.9831 26.4876 53.8719 26.4341 53.6956 26.4341C53.5193 26.4341 53.3833 26.4896 53.2875 26.6007C53.1955 26.7117 53.1495 26.8604 53.1495 27.0468V28.4745L53.4657 28.4924V28.9683H52.109V28.5161L52.2987 28.4983C52.3562 28.4904 52.3983 28.4745 52.4252 28.4507C52.452 28.423 52.4654 28.3734 52.4654 28.302V27.0766C52.4654 26.8584 52.4405 26.6978 52.3907 26.5947C52.3447 26.4876 52.2316 26.4341 52.0515 26.4341C51.8752 26.4341 51.741 26.4916 51.6491 26.6066C51.5571 26.7216 51.5111 26.8644 51.5111 27.0349V28.4745L51.8215 28.4924V28.9683H50.4648V28.5161L50.6545 28.4983C50.712 28.4904 50.7542 28.4745 50.781 28.4507C50.8078 28.423 50.8212 28.3734 50.8212 28.302H50.827V26.6601C50.827 26.5927 50.8155 26.5471 50.7925 26.5233C50.7733 26.4956 50.7369 26.4797 50.6833 26.4757L50.4418 26.4579Z" fill="white"/>
<path d="M56.7782 28.534C57.196 28.534 57.4048 28.185 57.4048 27.487C57.4048 27.1341 57.3569 26.8664 57.2611 26.6839C57.1691 26.5015 57.012 26.4103 56.7897 26.4103C56.5713 26.4103 56.4103 26.4975 56.3068 26.672C56.2033 26.8465 56.1516 27.0845 56.1516 27.3859C56.1516 27.9451 56.2512 28.296 56.4505 28.4388C56.5387 28.5023 56.6479 28.534 56.7782 28.534ZM55.456 27.4692C55.456 27.1757 55.4981 26.9219 55.5825 26.7077C55.6668 26.4896 55.7798 26.323 55.9216 26.208C56.1938 25.9939 56.4946 25.8868 56.8242 25.8868C57.0542 25.8868 57.2477 25.9265 57.4048 26.0058C57.5658 26.0811 57.6904 26.1704 57.7785 26.2735C57.8705 26.3726 57.9471 26.5194 58.0085 26.7137C58.0736 26.904 58.1062 27.1301 58.1062 27.3918C58.1062 27.9391 57.9778 28.3535 57.721 28.6351C57.4642 28.9167 57.1346 29.0575 56.7322 29.0575C56.3336 29.0575 56.0213 28.9246 55.7952 28.6589C55.569 28.3892 55.456 27.9927 55.456 27.4692Z" fill="white"/>
<path d="M58.4587 26.4519V25.976H59.4303V26.3627C59.5299 26.216 59.6621 26.101 59.8269 26.0177C59.9917 25.9304 60.1699 25.8868 60.3616 25.8868C60.6528 25.8868 60.877 25.9741 61.0342 26.1485C61.1951 26.3191 61.2756 26.5769 61.2756 26.9219V28.4745L61.6033 28.4924V28.9683H60.2351V28.5161L60.4248 28.4983C60.4823 28.4904 60.5245 28.4745 60.5513 28.4507C60.5781 28.423 60.5915 28.3734 60.5915 28.302V27.0766C60.5915 26.8584 60.5589 26.6978 60.4938 26.5947C60.4286 26.4876 60.3041 26.4341 60.1201 26.4341C59.94 26.4341 59.7963 26.4936 59.689 26.6125C59.5816 26.7315 59.528 26.8723 59.528 27.0349V28.4745L59.8557 28.4924V28.9683H58.4875V28.5161L58.6772 28.4983C58.7347 28.4904 58.7768 28.4745 58.8036 28.4507C58.8305 28.423 58.8439 28.3734 58.8439 28.302V26.6542C58.8439 26.5352 58.796 26.4737 58.7002 26.4698L58.4587 26.4519Z" fill="white"/>
<path d="M63.3832 25.8868C63.6706 25.8868 63.8987 25.9602 64.0673 26.1069C64.2359 26.2497 64.3203 26.4519 64.3203 26.7137C64.3203 26.8882 64.2838 27.0428 64.211 27.1777C64.1382 27.3086 64.0481 27.4117 63.9408 27.487C63.8335 27.5624 63.7032 27.6238 63.5499 27.6714C63.2931 27.7507 63.0038 27.7904 62.6818 27.7904C62.6933 28.0006 62.7566 28.1711 62.8716 28.302C62.9865 28.4289 63.1628 28.4924 63.4004 28.4924C63.6381 28.4924 63.8757 28.4051 64.1133 28.2306L64.3318 28.7125C64.2551 28.7838 64.1248 28.8572 63.9408 28.9326C63.7607 29.0079 63.5537 29.0456 63.32 29.0456C62.8524 29.0456 62.5094 28.9127 62.2909 28.647C62.0725 28.3773 61.9632 28.0085 61.9632 27.5406C61.9632 27.0726 62.0878 26.68 62.3369 26.3627C62.586 26.0454 62.9348 25.8868 63.3832 25.8868ZM63.1188 27.2491C63.2606 27.2213 63.3909 27.1638 63.5097 27.0766C63.6285 26.9853 63.6879 26.8783 63.6879 26.7553C63.6879 26.5134 63.5729 26.3924 63.343 26.3924C63.1283 26.3924 62.9635 26.4817 62.8486 26.6601C62.7336 26.8346 62.6703 27.0448 62.6588 27.2907C62.8275 27.2867 62.9808 27.2729 63.1188 27.2491Z" fill="white"/>
<path d="M66.8404 28.8552V28.4031C66.6296 28.7125 66.3192 28.8671 65.9091 28.8671C65.315 28.8671 65.018 28.5241 65.018 27.838V26.6423C65.018 26.5352 64.9701 26.4797 64.8743 26.4757L64.6903 26.4638V25.976H65.7021V27.6833C65.7021 27.8935 65.7309 28.0521 65.7884 28.1592C65.8458 28.2663 65.9647 28.3198 66.1448 28.3198C66.3249 28.3198 66.4686 28.2623 66.5759 28.1473C66.6871 28.0323 66.7427 27.8935 66.7427 27.7309V26.6542C66.7427 26.5868 66.7312 26.5412 66.7082 26.5174C66.689 26.4896 66.6526 26.4757 66.5989 26.4757L66.415 26.4638V25.976H67.4268V28.8552C67.4268 29.3351 67.3137 29.6861 67.0876 29.9082C66.8653 30.1302 66.5261 30.2413 66.0701 30.2413C65.6178 30.2413 65.2652 30.1758 65.0123 30.045V29.2181L65.5584 29.1705V29.456C65.5584 29.5631 65.6063 29.6345 65.7021 29.6702C65.7979 29.7099 65.9302 29.7297 66.0988 29.7297C66.5932 29.7297 66.8404 29.4382 66.8404 28.8552Z" fill="white"/>
<rect x="22.3296" y="38.9443" width="17.0104" height="6.32946" rx="3.16473" fill="#9791C4"/>
<rect x="35.384" y="59.1194" width="32.0429" height="6.32946" rx="3.16473" fill="#9791C4"/>
<rect x="35.384" y="74.9431" width="32.0429" height="6.32946" rx="3.16473" fill="#9791C4"/>
<rect x="35.384" y="90.7668" width="32.0429" height="6.32946" rx="3.16473" fill="#9791C4"/>
<rect x="35.384" y="106.59" width="32.0429" height="6.32946" rx="3.16473" fill="#9791C4"/>
<rect x="35.384" y="154.061" width="32.0429" height="6.32946" rx="3.16473" fill="#9791C4"/>
<rect x="35.384" y="169.885" width="32.0429" height="6.32946" rx="3.16473" fill="#9791C4"/>
<rect x="35.384" y="185.709" width="32.0429" height="6.32946" rx="3.16473" fill="#9791C4"/>
<rect x="35.384" y="122.414" width="32.0429" height="6.32946" rx="3.16473" fill="#9791C4"/>
<rect x="35.384" y="138.238" width="35.9988" height="6.32946" rx="3.16473" fill="white"/>
<rect x="72.5696" y="38.9443" width="6.32946" height="6.32946" rx="3.16473" fill="#9791C4"/>
<rect x="22.3296" y="59.1194" width="6.32946" height="6.32946" rx="3.16473" fill="#9791C4"/>
<rect x="22.3296" y="74.9431" width="6.32946" height="6.32946" rx="3.16473" fill="#9791C4"/>
<rect x="22.3296" y="90.7668" width="6.32946" height="6.32946" rx="3.16473" fill="#9791C4"/>
<rect x="22.3296" y="106.59" width="6.32946" height="6.32946" rx="3.16473" fill="#9791C4"/>
<rect x="22.3296" y="154.061" width="6.32946" height="6.32946" rx="3.16473" fill="#9791C4"/>
<rect x="22.3296" y="169.885" width="6.32946" height="6.32946" rx="3.16473" fill="#9791C4"/>
<rect x="22.3296" y="185.709" width="6.32946" height="6.32946" rx="3.16473" fill="#9791C4"/>
</g>
<defs>
<filter id="filter0_d" x="93.8875" y="90.3491" width="341.484" height="187.994" filterUnits="userSpaceOnUse" color-interpolation-filters="sRGB">
<feFlood flood-opacity="0" result="BackgroundImageFix"/>
<feColorMatrix in="SourceAlpha" type="matrix" values="0 0 0 0 0 0 0 0 0 0 0 0 0 0 0 0 0 0 127 0"/>
<feOffset dy="2"/>
<feGaussianBlur stdDeviation="2"/>
<feColorMatrix type="matrix" values="0 0 0 0 0 0 0 0 0 0 0 0 0 0 0 0 0 0 0.08 0"/>
<feBlend mode="normal" in2="BackgroundImageFix" result="effect1_dropShadow"/>
<feBlend mode="normal" in="SourceGraphic" in2="effect1_dropShadow" result="shape"/>
</filter>
<filter id="filter1_d" x="93.8875" y="47.2297" width="341.484" height="44.79" filterUnits="userSpaceOnUse" color-interpolation-filters="sRGB">
<feFlood flood-opacity="0" result="BackgroundImageFix"/>
<feColorMatrix in="SourceAlpha" type="matrix" values="0 0 0 0 0 0 0 0 0 0 0 0 0 0 0 0 0 0 127 0"/>
<feOffset dy="2"/>
<feGaussianBlur stdDeviation="2"/>
<feColorMatrix type="matrix" values="0 0 0 0 0 0 0 0 0 0 0 0 0 0 0 0 0 0 0.08 0"/>
<feBlend mode="normal" in2="BackgroundImageFix" result="effect1_dropShadow"/>
<feBlend mode="normal" in="SourceGraphic" in2="effect1_dropShadow" result="shape"/>
</filter>
<filter id="filter2_d" x="81.2285" y="14" width="366.801" height="30.1531" filterUnits="userSpaceOnUse" color-interpolation-filters="sRGB">
<feFlood flood-opacity="0" result="BackgroundImageFix"/>
<feColorMatrix in="SourceAlpha" type="matrix" values="0 0 0 0 0 0 0 0 0 0 0 0 0 0 0 0 0 0 127 0"/>
<feOffset dy="2"/>
<feGaussianBlur stdDeviation="2"/>
<feColorMatrix type="matrix" values="0 0 0 0 0 0 0 0 0 0 0 0 0 0 0 0 0 0 0.08 0"/>
<feBlend mode="normal" in2="BackgroundImageFix" result="effect1_dropShadow"/>
<feBlend mode="normal" in="SourceGraphic" in2="effect1_dropShadow" result="shape"/>
</filter>
<linearGradient id="paint0_linear" x1="32.6901" y1="29.8862" x2="36.0476" y2="27.065" gradientUnits="userSpaceOnUse">
<stop stop-color="#92E3E3"/>
<stop offset="0.257959" stop-color="#8BDFDF"/>
<stop offset="1" stop-color="#4B428F"/>
</linearGradient>
<linearGradient id="paint1_linear" x1="22.6773" y1="29.4298" x2="32.9375" y2="33.3848" gradientUnits="userSpaceOnUse">
<stop stop-color="white"/>
<stop offset="0.433893" stop-color="#52489C"/>
<stop offset="1"/>
</linearGradient>
<linearGradient id="paint2_linear" x1="27.2025" y1="31.104" x2="30.2351" y2="28.4977" gradientUnits="userSpaceOnUse">
<stop stop-color="#92E3E3"/>
<stop offset="0.257959" stop-color="#8BDFDF"/>
<stop offset="1" stop-color="#4B428F"/>
</linearGradient>
<linearGradient id="paint3_linear" x1="22.8368" y1="31.9077" x2="25.1057" y2="30.0731" gradientUnits="userSpaceOnUse">
<stop stop-color="#92E3E3"/>
<stop offset="0.520627" stop-color="#8BDFDF"/>
<stop offset="1" stop-color="#59C3C3"/>
</linearGradient>
</defs>
</svg>
