<svg width="604" height="324" viewBox="0 0 604 324" fill="none" xmlns="http://www.w3.org/2000/svg">
<mask id="mask0" mask-type="alpha" maskUnits="userSpaceOnUse" x="0" y="0" width="604" height="324">
<rect width="604" height="324" fill="white"/>
</mask>
<g mask="url(#mask0)">
<path d="M0 0H604V324H0V0Z" fill="#FF885F"/>
<rect x="46" y="40" width="511" height="321.146" fill="#F7F7F7"/>
<g filter="url(#filter0_d)">
<rect x="143.761" y="131.149" width="398.127" height="214.884" rx="4" fill="white"/>
<rect x="143.761" y="131.149" width="398.127" height="214.884" rx="4" stroke="#979797"/>
</g>
<rect x="151.317" y="202.462" width="7.0841" height="7.0841" rx="3.54205" fill="#CFCFCF"/>
<rect x="164.541" y="202.462" width="21.2523" height="7.0841" rx="3.54205" fill="#CFCFCF"/>
<rect x="232.548" y="202.462" width="20.3078" height="7.0841" rx="3.54205" fill="#CFCFCF"/>
<rect x="288.276" y="202.462" width="22.1969" height="7.0841" rx="3.54205" fill="#CFCFCF"/>
<rect x="349.672" y="202.462" width="21.2523" height="7.0841" rx="3.54205" fill="#CFCFCF"/>
<rect x="424.291" y="202.462" width="25.0305" height="7.0841" rx="3.54205" fill="#CFCFCF"/>
<rect x="494.66" y="202.462" width="32.1146" height="7.0841" rx="3.54205" fill="#CFCFCF"/>
<rect x="151.317" y="223.714" width="7.0841" height="7.0841" rx="3.54205" fill="#ECECEC"/>
<rect x="164.541" y="223.714" width="35.8928" height="7.0841" rx="3.54205" fill="#ECECEC"/>
<rect x="232.548" y="223.714" width="31.6423" height="7.0841" rx="3.54205" fill="#ECECEC"/>
<rect x="288.276" y="223.714" width="38.7264" height="7.0841" rx="3.54205" fill="#ECECEC"/>
<rect x="349.672" y="223.714" width="27.8641" height="7.0841" rx="3.54205" fill="#ECECEC"/>
<rect x="424.291" y="223.714" width="40.1433" height="7.0841" rx="3.54205" fill="#ECECEC"/>
<rect x="494.66" y="223.714" width="7.0841" height="7.0841" rx="3.54205" fill="#ECECEC"/>
<rect x="151.317" y="260.552" width="7.0841" height="7.0841" rx="3.54205" fill="#ECECEC"/>
<rect x="164.541" y="260.552" width="35.8928" height="7.0841" rx="3.54205" fill="#ECECEC"/>
<rect x="232.548" y="260.552" width="31.6423" height="7.0841" rx="3.54205" fill="#ECECEC"/>
<rect x="288.276" y="260.552" width="38.7264" height="7.0841" rx="3.54205" fill="#ECECEC"/>
<rect x="349.672" y="260.552" width="27.8641" height="7.0841" rx="3.54205" fill="#ECECEC"/>
<rect x="424.291" y="260.552" width="40.1433" height="7.0841" rx="3.54205" fill="#ECECEC"/>
<rect x="494.66" y="260.552" width="7.0841" height="7.0841" rx="3.54205" fill="#ECECEC"/>
<rect x="151.317" y="297.389" width="7.0841" height="7.0841" rx="3.54205" fill="#ECECEC"/>
<rect x="164.541" y="297.389" width="35.8928" height="7.0841" rx="3.54205" fill="#ECECEC"/>
<rect x="232.548" y="297.389" width="31.6423" height="7.0841" rx="3.54205" fill="#ECECEC"/>
<rect x="288.276" y="297.389" width="38.7264" height="7.0841" rx="3.54205" fill="#ECECEC"/>
<rect x="349.672" y="297.389" width="27.8641" height="7.0841" rx="3.54205" fill="#ECECEC"/>
<rect x="424.291" y="297.389" width="40.1433" height="7.0841" rx="3.54205" fill="#ECECEC"/>
<rect x="494.66" y="297.389" width="7.0841" height="7.0841" rx="3.54205" fill="#ECECEC"/>
<rect x="151.317" y="242.133" width="7.0841" height="7.0841" rx="3.54205" fill="#ECECEC"/>
<rect x="164.541" y="242.133" width="35.8928" height="7.0841" rx="3.54205" fill="#ECECEC"/>
<rect x="232.548" y="242.133" width="31.6423" height="7.0841" rx="3.54205" fill="#ECECEC"/>
<rect x="288.276" y="242.133" width="38.7264" height="7.0841" rx="3.54205" fill="#ECECEC"/>
<rect x="349.672" y="242.133" width="27.8641" height="7.0841" rx="3.54205" fill="#ECECEC"/>
<rect x="424.291" y="242.133" width="40.1433" height="7.0841" rx="3.54205" fill="#ECECEC"/>
<rect x="494.66" y="242.133" width="7.0841" height="7.0841" rx="3.54205" fill="#ECECEC"/>
<rect x="151.317" y="278.97" width="7.0841" height="7.0841" rx="3.54205" fill="#ECECEC"/>
<rect x="164.541" y="278.97" width="35.8928" height="7.0841" rx="3.54205" fill="#ECECEC"/>
<rect x="232.548" y="278.97" width="31.6423" height="7.0841" rx="3.54205" fill="#ECECEC"/>
<rect x="288.276" y="278.97" width="38.7264" height="7.0841" rx="3.54205" fill="#ECECEC"/>
<rect x="349.672" y="278.97" width="27.8641" height="7.0841" rx="3.54205" fill="#ECECEC"/>
<rect x="424.291" y="278.97" width="40.1433" height="7.0841" rx="3.54205" fill="#ECECEC"/>
<rect x="494.66" y="278.97" width="7.0841" height="7.0841" rx="3.54205" fill="#ECECEC"/>
<rect x="151.317" y="315.808" width="7.0841" height="7.0841" rx="3.54205" fill="#ECECEC"/>
<rect x="164.541" y="315.808" width="35.8928" height="7.0841" rx="3.54205" fill="#ECECEC"/>
<rect x="232.548" y="315.808" width="31.6423" height="7.0841" rx="3.54205" fill="#ECECEC"/>
<rect x="288.276" y="315.808" width="38.7264" height="7.0841" rx="3.54205" fill="#ECECEC"/>
<rect x="349.672" y="315.808" width="27.8641" height="7.0841" rx="3.54205" fill="#ECECEC"/>
<rect x="424.291" y="315.808" width="40.1433" height="7.0841" rx="3.54205" fill="#ECECEC"/>
<rect x="494.66" y="315.808" width="7.0841" height="7.0841" rx="3.54205" fill="#ECECEC"/>
<rect x="457.823" y="138.705" width="68.9519" height="16.0573" rx="4" fill="#52479C"/>
<path d="M484.379 145.442C483.936 145.442 483.587 145.599 483.333 145.913C483.079 146.227 482.952 146.661 482.952 147.214C482.952 147.793 483.074 148.231 483.317 148.528C483.563 148.825 483.917 148.973 484.379 148.973C484.58 148.973 484.773 148.954 484.961 148.915C485.148 148.874 485.343 148.823 485.545 148.76V149.422C485.175 149.562 484.755 149.632 484.286 149.632C483.595 149.632 483.064 149.423 482.694 149.006C482.324 148.586 482.139 147.987 482.139 147.207C482.139 146.717 482.228 146.287 482.407 145.919C482.588 145.551 482.848 145.269 483.188 145.073C483.528 144.878 483.927 144.78 484.386 144.78C484.868 144.78 485.314 144.881 485.722 145.083L485.445 145.726C485.286 145.65 485.117 145.585 484.938 145.529C484.761 145.471 484.575 145.442 484.379 145.442Z" fill="white"/>
<path d="M488.292 145.932C488.445 145.932 488.571 145.943 488.67 145.965L488.596 146.672C488.488 146.646 488.376 146.633 488.26 146.633C487.957 146.633 487.71 146.732 487.521 146.93C487.333 147.128 487.24 147.385 487.24 147.701V149.567H486.481V145.997H487.075L487.175 146.626H487.214C487.332 146.413 487.486 146.244 487.676 146.119C487.867 145.995 488.073 145.932 488.292 145.932Z" fill="white"/>
<path d="M490.894 149.632C490.339 149.632 489.904 149.471 489.59 149.148C489.278 148.823 489.122 148.376 489.122 147.808C489.122 147.225 489.267 146.766 489.558 146.433C489.848 146.099 490.248 145.932 490.756 145.932C491.227 145.932 491.599 146.075 491.873 146.362C492.146 146.648 492.283 147.042 492.283 147.543V147.953H489.903C489.914 148.3 490.008 148.567 490.184 148.754C490.361 148.939 490.609 149.032 490.93 149.032C491.141 149.032 491.337 149.012 491.518 148.973C491.7 148.933 491.896 148.866 492.105 148.773V149.39C491.92 149.478 491.733 149.541 491.543 149.577C491.354 149.614 491.138 149.632 490.894 149.632ZM490.756 146.507C490.515 146.507 490.321 146.583 490.174 146.736C490.03 146.889 489.944 147.112 489.916 147.404H491.537C491.533 147.11 491.462 146.887 491.324 146.736C491.186 146.583 490.997 146.507 490.756 146.507Z" fill="white"/>
<path d="M495.379 149.567L495.227 149.07H495.201C495.029 149.288 494.856 149.436 494.681 149.516C494.507 149.593 494.283 149.632 494.01 149.632C493.659 149.632 493.385 149.537 493.187 149.348C492.991 149.159 492.893 148.891 492.893 148.544C492.893 148.176 493.029 147.898 493.303 147.711C493.576 147.524 493.993 147.422 494.552 147.404L495.169 147.385V147.195C495.169 146.966 495.115 146.796 495.007 146.684C494.902 146.57 494.737 146.513 494.513 146.513C494.331 146.513 494.155 146.54 493.987 146.594C493.819 146.648 493.658 146.711 493.503 146.785L493.258 146.242C493.451 146.141 493.663 146.065 493.894 146.013C494.124 145.959 494.341 145.932 494.546 145.932C495 145.932 495.342 146.031 495.572 146.229C495.805 146.427 495.921 146.738 495.921 147.162V149.567H495.379ZM494.249 149.051C494.524 149.051 494.745 148.975 494.911 148.822C495.078 148.667 495.162 148.45 495.162 148.173V147.863L494.704 147.882C494.347 147.895 494.086 147.955 493.923 148.063C493.761 148.168 493.681 148.331 493.681 148.551C493.681 148.71 493.728 148.834 493.823 148.922C493.917 149.008 494.059 149.051 494.249 149.051Z" fill="white"/>
<path d="M498.31 149.019C498.495 149.019 498.68 148.99 498.865 148.931V149.503C498.781 149.539 498.673 149.57 498.539 149.593C498.408 149.619 498.271 149.632 498.129 149.632C497.41 149.632 497.051 149.253 497.051 148.496V146.571H496.564V146.236L497.087 145.958L497.345 145.203H497.813V145.997H498.83V146.571H497.813V148.483C497.813 148.666 497.858 148.801 497.949 148.889C498.041 148.976 498.162 149.019 498.31 149.019Z" fill="white"/>
<path d="M501.141 149.632C500.586 149.632 500.151 149.471 499.837 149.148C499.525 148.823 499.369 148.376 499.369 147.808C499.369 147.225 499.514 146.766 499.805 146.433C500.095 146.099 500.495 145.932 501.003 145.932C501.474 145.932 501.846 146.075 502.12 146.362C502.393 146.648 502.53 147.042 502.53 147.543V147.953H500.15C500.161 148.3 500.255 148.567 500.431 148.754C500.608 148.939 500.856 149.032 501.177 149.032C501.388 149.032 501.584 149.012 501.765 148.973C501.948 148.933 502.143 148.866 502.352 148.773V149.39C502.167 149.478 501.98 149.541 501.79 149.577C501.601 149.614 501.385 149.632 501.141 149.632ZM501.003 146.507C500.762 146.507 500.568 146.583 500.422 146.736C500.277 146.889 500.191 147.112 500.163 147.404H501.784C501.78 147.11 501.709 146.887 501.571 146.736C501.433 146.583 501.244 146.507 501.003 146.507Z" fill="white"/>
<path d="M317.365 148.623L316.827 147.125H314.764L314.237 148.623H313.307L315.325 143.207H316.284L318.303 148.623H317.365ZM316.594 146.365L316.089 144.896C316.052 144.798 316 144.643 315.934 144.431C315.87 144.22 315.826 144.065 315.801 143.967C315.735 144.269 315.638 144.6 315.51 144.959L315.023 146.365H316.594Z" fill="#7C7C7C"/>
<path d="M320.992 148.697C320.476 148.697 320.075 148.511 319.79 148.14H319.738C319.772 148.484 319.79 148.693 319.79 148.767V150.438H318.923V144.542H319.624C319.643 144.618 319.684 144.8 319.745 145.088H319.79C320.06 144.675 320.466 144.468 321.007 144.468C321.516 144.468 321.912 144.653 322.195 145.022C322.481 145.391 322.623 145.909 322.623 146.575C322.623 147.242 322.478 147.762 322.188 148.136C321.9 148.51 321.502 148.697 320.992 148.697ZM320.782 145.177C320.438 145.177 320.186 145.278 320.026 145.479C319.868 145.681 319.79 146.003 319.79 146.446V146.575C319.79 147.072 319.868 147.432 320.026 147.656C320.183 147.878 320.44 147.988 320.797 147.988C321.097 147.988 321.328 147.865 321.491 147.619C321.653 147.373 321.734 147.023 321.734 146.568C321.734 146.11 321.653 145.765 321.491 145.531C321.331 145.295 321.094 145.177 320.782 145.177Z" fill="#7C7C7C"/>
<path d="M325.7 148.697C325.184 148.697 324.783 148.511 324.498 148.14H324.446C324.48 148.484 324.498 148.693 324.498 148.767V150.438H323.63V144.542H324.332C324.351 144.618 324.392 144.8 324.453 145.088H324.498C324.768 144.675 325.174 144.468 325.715 144.468C326.224 144.468 326.62 144.653 326.903 145.022C327.189 145.391 327.331 145.909 327.331 146.575C327.331 147.242 327.186 147.762 326.896 148.136C326.608 148.51 326.21 148.697 325.7 148.697ZM325.49 145.177C325.146 145.177 324.894 145.278 324.734 145.479C324.576 145.681 324.498 146.003 324.498 146.446V146.575C324.498 147.072 324.576 147.432 324.734 147.656C324.891 147.878 325.148 147.988 325.505 147.988C325.805 147.988 326.036 147.865 326.198 147.619C326.361 147.373 326.442 147.023 326.442 146.568C326.442 146.11 326.361 145.765 326.198 145.531C326.039 145.295 325.802 145.177 325.49 145.177Z" fill="#7C7C7C"/>
<path d="M330.408 144.468C330.583 144.468 330.727 144.481 330.84 144.505L330.755 145.313C330.632 145.284 330.504 145.269 330.371 145.269C330.025 145.269 329.743 145.382 329.527 145.608C329.313 145.835 329.206 146.129 329.206 146.49V148.623H328.338V144.542H329.017L329.132 145.262H329.176C329.311 145.018 329.487 144.825 329.704 144.682C329.923 144.54 330.157 144.468 330.408 144.468Z" fill="#7C7C7C"/>
<path d="M335.22 146.575C335.22 147.242 335.049 147.762 334.707 148.136C334.365 148.51 333.889 148.697 333.279 148.697C332.898 148.697 332.561 148.611 332.268 148.438C331.975 148.266 331.75 148.019 331.593 147.697C331.435 147.375 331.357 147.001 331.357 146.575C331.357 145.914 331.526 145.397 331.866 145.026C332.205 144.654 332.684 144.468 333.301 144.468C333.891 144.468 334.359 144.659 334.703 145.04C335.047 145.419 335.22 145.931 335.22 146.575ZM332.249 146.575C332.249 147.517 332.598 147.988 333.294 147.988C333.982 147.988 334.327 147.517 334.327 146.575C334.327 145.643 333.98 145.177 333.286 145.177C332.922 145.177 332.658 145.297 332.493 145.538C332.331 145.779 332.249 146.125 332.249 146.575Z" fill="#7C7C7C"/>
<path d="M337.149 148.623L335.6 144.542H336.515L337.345 146.915C337.488 147.313 337.574 147.635 337.603 147.881H337.633C337.655 147.704 337.741 147.382 337.891 146.915L338.721 144.542H339.644L338.086 148.623H337.149Z" fill="#7C7C7C"/>
<path d="M342.045 148.697C341.411 148.697 340.914 148.512 340.555 148.143C340.198 147.772 340.02 147.261 340.02 146.612C340.02 145.945 340.186 145.422 340.518 145.04C340.85 144.659 341.306 144.468 341.887 144.468C342.426 144.468 342.851 144.632 343.163 144.959C343.476 145.286 343.632 145.736 343.632 146.31V146.778H340.913C340.925 147.174 341.032 147.479 341.234 147.693C341.435 147.905 341.72 148.01 342.086 148.01C342.327 148.01 342.551 147.988 342.758 147.944C342.967 147.897 343.19 147.821 343.429 147.715V148.42C343.218 148.521 343.004 148.592 342.787 148.634C342.571 148.676 342.323 148.697 342.045 148.697ZM341.887 145.125C341.611 145.125 341.39 145.212 341.223 145.387C341.058 145.562 340.959 145.816 340.928 146.151H342.78C342.775 145.814 342.694 145.559 342.536 145.387C342.379 145.212 342.162 145.125 341.887 145.125Z" fill="#7C7C7C"/>
<path d="M345.993 148.697C345.484 148.697 345.087 148.512 344.802 148.143C344.516 147.774 344.374 147.257 344.374 146.59C344.374 145.921 344.518 145.401 344.805 145.029C345.096 144.655 345.497 144.468 346.008 144.468C346.544 144.468 346.953 144.666 347.233 145.062H347.277C347.236 144.77 347.215 144.538 347.215 144.369V142.882H348.085V148.623H347.407L347.255 148.088H347.215C346.937 148.494 346.53 148.697 345.993 148.697ZM346.226 147.996C346.582 147.996 346.842 147.896 347.004 147.697C347.167 147.495 347.25 147.169 347.255 146.719V146.597C347.255 146.083 347.172 145.718 347.004 145.501C346.837 145.285 346.575 145.177 346.218 145.177C345.913 145.177 345.679 145.301 345.514 145.549C345.349 145.795 345.267 146.147 345.267 146.605C345.267 147.057 345.346 147.403 345.506 147.641C345.666 147.878 345.906 147.996 346.226 147.996Z" fill="#7C7C7C"/>
<path d="M239.643 148.623H238.562L235.909 144.324H235.88L235.898 144.564C235.933 145.022 235.95 145.44 235.95 145.819V148.623H235.149V143.229H236.219L238.865 147.505H238.887C238.882 147.448 238.872 147.243 238.857 146.889C238.843 146.532 238.835 146.254 238.835 146.055V143.229H239.643V148.623Z" fill="#7C7C7C"/>
<path d="M242.757 148.697C242.123 148.697 241.626 148.512 241.267 148.143C240.91 147.772 240.732 147.261 240.732 146.612C240.732 145.945 240.898 145.422 241.23 145.04C241.562 144.659 242.018 144.468 242.599 144.468C243.137 144.468 243.563 144.632 243.875 144.959C244.188 145.286 244.344 145.736 244.344 146.31V146.778H241.625C241.637 147.174 241.744 147.479 241.946 147.693C242.147 147.905 242.432 148.01 242.798 148.01C243.039 148.01 243.263 147.988 243.47 147.944C243.679 147.897 243.902 147.821 244.141 147.715V148.42C243.93 148.521 243.716 148.592 243.499 148.634C243.283 148.676 243.035 148.697 242.757 148.697ZM242.599 145.125C242.323 145.125 242.102 145.212 241.935 145.387C241.77 145.562 241.671 145.816 241.639 146.151H243.492C243.487 145.814 243.406 145.559 243.248 145.387C243.091 145.212 242.874 145.125 242.599 145.125Z" fill="#7C7C7C"/>
<path d="M247.111 148.697C246.477 148.697 245.98 148.512 245.621 148.143C245.264 147.772 245.086 147.261 245.086 146.612C245.086 145.945 245.252 145.422 245.584 145.04C245.916 144.659 246.372 144.468 246.953 144.468C247.491 144.468 247.917 144.632 248.229 144.959C248.542 145.286 248.698 145.736 248.698 146.31V146.778H245.978C245.991 147.174 246.098 147.479 246.299 147.693C246.501 147.905 246.785 148.01 247.152 148.01C247.393 148.01 247.617 147.988 247.823 147.944C248.032 147.897 248.256 147.821 248.495 147.715V148.42C248.283 148.521 248.069 148.592 247.853 148.634C247.636 148.676 247.389 148.697 247.111 148.697ZM246.953 145.125C246.677 145.125 246.456 145.212 246.288 145.387C246.124 145.562 246.025 145.816 245.993 146.151H247.845C247.841 145.814 247.759 145.559 247.602 145.387C247.445 145.212 247.228 145.125 246.953 145.125Z" fill="#7C7C7C"/>
<path d="M251.059 148.697C250.55 148.697 250.153 148.512 249.867 148.143C249.582 147.774 249.439 147.257 249.439 146.59C249.439 145.921 249.583 145.401 249.871 145.029C250.161 144.655 250.562 144.468 251.074 144.468C251.61 144.468 252.018 144.666 252.299 145.062H252.343C252.301 144.77 252.28 144.538 252.28 144.369V142.882H253.151V148.623H252.472L252.321 148.088H252.28C252.002 148.494 251.595 148.697 251.059 148.697ZM251.292 147.996C251.648 147.996 251.908 147.896 252.07 147.697C252.232 147.495 252.316 147.169 252.321 146.719V146.597C252.321 146.083 252.237 145.718 252.07 145.501C251.903 145.285 251.641 145.177 251.284 145.177C250.979 145.177 250.744 145.301 250.579 145.549C250.415 145.795 250.332 146.147 250.332 146.605C250.332 147.057 250.412 147.403 250.572 147.641C250.732 147.878 250.972 147.996 251.292 147.996Z" fill="#7C7C7C"/>
<path d="M257.132 147.461C257.132 147.859 256.987 148.165 256.697 148.379C256.407 148.591 255.991 148.697 255.45 148.697C254.906 148.697 254.47 148.614 254.14 148.45V147.701C254.62 147.922 255.066 148.033 255.479 148.033C256.013 148.033 256.28 147.871 256.28 147.549C256.28 147.446 256.25 147.36 256.191 147.291C256.132 147.222 256.035 147.151 255.9 147.077C255.765 147.003 255.576 146.92 255.335 146.826C254.866 146.644 254.547 146.462 254.38 146.28C254.215 146.098 254.133 145.862 254.133 145.572C254.133 145.222 254.273 144.952 254.553 144.76C254.836 144.566 255.22 144.468 255.704 144.468C256.184 144.468 256.638 144.566 257.066 144.76L256.785 145.413C256.345 145.231 255.975 145.14 255.675 145.14C255.217 145.14 254.989 145.27 254.989 145.531C254.989 145.659 255.048 145.767 255.166 145.856C255.286 145.944 255.547 146.066 255.948 146.221C256.285 146.351 256.53 146.471 256.682 146.579C256.835 146.687 256.948 146.813 257.022 146.955C257.095 147.095 257.132 147.264 257.132 147.461Z" fill="#7C7C7C"/>
<path d="M263.475 148.623L262.936 147.125H260.874L260.346 148.623H259.416L261.434 143.207H262.394L264.412 148.623H263.475ZM262.704 146.365L262.198 144.896C262.161 144.798 262.11 144.643 262.043 144.431C261.979 144.22 261.935 144.065 261.91 143.967C261.844 144.269 261.747 144.6 261.619 144.959L261.132 146.365H262.704Z" fill="#7C7C7C"/>
<path d="M267.102 148.697C266.585 148.697 266.184 148.511 265.899 148.14H265.847C265.882 148.484 265.899 148.693 265.899 148.767V150.438H265.032V144.542H265.733C265.752 144.618 265.793 144.8 265.855 145.088H265.899C266.169 144.675 266.575 144.468 267.116 144.468C267.626 144.468 268.022 144.653 268.304 145.022C268.59 145.391 268.732 145.909 268.732 146.575C268.732 147.242 268.587 147.762 268.297 148.136C268.009 148.51 267.611 148.697 267.102 148.697ZM266.891 145.177C266.547 145.177 266.295 145.278 266.135 145.479C265.978 145.681 265.899 146.003 265.899 146.446V146.575C265.899 147.072 265.978 147.432 266.135 147.656C266.292 147.878 266.549 147.988 266.906 147.988C267.206 147.988 267.437 147.865 267.6 147.619C267.762 147.373 267.843 147.023 267.843 146.568C267.843 146.11 267.762 145.765 267.6 145.531C267.44 145.295 267.204 145.177 266.891 145.177Z" fill="#7C7C7C"/>
<path d="M271.81 148.697C271.293 148.697 270.892 148.511 270.607 148.14H270.555C270.59 148.484 270.607 148.693 270.607 148.767V150.438H269.74V144.542H270.441C270.46 144.618 270.501 144.8 270.563 145.088H270.607C270.877 144.675 271.283 144.468 271.824 144.468C272.334 144.468 272.73 144.653 273.012 145.022C273.298 145.391 273.44 145.909 273.44 146.575C273.44 147.242 273.295 147.762 273.005 148.136C272.717 148.51 272.319 148.697 271.81 148.697ZM271.599 145.177C271.255 145.177 271.003 145.278 270.843 145.479C270.686 145.681 270.607 146.003 270.607 146.446V146.575C270.607 147.072 270.686 147.432 270.843 147.656C271 147.878 271.257 147.988 271.614 147.988C271.914 147.988 272.145 147.865 272.308 147.619C272.47 147.373 272.551 147.023 272.551 146.568C272.551 146.11 272.47 145.765 272.308 145.531C272.148 145.295 271.912 145.177 271.599 145.177Z" fill="#7C7C7C"/>
<path d="M276.518 144.468C276.692 144.468 276.836 144.481 276.949 144.505L276.864 145.313C276.741 145.284 276.614 145.269 276.481 145.269C276.134 145.269 275.852 145.382 275.636 145.608C275.422 145.835 275.315 146.129 275.315 146.49V148.623H274.448V144.542H275.127L275.241 145.262H275.285C275.421 145.018 275.596 144.825 275.813 144.682C276.032 144.54 276.267 144.468 276.518 144.468Z" fill="#7C7C7C"/>
<path d="M281.329 146.575C281.329 147.242 281.158 147.762 280.816 148.136C280.474 148.51 279.998 148.697 279.388 148.697C279.007 148.697 278.67 148.611 278.377 148.438C278.084 148.266 277.859 148.019 277.702 147.697C277.545 147.375 277.466 147.001 277.466 146.575C277.466 145.914 277.636 145.397 277.975 145.026C278.314 144.654 278.793 144.468 279.41 144.468C280.001 144.468 280.468 144.659 280.812 145.04C281.157 145.419 281.329 145.931 281.329 146.575ZM278.359 146.575C278.359 147.517 278.707 147.988 279.403 147.988C280.092 147.988 280.436 147.517 280.436 146.575C280.436 145.643 280.089 145.177 279.396 145.177C279.031 145.177 278.767 145.297 278.602 145.538C278.44 145.779 278.359 146.125 278.359 146.575Z" fill="#7C7C7C"/>
<path d="M283.259 148.623L281.709 144.542H282.624L283.454 146.915C283.597 147.313 283.683 147.635 283.712 147.881H283.742C283.764 147.704 283.85 147.382 284 146.915L284.83 144.542H285.753L284.196 148.623H283.259Z" fill="#7C7C7C"/>
<path d="M288.926 148.623L288.752 148.055H288.723C288.526 148.303 288.328 148.473 288.129 148.564C287.93 148.652 287.674 148.697 287.361 148.697C286.961 148.697 286.647 148.588 286.421 148.372C286.197 148.156 286.085 147.849 286.085 147.453C286.085 147.033 286.241 146.715 286.553 146.501C286.866 146.287 287.342 146.171 287.981 146.151L288.686 146.129V145.911C288.686 145.65 288.625 145.456 288.502 145.328C288.381 145.198 288.193 145.133 287.937 145.133C287.728 145.133 287.528 145.163 287.336 145.225C287.144 145.286 286.959 145.359 286.782 145.442L286.502 144.823C286.723 144.707 286.965 144.62 287.229 144.561C287.492 144.499 287.74 144.468 287.974 144.468C288.493 144.468 288.884 144.582 289.147 144.808C289.413 145.034 289.546 145.39 289.546 145.874V148.623H288.926ZM287.635 148.033C287.949 148.033 288.201 147.945 288.391 147.771C288.583 147.594 288.679 147.346 288.679 147.029V146.675L288.155 146.697C287.746 146.712 287.449 146.781 287.262 146.904C287.077 147.024 286.985 147.21 286.985 147.461C286.985 147.643 287.039 147.784 287.147 147.885C287.256 147.983 287.418 148.033 287.635 148.033Z" fill="#7C7C7C"/>
<path d="M291.623 148.623H290.756V142.882H291.623V148.623Z" fill="#7C7C7C"/>
<path d="M156.523 148.623H155.442L152.789 144.324H152.76L152.778 144.564C152.813 145.022 152.83 145.44 152.83 145.819V148.623H152.029V143.229H153.099L155.745 147.505H155.767C155.762 147.448 155.752 147.243 155.737 146.889C155.723 146.532 155.715 146.254 155.715 146.055V143.229H156.523V148.623Z" fill="#52479C"/>
<path d="M159.637 148.697C159.003 148.697 158.506 148.512 158.147 148.143C157.79 147.772 157.612 147.261 157.612 146.612C157.612 145.945 157.778 145.422 158.11 145.04C158.442 144.659 158.898 144.468 159.479 144.468C160.017 144.468 160.443 144.632 160.755 144.959C161.068 145.286 161.224 145.736 161.224 146.31V146.778H158.505C158.517 147.174 158.624 147.479 158.826 147.693C159.027 147.905 159.311 148.01 159.678 148.01C159.919 148.01 160.143 147.988 160.349 147.944C160.559 147.897 160.782 147.821 161.021 147.715V148.42C160.809 148.521 160.595 148.592 160.379 148.634C160.162 148.676 159.915 148.697 159.637 148.697ZM159.479 145.125C159.203 145.125 158.982 145.212 158.815 145.387C158.65 145.562 158.551 145.816 158.519 146.151H160.372C160.367 145.814 160.285 145.559 160.128 145.387C159.971 145.212 159.754 145.125 159.479 145.125Z" fill="#52479C"/>
<path d="M163.991 148.697C163.356 148.697 162.86 148.512 162.5 148.143C162.144 147.772 161.965 147.261 161.965 146.612C161.965 145.945 162.132 145.422 162.464 145.04C162.796 144.659 163.252 144.468 163.832 144.468C164.371 144.468 164.797 144.632 165.109 144.959C165.421 145.286 165.578 145.736 165.578 146.31V146.778H162.858C162.871 147.174 162.978 147.479 163.179 147.693C163.381 147.905 163.665 148.01 164.032 148.01C164.273 148.01 164.497 147.988 164.703 147.944C164.912 147.897 165.136 147.821 165.375 147.715V148.42C165.163 148.521 164.949 148.592 164.733 148.634C164.516 148.676 164.269 148.697 163.991 148.697ZM163.832 145.125C163.557 145.125 163.336 145.212 163.168 145.387C163.004 145.562 162.905 145.816 162.873 146.151H164.725C164.72 145.814 164.639 145.559 164.482 145.387C164.324 145.212 164.108 145.125 163.832 145.125Z" fill="#52479C"/>
<path d="M167.939 148.697C167.43 148.697 167.033 148.512 166.747 148.143C166.462 147.774 166.319 147.257 166.319 146.59C166.319 145.921 166.463 145.401 166.751 145.029C167.041 144.655 167.442 144.468 167.954 144.468C168.49 144.468 168.898 144.666 169.179 145.062H169.223C169.181 144.77 169.16 144.538 169.16 144.369V142.882H170.031V148.623H169.352L169.201 148.088H169.16C168.882 148.494 168.475 148.697 167.939 148.697ZM168.171 147.996C168.528 147.996 168.788 147.896 168.95 147.697C169.112 147.495 169.196 147.169 169.201 146.719V146.597C169.201 146.083 169.117 145.718 168.95 145.501C168.783 145.285 168.521 145.177 168.164 145.177C167.859 145.177 167.624 145.301 167.459 145.549C167.295 145.795 167.212 146.147 167.212 146.605C167.212 147.057 167.292 147.403 167.452 147.641C167.612 147.878 167.852 147.996 168.171 147.996Z" fill="#52479C"/>
<path d="M174.012 147.461C174.012 147.859 173.867 148.165 173.577 148.379C173.287 148.591 172.871 148.697 172.33 148.697C171.786 148.697 171.349 148.614 171.02 148.45V147.701C171.5 147.922 171.946 148.033 172.359 148.033C172.893 148.033 173.16 147.871 173.16 147.549C173.16 147.446 173.13 147.36 173.071 147.291C173.012 147.222 172.915 147.151 172.78 147.077C172.645 147.003 172.456 146.92 172.215 146.826C171.745 146.644 171.427 146.462 171.26 146.28C171.095 146.098 171.012 145.862 171.012 145.572C171.012 145.222 171.153 144.952 171.433 144.76C171.716 144.566 172.1 144.468 172.584 144.468C173.064 144.468 173.518 144.566 173.946 144.76L173.665 145.413C173.225 145.231 172.855 145.14 172.555 145.14C172.097 145.14 171.868 145.27 171.868 145.531C171.868 145.659 171.928 145.767 172.046 145.856C172.166 145.944 172.427 146.066 172.828 146.221C173.165 146.351 173.41 146.471 173.562 146.579C173.715 146.687 173.828 146.813 173.901 146.955C173.975 147.095 174.012 147.264 174.012 147.461Z" fill="#52479C"/>
<path d="M180.082 143.229H180.997L179.108 148.623H178.178L176.296 143.229H177.204L178.329 146.583C178.388 146.742 178.451 146.949 178.517 147.202C178.584 147.453 178.627 147.64 178.646 147.763C178.678 147.576 178.728 147.36 178.794 147.114C178.86 146.868 178.914 146.686 178.956 146.568L180.082 143.229Z" fill="#52479C"/>
<path d="M184.17 148.623L183.996 148.055H183.967C183.77 148.303 183.572 148.473 183.373 148.564C183.174 148.652 182.918 148.697 182.605 148.697C182.204 148.697 181.891 148.588 181.664 148.372C181.441 148.156 181.329 147.849 181.329 147.453C181.329 147.033 181.485 146.715 181.797 146.501C182.11 146.287 182.586 146.171 183.225 146.151L183.93 146.129V145.911C183.93 145.65 183.868 145.456 183.745 145.328C183.625 145.198 183.437 145.133 183.181 145.133C182.972 145.133 182.771 145.163 182.579 145.225C182.388 145.286 182.203 145.359 182.026 145.442L181.746 144.823C181.967 144.707 182.209 144.62 182.472 144.561C182.736 144.499 182.984 144.468 183.218 144.468C183.737 144.468 184.128 144.582 184.391 144.808C184.657 145.034 184.79 145.39 184.79 145.874V148.623H184.17ZM182.878 148.033C183.193 148.033 183.445 147.945 183.635 147.771C183.827 147.594 183.923 147.346 183.923 147.029V146.675L183.399 146.697C182.99 146.712 182.693 146.781 182.506 146.904C182.321 147.024 182.229 147.21 182.229 147.461C182.229 147.643 182.283 147.784 182.391 147.885C182.5 147.983 182.662 148.033 182.878 148.033Z" fill="#52479C"/>
<path d="M186.867 148.623H186V142.882H186.867V148.623Z" fill="#52479C"/>
<path d="M188.977 148.623H188.11V144.542H188.977V148.623ZM188.059 143.461C188.059 143.306 188.1 143.187 188.184 143.103C188.27 143.02 188.392 142.978 188.549 142.978C188.702 142.978 188.82 143.02 188.904 143.103C188.99 143.187 189.033 143.306 189.033 143.461C189.033 143.609 188.99 143.726 188.904 143.812C188.82 143.895 188.702 143.937 188.549 143.937C188.392 143.937 188.27 143.895 188.184 143.812C188.1 143.726 188.059 143.609 188.059 143.461Z" fill="#52479C"/>
<path d="M191.597 148.697C191.088 148.697 190.691 148.512 190.405 148.143C190.12 147.774 189.977 147.257 189.977 146.59C189.977 145.921 190.121 145.401 190.409 145.029C190.699 144.655 191.1 144.468 191.612 144.468C192.148 144.468 192.556 144.666 192.837 145.062H192.881C192.839 144.77 192.818 144.538 192.818 144.369V142.882H193.689V148.623H193.01L192.859 148.088H192.818C192.54 148.494 192.133 148.697 191.597 148.697ZM191.829 147.996C192.186 147.996 192.446 147.896 192.608 147.697C192.77 147.495 192.854 147.169 192.859 146.719V146.597C192.859 146.083 192.775 145.718 192.608 145.501C192.441 145.285 192.179 145.177 191.822 145.177C191.517 145.177 191.282 145.301 191.117 145.549C190.953 145.795 190.87 146.147 190.87 146.605C190.87 147.057 190.95 147.403 191.11 147.641C191.27 147.878 191.51 147.996 191.829 147.996Z" fill="#52479C"/>
<path d="M197.482 148.623L197.309 148.055H197.279C197.082 148.303 196.884 148.473 196.685 148.564C196.486 148.652 196.23 148.697 195.918 148.697C195.517 148.697 195.203 148.588 194.977 148.372C194.753 148.156 194.641 147.849 194.641 147.453C194.641 147.033 194.797 146.715 195.11 146.501C195.422 146.287 195.898 146.171 196.537 146.151L197.242 146.129V145.911C197.242 145.65 197.181 145.456 197.058 145.328C196.937 145.198 196.749 145.133 196.493 145.133C196.284 145.133 196.084 145.163 195.892 145.225C195.7 145.286 195.515 145.359 195.338 145.442L195.058 144.823C195.279 144.707 195.522 144.62 195.785 144.561C196.048 144.499 196.296 144.468 196.53 144.468C197.049 144.468 197.44 144.582 197.703 144.808C197.969 145.034 198.102 145.39 198.102 145.874V148.623H197.482ZM196.191 148.033C196.505 148.033 196.758 147.945 196.947 147.771C197.139 147.594 197.235 147.346 197.235 147.029V146.675L196.711 146.697C196.302 146.712 196.005 146.781 195.818 146.904C195.633 147.024 195.541 147.21 195.541 147.461C195.541 147.643 195.595 147.784 195.704 147.885C195.812 147.983 195.974 148.033 196.191 148.033Z" fill="#52479C"/>
<path d="M200.832 147.996C201.044 147.996 201.255 147.962 201.467 147.896V148.549C201.371 148.591 201.247 148.625 201.094 148.652C200.944 148.682 200.788 148.697 200.626 148.697C199.804 148.697 199.393 148.264 199.393 147.398V145.199H198.836V144.815L199.434 144.498L199.729 143.635H200.264V144.542H201.426V145.199H200.264V147.383C200.264 147.592 200.316 147.747 200.419 147.848C200.525 147.946 200.662 147.996 200.832 147.996Z" fill="#52479C"/>
<path d="M203.153 148.623H202.286V144.542H203.153V148.623ZM202.234 143.461C202.234 143.306 202.276 143.187 202.36 143.103C202.446 143.02 202.567 142.978 202.725 142.978C202.877 142.978 202.995 143.02 203.079 143.103C203.165 143.187 203.208 143.306 203.208 143.461C203.208 143.609 203.165 143.726 203.079 143.812C202.995 143.895 202.877 143.937 202.725 143.937C202.567 143.937 202.446 143.895 202.36 143.812C202.276 143.726 202.234 143.609 202.234 143.461Z" fill="#52479C"/>
<path d="M208.016 146.575C208.016 147.242 207.845 147.762 207.503 148.136C207.161 148.51 206.685 148.697 206.075 148.697C205.694 148.697 205.357 148.611 205.064 148.438C204.771 148.266 204.546 148.019 204.389 147.697C204.232 147.375 204.153 147.001 204.153 146.575C204.153 145.914 204.323 145.397 204.662 145.026C205.001 144.654 205.48 144.468 206.097 144.468C206.688 144.468 207.155 144.659 207.499 145.04C207.844 145.419 208.016 145.931 208.016 146.575ZM205.046 146.575C205.046 147.517 205.394 147.988 206.09 147.988C206.779 147.988 207.123 147.517 207.123 146.575C207.123 145.643 206.776 145.177 206.082 145.177C205.718 145.177 205.454 145.297 205.289 145.538C205.127 145.779 205.046 146.125 205.046 146.575Z" fill="#52479C"/>
<path d="M212.606 148.623H211.735V146.114C211.735 145.799 211.671 145.564 211.543 145.409C211.418 145.254 211.217 145.177 210.942 145.177C210.575 145.177 210.307 145.285 210.137 145.501C209.968 145.718 209.883 146.081 209.883 146.59V148.623H209.016V144.542H209.695L209.816 145.077H209.861C209.984 144.883 210.158 144.733 210.385 144.627C210.611 144.521 210.862 144.468 211.137 144.468C212.116 144.468 212.606 144.966 212.606 145.963V148.623Z" fill="#52479C"/>
<rect x="151.317" y="153.818" width="61.8678" height="2.83364" rx="1.41682" fill="#52479C"/>
<rect x="143.879" y="194.552" width="397.89" height="0.236137" rx="0.118068" fill="white" stroke="#DFDFDF" stroke-width="0.236137"/>
<rect x="143.879" y="162.437" width="397.89" height="0.236137" rx="0.118068" fill="white" stroke="#DFDFDF" stroke-width="0.236137"/>
<rect x="205.656" y="171.32" width="46.6996" height="15.0573" rx="3.5" fill="white" stroke="#CFCFCF"/>
<rect x="264.69" y="171.32" width="46.6996" height="15.0573" rx="3.5" fill="white" stroke="#CFCFCF"/>
<rect x="269.385" y="175.07" width="29.281" height="7.0841" rx="3.54205" fill="#ECECEC"/>
<rect x="210.351" y="175.07" width="29.281" height="7.0841" rx="3.54205" fill="#ECECEC"/>
<path d="M257.011 185.439V184.267H260.023V185.439H257.011Z" fill="#CFCFCF"/>
<rect x="151.817" y="171.32" width="45.2828" height="15.0573" rx="3.5" fill="white" stroke="#CFCFCF"/>
<rect x="156.512" y="176.015" width="29.281" height="7.0841" rx="3.54205" fill="#ECECEC"/>
<path d="M189.903 178.749L190.988 179.834L192.073 178.749L192.405 179.081L190.988 180.498L189.571 179.081L189.903 178.749Z" fill="#CFCFCF"/>
<rect x="319.947" y="171.32" width="83.537" height="15.0573" rx="3.5" fill="white" stroke="#CFCFCF"/>
<path fill-rule="evenodd" clip-rule="evenodd" d="M328.231 179.222H328.495L330.164 180.895L329.666 181.393L327.993 179.724V179.46L327.903 179.366C327.522 179.694 327.026 179.891 326.488 179.891C325.287 179.891 324.313 178.918 324.313 177.717C324.313 176.516 325.287 175.543 326.488 175.543C327.689 175.543 328.662 176.516 328.662 177.717C328.662 178.256 328.465 178.751 328.137 179.132L328.231 179.222ZM324.982 177.717C324.982 178.55 325.655 179.222 326.488 179.222C327.321 179.222 327.993 178.55 327.993 177.717C327.993 176.884 327.321 176.212 326.488 176.212C325.655 176.212 324.982 176.884 324.982 177.717Z" fill="#B1B1B1"/>
<path d="M304.57 178.136H304.094V178.612H304.57V178.136ZM305.511 178.136H305.046V178.612H305.511V178.136ZM306.463 178.136H305.987V178.612H306.463V178.136ZM306.928 176.487H306.695V176.011H306.219V176.487H304.337V176.011H303.861V176.487H303.629C303.489 176.487 303.374 176.535 303.286 176.631C303.197 176.719 303.153 176.83 303.153 176.963V180.262C303.153 180.394 303.197 180.509 303.286 180.605C303.382 180.693 303.496 180.738 303.629 180.738H306.928C307.06 180.738 307.171 180.693 307.26 180.605C307.356 180.509 307.404 180.394 307.404 180.262V176.963C307.404 176.83 307.356 176.719 307.26 176.631C307.171 176.535 307.06 176.487 306.928 176.487ZM306.928 180.262H303.629V177.671H306.928V180.262Z" fill="#CFCFCF"/>
<path d="M245.536 178.136H245.06V178.612H245.536V178.136ZM246.477 178.136H246.012V178.612H246.477V178.136ZM247.429 178.136H246.953V178.612H247.429V178.136ZM247.893 176.487H247.661V176.011H247.185V176.487H245.303V176.011H244.827V176.487H244.595C244.455 176.487 244.34 176.535 244.252 176.631C244.163 176.719 244.119 176.83 244.119 176.963V180.262C244.119 180.394 244.163 180.509 244.252 180.605C244.348 180.693 244.462 180.738 244.595 180.738H247.893C248.026 180.738 248.137 180.693 248.225 180.605C248.321 180.509 248.369 180.394 248.369 180.262V176.963C248.369 176.83 248.321 176.719 248.225 176.631C248.137 176.535 248.026 176.487 247.893 176.487ZM247.893 180.262H244.595V177.671H247.893V180.262Z" fill="#CFCFCF"/>
<rect x="151.435" y="217.221" width="382.778" height="0.236137" rx="0.118068" fill="white" stroke="#DFDFDF" stroke-width="0.236137"/>
<rect x="480.02" y="170.82" width="46.7551" height="16.0573" rx="4" fill="#CFCFCF"/>
<rect x="437.987" y="175.542" width="29.281" height="7.0841" rx="3.54205" fill="#ECECEC"/>
<rect x="426.771" y="170.466" width="0.236137" height="15.8212" rx="0.118068" fill="white" stroke="#CFCFCF" stroke-width="0.236137"/>
<g filter="url(#filter1_d)">
<rect x="143.761" y="79.671" width="398.127" height="43.9214" rx="4" fill="white"/>
</g>
<path d="M152.385 112.258V104.166H153.708V112.258H152.385Z" fill="#777777"/>
<path d="M162.43 108.135C162.43 109.47 162.059 110.492 161.318 111.201C160.576 111.905 159.508 112.258 158.113 112.258H155.85V104.166H158.351C159.639 104.166 160.641 104.513 161.357 105.207C162.072 105.901 162.43 106.877 162.43 108.135ZM161.036 108.179C161.036 106.242 160.13 105.273 158.318 105.273H157.173V111.145H158.113C160.062 111.145 161.036 110.157 161.036 108.179Z" fill="#777777"/>
<path d="M165.496 107.93H166.415C167.031 107.93 167.478 107.816 167.754 107.587C168.031 107.358 168.17 107.019 168.17 106.568C168.17 106.111 168.02 105.783 167.721 105.583C167.422 105.384 166.972 105.284 166.371 105.284H165.496V107.93ZM165.496 109.026V112.258H164.174V104.166H166.459C167.504 104.166 168.277 104.362 168.778 104.753C169.28 105.144 169.531 105.735 169.531 106.524C169.531 107.531 169.007 108.249 167.959 108.677L170.245 112.258H168.74L166.803 109.026H165.496Z" fill="#777777"/>
<path d="M181.923 106.026C181.923 106.539 181.773 106.967 181.474 107.31C181.175 107.649 180.755 107.878 180.212 107.996V108.041C180.862 108.122 181.349 108.325 181.674 108.649C181.998 108.97 182.161 109.398 182.161 109.933C182.161 110.712 181.886 111.313 181.336 111.738C180.786 112.158 180.004 112.369 178.989 112.369C178.093 112.369 177.336 112.223 176.72 111.931V110.775C177.063 110.944 177.427 111.075 177.811 111.168C178.194 111.26 178.563 111.306 178.917 111.306C179.545 111.306 180.013 111.19 180.323 110.957C180.633 110.725 180.788 110.365 180.788 109.878C180.788 109.446 180.617 109.129 180.273 108.926C179.93 108.723 179.392 108.622 178.657 108.622H177.954V107.565H178.668C179.96 107.565 180.605 107.118 180.605 106.225C180.605 105.878 180.493 105.611 180.268 105.423C180.043 105.235 179.711 105.141 179.272 105.141C178.965 105.141 178.67 105.185 178.386 105.273C178.102 105.358 177.766 105.526 177.379 105.777L176.742 104.869C177.484 104.323 178.346 104.05 179.327 104.05C180.142 104.05 180.779 104.225 181.236 104.576C181.694 104.927 181.923 105.41 181.923 106.026Z" fill="#777777"/>
<path d="M185.963 107.205C186.778 107.205 187.424 107.421 187.9 107.852C188.376 108.284 188.614 108.873 188.614 109.618C188.614 110.481 188.343 111.156 187.8 111.644C187.262 112.127 186.494 112.369 185.498 112.369C184.594 112.369 183.884 112.223 183.367 111.931V110.752C183.666 110.922 184.009 111.053 184.397 111.145C184.784 111.238 185.144 111.284 185.476 111.284C186.062 111.284 186.509 111.153 186.815 110.891C187.121 110.629 187.274 110.245 187.274 109.74C187.274 108.773 186.658 108.29 185.426 108.29C185.253 108.29 185.039 108.308 184.784 108.345C184.529 108.378 184.306 108.417 184.114 108.461L183.533 108.118L183.843 104.166H188.049V105.323H184.989L184.806 107.327C184.935 107.304 185.092 107.279 185.277 107.249C185.465 107.22 185.693 107.205 185.963 107.205Z" fill="#777777"/>
<path d="M195.178 108.212C195.178 109.618 194.951 110.662 194.497 111.345C194.047 112.027 193.357 112.369 192.427 112.369C191.527 112.369 190.844 112.016 190.379 111.311C189.914 110.607 189.682 109.574 189.682 108.212C189.682 106.784 189.907 105.733 190.357 105.058C190.811 104.379 191.501 104.039 192.427 104.039C193.331 104.039 194.015 104.393 194.48 105.102C194.945 105.81 195.178 106.847 195.178 108.212ZM190.999 108.212C190.999 109.315 191.112 110.103 191.337 110.575C191.566 111.048 191.929 111.284 192.427 111.284C192.925 111.284 193.289 111.044 193.517 110.564C193.75 110.085 193.866 109.301 193.866 108.212C193.866 107.127 193.75 106.343 193.517 105.86C193.289 105.373 192.925 105.129 192.427 105.129C191.929 105.129 191.566 105.367 191.337 105.843C191.112 106.319 190.999 107.109 190.999 108.212Z" fill="#777777"/>
<path d="M196.406 111.566C196.406 111.297 196.476 111.09 196.617 110.946C196.757 110.802 196.96 110.73 197.225 110.73C197.495 110.73 197.7 110.806 197.84 110.957C197.98 111.105 198.05 111.308 198.05 111.566C198.05 111.828 197.978 112.036 197.834 112.191C197.694 112.343 197.491 112.418 197.225 112.418C196.96 112.418 196.757 112.343 196.617 112.191C196.476 112.04 196.406 111.832 196.406 111.566Z" fill="#777777"/>
<path d="M204.774 108.212C204.774 109.618 204.548 110.662 204.094 111.345C203.644 112.027 202.954 112.369 202.024 112.369C201.124 112.369 200.441 112.016 199.976 111.311C199.511 110.607 199.279 109.574 199.279 108.212C199.279 106.784 199.504 105.733 199.954 105.058C200.408 104.379 201.098 104.039 202.024 104.039C202.928 104.039 203.612 104.393 204.077 105.102C204.542 105.81 204.774 106.847 204.774 108.212ZM200.596 108.212C200.596 109.315 200.708 110.103 200.934 110.575C201.162 111.048 201.526 111.284 202.024 111.284C202.522 111.284 202.885 111.044 203.114 110.564C203.347 110.085 203.463 109.301 203.463 108.212C203.463 107.127 203.347 106.343 203.114 105.86C202.885 105.373 202.522 105.129 202.024 105.129C201.526 105.129 201.162 105.367 200.934 105.843C200.708 106.319 200.596 107.109 200.596 108.212Z" fill="#777777"/>
<path d="M211.25 108.212C211.25 109.618 211.023 110.662 210.569 111.345C210.119 112.027 209.429 112.369 208.499 112.369C207.599 112.369 206.916 112.016 206.451 111.311C205.986 110.607 205.754 109.574 205.754 108.212C205.754 106.784 205.979 105.733 206.429 105.058C206.883 104.379 207.573 104.039 208.499 104.039C209.403 104.039 210.087 104.393 210.552 105.102C211.017 105.81 211.25 106.847 211.25 108.212ZM207.071 108.212C207.071 109.315 207.184 110.103 207.409 110.575C207.638 111.048 208.001 111.284 208.499 111.284C208.997 111.284 209.361 111.044 209.589 110.564C209.822 110.085 209.938 109.301 209.938 108.212C209.938 107.127 209.822 106.343 209.589 105.86C209.361 105.373 208.997 105.129 208.499 105.129C208.001 105.129 207.638 105.367 207.409 105.843C207.184 106.319 207.071 107.109 207.071 108.212Z" fill="#777777"/>
<path d="M217.725 108.212C217.725 109.618 217.498 110.662 217.044 111.345C216.594 112.027 215.904 112.369 214.974 112.369C214.074 112.369 213.392 112.016 212.927 111.311C212.462 110.607 212.229 109.574 212.229 108.212C212.229 106.784 212.454 105.733 212.905 105.058C213.358 104.379 214.048 104.039 214.974 104.039C215.878 104.039 216.563 104.393 217.028 105.102C217.493 105.81 217.725 106.847 217.725 108.212ZM213.547 108.212C213.547 109.315 213.659 110.103 213.884 110.575C214.113 111.048 214.476 111.284 214.974 111.284C215.473 111.284 215.836 111.044 216.065 110.564C216.297 110.085 216.413 109.301 216.413 108.212C216.413 107.127 216.297 106.343 216.065 105.86C215.836 105.373 215.473 105.129 214.974 105.129C214.476 105.129 214.113 105.367 213.884 105.843C213.659 106.319 213.547 107.109 213.547 108.212Z" fill="#777777"/>
<path d="M218.954 111.566C218.954 111.297 219.024 111.09 219.164 110.946C219.304 110.802 219.507 110.73 219.773 110.73C220.042 110.73 220.247 110.806 220.387 110.957C220.527 111.105 220.597 111.308 220.597 111.566C220.597 111.828 220.525 112.036 220.382 112.191C220.241 112.343 220.038 112.418 219.773 112.418C219.507 112.418 219.304 112.343 219.164 112.191C219.024 112.04 218.954 111.832 218.954 111.566Z" fill="#777777"/>
<path d="M227.322 108.212C227.322 109.618 227.095 110.662 226.641 111.345C226.191 112.027 225.501 112.369 224.571 112.369C223.671 112.369 222.988 112.016 222.523 111.311C222.059 110.607 221.826 109.574 221.826 108.212C221.826 106.784 222.051 105.733 222.501 105.058C222.955 104.379 223.645 104.039 224.571 104.039C225.475 104.039 226.16 104.393 226.624 105.102C227.089 105.81 227.322 106.847 227.322 108.212ZM223.143 108.212C223.143 109.315 223.256 110.103 223.481 110.575C223.71 111.048 224.073 111.284 224.571 111.284C225.069 111.284 225.433 111.044 225.661 110.564C225.894 110.085 226.01 109.301 226.01 108.212C226.01 107.127 225.894 106.343 225.661 105.86C225.433 105.373 225.069 105.129 224.571 105.129C224.073 105.129 223.71 105.367 223.481 105.843C223.256 106.319 223.143 107.109 223.143 108.212Z" fill="#777777"/>
<path d="M233.797 108.212C233.797 109.618 233.57 110.662 233.116 111.345C232.666 112.027 231.976 112.369 231.046 112.369C230.146 112.369 229.464 112.016 228.999 111.311C228.534 110.607 228.301 109.574 228.301 108.212C228.301 106.784 228.526 105.733 228.977 105.058C229.43 104.379 230.12 104.039 231.046 104.039C231.95 104.039 232.635 104.393 233.1 105.102C233.565 105.81 233.797 106.847 233.797 108.212ZM229.619 108.212C229.619 109.315 229.731 110.103 229.956 110.575C230.185 111.048 230.548 111.284 231.046 111.284C231.545 111.284 231.908 111.044 232.137 110.564C232.369 110.085 232.485 109.301 232.485 108.212C232.485 107.127 232.369 106.343 232.137 105.86C231.908 105.373 231.545 105.129 231.046 105.129C230.548 105.129 230.185 105.367 229.956 105.843C229.731 106.319 229.619 107.109 229.619 108.212Z" fill="#777777"/>
<path d="M240.272 108.212C240.272 109.618 240.046 110.662 239.592 111.345C239.142 112.027 238.452 112.369 237.522 112.369C236.622 112.369 235.939 112.016 235.474 111.311C235.009 110.607 234.777 109.574 234.777 108.212C234.777 106.784 235.002 105.733 235.452 105.058C235.906 104.379 236.596 104.039 237.522 104.039C238.426 104.039 239.11 104.393 239.575 105.102C240.04 105.81 240.272 106.847 240.272 108.212ZM236.094 108.212C236.094 109.315 236.206 110.103 236.432 110.575C236.66 111.048 237.024 111.284 237.522 111.284C238.02 111.284 238.383 111.044 238.612 110.564C238.845 110.085 238.961 109.301 238.961 108.212C238.961 107.127 238.845 106.343 238.612 105.86C238.383 105.373 238.02 105.129 237.522 105.129C237.024 105.129 236.66 105.367 236.432 105.843C236.206 106.319 236.094 107.109 236.094 108.212Z" fill="#777777"/>
<path d="M153.553 92.3227L154.83 89.8617H155.789L153.992 93.164V95.256H153.107V93.1935L151.317 89.8617H152.276L153.553 92.3227Z" fill="#9B9B9B"/>
<path d="M160.028 93.2083C160.028 93.8748 159.857 94.3951 159.516 94.769C159.174 95.1428 158.698 95.3298 158.088 95.3298C157.706 95.3298 157.369 95.2437 157.077 95.0715C156.784 94.8993 156.559 94.6521 156.401 94.3299C156.244 94.0077 156.165 93.6338 156.165 93.2083C156.165 92.5466 156.335 92.03 156.674 91.6586C157.014 91.2872 157.492 91.1015 158.11 91.1015C158.7 91.1015 159.167 91.2921 159.512 91.6734C159.856 92.0522 160.028 92.5638 160.028 93.2083ZM157.058 93.2083C157.058 94.1503 157.406 94.6214 158.102 94.6214C158.791 94.6214 159.135 94.1503 159.135 93.2083C159.135 92.276 158.789 91.8099 158.095 91.8099C157.731 91.8099 157.467 91.9304 157.302 92.1715C157.139 92.4125 157.058 92.7581 157.058 93.2083Z" fill="#9B9B9B"/>
<path d="M163.906 95.256L163.784 94.721H163.74C163.62 94.9104 163.447 95.0592 163.224 95.1674C163.002 95.2757 162.749 95.3298 162.464 95.3298C161.969 95.3298 161.6 95.2068 161.357 94.9608C161.113 94.7149 160.991 94.3422 160.991 93.8429V91.1753H161.866V93.6916C161.866 94.004 161.93 94.2389 162.058 94.3963C162.186 94.5513 162.386 94.6288 162.659 94.6288C163.023 94.6288 163.29 94.5205 163.46 94.3041C163.632 94.0852 163.718 93.7199 163.718 93.2083V91.1753H164.589V95.256H163.906Z" fill="#9B9B9B"/>
<path d="M167.895 91.1015C168.069 91.1015 168.213 91.1138 168.326 91.1384L168.242 91.9464C168.119 91.9169 167.991 91.9021 167.858 91.9021C167.511 91.9021 167.229 92.0153 167.013 92.2416C166.799 92.4679 166.692 92.7618 166.692 93.1234V95.256H165.825V91.1753H166.504L166.618 91.8947H166.662C166.798 91.6512 166.974 91.4581 167.19 91.3155C167.409 91.1728 167.644 91.1015 167.895 91.1015Z" fill="#9B9B9B"/>
<path d="M173.437 90.5406C172.93 90.5406 172.531 90.7202 172.241 91.0793C171.951 91.4385 171.806 91.9341 171.806 92.5663C171.806 93.2279 171.945 93.7285 172.223 94.0679C172.503 94.4074 172.908 94.5771 173.437 94.5771C173.665 94.5771 173.887 94.555 174.101 94.5107C174.315 94.464 174.537 94.4049 174.768 94.3336V95.09C174.345 95.2498 173.866 95.3298 173.33 95.3298C172.54 95.3298 171.934 95.0912 171.511 94.614C171.087 94.1343 170.876 93.4493 170.876 92.5589C170.876 91.998 170.978 91.5073 171.182 91.0867C171.389 90.6661 171.686 90.3439 172.075 90.12C172.464 89.8962 172.92 89.7843 173.444 89.7843C173.995 89.7843 174.504 89.8999 174.971 90.1311L174.654 90.8653C174.472 90.7792 174.279 90.7042 174.075 90.6403C173.873 90.5738 173.66 90.5406 173.437 90.5406Z" fill="#9B9B9B"/>
<path d="M178.392 95.256L178.218 94.6878H178.189C177.992 94.9362 177.794 95.106 177.595 95.197C177.395 95.2855 177.14 95.3298 176.827 95.3298C176.426 95.3298 176.113 95.2216 175.886 95.0051C175.663 94.7886 175.551 94.4824 175.551 94.0864C175.551 93.6658 175.707 93.3485 176.019 93.1345C176.332 92.9205 176.808 92.8036 177.447 92.7839L178.152 92.7618V92.5441C178.152 92.2834 178.09 92.0891 177.967 91.9612C177.847 91.8308 177.659 91.7656 177.403 91.7656C177.194 91.7656 176.993 91.7963 176.801 91.8578C176.61 91.9193 176.425 91.9919 176.248 92.0755L175.968 91.4557C176.189 91.3401 176.431 91.2527 176.694 91.1937C176.958 91.1322 177.206 91.1015 177.44 91.1015C177.959 91.1015 178.35 91.2146 178.613 91.4409C178.879 91.6672 179.012 92.0226 179.012 92.5072V95.256H178.392ZM177.1 94.6657C177.415 94.6657 177.667 94.5783 177.857 94.4037C178.049 94.2266 178.144 93.9794 178.144 93.6621V93.3079L177.621 93.33C177.212 93.3448 176.915 93.4136 176.728 93.5366C176.543 93.6572 176.451 93.8429 176.451 94.0938C176.451 94.2758 176.505 94.4172 176.613 94.5181C176.722 94.6165 176.884 94.6657 177.1 94.6657Z" fill="#9B9B9B"/>
<path d="M182.963 94.0938C182.963 94.4922 182.818 94.7985 182.528 95.0125C182.238 95.224 181.822 95.3298 181.281 95.3298C180.737 95.3298 180.3 95.2474 179.971 95.0826V94.3336C180.451 94.555 180.897 94.6657 181.31 94.6657C181.844 94.6657 182.111 94.5045 182.111 94.1823C182.111 94.079 182.081 93.9929 182.022 93.924C181.963 93.8552 181.866 93.7838 181.731 93.71C181.596 93.6362 181.407 93.5526 181.166 93.4591C180.696 93.2771 180.378 93.0951 180.211 92.9131C180.046 92.7311 179.963 92.4949 179.963 92.2047C179.963 91.8554 180.104 91.5848 180.384 91.3929C180.667 91.1986 181.051 91.1015 181.535 91.1015C182.015 91.1015 182.469 91.1986 182.897 91.3929L182.616 92.046C182.176 91.864 181.806 91.773 181.506 91.773C181.048 91.773 180.819 91.9033 180.819 92.1641C180.819 92.292 180.879 92.4002 180.997 92.4888C181.117 92.5773 181.378 92.6991 181.779 92.854C182.116 92.9844 182.361 93.1037 182.513 93.2119C182.666 93.3202 182.779 93.4456 182.852 93.5883C182.926 93.7285 182.963 93.897 182.963 94.0938Z" fill="#9B9B9B"/>
<path d="M187.494 95.256H186.623V92.747C186.623 92.4322 186.559 92.1973 186.431 92.0423C186.306 91.8874 186.105 91.8099 185.83 91.8099C185.466 91.8099 185.198 91.9193 185.026 92.1383C184.856 92.3547 184.771 92.7188 184.771 93.2304V95.256H183.904V89.5149H184.771V90.9723C184.771 91.206 184.756 91.4557 184.727 91.7213H184.782C184.9 91.5245 185.064 91.372 185.273 91.2638C185.484 91.1556 185.73 91.1015 186.011 91.1015C187 91.1015 187.494 91.5996 187.494 92.5958V95.256Z" fill="#9B9B9B"/>
<path d="M190.756 89.8617H192.357C193.1 89.8617 193.636 89.97 193.966 90.1864C194.298 90.4029 194.464 90.7448 194.464 91.2122C194.464 91.527 194.383 91.789 194.22 91.998C194.058 92.2071 193.824 92.3387 193.519 92.3928V92.4297C193.898 92.5011 194.176 92.6425 194.353 92.854C194.533 93.0631 194.622 93.3472 194.622 93.7064C194.622 94.1909 194.453 94.571 194.113 94.8464C193.776 95.1195 193.306 95.256 192.704 95.256H190.756V89.8617ZM191.637 92.0903H192.486C192.855 92.0903 193.124 92.0325 193.294 91.9169C193.464 91.7988 193.549 91.5996 193.549 91.3192C193.549 91.0658 193.456 90.8825 193.272 90.7694C193.09 90.6563 192.8 90.5997 192.401 90.5997H191.637V92.0903ZM191.637 92.8061V94.5144H192.575C192.944 94.5144 193.222 94.4443 193.409 94.3041C193.598 94.1614 193.693 93.9376 193.693 93.6326C193.693 93.3521 193.597 93.1443 193.405 93.009C193.213 92.8737 192.921 92.8061 192.53 92.8061H191.637Z" fill="#9B9B9B"/>
<path d="M198.205 95.256L198.032 94.6878H198.002C197.805 94.9362 197.607 95.106 197.408 95.197C197.209 95.2855 196.953 95.3298 196.641 95.3298C196.24 95.3298 195.926 95.2216 195.7 95.0051C195.476 94.7886 195.364 94.4824 195.364 94.0864C195.364 93.6658 195.52 93.3485 195.833 93.1345C196.145 92.9205 196.621 92.8036 197.261 92.7839L197.965 92.7618V92.5441C197.965 92.2834 197.904 92.0891 197.781 91.9612C197.66 91.8308 197.472 91.7656 197.216 91.7656C197.007 91.7656 196.807 91.7963 196.615 91.8578C196.423 91.9193 196.238 91.9919 196.061 92.0755L195.781 91.4557C196.002 91.3401 196.245 91.2527 196.508 91.1937C196.771 91.1322 197.019 91.1015 197.253 91.1015C197.772 91.1015 198.163 91.2146 198.426 91.4409C198.692 91.6672 198.825 92.0226 198.825 92.5072V95.256H198.205ZM196.914 94.6657C197.229 94.6657 197.481 94.5783 197.67 94.4037C197.862 94.2266 197.958 93.9794 197.958 93.6621V93.3079L197.434 93.33C197.026 93.3448 196.728 93.4136 196.541 93.5366C196.357 93.6572 196.264 93.8429 196.264 94.0938C196.264 94.2758 196.318 94.4172 196.427 94.5181C196.535 94.6165 196.697 94.6657 196.914 94.6657Z" fill="#9B9B9B"/>
<path d="M200.902 95.256H200.035V89.5149H200.902V95.256Z" fill="#9B9B9B"/>
<path d="M204.699 95.256L204.525 94.6878H204.496C204.299 94.9362 204.101 95.106 203.902 95.197C203.703 95.2855 203.447 95.3298 203.134 95.3298C202.733 95.3298 202.42 95.2216 202.194 95.0051C201.97 94.7886 201.858 94.4824 201.858 94.0864C201.858 93.6658 202.014 93.3485 202.326 93.1345C202.639 92.9205 203.115 92.8036 203.754 92.7839L204.459 92.7618V92.5441C204.459 92.2834 204.397 92.0891 204.275 91.9612C204.154 91.8308 203.966 91.7656 203.71 91.7656C203.501 91.7656 203.3 91.7963 203.109 91.8578C202.917 91.9193 202.732 91.9919 202.555 92.0755L202.275 91.4557C202.496 91.3401 202.738 91.2527 203.002 91.1937C203.265 91.1322 203.513 91.1015 203.747 91.1015C204.266 91.1015 204.657 91.2146 204.92 91.4409C205.186 91.6672 205.319 92.0226 205.319 92.5072V95.256H204.699ZM203.407 94.6657C203.722 94.6657 203.974 94.5783 204.164 94.4037C204.356 94.2266 204.452 93.9794 204.452 93.6621V93.3079L203.928 93.33C203.519 93.3448 203.222 93.4136 203.035 93.5366C202.85 93.6572 202.758 93.8429 202.758 94.0938C202.758 94.2758 202.812 94.4172 202.92 94.5181C203.029 94.6165 203.191 94.6657 203.407 94.6657Z" fill="#9B9B9B"/>
<path d="M210.119 95.256H209.248V92.747C209.248 92.4322 209.184 92.1973 209.056 92.0423C208.931 91.8874 208.73 91.8099 208.455 91.8099C208.088 91.8099 207.82 91.9181 207.651 92.1346C207.481 92.351 207.396 92.7138 207.396 93.223V95.256H206.529V91.1753H207.208L207.33 91.7103H207.374C207.497 91.5159 207.671 91.3659 207.898 91.2601C208.124 91.1544 208.375 91.1015 208.65 91.1015C209.629 91.1015 210.119 91.5996 210.119 92.5958V95.256Z" fill="#9B9B9B"/>
<path d="M212.971 95.3298C212.354 95.3298 211.884 95.1502 211.562 94.7911C211.242 94.4295 211.082 93.9117 211.082 93.2378C211.082 92.5515 211.249 92.0239 211.584 91.6549C211.921 91.2859 212.406 91.1015 213.041 91.1015C213.472 91.1015 213.859 91.1814 214.203 91.3413L213.941 92.0386C213.575 91.896 213.272 91.8246 213.034 91.8246C212.328 91.8246 211.975 92.2932 211.975 93.2304C211.975 93.6879 212.062 94.0323 212.237 94.2635C212.414 94.4922 212.672 94.6066 213.012 94.6066C213.398 94.6066 213.763 94.5107 214.107 94.3188V95.0752C213.952 95.1662 213.786 95.2314 213.609 95.2708C213.435 95.3101 213.222 95.3298 212.971 95.3298Z" fill="#9B9B9B"/>
<path d="M216.849 95.3298C216.214 95.3298 215.717 95.1453 215.358 94.7763C215.002 94.4049 214.823 93.8945 214.823 93.2451C214.823 92.5786 214.989 92.0546 215.321 91.6734C215.653 91.2921 216.11 91.1015 216.69 91.1015C217.229 91.1015 217.654 91.265 217.967 91.5922C218.279 91.9193 218.435 92.3695 218.435 92.9426V93.4112H215.716C215.728 93.8072 215.835 94.1122 216.037 94.3262C216.239 94.5377 216.523 94.6435 216.889 94.6435C217.13 94.6435 217.354 94.6214 217.561 94.5771C217.77 94.5304 217.994 94.4541 218.232 94.3483V95.0531C218.021 95.1539 217.807 95.2253 217.59 95.2671C217.374 95.3089 217.127 95.3298 216.849 95.3298ZM216.69 91.7582C216.415 91.7582 216.193 91.8455 216.026 92.0202C215.861 92.1948 215.763 92.4494 215.731 92.7839H217.583C217.578 92.447 217.497 92.1924 217.34 92.0202C217.182 91.8455 216.966 91.7582 216.69 91.7582Z" fill="#9B9B9B"/>
<rect x="458.323" y="94.3392" width="67.9519" height="15.0573" rx="3.5" fill="white" stroke="#52479C"/>
<path d="M483.227 104.701H482.455V100.643H481.067V99.9815H484.615V100.643H483.227V104.701Z" fill="#52479C"/>
<path d="M488.428 102.91C488.428 103.493 488.278 103.948 487.979 104.275C487.68 104.602 487.264 104.766 486.73 104.766C486.396 104.766 486.101 104.691 485.845 104.54C485.589 104.389 485.392 104.173 485.254 103.891C485.117 103.609 485.048 103.282 485.048 102.91C485.048 102.331 485.196 101.879 485.493 101.554C485.79 101.229 486.209 101.066 486.749 101.066C487.266 101.066 487.675 101.233 487.976 101.567C488.277 101.898 488.428 102.346 488.428 102.91ZM485.829 102.91C485.829 103.734 486.134 104.146 486.743 104.146C487.345 104.146 487.647 103.734 487.647 102.91C487.647 102.094 487.343 101.686 486.736 101.686C486.418 101.686 486.186 101.792 486.042 102.003C485.9 102.213 485.829 102.516 485.829 102.91Z" fill="#52479C"/>
<path d="M491.114 104.766C490.662 104.766 490.311 104.604 490.062 104.279H490.016C490.046 104.58 490.062 104.763 490.062 104.827V106.29H489.303V101.131H489.916C489.933 101.198 489.969 101.357 490.023 101.609H490.062C490.298 101.247 490.653 101.066 491.127 101.066C491.572 101.066 491.919 101.228 492.166 101.551C492.416 101.873 492.541 102.326 492.541 102.91C492.541 103.493 492.414 103.948 492.16 104.275C491.908 104.602 491.56 104.766 491.114 104.766ZM490.93 101.686C490.629 101.686 490.408 101.774 490.268 101.951C490.13 102.127 490.062 102.409 490.062 102.797V102.91C490.062 103.344 490.13 103.66 490.268 103.856C490.406 104.049 490.631 104.146 490.943 104.146C491.205 104.146 491.408 104.039 491.55 103.823C491.692 103.608 491.763 103.301 491.763 102.903C491.763 102.503 491.692 102.201 491.55 101.996C491.41 101.789 491.203 101.686 490.93 101.686Z" fill="#52479C"/>
<path d="M498.92 99.9815V103.036C498.92 103.384 498.845 103.69 498.694 103.952C498.546 104.213 498.33 104.414 498.045 104.556C497.764 104.696 497.426 104.766 497.032 104.766C496.446 104.766 495.991 104.611 495.666 104.301C495.341 103.991 495.179 103.565 495.179 103.023V99.9815H495.953V102.968C495.953 103.357 496.044 103.645 496.225 103.83C496.405 104.015 496.683 104.107 497.058 104.107C497.785 104.107 498.149 103.725 498.149 102.961V99.9815H498.92Z" fill="#52479C"/>
<path d="M501.858 104.766C501.406 104.766 501.055 104.604 500.806 104.279H500.761C500.791 104.58 500.806 104.763 500.806 104.827V106.29H500.047V101.131H500.66C500.678 101.198 500.713 101.357 500.767 101.609H500.806C501.043 101.247 501.398 101.066 501.871 101.066C502.317 101.066 502.663 101.228 502.911 101.551C503.16 101.873 503.285 102.326 503.285 102.91C503.285 103.493 503.158 103.948 502.904 104.275C502.652 104.602 502.304 104.766 501.858 104.766ZM501.674 101.686C501.373 101.686 501.152 101.774 501.012 101.951C500.875 102.127 500.806 102.409 500.806 102.797V102.91C500.806 103.344 500.875 103.66 501.012 103.856C501.15 104.049 501.375 104.146 501.687 104.146C501.95 104.146 502.152 104.039 502.294 103.823C502.436 103.608 502.507 103.301 502.507 102.903C502.507 102.503 502.436 102.201 502.294 101.996C502.154 101.789 501.948 101.686 501.674 101.686Z" fill="#52479C"/>
<g filter="url(#filter2_d)">
<rect x="128.648" y="40" width="428.352" height="26.4473" fill="white"/>
</g>
<rect x="460.656" y="43.7782" width="81.2311" height="18.8909" rx="4" fill="white"/>
<g filter="url(#filter3_d)">
<circle cx="530.553" cy="53.2237" r="7.55638" fill="#C4C4C4"/>
</g>
<rect x="375.175" y="48.9732" width="34.0037" height="9.44547" rx="4" fill="#ECECEC"/>
<rect x="416.735" y="48.9732" width="13.2237" height="9.44547" rx="4" fill="#ECECEC"/>
<rect x="486.159" y="46.1396" width="33.0592" height="6.13956" rx="3.06978" fill="#ECECEC"/>
<rect x="462.545" y="54.1682" width="56.6728" height="6.13956" rx="3.06978" fill="#ECECEC"/>
<rect x="333.615" y="48.9732" width="34.0037" height="9.44547" rx="4" fill="#ECECEC"/>
<rect x="144.705" y="47.0841" width="60.451" height="13.2237" rx="4" fill="#ECECEC"/>
<rect x="46" y="40" width="82.6479" height="321.146" fill="#52479C"/>
<path fill-rule="evenodd" clip-rule="evenodd" d="M58.6472 50.2187C58.0115 49.8813 57.1986 50.0815 56.8316 50.666L55.2532 53.1793C54.8862 53.7638 55.104 54.5111 55.7397 54.8486C56.3754 55.186 57.1883 54.9857 57.5554 54.4013L59.1337 51.8879C59.5007 51.3035 59.2829 50.5561 58.6472 50.2187Z" fill="#52489C"/>
<path fill-rule="evenodd" clip-rule="evenodd" d="M67.8295 54.3833C67.1938 54.7208 66.3809 54.5205 66.0139 53.9361L63.1895 49.4385C62.8225 48.854 63.0403 48.1067 63.676 47.7693C64.3117 47.4318 65.1246 47.6321 65.4916 48.2165L68.316 52.7141C68.6831 53.2986 68.4653 54.0459 67.8295 54.3833Z" fill="url(#paint0_linear)"/>
<path fill-rule="evenodd" clip-rule="evenodd" d="M59.8059 55.9879C60.4416 56.3253 61.2545 56.1251 61.6215 55.5406L65.4843 49.3895C65.8513 48.8051 65.6335 48.0577 64.9978 47.7203C64.3621 47.3829 63.5492 47.5831 63.1822 48.1676L59.3194 54.3187C58.9524 54.9031 59.1702 55.6505 59.8059 55.9879Z" fill="url(#paint1_linear)"/>
<path fill-rule="evenodd" clip-rule="evenodd" d="M61.0738 56.0403C60.4381 56.3777 59.6252 56.1775 59.2582 55.593L56.8699 51.79C56.5029 51.2055 56.7207 50.4582 57.3564 50.1207C57.9921 49.7833 58.805 49.9835 59.1721 50.568L61.5603 54.3711C61.9274 54.9555 61.7095 55.7029 61.0738 56.0403Z" fill="url(#paint2_linear)"/>
<path fill-rule="evenodd" clip-rule="evenodd" d="M53.5564 56.1293C53.5564 55.453 54.1047 54.9046 54.7811 54.9046C55.4575 54.9046 56.0058 55.453 56.0058 56.1293C56.0058 56.8057 55.4575 57.3541 54.7811 57.3541C54.1047 57.3541 53.5564 56.8057 53.5564 56.1293Z" fill="url(#paint3_linear)"/>
<path fill-rule="evenodd" clip-rule="evenodd" d="M58.6472 50.2187C58.0115 49.8813 57.1986 50.0815 56.8316 50.666L55.2532 53.1793C54.8862 53.7638 55.104 54.5111 55.7397 54.8486C56.3754 55.186 57.1883 54.9857 57.5554 54.4013L59.1337 51.8879C59.5007 51.3035 59.2829 50.5561 58.6472 50.2187Z" fill="white"/>
<path fill-rule="evenodd" clip-rule="evenodd" d="M67.8295 54.3833C67.1938 54.7208 66.3809 54.5205 66.0139 53.9361L63.1895 49.4385C62.8225 48.854 63.0403 48.1067 63.676 47.7693C64.3117 47.4318 65.1246 47.6321 65.4916 48.2165L68.316 52.7141C68.6831 53.2986 68.4653 54.0459 67.8295 54.3833Z" fill="white"/>
<path fill-rule="evenodd" clip-rule="evenodd" d="M59.8059 55.9879C60.4416 56.3253 61.2545 56.1251 61.6215 55.5406L65.4843 49.3895C65.8513 48.8051 65.6335 48.0577 64.9978 47.7203C64.3621 47.3829 63.5492 47.5831 63.1822 48.1676L59.3194 54.3187C58.9524 54.9031 59.1702 55.6505 59.8059 55.9879Z" fill="white"/>
<path fill-rule="evenodd" clip-rule="evenodd" d="M61.0738 56.0403C60.4381 56.3777 59.6252 56.1775 59.2582 55.593L56.8699 51.79C56.5029 51.2055 56.7207 50.4582 57.3564 50.1207C57.9921 49.7833 58.805 49.9835 59.1721 50.568L61.5603 54.3711C61.9274 54.9555 61.7095 55.7029 61.0738 56.0403Z" fill="white"/>
<path fill-rule="evenodd" clip-rule="evenodd" d="M53.5564 56.1293C53.5564 55.453 54.1047 54.9046 54.7811 54.9046C55.4575 54.9046 56.0058 55.453 56.0058 56.1293C56.0058 56.8057 55.4575 57.3541 54.7811 57.3541C54.1047 57.3541 53.5564 56.8057 53.5564 56.1293Z" fill="white"/>
<path d="M72.7449 51.9098V54.8926L73.1361 54.9139V55.482H71.5027V54.9423L71.7292 54.921C71.8619 54.9068 71.9282 54.831 71.9282 54.6937V52.7194C71.9282 52.6389 71.9145 52.5845 71.887 52.5561C71.8641 52.5277 71.8207 52.5135 71.7566 52.5135L71.5164 52.4993V51.9098H72.7449ZM71.8802 51.2991C71.7841 51.1996 71.736 51.0742 71.736 50.9227C71.736 50.7711 71.7841 50.6457 71.8802 50.5463C71.9762 50.4421 72.1021 50.39 72.2576 50.39C72.4132 50.39 72.539 50.4421 72.6351 50.5463C72.7358 50.6457 72.7861 50.7711 72.7861 50.9227C72.7861 51.0742 72.7358 51.1996 72.6351 51.2991C72.539 51.3937 72.4132 51.4411 72.2576 51.4411C72.1021 51.4411 71.9762 51.3937 71.8802 51.2991Z" fill="white"/>
<path d="M73.4923 52.478V51.9098H74.6522V52.3714C74.7711 52.1963 74.929 52.059 75.1257 51.9595C75.3225 51.8554 75.5352 51.8033 75.764 51.8033C76.1118 51.8033 76.3794 51.9074 76.567 52.1158C76.7592 52.3194 76.8553 52.6271 76.8553 53.039V54.8926L77.2465 54.9139V55.482H75.613V54.9423L75.8395 54.921C75.9081 54.9115 75.9585 54.8926 75.9905 54.8642C76.0225 54.831 76.0385 54.7719 76.0385 54.6866V53.2237C76.0385 52.9633 75.9997 52.7715 75.9219 52.6484C75.8441 52.5206 75.6954 52.4567 75.4758 52.4567C75.2607 52.4567 75.0891 52.5277 74.961 52.6697C74.8329 52.8117 74.7689 52.9798 74.7689 53.1739V54.8926L75.1601 54.9139V55.482H73.5266V54.9423L73.7531 54.921C73.8217 54.9115 73.8721 54.8926 73.9041 54.8642C73.9361 54.831 73.9521 54.7719 73.9521 54.6866V52.7194C73.9521 52.5774 73.8949 52.504 73.7806 52.4993L73.4923 52.478Z" fill="white"/>
<path d="M79.4469 52.4496C79.3371 52.4069 79.2044 52.3856 79.0488 52.3856C78.8932 52.3856 78.7674 52.4235 78.6713 52.4993C78.5798 52.5703 78.5341 52.6602 78.5341 52.7691C78.5341 52.8733 78.5501 52.9562 78.5821 53.0177C78.6187 53.0745 78.6736 53.1242 78.7468 53.1668C78.8612 53.2284 78.9985 53.2828 79.1586 53.3302C79.3187 53.3728 79.4377 53.4083 79.5155 53.4367C79.5933 53.4604 79.6894 53.503 79.8037 53.5645C79.9227 53.6261 80.0119 53.6924 80.0714 53.7634C80.2316 53.9386 80.3116 54.1635 80.3116 54.4381C80.3116 54.7932 80.1858 55.0725 79.9341 55.2761C79.6871 55.4749 79.3714 55.5744 78.987 55.5744C78.4288 55.5744 78.0079 55.501 77.7242 55.3542V54.3671L78.3419 54.3173V54.6582C78.3419 54.8666 78.5341 54.9707 78.9184 54.9707C79.3027 54.9707 79.4949 54.8263 79.4949 54.5375C79.4949 54.4333 79.4606 54.3481 79.392 54.2818C79.3279 54.2155 79.2638 54.1706 79.1998 54.1469C79.1357 54.1232 79.0579 54.0996 78.9664 54.0759C78.8795 54.0522 78.7926 54.0285 78.7056 54.0049C78.6233 53.9812 78.5318 53.9504 78.4311 53.9125C78.335 53.8699 78.2275 53.8107 78.1085 53.735C77.8752 53.5787 77.7585 53.3183 77.7585 52.9538C77.7585 52.5845 77.8843 52.3004 78.136 52.1016C78.3876 51.9027 78.7034 51.8033 79.0831 51.8033C79.4675 51.8033 79.8472 51.898 80.2224 52.0874V52.9396L79.6047 52.9893V52.691C79.6047 52.5727 79.5521 52.4922 79.4469 52.4496Z" fill="white"/>
<path d="M81.44 51.157H81.8861V51.9098H82.7989L82.7302 52.5064H81.8861V54.3742C81.8861 54.5825 81.9227 54.7292 81.9959 54.8145C82.0691 54.895 82.1812 54.9352 82.3322 54.9352C82.4877 54.9352 82.6433 54.8855 82.7989 54.7861L83.0048 55.3329C82.776 55.4986 82.4855 55.5815 82.1332 55.5815C81.9273 55.5815 81.7534 55.5531 81.6116 55.4962C81.4697 55.4442 81.3645 55.385 81.2958 55.3187C81.2272 55.2524 81.1746 55.1554 81.138 55.0275C81.1014 54.8997 81.0808 54.8003 81.0762 54.7292C81.0716 54.6535 81.0694 54.5446 81.0694 54.4026V52.5064H80.5821L80.6507 51.9879C80.8658 51.969 81.0282 51.8909 81.138 51.7536C81.2478 51.6115 81.3485 51.4127 81.44 51.157Z" fill="white"/>
<path d="M86.3468 52.0518V54.6937C86.3468 54.7695 86.3583 54.8216 86.3811 54.85C86.4086 54.8784 86.4543 54.895 86.5184 54.8997L86.738 54.9139V55.482H85.6468V55.0701L85.6262 55.063C85.3974 55.4039 85.084 55.5744 84.6859 55.5744C84.2192 55.5744 83.8738 55.4205 83.6496 55.1128C83.4254 54.805 83.3133 54.3836 83.3133 53.8486C83.3133 53.2047 83.4643 52.7029 83.7663 52.343C84.0682 51.9832 84.5212 51.8033 85.1252 51.8033C85.5141 51.8033 85.9213 51.8861 86.3468 52.0518ZM85.5507 54.3529V52.5135C85.4226 52.4519 85.2464 52.4211 85.0222 52.4211C84.7157 52.4211 84.4938 52.549 84.3565 52.8046C84.2192 53.0603 84.1506 53.3988 84.1506 53.8202C84.1506 54.5872 84.3885 54.9707 84.8644 54.9707C85.0657 54.9707 85.2304 54.9092 85.3585 54.7861C85.4866 54.6582 85.5507 54.5138 85.5507 54.3529Z" fill="white"/>
<path d="M87.1181 52.4851V51.9098H88.278V52.3714C88.5342 51.9927 88.8842 51.8033 89.3281 51.8033C89.7765 51.8033 90.0784 51.9927 90.234 52.3714C90.4902 51.9927 90.838 51.8033 91.2772 51.8033C91.6066 51.8033 91.8606 51.9074 92.039 52.1158C92.2175 52.3194 92.3067 52.6271 92.3067 53.039V54.8926L92.6979 54.9139V55.482H91.0644V54.9423L91.2909 54.921C91.3596 54.9115 91.4076 54.8926 91.4351 54.8642C91.4671 54.831 91.4854 54.7742 91.49 54.6937V53.2237C91.49 52.9633 91.4602 52.7715 91.4007 52.6484C91.3458 52.5206 91.2131 52.4567 91.0027 52.4567C90.7922 52.4567 90.6298 52.5229 90.5154 52.6555C90.4056 52.7881 90.3507 52.9656 90.3507 53.1881V54.8926L90.7282 54.9139V55.482H89.1084V54.9423L89.3349 54.921C89.4036 54.9115 89.4539 54.8926 89.4859 54.8642C89.5179 54.831 89.534 54.7719 89.534 54.6866V53.2237C89.534 52.9633 89.5042 52.7715 89.4447 52.6484C89.3898 52.5206 89.2549 52.4567 89.0398 52.4567C88.8293 52.4567 88.6692 52.5253 88.5594 52.6626C88.4496 52.7999 88.3947 52.9704 88.3947 53.1739V54.8926L88.7653 54.9139V55.482H87.1456V54.9423L87.3721 54.921C87.4407 54.9115 87.491 54.8926 87.523 54.8642C87.5551 54.831 87.5711 54.7719 87.5711 54.6866H87.578V52.7265C87.578 52.646 87.5642 52.5916 87.5368 52.5632C87.5139 52.53 87.4704 52.5111 87.4064 52.5064L87.1181 52.4851Z" fill="white"/>
<path d="M94.6828 54.9636C95.1815 54.9636 95.4309 54.547 95.4309 53.7137C95.4309 53.2923 95.3737 52.9727 95.2593 52.7549C95.1495 52.5371 94.9619 52.4282 94.6965 52.4282C94.4357 52.4282 94.2435 52.5324 94.12 52.7407C93.9965 52.9491 93.9347 53.2331 93.9347 53.593C93.9347 54.2605 94.0537 54.6795 94.2916 54.85C94.3968 54.9257 94.5272 54.9636 94.6828 54.9636ZM93.1043 53.6924C93.1043 53.342 93.1546 53.039 93.2552 52.7833C93.3559 52.5229 93.4909 52.3241 93.6602 52.1868C93.985 51.9311 94.3442 51.8033 94.7377 51.8033C95.0122 51.8033 95.2433 51.8506 95.4309 51.9453C95.623 52.0353 95.7717 52.1418 95.877 52.2649C95.9868 52.3833 96.0783 52.5584 96.1515 52.7904C96.2293 53.0177 96.2682 53.2876 96.2682 53.6001C96.2682 54.2534 96.1149 54.7482 95.8083 55.0843C95.5018 55.4205 95.1083 55.5886 94.6279 55.5886C94.152 55.5886 93.7791 55.43 93.5092 55.1128C93.2392 54.7908 93.1043 54.3173 93.1043 53.6924Z" fill="white"/>
<path d="M96.689 52.478V51.9098H97.8489V52.3714C97.9679 52.1963 98.1257 52.059 98.3225 51.9595C98.5192 51.8554 98.732 51.8033 98.9607 51.8033C99.3085 51.8033 99.5761 51.9074 99.7637 52.1158C99.9559 52.3194 100.052 52.6271 100.052 53.039V54.8926L100.443 54.9139V55.482H98.8098V54.9423L99.0362 54.921C99.1049 54.9115 99.1552 54.8926 99.1872 54.8642C99.2193 54.831 99.2353 54.7719 99.2353 54.6866V53.2237C99.2353 52.9633 99.1964 52.7715 99.1186 52.6484C99.0408 52.5206 98.8921 52.4567 98.6725 52.4567C98.4574 52.4567 98.2859 52.5277 98.1578 52.6697C98.0296 52.8117 97.9656 52.9798 97.9656 53.1739V54.8926L98.3568 54.9139V55.482H96.7234V54.9423L96.9498 54.921C97.0185 54.9115 97.0688 54.8926 97.1008 54.8642C97.1329 54.831 97.1489 54.7719 97.1489 54.6866V52.7194C97.1489 52.5774 97.0917 52.504 96.9773 52.4993L96.689 52.478Z" fill="white"/>
<path d="M102.568 51.8033C102.911 51.8033 103.183 51.8909 103.385 52.0661C103.586 52.2365 103.687 52.478 103.687 52.7904C103.687 52.9988 103.643 53.1834 103.556 53.3444C103.469 53.5006 103.362 53.6237 103.234 53.7137C103.106 53.8036 102.95 53.877 102.767 53.9338C102.461 54.0285 102.115 54.0759 101.731 54.0759C101.745 54.3268 101.82 54.5304 101.957 54.6866C102.095 54.8381 102.305 54.9139 102.589 54.9139C102.872 54.9139 103.156 54.8097 103.44 54.6014L103.701 55.1767C103.609 55.2619 103.453 55.3495 103.234 55.4394C103.019 55.5294 102.772 55.5744 102.493 55.5744C101.934 55.5744 101.525 55.4158 101.264 55.0985C101.003 54.7766 100.873 54.3363 100.873 53.7776C100.873 53.2189 101.022 52.7502 101.319 52.3714C101.616 51.9927 102.033 51.8033 102.568 51.8033ZM102.252 53.4296C102.422 53.3965 102.577 53.3278 102.719 53.2237C102.861 53.1148 102.932 52.9869 102.932 52.8402C102.932 52.5513 102.795 52.4069 102.52 52.4069C102.264 52.4069 102.067 52.5135 101.93 52.7265C101.793 52.9348 101.717 53.1858 101.703 53.4793C101.905 53.4746 102.088 53.458 102.252 53.4296Z" fill="white"/>
<path d="M106.695 55.3471V54.8074C106.444 55.1767 106.073 55.3613 105.584 55.3613C104.874 55.3613 104.52 54.9518 104.52 54.1327V52.7052C104.52 52.5774 104.463 52.5111 104.348 52.5064L104.129 52.4922V51.9098H105.337V53.948C105.337 54.199 105.371 54.3884 105.439 54.5162C105.508 54.644 105.65 54.7079 105.865 54.7079C106.08 54.7079 106.252 54.6393 106.38 54.502C106.512 54.3647 106.579 54.199 106.579 54.0049V52.7194C106.579 52.6389 106.565 52.5845 106.538 52.5561C106.515 52.5229 106.471 52.5064 106.407 52.5064L106.188 52.4922V51.9098H107.395V55.3471C107.395 55.92 107.261 56.339 106.991 56.6041C106.725 56.8693 106.32 57.0018 105.776 57.0018C105.236 57.0018 104.815 56.9237 104.513 56.7675V55.7803L105.165 55.7235V56.0644C105.165 56.1922 105.222 56.2775 105.337 56.3201C105.451 56.3674 105.609 56.3911 105.81 56.3911C106.4 56.3911 106.695 56.0431 106.695 55.3471Z" fill="white"/>
<rect x="53.5564" y="67.3919" width="20.3078" height="7.55638" rx="3.77819" fill="#9791C4"/>
<rect x="69.1414" y="91.4778" width="38.2542" height="7.55638" rx="3.77819" fill="#9791C4"/>
<rect x="69.1414" y="110.369" width="38.2542" height="7.55638" rx="3.77819" fill="#9791C4"/>
<rect x="69.1414" y="129.26" width="38.2542" height="7.55638" rx="3.77819" fill="#9791C4"/>
<rect x="69.1414" y="148.151" width="38.2542" height="7.55638" rx="3.77819" fill="#9791C4"/>
<rect x="69.1414" y="204.823" width="38.2542" height="7.55638" rx="3.77819" fill="#9791C4"/>
<rect x="69.1414" y="223.714" width="38.2542" height="7.55638" rx="3.77819" fill="#9791C4"/>
<rect x="69.1414" y="242.605" width="38.2542" height="7.55638" rx="3.77819" fill="#9791C4"/>
<rect x="69.1414" y="167.042" width="38.2542" height="7.55638" rx="3.77819" fill="#9791C4"/>
<rect x="69.1414" y="185.933" width="42.9769" height="7.55638" rx="3.77819" fill="white"/>
<rect x="113.535" y="67.3919" width="7.55638" height="7.55638" rx="3.77819" fill="#9791C4"/>
<rect x="53.5564" y="91.4778" width="7.55638" height="7.55638" rx="3.77819" fill="#9791C4"/>
<rect x="53.5564" y="110.369" width="7.55638" height="7.55638" rx="3.77819" fill="#9791C4"/>
<rect x="53.5564" y="129.26" width="7.55638" height="7.55638" rx="3.77819" fill="#9791C4"/>
<rect x="53.5564" y="148.151" width="7.55638" height="7.55638" rx="3.77819" fill="#9791C4"/>
<rect x="53.5564" y="204.823" width="7.55638" height="7.55638" rx="3.77819" fill="#9791C4"/>
<rect x="53.5564" y="223.714" width="7.55638" height="7.55638" rx="3.77819" fill="#9791C4"/>
<rect x="53.5564" y="242.605" width="7.55638" height="7.55638" rx="3.77819" fill="#9791C4"/>
</g>
<defs>
<filter id="filter0_d" x="139.761" y="129.149" width="406.127" height="222.884" filterUnits="userSpaceOnUse" color-interpolation-filters="sRGB">
<feFlood flood-opacity="0" result="BackgroundImageFix"/>
<feColorMatrix in="SourceAlpha" type="matrix" values="0 0 0 0 0 0 0 0 0 0 0 0 0 0 0 0 0 0 127 0"/>
<feOffset dy="2"/>
<feGaussianBlur stdDeviation="2"/>
<feColorMatrix type="matrix" values="0 0 0 0 0 0 0 0 0 0 0 0 0 0 0 0 0 0 0.08 0"/>
<feBlend mode="normal" in2="BackgroundImageFix" result="effect1_dropShadow"/>
<feBlend mode="normal" in="SourceGraphic" in2="effect1_dropShadow" result="shape"/>
</filter>
<filter id="filter1_d" x="139.761" y="77.671" width="406.127" height="51.9214" filterUnits="userSpaceOnUse" color-interpolation-filters="sRGB">
<feFlood flood-opacity="0" result="BackgroundImageFix"/>
<feColorMatrix in="SourceAlpha" type="matrix" values="0 0 0 0 0 0 0 0 0 0 0 0 0 0 0 0 0 0 127 0"/>
<feOffset dy="2"/>
<feGaussianBlur stdDeviation="2"/>
<feColorMatrix type="matrix" values="0 0 0 0 0 0 0 0 0 0 0 0 0 0 0 0 0 0 0.08 0"/>
<feBlend mode="normal" in2="BackgroundImageFix" result="effect1_dropShadow"/>
<feBlend mode="normal" in="SourceGraphic" in2="effect1_dropShadow" result="shape"/>
</filter>
<filter id="filter2_d" x="124.648" y="38" width="436.352" height="34.4473" filterUnits="userSpaceOnUse" color-interpolation-filters="sRGB">
<feFlood flood-opacity="0" result="BackgroundImageFix"/>
<feColorMatrix in="SourceAlpha" type="matrix" values="0 0 0 0 0 0 0 0 0 0 0 0 0 0 0 0 0 0 127 0"/>
<feOffset dy="2"/>
<feGaussianBlur stdDeviation="2"/>
<feColorMatrix type="matrix" values="0 0 0 0 0 0 0 0 0 0 0 0 0 0 0 0 0 0 0.08 0"/>
<feBlend mode="normal" in2="BackgroundImageFix" result="effect1_dropShadow"/>
<feBlend mode="normal" in="SourceGraphic" in2="effect1_dropShadow" result="shape"/>
</filter>
<filter id="filter3_d" x="518.996" y="43.6673" width="23.1128" height="23.1128" filterUnits="userSpaceOnUse" color-interpolation-filters="sRGB">
<feFlood flood-opacity="0" result="BackgroundImageFix"/>
<feColorMatrix in="SourceAlpha" type="matrix" values="0 0 0 0 0 0 0 0 0 0 0 0 0 0 0 0 0 0 127 0"/>
<feOffset dy="2"/>
<feGaussianBlur stdDeviation="2"/>
<feColorMatrix type="matrix" values="0 0 0 0 0 0 0 0 0 0 0 0 0 0 0 0 0 0 0.08 0"/>
<feBlend mode="normal" in2="BackgroundImageFix" result="effect1_dropShadow"/>
<feBlend mode="normal" in="SourceGraphic" in2="effect1_dropShadow" result="shape"/>
</filter>
<linearGradient id="paint0_linear" x1="65.9255" y1="56.578" x2="69.9338" y2="53.2099" gradientUnits="userSpaceOnUse">
<stop stop-color="#92E3E3"/>
<stop offset="0.257959" stop-color="#8BDFDF"/>
<stop offset="1" stop-color="#4B428F"/>
</linearGradient>
<linearGradient id="paint1_linear" x1="53.9717" y1="56.033" x2="66.2208" y2="60.7547" gradientUnits="userSpaceOnUse">
<stop stop-color="white"/>
<stop offset="0.433893" stop-color="#52489C"/>
<stop offset="1"/>
</linearGradient>
<linearGradient id="paint2_linear" x1="59.3741" y1="58.0318" x2="62.9946" y2="54.9203" gradientUnits="userSpaceOnUse">
<stop stop-color="#92E3E3"/>
<stop offset="0.257959" stop-color="#8BDFDF"/>
<stop offset="1" stop-color="#4B428F"/>
</linearGradient>
<linearGradient id="paint3_linear" x1="54.1622" y1="58.9913" x2="56.8709" y2="56.8011" gradientUnits="userSpaceOnUse">
<stop stop-color="#92E3E3"/>
<stop offset="0.520627" stop-color="#8BDFDF"/>
<stop offset="1" stop-color="#59C3C3"/>
</linearGradient>
</defs>
</svg>
