<svg width="604" height="324" viewBox="0 0 604 324" fill="none" xmlns="http://www.w3.org/2000/svg">
<mask id="mask0" mask-type="alpha" maskUnits="userSpaceOnUse" x="0" y="0" width="604" height="324">
<rect width="604" height="324" fill="white"/>
</mask>
<g mask="url(#mask0)">
<path d="M0 0H604V324H0V0Z" fill="#FDBB9C"/>
<g filter="url(#filter0_d)">
<rect x="46" y="40" width="511" height="321.146" fill="#F7F7F7"/>
<g filter="url(#filter1_d)">
<rect x="143.761" y="133.038" width="398.127" height="214.884" rx="4" fill="white"/>
<rect x="143.761" y="133.038" width="398.127" height="214.884" rx="4" stroke="#979797"/>
</g>
<rect x="151.317" y="204.351" width="7.0841" height="7.0841" rx="3.54205" fill="#CFCFCF"/>
<rect x="164.541" y="204.351" width="21.2523" height="7.0841" rx="3.54205" fill="#CFCFCF"/>
<rect x="232.548" y="204.351" width="20.3078" height="7.0841" rx="3.54205" fill="#CFCFCF"/>
<rect x="288.276" y="204.351" width="22.1969" height="7.0841" rx="3.54205" fill="#CFCFCF"/>
<rect x="349.672" y="204.351" width="21.2523" height="7.0841" rx="3.54205" fill="#CFCFCF"/>
<rect x="424.291" y="204.351" width="25.0305" height="7.0841" rx="3.54205" fill="#CFCFCF"/>
<rect x="494.66" y="204.351" width="32.1146" height="7.0841" rx="3.54205" fill="#CFCFCF"/>
<rect x="151.317" y="225.604" width="7.0841" height="7.0841" rx="3.54205" fill="#ECECEC"/>
<rect x="164.541" y="225.604" width="35.8928" height="7.0841" rx="3.54205" fill="#ECECEC"/>
<rect x="232.548" y="225.604" width="31.6423" height="7.0841" rx="3.54205" fill="#ECECEC"/>
<rect x="288.276" y="225.604" width="38.7264" height="7.0841" rx="3.54205" fill="#ECECEC"/>
<rect x="349.672" y="225.604" width="27.8641" height="7.0841" rx="3.54205" fill="#ECECEC"/>
<rect x="424.291" y="225.604" width="40.1433" height="7.0841" rx="3.54205" fill="#ECECEC"/>
<rect x="494.66" y="225.604" width="7.0841" height="7.0841" rx="3.54205" fill="#ECECEC"/>
<rect x="151.317" y="262.441" width="7.0841" height="7.0841" rx="3.54205" fill="#ECECEC"/>
<rect x="164.541" y="262.441" width="35.8928" height="7.0841" rx="3.54205" fill="#ECECEC"/>
<rect x="232.548" y="262.441" width="31.6423" height="7.0841" rx="3.54205" fill="#ECECEC"/>
<rect x="288.276" y="262.441" width="38.7264" height="7.0841" rx="3.54205" fill="#ECECEC"/>
<rect x="349.672" y="262.441" width="27.8641" height="7.0841" rx="3.54205" fill="#ECECEC"/>
<rect x="424.291" y="262.441" width="40.1433" height="7.0841" rx="3.54205" fill="#ECECEC"/>
<rect x="494.66" y="262.441" width="7.0841" height="7.0841" rx="3.54205" fill="#ECECEC"/>
<rect x="151.317" y="299.278" width="7.0841" height="7.0841" rx="3.54205" fill="#ECECEC"/>
<rect x="164.541" y="299.278" width="35.8928" height="7.0841" rx="3.54205" fill="#ECECEC"/>
<rect x="232.548" y="299.278" width="31.6423" height="7.0841" rx="3.54205" fill="#ECECEC"/>
<rect x="288.276" y="299.278" width="38.7264" height="7.0841" rx="3.54205" fill="#ECECEC"/>
<rect x="349.672" y="299.278" width="27.8641" height="7.0841" rx="3.54205" fill="#ECECEC"/>
<rect x="424.291" y="299.278" width="40.1433" height="7.0841" rx="3.54205" fill="#ECECEC"/>
<rect x="494.66" y="299.278" width="7.0841" height="7.0841" rx="3.54205" fill="#ECECEC"/>
<rect x="151.317" y="244.022" width="7.0841" height="7.0841" rx="3.54205" fill="#ECECEC"/>
<rect x="164.541" y="244.022" width="35.8928" height="7.0841" rx="3.54205" fill="#ECECEC"/>
<rect x="232.548" y="244.022" width="31.6423" height="7.0841" rx="3.54205" fill="#ECECEC"/>
<rect x="288.276" y="244.022" width="38.7264" height="7.0841" rx="3.54205" fill="#ECECEC"/>
<rect x="349.672" y="244.022" width="27.8641" height="7.0841" rx="3.54205" fill="#ECECEC"/>
<rect x="424.291" y="244.022" width="40.1433" height="7.0841" rx="3.54205" fill="#ECECEC"/>
<rect x="494.66" y="244.022" width="7.0841" height="7.0841" rx="3.54205" fill="#ECECEC"/>
<rect x="151.317" y="280.86" width="7.0841" height="7.0841" rx="3.54205" fill="#ECECEC"/>
<rect x="164.541" y="280.86" width="35.8928" height="7.0841" rx="3.54205" fill="#ECECEC"/>
<rect x="232.548" y="280.86" width="31.6423" height="7.0841" rx="3.54205" fill="#ECECEC"/>
<rect x="288.276" y="280.86" width="38.7264" height="7.0841" rx="3.54205" fill="#ECECEC"/>
<rect x="349.672" y="280.86" width="27.8641" height="7.0841" rx="3.54205" fill="#ECECEC"/>
<rect x="424.291" y="280.86" width="40.1433" height="7.0841" rx="3.54205" fill="#ECECEC"/>
<rect x="494.66" y="280.86" width="7.0841" height="7.0841" rx="3.54205" fill="#ECECEC"/>
<rect x="151.317" y="317.697" width="7.0841" height="7.0841" rx="3.54205" fill="#ECECEC"/>
<rect x="164.541" y="317.697" width="35.8928" height="7.0841" rx="3.54205" fill="#ECECEC"/>
<rect x="232.548" y="317.697" width="31.6423" height="7.0841" rx="3.54205" fill="#ECECEC"/>
<rect x="288.276" y="317.697" width="38.7264" height="7.0841" rx="3.54205" fill="#ECECEC"/>
<rect x="349.672" y="317.697" width="27.8641" height="7.0841" rx="3.54205" fill="#ECECEC"/>
<rect x="424.291" y="317.697" width="40.1433" height="7.0841" rx="3.54205" fill="#ECECEC"/>
<rect x="494.66" y="317.697" width="7.0841" height="7.0841" rx="3.54205" fill="#ECECEC"/>
<rect x="457.823" y="140.594" width="68.9519" height="16.0573" rx="4" fill="#4573FF"/>
<path d="M484.379 147.331C483.936 147.331 483.587 147.488 483.333 147.802C483.079 148.116 482.952 148.55 482.952 149.103C482.952 149.682 483.074 150.12 483.317 150.417C483.562 150.714 483.916 150.863 484.379 150.863C484.579 150.863 484.773 150.843 484.96 150.804C485.148 150.764 485.342 150.712 485.545 150.649V151.311C485.175 151.451 484.755 151.521 484.286 151.521C483.595 151.521 483.064 151.312 482.694 150.895C482.324 150.475 482.139 149.876 482.139 149.097C482.139 148.606 482.228 148.176 482.407 147.808C482.587 147.44 482.848 147.158 483.188 146.963C483.528 146.767 483.927 146.669 484.386 146.669C484.868 146.669 485.313 146.77 485.722 146.972L485.445 147.615C485.285 147.539 485.116 147.474 484.938 147.418C484.761 147.36 484.575 147.331 484.379 147.331Z" fill="white"/>
<path d="M488.292 147.821C488.445 147.821 488.571 147.832 488.67 147.854L488.596 148.561C488.488 148.535 488.376 148.522 488.26 148.522C487.956 148.522 487.71 148.621 487.52 148.819C487.333 149.017 487.24 149.274 487.24 149.591V151.457H486.481V147.886H487.075L487.175 148.515H487.214C487.332 148.302 487.486 148.133 487.675 148.009C487.867 147.884 488.073 147.821 488.292 147.821Z" fill="white"/>
<path d="M490.894 151.521C490.339 151.521 489.904 151.36 489.59 151.037C489.278 150.712 489.122 150.265 489.122 149.697C489.122 149.114 489.267 148.655 489.558 148.322C489.848 147.988 490.247 147.821 490.755 147.821C491.227 147.821 491.599 147.964 491.872 148.251C492.146 148.537 492.282 148.931 492.282 149.432V149.842H489.903C489.914 150.189 490.007 150.456 490.184 150.643C490.36 150.828 490.609 150.921 490.93 150.921C491.141 150.921 491.337 150.901 491.517 150.863C491.7 150.822 491.896 150.755 492.105 150.662V151.279C491.92 151.367 491.733 151.43 491.543 151.466C491.354 151.503 491.137 151.521 490.894 151.521ZM490.755 148.396C490.514 148.396 490.321 148.472 490.174 148.625C490.03 148.778 489.944 149.001 489.916 149.294H491.537C491.532 148.999 491.461 148.776 491.324 148.625C491.186 148.472 490.996 148.396 490.755 148.396Z" fill="white"/>
<path d="M495.379 151.457L495.227 150.959H495.201C495.029 151.177 494.855 151.325 494.681 151.405C494.507 151.482 494.283 151.521 494.01 151.521C493.659 151.521 493.384 151.426 493.186 151.237C492.991 151.048 492.893 150.78 492.893 150.433C492.893 150.065 493.029 149.787 493.303 149.6C493.576 149.413 493.992 149.311 494.552 149.294L495.169 149.274V149.084C495.169 148.856 495.115 148.685 495.007 148.574C494.902 148.459 494.737 148.402 494.513 148.402C494.33 148.402 494.155 148.429 493.987 148.483C493.819 148.537 493.658 148.6 493.503 148.674L493.257 148.131C493.451 148.03 493.663 147.954 493.893 147.902C494.124 147.848 494.341 147.821 494.546 147.821C495 147.821 495.342 147.92 495.572 148.118C495.805 148.316 495.921 148.627 495.921 149.051V151.457H495.379ZM494.249 150.94C494.524 150.94 494.745 150.864 494.91 150.711C495.078 150.556 495.162 150.34 495.162 150.062V149.752L494.704 149.771C494.346 149.784 494.086 149.844 493.922 149.952C493.761 150.058 493.68 150.22 493.68 150.44C493.68 150.599 493.728 150.723 493.822 150.811C493.917 150.897 494.059 150.94 494.249 150.94Z" fill="white"/>
<path d="M498.31 150.908C498.495 150.908 498.68 150.879 498.865 150.821V151.392C498.781 151.429 498.673 151.459 498.539 151.482C498.408 151.508 498.271 151.521 498.129 151.521C497.41 151.521 497.051 151.142 497.051 150.385V148.461H496.563V148.125L497.086 147.847L497.345 147.092H497.813V147.886H498.83V148.461H497.813V150.372C497.813 150.555 497.858 150.69 497.948 150.779C498.041 150.865 498.161 150.908 498.31 150.908Z" fill="white"/>
<path d="M501.141 151.521C500.586 151.521 500.151 151.36 499.837 151.037C499.525 150.712 499.369 150.265 499.369 149.697C499.369 149.114 499.514 148.655 499.805 148.322C500.095 147.988 500.494 147.821 501.002 147.821C501.474 147.821 501.846 147.964 502.119 148.251C502.393 148.537 502.529 148.931 502.529 149.432V149.842H500.15C500.161 150.189 500.255 150.456 500.431 150.643C500.607 150.828 500.856 150.921 501.177 150.921C501.388 150.921 501.584 150.901 501.764 150.863C501.947 150.822 502.143 150.755 502.352 150.662V151.279C502.167 151.367 501.98 151.43 501.79 151.466C501.601 151.503 501.384 151.521 501.141 151.521ZM501.002 148.396C500.761 148.396 500.568 148.472 500.421 148.625C500.277 148.778 500.191 149.001 500.163 149.294H501.784C501.779 148.999 501.708 148.776 501.571 148.625C501.433 148.472 501.243 148.396 501.002 148.396Z" fill="white"/>
<path d="M317.365 150.512L316.827 149.014H314.764L314.237 150.512H313.307L315.325 145.096H316.284L318.303 150.512H317.365ZM316.594 148.254L316.089 146.785C316.052 146.687 316 146.532 315.934 146.321C315.87 146.109 315.826 145.954 315.801 145.856C315.735 146.158 315.637 146.489 315.51 146.848L315.023 148.254H316.594Z" fill="#7C7C7C"/>
<path d="M320.992 150.586C320.476 150.586 320.075 150.4 319.79 150.029H319.738C319.772 150.373 319.79 150.582 319.79 150.656V152.327H318.922V146.431H319.623C319.643 146.508 319.684 146.69 319.745 146.977H319.79C320.06 146.564 320.466 146.357 321.007 146.357C321.516 146.357 321.912 146.542 322.195 146.911C322.48 147.28 322.623 147.798 322.623 148.464C322.623 149.131 322.478 149.651 322.188 150.025C321.9 150.399 321.502 150.586 320.992 150.586ZM320.782 147.066C320.438 147.066 320.186 147.167 320.026 147.368C319.868 147.57 319.79 147.892 319.79 148.335V148.464C319.79 148.961 319.868 149.321 320.026 149.545C320.183 149.767 320.44 149.877 320.797 149.877C321.097 149.877 321.328 149.754 321.49 149.508C321.653 149.262 321.734 148.912 321.734 148.457C321.734 147.999 321.653 147.654 321.49 147.42C321.331 147.184 321.094 147.066 320.782 147.066Z" fill="#7C7C7C"/>
<path d="M325.7 150.586C325.184 150.586 324.783 150.4 324.497 150.029H324.446C324.48 150.373 324.497 150.582 324.497 150.656V152.327H323.63V146.431H324.331C324.351 146.508 324.392 146.69 324.453 146.977H324.497C324.768 146.564 325.174 146.357 325.715 146.357C326.224 146.357 326.62 146.542 326.903 146.911C327.188 147.28 327.331 147.798 327.331 148.464C327.331 149.131 327.186 149.651 326.896 150.025C326.608 150.399 326.209 150.586 325.7 150.586ZM325.49 147.066C325.146 147.066 324.894 147.167 324.734 147.368C324.576 147.57 324.497 147.892 324.497 148.335V148.464C324.497 148.961 324.576 149.321 324.734 149.545C324.891 149.767 325.148 149.877 325.505 149.877C325.805 149.877 326.036 149.754 326.198 149.508C326.361 149.262 326.442 148.912 326.442 148.457C326.442 147.999 326.361 147.654 326.198 147.42C326.039 147.184 325.802 147.066 325.49 147.066Z" fill="#7C7C7C"/>
<path d="M330.408 146.357C330.583 146.357 330.727 146.37 330.84 146.394L330.755 147.202C330.632 147.173 330.504 147.158 330.371 147.158C330.025 147.158 329.743 147.271 329.526 147.498C329.312 147.724 329.205 148.018 329.205 148.379V150.512H328.338V146.431H329.017L329.132 147.151H329.176C329.311 146.907 329.487 146.714 329.704 146.571C329.922 146.429 330.157 146.357 330.408 146.357Z" fill="#7C7C7C"/>
<path d="M335.22 148.464C335.22 149.131 335.049 149.651 334.707 150.025C334.365 150.399 333.889 150.586 333.279 150.586C332.898 150.586 332.561 150.5 332.268 150.328C331.975 150.155 331.75 149.908 331.593 149.586C331.435 149.264 331.357 148.89 331.357 148.464C331.357 147.803 331.526 147.286 331.866 146.915C332.205 146.543 332.684 146.357 333.301 146.357C333.891 146.357 334.359 146.548 334.703 146.929C335.047 147.308 335.22 147.82 335.22 148.464ZM332.249 148.464C332.249 149.406 332.597 149.877 333.294 149.877C333.982 149.877 334.327 149.406 334.327 148.464C334.327 147.532 333.98 147.066 333.286 147.066C332.922 147.066 332.658 147.186 332.493 147.427C332.331 147.669 332.249 148.014 332.249 148.464Z" fill="#7C7C7C"/>
<path d="M337.149 150.512L335.6 146.431H336.515L337.345 148.804C337.487 149.202 337.574 149.524 337.603 149.77H337.633C337.655 149.593 337.741 149.271 337.891 148.804L338.721 146.431H339.643L338.086 150.512H337.149Z" fill="#7C7C7C"/>
<path d="M342.045 150.586C341.411 150.586 340.914 150.401 340.555 150.032C340.198 149.661 340.02 149.151 340.02 148.501C340.02 147.835 340.186 147.311 340.518 146.929C340.85 146.548 341.306 146.357 341.887 146.357C342.425 146.357 342.851 146.521 343.163 146.848C343.476 147.175 343.632 147.625 343.632 148.199V148.667H340.913C340.925 149.063 341.032 149.368 341.234 149.582C341.435 149.794 341.719 149.9 342.086 149.9C342.327 149.9 342.551 149.877 342.758 149.833C342.967 149.786 343.19 149.71 343.429 149.604V150.309C343.217 150.41 343.003 150.481 342.787 150.523C342.571 150.565 342.323 150.586 342.045 150.586ZM341.887 147.014C341.611 147.014 341.39 147.102 341.223 147.276C341.058 147.451 340.959 147.705 340.927 148.04H342.78C342.775 147.703 342.694 147.448 342.536 147.276C342.379 147.102 342.162 147.014 341.887 147.014Z" fill="#7C7C7C"/>
<path d="M345.993 150.586C345.484 150.586 345.087 150.401 344.802 150.032C344.516 149.663 344.374 149.146 344.374 148.479C344.374 147.81 344.517 147.29 344.805 146.918C345.096 146.544 345.496 146.357 346.008 146.357C346.544 146.357 346.953 146.555 347.233 146.952H347.277C347.236 146.659 347.215 146.428 347.215 146.258V144.771H348.085V150.512H347.406L347.255 149.977H347.215C346.937 150.383 346.53 150.586 345.993 150.586ZM346.226 149.885C346.582 149.885 346.842 149.785 347.004 149.586C347.167 149.384 347.25 149.058 347.255 148.608V148.486C347.255 147.972 347.172 147.607 347.004 147.391C346.837 147.174 346.575 147.066 346.218 147.066C345.913 147.066 345.678 147.19 345.514 147.439C345.349 147.685 345.266 148.036 345.266 148.494C345.266 148.946 345.346 149.292 345.506 149.531C345.666 149.767 345.906 149.885 346.226 149.885Z" fill="#7C7C7C"/>
<path d="M239.643 150.512H238.562L235.909 146.214H235.88L235.898 146.453C235.933 146.911 235.95 147.329 235.95 147.708V150.512H235.149V145.118H236.219L238.865 149.394H238.887C238.882 149.337 238.872 149.132 238.857 148.778C238.843 148.421 238.835 148.143 238.835 147.944V145.118H239.643V150.512Z" fill="#7C7C7C"/>
<path d="M242.757 150.586C242.123 150.586 241.626 150.401 241.267 150.032C240.91 149.661 240.732 149.151 240.732 148.501C240.732 147.835 240.898 147.311 241.23 146.929C241.562 146.548 242.018 146.357 242.599 146.357C243.137 146.357 243.563 146.521 243.875 146.848C244.188 147.175 244.344 147.625 244.344 148.199V148.667H241.625C241.637 149.063 241.744 149.368 241.946 149.582C242.147 149.794 242.431 149.9 242.798 149.9C243.039 149.9 243.263 149.877 243.469 149.833C243.678 149.786 243.902 149.71 244.141 149.604V150.309C243.929 150.41 243.715 150.481 243.499 150.523C243.282 150.565 243.035 150.586 242.757 150.586ZM242.599 147.014C242.323 147.014 242.102 147.102 241.935 147.276C241.77 147.451 241.671 147.705 241.639 148.04H243.492C243.487 147.703 243.405 147.448 243.248 147.276C243.091 147.102 242.874 147.014 242.599 147.014Z" fill="#7C7C7C"/>
<path d="M247.111 150.586C246.476 150.586 245.98 150.401 245.62 150.032C245.264 149.661 245.085 149.151 245.085 148.501C245.085 147.835 245.251 147.311 245.584 146.929C245.916 146.548 246.372 146.357 246.952 146.357C247.491 146.357 247.917 146.521 248.229 146.848C248.541 147.175 248.698 147.625 248.698 148.199V148.667H245.978C245.991 149.063 246.098 149.368 246.299 149.582C246.501 149.794 246.785 149.9 247.152 149.9C247.393 149.9 247.617 149.877 247.823 149.833C248.032 149.786 248.256 149.71 248.495 149.604V150.309C248.283 150.41 248.069 150.481 247.853 150.523C247.636 150.565 247.389 150.586 247.111 150.586ZM246.952 147.014C246.677 147.014 246.456 147.102 246.288 147.276C246.123 147.451 246.025 147.705 245.993 148.04H247.845C247.84 147.703 247.759 147.448 247.602 147.276C247.444 147.102 247.228 147.014 246.952 147.014Z" fill="#7C7C7C"/>
<path d="M251.059 150.586C250.55 150.586 250.153 150.401 249.867 150.032C249.582 149.663 249.439 149.146 249.439 148.479C249.439 147.81 249.583 147.29 249.871 146.918C250.161 146.544 250.562 146.357 251.074 146.357C251.61 146.357 252.018 146.555 252.299 146.952H252.343C252.301 146.659 252.28 146.428 252.28 146.258V144.771H253.151V150.512H252.472L252.321 149.977H252.28C252.002 150.383 251.595 150.586 251.059 150.586ZM251.291 149.885C251.648 149.885 251.908 149.785 252.07 149.586C252.232 149.384 252.316 149.058 252.321 148.608V148.486C252.321 147.972 252.237 147.607 252.07 147.391C251.903 147.174 251.641 147.066 251.284 147.066C250.979 147.066 250.744 147.19 250.579 147.439C250.415 147.685 250.332 148.036 250.332 148.494C250.332 148.946 250.412 149.292 250.572 149.531C250.732 149.767 250.972 149.885 251.291 149.885Z" fill="#7C7C7C"/>
<path d="M257.132 149.35C257.132 149.748 256.987 150.054 256.697 150.268C256.406 150.48 255.991 150.586 255.45 150.586C254.906 150.586 254.469 150.503 254.14 150.339V149.59C254.619 149.811 255.066 149.922 255.479 149.922C256.013 149.922 256.28 149.761 256.28 149.438C256.28 149.335 256.25 149.249 256.191 149.18C256.132 149.111 256.035 149.04 255.9 148.966C255.764 148.892 255.576 148.809 255.335 148.715C254.865 148.533 254.547 148.351 254.38 148.169C254.215 147.987 254.132 147.751 254.132 147.461C254.132 147.111 254.273 146.841 254.553 146.649C254.836 146.455 255.22 146.357 255.704 146.357C256.184 146.357 256.638 146.455 257.066 146.649L256.785 147.302C256.345 147.12 255.975 147.029 255.675 147.029C255.217 147.029 254.988 147.159 254.988 147.42C254.988 147.548 255.047 147.656 255.166 147.745C255.286 147.833 255.547 147.955 255.948 148.11C256.285 148.24 256.529 148.36 256.682 148.468C256.834 148.576 256.948 148.702 257.021 148.844C257.095 148.985 257.132 149.153 257.132 149.35Z" fill="#7C7C7C"/>
<path d="M263.475 150.512L262.936 149.014H260.873L260.346 150.512H259.416L261.434 145.096H262.394L264.412 150.512H263.475ZM262.703 148.254L262.198 146.785C262.161 146.687 262.109 146.532 262.043 146.321C261.979 146.109 261.935 145.954 261.91 145.856C261.844 146.158 261.747 146.489 261.619 146.848L261.132 148.254H262.703Z" fill="#7C7C7C"/>
<path d="M267.102 150.586C266.585 150.586 266.184 150.4 265.899 150.029H265.847C265.881 150.373 265.899 150.582 265.899 150.656V152.327H265.032V146.431H265.733C265.752 146.508 265.793 146.69 265.854 146.977H265.899C266.169 146.564 266.575 146.357 267.116 146.357C267.625 146.357 268.021 146.542 268.304 146.911C268.59 147.28 268.732 147.798 268.732 148.464C268.732 149.131 268.587 149.651 268.297 150.025C268.009 150.399 267.611 150.586 267.102 150.586ZM266.891 147.066C266.547 147.066 266.295 147.167 266.135 147.368C265.977 147.57 265.899 147.892 265.899 148.335V148.464C265.899 148.961 265.977 149.321 266.135 149.545C266.292 149.767 266.549 149.877 266.906 149.877C267.206 149.877 267.437 149.754 267.6 149.508C267.762 149.262 267.843 148.912 267.843 148.457C267.843 147.999 267.762 147.654 267.6 147.42C267.44 147.184 267.204 147.066 266.891 147.066Z" fill="#7C7C7C"/>
<path d="M271.809 150.586C271.293 150.586 270.892 150.4 270.607 150.029H270.555C270.589 150.373 270.607 150.582 270.607 150.656V152.327H269.74V146.431H270.441C270.46 146.508 270.501 146.69 270.562 146.977H270.607C270.877 146.564 271.283 146.357 271.824 146.357C272.333 146.357 272.729 146.542 273.012 146.911C273.298 147.28 273.44 147.798 273.44 148.464C273.44 149.131 273.295 149.651 273.005 150.025C272.717 150.399 272.319 150.586 271.809 150.586ZM271.599 147.066C271.255 147.066 271.003 147.167 270.843 147.368C270.685 147.57 270.607 147.892 270.607 148.335V148.464C270.607 148.961 270.685 149.321 270.843 149.545C271 149.767 271.257 149.877 271.614 149.877C271.914 149.877 272.145 149.754 272.308 149.508C272.47 149.262 272.551 148.912 272.551 148.457C272.551 147.999 272.47 147.654 272.308 147.42C272.148 147.184 271.912 147.066 271.599 147.066Z" fill="#7C7C7C"/>
<path d="M276.517 146.357C276.692 146.357 276.836 146.37 276.949 146.394L276.864 147.202C276.741 147.173 276.613 147.158 276.481 147.158C276.134 147.158 275.852 147.271 275.636 147.498C275.422 147.724 275.315 148.018 275.315 148.379V150.512H274.448V146.431H275.126L275.241 147.151H275.285C275.42 146.907 275.596 146.714 275.813 146.571C276.032 146.429 276.267 146.357 276.517 146.357Z" fill="#7C7C7C"/>
<path d="M281.329 148.464C281.329 149.131 281.158 149.651 280.816 150.025C280.474 150.399 279.998 150.586 279.388 150.586C279.007 150.586 278.67 150.5 278.377 150.328C278.084 150.155 277.859 149.908 277.702 149.586C277.544 149.264 277.466 148.89 277.466 148.464C277.466 147.803 277.635 147.286 277.975 146.915C278.314 146.543 278.793 146.357 279.41 146.357C280 146.357 280.468 146.548 280.812 146.929C281.157 147.308 281.329 147.82 281.329 148.464ZM278.359 148.464C278.359 149.406 278.707 149.877 279.403 149.877C280.092 149.877 280.436 149.406 280.436 148.464C280.436 147.532 280.089 147.066 279.395 147.066C279.031 147.066 278.767 147.186 278.602 147.427C278.44 147.669 278.359 148.014 278.359 148.464Z" fill="#7C7C7C"/>
<path d="M283.258 150.512L281.709 146.431H282.624L283.454 148.804C283.597 149.202 283.683 149.524 283.712 149.77H283.742C283.764 149.593 283.85 149.271 284 148.804L284.83 146.431H285.753L284.196 150.512H283.258Z" fill="#7C7C7C"/>
<path d="M288.926 150.512L288.752 149.944H288.723C288.526 150.192 288.328 150.362 288.129 150.453C287.93 150.542 287.674 150.586 287.361 150.586C286.96 150.586 286.647 150.478 286.42 150.261C286.197 150.045 286.085 149.738 286.085 149.342C286.085 148.922 286.241 148.604 286.553 148.39C286.866 148.176 287.342 148.06 287.981 148.04L288.686 148.018V147.8C288.686 147.539 288.624 147.345 288.501 147.217C288.381 147.087 288.193 147.022 287.937 147.022C287.728 147.022 287.527 147.052 287.335 147.114C287.144 147.175 286.959 147.248 286.782 147.332L286.502 146.712C286.723 146.596 286.965 146.509 287.228 146.45C287.492 146.388 287.74 146.357 287.974 146.357C288.493 146.357 288.884 146.471 289.147 146.697C289.413 146.923 289.546 147.279 289.546 147.763V150.512H288.926ZM287.634 149.922C287.949 149.922 288.201 149.834 288.391 149.66C288.583 149.483 288.679 149.235 288.679 148.918V148.564L288.155 148.586C287.746 148.601 287.449 148.67 287.262 148.793C287.077 148.913 286.985 149.099 286.985 149.35C286.985 149.532 287.039 149.673 287.147 149.774C287.256 149.872 287.418 149.922 287.634 149.922Z" fill="#7C7C7C"/>
<path d="M291.623 150.512H290.756V144.771H291.623V150.512Z" fill="#7C7C7C"/>
<path d="M156.523 150.512H155.442L152.789 146.214H152.76L152.778 146.453C152.813 146.911 152.83 147.329 152.83 147.708V150.512H152.029V145.118H153.099L155.745 149.394H155.767C155.762 149.337 155.752 149.132 155.737 148.778C155.722 148.421 155.715 148.143 155.715 147.944V145.118H156.523V150.512Z" fill="#4573FF"/>
<path d="M159.637 150.586C159.003 150.586 158.506 150.401 158.147 150.032C157.79 149.661 157.612 149.151 157.612 148.501C157.612 147.835 157.778 147.311 158.11 146.929C158.442 146.548 158.898 146.357 159.478 146.357C160.017 146.357 160.443 146.521 160.755 146.848C161.067 147.175 161.224 147.625 161.224 148.199V148.667H158.504C158.517 149.063 158.624 149.368 158.825 149.582C159.027 149.794 159.311 149.9 159.678 149.9C159.919 149.9 160.143 149.877 160.349 149.833C160.558 149.786 160.782 149.71 161.021 149.604V150.309C160.809 150.41 160.595 150.481 160.379 150.523C160.162 150.565 159.915 150.586 159.637 150.586ZM159.478 147.014C159.203 147.014 158.982 147.102 158.814 147.276C158.65 147.451 158.551 147.705 158.519 148.04H160.371C160.366 147.703 160.285 147.448 160.128 147.276C159.97 147.102 159.754 147.014 159.478 147.014Z" fill="#4573FF"/>
<path d="M163.991 150.586C163.356 150.586 162.859 150.401 162.5 150.032C162.144 149.661 161.965 149.151 161.965 148.501C161.965 147.835 162.131 147.311 162.463 146.929C162.795 146.548 163.252 146.357 163.832 146.357C164.371 146.357 164.796 146.521 165.109 146.848C165.421 147.175 165.577 147.625 165.577 148.199V148.667H162.858C162.87 149.063 162.977 149.368 163.179 149.582C163.381 149.794 163.665 149.9 164.031 149.9C164.273 149.9 164.496 149.877 164.703 149.833C164.912 149.786 165.136 149.71 165.375 149.604V150.309C165.163 150.41 164.949 150.481 164.733 150.523C164.516 150.565 164.269 150.586 163.991 150.586ZM163.832 147.014C163.557 147.014 163.335 147.102 163.168 147.276C163.003 147.451 162.905 147.705 162.873 148.04H164.725C164.72 147.703 164.639 147.448 164.482 147.276C164.324 147.102 164.108 147.014 163.832 147.014Z" fill="#4573FF"/>
<path d="M167.939 150.586C167.43 150.586 167.032 150.401 166.747 150.032C166.462 149.663 166.319 149.146 166.319 148.479C166.319 147.81 166.463 147.29 166.751 146.918C167.041 146.544 167.442 146.357 167.954 146.357C168.49 146.357 168.898 146.555 169.179 146.952H169.223C169.181 146.659 169.16 146.428 169.16 146.258V144.771H170.031V150.512H169.352L169.201 149.977H169.16C168.882 150.383 168.475 150.586 167.939 150.586ZM168.171 149.885C168.528 149.885 168.787 149.785 168.95 149.586C169.112 149.384 169.196 149.058 169.201 148.608V148.486C169.201 147.972 169.117 147.607 168.95 147.391C168.783 147.174 168.521 147.066 168.164 147.066C167.859 147.066 167.624 147.19 167.459 147.439C167.294 147.685 167.212 148.036 167.212 148.494C167.212 148.946 167.292 149.292 167.452 149.531C167.612 149.767 167.851 149.885 168.171 149.885Z" fill="#4573FF"/>
<path d="M174.012 149.35C174.012 149.748 173.867 150.054 173.577 150.268C173.286 150.48 172.871 150.586 172.329 150.586C171.786 150.586 171.349 150.503 171.02 150.339V149.59C171.499 149.811 171.946 149.922 172.359 149.922C172.893 149.922 173.16 149.761 173.16 149.438C173.16 149.335 173.13 149.249 173.071 149.18C173.012 149.111 172.915 149.04 172.78 148.966C172.644 148.892 172.456 148.809 172.215 148.715C171.745 148.533 171.427 148.351 171.259 148.169C171.095 147.987 171.012 147.751 171.012 147.461C171.012 147.111 171.152 146.841 171.433 146.649C171.716 146.455 172.099 146.357 172.584 146.357C173.064 146.357 173.518 146.455 173.946 146.649L173.665 147.302C173.225 147.12 172.855 147.029 172.555 147.029C172.097 147.029 171.868 147.159 171.868 147.42C171.868 147.548 171.927 147.656 172.045 147.745C172.166 147.833 172.427 147.955 172.828 148.11C173.165 148.24 173.409 148.36 173.562 148.468C173.714 148.576 173.827 148.702 173.901 148.844C173.975 148.985 174.012 149.153 174.012 149.35Z" fill="#4573FF"/>
<path d="M180.081 145.118H180.996L179.107 150.512H178.178L176.296 145.118H177.203L178.329 148.472C178.388 148.632 178.451 148.838 178.517 149.092C178.583 149.342 178.626 149.529 178.646 149.652C178.678 149.465 178.727 149.249 178.794 149.003C178.86 148.757 178.914 148.575 178.956 148.457L180.081 145.118Z" fill="#4573FF"/>
<path d="M184.17 150.512L183.996 149.944H183.967C183.77 150.192 183.572 150.362 183.373 150.453C183.173 150.542 182.918 150.586 182.605 150.586C182.204 150.586 181.891 150.478 181.664 150.261C181.44 150.045 181.329 149.738 181.329 149.342C181.329 148.922 181.485 148.604 181.797 148.39C182.109 148.176 182.585 148.06 183.225 148.04L183.93 148.018V147.8C183.93 147.539 183.868 147.345 183.745 147.217C183.625 147.087 183.437 147.022 183.181 147.022C182.972 147.022 182.771 147.052 182.579 147.114C182.387 147.175 182.203 147.248 182.026 147.332L181.745 146.712C181.967 146.596 182.209 146.509 182.472 146.45C182.735 146.388 182.984 146.357 183.218 146.357C183.737 146.357 184.128 146.471 184.391 146.697C184.657 146.923 184.789 147.279 184.789 147.763V150.512H184.17ZM182.878 149.922C183.193 149.922 183.445 149.834 183.635 149.66C183.826 149.483 183.922 149.235 183.922 148.918V148.564L183.398 148.586C182.99 148.601 182.692 148.67 182.506 148.793C182.321 148.913 182.229 149.099 182.229 149.35C182.229 149.532 182.283 149.673 182.391 149.774C182.499 149.872 182.662 149.922 182.878 149.922Z" fill="#4573FF"/>
<path d="M186.867 150.512H186V144.771H186.867V150.512Z" fill="#4573FF"/>
<path d="M188.977 150.512H188.11V146.431H188.977V150.512ZM188.058 145.35C188.058 145.195 188.1 145.076 188.184 144.992C188.27 144.909 188.392 144.867 188.549 144.867C188.702 144.867 188.82 144.909 188.903 144.992C188.989 145.076 189.032 145.195 189.032 145.35C189.032 145.498 188.989 145.615 188.903 145.701C188.82 145.784 188.702 145.826 188.549 145.826C188.392 145.826 188.27 145.784 188.184 145.701C188.1 145.615 188.058 145.498 188.058 145.35Z" fill="#4573FF"/>
<path d="M191.597 150.586C191.088 150.586 190.69 150.401 190.405 150.032C190.12 149.663 189.977 149.146 189.977 148.479C189.977 147.81 190.121 147.29 190.409 146.918C190.699 146.544 191.1 146.357 191.612 146.357C192.148 146.357 192.556 146.555 192.836 146.952H192.881C192.839 146.659 192.818 146.428 192.818 146.258V144.771H193.689V150.512H193.01L192.859 149.977H192.818C192.54 150.383 192.133 150.586 191.597 150.586ZM191.829 149.885C192.186 149.885 192.445 149.785 192.608 149.586C192.77 149.384 192.854 149.058 192.859 148.608V148.486C192.859 147.972 192.775 147.607 192.608 147.391C192.44 147.174 192.179 147.066 191.822 147.066C191.517 147.066 191.282 147.19 191.117 147.439C190.952 147.685 190.87 148.036 190.87 148.494C190.87 148.946 190.95 149.292 191.11 149.531C191.27 149.767 191.509 149.885 191.829 149.885Z" fill="#4573FF"/>
<path d="M197.482 150.512L197.308 149.944H197.279C197.082 150.192 196.884 150.362 196.685 150.453C196.486 150.542 196.23 150.586 195.917 150.586C195.516 150.586 195.203 150.478 194.976 150.261C194.753 150.045 194.641 149.738 194.641 149.342C194.641 148.922 194.797 148.604 195.109 148.39C195.422 148.176 195.898 148.06 196.537 148.04L197.242 148.018V147.8C197.242 147.539 197.18 147.345 197.057 147.217C196.937 147.087 196.749 147.022 196.493 147.022C196.284 147.022 196.083 147.052 195.892 147.114C195.7 147.175 195.515 147.248 195.338 147.332L195.058 146.712C195.279 146.596 195.521 146.509 195.785 146.45C196.048 146.388 196.296 146.357 196.53 146.357C197.049 146.357 197.44 146.471 197.703 146.697C197.969 146.923 198.102 147.279 198.102 147.763V150.512H197.482ZM196.19 149.922C196.505 149.922 196.757 149.834 196.947 149.66C197.139 149.483 197.235 149.235 197.235 148.918V148.564L196.711 148.586C196.302 148.601 196.005 148.67 195.818 148.793C195.633 148.913 195.541 149.099 195.541 149.35C195.541 149.532 195.595 149.673 195.703 149.774C195.812 149.872 195.974 149.922 196.19 149.922Z" fill="#4573FF"/>
<path d="M200.832 149.885C201.043 149.885 201.255 149.852 201.467 149.785V150.438C201.371 150.48 201.246 150.514 201.094 150.542C200.944 150.571 200.788 150.586 200.625 150.586C199.804 150.586 199.393 150.153 199.393 149.287V147.088H198.836V146.704L199.434 146.387L199.729 145.524H200.264V146.431H201.426V147.088H200.264V149.272C200.264 149.481 200.315 149.636 200.419 149.737C200.524 149.836 200.662 149.885 200.832 149.885Z" fill="#4573FF"/>
<path d="M203.153 150.512H202.286V146.431H203.153V150.512ZM202.234 145.35C202.234 145.195 202.276 145.076 202.359 144.992C202.446 144.909 202.567 144.867 202.725 144.867C202.877 144.867 202.995 144.909 203.079 144.992C203.165 145.076 203.208 145.195 203.208 145.35C203.208 145.498 203.165 145.615 203.079 145.701C202.995 145.784 202.877 145.826 202.725 145.826C202.567 145.826 202.446 145.784 202.359 145.701C202.276 145.615 202.234 145.498 202.234 145.35Z" fill="#4573FF"/>
<path d="M208.016 148.464C208.016 149.131 207.845 149.651 207.503 150.025C207.161 150.399 206.685 150.586 206.075 150.586C205.694 150.586 205.357 150.5 205.064 150.328C204.771 150.155 204.546 149.908 204.389 149.586C204.231 149.264 204.153 148.89 204.153 148.464C204.153 147.803 204.322 147.286 204.662 146.915C205.001 146.543 205.48 146.357 206.097 146.357C206.687 146.357 207.155 146.548 207.499 146.929C207.843 147.308 208.016 147.82 208.016 148.464ZM205.045 148.464C205.045 149.406 205.394 149.877 206.09 149.877C206.778 149.877 207.123 149.406 207.123 148.464C207.123 147.532 206.776 147.066 206.082 147.066C205.718 147.066 205.454 147.186 205.289 147.427C205.127 147.669 205.045 148.014 205.045 148.464Z" fill="#4573FF"/>
<path d="M212.606 150.512H211.735V148.003C211.735 147.688 211.671 147.453 211.543 147.298C211.418 147.143 211.217 147.066 210.942 147.066C210.575 147.066 210.307 147.174 210.137 147.391C209.967 147.607 209.883 147.97 209.883 148.479V150.512H209.016V146.431H209.694L209.816 146.966H209.86C209.983 146.772 210.158 146.622 210.384 146.516C210.611 146.41 210.862 146.357 211.137 146.357C212.116 146.357 212.606 146.856 212.606 147.852V150.512Z" fill="#4573FF"/>
<rect x="151.317" y="155.707" width="61.8678" height="2.83364" rx="1.41682" fill="#4573FF"/>
<rect x="143.879" y="196.441" width="397.89" height="0.236137" rx="0.118068" fill="white" stroke="#DFDFDF" stroke-width="0.236137"/>
<rect x="143.879" y="164.326" width="397.89" height="0.236137" rx="0.118068" fill="white" stroke="#DFDFDF" stroke-width="0.236137"/>
<rect x="205.656" y="173.209" width="46.6996" height="15.0573" rx="3.5" fill="white" stroke="#CFCFCF"/>
<rect x="264.69" y="173.209" width="46.6996" height="15.0573" rx="3.5" fill="white" stroke="#CFCFCF"/>
<rect x="269.385" y="176.959" width="29.281" height="7.0841" rx="3.54205" fill="#ECECEC"/>
<rect x="210.351" y="176.959" width="29.281" height="7.0841" rx="3.54205" fill="#ECECEC"/>
<path d="M257.011 187.328V186.157H260.023V187.328H257.011Z" fill="#CFCFCF"/>
<rect x="151.817" y="173.209" width="45.2828" height="15.0573" rx="3.5" fill="white" stroke="#CFCFCF"/>
<rect x="156.512" y="177.904" width="29.281" height="7.0841" rx="3.54205" fill="#ECECEC"/>
<path d="M189.903 180.638L190.988 181.723L192.073 180.638L192.405 180.97L190.988 182.387L189.571 180.97L189.903 180.638Z" fill="#CFCFCF"/>
<rect x="319.946" y="173.209" width="83.537" height="15.0573" rx="3.5" fill="white" stroke="#CFCFCF"/>
<path fill-rule="evenodd" clip-rule="evenodd" d="M328.231 181.111H328.495L330.164 182.784L329.666 183.282L327.993 181.613V181.349L327.903 181.255C327.522 181.583 327.026 181.78 326.488 181.78C325.287 181.78 324.313 180.807 324.313 179.606C324.313 178.405 325.287 177.432 326.488 177.432C327.689 177.432 328.662 178.405 328.662 179.606C328.662 180.145 328.465 180.64 328.137 181.021L328.231 181.111ZM324.983 179.606C324.983 180.439 325.655 181.111 326.488 181.111C327.321 181.111 327.993 180.439 327.993 179.606C327.993 178.773 327.321 178.101 326.488 178.101C325.655 178.101 324.983 178.773 324.983 179.606Z" fill="#B1B1B1"/>
<path d="M304.57 180.025H304.094V180.501H304.57V180.025ZM305.511 180.025H305.046V180.501H305.511V180.025ZM306.463 180.025H305.987V180.501H306.463V180.025ZM306.927 178.376H306.695V177.9H306.219V178.376H304.337V177.9H303.861V178.376H303.629C303.489 178.376 303.374 178.424 303.286 178.52C303.197 178.609 303.153 178.719 303.153 178.852V182.151C303.153 182.283 303.197 182.398 303.286 182.494C303.382 182.582 303.496 182.627 303.629 182.627H306.927C307.06 182.627 307.171 182.582 307.26 182.494C307.355 182.398 307.403 182.283 307.403 182.151V178.852C307.403 178.719 307.355 178.609 307.26 178.52C307.171 178.424 307.06 178.376 306.927 178.376ZM306.927 182.151H303.629V179.561H306.927V182.151Z" fill="#CFCFCF"/>
<path d="M245.536 180.025H245.06V180.501H245.536V180.025ZM246.476 180.025H246.012V180.501H246.476V180.025ZM247.428 180.025H246.952V180.501H247.428V180.025ZM247.893 178.376H247.661V177.9H247.185V178.376H245.303V177.9H244.827V178.376H244.595C244.455 178.376 244.34 178.424 244.252 178.52C244.163 178.609 244.119 178.719 244.119 178.852V182.151C244.119 182.283 244.163 182.398 244.252 182.494C244.348 182.582 244.462 182.627 244.595 182.627H247.893C248.026 182.627 248.137 182.582 248.225 182.494C248.321 182.398 248.369 182.283 248.369 182.151V178.852C248.369 178.719 248.321 178.609 248.225 178.52C248.137 178.424 248.026 178.376 247.893 178.376ZM247.893 182.151H244.595V179.561H247.893V182.151Z" fill="#CFCFCF"/>
<rect x="151.435" y="219.11" width="382.778" height="0.236137" rx="0.118068" fill="white" stroke="#DFDFDF" stroke-width="0.236137"/>
<rect x="480.019" y="172.709" width="46.7551" height="16.0573" rx="4" fill="#CFCFCF"/>
<rect x="437.987" y="177.432" width="29.281" height="7.0841" rx="3.54205" fill="#ECECEC"/>
<rect x="426.771" y="172.355" width="0.236137" height="15.8212" rx="0.118068" fill="white" stroke="#CFCFCF" stroke-width="0.236137"/>
<g filter="url(#filter2_d)">
<rect x="143.761" y="81.5601" width="398.127" height="43.9214" rx="4" fill="white"/>
</g>
<path d="M152.385 114.147V106.056H153.708V114.147H152.385Z" fill="#777777"/>
<path d="M162.43 110.024C162.43 111.359 162.059 112.381 161.318 113.09C160.576 113.795 159.508 114.147 158.113 114.147H155.85V106.056H158.351C159.639 106.056 160.641 106.402 161.357 107.096C162.072 107.79 162.43 108.766 162.43 110.024ZM161.036 110.068C161.036 108.131 160.13 107.162 158.318 107.162H157.172V113.035H158.113C160.061 113.035 161.036 112.046 161.036 110.068Z" fill="#777777"/>
<path d="M165.496 109.819H166.415C167.031 109.819 167.478 109.705 167.754 109.476C168.031 109.247 168.169 108.908 168.169 108.458C168.169 108 168.02 107.672 167.721 107.472C167.422 107.273 166.972 107.174 166.371 107.174H165.496V109.819ZM165.496 110.915V114.147H164.174V106.056H166.459C167.503 106.056 168.276 106.251 168.778 106.642C169.28 107.033 169.531 107.624 169.531 108.413C169.531 109.421 169.007 110.138 167.959 110.566L170.245 114.147H168.739L166.802 110.915H165.496Z" fill="#777777"/>
<path d="M181.923 107.915C181.923 108.428 181.773 108.856 181.474 109.199C181.175 109.539 180.755 109.767 180.212 109.885V109.93C180.862 110.011 181.349 110.214 181.674 110.538C181.998 110.859 182.161 111.287 182.161 111.822C182.161 112.601 181.886 113.202 181.336 113.627C180.786 114.047 180.004 114.258 178.989 114.258C178.093 114.258 177.336 114.112 176.72 113.82V112.664C177.063 112.833 177.427 112.964 177.81 113.057C178.194 113.149 178.563 113.195 178.917 113.195C179.545 113.195 180.013 113.079 180.323 112.846C180.633 112.614 180.788 112.254 180.788 111.767C180.788 111.335 180.616 111.018 180.273 110.815C179.93 110.612 179.391 110.511 178.657 110.511H177.954V109.454H178.668C179.96 109.454 180.605 109.007 180.605 108.114C180.605 107.768 180.493 107.5 180.268 107.312C180.043 107.124 179.711 107.03 179.272 107.03C178.965 107.03 178.67 107.074 178.386 107.162C178.102 107.247 177.766 107.415 177.379 107.666L176.742 106.758C177.484 106.212 178.345 105.939 179.327 105.939C180.142 105.939 180.779 106.115 181.236 106.465C181.694 106.816 181.923 107.299 181.923 107.915Z" fill="#777777"/>
<path d="M185.963 109.094C186.778 109.094 187.424 109.31 187.9 109.742C188.376 110.173 188.614 110.762 188.614 111.507C188.614 112.37 188.343 113.046 187.8 113.533C187.261 114.016 186.494 114.258 185.498 114.258C184.594 114.258 183.884 114.112 183.367 113.82V112.642C183.666 112.811 184.009 112.942 184.396 113.035C184.784 113.127 185.144 113.173 185.476 113.173C186.062 113.173 186.509 113.042 186.815 112.78C187.121 112.518 187.274 112.134 187.274 111.629C187.274 110.662 186.658 110.179 185.426 110.179C185.252 110.179 185.038 110.197 184.784 110.234C184.529 110.267 184.306 110.306 184.114 110.35L183.533 110.007L183.843 106.056H188.049V107.212H184.989L184.806 109.216C184.935 109.194 185.092 109.168 185.276 109.138C185.465 109.109 185.693 109.094 185.963 109.094Z" fill="#777777"/>
<path d="M195.178 110.101C195.178 111.507 194.951 112.551 194.497 113.234C194.047 113.916 193.357 114.258 192.427 114.258C191.527 114.258 190.844 113.905 190.379 113.201C189.914 112.496 189.682 111.463 189.682 110.101C189.682 108.673 189.907 107.622 190.357 106.947C190.811 106.268 191.501 105.928 192.427 105.928C193.331 105.928 194.015 106.282 194.48 106.991C194.945 107.699 195.178 108.736 195.178 110.101ZM190.999 110.101C190.999 111.204 191.112 111.992 191.337 112.464C191.565 112.937 191.929 113.173 192.427 113.173C192.925 113.173 193.288 112.933 193.517 112.453C193.75 111.974 193.866 111.19 193.866 110.101C193.866 109.017 193.75 108.232 193.517 107.749C193.288 107.262 192.925 107.019 192.427 107.019C191.929 107.019 191.565 107.257 191.337 107.733C191.112 108.208 190.999 108.998 190.999 110.101Z" fill="#777777"/>
<path d="M196.406 113.455C196.406 113.186 196.476 112.979 196.617 112.835C196.757 112.691 196.96 112.619 197.225 112.619C197.495 112.619 197.699 112.695 197.84 112.846C197.98 112.994 198.05 113.197 198.05 113.455C198.05 113.717 197.978 113.926 197.834 114.081C197.694 114.232 197.491 114.307 197.225 114.307C196.96 114.307 196.757 114.232 196.617 114.081C196.476 113.929 196.406 113.721 196.406 113.455Z" fill="#777777"/>
<path d="M204.774 110.101C204.774 111.507 204.547 112.551 204.094 113.234C203.643 113.916 202.953 114.258 202.024 114.258C201.123 114.258 200.441 113.905 199.976 113.201C199.511 112.496 199.279 111.463 199.279 110.101C199.279 108.673 199.504 107.622 199.954 106.947C200.408 106.268 201.098 105.928 202.024 105.928C202.928 105.928 203.612 106.282 204.077 106.991C204.542 107.699 204.774 108.736 204.774 110.101ZM200.596 110.101C200.596 111.204 200.708 111.992 200.933 112.464C201.162 112.937 201.526 113.173 202.024 113.173C202.522 113.173 202.885 112.933 203.114 112.453C203.346 111.974 203.463 111.19 203.463 110.101C203.463 109.017 203.346 108.232 203.114 107.749C202.885 107.262 202.522 107.019 202.024 107.019C201.526 107.019 201.162 107.257 200.933 107.733C200.708 108.208 200.596 108.998 200.596 110.101Z" fill="#777777"/>
<path d="M211.25 110.101C211.25 111.507 211.023 112.551 210.569 113.234C210.119 113.916 209.429 114.258 208.499 114.258C207.599 114.258 206.916 113.905 206.451 113.201C205.986 112.496 205.754 111.463 205.754 110.101C205.754 108.673 205.979 107.622 206.429 106.947C206.883 106.268 207.573 105.928 208.499 105.928C209.403 105.928 210.087 106.282 210.552 106.991C211.017 107.699 211.25 108.736 211.25 110.101ZM207.071 110.101C207.071 111.204 207.184 111.992 207.409 112.464C207.637 112.937 208.001 113.173 208.499 113.173C208.997 113.173 209.361 112.933 209.589 112.453C209.822 111.974 209.938 111.19 209.938 110.101C209.938 109.017 209.822 108.232 209.589 107.749C209.361 107.262 208.997 107.019 208.499 107.019C208.001 107.019 207.637 107.257 207.409 107.733C207.184 108.208 207.071 108.998 207.071 110.101Z" fill="#777777"/>
<path d="M217.725 110.101C217.725 111.507 217.498 112.551 217.044 113.234C216.594 113.916 215.904 114.258 214.974 114.258C214.074 114.258 213.391 113.905 212.927 113.201C212.462 112.496 212.229 111.463 212.229 110.101C212.229 108.673 212.454 107.622 212.904 106.947C213.358 106.268 214.048 105.928 214.974 105.928C215.878 105.928 216.563 106.282 217.028 106.991C217.493 107.699 217.725 108.736 217.725 110.101ZM213.546 110.101C213.546 111.204 213.659 111.992 213.884 112.464C214.113 112.937 214.476 113.173 214.974 113.173C215.472 113.173 215.836 112.933 216.065 112.453C216.297 111.974 216.413 111.19 216.413 110.101C216.413 109.017 216.297 108.232 216.065 107.749C215.836 107.262 215.472 107.019 214.974 107.019C214.476 107.019 214.113 107.257 213.884 107.733C213.659 108.208 213.546 108.998 213.546 110.101Z" fill="#777777"/>
<path d="M218.954 113.455C218.954 113.186 219.024 112.979 219.164 112.835C219.304 112.691 219.507 112.619 219.773 112.619C220.042 112.619 220.247 112.695 220.387 112.846C220.527 112.994 220.597 113.197 220.597 113.455C220.597 113.717 220.525 113.926 220.381 114.081C220.241 114.232 220.038 114.307 219.773 114.307C219.507 114.307 219.304 114.232 219.164 114.081C219.024 113.929 218.954 113.721 218.954 113.455Z" fill="#777777"/>
<path d="M227.322 110.101C227.322 111.507 227.095 112.551 226.641 113.234C226.191 113.916 225.501 114.258 224.571 114.258C223.671 114.258 222.988 113.905 222.523 113.201C222.058 112.496 221.826 111.463 221.826 110.101C221.826 108.673 222.051 107.622 222.501 106.947C222.955 106.268 223.645 105.928 224.571 105.928C225.475 105.928 226.159 106.282 226.624 106.991C227.089 107.699 227.322 108.736 227.322 110.101ZM223.143 110.101C223.143 111.204 223.256 111.992 223.481 112.464C223.71 112.937 224.073 113.173 224.571 113.173C225.069 113.173 225.433 112.933 225.661 112.453C225.894 111.974 226.01 111.19 226.01 110.101C226.01 109.017 225.894 108.232 225.661 107.749C225.433 107.262 225.069 107.019 224.571 107.019C224.073 107.019 223.71 107.257 223.481 107.733C223.256 108.208 223.143 108.998 223.143 110.101Z" fill="#777777"/>
<path d="M233.797 110.101C233.797 111.507 233.57 112.551 233.116 113.234C232.666 113.916 231.976 114.258 231.046 114.258C230.146 114.258 229.464 113.905 228.999 113.201C228.534 112.496 228.301 111.463 228.301 110.101C228.301 108.673 228.526 107.622 228.977 106.947C229.43 106.268 230.12 105.928 231.046 105.928C231.95 105.928 232.635 106.282 233.1 106.991C233.565 107.699 233.797 108.736 233.797 110.101ZM229.618 110.101C229.618 111.204 229.731 111.992 229.956 112.464C230.185 112.937 230.548 113.173 231.046 113.173C231.544 113.173 231.908 112.933 232.137 112.453C232.369 111.974 232.485 111.19 232.485 110.101C232.485 109.017 232.369 108.232 232.137 107.749C231.908 107.262 231.544 107.019 231.046 107.019C230.548 107.019 230.185 107.257 229.956 107.733C229.731 108.208 229.618 108.998 229.618 110.101Z" fill="#777777"/>
<path d="M240.272 110.101C240.272 111.507 240.045 112.551 239.592 113.234C239.141 113.916 238.451 114.258 237.522 114.258C236.621 114.258 235.939 113.905 235.474 113.201C235.009 112.496 234.777 111.463 234.777 110.101C234.777 108.673 235.002 107.622 235.452 106.947C235.906 106.268 236.596 105.928 237.522 105.928C238.426 105.928 239.11 106.282 239.575 106.991C240.04 107.699 240.272 108.736 240.272 110.101ZM236.094 110.101C236.094 111.204 236.206 111.992 236.431 112.464C236.66 112.937 237.024 113.173 237.522 113.173C238.02 113.173 238.383 112.933 238.612 112.453C238.844 111.974 238.961 111.19 238.961 110.101C238.961 109.017 238.844 108.232 238.612 107.749C238.383 107.262 238.02 107.019 237.522 107.019C237.024 107.019 236.66 107.257 236.431 107.733C236.206 108.208 236.094 108.998 236.094 110.101Z" fill="#777777"/>
<path d="M153.553 94.2118L154.83 91.7508H155.789L153.992 95.0531V97.1451H153.106V95.0826L151.317 91.7508H152.276L153.553 94.2118Z" fill="#9B9B9B"/>
<path d="M160.028 95.0973C160.028 95.7639 159.857 96.2842 159.515 96.6581C159.173 97.0319 158.698 97.2189 158.087 97.2189C157.706 97.2189 157.369 97.1328 157.077 96.9606C156.784 96.7884 156.559 96.5412 156.401 96.219C156.244 95.8968 156.165 95.5229 156.165 95.0973C156.165 94.4357 156.335 93.9191 156.674 93.5477C157.014 93.1763 157.492 92.9906 158.11 92.9906C158.7 92.9906 159.167 93.1812 159.512 93.5625C159.856 93.9413 160.028 94.4529 160.028 95.0973ZM157.058 95.0973C157.058 96.0394 157.406 96.5105 158.102 96.5105C158.791 96.5105 159.135 96.0394 159.135 95.0973C159.135 94.1651 158.789 93.699 158.095 93.699C157.731 93.699 157.466 93.8195 157.302 94.0606C157.139 94.3016 157.058 94.6472 157.058 95.0973Z" fill="#9B9B9B"/>
<path d="M163.906 97.1451L163.784 96.6101H163.74C163.619 96.7995 163.447 96.9483 163.223 97.0565C163.002 97.1648 162.749 97.2189 162.463 97.2189C161.969 97.2189 161.6 97.0959 161.357 96.8499C161.113 96.604 160.991 96.2313 160.991 95.732V93.0644H161.866V95.5807C161.866 95.8931 161.93 96.128 162.058 96.2854C162.185 96.4404 162.386 96.5179 162.659 96.5179C163.023 96.5179 163.29 96.4096 163.46 96.1932C163.632 95.9743 163.718 95.609 163.718 95.0973V93.0644H164.589V97.1451H163.906Z" fill="#9B9B9B"/>
<path d="M167.895 92.9906C168.069 92.9906 168.213 93.0029 168.326 93.0275L168.241 93.8355C168.118 93.806 167.99 93.7912 167.858 93.7912C167.511 93.7912 167.229 93.9044 167.013 94.1307C166.799 94.357 166.692 94.6509 166.692 95.0125V97.1451H165.825V93.0644H166.504L166.618 93.7838H166.662C166.797 93.5403 166.973 93.3472 167.19 93.2046C167.409 93.0619 167.644 92.9906 167.895 92.9906Z" fill="#9B9B9B"/>
<path d="M173.436 92.4297C172.93 92.4297 172.531 92.6093 172.241 92.9684C171.951 93.3276 171.806 93.8232 171.806 94.4554C171.806 95.117 171.945 95.6176 172.222 95.957C172.503 96.2965 172.908 96.4662 173.436 96.4662C173.665 96.4662 173.887 96.4441 174.101 96.3998C174.315 96.3531 174.537 96.294 174.768 96.2227V96.9791C174.345 97.1389 173.866 97.2189 173.329 97.2189C172.54 97.2189 171.933 96.9803 171.51 96.5031C171.087 96.0234 170.876 95.3384 170.876 94.448C170.876 93.8871 170.978 93.3964 171.182 92.9758C171.389 92.5552 171.686 92.233 172.075 92.0091C172.464 91.7853 172.92 91.6734 173.444 91.6734C173.995 91.6734 174.504 91.789 174.971 92.0202L174.654 92.7544C174.472 92.6683 174.279 92.5933 174.075 92.5294C173.873 92.4629 173.66 92.4297 173.436 92.4297Z" fill="#9B9B9B"/>
<path d="M178.392 97.1451L178.218 96.5769H178.189C177.992 96.8253 177.794 96.9951 177.595 97.0861C177.395 97.1746 177.14 97.2189 176.827 97.2189C176.426 97.2189 176.113 97.1107 175.886 96.8942C175.662 96.6777 175.551 96.3715 175.551 95.9755C175.551 95.5549 175.707 95.2376 176.019 95.0236C176.332 94.8096 176.807 94.6927 177.447 94.673L178.152 94.6509V94.4332C178.152 94.1725 178.09 93.9782 177.967 93.8503C177.847 93.7199 177.659 93.6547 177.403 93.6547C177.194 93.6547 176.993 93.6854 176.801 93.7469C176.609 93.8084 176.425 93.881 176.248 93.9646L175.967 93.3448C176.189 93.2292 176.431 93.1418 176.694 93.0828C176.958 93.0213 177.206 92.9906 177.44 92.9906C177.959 92.9906 178.35 93.1037 178.613 93.33C178.879 93.5563 179.011 93.9117 179.011 94.3963V97.1451H178.392ZM177.1 96.5548C177.415 96.5548 177.667 96.4674 177.857 96.2928C178.048 96.1157 178.144 95.8685 178.144 95.5512V95.197L177.62 95.2191C177.212 95.2339 176.914 95.3027 176.728 95.4257C176.543 95.5463 176.451 95.732 176.451 95.9829C176.451 96.1649 176.505 96.3063 176.613 96.4072C176.721 96.5056 176.884 96.5548 177.1 96.5548Z" fill="#9B9B9B"/>
<path d="M182.963 95.9829C182.963 96.3813 182.818 96.6876 182.528 96.9016C182.237 97.1131 181.822 97.2189 181.281 97.2189C180.737 97.2189 180.3 97.1365 179.971 96.9717V96.2227C180.45 96.4441 180.897 96.5548 181.31 96.5548C181.844 96.5548 182.111 96.3936 182.111 96.0714C182.111 95.9681 182.081 95.882 182.022 95.8131C181.963 95.7443 181.866 95.6729 181.731 95.5991C181.595 95.5253 181.407 95.4417 181.166 95.3482C180.696 95.1662 180.378 94.9842 180.211 94.8022C180.046 94.6202 179.963 94.384 179.963 94.0938C179.963 93.7445 180.104 93.4739 180.384 93.282C180.667 93.0877 181.051 92.9906 181.535 92.9906C182.015 92.9906 182.469 93.0877 182.897 93.282L182.616 93.9351C182.176 93.7531 181.806 93.6621 181.506 93.6621C181.048 93.6621 180.819 93.7924 180.819 94.0532C180.819 94.1811 180.878 94.2893 180.996 94.3779C181.117 94.4664 181.378 94.5882 181.779 94.7431C182.116 94.8735 182.36 94.9928 182.513 95.101C182.665 95.2093 182.779 95.3347 182.852 95.4774C182.926 95.6176 182.963 95.7861 182.963 95.9829Z" fill="#9B9B9B"/>
<path d="M187.494 97.1451H186.623V94.6361C186.623 94.3213 186.559 94.0864 186.431 93.9314C186.306 93.7765 186.105 93.699 185.83 93.699C185.466 93.699 185.198 93.8084 185.026 94.0274C184.856 94.2438 184.771 94.6079 184.771 95.1195V97.1451H183.904V91.404H184.771V92.8614C184.771 93.0951 184.756 93.3448 184.727 93.6104H184.782C184.9 93.4136 185.064 93.2611 185.273 93.1529C185.484 93.0447 185.73 92.9906 186.011 92.9906C186.999 92.9906 187.494 93.4887 187.494 94.4849V97.1451Z" fill="#9B9B9B"/>
<path d="M190.756 91.7508H192.357C193.1 91.7508 193.636 91.8591 193.966 92.0755C194.298 92.292 194.464 92.6339 194.464 93.1013C194.464 93.4161 194.382 93.6781 194.22 93.8871C194.058 94.0962 193.824 94.2278 193.519 94.2819V94.3188C193.898 94.3902 194.176 94.5316 194.353 94.7431C194.532 94.9522 194.622 95.2363 194.622 95.5955C194.622 96.08 194.453 96.4601 194.113 96.7355C193.776 97.0086 193.306 97.1451 192.704 97.1451H190.756V91.7508ZM191.637 93.9794H192.486C192.855 93.9794 193.124 93.9216 193.294 93.806C193.464 93.6879 193.549 93.4887 193.549 93.2083C193.549 92.9549 193.456 92.7716 193.272 92.6585C193.09 92.5454 192.8 92.4888 192.401 92.4888H191.637V93.9794ZM191.637 94.6952V96.4035H192.575C192.943 96.4035 193.221 96.3334 193.408 96.1932C193.598 96.0505 193.692 95.8267 193.692 95.5217C193.692 95.2412 193.597 95.0334 193.405 94.8981C193.213 94.7628 192.921 94.6952 192.53 94.6952H191.637Z" fill="#9B9B9B"/>
<path d="M198.205 97.1451L198.032 96.5769H198.002C197.805 96.8253 197.607 96.9951 197.408 97.0861C197.209 97.1746 196.953 97.2189 196.641 97.2189C196.24 97.2189 195.926 97.1107 195.7 96.8942C195.476 96.6777 195.364 96.3715 195.364 95.9755C195.364 95.5549 195.52 95.2376 195.832 95.0236C196.145 94.8096 196.621 94.6927 197.26 94.673L197.965 94.6509V94.4332C197.965 94.1725 197.904 93.9782 197.781 93.8503C197.66 93.7199 197.472 93.6547 197.216 93.6547C197.007 93.6547 196.807 93.6854 196.615 93.7469C196.423 93.8084 196.238 93.881 196.061 93.9646L195.781 93.3448C196.002 93.2292 196.244 93.1418 196.508 93.0828C196.771 93.0213 197.019 92.9906 197.253 92.9906C197.772 92.9906 198.163 93.1037 198.426 93.33C198.692 93.5563 198.825 93.9117 198.825 94.3963V97.1451H198.205ZM196.914 96.5548C197.228 96.5548 197.481 96.4674 197.67 96.2928C197.862 96.1157 197.958 95.8685 197.958 95.5512V95.197L197.434 95.2191C197.025 95.2339 196.728 95.3027 196.541 95.4257C196.356 95.5463 196.264 95.732 196.264 95.9829C196.264 96.1649 196.318 96.3063 196.427 96.4072C196.535 96.5056 196.697 96.5548 196.914 96.5548Z" fill="#9B9B9B"/>
<path d="M200.902 97.1451H200.035V91.404H200.902V97.1451Z" fill="#9B9B9B"/>
<path d="M204.699 97.1451L204.525 96.5769H204.496C204.299 96.8253 204.101 96.9951 203.902 97.0861C203.702 97.1746 203.447 97.2189 203.134 97.2189C202.733 97.2189 202.42 97.1107 202.193 96.8942C201.97 96.6777 201.858 96.3715 201.858 95.9755C201.858 95.5549 202.014 95.2376 202.326 95.0236C202.639 94.8096 203.115 94.6927 203.754 94.673L204.459 94.6509V94.4332C204.459 94.1725 204.397 93.9782 204.274 93.8503C204.154 93.7199 203.966 93.6547 203.71 93.6547C203.501 93.6547 203.3 93.6854 203.108 93.7469C202.917 93.8084 202.732 93.881 202.555 93.9646L202.275 93.3448C202.496 93.2292 202.738 93.1418 203.001 93.0828C203.265 93.0213 203.513 92.9906 203.747 92.9906C204.266 92.9906 204.657 93.1037 204.92 93.33C205.186 93.5563 205.319 93.9117 205.319 94.3963V97.1451H204.699ZM203.407 96.5548C203.722 96.5548 203.974 96.4674 204.164 96.2928C204.356 96.1157 204.451 95.8685 204.451 95.5512V95.197L203.928 95.2191C203.519 95.2339 203.222 95.3027 203.035 95.4257C202.85 95.5463 202.758 95.732 202.758 95.9829C202.758 96.1649 202.812 96.3063 202.92 96.4072C203.028 96.5056 203.191 96.5548 203.407 96.5548Z" fill="#9B9B9B"/>
<path d="M210.119 97.1451H209.248V94.6361C209.248 94.3213 209.184 94.0864 209.056 93.9314C208.931 93.7765 208.73 93.699 208.455 93.699C208.088 93.699 207.82 93.8072 207.65 94.0237C207.481 94.2401 207.396 94.6029 207.396 95.1121V97.1451H206.529V93.0644H207.208L207.329 93.5994H207.374C207.497 93.405 207.671 93.255 207.898 93.1492C208.124 93.0435 208.375 92.9906 208.65 92.9906C209.629 92.9906 210.119 93.4887 210.119 94.4849V97.1451Z" fill="#9B9B9B"/>
<path d="M212.971 97.2189C212.353 97.2189 211.884 97.0393 211.561 96.6802C211.242 96.3186 211.082 95.8008 211.082 95.1269C211.082 94.4406 211.249 93.913 211.584 93.544C211.921 93.175 212.406 92.9906 213.041 92.9906C213.471 92.9906 213.859 93.0705 214.203 93.2304L213.941 93.9277C213.575 93.7851 213.272 93.7137 213.034 93.7137C212.328 93.7137 211.975 94.1823 211.975 95.1195C211.975 95.577 212.062 95.9214 212.237 96.1526C212.414 96.3813 212.672 96.4957 213.011 96.4957C213.398 96.4957 213.763 96.3998 214.107 96.2079V96.9643C213.952 97.0553 213.786 97.1205 213.609 97.1599C213.435 97.1992 213.222 97.2189 212.971 97.2189Z" fill="#9B9B9B"/>
<path d="M216.849 97.2189C216.214 97.2189 215.717 97.0344 215.358 96.6654C215.001 96.294 214.823 95.7836 214.823 95.1342C214.823 94.4677 214.989 93.9437 215.321 93.5625C215.653 93.1812 216.109 92.9906 216.69 92.9906C217.229 92.9906 217.654 93.1541 217.967 93.4813C218.279 93.8084 218.435 94.2586 218.435 94.8317V95.3003H215.716C215.728 95.6963 215.835 96.0013 216.037 96.2153C216.239 96.4268 216.523 96.5326 216.889 96.5326C217.13 96.5326 217.354 96.5105 217.561 96.4662C217.77 96.4195 217.994 96.3432 218.232 96.2374V96.9422C218.021 97.043 217.807 97.1144 217.59 97.1562C217.374 97.198 217.127 97.2189 216.849 97.2189ZM216.69 93.6473C216.415 93.6473 216.193 93.7346 216.026 93.9093C215.861 94.0839 215.763 94.3385 215.731 94.673H217.583C217.578 94.3361 217.497 94.0815 217.339 93.9093C217.182 93.7346 216.965 93.6473 216.69 93.6473Z" fill="#9B9B9B"/>
<rect x="458.323" y="96.2283" width="67.9519" height="15.0573" rx="3.5" fill="white" stroke="#4573FF"/>
<path d="M483.227 106.591H482.455V102.532H481.067V101.871H484.615V102.532H483.227V106.591Z" fill="#4573FF"/>
<path d="M488.428 104.799C488.428 105.382 488.278 105.837 487.979 106.164C487.68 106.492 487.263 106.655 486.73 106.655C486.396 106.655 486.101 106.58 485.845 106.429C485.589 106.278 485.392 106.062 485.254 105.78C485.116 105.498 485.047 105.171 485.047 104.799C485.047 104.22 485.196 103.768 485.493 103.443C485.79 103.118 486.209 102.955 486.749 102.955C487.265 102.955 487.674 103.122 487.976 103.456C488.277 103.787 488.428 104.235 488.428 104.799ZM485.829 104.799C485.829 105.623 486.133 106.035 486.742 106.035C487.345 106.035 487.646 105.623 487.646 104.799C487.646 103.983 487.343 103.575 486.736 103.575C486.417 103.575 486.186 103.681 486.042 103.892C485.9 104.103 485.829 104.405 485.829 104.799Z" fill="#4573FF"/>
<path d="M491.114 106.655C490.662 106.655 490.311 106.493 490.061 106.168H490.016C490.046 106.469 490.061 106.652 490.061 106.716V108.179H489.303V103.02H489.916C489.933 103.087 489.969 103.246 490.023 103.498H490.061C490.298 103.136 490.653 102.955 491.127 102.955C491.572 102.955 491.919 103.117 492.166 103.44C492.416 103.762 492.541 104.216 492.541 104.799C492.541 105.382 492.414 105.837 492.16 106.164C491.908 106.492 491.559 106.655 491.114 106.655ZM490.93 103.575C490.628 103.575 490.408 103.663 490.268 103.84C490.13 104.016 490.061 104.298 490.061 104.686V104.799C490.061 105.234 490.13 105.549 490.268 105.745C490.406 105.938 490.631 106.035 490.943 106.035C491.205 106.035 491.408 105.928 491.55 105.712C491.692 105.497 491.763 105.191 491.763 104.792C491.763 104.392 491.692 104.09 491.55 103.885C491.41 103.679 491.203 103.575 490.93 103.575Z" fill="#4573FF"/>
<path d="M498.92 101.871V104.925C498.92 105.273 498.845 105.579 498.694 105.842C498.546 106.102 498.329 106.303 498.045 106.445C497.763 106.585 497.425 106.655 497.031 106.655C496.446 106.655 495.991 106.5 495.666 106.19C495.341 105.88 495.178 105.454 495.178 104.912V101.871H495.953V104.857C495.953 105.246 496.044 105.534 496.224 105.719C496.405 105.904 496.683 105.997 497.057 105.997C497.785 105.997 498.148 105.615 498.148 104.85V101.871H498.92Z" fill="#4573FF"/>
<path d="M501.858 106.655C501.406 106.655 501.055 106.493 500.805 106.168H500.76C500.79 106.469 500.805 106.652 500.805 106.716V108.179H500.047V103.02H500.66C500.677 103.087 500.713 103.246 500.767 103.498H500.805C501.042 103.136 501.397 102.955 501.871 102.955C502.316 102.955 502.663 103.117 502.91 103.44C503.16 103.762 503.285 104.216 503.285 104.799C503.285 105.382 503.158 105.837 502.904 106.164C502.652 106.492 502.303 106.655 501.858 106.655ZM501.674 103.575C501.373 103.575 501.152 103.663 501.012 103.84C500.874 104.016 500.805 104.298 500.805 104.686V104.799C500.805 105.234 500.874 105.549 501.012 105.745C501.15 105.938 501.375 106.035 501.687 106.035C501.949 106.035 502.152 105.928 502.294 105.712C502.436 105.497 502.507 105.191 502.507 104.792C502.507 104.392 502.436 104.09 502.294 103.885C502.154 103.679 501.947 103.575 501.674 103.575Z" fill="#4573FF"/>
<g filter="url(#filter3_d)">
<rect x="128.648" y="40" width="428.352" height="26.4473" fill="white"/>
</g>
<rect x="460.656" y="43.7782" width="81.2311" height="18.8909" rx="4" fill="white"/>
<g filter="url(#filter4_d)">
<circle cx="530.553" cy="53.2237" r="7.55638" fill="#C4C4C4"/>
</g>
<rect x="375.175" y="48.9732" width="34.0037" height="9.44547" rx="4" fill="#ECECEC"/>
<rect x="416.735" y="48.9732" width="13.2237" height="9.44547" rx="4" fill="#ECECEC"/>
<rect x="486.159" y="46.1396" width="33.0592" height="6.13956" rx="3.06978" fill="#ECECEC"/>
<rect x="462.545" y="54.1682" width="56.6728" height="6.13956" rx="3.06978" fill="#ECECEC"/>
<rect x="333.615" y="48.9732" width="34.0037" height="9.44547" rx="4" fill="#ECECEC"/>
<rect x="144.705" y="47.0841" width="60.451" height="13.2237" rx="4" fill="#ECECEC"/>
<rect x="46" y="93.8392" width="78.3974" height="15.585" fill="#78A5ED"/>
<rect x="46" y="40" width="82.6479" height="321.146" fill="#4573FF"/>
<mask id="mask1" mask-type="alpha" maskUnits="userSpaceOnUse" x="53" y="47" width="13" height="12">
<rect x="53.5564" y="47.5564" width="11.6042" height="11.3346" fill="white"/>
</mask>
<g mask="url(#mask1)">
<path d="M60.3448 55.9423L61.4114 57.7442L61.9267 57.4325L62.1076 56.8357L60.9626 54.8988L60.3448 55.9423Z" fill="#D24D57"/>
<path d="M56.8926 48.8065L56.3892 49.2333L57.7407 51.5152L58.3568 50.4734L57.123 48.3882L56.8926 48.8065Z" fill="#D24D57"/>
<path d="M58.053 54.3838L56.5513 56.9224L56.739 57.5975L57.1997 57.9159L59.3653 54.2538L59.983 53.2087L62.379 49.1516L61.9814 48.6115L61.8465 48.4232L61.2629 48.9515L58.053 54.3838Z" fill="#D24D57"/>
<path d="M56.8448 47.9148L56.227 48.9615H56.2287L54.3345 52.1719L54.3328 52.1702L53.7167 53.2153L56.8448 58.5159L57.4625 57.4725L54.9505 53.217L57.4625 48.9615H59.2595L59.8772 47.9148H56.8448Z" fill="white"/>
<path d="M61.2561 48.9632L63.7663 53.217L61.2561 57.4708H59.4591L58.8431 58.5159H61.8738L62.4916 57.4708L64.3841 54.2621L65.0019 53.2187L64.3858 52.1669L62.4899 48.9615L61.8755 47.9148L61.2561 48.9632Z" fill="white"/>
</g>
<path fill-rule="evenodd" clip-rule="evenodd" d="M70.3061 51.3163L69.1617 52.9465L68.0131 51.3163H67.0992L68.6947 53.5047L67.0172 55.797H67.9274L69.1615 54.0703L70.3837 55.797H71.2939L69.6165 53.5047L71.212 51.3163H70.3061Z" fill="white"/>
<path fill-rule="evenodd" clip-rule="evenodd" d="M73.7717 51.9038C74.1056 51.9038 74.3652 52.009 74.5431 52.2163C74.715 52.4166 74.8063 52.7075 74.8145 53.0816H72.6C72.6433 52.7213 72.7629 52.4344 72.9558 52.228C73.1569 52.013 73.4313 51.9038 73.7717 51.9038ZM73.7798 51.2365C73.1662 51.2365 72.6702 51.4526 72.3054 51.8784C71.9432 52.3015 71.7595 52.8781 71.7595 53.5924C71.7595 54.3029 71.9577 54.8671 72.3486 55.2691C72.7403 55.6723 73.2809 55.8767 73.9552 55.8767C74.2597 55.8767 74.5237 55.8541 74.7402 55.8097C74.9565 55.7653 75.1887 55.691 75.4306 55.5891L75.4656 55.5744V54.8614L75.3847 54.8952C74.9236 55.0879 74.4509 55.1855 73.9797 55.1855C73.5418 55.1855 73.1985 55.0575 72.9596 54.8052C72.7285 54.5612 72.6007 54.2006 72.5793 53.7329H75.6573V53.2577C75.6573 52.6565 75.4877 52.1646 75.1532 51.7957C74.8168 51.4246 74.3548 51.2365 73.7798 51.2365Z" fill="white"/>
<path fill-rule="evenodd" clip-rule="evenodd" d="M78.8671 51.2366C78.5524 51.2366 78.2625 51.2981 78.0055 51.4195C77.7781 51.5271 77.5929 51.6752 77.4535 51.8611L77.3531 51.3162H76.6959V55.7969H77.4891V53.4491C77.4891 52.897 77.5943 52.4979 77.8014 52.2627C78.0064 52.0299 78.3376 51.9118 78.7855 51.9118C79.1207 51.9118 79.3684 51.9942 79.5222 52.1565C79.677 52.3204 79.7555 52.5755 79.7555 52.9151V55.7969H80.5488V52.8912C80.5488 52.3199 80.4055 51.8965 80.1229 51.6328C79.8411 51.3699 79.4186 51.2366 78.8671 51.2366Z" fill="white"/>
<path fill-rule="evenodd" clip-rule="evenodd" d="M83.5709 55.2094C83.1818 55.2094 82.8956 55.0777 82.6959 54.8066C82.4948 54.5335 82.3928 54.1198 82.3928 53.5766C82.3928 53.0408 82.4958 52.6218 82.6988 52.3313C82.8999 52.0436 83.1825 51.9038 83.5628 51.9038C84.0041 51.9038 84.3284 52.0298 84.5266 52.2785C84.7283 52.5314 84.8305 52.9654 84.8305 53.5685V53.708C84.8305 54.2392 84.73 54.6272 84.5318 54.8614C84.3363 55.0923 84.013 55.2094 83.5709 55.2094ZM84.8306 51.3202L84.8471 51.6289L84.8651 51.8273C84.5344 51.4351 84.0707 51.2365 83.4853 51.2365C82.8874 51.2365 82.4137 51.4448 82.0773 51.8555C81.744 52.2624 81.5751 52.8388 81.5751 53.5685C81.5751 54.2985 81.7435 54.871 82.0756 55.2699C82.4106 55.6726 82.8849 55.8767 83.4853 55.8767C84.0908 55.8767 84.5604 55.6689 84.8826 55.259L84.9651 55.797H85.6238V49.4832H84.8305L84.8306 51.3202Z" fill="white"/>
<path fill-rule="evenodd" clip-rule="evenodd" d="M87.3445 49.6944C87.2155 49.6944 87.106 49.7351 87.019 49.8155C86.9312 49.8967 86.8867 50.0226 86.8867 50.1894C86.8867 50.3532 86.931 50.4789 87.0182 50.5625C87.1053 50.6461 87.215 50.6885 87.3445 50.6885C87.4681 50.6885 87.5763 50.6463 87.666 50.5633C87.7565 50.4795 87.8023 50.3536 87.8023 50.1894C87.8023 50.0249 87.7564 49.8998 87.6656 49.8172C87.5759 49.7357 87.4679 49.6944 87.3445 49.6944Z" fill="white"/>
<path fill-rule="evenodd" clip-rule="evenodd" d="M86.9438 55.797H87.737V51.3163H86.9438V55.797Z" fill="white"/>
<path fill-rule="evenodd" clip-rule="evenodd" d="M91.1549 55.1399C91.0922 55.1578 91.0054 55.1753 90.8969 55.1921C90.7889 55.2088 90.6753 55.2174 90.5593 55.2174C90.3517 55.2174 90.1937 55.1545 90.0764 55.0252C89.9589 54.8959 89.8992 54.7046 89.8992 54.4572V51.9437H91.1966V51.3163H89.8992V50.3041H89.4064L89.1162 51.2519L88.4655 51.5312V51.9437H89.106V54.4851C89.106 55.4084 89.562 55.8766 90.4613 55.8766C90.5774 55.8766 90.7102 55.865 90.8561 55.8419C91.0058 55.8184 91.1171 55.7888 91.1963 55.7515L91.2292 55.7361V55.1187L91.1549 55.1399Z" fill="white"/>
<rect x="53.5564" y="67.3919" width="20.3078" height="7.55638" rx="3.77819" fill="#7D9DFF"/>
<rect x="69.1414" y="91.4778" width="38.2542" height="7.55638" rx="3.77819" fill="#7D9DFF"/>
<rect x="69.1414" y="110.369" width="38.2542" height="7.55638" rx="3.77819" fill="#7D9DFF"/>
<rect x="69.1414" y="129.26" width="38.2542" height="7.55638" rx="3.77819" fill="#7D9DFF"/>
<rect x="69.1414" y="148.151" width="38.2542" height="7.55638" rx="3.77819" fill="#7D9DFF"/>
<rect x="69.1414" y="204.823" width="38.2542" height="7.55638" rx="3.77819" fill="#7D9DFF"/>
<rect x="69.1414" y="223.714" width="38.2542" height="7.55638" rx="3.77819" fill="#7D9DFF"/>
<rect x="69.1414" y="242.605" width="38.2542" height="7.55638" rx="3.77819" fill="#7D9DFF"/>
<rect x="69.1414" y="167.042" width="38.2542" height="7.55638" rx="3.77819" fill="#7D9DFF"/>
<rect x="69.1414" y="185.933" width="42.9769" height="7.55638" rx="3.77819" fill="#B5C7FF"/>
<rect x="113.535" y="67.3919" width="7.55638" height="7.55638" rx="3.77819" fill="#7D9DFF"/>
<rect x="53.5564" y="91.4778" width="7.55638" height="7.55638" rx="3.77819" fill="#7D9DFF"/>
<rect x="53.5564" y="110.369" width="7.55638" height="7.55638" rx="3.77819" fill="#7D9DFF"/>
<rect x="53.5564" y="129.26" width="7.55638" height="7.55638" rx="3.77819" fill="#7D9DFF"/>
<rect x="53.5564" y="148.151" width="7.55638" height="7.55638" rx="3.77819" fill="#7D9DFF"/>
<rect x="53.5564" y="204.823" width="7.55638" height="7.55638" rx="3.77819" fill="#7D9DFF"/>
<rect x="53.5564" y="223.714" width="7.55638" height="7.55638" rx="3.77819" fill="#7D9DFF"/>
<rect x="53.5564" y="242.605" width="7.55638" height="7.55638" rx="3.77819" fill="#7D9DFF"/>
</g>
</g>
<defs>
<filter id="filter0_d" x="2" y="0" width="599" height="409.146" filterUnits="userSpaceOnUse" color-interpolation-filters="sRGB">
<feFlood flood-opacity="0" result="BackgroundImageFix"/>
<feColorMatrix in="SourceAlpha" type="matrix" values="0 0 0 0 0 0 0 0 0 0 0 0 0 0 0 0 0 0 127 0"/>
<feOffset dy="4"/>
<feGaussianBlur stdDeviation="22"/>
<feColorMatrix type="matrix" values="0 0 0 0 0 0 0 0 0 0 0 0 0 0 0 0 0 0 0.15 0"/>
<feBlend mode="normal" in2="BackgroundImageFix" result="effect1_dropShadow"/>
<feBlend mode="normal" in="SourceGraphic" in2="effect1_dropShadow" result="shape"/>
</filter>
<filter id="filter1_d" x="139.761" y="131.038" width="406.127" height="222.884" filterUnits="userSpaceOnUse" color-interpolation-filters="sRGB">
<feFlood flood-opacity="0" result="BackgroundImageFix"/>
<feColorMatrix in="SourceAlpha" type="matrix" values="0 0 0 0 0 0 0 0 0 0 0 0 0 0 0 0 0 0 127 0"/>
<feOffset dy="2"/>
<feGaussianBlur stdDeviation="2"/>
<feColorMatrix type="matrix" values="0 0 0 0 0 0 0 0 0 0 0 0 0 0 0 0 0 0 0.08 0"/>
<feBlend mode="normal" in2="BackgroundImageFix" result="effect1_dropShadow"/>
<feBlend mode="normal" in="SourceGraphic" in2="effect1_dropShadow" result="shape"/>
</filter>
<filter id="filter2_d" x="139.761" y="79.5601" width="406.127" height="51.9214" filterUnits="userSpaceOnUse" color-interpolation-filters="sRGB">
<feFlood flood-opacity="0" result="BackgroundImageFix"/>
<feColorMatrix in="SourceAlpha" type="matrix" values="0 0 0 0 0 0 0 0 0 0 0 0 0 0 0 0 0 0 127 0"/>
<feOffset dy="2"/>
<feGaussianBlur stdDeviation="2"/>
<feColorMatrix type="matrix" values="0 0 0 0 0 0 0 0 0 0 0 0 0 0 0 0 0 0 0.08 0"/>
<feBlend mode="normal" in2="BackgroundImageFix" result="effect1_dropShadow"/>
<feBlend mode="normal" in="SourceGraphic" in2="effect1_dropShadow" result="shape"/>
</filter>
<filter id="filter3_d" x="124.648" y="38" width="436.352" height="34.4473" filterUnits="userSpaceOnUse" color-interpolation-filters="sRGB">
<feFlood flood-opacity="0" result="BackgroundImageFix"/>
<feColorMatrix in="SourceAlpha" type="matrix" values="0 0 0 0 0 0 0 0 0 0 0 0 0 0 0 0 0 0 127 0"/>
<feOffset dy="2"/>
<feGaussianBlur stdDeviation="2"/>
<feColorMatrix type="matrix" values="0 0 0 0 0 0 0 0 0 0 0 0 0 0 0 0 0 0 0.08 0"/>
<feBlend mode="normal" in2="BackgroundImageFix" result="effect1_dropShadow"/>
<feBlend mode="normal" in="SourceGraphic" in2="effect1_dropShadow" result="shape"/>
</filter>
<filter id="filter4_d" x="518.996" y="43.6673" width="23.1128" height="23.1128" filterUnits="userSpaceOnUse" color-interpolation-filters="sRGB">
<feFlood flood-opacity="0" result="BackgroundImageFix"/>
<feColorMatrix in="SourceAlpha" type="matrix" values="0 0 0 0 0 0 0 0 0 0 0 0 0 0 0 0 0 0 127 0"/>
<feOffset dy="2"/>
<feGaussianBlur stdDeviation="2"/>
<feColorMatrix type="matrix" values="0 0 0 0 0 0 0 0 0 0 0 0 0 0 0 0 0 0 0.08 0"/>
<feBlend mode="normal" in2="BackgroundImageFix" result="effect1_dropShadow"/>
<feBlend mode="normal" in="SourceGraphic" in2="effect1_dropShadow" result="shape"/>
</filter>
</defs>
</svg>
