<svg width="320" height="218" viewBox="0 0 320 218" fill="none" xmlns="http://www.w3.org/2000/svg">
<mask id="mask0" mask-type="alpha" maskUnits="userSpaceOnUse" x="0" y="0" width="320" height="218">
<rect width="320" height="218" fill="white"/>
</mask>
<g mask="url(#mask0)">
<path d="M0 0H320V218H0V0Z" fill="#FDBB9C"/>
<g filter="url(#filter0_d)">
<rect x="16" y="16" width="428.026" height="269" fill="#F7F7F7"/>
<g filter="url(#filter1_d)">
<rect x="97.8868" y="93.9309" width="333.481" height="179.993" rx="4" fill="white"/>
<rect x="97.8868" y="93.9309" width="333.481" height="179.993" rx="4" stroke="#979797"/>
</g>
<rect x="104.216" y="153.665" width="5.93382" height="5.93382" rx="2.96691" fill="#CFCFCF"/>
<rect x="115.293" y="153.665" width="17.8015" height="5.93382" rx="2.96691" fill="#CFCFCF"/>
<rect x="172.257" y="153.665" width="17.0103" height="5.93382" rx="2.96691" fill="#CFCFCF"/>
<rect x="218.937" y="153.665" width="18.5926" height="5.93382" rx="2.96691" fill="#CFCFCF"/>
<rect x="270.363" y="153.665" width="17.8015" height="5.93382" rx="2.96691" fill="#CFCFCF"/>
<rect x="104.216" y="171.466" width="5.93382" height="5.93382" rx="2.96691" fill="#ECECEC"/>
<rect x="115.293" y="171.466" width="30.0647" height="5.93382" rx="2.96691" fill="#ECECEC"/>
<rect x="172.257" y="171.466" width="26.5044" height="5.93382" rx="2.96691" fill="#ECECEC"/>
<rect x="218.937" y="171.466" width="32.4382" height="5.93382" rx="2.96691" fill="#ECECEC"/>
<rect x="270.363" y="171.466" width="23.3397" height="5.93382" rx="2.96691" fill="#ECECEC"/>
<rect x="104.216" y="202.322" width="5.93382" height="5.93382" rx="2.96691" fill="#ECECEC"/>
<rect x="115.293" y="202.322" width="30.0647" height="5.93382" rx="2.96691" fill="#ECECEC"/>
<rect x="172.257" y="202.322" width="26.5044" height="5.93382" rx="2.96691" fill="#ECECEC"/>
<rect x="218.937" y="202.322" width="32.4382" height="5.93382" rx="2.96691" fill="#ECECEC"/>
<rect x="270.363" y="202.322" width="23.3397" height="5.93382" rx="2.96691" fill="#ECECEC"/>
<rect x="104.216" y="186.894" width="5.93382" height="5.93382" rx="2.96691" fill="#ECECEC"/>
<rect x="115.293" y="186.894" width="30.0647" height="5.93382" rx="2.96691" fill="#ECECEC"/>
<rect x="172.257" y="186.894" width="26.5044" height="5.93382" rx="2.96691" fill="#ECECEC"/>
<rect x="218.937" y="186.894" width="32.4382" height="5.93382" rx="2.96691" fill="#ECECEC"/>
<rect x="270.363" y="186.894" width="23.3397" height="5.93382" rx="2.96691" fill="#ECECEC"/>
<rect x="104.216" y="217.75" width="5.93382" height="5.93382" rx="2.96691" fill="#ECECEC"/>
<rect x="115.293" y="217.75" width="30.0647" height="5.93382" rx="2.96691" fill="#ECECEC"/>
<rect x="172.257" y="217.75" width="26.5044" height="5.93382" rx="2.96691" fill="#ECECEC"/>
<rect x="218.937" y="217.75" width="32.4382" height="5.93382" rx="2.96691" fill="#ECECEC"/>
<rect x="270.363" y="217.75" width="23.3397" height="5.93382" rx="2.96691" fill="#ECECEC"/>
<path d="M243.303 108.568L242.851 107.313H241.124L240.682 108.568H239.903L241.594 104.031H242.397L244.088 108.568H243.303ZM242.657 106.676L242.233 105.446C242.202 105.364 242.159 105.234 242.104 105.057C242.05 104.88 242.013 104.75 241.992 104.667C241.937 104.921 241.855 105.198 241.748 105.499L241.34 106.676H242.657Z" fill="#7C7C7C"/>
<path d="M246.341 108.629C245.908 108.629 245.572 108.474 245.333 108.163H245.29C245.319 108.451 245.333 108.626 245.333 108.688V110.088H244.607V105.15H245.194C245.211 105.213 245.245 105.366 245.296 105.607H245.333C245.56 105.261 245.9 105.088 246.353 105.088C246.779 105.088 247.111 105.242 247.348 105.551C247.587 105.86 247.707 106.294 247.707 106.852C247.707 107.411 247.585 107.847 247.342 108.16C247.101 108.473 246.767 108.629 246.341 108.629ZM246.164 105.681C245.876 105.681 245.665 105.766 245.531 105.935C245.399 106.103 245.333 106.373 245.333 106.744V106.852C245.333 107.269 245.399 107.57 245.531 107.758C245.663 107.943 245.878 108.036 246.177 108.036C246.428 108.036 246.622 107.933 246.758 107.727C246.894 107.521 246.962 107.227 246.962 106.846C246.962 106.463 246.894 106.174 246.758 105.978C246.624 105.78 246.426 105.681 246.164 105.681Z" fill="#7C7C7C"/>
<path d="M250.284 108.629C249.851 108.629 249.516 108.474 249.277 108.163H249.233C249.262 108.451 249.277 108.626 249.277 108.688V110.088H248.55V105.15H249.138C249.154 105.213 249.188 105.366 249.24 105.607H249.277C249.503 105.261 249.843 105.088 250.297 105.088C250.723 105.088 251.055 105.242 251.292 105.551C251.531 105.86 251.65 106.294 251.65 106.852C251.65 107.411 251.529 107.847 251.285 108.16C251.044 108.473 250.711 108.629 250.284 108.629ZM250.108 105.681C249.82 105.681 249.608 105.766 249.474 105.935C249.343 106.103 249.277 106.373 249.277 106.744V106.852C249.277 107.269 249.343 107.57 249.474 107.758C249.606 107.943 249.822 108.036 250.12 108.036C250.372 108.036 250.565 107.933 250.701 107.727C250.837 107.521 250.905 107.227 250.905 106.846C250.905 106.463 250.837 106.174 250.701 105.978C250.567 105.78 250.37 105.681 250.108 105.681Z" fill="#7C7C7C"/>
<path d="M254.228 105.088C254.374 105.088 254.494 105.098 254.589 105.119L254.518 105.795C254.415 105.771 254.308 105.758 254.197 105.758C253.906 105.758 253.67 105.853 253.489 106.043C253.31 106.232 253.22 106.478 253.22 106.781V108.568H252.494V105.15H253.063L253.158 105.752H253.195C253.309 105.548 253.456 105.386 253.637 105.267C253.821 105.147 254.018 105.088 254.228 105.088Z" fill="#7C7C7C"/>
<path d="M258.258 106.852C258.258 107.411 258.115 107.847 257.828 108.16C257.542 108.473 257.143 108.629 256.632 108.629C256.313 108.629 256.03 108.557 255.785 108.413C255.54 108.269 255.352 108.062 255.22 107.792C255.088 107.522 255.022 107.209 255.022 106.852C255.022 106.298 255.164 105.866 255.448 105.554C255.733 105.243 256.134 105.088 256.651 105.088C257.145 105.088 257.537 105.247 257.825 105.567C258.114 105.884 258.258 106.313 258.258 106.852ZM255.77 106.852C255.77 107.642 256.061 108.036 256.644 108.036C257.221 108.036 257.51 107.642 257.51 106.852C257.51 106.072 257.219 105.681 256.638 105.681C256.333 105.681 256.112 105.782 255.974 105.984C255.838 106.186 255.77 106.475 255.77 106.852Z" fill="#7C7C7C"/>
<path d="M259.874 108.568L258.576 105.15H259.343L260.038 107.137C260.157 107.471 260.229 107.74 260.254 107.946H260.279C260.297 107.798 260.37 107.528 260.495 107.137L261.191 105.15H261.963L260.659 108.568H259.874Z" fill="#7C7C7C"/>
<path d="M263.975 108.629C263.444 108.629 263.027 108.475 262.727 108.166C262.428 107.855 262.279 107.427 262.279 106.883C262.279 106.325 262.418 105.886 262.696 105.567C262.974 105.247 263.356 105.088 263.842 105.088C264.294 105.088 264.65 105.225 264.912 105.499C265.173 105.773 265.304 106.15 265.304 106.63V107.022H263.026C263.037 107.354 263.126 107.61 263.295 107.789C263.464 107.966 263.702 108.055 264.009 108.055C264.211 108.055 264.399 108.036 264.572 107.999C264.747 107.96 264.934 107.896 265.134 107.807V108.398C264.957 108.482 264.778 108.542 264.596 108.577C264.415 108.612 264.208 108.629 263.975 108.629ZM263.842 105.638C263.612 105.638 263.426 105.711 263.286 105.857C263.148 106.004 263.066 106.217 263.039 106.497H264.59C264.586 106.215 264.518 106.001 264.386 105.857C264.254 105.711 264.073 105.638 263.842 105.638Z" fill="#7C7C7C"/>
<path d="M267.282 108.629C266.856 108.629 266.523 108.475 266.284 108.166C266.045 107.857 265.925 107.423 265.925 106.865C265.925 106.304 266.046 105.869 266.287 105.557C266.53 105.244 266.866 105.088 267.294 105.088C267.744 105.088 268.086 105.254 268.321 105.585H268.358C268.323 105.34 268.305 105.146 268.305 105.004V103.759H269.034V108.568H268.466L268.339 108.12H268.305C268.072 108.459 267.731 108.629 267.282 108.629ZM267.477 108.042C267.776 108.042 267.993 107.959 268.129 107.792C268.265 107.623 268.335 107.35 268.339 106.973V106.871C268.339 106.44 268.269 106.134 268.129 105.953C267.989 105.772 267.769 105.681 267.471 105.681C267.215 105.681 267.018 105.785 266.88 105.993C266.742 106.199 266.673 106.494 266.673 106.877C266.673 107.256 266.74 107.546 266.874 107.746C267.008 107.943 267.209 108.042 267.477 108.042Z" fill="#7C7C7C"/>
<path d="M178.201 108.568H177.295L175.073 104.967H175.048L175.064 105.168C175.093 105.551 175.107 105.902 175.107 106.219V108.568H174.436V104.049H175.333L177.548 107.631H177.567C177.563 107.584 177.555 107.412 177.542 107.115C177.53 106.816 177.524 106.584 177.524 106.417V104.049H178.201V108.568Z" fill="#7C7C7C"/>
<path d="M180.809 108.629C180.277 108.629 179.861 108.475 179.56 108.166C179.262 107.855 179.112 107.427 179.112 106.883C179.112 106.325 179.251 105.886 179.529 105.567C179.808 105.247 180.19 105.088 180.676 105.088C181.127 105.088 181.484 105.225 181.745 105.499C182.007 105.773 182.138 106.15 182.138 106.63V107.022H179.86C179.87 107.354 179.96 107.61 180.129 107.789C180.298 107.966 180.536 108.055 180.843 108.055C181.045 108.055 181.232 108.036 181.405 107.999C181.581 107.96 181.768 107.896 181.968 107.807V108.398C181.791 108.482 181.611 108.542 181.43 108.577C181.249 108.612 181.042 108.629 180.809 108.629ZM180.676 105.638C180.445 105.638 180.26 105.711 180.12 105.857C179.982 106.004 179.899 106.217 179.873 106.497H181.424C181.42 106.215 181.352 106.001 181.22 105.857C181.088 105.711 180.907 105.638 180.676 105.638Z" fill="#7C7C7C"/>
<path d="M184.456 108.629C183.924 108.629 183.508 108.475 183.207 108.166C182.908 107.855 182.759 107.427 182.759 106.883C182.759 106.325 182.898 105.886 183.176 105.567C183.454 105.247 183.837 105.088 184.323 105.088C184.774 105.088 185.131 105.225 185.392 105.499C185.654 105.773 185.785 106.15 185.785 106.63V107.022H183.507C183.517 107.354 183.607 107.61 183.776 107.789C183.945 107.966 184.183 108.055 184.49 108.055C184.692 108.055 184.879 108.036 185.052 107.999C185.227 107.96 185.415 107.896 185.615 107.807V108.398C185.438 108.482 185.258 108.542 185.077 108.577C184.896 108.612 184.689 108.629 184.456 108.629ZM184.323 105.638C184.092 105.638 183.907 105.711 183.767 105.857C183.629 106.004 183.546 106.217 183.519 106.497H185.071C185.067 106.215 184.999 106.001 184.867 105.857C184.735 105.711 184.554 105.638 184.323 105.638Z" fill="#7C7C7C"/>
<path d="M187.763 108.629C187.336 108.629 187.003 108.475 186.764 108.166C186.525 107.857 186.406 107.423 186.406 106.865C186.406 106.304 186.526 105.869 186.768 105.557C187.011 105.244 187.346 105.088 187.775 105.088C188.224 105.088 188.566 105.254 188.801 105.585H188.838C188.803 105.34 188.786 105.146 188.786 105.004V103.759H189.515V108.568H188.946L188.82 108.12H188.786C188.553 108.459 188.212 108.629 187.763 108.629ZM187.957 108.042C188.256 108.042 188.473 107.959 188.609 107.792C188.745 107.623 188.816 107.35 188.82 106.973V106.871C188.82 106.44 188.75 106.134 188.609 105.953C188.469 105.772 188.25 105.681 187.951 105.681C187.696 105.681 187.499 105.785 187.361 105.993C187.223 106.199 187.154 106.494 187.154 106.877C187.154 107.256 187.221 107.546 187.355 107.746C187.489 107.943 187.69 108.042 187.957 108.042Z" fill="#7C7C7C"/>
<path d="M192.85 107.594C192.85 107.928 192.728 108.184 192.485 108.364C192.242 108.541 191.894 108.629 191.44 108.629C190.985 108.629 190.619 108.56 190.343 108.422V107.795C190.745 107.98 191.119 108.073 191.465 108.073C191.912 108.073 192.136 107.938 192.136 107.668C192.136 107.582 192.111 107.51 192.062 107.452C192.012 107.394 191.931 107.335 191.817 107.273C191.704 107.211 191.547 107.141 191.345 107.063C190.951 106.91 190.684 106.758 190.544 106.605C190.406 106.453 190.337 106.255 190.337 106.012C190.337 105.719 190.455 105.493 190.689 105.332C190.926 105.169 191.248 105.088 191.654 105.088C192.055 105.088 192.436 105.169 192.794 105.332L192.559 105.879C192.19 105.726 191.88 105.65 191.629 105.65C191.246 105.65 191.054 105.759 191.054 105.978C191.054 106.085 191.104 106.176 191.202 106.25C191.303 106.324 191.522 106.426 191.858 106.556C192.14 106.665 192.345 106.765 192.473 106.856C192.6 106.946 192.695 107.051 192.757 107.171C192.819 107.288 192.85 107.429 192.85 107.594Z" fill="#7C7C7C"/>
<path d="M198.162 108.568L197.711 107.313H195.983L195.542 108.568H194.763L196.453 104.031H197.257L198.947 108.568H198.162ZM197.516 106.676L197.093 105.446C197.062 105.364 197.019 105.234 196.963 105.057C196.91 104.88 196.873 104.75 196.852 104.667C196.796 104.921 196.715 105.198 196.608 105.499L196.2 106.676H197.516Z" fill="#7C7C7C"/>
<path d="M201.2 108.629C200.768 108.629 200.432 108.474 200.193 108.163H200.15C200.178 108.451 200.193 108.626 200.193 108.688V110.088H199.467V105.15H200.054C200.07 105.213 200.104 105.366 200.156 105.607H200.193C200.419 105.261 200.759 105.088 201.213 105.088C201.639 105.088 201.971 105.242 202.208 105.551C202.447 105.86 202.566 106.294 202.566 106.852C202.566 107.411 202.445 107.847 202.202 108.16C201.961 108.473 201.627 108.629 201.2 108.629ZM201.024 105.681C200.736 105.681 200.524 105.766 200.391 105.935C200.259 106.103 200.193 106.373 200.193 106.744V106.852C200.193 107.269 200.259 107.57 200.391 107.758C200.522 107.943 200.738 108.036 201.036 108.036C201.288 108.036 201.482 107.933 201.618 107.727C201.754 107.521 201.821 107.227 201.821 106.846C201.821 106.463 201.754 106.174 201.618 105.978C201.484 105.78 201.286 105.681 201.024 105.681Z" fill="#7C7C7C"/>
<path d="M205.144 108.629C204.711 108.629 204.375 108.474 204.136 108.163H204.093C204.122 108.451 204.136 108.626 204.136 108.688V110.088H203.41V105.15H203.997C204.014 105.213 204.048 105.366 204.099 105.607H204.136C204.363 105.261 204.703 105.088 205.156 105.088C205.583 105.088 205.914 105.242 206.151 105.551C206.39 105.86 206.51 106.294 206.51 106.852C206.51 107.411 206.388 107.847 206.145 108.16C205.904 108.473 205.57 108.629 205.144 108.629ZM204.968 105.681C204.679 105.681 204.468 105.766 204.334 105.935C204.202 106.103 204.136 106.373 204.136 106.744V106.852C204.136 107.269 204.202 107.57 204.334 107.758C204.466 107.943 204.681 108.036 204.98 108.036C205.231 108.036 205.425 107.933 205.561 107.727C205.697 107.521 205.765 107.227 205.765 106.846C205.765 106.463 205.697 106.174 205.561 105.978C205.427 105.78 205.229 105.681 204.968 105.681Z" fill="#7C7C7C"/>
<path d="M209.087 105.088C209.234 105.088 209.354 105.098 209.449 105.119L209.378 105.795C209.275 105.771 209.168 105.758 209.056 105.758C208.766 105.758 208.53 105.853 208.349 106.043C208.169 106.232 208.08 106.478 208.08 106.781V108.568H207.354V105.15H207.922L208.018 105.752H208.055C208.168 105.548 208.316 105.386 208.497 105.267C208.68 105.147 208.877 105.088 209.087 105.088Z" fill="#7C7C7C"/>
<path d="M213.117 106.852C213.117 107.411 212.974 107.847 212.688 108.16C212.401 108.473 212.003 108.629 211.492 108.629C211.172 108.629 210.89 108.557 210.645 108.413C210.4 108.269 210.211 108.062 210.079 107.792C209.948 107.522 209.882 107.209 209.882 106.852C209.882 106.298 210.024 105.866 210.308 105.554C210.592 105.243 210.993 105.088 211.51 105.088C212.005 105.088 212.396 105.247 212.685 105.567C212.973 105.884 213.117 106.313 213.117 106.852ZM210.63 106.852C210.63 107.642 210.921 108.036 211.504 108.036C212.081 108.036 212.369 107.642 212.369 106.852C212.369 106.072 212.079 105.681 211.498 105.681C211.193 105.681 210.972 105.782 210.833 105.984C210.698 106.186 210.63 106.475 210.63 106.852Z" fill="#7C7C7C"/>
<path d="M214.734 108.568L213.436 105.15H214.202L214.898 107.137C215.017 107.471 215.089 107.74 215.114 107.946H215.139C215.157 107.798 215.229 107.528 215.355 107.137L216.05 105.15H216.823L215.519 108.568H214.734Z" fill="#7C7C7C"/>
<path d="M219.481 108.568L219.336 108.092H219.311C219.146 108.3 218.98 108.442 218.813 108.518C218.646 108.592 218.432 108.629 218.17 108.629C217.835 108.629 217.572 108.539 217.382 108.358C217.195 108.176 217.101 107.92 217.101 107.588C217.101 107.236 217.232 106.97 217.494 106.791C217.755 106.611 218.154 106.513 218.69 106.497L219.28 106.478V106.296C219.28 106.078 219.228 105.915 219.125 105.808C219.024 105.699 218.867 105.644 218.653 105.644C218.477 105.644 218.309 105.67 218.149 105.721C217.988 105.773 217.834 105.834 217.685 105.904L217.45 105.384C217.636 105.288 217.839 105.214 218.059 105.165C218.28 105.113 218.488 105.088 218.683 105.088C219.118 105.088 219.446 105.182 219.666 105.372C219.889 105.562 220 105.859 220 106.265V108.568H219.481ZM218.399 108.073C218.663 108.073 218.874 108 219.033 107.854C219.193 107.705 219.274 107.498 219.274 107.233V106.936L218.835 106.954C218.493 106.967 218.244 107.024 218.087 107.127C217.932 107.228 217.855 107.384 217.855 107.594C217.855 107.747 217.901 107.865 217.991 107.95C218.082 108.032 218.218 108.073 218.399 108.073Z" fill="#7C7C7C"/>
<path d="M221.74 108.568H221.014V103.759H221.74V108.568Z" fill="#7C7C7C"/>
<path d="M108.577 108.568H107.671L105.449 104.967H105.425L105.44 105.168C105.469 105.551 105.483 105.902 105.483 106.219V108.568H104.813V104.049H105.709L107.925 107.631H107.943C107.939 107.584 107.931 107.412 107.919 107.115C107.906 106.816 107.9 106.584 107.9 106.417V104.049H108.577V108.568Z" fill="#4573FF"/>
<path d="M111.185 108.629C110.654 108.629 110.238 108.475 109.937 108.166C109.638 107.855 109.489 107.427 109.489 106.883C109.489 106.325 109.628 105.886 109.906 105.567C110.184 105.247 110.566 105.088 111.052 105.088C111.504 105.088 111.86 105.225 112.122 105.499C112.383 105.773 112.514 106.15 112.514 106.63V107.022H110.237C110.247 107.354 110.336 107.61 110.505 107.789C110.674 107.966 110.912 108.055 111.219 108.055C111.421 108.055 111.609 108.036 111.782 107.999C111.957 107.96 112.144 107.896 112.344 107.807V108.398C112.167 108.482 111.988 108.542 111.807 108.577C111.625 108.612 111.418 108.629 111.185 108.629ZM111.052 105.638C110.822 105.638 110.636 105.711 110.496 105.857C110.358 106.004 110.276 106.217 110.249 106.497H111.8C111.796 106.215 111.728 106.001 111.596 105.857C111.465 105.711 111.283 105.638 111.052 105.638Z" fill="#4573FF"/>
<path d="M114.832 108.629C114.301 108.629 113.884 108.475 113.584 108.166C113.285 107.855 113.135 107.427 113.135 106.883C113.135 106.325 113.275 105.886 113.553 105.567C113.831 105.247 114.213 105.088 114.699 105.088C115.151 105.088 115.507 105.225 115.769 105.499C116.03 105.773 116.161 106.15 116.161 106.63V107.022H113.883C113.894 107.354 113.983 107.61 114.152 107.789C114.321 107.966 114.559 108.055 114.866 108.055C115.068 108.055 115.256 108.036 115.429 107.999C115.604 107.96 115.791 107.896 115.991 107.807V108.398C115.814 108.482 115.635 108.542 115.453 108.577C115.272 108.612 115.065 108.629 114.832 108.629ZM114.699 105.638C114.469 105.638 114.283 105.711 114.143 105.857C114.005 106.004 113.923 106.217 113.896 106.497H115.447C115.443 106.215 115.375 106.001 115.243 105.857C115.111 105.711 114.93 105.638 114.699 105.638Z" fill="#4573FF"/>
<path d="M118.139 108.629C117.713 108.629 117.38 108.475 117.141 108.166C116.902 107.857 116.782 107.423 116.782 106.865C116.782 106.304 116.903 105.869 117.144 105.557C117.387 105.244 117.723 105.088 118.151 105.088C118.601 105.088 118.943 105.254 119.177 105.585H119.215C119.18 105.34 119.162 105.146 119.162 105.004V103.759H119.891V108.568H119.323L119.196 108.12H119.162C118.929 108.459 118.588 108.629 118.139 108.629ZM118.334 108.042C118.633 108.042 118.85 107.959 118.986 107.792C119.122 107.623 119.192 107.35 119.196 106.973V106.871C119.196 106.44 119.126 106.134 118.986 105.953C118.846 105.772 118.626 105.681 118.328 105.681C118.072 105.681 117.875 105.785 117.737 105.993C117.599 106.199 117.53 106.494 117.53 106.877C117.53 107.256 117.597 107.546 117.731 107.746C117.865 107.943 118.066 108.042 118.334 108.042Z" fill="#4573FF"/>
<path d="M123.226 107.594C123.226 107.928 123.105 108.184 122.861 108.364C122.618 108.541 122.27 108.629 121.817 108.629C121.361 108.629 120.996 108.56 120.72 108.422V107.795C121.121 107.98 121.495 108.073 121.842 108.073C122.289 108.073 122.512 107.938 122.512 107.668C122.512 107.582 122.487 107.51 122.438 107.452C122.389 107.394 122.307 107.335 122.194 107.273C122.081 107.211 121.923 107.141 121.721 107.063C121.327 106.91 121.061 106.758 120.921 106.605C120.782 106.453 120.713 106.255 120.713 106.012C120.713 105.719 120.831 105.493 121.066 105.332C121.303 105.169 121.624 105.088 122.03 105.088C122.432 105.088 122.812 105.169 123.17 105.332L122.936 105.879C122.567 105.726 122.257 105.65 122.005 105.65C121.622 105.65 121.43 105.759 121.43 105.978C121.43 106.085 121.48 106.176 121.579 106.25C121.68 106.324 121.898 106.426 122.234 106.556C122.516 106.665 122.721 106.765 122.849 106.856C122.977 106.946 123.072 107.051 123.133 107.171C123.195 107.288 123.226 107.429 123.226 107.594Z" fill="#4573FF"/>
<path d="M128.31 104.049H129.076L127.494 108.568H126.715L125.139 104.049H125.899L126.842 106.859C126.891 106.993 126.944 107.166 127 107.378C127.055 107.588 127.091 107.745 127.108 107.848C127.135 107.691 127.176 107.51 127.231 107.304C127.287 107.098 127.332 106.945 127.367 106.846L128.31 104.049Z" fill="#4573FF"/>
<path d="M131.734 108.568L131.589 108.092H131.564C131.4 108.3 131.234 108.442 131.067 108.518C130.9 108.592 130.686 108.629 130.424 108.629C130.088 108.629 129.825 108.539 129.636 108.358C129.448 108.176 129.355 107.92 129.355 107.588C129.355 107.236 129.485 106.97 129.747 106.791C130.009 106.611 130.407 106.513 130.943 106.497L131.533 106.478V106.296C131.533 106.078 131.482 105.915 131.379 105.808C131.278 105.699 131.12 105.644 130.906 105.644C130.731 105.644 130.563 105.67 130.402 105.721C130.242 105.773 130.087 105.834 129.939 105.904L129.704 105.384C129.889 105.288 130.092 105.214 130.313 105.165C130.533 105.113 130.741 105.088 130.937 105.088C131.372 105.088 131.699 105.182 131.92 105.372C132.142 105.562 132.254 105.859 132.254 106.265V108.568H131.734ZM130.653 108.073C130.916 108.073 131.128 108 131.286 107.854C131.447 107.705 131.527 107.498 131.527 107.233V106.936L131.088 106.954C130.746 106.967 130.497 107.024 130.34 107.127C130.186 107.228 130.109 107.384 130.109 107.594C130.109 107.747 130.154 107.865 130.245 107.95C130.335 108.032 130.471 108.073 130.653 108.073Z" fill="#4573FF"/>
<path d="M133.993 108.568H133.267V103.759H133.993V108.568Z" fill="#4573FF"/>
<path d="M135.761 108.568H135.035V105.15H135.761V108.568ZM134.992 104.244C134.992 104.114 135.027 104.014 135.097 103.944C135.169 103.874 135.271 103.839 135.403 103.839C135.531 103.839 135.629 103.874 135.699 103.944C135.772 104.014 135.808 104.114 135.808 104.244C135.808 104.368 135.772 104.465 135.699 104.538C135.629 104.608 135.531 104.643 135.403 104.643C135.271 104.643 135.169 104.608 135.097 104.538C135.027 104.465 134.992 104.368 134.992 104.244Z" fill="#4573FF"/>
<path d="M137.956 108.629C137.529 108.629 137.196 108.475 136.957 108.166C136.718 107.857 136.599 107.423 136.599 106.865C136.599 106.304 136.719 105.869 136.96 105.557C137.204 105.244 137.539 105.088 137.968 105.088C138.417 105.088 138.759 105.254 138.994 105.585H139.031C138.996 105.34 138.979 105.146 138.979 105.004V103.759H139.708V108.568H139.139L139.013 108.12H138.979C138.746 108.459 138.405 108.629 137.956 108.629ZM138.15 108.042C138.449 108.042 138.666 107.959 138.802 107.792C138.938 107.623 139.008 107.35 139.013 106.973V106.871C139.013 106.44 138.942 106.134 138.802 105.953C138.662 105.772 138.443 105.681 138.144 105.681C137.889 105.681 137.692 105.785 137.554 105.993C137.416 106.199 137.347 106.494 137.347 106.877C137.347 107.256 137.414 107.546 137.548 107.746C137.682 107.943 137.882 108.042 138.15 108.042Z" fill="#4573FF"/>
<path d="M142.885 108.568L142.74 108.092H142.715C142.55 108.3 142.384 108.442 142.217 108.518C142.051 108.592 141.836 108.629 141.575 108.629C141.239 108.629 140.976 108.539 140.786 108.358C140.599 108.176 140.505 107.92 140.505 107.588C140.505 107.236 140.636 106.97 140.898 106.791C141.159 106.611 141.558 106.513 142.094 106.497L142.684 106.478V106.296C142.684 106.078 142.633 105.915 142.53 105.808C142.429 105.699 142.271 105.644 142.057 105.644C141.882 105.644 141.714 105.67 141.553 105.721C141.392 105.773 141.238 105.834 141.089 105.904L140.854 105.384C141.04 105.288 141.243 105.214 141.463 105.165C141.684 105.113 141.892 105.088 142.088 105.088C142.522 105.088 142.85 105.182 143.07 105.372C143.293 105.562 143.404 105.859 143.404 106.265V108.568H142.885ZM141.803 108.073C142.067 108.073 142.278 108 142.437 107.854C142.598 107.705 142.678 107.498 142.678 107.233V106.936L142.239 106.954C141.897 106.967 141.648 107.024 141.491 107.127C141.337 107.228 141.259 107.384 141.259 107.594C141.259 107.747 141.305 107.865 141.395 107.95C141.486 108.032 141.622 108.073 141.803 108.073Z" fill="#4573FF"/>
<path d="M145.691 108.042C145.868 108.042 146.046 108.014 146.223 107.959V108.506C146.142 108.541 146.038 108.57 145.911 108.592C145.785 108.617 145.654 108.629 145.518 108.629C144.83 108.629 144.486 108.267 144.486 107.542V105.7H144.019V105.378L144.52 105.112L144.767 104.389H145.215V105.15H146.189V105.7H145.215V107.529C145.215 107.704 145.258 107.834 145.345 107.919C145.434 108.001 145.549 108.042 145.691 108.042Z" fill="#4573FF"/>
<path d="M147.635 108.568H146.909V105.15H147.635V108.568ZM146.866 104.244C146.866 104.114 146.901 104.014 146.971 103.944C147.043 103.874 147.145 103.839 147.277 103.839C147.404 103.839 147.503 103.874 147.573 103.944C147.645 104.014 147.681 104.114 147.681 104.244C147.681 104.368 147.645 104.465 147.573 104.538C147.503 104.608 147.404 104.643 147.277 104.643C147.145 104.643 147.043 104.608 146.971 104.538C146.901 104.465 146.866 104.368 146.866 104.244Z" fill="#4573FF"/>
<path d="M151.708 106.852C151.708 107.411 151.565 107.847 151.279 108.16C150.992 108.473 150.594 108.629 150.083 108.629C149.763 108.629 149.481 108.557 149.236 108.413C148.991 108.269 148.802 108.062 148.67 107.792C148.539 107.522 148.473 107.209 148.473 106.852C148.473 106.298 148.615 105.866 148.899 105.554C149.183 105.243 149.584 105.088 150.101 105.088C150.596 105.088 150.987 105.247 151.276 105.567C151.564 105.884 151.708 106.313 151.708 106.852ZM149.221 106.852C149.221 107.642 149.512 108.036 150.095 108.036C150.672 108.036 150.961 107.642 150.961 106.852C150.961 106.072 150.67 105.681 150.089 105.681C149.784 105.681 149.563 105.782 149.425 105.984C149.289 106.186 149.221 106.475 149.221 106.852Z" fill="#4573FF"/>
<path d="M155.553 108.568H154.824V106.466C154.824 106.202 154.77 106.006 154.663 105.876C154.558 105.746 154.39 105.681 154.159 105.681C153.852 105.681 153.628 105.772 153.485 105.953C153.343 106.134 153.272 106.438 153.272 106.865V108.568H152.546V105.15H153.115L153.217 105.598H153.254C153.357 105.435 153.503 105.309 153.693 105.221C153.882 105.132 154.092 105.088 154.323 105.088C155.143 105.088 155.553 105.505 155.553 106.339V108.568Z" fill="#4573FF"/>
<rect x="104.216" y="112.919" width="51.8221" height="2.37353" rx="1.18676" fill="#4573FF"/>
<rect x="97.9857" y="147.039" width="333.283" height="0.197794" rx="0.0988971" fill="white" stroke="#DFDFDF" stroke-width="0.197794"/>
<rect x="97.9857" y="120.139" width="333.283" height="0.197794" rx="0.0988971" fill="white" stroke="#DFDFDF" stroke-width="0.197794"/>
<rect x="149.813" y="127.66" width="38.9544" height="12.45" rx="3.5" fill="white" stroke="#CFCFCF"/>
<rect x="199.262" y="127.66" width="38.9544" height="12.45" rx="3.5" fill="white" stroke="#CFCFCF"/>
<rect x="203.113" y="130.721" width="24.5265" height="5.93382" rx="2.96691" fill="#ECECEC"/>
<rect x="153.665" y="130.721" width="24.5265" height="5.93382" rx="2.96691" fill="#ECECEC"/>
<path d="M192.503 141.09V139.918H195.515V141.09H192.503Z" fill="#CFCFCF"/>
<rect x="104.716" y="127.66" width="37.7676" height="12.45" rx="3.5" fill="white" stroke="#CFCFCF"/>
<rect x="108.568" y="131.512" width="24.5265" height="5.93382" rx="2.96691" fill="#ECECEC"/>
<path d="M136.537 133.802L137.446 134.71L138.354 133.802L138.632 134.08L137.446 135.267L136.259 134.08L136.537 133.802Z" fill="#CFCFCF"/>
<rect x="245.546" y="127.66" width="69.8103" height="12.45" rx="3.5" fill="white" stroke="#CFCFCF"/>
<path fill-rule="evenodd" clip-rule="evenodd" d="M252.404 134.198H252.625L254.023 135.599L253.606 136.017L252.205 134.619V134.397L252.129 134.319C251.81 134.593 251.395 134.759 250.944 134.759C249.938 134.759 249.122 133.943 249.122 132.937C249.122 131.931 249.938 131.116 250.944 131.116C251.95 131.116 252.765 131.931 252.765 132.937C252.765 133.389 252.6 133.803 252.325 134.123L252.404 134.198ZM249.683 132.937C249.683 133.635 250.246 134.198 250.944 134.198C251.641 134.198 252.205 133.635 252.205 132.937C252.205 132.24 251.641 131.677 250.944 131.677C250.246 131.677 249.683 132.24 249.683 132.937Z" fill="#B1B1B1"/>
<path d="M232.585 133.289H232.186V133.687H232.585V133.289ZM233.373 133.289H232.983V133.687H233.373V133.289ZM234.17 133.289H233.771V133.687H234.17V133.289ZM234.559 131.907H234.365V131.509H233.966V131.907H232.39V131.509H231.991V131.907H231.797C231.679 131.907 231.583 131.948 231.509 132.028C231.435 132.102 231.398 132.195 231.398 132.306V135.069C231.398 135.18 231.435 135.276 231.509 135.356C231.589 135.431 231.685 135.468 231.797 135.468H234.559C234.671 135.468 234.763 135.431 234.838 135.356C234.918 135.276 234.958 135.18 234.958 135.069V132.306C234.958 132.195 234.918 132.102 234.838 132.028C234.763 131.948 234.671 131.907 234.559 131.907ZM234.559 135.069H231.797V132.899H234.559V135.069Z" fill="#CFCFCF"/>
<path d="M183.136 133.289H182.737V133.687H183.136V133.289ZM183.924 133.289H183.535V133.687H183.924V133.289ZM184.722 133.289H184.323V133.687H184.722V133.289ZM185.111 131.907H184.916V131.509H184.518V131.907H182.941V131.509H182.543V131.907H182.348C182.231 131.907 182.135 131.948 182.061 132.028C181.986 132.102 181.949 132.195 181.949 132.306V135.069C181.949 135.18 181.986 135.276 182.061 135.356C182.141 135.431 182.237 135.468 182.348 135.468H185.111C185.222 135.468 185.315 135.431 185.389 135.356C185.469 135.276 185.51 135.18 185.51 135.069V132.306C185.51 132.195 185.469 132.102 185.389 132.028C185.315 131.948 185.222 131.907 185.111 131.907ZM185.111 135.069H182.348V132.899H185.111V135.069Z" fill="#CFCFCF"/>
<rect x="104.315" y="166.027" width="320.624" height="0.197794" rx="0.0988971" fill="white" stroke="#DFDFDF" stroke-width="0.197794"/>
<g filter="url(#filter2_d)">
<rect x="97.8868" y="50.8118" width="333.481" height="36.7897" rx="4" fill="white"/>
</g>
<path d="M105.111 78.1073V71.3298H106.219V78.1073H105.111Z" fill="#777777"/>
<path d="M113.525 74.6536C113.525 75.7724 113.214 76.6285 112.593 77.2219C111.972 77.8122 111.077 78.1073 109.909 78.1073H108.013V71.3298H110.108C111.187 71.3298 112.026 71.6203 112.626 72.2013C113.225 72.7823 113.525 73.5998 113.525 74.6536ZM112.357 74.6907C112.357 73.0682 111.598 72.2569 110.08 72.2569H109.121V77.1755H109.909C111.541 77.1755 112.357 76.3472 112.357 74.6907Z" fill="#777777"/>
<path d="M116.093 74.4821H116.863C117.379 74.4821 117.753 74.3863 117.985 74.1947C118.216 74.0031 118.332 73.7188 118.332 73.3417C118.332 72.9585 118.207 72.6834 117.957 72.5165C117.706 72.3496 117.329 72.2662 116.826 72.2662H116.093V74.4821ZM116.093 75.4V78.1073H114.985V71.3298H116.9C117.774 71.3298 118.422 71.4936 118.842 71.8212C119.262 72.1488 119.473 72.6432 119.473 73.3046C119.473 74.1483 119.034 74.7494 118.156 75.1079L120.071 78.1073H118.81L117.187 75.4H116.093Z" fill="#777777"/>
<path d="M129.852 72.8874C129.852 73.317 129.727 73.6755 129.477 73.9629C129.226 74.2472 128.874 74.4388 128.42 74.5377V74.5748C128.964 74.6428 129.372 74.8128 129.644 75.0848C129.916 75.3536 130.052 75.7121 130.052 76.1603C130.052 76.8124 129.821 77.3161 129.361 77.6715C128.9 78.0239 128.245 78.2 127.395 78.2C126.644 78.2 126.011 78.0779 125.495 77.8338V76.8649C125.782 77.0071 126.086 77.1168 126.408 77.1941C126.729 77.2713 127.038 77.3099 127.335 77.3099C127.86 77.3099 128.253 77.2126 128.512 77.0179C128.772 76.8232 128.902 76.5219 128.902 76.1139C128.902 75.7523 128.758 75.4865 128.471 75.3166C128.183 75.1466 127.732 75.0616 127.117 75.0616H126.528V74.1761H127.126C128.208 74.1761 128.749 73.8022 128.749 73.0543C128.749 72.7638 128.655 72.5397 128.466 72.3821C128.278 72.2245 127.999 72.1457 127.632 72.1457C127.375 72.1457 127.128 72.1828 126.89 72.2569C126.652 72.328 126.371 72.4686 126.046 72.6788L125.513 71.9185C126.134 71.4611 126.856 71.2324 127.678 71.2324C128.361 71.2324 128.894 71.3792 129.277 71.6728C129.661 71.9664 129.852 72.3713 129.852 72.8874Z" fill="#777777"/>
<path d="M133.236 73.8748C133.919 73.8748 134.46 74.0556 134.859 74.4172C135.258 74.7788 135.457 75.2717 135.457 75.896C135.457 76.6192 135.23 77.1848 134.775 77.5927C134.324 77.9976 133.681 78.2 132.847 78.2C132.09 78.2 131.495 78.0779 131.062 77.8338V76.8464C131.312 76.9885 131.6 77.0982 131.924 77.1755C132.249 77.2528 132.55 77.2914 132.828 77.2914C133.32 77.2914 133.694 77.1817 133.95 76.9623C134.207 76.7428 134.335 76.4214 134.335 75.998C134.335 75.1883 133.819 74.7834 132.787 74.7834C132.641 74.7834 132.462 74.7989 132.249 74.8298C132.036 74.8576 131.849 74.8901 131.688 74.9271L131.201 74.6397L131.461 71.3298H134.984V72.2987H132.42L132.267 73.9768C132.376 73.9583 132.507 73.9366 132.661 73.9119C132.819 73.8872 133.011 73.8748 133.236 73.8748Z" fill="#777777"/>
<path d="M140.955 74.7185C140.955 75.896 140.765 76.7707 140.385 77.3424C140.008 77.9141 139.43 78.2 138.651 78.2C137.897 78.2 137.325 77.9049 136.936 77.3146C136.546 76.7243 136.352 75.8589 136.352 74.7185C136.352 73.5225 136.54 72.6417 136.917 72.0761C137.297 71.5075 137.875 71.2231 138.651 71.2231C139.408 71.2231 139.981 71.5198 140.371 72.1132C140.76 72.7066 140.955 73.575 140.955 74.7185ZM137.455 74.7185C137.455 75.6426 137.549 76.3024 137.738 76.698C137.929 77.0936 138.234 77.2914 138.651 77.2914C139.068 77.2914 139.373 77.0905 139.564 76.6888C139.759 76.287 139.856 75.6302 139.856 74.7185C139.856 73.8099 139.759 73.1532 139.564 72.7483C139.373 72.3404 139.068 72.1364 138.651 72.1364C138.234 72.1364 137.929 72.3357 137.738 72.7344C137.549 73.1331 137.455 73.7945 137.455 74.7185Z" fill="#777777"/>
<path d="M141.984 77.5278C141.984 77.3022 142.043 77.1292 142.16 77.0086C142.278 76.8881 142.448 76.8278 142.67 76.8278C142.896 76.8278 143.067 76.8912 143.185 77.0179C143.302 77.1415 143.361 77.3115 143.361 77.5278C143.361 77.7473 143.301 77.9219 143.18 78.0517C143.063 78.1784 142.893 78.2417 142.67 78.2417C142.448 78.2417 142.278 78.1784 142.16 78.0517C142.043 77.925 141.984 77.7504 141.984 77.5278Z" fill="#777777"/>
<path d="M148.993 74.7185C148.993 75.896 148.803 76.7707 148.423 77.3424C148.046 77.9141 147.468 78.2 146.689 78.2C145.935 78.2 145.364 77.9049 144.974 77.3146C144.585 76.7243 144.39 75.8589 144.39 74.7185C144.39 73.5225 144.579 72.6417 144.956 72.0761C145.336 71.5075 145.914 71.2231 146.689 71.2231C147.447 71.2231 148.02 71.5198 148.409 72.1132C148.799 72.7066 148.993 73.575 148.993 74.7185ZM145.493 74.7185C145.493 75.6426 145.588 76.3024 145.776 76.698C145.968 77.0936 146.272 77.2914 146.689 77.2914C147.107 77.2914 147.411 77.0905 147.603 76.6888C147.797 76.287 147.895 75.6302 147.895 74.7185C147.895 73.8099 147.797 73.1532 147.603 72.7483C147.411 72.3404 147.107 72.1364 146.689 72.1364C146.272 72.1364 145.968 72.3357 145.776 72.7344C145.588 73.1331 145.493 73.7945 145.493 74.7185Z" fill="#777777"/>
<path d="M154.417 74.7185C154.417 75.896 154.227 76.7707 153.847 77.3424C153.47 77.9141 152.892 78.2 152.113 78.2C151.359 78.2 150.787 77.9049 150.398 77.3146C150.009 76.7243 149.814 75.8589 149.814 74.7185C149.814 73.5225 150.002 72.6417 150.379 72.0761C150.76 71.5075 151.338 71.2231 152.113 71.2231C152.87 71.2231 153.444 71.5198 153.833 72.1132C154.223 72.7066 154.417 73.575 154.417 74.7185ZM150.917 74.7185C150.917 75.6426 151.012 76.3024 151.2 76.698C151.392 77.0936 151.696 77.2914 152.113 77.2914C152.53 77.2914 152.835 77.0905 153.027 76.6888C153.221 76.287 153.319 75.6302 153.319 74.7185C153.319 73.8099 153.221 73.1532 153.027 72.7483C152.835 72.3404 152.53 72.1364 152.113 72.1364C151.696 72.1364 151.392 72.3357 151.2 72.7344C151.012 73.1331 150.917 73.7945 150.917 74.7185Z" fill="#777777"/>
<path d="M159.841 74.7185C159.841 75.896 159.651 76.7707 159.271 77.3424C158.894 77.9141 158.316 78.2 157.537 78.2C156.783 78.2 156.211 77.9049 155.822 77.3146C155.433 76.7243 155.238 75.8589 155.238 74.7185C155.238 73.5225 155.426 72.6417 155.803 72.0761C156.184 71.5075 156.761 71.2231 157.537 71.2231C158.294 71.2231 158.868 71.5198 159.257 72.1132C159.646 72.7066 159.841 73.575 159.841 74.7185ZM156.341 74.7185C156.341 75.6426 156.435 76.3024 156.624 76.698C156.816 77.0936 157.12 77.2914 157.537 77.2914C157.954 77.2914 158.259 77.0905 158.45 76.6888C158.645 76.287 158.742 75.6302 158.742 74.7185C158.742 73.8099 158.645 73.1532 158.45 72.7483C158.259 72.3404 157.954 72.1364 157.537 72.1364C157.12 72.1364 156.816 72.3357 156.624 72.7344C156.435 73.1331 156.341 73.7945 156.341 74.7185Z" fill="#777777"/>
<path d="M160.87 77.5278C160.87 77.3022 160.929 77.1292 161.046 77.0086C161.164 76.8881 161.334 76.8278 161.556 76.8278C161.782 76.8278 161.954 76.8912 162.071 77.0179C162.188 77.1415 162.247 77.3115 162.247 77.5278C162.247 77.7473 162.187 77.9219 162.066 78.0517C161.949 78.1784 161.779 78.2417 161.556 78.2417C161.334 78.2417 161.164 78.1784 161.046 78.0517C160.929 77.925 160.87 77.7504 160.87 77.5278Z" fill="#777777"/>
<path d="M167.88 74.7185C167.88 75.896 167.69 76.7707 167.309 77.3424C166.932 77.9141 166.354 78.2 165.576 78.2C164.822 78.2 164.25 77.9049 163.86 77.3146C163.471 76.7243 163.276 75.8589 163.276 74.7185C163.276 73.5225 163.465 72.6417 163.842 72.0761C164.222 71.5075 164.8 71.2231 165.576 71.2231C166.333 71.2231 166.906 71.5198 167.296 72.1132C167.685 72.7066 167.88 73.575 167.88 74.7185ZM164.38 74.7185C164.38 75.6426 164.474 76.3024 164.662 76.698C164.854 77.0936 165.158 77.2914 165.576 77.2914C165.993 77.2914 166.297 77.0905 166.489 76.6888C166.684 76.287 166.781 75.6302 166.781 74.7185C166.781 73.8099 166.684 73.1532 166.489 72.7483C166.297 72.3404 165.993 72.1364 165.576 72.1364C165.158 72.1364 164.854 72.3357 164.662 72.7344C164.474 73.1331 164.38 73.7945 164.38 74.7185Z" fill="#777777"/>
<path d="M173.304 74.7185C173.304 75.896 173.113 76.7707 172.733 77.3424C172.356 77.9141 171.778 78.2 171 78.2C170.245 78.2 169.674 77.9049 169.284 77.3146C168.895 76.7243 168.7 75.8589 168.7 74.7185C168.7 73.5225 168.889 72.6417 169.266 72.0761C169.646 71.5075 170.224 71.2231 171 71.2231C171.757 71.2231 172.33 71.5198 172.719 72.1132C173.109 72.7066 173.304 73.575 173.304 74.7185ZM169.803 74.7185C169.803 75.6426 169.898 76.3024 170.086 76.698C170.278 77.0936 170.582 77.2914 171 77.2914C171.417 77.2914 171.721 77.0905 171.913 76.6888C172.107 76.287 172.205 75.6302 172.205 74.7185C172.205 73.8099 172.107 73.1532 171.913 72.7483C171.721 72.3404 171.417 72.1364 171 72.1364C170.582 72.1364 170.278 72.3357 170.086 72.7344C169.898 73.1331 169.803 73.7945 169.803 74.7185Z" fill="#777777"/>
<path d="M178.727 74.7185C178.727 75.896 178.537 76.7707 178.157 77.3424C177.78 77.9141 177.202 78.2 176.423 78.2C175.669 78.2 175.098 77.9049 174.708 77.3146C174.319 76.7243 174.124 75.8589 174.124 74.7185C174.124 73.5225 174.313 72.6417 174.69 72.0761C175.07 71.5075 175.648 71.2231 176.423 71.2231C177.181 71.2231 177.754 71.5198 178.143 72.1132C178.533 72.7066 178.727 73.575 178.727 74.7185ZM175.227 74.7185C175.227 75.6426 175.322 76.3024 175.51 76.698C175.702 77.0936 176.006 77.2914 176.423 77.2914C176.841 77.2914 177.145 77.0905 177.337 76.6888C177.531 76.287 177.629 75.6302 177.629 74.7185C177.629 73.8099 177.531 73.1532 177.337 72.7483C177.145 72.3404 176.841 72.1364 176.423 72.1364C176.006 72.1364 175.702 72.3357 175.51 72.7344C175.322 73.1331 175.227 73.7945 175.227 74.7185Z" fill="#777777"/>
<path d="M106.089 61.4091L107.158 59.3478H107.962L106.457 62.1138V63.8661H105.715V62.1385L104.216 59.3478H105.02L106.089 61.4091Z" fill="#9B9B9B"/>
<path d="M111.513 62.1509C111.513 62.7092 111.37 63.145 111.083 63.4582C110.797 63.7713 110.398 63.9279 109.887 63.9279C109.568 63.9279 109.286 63.8558 109.041 63.7116C108.795 63.5674 108.607 63.3603 108.475 63.0904C108.343 62.8205 108.277 62.5073 108.277 62.1509C108.277 61.5966 108.419 61.164 108.704 60.8529C108.988 60.5417 109.389 60.3862 109.906 60.3862C110.4 60.3862 110.792 60.5459 111.08 60.8652C111.369 61.1825 111.513 61.6111 111.513 62.1509ZM109.025 62.1509C109.025 62.94 109.317 63.3345 109.9 63.3345C110.477 63.3345 110.765 62.94 110.765 62.1509C110.765 61.37 110.475 60.9796 109.894 60.9796C109.589 60.9796 109.367 61.0805 109.229 61.2824C109.093 61.4843 109.025 61.7738 109.025 62.1509Z" fill="#9B9B9B"/>
<path d="M114.761 63.8661L114.659 63.418H114.622C114.521 63.5766 114.377 63.7013 114.189 63.7919C114.004 63.8826 113.792 63.9279 113.553 63.9279C113.139 63.9279 112.83 63.8249 112.626 63.6189C112.422 63.4128 112.32 63.1007 112.32 62.6824V60.448H113.052V62.5557C113.052 62.8174 113.106 63.0142 113.213 63.146C113.32 63.2758 113.488 63.3407 113.717 63.3407C114.021 63.3407 114.245 63.2501 114.387 63.0688C114.531 62.8854 114.604 62.5794 114.604 62.1509V60.448H115.333V63.8661H114.761Z" fill="#9B9B9B"/>
<path d="M118.102 60.3862C118.248 60.3862 118.369 60.3965 118.464 60.4171L118.393 61.0939C118.289 61.0692 118.182 61.0568 118.071 61.0568C117.781 61.0568 117.545 61.1516 117.363 61.3412C117.184 61.5307 117.094 61.7769 117.094 62.0798V63.8661H116.368V60.448H116.937L117.033 61.0506H117.07C117.183 60.8467 117.33 60.6849 117.512 60.5654C117.695 60.4459 117.892 60.3862 118.102 60.3862Z" fill="#9B9B9B"/>
<path d="M122.744 59.9164C122.32 59.9164 121.986 60.0668 121.743 60.3676C121.5 60.6684 121.378 61.0836 121.378 61.6131C121.378 62.1674 121.494 62.5866 121.727 62.871C121.962 63.1553 122.301 63.2975 122.744 63.2975C122.936 63.2975 123.121 63.2789 123.3 63.2418C123.48 63.2027 123.666 63.1532 123.86 63.0935V63.727C123.505 63.861 123.104 63.9279 122.654 63.9279C121.993 63.9279 121.485 63.7281 121.131 63.3284C120.776 62.9266 120.599 62.3528 120.599 61.6069C120.599 61.1372 120.685 60.7261 120.856 60.3738C121.029 60.0215 121.278 59.7516 121.604 59.5641C121.929 59.3766 122.311 59.2829 122.75 59.2829C123.212 59.2829 123.638 59.3797 124.03 59.5734L123.764 60.1884C123.611 60.1163 123.45 60.0534 123.279 59.9999C123.11 59.9442 122.931 59.9164 122.744 59.9164Z" fill="#9B9B9B"/>
<path d="M126.895 63.8661L126.749 63.3902H126.725C126.56 63.5983 126.394 63.7404 126.227 63.8167C126.06 63.8908 125.846 63.9279 125.584 63.9279C125.248 63.9279 124.986 63.8373 124.796 63.656C124.609 63.4747 124.515 63.2181 124.515 62.8864C124.515 62.5341 124.646 62.2683 124.907 62.0891C125.169 61.9098 125.568 61.8119 126.103 61.7955L126.694 61.7769V61.5946C126.694 61.3762 126.642 61.2134 126.539 61.1063C126.438 60.9971 126.281 60.9425 126.066 60.9425C125.891 60.9425 125.723 60.9682 125.563 61.0197C125.402 61.0712 125.247 61.132 125.099 61.2021L124.864 60.6829C125.05 60.586 125.252 60.5129 125.473 60.4634C125.693 60.4119 125.901 60.3862 126.097 60.3862C126.532 60.3862 126.86 60.481 127.08 60.6705C127.303 60.8601 127.414 61.1578 127.414 61.5637V63.8661H126.895ZM125.813 63.3716C126.077 63.3716 126.288 63.2985 126.446 63.1522C126.607 63.0039 126.687 62.7968 126.687 62.531V62.2343L126.249 62.2529C125.907 62.2652 125.657 62.3229 125.501 62.4259C125.346 62.5269 125.269 62.6824 125.269 62.8926C125.269 63.0451 125.314 63.1635 125.405 63.248C125.496 63.3304 125.632 63.3716 125.813 63.3716Z" fill="#9B9B9B"/>
<path d="M130.724 62.8926C130.724 63.2264 130.602 63.4829 130.359 63.6621C130.116 63.8393 129.768 63.9279 129.314 63.9279C128.859 63.9279 128.493 63.8589 128.217 63.7209V63.0935C128.619 63.2789 128.993 63.3716 129.339 63.3716C129.786 63.3716 130.01 63.2367 130.01 62.9668C130.01 62.8802 129.985 62.8081 129.936 62.7504C129.886 62.6927 129.805 62.633 129.691 62.5712C129.578 62.5094 129.421 62.4393 129.219 62.361C128.825 62.2086 128.558 62.0561 128.418 61.9036C128.28 61.7512 128.211 61.5534 128.211 61.3102C128.211 61.0177 128.329 60.791 128.563 60.6303C128.8 60.4676 129.122 60.3862 129.528 60.3862C129.929 60.3862 130.31 60.4676 130.668 60.6303L130.433 61.1774C130.064 61.0249 129.754 60.9487 129.503 60.9487C129.12 60.9487 128.928 61.0579 128.928 61.2763C128.928 61.3834 128.978 61.474 129.076 61.5482C129.177 61.6224 129.396 61.7244 129.732 61.8542C130.014 61.9634 130.219 62.0633 130.347 62.154C130.474 62.2446 130.569 62.3497 130.631 62.4692C130.693 62.5866 130.724 62.7278 130.724 62.8926Z" fill="#9B9B9B"/>
<path d="M134.519 63.8661H133.79V61.7646C133.79 61.5008 133.736 61.3041 133.629 61.1743C133.524 61.0445 133.356 60.9796 133.125 60.9796C132.82 60.9796 132.596 61.0712 132.451 61.2546C132.309 61.4359 132.238 61.7409 132.238 62.1694V63.8661H131.512V59.0573H132.238V60.278C132.238 60.4737 132.226 60.6829 132.201 60.9054H132.247C132.346 60.7406 132.483 60.6128 132.658 60.5222C132.836 60.4315 133.042 60.3862 133.277 60.3862C134.105 60.3862 134.519 60.8034 134.519 61.6378V63.8661Z" fill="#9B9B9B"/>
<path d="M137.251 59.3478H138.592C139.214 59.3478 139.664 59.4384 139.94 59.6197C140.218 59.801 140.357 60.0874 140.357 60.4789C140.357 60.7426 140.289 60.962 140.153 61.1372C140.017 61.3123 139.821 61.4225 139.566 61.4679V61.4988C139.883 61.5585 140.116 61.677 140.264 61.8542C140.415 62.0293 140.49 62.2673 140.49 62.5681C140.49 62.974 140.348 63.2923 140.063 63.5231C139.781 63.7518 139.388 63.8661 138.883 63.8661H137.251V59.3478ZM137.99 61.2144H138.7C139.009 61.2144 139.235 61.166 139.377 61.0692C139.519 60.9703 139.59 60.8034 139.59 60.5685C139.59 60.3563 139.513 60.2028 139.359 60.108C139.206 60.0133 138.963 59.9659 138.629 59.9659H137.99V61.2144ZM137.99 61.814V63.2449H138.775C139.084 63.2449 139.316 63.1862 139.473 63.0688C139.632 62.9493 139.711 62.7618 139.711 62.5063C139.711 62.2714 139.631 62.0973 139.47 61.984C139.309 61.8707 139.065 61.814 138.737 61.814H137.99Z" fill="#9B9B9B"/>
<path d="M143.491 63.8661L143.345 63.3902H143.321C143.156 63.5983 142.99 63.7404 142.823 63.8167C142.656 63.8908 142.442 63.9279 142.18 63.9279C141.844 63.9279 141.582 63.8373 141.392 63.656C141.205 63.4747 141.111 63.2181 141.111 62.8864C141.111 62.5341 141.242 62.2683 141.504 62.0891C141.765 61.9098 142.164 61.8119 142.7 61.7955L143.29 61.7769V61.5946C143.29 61.3762 143.238 61.2134 143.135 61.1063C143.034 60.9971 142.877 60.9425 142.662 60.9425C142.487 60.9425 142.319 60.9682 142.159 61.0197C141.998 61.0712 141.843 61.132 141.695 61.2021L141.46 60.6829C141.646 60.586 141.849 60.5129 142.069 60.4634C142.29 60.4119 142.498 60.3862 142.693 60.3862C143.128 60.3862 143.456 60.481 143.676 60.6705C143.899 60.8601 144.01 61.1578 144.01 61.5637V63.8661H143.491ZM142.409 63.3716C142.673 63.3716 142.884 63.2985 143.043 63.1522C143.203 63.0039 143.284 62.7968 143.284 62.531V62.2343L142.845 62.2529C142.503 62.2652 142.253 62.3229 142.097 62.4259C141.942 62.5269 141.865 62.6824 141.865 62.8926C141.865 63.0451 141.91 63.1635 142.001 63.248C142.092 63.3304 142.228 63.3716 142.409 63.3716Z" fill="#9B9B9B"/>
<path d="M145.75 63.8661H145.024V59.0573H145.75V63.8661Z" fill="#9B9B9B"/>
<path d="M148.93 63.8661L148.785 63.3902H148.76C148.595 63.5983 148.429 63.7404 148.263 63.8167C148.096 63.8908 147.881 63.9279 147.62 63.9279C147.284 63.9279 147.021 63.8373 146.832 63.656C146.644 63.4747 146.55 63.2181 146.55 62.8864C146.55 62.5341 146.681 62.2683 146.943 62.0891C147.205 61.9098 147.603 61.8119 148.139 61.7955L148.729 61.7769V61.5946C148.729 61.3762 148.678 61.2134 148.575 61.1063C148.474 60.9971 148.316 60.9425 148.102 60.9425C147.927 60.9425 147.759 60.9682 147.598 61.0197C147.437 61.0712 147.283 61.132 147.134 61.2021L146.9 60.6829C147.085 60.586 147.288 60.5129 147.508 60.4634C147.729 60.4119 147.937 60.3862 148.133 60.3862C148.567 60.3862 148.895 60.481 149.115 60.6705C149.338 60.8601 149.449 61.1578 149.449 61.5637V63.8661H148.93ZM147.848 63.3716C148.112 63.3716 148.323 63.2985 148.482 63.1522C148.643 63.0039 148.723 62.7968 148.723 62.531V62.2343L148.284 62.2529C147.942 62.2652 147.693 62.3229 147.536 62.4259C147.382 62.5269 147.304 62.6824 147.304 62.8926C147.304 63.0451 147.35 63.1635 147.44 63.248C147.531 63.3304 147.667 63.3716 147.848 63.3716Z" fill="#9B9B9B"/>
<path d="M153.47 63.8661H152.741V61.7646C152.741 61.5008 152.687 61.3041 152.58 61.1743C152.475 61.0445 152.307 60.9796 152.076 60.9796C151.769 60.9796 151.545 61.0702 151.402 61.2515C151.26 61.4328 151.189 61.7367 151.189 62.1632V63.8661H150.463V60.448H151.032L151.134 60.8961H151.171C151.274 60.7334 151.42 60.6077 151.61 60.5191C151.799 60.4305 152.009 60.3862 152.24 60.3862C153.06 60.3862 153.47 60.8034 153.47 61.6378V63.8661Z" fill="#9B9B9B"/>
<path d="M155.859 63.9279C155.342 63.9279 154.948 63.7775 154.678 63.4767C154.411 63.1738 154.277 62.7401 154.277 62.1756C154.277 61.6008 154.417 61.1588 154.697 60.8498C154.979 60.5407 155.386 60.3862 155.918 60.3862C156.278 60.3862 156.603 60.4531 156.891 60.5871L156.672 61.1712C156.365 61.0517 156.111 60.9919 155.912 60.9919C155.32 60.9919 155.025 61.3844 155.025 62.1694C155.025 62.5526 155.098 62.8411 155.244 63.0348C155.392 63.2264 155.609 63.3222 155.893 63.3222C156.217 63.3222 156.522 63.2418 156.811 63.0811V63.7147C156.681 63.7909 156.542 63.8455 156.394 63.8785C156.247 63.9114 156.069 63.9279 155.859 63.9279Z" fill="#9B9B9B"/>
<path d="M159.107 63.9279C158.576 63.9279 158.159 63.7734 157.859 63.4644C157.56 63.1532 157.41 62.7257 157.41 62.1818C157.41 61.6234 157.55 61.1846 157.828 60.8652C158.106 60.5459 158.488 60.3862 158.974 60.3862C159.426 60.3862 159.782 60.5232 160.044 60.7972C160.305 61.0712 160.436 61.4483 160.436 61.9284V62.3209H158.158C158.169 62.6526 158.258 62.9081 158.427 63.0873C158.596 63.2645 158.834 63.3531 159.141 63.3531C159.343 63.3531 159.531 63.3345 159.704 63.2975C159.879 63.2583 160.066 63.1944 160.266 63.1058V63.6961C160.089 63.7806 159.91 63.8404 159.728 63.8754C159.547 63.9104 159.34 63.9279 159.107 63.9279ZM158.974 60.9363C158.744 60.9363 158.558 61.0094 158.418 61.1557C158.28 61.302 158.198 61.5153 158.171 61.7955H159.722C159.718 61.5132 159.65 61.2999 159.518 61.1557C159.386 61.0094 159.205 60.9363 158.974 60.9363Z" fill="#9B9B9B"/>
<g filter="url(#filter3_d)">
<rect x="85.2279" y="16" width="358.799" height="22.1529" fill="white"/>
</g>
<rect x="291.725" y="23.5162" width="28.4824" height="7.91177" rx="3.95588" fill="#ECECEC"/>
<rect x="256.913" y="23.5162" width="28.4824" height="7.91177" rx="3.95588" fill="#ECECEC"/>
<rect x="98.6779" y="21.9338" width="50.6353" height="11.0765" rx="4" fill="#ECECEC"/>
<rect x="16" y="61.097" width="65.6676" height="13.0544" fill="#78A5ED"/>
<rect x="16" y="16" width="69.2279" height="269" fill="#4573FF"/>
<mask id="mask1" mask-type="alpha" maskUnits="userSpaceOnUse" x="22" y="22" width="11" height="10">
<rect x="22.3294" y="22.3295" width="9.71998" height="9.49412" fill="white"/>
</mask>
<g mask="url(#mask1)">
<path d="M28.0156 29.3538L28.909 30.863L29.3407 30.602L29.4922 30.1021L28.5331 28.4797L28.0156 29.3538Z" fill="#D24D57"/>
<path d="M25.1239 23.3766L24.7022 23.734L25.8343 25.6454L26.3503 24.7728L25.3169 23.0261L25.1239 23.3766Z" fill="#D24D57"/>
<path d="M26.0959 28.0482L24.838 30.1746L24.9952 30.7401L25.3812 31.0067L27.1951 27.9393L27.7125 27.0639L29.7194 23.6656L29.3864 23.2132L29.2735 23.0554L28.7846 23.498L26.0959 28.0482Z" fill="#D24D57"/>
<path d="M25.0838 22.6296L24.5664 23.5064H24.5678L22.9812 26.1955L22.9798 26.1941L22.4637 27.0695L25.0838 31.5094L25.6013 30.6354L23.4972 27.0709L25.6013 23.5064H27.1065L27.6239 22.6296H25.0838Z" fill="white"/>
<path d="M28.7789 23.5078L30.8816 27.0709L28.7789 30.634H27.2738L26.7577 31.5094H29.2964L29.8138 30.634L31.399 27.9463L31.9165 27.0723L31.4005 26.1913L29.8124 23.5064L29.2978 22.6296L28.7789 23.5078Z" fill="white"/>
</g>
<path fill-rule="evenodd" clip-rule="evenodd" d="M36.3594 25.4788L35.4008 26.8443L34.4387 25.4788H33.6732L35.0097 27.3119L33.6046 29.232H34.3669L35.4006 27.7856L36.4244 29.232H37.1868L35.7817 27.3119L37.1182 25.4788H36.3594Z" fill="white"/>
<path fill-rule="evenodd" clip-rule="evenodd" d="M39.2622 25.9709C39.5419 25.9709 39.7594 26.059 39.9084 26.2327C40.0523 26.4004 40.1288 26.6441 40.1357 26.9574H38.2808C38.317 26.6556 38.4172 26.4153 38.5788 26.2424C38.7472 26.0623 38.9771 25.9709 39.2622 25.9709ZM39.269 25.412C38.7551 25.412 38.3396 25.5929 38.0341 25.9496C37.7306 26.3041 37.5767 26.787 37.5767 27.3853C37.5767 27.9804 37.7428 28.453 38.0702 28.7898C38.3983 29.1275 38.8511 29.2987 39.416 29.2987C39.671 29.2987 39.8921 29.2798 40.0735 29.2426C40.2547 29.2054 40.4492 29.1432 40.6517 29.0578L40.6811 29.0455V28.4483L40.6134 28.4766C40.2271 28.638 39.8312 28.7197 39.4365 28.7197C39.0696 28.7197 38.7821 28.6125 38.582 28.4012C38.3885 28.1968 38.2813 27.8948 38.2635 27.503H40.8417V27.105C40.8417 26.6014 40.6996 26.1894 40.4194 25.8803C40.1377 25.5695 39.7506 25.412 39.269 25.412Z" fill="white"/>
<path fill-rule="evenodd" clip-rule="evenodd" d="M43.5303 25.412C43.2667 25.412 43.0239 25.4635 42.8086 25.5652C42.6181 25.6553 42.4629 25.7794 42.3462 25.9351L42.2621 25.4787H41.7116V29.2319H42.376V27.2652C42.376 26.8028 42.4641 26.4685 42.6376 26.2715C42.8094 26.0765 43.0868 25.9776 43.462 25.9776C43.7427 25.9776 43.9502 26.0466 44.079 26.1825C44.2087 26.3198 44.2745 26.5335 44.2745 26.818V29.2319H44.9389V26.7979C44.9389 26.3194 44.8189 25.9647 44.5822 25.7439C44.3461 25.5236 43.9922 25.412 43.5303 25.412Z" fill="white"/>
<path fill-rule="evenodd" clip-rule="evenodd" d="M47.4703 28.7398C47.1444 28.7398 46.9047 28.6295 46.7374 28.4024C46.569 28.1736 46.4836 27.8271 46.4836 27.3721C46.4836 26.9233 46.5698 26.5724 46.7399 26.329C46.9083 26.088 47.145 25.9709 47.4635 25.9709C47.8332 25.9709 48.1048 26.0765 48.2709 26.2848C48.4398 26.4966 48.5254 26.8601 48.5254 27.3653V27.4822C48.5254 27.9271 48.4413 28.2521 48.2752 28.4483C48.1115 28.6417 47.8407 28.7398 47.4703 28.7398ZM48.5255 25.4821L48.5393 25.7407L48.5544 25.9068C48.2774 25.5783 47.889 25.412 47.3986 25.412C46.8978 25.412 46.5011 25.5864 46.2193 25.9305C45.9401 26.2713 45.7986 26.7541 45.7986 27.3653C45.7986 27.9767 45.9396 28.4563 46.2178 28.7905C46.4984 29.1277 46.8957 29.2987 47.3986 29.2987C47.9058 29.2987 48.2992 29.1247 48.5691 28.7813L48.6382 29.232H49.1899V23.9434H48.5254L48.5255 25.4821Z" fill="white"/>
<path fill-rule="evenodd" clip-rule="evenodd" d="M50.6312 24.1202C50.5231 24.1202 50.4314 24.1543 50.3586 24.2216C50.285 24.2897 50.2478 24.3951 50.2478 24.5348C50.2478 24.672 50.2848 24.7773 50.3579 24.8474C50.4308 24.9174 50.5227 24.9529 50.6312 24.9529C50.7347 24.9529 50.8253 24.9176 50.9005 24.8481C50.9763 24.7778 51.0147 24.6724 51.0147 24.5348C51.0147 24.3971 50.9762 24.2923 50.9002 24.2231C50.825 24.1548 50.7345 24.1202 50.6312 24.1202Z" fill="white"/>
<path fill-rule="evenodd" clip-rule="evenodd" d="M50.2955 29.2319H50.96V25.4788H50.2955V29.2319Z" fill="white"/>
<path fill-rule="evenodd" clip-rule="evenodd" d="M53.8229 28.6816C53.7704 28.6966 53.6977 28.7112 53.6068 28.7253C53.5163 28.7393 53.4211 28.7465 53.3239 28.7465C53.15 28.7465 53.0177 28.6938 52.9195 28.5855C52.821 28.4771 52.7711 28.317 52.7711 28.1097V26.0043H53.8577V25.4788H52.7711V24.631H52.3582L52.1151 25.4249L51.5701 25.6588V26.0043H52.1066V28.1331C52.1066 28.9065 52.4886 29.2987 53.2419 29.2987C53.3391 29.2987 53.4504 29.2889 53.5726 29.2696C53.6979 29.2499 53.7912 29.2251 53.8576 29.1939L53.8851 29.1809V28.6638L53.8229 28.6816Z" fill="white"/>
<rect x="22.3294" y="38.9441" width="17.0103" height="6.32941" rx="3.16471" fill="#7D9DFF"/>
<rect x="35.3838" y="59.1191" width="32.0426" height="6.32941" rx="3.16471" fill="#7D9DFF"/>
<rect x="35.3838" y="74.9426" width="32.0426" height="6.32941" rx="3.16471" fill="#7D9DFF"/>
<rect x="35.3838" y="90.7661" width="32.0426" height="6.32941" rx="3.16471" fill="#7D9DFF"/>
<rect x="35.3838" y="106.59" width="32.0426" height="6.32941" rx="3.16471" fill="#7D9DFF"/>
<rect x="35.3838" y="154.06" width="32.0426" height="6.32941" rx="3.16471" fill="#7D9DFF"/>
<rect x="35.3838" y="169.884" width="32.0426" height="6.32941" rx="3.16471" fill="#7D9DFF"/>
<rect x="35.3838" y="185.707" width="32.0426" height="6.32941" rx="3.16471" fill="#7D9DFF"/>
<rect x="35.3838" y="122.413" width="32.0426" height="6.32941" rx="3.16471" fill="#7D9DFF"/>
<rect x="35.3838" y="138.237" width="35.9985" height="6.32941" rx="3.16471" fill="#B5C7FF"/>
<rect x="72.5692" y="38.9441" width="6.32941" height="6.32941" rx="3.16471" fill="#7D9DFF"/>
<rect x="22.3294" y="59.1191" width="6.32941" height="6.32941" rx="3.16471" fill="#7D9DFF"/>
<rect x="22.3294" y="74.9426" width="6.32941" height="6.32941" rx="3.16471" fill="#7D9DFF"/>
<rect x="22.3294" y="90.7661" width="6.32941" height="6.32941" rx="3.16471" fill="#7D9DFF"/>
<rect x="22.3294" y="106.59" width="6.32941" height="6.32941" rx="3.16471" fill="#7D9DFF"/>
<rect x="22.3294" y="154.06" width="6.32941" height="6.32941" rx="3.16471" fill="#7D9DFF"/>
<rect x="22.3294" y="169.884" width="6.32941" height="6.32941" rx="3.16471" fill="#7D9DFF"/>
<rect x="22.3294" y="185.707" width="6.32941" height="6.32941" rx="3.16471" fill="#7D9DFF"/>
</g>
</g>
<defs>
<filter id="filter0_d" x="-28" y="-24" width="516.026" height="357" filterUnits="userSpaceOnUse" color-interpolation-filters="sRGB">
<feFlood flood-opacity="0" result="BackgroundImageFix"/>
<feColorMatrix in="SourceAlpha" type="matrix" values="0 0 0 0 0 0 0 0 0 0 0 0 0 0 0 0 0 0 127 0"/>
<feOffset dy="4"/>
<feGaussianBlur stdDeviation="22"/>
<feColorMatrix type="matrix" values="0 0 0 0 0 0 0 0 0 0 0 0 0 0 0 0 0 0 0.15 0"/>
<feBlend mode="normal" in2="BackgroundImageFix" result="effect1_dropShadow"/>
<feBlend mode="normal" in="SourceGraphic" in2="effect1_dropShadow" result="shape"/>
</filter>
<filter id="filter1_d" x="93.8868" y="91.9309" width="341.481" height="187.993" filterUnits="userSpaceOnUse" color-interpolation-filters="sRGB">
<feFlood flood-opacity="0" result="BackgroundImageFix"/>
<feColorMatrix in="SourceAlpha" type="matrix" values="0 0 0 0 0 0 0 0 0 0 0 0 0 0 0 0 0 0 127 0"/>
<feOffset dy="2"/>
<feGaussianBlur stdDeviation="2"/>
<feColorMatrix type="matrix" values="0 0 0 0 0 0 0 0 0 0 0 0 0 0 0 0 0 0 0.08 0"/>
<feBlend mode="normal" in2="BackgroundImageFix" result="effect1_dropShadow"/>
<feBlend mode="normal" in="SourceGraphic" in2="effect1_dropShadow" result="shape"/>
</filter>
<filter id="filter2_d" x="93.8868" y="48.8118" width="341.481" height="44.7897" filterUnits="userSpaceOnUse" color-interpolation-filters="sRGB">
<feFlood flood-opacity="0" result="BackgroundImageFix"/>
<feColorMatrix in="SourceAlpha" type="matrix" values="0 0 0 0 0 0 0 0 0 0 0 0 0 0 0 0 0 0 127 0"/>
<feOffset dy="2"/>
<feGaussianBlur stdDeviation="2"/>
<feColorMatrix type="matrix" values="0 0 0 0 0 0 0 0 0 0 0 0 0 0 0 0 0 0 0.08 0"/>
<feBlend mode="normal" in2="BackgroundImageFix" result="effect1_dropShadow"/>
<feBlend mode="normal" in="SourceGraphic" in2="effect1_dropShadow" result="shape"/>
</filter>
<filter id="filter3_d" x="81.2279" y="14" width="366.799" height="30.1529" filterUnits="userSpaceOnUse" color-interpolation-filters="sRGB">
<feFlood flood-opacity="0" result="BackgroundImageFix"/>
<feColorMatrix in="SourceAlpha" type="matrix" values="0 0 0 0 0 0 0 0 0 0 0 0 0 0 0 0 0 0 127 0"/>
<feOffset dy="2"/>
<feGaussianBlur stdDeviation="2"/>
<feColorMatrix type="matrix" values="0 0 0 0 0 0 0 0 0 0 0 0 0 0 0 0 0 0 0.08 0"/>
<feBlend mode="normal" in2="BackgroundImageFix" result="effect1_dropShadow"/>
<feBlend mode="normal" in="SourceGraphic" in2="effect1_dropShadow" result="shape"/>
</filter>
</defs>
</svg>
