<?xml version="1.0" encoding="UTF-8"?>
<svg width="100px" height="100px" viewBox="0 0 100 100" version="1.1" xmlns="http://www.w3.org/2000/svg" xmlns:xlink="http://www.w3.org/1999/xlink">
    <!-- Generator: Sketch 59.1 (86144) - https://sketch.com -->
    <title>activation_step_001</title>
    <desc>Created with Sketch.</desc>
    <g id="V1.3-NOW" stroke="none" stroke-width="1" fill="none" fill-rule="evenodd">
        <g id="BCA---Activation-001" transform="translate(-225.000000, -239.000000)">
            <g id="Group-29-Copy">
                <g id="Group-2" transform="translate(191.000000, 20.000000)">
                    <g id="Group-3">
                        <g id="Group" transform="translate(0.000000, 219.000000)">
                            <g id="activation_step_001" transform="translate(34.000000, 0.000000)">
                                <circle id="Oval-Copy-6" fill="#4573FF" cx="50" cy="50" r="50"></circle>
                                <g id="resume" transform="translate(23.076923, 23.076923)" fill="#FFFFFF" fill-rule="nonzero">
                                    <path d="M27.8514589,20.8222812 L27.8514589,53.8461538 L53.8461538,53.8461538 L53.8461538,20.8222812 L27.8514589,20.8222812 Z M52.1131742,52.1080553 L29.5844385,52.1080553 L29.5844385,22.5603797 L52.1131742,22.5603797 L52.1131742,52.1080553 Z" id="Shape"></path>
                                    <path d="M1.73297966,38.2625995 L1.73297966,35.6763926 L17.3297966,35.6763926 L17.3297966,33.9522546 L0,33.9522546 L0,38.2625995 C0,40.6393236 1.94353669,42.5729443 4.33244916,42.5729443 L25.994695,42.5729443 L25.994695,40.8488064 L4.33244916,40.8488064 C2.89927498,40.8488064 1.73297966,39.6884615 1.73297966,38.2625995 Z" id="Path"></path>
                                    <path d="M19.0981432,36.5384615 C19.0981432,37.9643236 20.2584881,39.1246684 21.6843501,39.1246684 L25.994695,39.1246684 L25.994695,37.4005305 L21.6843501,37.4005305 C21.2093501,37.4005305 20.8222812,37.0143236 20.8222812,36.5384615 L20.8222812,35.6763926 L25.994695,35.6763926 L25.994695,33.9522546 L19.0981432,33.9522546 L19.0981432,36.5384615 Z" id="Path"></path>
                                    <path d="M3.46199579,4.33722848 C3.46199579,2.9024733 4.63157413,1.73489139 6.06878258,1.73489139 L47.7773713,1.73489139 C49.2145797,1.73489139 50.3841581,2.9024733 50.3841581,4.33722848 L50.3841581,19.0838053 L52.1220159,19.0838053 L52.1220159,4.33722848 C52.1220159,1.94568069 50.1730083,0 47.7773713,0 L6.06878258,0 C3.67314552,0 1.72413793,1.94568069 1.72413793,4.33722848 L1.72413793,32.0954907 L3.46199579,32.0954907 L3.46199579,4.33722848 Z" id="Path"></path>
                                    <path d="M18.1697613,8.75331565 L9.54907162,8.75331565 L9.54907162,17.3740053 L18.1697613,17.3740053 L18.1697613,8.75331565 Z M16.4456233,15.6498674 L11.2732095,15.6498674 L11.2732095,10.4774536 L16.4456233,10.4774536 L16.4456233,15.6498674 Z" id="Shape"></path>
                                    <rect id="Rectangle" x="20.0265252" y="8.75331565" width="20.8222812" height="1.72413793"></rect>
                                    <rect id="Rectangle" x="42.5729443" y="8.75331565" width="1.72413793" height="1.72413793"></rect>
                                    <rect id="Rectangle" x="20.0265252" y="15.6498674" width="24.270557" height="1.72413793"></rect>
                                    <rect id="Rectangle" x="10.3448276" y="27.8514589" width="12.2015915" height="1.72413793"></rect>
                                    <rect id="Rectangle" x="24.270557" y="27.8514589" width="1.72413793" height="1.72413793"></rect>
                                    <rect id="Rectangle" x="10.3448276" y="20.8222812" width="12.2015915" height="1.72413793"></rect>
                                    <rect id="Rectangle" x="24.270557" y="20.8222812" width="1.72413793" height="1.72413793"></rect>
                                    <polygon id="Path" points="45.2254642 32.1065429 43.4792219 32.1065429 43.4792219 34.7259063 36.4942529 34.7259063 36.4942529 27.7409372 43.4792219 27.7409372 43.4792219 25.994695 34.7480106 25.994695 34.7480106 36.4721485 45.2254642 36.4721485"></polygon>
                                    <polygon id="Path" points="38.8905693 28.8937529 37.6657825 30.1273884 40.80484 33.2891247 49.204244 26.7100262 48.1405678 25.331565 40.9486268 30.9666793"></polygon>
                                    <polygon id="Path" points="45.2254642 44.3081344 43.4792219 44.3081344 43.4792219 46.9274978 36.4942529 46.9274978 36.4942529 39.9425287 43.4792219 39.9425287 43.4792219 38.1962865 34.7480106 38.1962865 34.7480106 48.6737401 45.2254642 48.6737401"></polygon>
                                    <polygon id="Path" points="38.8905693 41.0948625 37.6657825 42.3286333 40.80484 45.4907162 49.204244 38.9100237 48.1405678 37.5331565 40.9486268 43.1680162"></polygon>
                                </g>
                            </g>
                        </g>
                    </g>
                </g>
            </g>
        </g>
    </g>
</svg>