<?xml version="1.0" encoding="UTF-8"?>
<svg width="100px" height="100px" viewBox="0 0 100 100" version="1.1" xmlns="http://www.w3.org/2000/svg" xmlns:xlink="http://www.w3.org/1999/xlink">
    <!-- Generator: Sketch 59.1 (86144) - https://sketch.com -->
    <title>activation_step_004</title>
    <desc>Created with Sketch.</desc>
    <g id="V1.3-NOW" stroke="none" stroke-width="1" fill="none" fill-rule="evenodd">
        <g id="BCA---Activation-001" transform="translate(-954.000000, -239.000000)">
            <g id="Group-29-Copy">
                <g id="Group-2" transform="translate(191.000000, 20.000000)">
                    <g id="Group-3">
                        <g id="Group" transform="translate(0.000000, 219.000000)">
                            <g id="activation_step_004" transform="translate(763.000000, 0.000000)">
                                <circle id="Oval-Copy-8" fill="#4573FF" cx="50" cy="50" r="50"></circle>
                                <g id="hand-copy" transform="translate(22.148541, 19.893899)" fill="#FFFFFF" fill-rule="nonzero">
                                    <path d="M34.9426713,26.1016514 C31.3086335,26.1016514 28.0139279,27.5696522 25.6246257,29.9403846 L25.6246257,22.4729635 C25.6246257,21.6520878 25.3683794,20.8659622 24.882288,20.2026204 L19.7263027,13.1514289 C19.2914606,12.5568153 18.5895012,12.2015915 17.849493,12.2015915 C16.6661012,12.2015915 15.697801,13.0904231 15.5580303,14.2310003 C15.5518183,14.2286836 15.5471592,14.2255947 15.5409472,14.2240502 L9.85228031,12.3375032 C9.58128048,12.2471528 9.2986331,12.2015915 9.01210319,12.2015915 L8.8707795,12.2015915 C7.40474031,12.2015915 6.21203046,13.38773 6.21203046,14.846464 C6.21203046,15.890513 6.8316805,16.8388059 7.7906627,17.2627578 L12.838714,19.4944896 C13.2432724,19.6721015 13.5857106,19.9601416 13.8303093,20.3254043 L15.915222,23.4351566 C16.1714683,23.816636 16.30658,24.2606657 16.30658,24.7201399 L16.30658,26.6398926 L15.3149846,25.1603085 C14.7372658,24.299277 13.771295,23.7849748 12.7307799,23.7849748 L5.04727475,23.7849748 C2.90645375,23.7849748 1.16475571,25.5170767 1.16475571,27.6461025 C1.16475571,27.6623192 1.16475571,27.678536 1.16553222,27.6947527 C0.496185933,27.8661868 0,28.4716116 0,29.1905536 L0,37.0062484 C0,37.5607063 0.123464105,38.1197976 0.357191752,38.6248331 L4.27853598,47.0737529 C4.60544408,47.7772504 5.0169911,48.4405921 5.50230598,49.042928 L5.9953859,49.6560751 C6.9737807,50.8723304 7.57246513,52.3573201 7.72388337,53.9017712 L6.21203046,53.9017712 L6.21203046,60.0795756 L23.2951142,60.0795756 L23.2951142,53.9017712 L21.7421066,53.9017712 L21.7421066,53.3457688 C21.7421066,52.2793253 21.9517626,51.2391375 22.3633097,50.2560944 L23.9466009,46.4775948 C26.3133845,50.0174767 30.3566399,52.3573201 34.9426713,52.3573201 C42.221618,52.3573201 48.1432361,46.4683281 48.1432361,39.2294858 C48.1432361,31.9906434 42.221618,26.1016514 34.9426713,26.1016514 Z M21.7421066,58.5351245 L7.76503808,58.5351245 L7.76503808,55.4462223 L21.7421066,55.4462223 L21.7421066,58.5351245 Z M20.9298836,49.6622529 C20.4383567,50.8344913 20.189099,52.0746855 20.189099,53.3457688 L20.189099,53.9017712 L9.28465603,53.9017712 C9.12857876,52.0067297 8.40565372,50.1804163 7.20750834,48.6915654 L6.71442842,48.0784183 C6.30754043,47.5726106 5.96199624,47.0166082 5.68866689,46.4266279 L1.76732267,37.9777081 C1.62755198,37.6749957 1.55300762,37.3390776 1.55300762,37.0062484 L1.55300762,29.1905536 C3.26597501,29.1905536 4.65902285,30.5759262 4.65902285,32.2794558 L4.65902285,35.368358 C4.65902285,36.0934778 5.00689655,36.7869363 5.59082742,37.2209271 L7.14305853,38.3792654 C7.87840763,38.9275456 8.78769359,39.2294858 9.7062976,39.2294858 C12.0606571,39.2294858 13.9770685,37.3236331 13.9770685,34.9822452 L13.9770685,31.893343 C13.9770685,29.5519552 12.0606571,27.6461025 9.7062976,27.6461025 L2.71776333,27.6461025 C2.71776333,26.3688414 3.76293745,25.3294259 5.04727475,25.3294259 L12.7307799,25.3294259 C13.2510375,25.3294259 13.7340228,25.586577 14.0228823,26.0174788 L16.0448982,29.034564 C16.2165055,29.2901707 16.30658,29.5867053 16.30658,29.8917344 L16.30658,33.8239069 L17.8595876,33.8239069 L17.8595876,29.8917344 L17.8595876,24.7201399 C17.8595876,23.9548644 17.6344015,23.2143001 17.2073244,22.5787584 L15.1224117,19.4690062 C14.7139707,18.8597202 14.1416873,18.3801681 13.4684585,18.0828613 L8.42118379,15.8511295 C8.02283734,15.675062 7.76503808,15.2804548 7.76503808,14.846464 C7.76503808,14.2394947 8.26122401,13.7460426 8.871556,13.7460426 L9.0128797,13.7460426 C9.13168478,13.7460426 9.25048986,13.764576 9.36230641,13.8016429 L15.0501968,15.6874176 C15.5378412,15.8488128 15.9633653,16.1716031 16.2491187,16.5963271 L18.766544,20.35166 L18.766544,20.35166 L19.7977411,21.8899333 C20.0539873,22.2721849 20.189099,22.7162146 20.189099,23.1756888 L20.189099,33.8239069 L21.7421066,33.8239069 L21.7421066,23.1756888 C21.7421066,22.4104133 21.5169205,21.669849 21.0898434,21.0343074 L17.544327,15.7430179 C17.5419975,15.7391568 17.538115,15.7360679 17.535009,15.7322067 L17.2119834,15.250338 C17.128121,15.1229208 17.0830838,14.9769701 17.0830838,14.8256139 L17.0830838,14.5082292 C17.0830838,14.0881385 17.427075,13.7460426 17.849493,13.7460426 C18.0940917,13.7460426 18.3262664,13.8634209 18.4706961,14.0595662 L23.6266814,21.1099855 C23.9178703,21.5092261 24.071618,21.9795114 24.071618,22.4729635 L24.071618,31.7991315 C22.6055788,33.9142573 21.7421066,36.4726405 21.7421066,39.2294858 C21.7421066,41.2056109 22.1963613,43.0736245 22.9852892,44.756304 L20.9298836,49.6622529 Z M5.02320313,29.1905536 L9.7062976,29.1905536 C11.2049499,29.1905536 12.4240609,30.4029477 12.4240609,31.893343 L12.4240609,34.9822452 C12.4240609,36.4726405 11.2049499,37.6850347 9.7062976,37.6850347 C9.12159023,37.6850347 8.54309489,37.4927505 8.0748631,37.1444768 L6.52185548,35.9861384 C6.32772953,35.84096 6.21203046,35.6100646 6.21203046,35.368358 L6.21203046,32.2794558 C6.21203046,31.0940896 5.76165825,30.0106571 5.02320313,29.1905536 Z M34.9426713,50.812869 C28.5202084,50.812869 23.2951142,45.6165633 23.2951142,39.2294858 C23.2951142,32.8424082 28.5202084,27.6461025 34.9426713,27.6461025 C41.3651343,27.6461025 46.5902285,32.8424082 46.5902285,39.2294858 C46.5902285,45.6165633 41.3651343,50.812869 34.9426713,50.812869 Z" id="Shape"></path>
                                    <g id="Group-45" transform="translate(22.148541, 0.000000)">
                                        <path d="M14.6747649,24.403183 C16.7200502,24.403183 18.4131209,22.8843754 18.6967524,20.917014 L22.2305218,20.917014 C23.1918466,20.917014 23.974158,20.1349501 23.974158,19.1739295 C23.974158,18.3203991 23.3563296,17.6109637 22.5443763,17.4628016 L22.1142794,16.8887457 C21.4400734,15.9887331 21.0680977,14.8743211 21.0680977,13.7511936 L21.0680977,8.71542251 C21.0680977,6.01189845 19.3773518,3.7005684 16.9996132,2.76801819 L16.9996132,2.32411267 C16.9996132,1.04236453 15.9569187,0 14.6747649,0 C13.3926111,0 12.3499166,1.04236453 12.3499166,2.32411267 L12.3499166,2.76801819 C9.97217802,3.7005684 8.28143211,6.01189845 8.28143211,8.71542251 L8.28143211,13.7511936 C8.28143211,14.8749021 7.90945638,15.9893141 7.23525038,16.8887457 L6.80515345,17.4628016 C5.99320019,17.6109637 5.37537175,18.3203991 5.37537175,19.1739295 C5.37537175,20.1349501 6.1576832,20.917014 7.11900797,20.917014 L10.6527774,20.917014 C10.9364088,22.8843754 12.6294796,24.403183 14.6747649,24.403183 Z M9.46875253,10.5352949 L19.8807773,10.5352949 L19.8807773,13.7844658 C19.8807773,13.8481076 19.8865617,13.9117494 19.8888755,13.9753912 L9.46065429,13.9753912 C9.46296807,13.9117494 9.46875253,13.8481076 9.46875253,13.7844658 L9.46875253,10.5352949 Z M13.4384294,2.36011056 C13.4384294,1.71067659 13.9688173,1.1825331 14.6210112,1.1825331 C15.273205,1.1825331 15.803593,1.71067659 15.803593,2.36011056 L15.803593,2.47256921 C15.4192539,2.40191456 15.0254541,2.36011056 14.6210112,2.36011056 C14.2165682,2.36011056 13.8227685,2.40191456 13.4384294,2.47256921 L13.4384294,2.36011056 Z M14.6747649,3.44009629 C17.5500572,3.44009629 19.8888755,5.78364038 19.8888755,8.66474252 L19.8888755,9.24525877 L9.46065429,9.24525877 L9.46065429,8.66474252 C9.46065429,5.78364038 11.7994726,3.44009629 14.6747649,3.44009629 Z M9.29764152,15.0504212 L20.0524689,15.0504212 C20.234203,15.8971149 20.5802526,16.7047851 21.0714573,17.4154874 L8.2780725,17.4154874 C8.76927716,16.7047851 9.11532678,15.8971149 9.29764152,15.0504212 Z M6.55795354,19.1892871 C6.55795354,18.862908 6.8176915,18.5980205 7.13772578,18.5980205 L22.211804,18.5980205 C22.5318383,18.5980205 22.7915762,18.862908 22.7915762,19.1892871 C22.7915762,19.5156662 22.5318383,19.7805536 22.211804,19.7805536 L7.13772578,19.7805536 C6.8176915,19.7805536 6.55795354,19.5156662 6.55795354,19.1892871 Z M17.5237119,20.8555837 C17.2532975,22.2030802 16.0791754,23.2206499 14.6747649,23.2206499 C13.2703544,23.2206499 12.0962323,22.2030802 11.8258179,20.8555837 L17.5237119,20.8555837 Z" id="Shape"></path>
                                        <g id="Group-44" transform="translate(0.000000, 3.870108)">
                                            <path d="M26.1675314,0 L25.1567398,0.915095962 C27.6523446,3.67061219 27.6523446,8.15471879 25.1567398,10.910235 L26.1675314,11.825331 C29.1201067,8.56521638 29.1201067,3.2601146 26.1675314,0 Z" id="Path"></path>
                                            <path d="M24.068381,2.04255717 L23.1140985,2.99912077 C24.6381515,4.60595576 24.6381515,7.21937522 23.1140985,8.82621021 L24.068381,9.78277381 C26.0928991,7.64900658 26.0928991,4.1763244 24.068381,2.04255717 Z" id="Path"></path>
                                            <path d="M3.22522305,10.910235 C0.729618263,8.15471879 0.729618263,3.67061219 3.22522305,0.915095962 L2.2144315,0 C-0.738143833,3.2601146 -0.738143833,8.56521638 2.2144315,11.825331 L3.22522305,10.910235 Z" id="Path"></path>
                                            <path d="M4.20607447,9.78277381 L5.16035688,8.82621021 C3.6363039,7.21937522 3.6363039,4.60595576 5.16035688,2.99912077 L4.20607447,2.04255717 C2.18155634,4.1763244 2.18155634,7.64900658 4.20607447,9.78277381 Z" id="Path"></path>
                                        </g>
                                    </g>
                                    <polygon id="Path" points="39.8864548 34.0848806 31.9157306 41.9919816 30.1400704 40.2304949 29.0450928 41.3167322 31.9157306 44.1644562 40.9814324 35.171118"></polygon>
                                    <path d="M34.8761973,47.6542231 C30.1757587,47.6542231 26.351082,43.8295463 26.351082,39.1291077 C26.351082,37.1179555 27.0679667,35.1649291 28.3692093,33.6280833 L27.1873183,32.6259947 C25.6489225,34.4426193 24.801061,36.7521505 24.801061,39.1291077 C24.801061,44.6843829 29.3209222,49.204244 34.8761973,49.204244 C37.2531545,49.204244 39.5626858,48.3563826 41.3793103,46.8179867 L40.3772218,45.6360957 C38.840376,46.9373384 36.8873496,47.6542231 34.8761973,47.6542231 Z" id="Path"></path>
                                    <path d="M35.0177019,29.1777188 C32.6407447,29.1777188 30.3312134,30.0255803 28.5145889,31.5639761 L29.5166774,32.7458671 C31.0535232,31.4446245 33.0065496,30.7277398 35.0177019,30.7277398 C39.7181405,30.7277398 43.5428172,34.5524166 43.5428172,39.2528552 C43.5428172,41.2640074 42.8259325,43.2170338 41.5246899,44.7538796 L42.7065809,45.7559682 C44.2449767,43.9393436 45.0928382,41.6298123 45.0928382,39.2528552 C45.0928382,33.69758 40.572977,29.1777188 35.0177019,29.1777188 Z" id="Path"></path>
                                </g>
                            </g>
                        </g>
                    </g>
                </g>
            </g>
        </g>
    </g>
</svg>