<?xml version="1.0" encoding="UTF-8"?>
<svg width="100px" height="100px" viewBox="0 0 100 100" version="1.1" xmlns="http://www.w3.org/2000/svg" xmlns:xlink="http://www.w3.org/1999/xlink">
    <!-- Generator: Sketch 59.1 (86144) - https://sketch.com -->
    <title>activation_step_003</title>
    <desc>Created with Sketch.</desc>
    <g id="V1.3-NOW" stroke="none" stroke-width="1" fill="none" fill-rule="evenodd">
        <g id="BCA---Activation-001" transform="translate(-711.000000, -239.000000)">
            <g id="Group-29-Copy">
                <g id="Group-2" transform="translate(191.000000, 20.000000)">
                    <g id="Group-3">
                        <g id="Group" transform="translate(0.000000, 219.000000)">
                            <g id="activation_step_003" transform="translate(520.000000, 0.000000)">
                                <circle id="Oval-Copy-7" fill="#4573FF" cx="50" cy="50" r="50"></circle>
                                <g id="consulting" transform="translate(20.689655, 23.740053)" fill="#FFFFFF" fill-rule="nonzero">
                                    <path d="M49.2598614,11.2347052 L48.3956533,11.2347052 L48.3956533,6.04945666 C48.3956533,2.71361342 45.6811757,0 42.3461966,0 L36.29674,0 L36.29674,9.50628904 L41.4819885,9.50628904 L41.4819885,11.2347052 L34.5242492,11.2347052 C34.0783178,4.96660392 28.8489946,0 22.4694105,0 C16.0898263,0 10.8605031,4.96660392 10.4145717,11.2347052 L4.32104047,11.2347052 C1.93841876,11.2347052 0,13.173124 0,15.5557457 L0,40.6177804 C0,43.0004022 1.93841876,44.9388209 4.32104047,44.9388209 L22.4694105,44.9388209 L22.4694105,46.8323008 L10.3704971,49.4249251 L10.3704971,53.5809019 L43.2104047,53.5809019 L43.2104047,49.4249251 L31.1114914,46.8323008 L31.1114914,44.9388209 L49.2598614,44.9388209 C51.6424831,44.9388209 53.5809019,43.0004022 53.5809019,40.6177804 L53.5809019,15.5557457 C53.5809019,13.173124 51.6424831,11.2347052 49.2598614,11.2347052 Z M39.7535723,7.77787285 L38.0251562,7.77787285 L38.0251562,1.72841619 L39.7535723,1.72841619 L39.7535723,7.77787285 Z M22.4694105,51.8524857 L12.0989133,51.8524857 L12.0989133,50.8232138 L22.4694105,48.6013348 L22.4694105,51.8524857 Z M43.2104047,16.4199538 L43.2104047,7.77787285 L41.4819885,7.77787285 L41.4819885,1.72841619 L42.3461966,1.72841619 C44.7288183,1.72841619 46.6672371,3.66683494 46.6672371,6.04945666 L46.6672371,18.14837 C46.6672371,20.5309917 44.7288183,22.4694105 42.3461966,22.4694105 L41.4819885,22.4694105 L41.4819885,16.4199538 L43.2104047,16.4199538 Z M12.0989133,12.0989133 C12.0989133,6.38044836 16.7509455,1.72841619 22.4694105,1.72841619 C28.1878754,1.72841619 32.8399076,6.38044836 32.8399076,12.0989133 L32.8399076,15.5782151 C32.3352101,15.1962351 31.753598,14.9101823 31.1114914,14.7796868 L31.1114914,12.9631214 L30.2472833,12.9631214 C27.69182,12.9631214 25.2884573,11.9675537 23.4813981,10.1613588 L22.4702747,9.14850689 L21.4565586,10.1604946 C19.6494994,11.9675537 17.2470009,12.9631214 14.6915376,12.9631214 L13.8273295,12.9631214 L13.8273295,14.7788226 C13.1852229,14.9101823 12.6036108,15.1953709 12.0989133,15.5773509 L12.0989133,12.0989133 Z M32.8399076,19.0125781 C32.8399076,20.195679 32.0387867,21.1851972 30.9542055,21.4945837 C31.0544537,20.9700094 31.1114914,20.4298794 31.1114914,19.8767862 L31.1114914,16.5789681 C32.114837,16.9367502 32.8399076,17.8873791 32.8399076,19.0125781 Z M32.6497818,38.0251562 L25.8242663,38.0251562 L25.4250021,34.831043 L29.3830752,35.6226577 L29.3830752,29.9249337 L33.1276889,30.5013605 C35.2346282,30.8254385 37.0339095,32.2557029 37.8246599,34.2338752 L39.3413451,38.0251562 L34.4127663,38.0251562 L33.6876957,34.398939 L31.9929837,34.7385728 L32.6497818,38.0251562 Z M27.654659,33.5139899 L25.1994438,33.0231197 L25.087961,32.1286643 L26.4179772,29.4686318 L27.654659,29.6587576 L27.654659,33.5139899 Z M22.4694105,26.7904509 C18.6573886,26.7904509 15.5557457,23.6888081 15.5557457,19.8767862 L15.5557457,14.6586977 C18.1509626,14.4633867 20.5707453,13.3917686 22.4694105,11.5873021 C24.3672114,13.3926328 26.7878583,14.4642509 29.3830752,14.6586977 L29.3830752,19.8767862 C29.3830752,23.6888081 26.2814324,26.7904509 22.4694105,26.7904509 Z M23.663746,31.1114914 L21.2750749,31.1114914 L19.8767862,28.314914 L19.8767862,28.1204672 C20.6960554,28.3780012 21.566313,28.5188671 22.4694105,28.5188671 C23.3725079,28.5188671 24.2427655,28.3780012 25.0620347,28.1204672 L25.0620347,28.314914 L23.663746,31.1114914 Z M24.0837512,38.0251562 L20.8559339,38.0251562 L21.50409,32.8399076 L23.4355951,32.8399076 L24.0837512,38.0251562 Z M11.2519894,34.398939 L10.5260546,38.0251562 L5.59747583,38.0251562 L7.11416103,34.233011 C7.90491144,32.2548387 9.70419269,30.8245743 11.811132,30.5004963 L15.5557457,29.9249337 L15.5557457,35.6226577 L19.5129546,34.831043 L19.1136904,38.0251562 L12.2890391,38.0251562 L12.9467015,34.7377086 L11.2519894,34.398939 Z M17.2841619,33.5139899 L17.2841619,29.6587576 L18.5217079,29.4686318 L19.8517241,32.1286643 L19.7402413,33.0231197 L17.2841619,33.5139899 Z M13.8273295,16.5789681 L13.8273295,19.8767862 C13.8273295,20.4298794 13.8843672,20.9700094 13.9846154,21.4945837 C12.9000342,21.1851972 12.0989133,20.195679 12.0989133,19.0125781 C12.0989133,17.8873791 12.8239839,16.9367502 13.8273295,16.5789681 Z M1.72841619,15.5557457 C1.72841619,14.1263455 2.89164028,12.9631214 4.32104047,12.9631214 L10.3704971,12.9631214 L10.3704971,19.0125781 C10.3704971,21.3459399 12.2328656,23.2411483 14.5472149,23.318927 C15.2878412,25.0162317 16.5590913,26.4266193 18.14837,27.3495936 L18.14837,27.7773766 L11.5475486,28.7928211 C8.8399846,29.2093694 6.52563532,31.0484042 5.5093266,33.5917686 L3.73597159,38.0251562 L1.72841619,38.0251562 L1.72841619,15.5557457 Z M29.3830752,51.8524857 L24.1978266,51.8524857 L24.1978266,44.9388209 L29.3830752,44.9388209 L29.3830752,51.8524857 Z M41.4819885,50.8232138 L41.4819885,51.8524857 L31.1114914,51.8524857 L31.1114914,48.6004706 L41.4819885,50.8232138 Z M51.8524857,40.6177804 C51.8524857,42.0471806 50.6892616,43.2104047 49.2598614,43.2104047 L4.32104047,43.2104047 C2.89164028,43.2104047 1.72841619,42.0471806 1.72841619,40.6177804 L1.72841619,39.7535723 L51.8524857,39.7535723 L51.8524857,40.6177804 Z M51.8524857,38.0251562 L41.2028493,38.0251562 L39.4294943,33.5917686 C38.4123214,31.0484042 36.0988363,29.2093694 33.3912724,28.7928211 L26.7904509,27.7773766 L26.7904509,27.3495936 C28.3805938,26.4266193 29.6518439,25.0162317 30.3916061,23.318927 C32.7059553,23.2411483 34.5683238,21.3459399 34.5683238,19.0125781 L34.5683238,12.9631214 L41.4819885,12.9631214 L41.4819885,14.6915376 L36.29674,14.6915376 L36.29674,24.1978266 L42.3461966,24.1978266 C45.6811757,24.1978266 48.3956533,21.4842132 48.3956533,18.14837 L48.3956533,12.9631214 L49.2598614,12.9631214 C50.6892616,12.9631214 51.8524857,14.1263455 51.8524857,15.5557457 L51.8524857,38.0251562 Z M39.7535723,16.4199538 L39.7535723,22.4694105 L38.0251562,22.4694105 L38.0251562,16.4199538 L39.7535723,16.4199538 Z" id="Shape"></path>
                                    <circle id="Oval" cx="26.7241379" cy="16.3793103" r="1"></circle>
                                    <circle id="Oval" cx="18.1034483" cy="16.3793103" r="1"></circle>
                                    <path d="M25.9725906,19.8938992 C25.9725906,21.7956233 24.4062113,23.3421751 22.4801061,23.3421751 C20.5540009,23.3421751 18.9876216,21.7956233 18.9876216,19.8938992 L17.2413793,19.8938992 C17.2413793,22.7464854 19.5909483,25.066313 22.4801061,25.066313 C25.3692639,25.066313 27.7188329,22.7464854 27.7188329,19.8938992 L25.9725906,19.8938992 Z" id="Path"></path>
                                </g>
                            </g>
                        </g>
                    </g>
                </g>
            </g>
        </g>
    </g>
</svg>