<?xml version="1.0" encoding="UTF-8"?>
<svg width="100px" height="100px" viewBox="0 0 100 100" version="1.1" xmlns="http://www.w3.org/2000/svg" xmlns:xlink="http://www.w3.org/1999/xlink">
    <!-- Generator: Sketch 59.1 (86144) - https://sketch.com -->
    <title>activation_step_002</title>
    <desc>Created with Sketch.</desc>
    <g id="V1.3-NOW" stroke="none" stroke-width="1" fill="none" fill-rule="evenodd">
        <g id="BCA---Activation-001" transform="translate(-468.000000, -239.000000)">
            <g id="Group-29-Copy">
                <g id="Group-2" transform="translate(191.000000, 20.000000)">
                    <g id="Group-3">
                        <g id="Group" transform="translate(0.000000, 219.000000)">
                            <g id="activation_step_002" transform="translate(277.000000, 0.000000)">
                                <circle id="Oval-Copy-5" fill="#4573FF" cx="50" cy="50" r="50"></circle>
                                <g id="fountain-pen" transform="translate(29.000000, 58.000000)" fill="#FFFFFF" fill-rule="nonzero">
                                    <path d="M37.6729766,6.06468528 L32.0220739,0.332054889 C31.5870853,-0.110870583 30.871418,-0.112760519 30.4341196,0.33885866 L27.1546424,3.72441496 C25.7814256,2.99678948 24.0428869,3.21685366 22.8911134,4.38551468 C21.7072262,5.58668259 21.5104456,7.4171237 22.3029325,8.82701619 C20.3660486,9.40737783 18.8998434,9.28611951 18.3025724,9.28611951 C17.4393011,9.28611951 16.6393631,9.81484809 16.294904,10.6241944 C11.9358534,20.8720338 10.8458486,23.3985007 10.5525032,24.1370878 C10.4653267,24.3565472 10.2030519,24.4428039 10.0062714,24.3158758 C8.6861801,23.4642705 7.88475199,22.4704664 7.64959885,21.3707502 C7.28979071,19.6879509 8.27563074,17.6151444 10.3541579,15.6840075 C11.9817515,14.1718317 12.0854692,12.6115758 11.8859318,11.5688602 C11.3350803,8.69094077 7.74720678,5.91916019 1.51020946,3.55295994 C0.931565847,3.33342494 0.28742806,3.63135449 0.0711259204,4.21829311 C-0.145176219,4.80523173 0.148467161,5.4589229 0.726887247,5.6783823 C5.96187589,7.66440297 9.31273356,10.0281085 9.69042407,12.0013532 C9.73960058,12.2580821 9.88906737,13.0392306 8.84376847,14.0104311 C6.12348779,16.5378051 4.92313385,19.3225129 5.46385195,21.8517012 C6.14010349,25.0143206 9.27987471,26.8322126 12.2968537,27.8640422 C12.9403209,28.0841064 13.6834823,28.0213605 14.1999847,27.7881423 L27.4878505,21.9692553 C28.314612,21.6076726 28.8320085,20.7816949 28.8059301,19.8657562 C28.7709104,18.6668562 28.8141262,17.3674116 29.2487422,15.8757982 C30.6366375,16.6815159 32.4440233,16.4832238 33.6293262,15.2805439 C34.7736487,14.1195182 34.9958371,12.3707224 34.2935817,10.9819972 L37.6588197,7.68262196 C38.1059534,7.24612227 38.1166083,6.51638006 37.6729766,6.06468528 Z M32.0481524,13.6762148 C31.5002068,14.2314024 30.6092923,14.2314024 30.0614213,13.6762148 C29.224303,12.8268774 24.9291073,8.46898665 24.4723618,8.00557427 C23.9251613,7.44963061 23.9251613,6.54578747 24.4723618,5.98984381 C25.0089818,5.44539096 25.8987041,5.42505524 26.4583477,5.98984381 C27.0826659,6.62327486 31.4256969,11.0296991 32.0481524,11.6612403 C32.600643,12.2217954 32.5886469,13.1278308 32.0481524,13.6762148 L32.0481524,13.6762148 Z M14.8694558,25.0235435 L19.9187659,19.900531 C21.07881,20.4366681 22.5180425,20.2397367 23.5016472,19.2416992 C24.7458875,17.9792973 24.7458875,15.9241806 23.5016472,14.6610228 C22.2475717,13.3902296 20.2290994,13.4007376 18.986871,14.6610228 C18.0199564,15.6420509 17.8037288,17.1011573 18.3390077,18.2946899 L13.2882074,23.4192144 L18.3345371,11.5567646 C19.1456515,11.5900275 21.3240219,11.6619206 23.9295574,10.6634295 L27.4401642,14.225279 C26.6089322,16.439226 26.5254066,18.320393 26.5693674,19.9004554 L14.8694558,25.0235435 Z M20.5680448,16.2661079 C20.9411902,15.8875914 21.5447947,15.8857771 21.9196538,16.2661079 C22.2924266,16.6443219 22.2924266,17.2592316 21.9196538,17.6374457 C21.5449437,18.0176252 20.9414138,18.0161889 20.5680448,17.6374457 C20.1946014,17.2584756 20.1960171,16.6435659 20.5680448,16.2661079 Z M32.8383295,9.25361261 L28.8521262,5.20922452 L31.2385282,2.74565474 L35.2866491,6.85286432 L32.8383295,9.25361261 Z" id="Shape"></path>
                                </g>
                                <g id="send" transform="translate(17.000000, 20.000000)" fill="#FFFFFF" fill-rule="nonzero">
                                    <path d="M53.9095454,0 L18.5743886,0 C17.9721206,0 17.483934,0.491779972 17.483934,1.09848093 L17.483934,3.17018215 L7.09045464,3.17018215 C6.48818667,3.17018215 6,3.66196212 6,4.26866308 C6,4.87536404 6.48818667,5.36714401 7.09045464,5.36714401 L17.483934,5.36714401 L17.483934,19.632856 L11.2719029,19.632856 C10.6696349,19.632856 10.1814482,20.124636 10.1814482,20.7313369 C10.1814482,21.3380379 10.6696349,21.8298178 11.2719029,21.8298178 L17.483934,21.8298178 L17.483934,23.9015191 C17.483934,24.50822 17.9721206,25 18.5743886,25 L53.9095454,25 C54.5118133,25 55,24.50822 55,23.9015191 L55,1.09848093 C55,0.491779972 54.5118133,0 53.9095454,0 Z M51.2194935,2.19696186 L36.2435173,14.5813946 L21.3358615,2.19696186 L51.2194935,2.19696186 Z M52.8190907,22.8031458 L19.6649502,22.8031458 L19.6649502,3.65646918 L35.5482308,16.8513803 C35.749664,17.0186458 35.9957887,17.1024402 36.2420204,17.1024402 C36.4873968,17.1024402 36.7328801,17.0192921 36.9338855,16.8529959 L52.8190907,3.71667614 L52.8190907,22.8031458 Z" id="Shape"></path>
                                    <path d="M12.9005636,11 L1.09943637,11 C0.492207712,11 0,11.447691 0,12 C0,12.552309 0.492207712,13 1.09943637,13 L12.9005636,13 C13.5077923,13 14,12.552309 14,12 C14,11.447691 13.5077923,11 12.9005636,11 Z" id="Path"></path>
                                    <path d="M7.21087856,20 L6.78912144,20 C6.35328253,20 6,20.447691 6,21 C6,21.552309 6.35328253,22 6.78912144,22 L7.21087856,22 C7.64671747,22 8,21.552309 8,21 C8,20.447691 7.64671747,20 7.21087856,20 Z" id="Path"></path>
                                </g>
                            </g>
                        </g>
                    </g>
                </g>
            </g>
        </g>
    </g>
</svg>