<?xml version="1.0" encoding="UTF-8"?>
<svg width="398px" height="90px" viewBox="0 0 398 90" version="1.1" xmlns="http://www.w3.org/2000/svg" xmlns:xlink="http://www.w3.org/1999/xlink">
    <title>billease @1x</title>
    <g id="Page-1" stroke="none" stroke-width="1" fill="none" fill-rule="evenodd">
        <g id="billease-">
            <path d="M26.4311688,89.5168831 C30.2545455,89.5168831 34.0155844,89.0181818 37.7142857,88.0207792 C41.412987,87.0233766 44.7376623,85.2987013 47.6883117,82.8467532 C50.638961,80.3948052 53.0077922,76.9662338 54.7948052,72.561039 C56.5818182,68.1558442 57.4753247,62.5454545 57.4753247,55.7298701 C57.4753247,45.5896104 55.1064935,37.7142857 50.3688312,32.1038961 C45.6311688,26.4935065 38.5246753,23.6883117 29.0493506,23.6883117 C27.3038961,23.6883117 25.2051948,23.9376623 22.7532468,24.4363636 C20.3012987,24.9350649 17.8909091,25.6 15.5220779,26.4311688 C15.0483117,26.5974026 14.5903377,26.7719481 14.1481558,26.9548052 L12.9618101,27.4909091 L12.9662338,0 L2.98427949e-13,0 L2.98427949e-13,75.3038961 C2.98427949e-13,78.212987 0.727272727,80.5818182 2.18181818,82.4103896 C3.63636364,84.238961 5.61038961,85.6727273 8.1038961,86.7116883 C10.5974026,87.7506494 13.4233766,88.4779221 16.5818182,88.8935065 C19.7402597,89.3090909 23.0233766,89.5168831 26.4311688,89.5168831 Z M25.8077922,78.1714286 C23.812987,78.1714286 21.838961,78.025974 19.8857143,77.7350649 C17.9324675,77.4441558 16.2909091,76.8415584 14.961039,75.9272727 C13.6311688,75.012987 12.9662338,73.7246753 12.9662338,72.0623377 L12.9662338,72.0623377 L12.9662338,38.4 C15.1272727,37.1532468 17.4753247,36.238961 20.0103896,35.6571429 C22.5454545,35.0753247 24.8935065,34.7844156 27.0545455,34.7844156 C30.961039,34.7844156 34.161039,35.6155844 36.6545455,37.2779221 C39.1480519,38.9402597 41.0181818,41.3506494 42.2649351,44.5090909 C43.5116883,47.6675325 44.1350649,51.574026 44.1350649,56.2285714 C44.1350649,60.3012987 43.6363636,63.9792208 42.638961,67.2623377 C41.6415584,70.5454545 39.812987,73.1844156 37.1532468,75.1792208 C34.4935065,77.174026 30.7116883,78.1714286 25.8077922,78.1714286 Z M83.5074625,15.0857143 L83.5074625,3.24155844 L69.5438261,3.24155844 L69.5438261,15.0857143 L83.5074625,15.0857143 Z M83.1334365,87.6467532 L83.0087612,25.4337662 L69.9178521,25.4337662 L69.9178521,87.6467532 L83.1334365,87.6467532 Z M111.783726,87.6467532 L111.783726,1.37142857 L98.8174919,1.37142857 L98.8174919,87.6467532 L111.783726,87.6467532 Z M140.134791,87.6467532 L140.134791,1.37142857 L127.168557,1.37142857 L127.168557,87.6467532 L140.134791,87.6467532 Z" id="bill" fill="#203AA9"></path>
            <path d="M182.449493,89.5168831 C187.020921,89.5168831 191.135207,89.1220779 194.79235,88.3324675 C198.449493,87.5428571 201.73261,86.5246753 204.6417,85.2779221 L204.6417,85.2779221 L204.6417,73.1844156 C203.145597,73.9324675 201.358584,74.7012987 199.280662,75.4909091 C197.202739,76.2805195 194.937804,76.9246753 192.485856,77.4233766 C190.033908,77.9220779 187.394947,78.1714286 184.568973,78.1714286 C178.25209,78.1714286 173.472869,76.3636364 170.231311,72.7480519 C167.452832,69.6489796 165.86513,65.3133316 165.468205,59.7411079 L165.444927,59.3454545 L209.379363,59.3454545 C209.454168,52.9122078 208.737908,47.2027013 207.230584,42.2169351 L206.698843,40.5818182 C204.828713,35.2207792 201.815726,31.0441558 197.659882,28.0519481 C193.504038,25.0597403 188.059882,23.5636364 181.327415,23.5636364 C172.184558,23.5636364 165.057285,26.3688312 159.945597,31.9792208 C154.833908,37.5896104 152.278064,45.838961 152.278064,56.7272727 C152.278064,63.7922078 153.504038,69.7766234 155.955986,74.6805195 C158.407934,79.5844156 161.898843,83.2831169 166.428713,85.7766234 C170.958584,88.2701299 176.298843,89.5168831 182.449493,89.5168831 Z M196.063109,49.6207792 L165.767005,49.6207792 L165.820921,49.1688312 C166.06196,47.3651948 166.399415,45.7577143 166.833285,44.3463896 L167.176765,43.3246753 C168.38196,40.0415584 170.148194,37.7142857 172.475467,36.3428571 C174.802739,34.9714286 177.628713,34.2857143 180.953389,34.2857143 C186.106636,34.2857143 189.888454,35.761039 192.298843,38.7116883 C194.152989,40.9814186 195.367774,44.2716668 195.943199,48.582433 L196.063109,49.6207792 Z M244.076474,89.5168831 C249.562188,89.5168831 254.466084,89.1220779 258.788162,88.3324675 C263.11024,87.5428571 266.538811,86.0467532 269.073876,83.8441558 C271.608941,81.6415584 272.876474,78.5038961 272.876474,74.4311688 L272.876474,74.4311688 L272.876474,44.5090909 C272.876474,41.3506494 272.419331,38.6077922 271.505045,36.2805195 C270.590759,33.9532468 269.323227,31.9792208 267.702448,30.3584416 C266.081669,28.7376623 264.232318,27.4493506 262.154396,26.4935065 C260.076474,25.5376623 257.853097,24.8311688 255.484266,24.374026 C253.115435,23.9168831 250.767383,23.6883117 248.44011,23.6883117 C243.702448,23.6883117 239.11024,24.1662338 234.663487,25.1220779 C230.216733,26.0779221 226.82972,27.3454545 224.502448,28.9246753 L224.502448,28.9246753 L224.502448,41.1428571 C226.912837,39.1480519 229.988162,37.5896104 233.728422,36.4675325 C237.468682,35.3454545 241.084266,34.7844156 244.575175,34.7844156 C249.479071,34.7844156 253.260889,35.8025974 255.92063,37.838961 C258.58037,39.8753247 259.91024,43.0961039 259.91024,47.5012987 L259.91024,47.5012987 L259.907265,53.4077922 L259.025045,52.8997403 C258.667643,52.7085714 258.297772,52.5215584 257.915435,52.3387013 L256.731019,51.8025974 C254.694656,50.9298701 252.408941,50.2441558 249.873876,49.7454545 C247.338811,49.2467532 244.492058,48.9974026 241.333617,48.9974026 C236.595954,48.9974026 232.523227,49.7454545 229.115435,51.2415584 C225.707643,52.7376623 223.089461,54.9818182 221.260889,57.974026 C219.432318,60.9662338 218.518032,64.7896104 218.518032,69.4441558 C218.518032,73.3506494 219.245305,76.612987 220.69985,79.2311688 C222.154396,81.8493506 224.107643,83.9064935 226.559591,85.4025974 C229.011539,86.8987013 231.733617,87.9584416 234.725824,88.5818182 C237.718032,89.2051948 240.834915,89.5168831 244.076474,89.5168831 Z M245.572578,79.2935065 C243.245305,79.2935065 241.021928,78.9402597 238.902448,78.2337662 C236.782967,77.5272727 235.016733,76.4051948 233.603746,74.8675325 C232.190759,73.3298701 231.484266,71.3142857 231.484266,68.8207792 C231.484266,65.4961039 232.71024,63.0025974 235.162188,61.3402597 C237.614136,59.6779221 241.208941,58.8467532 245.946604,58.8467532 C249.52063,58.8467532 252.845305,59.2831169 255.92063,60.1558442 C257.238626,60.5298701 258.442124,60.9382454 259.531125,61.3809701 L259.907265,61.5480519 L259.91024,73.6831169 C259.91024,75.8524675 258.967695,77.3149091 257.082604,78.0704416 L256.419331,78.2961039 C254.092058,78.961039 250.476474,79.2935065 245.572578,79.2935065 Z M306.35176,89.5168831 C310.424488,89.5168831 314.37254,88.8519481 318.195916,87.5220779 C322.019293,86.1922078 325.115397,84.0727273 327.484228,81.1636364 C329.853059,78.2545455 331.079033,74.4727273 331.16215,69.8181818 C331.16215,66.3272727 330.559553,63.5012987 329.354358,61.3402597 C328.149163,59.1792208 326.590721,57.4337662 324.679033,56.1038961 C322.767345,54.774026 320.689423,53.7558442 318.445267,53.0493506 C316.201111,52.3428571 314.040072,51.6571429 311.96215,50.9922078 C309.717994,50.3272727 307.619293,49.6623377 305.666046,48.9974026 C303.712799,48.3324675 302.133579,47.4181818 300.928384,46.2545455 C299.723189,45.0909091 299.120592,43.5116883 299.120592,41.5168831 C299.120592,39.1896104 300.201111,37.4233766 302.36215,36.2181818 C304.523189,35.012987 307.224488,34.4103896 310.466046,34.4103896 C313.956955,34.4103896 317.03228,34.9922078 319.69202,36.1558442 C322.35176,37.3194805 325.177734,38.6909091 328.169942,40.2701299 L328.169942,40.2701299 L328.045267,29.0493506 C325.385527,27.6363636 322.663449,26.4311688 319.879033,25.4337662 C317.094617,24.4363636 313.499812,23.8961039 309.094617,23.812987 C306.434877,23.812987 303.712799,24.1662338 300.928384,24.8727273 C298.143968,25.5792208 295.608903,26.7012987 293.323189,28.238961 C291.037475,29.7766234 289.188124,31.7714286 287.775137,34.2233766 C286.36215,36.6753247 285.655656,39.6467532 285.655656,43.1376623 C285.655656,46.2961039 286.216695,48.9558442 287.338773,51.1168831 C288.460851,53.2779221 289.956955,55.0441558 291.827085,56.4155844 C293.697215,57.787013 295.754358,58.8675325 297.998514,59.6571429 C300.242669,60.4467532 302.486825,61.1324675 304.730981,61.7142857 C306.89202,62.4623377 308.969942,63.2103896 310.964747,63.9584416 C312.959553,64.7064935 314.601111,65.6207792 315.889423,66.7012987 C317.177734,67.7818182 317.82189,69.2779221 317.82189,71.1896104 C317.82189,73.4337662 316.803708,75.3038961 314.767345,76.8 C312.730981,78.2961039 309.925786,79.0441558 306.35176,79.0441558 C303.525786,79.0441558 300.969942,78.7532468 298.684228,78.1714286 C296.398514,77.5896104 294.216695,76.7792208 292.138773,75.7402597 C290.060851,74.7012987 287.941371,73.5168831 285.780332,72.187013 L285.780332,72.187013 L285.780332,84.5298701 C288.77254,85.9428571 291.827085,87.1272727 294.943968,88.0831169 C298.060851,89.038961 301.863449,89.5168831 306.35176,89.5168831 Z M370.322613,89.5168831 C374.894042,89.5168831 379.008327,89.1220779 382.66547,88.3324675 C386.322613,87.5428571 389.60573,86.5246753 392.514821,85.2779221 L392.514821,85.2779221 L392.514821,73.1844156 C391.018717,73.9324675 389.231704,74.7012987 387.153782,75.4909091 C385.07586,76.2805195 382.810925,76.9246753 380.358977,77.4233766 C377.907029,77.9220779 375.268068,78.1714286 372.442094,78.1714286 C366.125211,78.1714286 361.34599,76.3636364 358.104431,72.7480519 C355.325953,69.6489796 353.738251,65.3133316 353.341325,59.7411079 L353.320252,59.3454545 L397.252483,59.3454545 C397.327288,52.9122078 396.611029,47.2027013 395.103704,42.2169351 L394.571964,40.5818182 C392.701834,35.2207792 389.688847,31.0441558 385.533003,28.0519481 C381.377159,25.0597403 375.933003,23.5636364 369.200535,23.5636364 C360.057678,23.5636364 352.930405,26.3688312 347.818717,31.9792208 C342.707029,37.5896104 340.151185,45.838961 340.151185,56.7272727 C340.151185,63.7922078 341.377159,69.7766234 343.829107,74.6805195 C346.281055,79.5844156 349.771964,83.2831169 354.301834,85.7766234 C358.831704,88.2701299 364.171964,89.5168831 370.322613,89.5168831 Z M383.938433,49.6207792 L353.637135,49.6207792 L353.694042,49.1688312 C353.935081,47.3651948 354.272535,45.7577143 354.706405,44.3463896 L355.049886,43.3246753 C356.255081,40.0415584 358.021314,37.7142857 360.348587,36.3428571 C362.67586,34.9714286 365.501834,34.2857143 368.826509,34.2857143 C373.979756,34.2857143 377.761574,35.761039 380.171964,38.7116883 C382.02611,40.9814186 383.240895,44.2716668 383.816319,48.582433 L383.938433,49.6207792 Z" id="ease" fill="#F84040"></path>
        </g>
    </g>
</svg>