<svg width="120" height="36" viewBox="0 15 120 40" xmlns="http://www.w3.org/2000/svg">
<g fill="none" fill-rule="evenodd">
<path fill-rule="evenodd" clip-rule="evenodd" d="M47.4121 33.6558V25.3643C49.4046 25.3574 51.5977 25.1916 53.3826 25.8342C54.9254 26.3869 56.1153 27.4994 56.1499 29.5031C56.1845 31.5345 54.9254 32.6331 53.3757 33.1652C51.5631 33.7939 49.4184 33.6558 47.4121 33.6558ZM47.4121 23.3951V16.9485C48.8788 16.983 50.7121 16.8587 52.0058 17.3078C53.175 17.7154 54.1505 18.6068 54.1505 20.1476C54.1436 23.7889 50.47 23.402 47.4121 23.3951ZM44.0498 18.4479V32.3637C44.0498 33.1375 43.9599 33.8976 43.6347 34.4918C43.3718 34.9755 42.9636 35.3555 42.507 35.6112C42.3756 35.6803 42.3756 35.6526 42.3548 35.777C42.7077 35.8599 48.0486 35.8046 48.8788 35.8046C51.4801 35.8046 54.0606 35.7355 56.3367 34.5955C59.1386 33.1928 60.6537 29.9591 59.2977 27.0364C58.9864 26.3593 58.5713 25.9171 58.1493 25.5025C57.492 24.8599 56.5373 24.3348 55.6034 24.0169L54.6417 23.7406C54.5172 23.6853 54.614 23.7337 54.5587 23.6922C56.4405 23.3744 57.7273 21.7368 57.7273 19.5326C57.7273 17.9089 56.8348 16.9208 55.9908 16.3059C53.7769 14.696 50.0065 15.0276 47.3152 15.0276C46.236 15.0276 43.1781 14.9724 42.3479 15.0345C42.4032 15.4215 44.0498 15.4422 44.0498 18.4479Z" fill="#005667"/>
<path fill-rule="evenodd" clip-rule="evenodd" d="M63.9399 18.7381V32.3291C63.9399 33.9183 63.7047 34.9686 62.3902 35.7563C62.2726 35.8254 62.2519 35.8115 62.238 35.9428L68.0217 35.9566C68.0079 35.7079 67.7312 35.777 67.3022 35.3417C67.1915 35.2311 67.0808 35.1482 66.9771 35.01C66.3683 34.1809 66.3198 33.3863 66.3198 32.26V19.9611C66.4651 20.044 72.8922 28.3907 73.335 28.9849C74.1168 30.0352 75.1407 31.3203 75.957 32.3499C76.6765 33.255 78.1501 34.6231 78.9803 35.3486C79.2501 35.5835 80.9659 36.9654 81.3602 36.9654V19.2908C81.3602 17.7224 81.3187 16.3335 82.6401 15.4077C82.9445 15.1935 83.0275 15.2349 83.0621 15.0415L77.3891 15.0484C77.313 15.0622 77.3407 15.0553 77.2992 15.0829C77.4583 15.4077 78.8004 15.5873 78.9734 17.7707C79.0772 19.1181 79.008 20.7073 79.008 22.0823C79.008 22.87 79.0495 30.2286 79.0011 30.7952C78.9734 30.7538 78.8904 30.6639 78.842 30.6017L68.4368 17.059C68.1809 16.7274 67.9456 16.4165 67.6966 16.0641C67.2538 15.4353 67.4406 15.8291 67.0878 15.152C66.9978 14.9724 67.1016 15.0898 66.9771 15.0345H62.238C62.2588 15.1866 62.6946 15.4077 62.9714 15.6426C63.8223 16.3474 63.9399 17.6325 63.9399 18.7381Z" fill="#005667"/>
<path fill-rule="evenodd" clip-rule="evenodd" d="M88.4238 18.4479V32.6193C88.4238 35.5006 86.7496 35.5835 86.7358 35.9359C87.1301 36.005 93.4327 35.9567 93.5019 35.9221C93.4603 35.7217 93.2044 35.7494 92.81 35.3763C92.0213 34.63 91.8138 33.8216 91.8138 32.6608V18.3373C91.8138 16.9969 92.1044 16.0572 93.149 15.3455C93.3704 15.2004 93.4465 15.2073 93.5019 15.076C93.4949 15.0691 93.4811 15.0553 93.4742 15.0622L86.7219 15.0276C86.7565 15.2349 86.6527 15.0622 87.054 15.3386C88.1748 16.0986 88.4238 17.0107 88.4238 18.4479Z" fill="#005667"/>
<path fill-rule="evenodd" clip-rule="evenodd" d="M15 18.4824C15 18.7381 15.2421 18.9177 15.4635 19.201C15.6434 19.429 15.8233 19.6294 16.0101 19.8574L18.1824 22.4692C18.5698 22.9253 18.9019 23.3536 19.2893 23.7959C19.656 24.2173 19.995 24.6734 20.3755 25.1018L23.6617 29.0402C23.8277 28.9573 24.0768 28.7293 24.2428 28.598C24.4711 28.4183 25.8479 27.3681 25.9378 27.2506C25.7026 26.9259 25.4328 26.6011 25.1699 26.2557C23.2674 23.7406 21.3994 20.5553 21.3994 17.2111C21.3994 16.3266 21.5862 15.7946 21.7661 15.0346L15 15.0276V18.4824Z" fill="#E7470B"/>
<path fill-rule="evenodd" clip-rule="evenodd" d="M36.5229 29.5307C36.5714 27.0157 36.5298 24.1413 36.5298 21.564C36.5298 21.2807 36.35 21.1771 36.0317 20.9145C35.2707 20.2789 34.2814 19.5672 32.9392 19.4359C31.4103 19.2908 30.3449 20.0439 29.66 20.7487C28.2832 22.179 28.56 24.1068 29.5216 25.8272C29.8122 26.3524 30.1235 26.7462 30.4556 27.1815C31.016 27.9139 32.0468 28.8674 32.8908 29.3165C33.9424 29.8624 35.3676 30.1664 36.5229 29.5307Z" fill="#E7470B"/>
<path fill-rule="evenodd" clip-rule="evenodd" d="M27.2731 23.6508C27.4045 23.0634 27.4391 22.5729 27.619 21.9994C28.38 19.5534 30.4762 17.7569 33.0429 17.3769C33.6587 17.2871 34.3021 17.2871 34.9247 17.3769C35.575 17.4736 36.4398 17.7846 36.5228 17.7915V15.0484L24.6372 15.0276C24.5542 15.0484 24.5611 15.0691 24.5196 15.2902C24.1183 17.6464 24.8586 19.9749 26.0416 21.9717C26.3806 22.5521 26.8649 23.2569 27.2731 23.6508Z" fill="#E7470B"/>
<path fill-rule="evenodd" clip-rule="evenodd" d="M24.5474 30.0697C24.6096 30.277 26.3461 32.2877 26.6574 32.6677C26.7612 32.7921 26.8857 32.9026 26.9964 33.0201C27.3769 33.4278 27.9304 33.9183 28.4908 34.2154C29.0027 34.478 29.5078 34.6369 30.1166 34.5817C30.2965 34.5678 30.5386 34.4642 30.6562 34.5195C30.6424 34.7129 29.404 35.5006 29.1411 35.8116H36.5229L36.5298 30.9127C36.3776 30.9611 35.7688 31.2651 35.3191 31.4102C32.8562 32.2117 30.587 31.4585 28.6776 29.973C27.8059 29.2959 27.5845 28.9918 26.8581 28.3147C26.699 28.3976 26.4291 28.6325 26.2769 28.75C26.0279 28.9296 24.7134 29.9937 24.5474 30.0697Z" fill="#E7470B"/>
<path fill-rule="evenodd" clip-rule="evenodd" d="M15 35.7908C15.1453 35.7355 15.6642 35.2933 15.8094 35.1828L18.2516 33.2757C18.6183 32.9855 21.434 30.8229 21.5101 30.6985L19.8982 28.7638C19.7667 28.598 19.6283 28.4391 19.5038 28.2871C19.0126 27.6928 15.1107 22.9805 15.0069 22.9183L15 35.7908Z" fill="#E7470B"/>
<path fill-rule="evenodd" clip-rule="evenodd" d="M17.207 35.7977C19.8567 35.8392 22.7693 35.8046 25.4536 35.8046C25.3084 35.1344 23.4681 33.0684 22.8178 32.2669C22.7002 32.1218 22.5341 31.8938 22.3958 31.7833L17.8504 35.2864C17.6706 35.4246 17.3177 35.6595 17.207 35.7977Z" fill="#E7470B"/>
<path fill-rule="evenodd" clip-rule="evenodd" d="M87.2129 50.667L89.0947 50.6739C89.1016 49.4371 89.0947 48.2003 89.0947 46.9635C89.0947 46.3278 89.067 45.8787 89.3921 45.4019C89.9594 44.559 91.3915 44.5175 91.8689 45.3259C92.1525 45.8027 92.1179 46.314 92.1179 46.9359C92.1179 48.1796 92.0972 49.4371 92.1179 50.6808H93.9859C93.9859 49.5891 93.9859 48.5043 93.9859 47.4264C93.9859 46.3969 94.0897 45.3328 93.6192 44.5175C92.962 43.3843 91.2532 43.2531 90.0771 43.7782C89.8764 43.868 89.7104 43.9647 89.5443 44.0753C89.3714 44.1997 89.233 44.3517 89.0739 44.4553V40.3718L87.2129 40.3649V50.667Z" fill="#30A541"/>
<path fill-rule="evenodd" clip-rule="evenodd" d="M48.1039 48.7392C47.9932 48.9327 47.4467 49.7135 47.4121 49.8724C48.3115 50.7983 50.4907 51.1437 51.9436 50.5219C53.4518 49.8862 54.1989 48.2072 53.3065 46.7769C52.9467 46.2034 52.3864 45.6714 51.9021 45.2776C51.5216 44.9735 50.5945 44.2619 50.3109 43.9647C50.1102 43.7575 49.8058 43.4465 49.8335 42.9836C49.8889 41.9402 51.1757 41.8021 52.2272 42.2995C52.4071 42.3894 52.5524 42.4999 52.7115 42.5621C52.9121 42.2235 53.2165 41.8781 53.3964 41.5464C51.909 40.0263 47.848 40.5376 47.7926 43.025C47.7857 43.488 47.8687 43.8611 48.0555 44.2204C48.8373 45.7267 51.4662 46.5835 51.6392 47.9792C51.7568 48.912 51.1065 49.4716 50.2555 49.52C49.0379 49.5753 48.4914 48.8981 48.1039 48.7392Z" fill="#30A541"/>
<path fill-rule="evenodd" clip-rule="evenodd" d="M54.4826 43.8542C54.5725 44.248 57.1046 50.0451 57.1254 50.2317C57.1461 50.3906 56.731 51.358 56.6342 51.5445C55.9908 52.8366 55.5826 52.9264 54.3788 52.9333L54.365 54.177C56.2606 54.177 56.6342 53.9974 57.499 52.885C58.087 52.1249 58.5229 50.9227 58.9795 49.9346C59.443 48.9258 59.8789 47.9101 60.3355 46.8944L61.6984 43.8058L60.0933 43.5156C59.9965 43.8542 58.9034 46.618 58.6336 47.3781C58.4814 47.8065 58.3499 48.297 58.1839 48.6909L56.3644 43.5225L54.4826 43.8542Z" fill="#30A541"/>
<path fill-rule="evenodd" clip-rule="evenodd" d="M66.6035 46.618C66.7557 49.3266 65.0746 50.0452 64.445 49.2989C64.0022 48.7738 64.1268 47.9447 64.6872 47.3988C64.9016 47.1846 65.2337 47.0464 65.5727 46.9359C65.8771 46.8391 66.2991 46.6733 66.6035 46.618ZM62.8815 44.4415C62.9368 44.635 63.3381 45.0772 63.4419 45.319C63.6632 45.243 64.1406 44.6626 65.1853 44.6143C65.8771 44.5797 66.5689 45.0427 66.5828 45.6507C66.3475 45.7751 65.4828 45.9962 65.1714 46.086C64.6872 46.2242 64.2098 46.3693 63.7947 46.5835C62.9991 46.9981 62.3003 47.613 62.3418 48.836C62.3834 49.8793 63.089 50.6947 64.0507 50.826C64.8463 50.9365 65.4551 50.5288 66.0431 50.0797L66.5689 49.6721C66.5966 50.135 66.6104 50.2732 66.735 50.6739H68.7274C68.5752 50.1212 68.4715 49.8655 68.4507 49.216C68.4299 48.6356 68.4438 48.0345 68.4438 47.4472C68.4438 46.39 68.5683 45.1256 67.9872 44.4001C67.496 43.792 66.5274 43.4466 65.4205 43.4742C64.5419 43.5087 63.4488 43.8404 62.8815 44.4415Z" fill="#30A541"/>
<path fill-rule="evenodd" clip-rule="evenodd" d="M83.5742 46.618C83.7541 50.2317 80.8276 50.2179 81.1805 48.2349C81.2566 47.8203 81.4434 47.5854 81.6717 47.385C81.9899 47.1017 83.1453 46.6733 83.5742 46.618ZM79.8452 44.4415C79.8867 44.5659 80.3364 45.2016 80.4402 45.3259C80.883 44.9943 81.3465 44.6626 82.1283 44.6212C82.8685 44.5797 83.5327 45.0565 83.5534 45.6576C82.6195 46.1551 79.1949 46.238 79.3125 48.8429C79.3817 50.3699 80.8761 51.4547 82.4673 50.4597C82.827 50.2317 83.4843 49.6997 83.5465 49.6721C83.5604 50.1281 83.5811 50.2939 83.7126 50.6808H85.705C85.5459 50.0452 85.456 50.1074 85.4283 49.2229C85.4075 48.6425 85.4214 48.0414 85.4214 47.4541C85.4214 46.4107 85.539 45.1394 84.9717 44.4139C84.1968 43.412 82.2044 43.26 80.9452 43.7713C80.5924 43.9095 80.0389 44.2273 79.8452 44.4415Z" fill="#30A541"/>
<path fill-rule="evenodd" clip-rule="evenodd" d="M72.1173 44.8768L72.1104 43.6538L70.2563 43.6469L70.2424 50.6601L72.1242 50.667C72.1242 49.8448 72.0896 47.385 72.145 46.7493C72.2003 46.1067 72.3802 45.6783 72.7538 45.3812C72.9336 45.2361 73.2104 45.1463 73.5286 45.167C73.8953 45.1877 74.0198 45.3121 74.2965 45.395L74.9815 44.1237C74.7186 43.7851 73.9714 43.2461 73.2865 43.564C73.072 43.6676 72.7814 43.9924 72.6431 44.1651L72.1173 44.8768Z" fill="#30A541"/>
<path fill-rule="evenodd" clip-rule="evenodd" d="M75.874 50.6739H77.7627V43.6676L75.874 43.6538V50.6739Z" fill="#30A541"/>
<path fill-rule="evenodd" clip-rule="evenodd" d="M76.6003 40.4892C75.1336 40.7932 75.5902 43.0112 77.0707 42.7072C77.5965 42.6035 78.0669 42.0231 77.9217 41.3391C77.804 40.8416 77.2298 40.3579 76.6003 40.4892Z" fill="#30A541"/>
</g>
</svg>