<svg width="56" height="56" viewBox="0 0 56 56" fill="none" xmlns="http://www.w3.org/2000/svg">
<circle cx="28" cy="28" r="28" fill="#ECFAFF"/>
<path d="M38.5 14.5H32.23C31.6 12.76 29.95 11.5 28 11.5C26.05 11.5 24.4 12.76 23.77 14.5H17.5C15.85 14.5 14.5 15.85 14.5 17.5V38.5C14.5 40.15 15.85 41.5 17.5 41.5H38.5C40.15 41.5 41.5 40.15 41.5 38.5V17.5C41.5 15.85 40.15 14.5 38.5 14.5ZM28 14.5C28.825 14.5 29.5 15.175 29.5 16C29.5 16.825 28.825 17.5 28 17.5C27.175 17.5 26.5 16.825 26.5 16C26.5 15.175 27.175 14.5 28 14.5ZM25 35.5L19 29.5L21.115 27.385L25 31.255L34.885 21.37L37 23.5L25 35.5Z" fill="#4573FF"/>
</svg>
