<svg width="84" height="84" viewBox="0 0 84 84" fill="none" xmlns="http://www.w3.org/2000/svg">
<g clip-path="url(#clip0)">
<path opacity="0.18" d="M29.926 14.9786C23.4409 18.7322 15.2612 19.6103 9.47671 24.2923C7.43479 25.9467 5.78682 28.0129 4.45912 30.2312C0.143714 37.4486 -0.741921 46.4567 2.09542 54.3155C4.93276 62.1742 11.4435 68.7488 19.5044 71.8969C23.3597 73.4021 27.4931 74.1439 31.6236 74.6619C39.2386 75.6153 46.9347 75.8364 54.596 75.3219C59.4392 74.9962 64.553 74.2616 68.279 71.2914C70.763 69.3113 72.3808 66.5176 73.6319 63.6694C77.0147 55.925 78.0605 47.4321 76.6511 39.1504C75.7896 34.1412 74.0078 29.2383 71.0727 25.0054C66.1348 17.8813 58.3641 13.2079 50.4009 9.65235C47.2748 8.2634 43.2797 5.83847 39.7943 7.24177C36.13 8.71968 33.4174 12.9583 29.926 14.9786Z" fill="#4573FF"/>
<path opacity="0.52" d="M2.5813 75.035C1.89715 75.1598 1.17842 75.3048 0.659668 75.7524C-0.329717 76.599 -0.126727 78.2233 0.742368 79.1818C1.61146 80.1403 2.93465 80.5865 4.2007 80.9524C14.7742 83.9871 26.0033 84.0087 37.0429 84.0044C40.4155 84.0044 43.8768 83.9871 47.0269 82.8364C49.2102 82.04 51.1484 80.7286 53.3016 79.8576C61.3835 76.5861 70.8398 79.9796 79.3849 78.0554C80.3879 77.8301 81.5021 77.4197 81.8509 76.4943C82.5561 74.6289 79.7052 73.4882 77.6257 73.3906C68.5025 72.9604 59.3617 73.0016 50.2432 73.514C42.9581 73.923 36.3211 71.8596 29.009 72.1423C20.137 72.482 11.3035 73.4488 2.5813 75.035Z" fill="url(#paint0_linear)"/>
<path d="M44.1801 73.3806H41.7593C40.9322 73.3806 40.1388 73.0676 39.5531 72.5103C38.9674 71.953 38.6372 71.1968 38.6348 70.4075V2.98165C38.6352 2.19099 38.9645 1.43281 39.5504 0.873726C40.1362 0.31464 40.9307 0.00038022 41.7593 0H44.1801C43.3515 0 42.5567 0.314138 41.9708 0.873307C41.3848 1.43248 41.0556 2.19087 41.0556 2.98165V70.4075C41.0576 71.1969 41.3877 71.9533 41.9735 72.5107C42.5593 73.0681 43.3529 73.3809 44.1801 73.3806Z" fill="#4573FF"/>
<path d="M44.1801 73.3806H41.7593C40.9322 73.3806 40.1388 73.0676 39.5531 72.5103C38.9674 71.953 38.6372 71.1968 38.6348 70.4075V2.98165C38.6352 2.19099 38.9645 1.43281 39.5504 0.873726C40.1362 0.31464 40.9307 0.00038022 41.7593 0H44.1801C43.3515 0 42.5567 0.314138 41.9708 0.873307C41.3848 1.43248 41.0556 2.19087 41.0556 2.98165V70.4075C41.0576 71.1969 41.3877 71.9533 41.9735 72.5107C42.5593 73.0681 43.3529 73.3809 44.1801 73.3806Z" fill="url(#paint1_linear)"/>
<path d="M21.4326 23.2133C21.4326 23.2133 14.5565 31.7306 15.2572 35.5531C15.9579 39.3756 17.6464 43.2698 17.6464 43.2698L22.2595 24.4731L21.4326 23.2133Z" fill="#4573FF"/>
<path d="M21.4326 23.2133C21.4326 23.2133 14.5565 31.7306 15.2572 35.5531C15.9579 39.3756 17.6464 43.2698 17.6464 43.2698L22.2595 24.4731L21.4326 23.2133Z" fill="url(#paint2_linear)"/>
<path d="M80.8743 0H44.1753C42.4497 0 41.0508 1.33493 41.0508 2.98165V70.3989C41.0508 72.0456 42.4497 73.3806 44.1753 73.3806H80.8743C82.5999 73.3806 83.9988 72.0456 83.9988 70.3989V2.98165C83.9988 1.33493 82.5999 0 80.8743 0Z" fill="#4573FF"/>
<path opacity="0.34" d="M62.9674 8.26907H44.4638C44.3199 8.26907 44.1774 8.242 44.0445 8.18942C43.9116 8.13683 43.7909 8.05976 43.6892 7.96261C43.5876 7.86546 43.507 7.75013 43.452 7.62323C43.3971 7.49633 43.3689 7.36035 43.3691 7.22305C43.3691 6.94601 43.4845 6.68032 43.6898 6.48442C43.895 6.28852 44.1735 6.17847 44.4638 6.17847H62.9674C63.2579 6.17847 63.5364 6.28847 63.742 6.48433C63.9475 6.68019 64.0631 6.94588 64.0635 7.22305C64.0635 7.50047 63.9481 7.76653 63.7425 7.9627C63.5369 8.15886 63.2581 8.26907 62.9674 8.26907Z" fill="white"/>
<path opacity="0.34" d="M62.9674 18.9288H44.4638C44.1748 18.9288 43.8975 18.8197 43.6924 18.6254C43.4873 18.431 43.3711 18.1672 43.3691 17.8914C43.3689 17.7541 43.3971 17.6181 43.452 17.4912C43.507 17.3643 43.5876 17.2489 43.6892 17.1518C43.7909 17.0546 43.9116 16.9776 44.0445 16.925C44.1774 16.8724 44.3199 16.8453 44.4638 16.8453H62.9674C63.2581 16.8453 63.5369 16.9555 63.7425 17.1517C63.9481 17.3479 64.0635 17.6139 64.0635 17.8914C64.0612 18.1673 63.9446 18.4311 63.7393 18.6254C63.534 18.8198 63.2566 18.9288 62.9674 18.9288Z" fill="white"/>
<path opacity="0.34" d="M62.9674 29.5884H44.4638C44.1735 29.5884 43.895 29.4784 43.6898 29.2825C43.4845 29.0866 43.3691 28.8209 43.3691 28.5438C43.3689 28.4065 43.3971 28.2705 43.452 28.1436C43.507 28.0167 43.5876 27.9014 43.6892 27.8043C43.7909 27.7071 43.9116 27.63 44.0445 27.5775C44.1774 27.5249 44.3199 27.4978 44.4638 27.4978H62.9674C63.2581 27.4978 63.5369 27.608 63.7425 27.8042C63.9481 28.0003 64.0635 28.2664 64.0635 28.5438C64.0631 28.821 63.9475 29.0867 63.742 29.2825C63.5364 29.4784 63.2579 29.5884 62.9674 29.5884Z" fill="white"/>
<path opacity="0.34" d="M62.9674 40.2495H44.4638C44.1733 40.2491 43.8949 40.1387 43.6897 39.9426C43.4844 39.7465 43.3691 39.4807 43.3691 39.2035C43.3689 39.0662 43.3971 38.9302 43.452 38.8033C43.507 38.6764 43.5876 38.5611 43.6892 38.4639C43.7909 38.3668 43.9116 38.2897 44.0445 38.2371C44.1774 38.1845 44.3199 38.1575 44.4638 38.1575H62.9674C63.2581 38.1575 63.5369 38.2677 63.7425 38.4638C63.9481 38.66 64.0635 38.9261 64.0635 39.2035C64.0631 39.4808 63.9475 39.7466 63.742 39.9427C63.5366 40.1388 63.258 40.2491 62.9674 40.2495Z" fill="white"/>
<path opacity="0.34" d="M62.9674 50.9092H44.4638C44.1733 50.9088 43.8949 50.7984 43.6897 50.6023C43.4844 50.4062 43.3691 50.1403 43.3691 49.8632C43.3689 49.7259 43.3971 49.5899 43.452 49.463C43.507 49.3361 43.5876 49.2207 43.6892 49.1236C43.7909 49.0264 43.9116 48.9494 44.0445 48.8968C44.1774 48.8442 44.3199 48.8171 44.4638 48.8171H62.9674C63.2581 48.8171 63.5369 48.9273 63.7425 49.1235C63.9481 49.3197 64.0635 49.5857 64.0635 49.8632C64.0631 50.1405 63.9475 50.4063 63.742 50.6024C63.5366 50.7985 63.258 50.9088 62.9674 50.9092Z" fill="white"/>
<path opacity="0.34" d="M62.9674 61.5687H44.4638C44.3199 61.5687 44.1774 61.5417 44.0445 61.4891C43.9116 61.4365 43.7909 61.3594 43.6892 61.2623C43.5876 61.1651 43.507 61.0498 43.452 60.9229C43.3971 60.796 43.3689 60.66 43.3691 60.5227C43.3691 60.2455 43.4844 59.9797 43.6897 59.7836C43.8949 59.5874 44.1733 59.4771 44.4638 59.4767H62.9674C63.258 59.4771 63.5366 59.5874 63.742 59.7835C63.9475 59.9796 64.0631 60.2454 64.0635 60.5227C64.0635 60.8001 63.9481 61.0662 63.7425 61.2624C63.5369 61.4585 63.2581 61.5687 62.9674 61.5687Z" fill="white"/>
<path d="M18.2282 45.6618C19.5289 43.2756 25.8621 48.4167 26.6621 50.9708C27.462 53.5248 22.2594 62.4956 19.5589 65.2649C16.8584 68.0342 11.8529 70.5123 8.65465 71.3717C8.65465 71.3717 7.52694 69.9369 7.75248 69.3471C7.97802 68.7574 14.606 64.1472 15.2059 61.3621C15.8059 58.577 16.9276 48.0494 18.2282 45.6618Z" fill="#302F47"/>
<path d="M48.7925 23.4486C48.7925 23.4486 47.9926 21.2318 48.1264 20.9878C48.2602 20.7439 49.0376 20.1814 49.4045 20.51C49.7714 20.8386 50.5157 22.8761 50.5157 22.8761L58.327 20.3307C58.327 20.3307 59.1991 20.2015 59.1074 21.1112C59.0157 22.0209 50.6104 25.2092 50.6104 25.2092C50.6104 25.2092 49.9263 25.8779 48.7925 23.4486Z" fill="#4573FF"/>
<path d="M48.7925 23.4486C48.7925 23.4486 47.9926 21.2318 48.1264 20.9878C48.2602 20.7439 49.0376 20.1814 49.4045 20.51C49.7714 20.8386 50.5157 22.8761 50.5157 22.8761L58.327 20.3307C58.327 20.3307 59.1991 20.2015 59.1074 21.1112C59.0157 22.0209 50.6104 25.2092 50.6104 25.2092C50.6104 25.2092 49.9263 25.8779 48.7925 23.4486Z" fill="url(#paint3_linear)"/>
<path d="M30.0925 10.8706C30.0925 10.8706 32.5299 14.9312 32.0472 17.392C31.5645 19.8528 30.1857 19.3004 29.697 20.5731C29.3906 21.4077 29.1937 22.2752 29.1106 23.1559C29.1106 23.1559 27.6957 24.2521 25.1621 21.269C25.3877 20.0547 25.2512 18.8043 24.7681 17.6603C23.9607 15.8223 24.3967 9.18746 30.0925 10.8706Z" fill="url(#paint4_linear)"/>
<path d="M22.58 8.77563C18.848 12.1734 17.3173 10.1129 15.4528 11.0528C13.5883 11.9926 12.8711 12.3284 13.5477 15.8682C14.2244 19.408 10.8893 18.6432 10.0894 20.7855C7.80237 26.908 11.593 27.977 15.8242 27.8077C20.0554 27.6384 19.6569 20.2689 22.7755 19.9834C25.894 19.6978 26.5345 20.1426 27.7961 16.3202C28.5389 14.0717 28.0096 13.0903 29.0185 12.3269C30.3071 11.3527 30.7567 9.24196 29.411 8.3423C27.9299 7.35224 24.9542 6.61472 22.58 8.77563Z" fill="#3F3D56"/>
<path d="M22.3139 22.6522C22.3139 22.6522 22.0027 21.2949 23.0252 20.8285C24.0476 20.3622 26.9782 20.1369 27.3857 20.8285C27.7931 21.5201 28.2397 23.087 28.6758 23.1243C29.1118 23.1616 30.9026 25.8793 30.9026 25.8793C30.9026 25.8793 31.277 33.4295 31.2981 36.361C31.3327 41.0185 28.4081 48.289 24.3709 47.6964C20.3337 47.1038 17.3881 46.0334 17.4542 44.0361C17.5204 42.0387 20.9306 26.9913 20.687 25.2967C20.4224 23.4687 22.2448 22.5891 22.3139 22.6522Z" fill="#4573FF"/>
<path d="M22.3139 22.6522C22.3139 22.6522 22.0027 21.2949 23.0252 20.8285C24.0476 20.3622 26.9782 20.1369 27.3857 20.8285C27.7931 21.5201 28.2397 23.087 28.6758 23.1243C29.1118 23.1616 30.9026 25.8793 30.9026 25.8793C30.9026 25.8793 31.277 33.4295 31.2981 36.361C31.3327 41.0185 28.4081 48.289 24.3709 47.6964C20.3337 47.1038 17.3881 46.0334 17.4542 44.0361C17.5204 42.0387 20.9306 26.9913 20.687 25.2967C20.4224 23.4687 22.2448 22.5891 22.3139 22.6522Z" fill="url(#paint5_linear)"/>
<path d="M25.9402 25.0069C25.9402 25.0069 27.4949 22.0798 29.6992 23.859C31.9035 25.6382 34.6086 32.2171 36.4911 32.2544C38.3736 32.2917 46.1143 26.3399 46.7894 26.878C47.4646 27.416 48.6374 28.7591 48.0059 29.9055C47.3743 31.052 38.7195 38.2837 34.992 37.6065C31.2645 36.9292 23.3193 32.0722 25.9402 25.0069Z" fill="#4573FF"/>
<path d="M25.9402 25.0069C25.9402 25.0069 27.4949 22.0798 29.6992 23.859C31.9035 25.6382 34.6086 32.2171 36.4911 32.2544C38.3736 32.2917 46.1143 26.3399 46.7894 26.878C47.4646 27.416 48.6374 28.7591 48.0059 29.9055C47.3743 31.052 38.7195 38.2837 34.992 37.6065C31.2645 36.9292 23.3193 32.0722 25.9402 25.0069Z" fill="url(#paint6_linear)"/>
<path d="M47.0371 27.0933C47.0371 27.0933 48.6099 24.2981 48.7392 23.7931C48.8685 23.288 49.261 24.047 49.261 24.047C49.261 24.047 50.6142 23.0283 50.8398 22.5835C51.0653 22.1387 53.0245 21.4499 53.9087 21.5604C54.7928 21.6709 53.3072 22.1889 53.3072 22.1889C53.3072 22.1889 52.6065 22.4945 52.2396 24.1733C51.8728 25.8521 51.5014 27.2884 49.8775 27.9929C48.2535 28.6974 48.1498 28.8538 48.1498 28.8538C48.1498 28.8538 47.7664 27.3759 47.0371 27.0933Z" fill="url(#paint7_linear)"/>
<path d="M18.2271 45.6618C18.2271 45.6618 16.2904 49.8918 19.8916 53.8406C23.4928 57.7893 26.1783 60.8714 25.4189 66.9825C24.6596 73.0936 26.4805 76.2432 26.4805 76.2432H28.6036C28.6036 76.2432 31.8981 64.9221 31.3297 60.1282C30.7613 55.3343 28.2818 45.6762 28.2818 45.6762C28.2818 45.6762 23.4296 43.4665 18.2271 45.6618Z" fill="#3F3D56"/>
<path d="M26.4805 76.2402V78.823H32.3296C32.3296 78.823 28.8276 78.2189 28.7284 77.5316C28.6291 76.8443 28.6036 76.2402 28.6036 76.2402H26.4805Z" fill="url(#paint8_linear)"/>
<path d="M26.915 78.0295C26.6503 77.9778 26.321 77.9147 26.1541 78.117C26.0992 78.1926 26.0641 78.2797 26.0519 78.371C25.9998 78.6217 25.9806 78.8776 25.9947 79.1329C26.0053 79.3237 26.0519 79.539 26.2248 79.6337C26.3334 79.6809 26.4535 79.6993 26.5721 79.6867L32.6378 79.5806C32.8693 79.5806 33.137 79.5562 33.2678 79.3739C33.3271 79.2842 33.3535 79.1782 33.343 79.0726C33.3262 78.9291 33.2773 78.7908 33.1994 78.667C33.1216 78.5431 33.0167 78.4368 32.8919 78.3552C32.6404 78.1915 32.3611 78.0706 32.0664 77.9979C31.3146 77.7798 30.1117 77.3723 29.3689 77.6693C28.5584 77.9893 27.8096 78.2088 26.915 78.0295Z" fill="#3F3D56"/>
<path d="M7.69291 69.7346L5.28711 70.9069L8.21617 75.7381C8.21617 75.7381 7.01327 72.5427 7.58164 72.1179C8.15001 71.6932 8.68831 71.3704 8.68831 71.3704L7.69291 69.7346Z" fill="url(#paint9_linear)"/>
<path d="M6.2139 70.871C6.1297 70.6256 6.02144 70.3228 5.75379 70.2855C5.6584 70.2772 5.56232 70.2915 5.47412 70.3271C5.22014 70.4107 4.97778 70.5234 4.75238 70.6629C4.58548 70.7662 4.41406 70.9126 4.41406 71.1034C4.42563 71.2164 4.46873 71.3244 4.53886 71.4162C5.58338 73.0692 6.6279 74.7221 7.67242 76.3751C7.79271 76.5631 7.94608 76.774 8.17613 76.7912C8.28729 76.7949 8.39663 76.7636 8.48738 76.7023C8.61075 76.6169 8.71323 76.507 8.78774 76.3802C8.86225 76.2533 8.90701 76.1126 8.91892 75.9676C8.9414 75.6779 8.91139 75.3867 8.83021 75.1067C8.65428 74.3792 8.41671 73.1754 7.77767 72.7133C7.07398 72.2068 6.49959 71.6989 6.2139 70.871Z" fill="#3F3D56"/>
<path opacity="0.34" d="M75.793 3.45654H69.5274C69.0549 3.45654 68.6719 3.82208 68.6719 4.27298V9.29789C68.6719 9.74879 69.0549 10.1143 69.5274 10.1143H75.793C76.2656 10.1143 76.6486 9.74879 76.6486 9.29789V4.27298C76.6486 3.82208 76.2656 3.45654 75.793 3.45654Z" fill="white"/>
<path opacity="0.34" d="M75.793 15.0273H69.5274C69.0549 15.0273 68.6719 15.3929 68.6719 15.8438V20.8687C68.6719 21.3196 69.0549 21.6851 69.5274 21.6851H75.793C76.2656 21.6851 76.6486 21.3196 76.6486 20.8687V15.8438C76.6486 15.3929 76.2656 15.0273 75.793 15.0273Z" fill="white"/>
<path opacity="0.34" d="M75.793 25.5264H69.5274C69.0549 25.5264 68.6719 25.8919 68.6719 26.3428V31.3677C68.6719 31.8186 69.0549 32.1841 69.5274 32.1841H75.793C76.2656 32.1841 76.6486 31.8186 76.6486 31.3677V26.3428C76.6486 25.8919 76.2656 25.5264 75.793 25.5264Z" fill="white"/>
<path opacity="0.34" d="M75.793 46.299H69.5274C69.0549 46.299 68.6719 46.6645 68.6719 47.1154V52.1403C68.6719 52.5912 69.0549 52.9567 69.5274 52.9567H75.793C76.2656 52.9567 76.6486 52.5912 76.6486 52.1403V47.1154C76.6486 46.6645 76.2656 46.299 75.793 46.299Z" fill="white"/>
<path opacity="0.34" d="M75.793 35.873H69.5274C69.0549 35.873 68.6719 36.2386 68.6719 36.6895V41.7144C68.6719 42.1653 69.0549 42.5308 69.5274 42.5308H75.793C76.2656 42.5308 76.6486 42.1653 76.6486 41.7144V36.6895C76.6486 36.2386 76.2656 35.873 75.793 35.873Z" fill="white"/>
<path opacity="0.34" d="M75.793 57.1938H69.5274C69.0549 57.1938 68.6719 57.5594 68.6719 58.0103V63.0352C68.6719 63.4861 69.0549 63.8516 69.5274 63.8516H75.793C76.2656 63.8516 76.6486 63.4861 76.6486 63.0352V58.0103C76.6486 57.5594 76.2656 57.1938 75.793 57.1938Z" fill="white"/>
<path d="M69.2301 5.81401L70.6646 8.1098C71.1157 8.82723 71.8915 8.97072 72.4539 8.45704L77.3091 3.99747C77.3091 3.99747 77.7602 3.38191 77.2805 2.90554C76.8009 2.42916 76.4039 2.97728 76.4039 2.97728L72.1035 6.92029C71.8314 7.15705 71.46 7.07956 71.2495 6.7395L70.1067 4.89283C69.8917 4.54702 69.4932 4.51546 69.2572 4.834C69.1603 4.97979 69.1067 5.14789 69.1019 5.32044C69.0971 5.49299 69.1414 5.66356 69.2301 5.81401Z" fill="#4573FF"/>
<path d="M69.2308 17.1739L70.6653 19.4697C71.1164 20.1799 71.8923 20.3306 72.4546 19.8169L77.3098 15.3573C77.3098 15.3573 77.7609 14.7418 77.2813 14.2654C76.8016 13.789 76.4046 14.3371 76.4046 14.3371L72.1043 18.2802C71.8321 18.5169 71.4607 18.4394 71.2502 18.0994L70.1075 16.2527C69.8909 15.904 69.494 15.8725 69.2579 16.1853C69.1593 16.332 69.1047 16.5017 69.1 16.676C69.0952 16.8502 69.1404 17.0224 69.2308 17.1739Z" fill="#4573FF"/>
<path d="M69.2308 38.8189L70.6653 41.1146C71.1164 41.8249 71.8923 41.9756 72.4546 41.4619L77.3098 37.0009C77.3098 37.0009 77.7609 36.3853 77.2813 35.909C76.8016 35.4326 76.4046 35.9807 76.4046 35.9807L72.1043 39.9251C71.8321 40.1619 71.4607 40.083 71.2502 39.7443L70.1075 37.8977C69.8909 37.549 69.494 37.5174 69.2579 37.8302C69.1593 37.977 69.1047 38.1467 69.1 38.321C69.0952 38.4952 69.1404 38.6674 69.2308 38.8189Z" fill="#4573FF"/>
<path d="M69.2308 49.3222L70.6653 51.618C71.1164 52.3282 71.8923 52.4789 72.4546 51.9652L77.3098 47.5056C77.3098 47.5056 77.7609 46.8886 77.2813 46.4123C76.8016 45.9359 76.4046 46.484 76.4046 46.484L72.1043 50.4285C71.8321 50.6652 71.4607 50.5863 71.2502 50.2477L70.1075 48.401C69.8909 48.0523 69.494 48.0207 69.2579 48.3335C69.1593 48.4803 69.1047 48.65 69.1 48.8243C69.0952 48.9985 69.1404 49.1707 69.2308 49.3222Z" fill="#4573FF"/>
<path d="M69.2316 59.5528L70.6661 61.8486C71.1172 62.566 71.893 62.7095 72.4554 62.1972L77.3106 57.7362C77.3106 57.7362 77.7617 57.1207 77.282 56.6443C76.8024 56.1679 76.4054 56.716 76.4054 56.716L72.105 60.6591C71.8329 60.8973 71.4615 60.8183 71.251 60.4783L70.1082 58.6416C69.8917 58.293 69.4947 58.2614 69.2587 58.5742C69.1621 58.7198 69.1086 58.8877 69.1039 59.0599C69.0991 59.2322 69.1432 59.4025 69.2316 59.5528Z" fill="#4573FF"/>
<path d="M69.2301 5.81401L70.6646 8.1098C71.1157 8.82723 71.8915 8.97072 72.4539 8.45704L77.3091 3.99747C77.3091 3.99747 77.7602 3.38191 77.2805 2.90554C76.8009 2.42916 76.4039 2.97728 76.4039 2.97728L72.1035 6.92029C71.8314 7.15705 71.46 7.07956 71.2495 6.7395L70.1067 4.89283C69.8917 4.54702 69.4932 4.51546 69.2572 4.834C69.1603 4.97979 69.1067 5.14789 69.1019 5.32044C69.0971 5.49299 69.1414 5.66356 69.2301 5.81401Z" fill="url(#paint10_linear)"/>
<path d="M69.2308 17.1739L70.6653 19.4697C71.1164 20.1799 71.8923 20.3306 72.4546 19.8169L77.3098 15.3573C77.3098 15.3573 77.7609 14.7418 77.2813 14.2654C76.8016 13.789 76.4046 14.3371 76.4046 14.3371L72.1043 18.2802C71.8321 18.5169 71.4607 18.4394 71.2502 18.0994L70.1075 16.2527C69.8909 15.904 69.494 15.8725 69.2579 16.1853C69.1593 16.332 69.1047 16.5017 69.1 16.676C69.0952 16.8502 69.1404 17.0224 69.2308 17.1739Z" fill="url(#paint11_linear)"/>
<path d="M69.2308 38.8189L70.6653 41.1146C71.1164 41.8249 71.8923 41.9756 72.4546 41.4619L77.3098 37.0009C77.3098 37.0009 77.7609 36.3853 77.2813 35.909C76.8016 35.4326 76.4046 35.9807 76.4046 35.9807L72.1043 39.9251C71.8321 40.1619 71.4607 40.083 71.2502 39.7443L70.1075 37.8977C69.8909 37.549 69.494 37.5174 69.2579 37.8302C69.1593 37.977 69.1047 38.1467 69.1 38.321C69.0952 38.4952 69.1404 38.6674 69.2308 38.8189Z" fill="url(#paint12_linear)"/>
<path d="M69.2308 49.3222L70.6653 51.618C71.1164 52.3282 71.8923 52.4789 72.4546 51.9652L77.3098 47.5056C77.3098 47.5056 77.7609 46.8886 77.2813 46.4123C76.8016 45.9359 76.4046 46.484 76.4046 46.484L72.1043 50.4285C71.8321 50.6652 71.4607 50.5863 71.2502 50.2477L70.1075 48.401C69.8909 48.0523 69.494 48.0207 69.2579 48.3335C69.1593 48.4803 69.1047 48.65 69.1 48.8243C69.0952 48.9985 69.1404 49.1707 69.2308 49.3222Z" fill="url(#paint13_linear)"/>
<path d="M69.2316 59.5528L70.6661 61.8486C71.1172 62.566 71.893 62.7095 72.4554 62.1972L77.3106 57.7362C77.3106 57.7362 77.7617 57.1207 77.282 56.6443C76.8024 56.1679 76.4054 56.716 76.4054 56.716L72.105 60.6591C71.8329 60.8973 71.4615 60.8183 71.251 60.4783L70.1082 58.6416C69.8917 58.293 69.4947 58.2614 69.2587 58.5742C69.1621 58.7198 69.1086 58.8877 69.1039 59.0599C69.0991 59.2322 69.1432 59.4025 69.2316 59.5528Z" fill="url(#paint14_linear)"/>
</g>
<defs>
<linearGradient id="paint0_linear" x1="41.3899" y1="63.4528" x2="39.2304" y2="140.058" gradientUnits="userSpaceOnUse">
<stop stop-opacity="0"/>
<stop offset="0.98"/>
</linearGradient>
<linearGradient id="paint1_linear" x1="2693.65" y1="11437.8" x2="-1348.61" y2="11683.5" gradientUnits="userSpaceOnUse">
<stop stop-opacity="0"/>
<stop offset="0.98"/>
</linearGradient>
<linearGradient id="paint2_linear" x1="1183.81" y1="4518.89" x2="1995.24" y2="4626.55" gradientUnits="userSpaceOnUse">
<stop stop-opacity="0"/>
<stop offset="0.98"/>
</linearGradient>
<linearGradient id="paint3_linear" x1="4824.88" y1="674.116" x2="4619.49" y2="1529.36" gradientUnits="userSpaceOnUse">
<stop stop-opacity="0"/>
<stop offset="0.98"/>
</linearGradient>
<linearGradient id="paint4_linear" x1="24.4569" y1="16.9745" x2="32.1103" y2="16.9745" gradientUnits="userSpaceOnUse">
<stop stop-color="#ECC4D7"/>
<stop offset="0.42" stop-color="#EFD4D1"/>
<stop offset="1" stop-color="#F2EAC9"/>
</linearGradient>
<linearGradient id="paint5_linear" x1="3607.81" y1="6721.48" x2="-2652.71" y2="6258.26" gradientUnits="userSpaceOnUse">
<stop stop-opacity="0"/>
<stop offset="0.98"/>
</linearGradient>
<linearGradient id="paint6_linear" x1="7093.58" y1="3072.58" x2="6907.82" y2="5242.73" gradientUnits="userSpaceOnUse">
<stop stop-opacity="0"/>
<stop offset="0.98"/>
</linearGradient>
<linearGradient id="paint7_linear" x1="2764.83" y1="1336.28" x2="3105" y2="1336.28" gradientUnits="userSpaceOnUse">
<stop stop-color="#ECC4D7"/>
<stop offset="0.42" stop-color="#EFD4D1"/>
<stop offset="1" stop-color="#F2EAC9"/>
</linearGradient>
<linearGradient id="paint8_linear" x1="1449.51" y1="1482.89" x2="1677.04" y2="1482.89" gradientUnits="userSpaceOnUse">
<stop stop-color="#ECC4D7"/>
<stop offset="0.42" stop-color="#EFD4D1"/>
<stop offset="1" stop-color="#F2EAC9"/>
</linearGradient>
<linearGradient id="paint9_linear" x1="353.264" y1="3138.9" x2="430.199" y2="3138.9" gradientUnits="userSpaceOnUse">
<stop stop-color="#ECC4D7"/>
<stop offset="0.42" stop-color="#EFD4D1"/>
<stop offset="1" stop-color="#F2EAC9"/>
</linearGradient>
<linearGradient id="paint10_linear" x1="4780.14" y1="-494.313" x2="4492.45" y2="7051.43" gradientUnits="userSpaceOnUse">
<stop stop-opacity="0"/>
<stop offset="0.98"/>
</linearGradient>
<linearGradient id="paint11_linear" x1="4816.76" y1="-481.452" x2="4529.36" y2="7061.73" gradientUnits="userSpaceOnUse">
<stop stop-opacity="0"/>
<stop offset="0.98"/>
</linearGradient>
<linearGradient id="paint12_linear" x1="4883.64" y1="-457.323" x2="4596.1" y2="7087.57" gradientUnits="userSpaceOnUse">
<stop stop-opacity="0"/>
<stop offset="0.98"/>
</linearGradient>
<linearGradient id="paint13_linear" x1="4916.07" y1="-445.612" x2="4628.54" y2="7099.38" gradientUnits="userSpaceOnUse">
<stop stop-opacity="0"/>
<stop offset="0.98"/>
</linearGradient>
<linearGradient id="paint14_linear" x1="4945.95" y1="-434.244" x2="4658.17" y2="7111.88" gradientUnits="userSpaceOnUse">
<stop stop-opacity="0"/>
<stop offset="0.98"/>
</linearGradient>
<clipPath id="clip0">
<rect width="84" height="84" fill="white"/>
</clipPath>
</defs>
</svg>
