<svg xmlns="http://www.w3.org/2000/svg" xmlns:xlink="http://www.w3.org/1999/xlink" width="705" height="760" >
    <g fill="none" fill-rule="evenodd">
        <g>
            <rect width="705" height="758" fill="#DFDFDF" fill-rule="nonzero" rx="4"/>
            <path fill="#FFF" fill-rule="nonzero" d="M52 16h600v726H52z"/>
            <g fill="#DFDFDF" font-size="11">
                <text font-family="'Open Sans', sans-serif" transform="translate(164 185)">
                    <tspan x="0" y="12">yourbusiness.com</tspan>
                </text>
                <text font-family="'Open Sans', sans-serif" font-weight="bold" transform="translate(164 168)">
                    <tspan x="0" y="12">Sender Details</tspan>
                </text>
                <text font-family="'Open Sans', sans-serif" transform="translate(164 202)">
                    <tspan x="0" y="12">123 Smith Street</tspan>
                </text>
                <text font-family="'Open Sans', sans-serif" font-weight="bold" transform="translate(164 219)">
                    <tspan x="0" y="12.11">payment@yourbusiness.com</tspan>
                </text>
                <g font-family="sans-serif, Open Sans" font-weight="500">
                    <text transform="translate(164 237)">
                        <tspan x="0" y="12">Transfer ID</tspan>
                    </text>
                    <text transform="translate(164 237)">
                        <tspan x="84" y="12">disb-1236712678123</tspan>
                    </text>
                </g>
            </g>
            <text fill="#DFDFDF" font-family="'Open Sans', sans-serif" font-size="11" transform="translate(76 121)">
                <tspan x="0" y="167">We have sent you a payment.</tspan>
            </text>
            <text fill="#DFDFDF" font-family="'Open Sans', sans-serif" font-size="11" transform="translate(76 121)">
                <tspan x="0" y="184">We are pleased to inform you that this transaction has been executed.</tspan>
            </text>
            <g transform="translate(76 324)">
                <g fill="#DFDFDF">
                    <text font-family="'Open Sans', sans-serif" font-size="14" font-weight="500" transform="translate(8 114)">
                        <tspan x="0" y="15">Paid out from</tspan>
                    </text>
                    <g font-family="'Open Sans', sans-serif" font-size="10">
                        <text transform="translate(8 133)">
                            <tspan x="0" y="11">Name</tspan>
                        </text>
                        <text transform="translate(8 133)">
                            <tspan x="0" y="25">Bank</tspan>
                        </text>
                        <text transform="translate(8 133)">
                            <tspan x="0" y="39">Account Number</tspan>
                        </text>
                        <text transform="translate(8 133)">
                            <tspan x="0" y="53">Bank Reference</tspan>
                        </text>
                    </g>
                    <g fill-rule="nonzero" opacity=".3" transform="translate(178 136)">
                        <rect width="82" height="8" rx=".5"/>
                        <rect width="72" height="8" y="28" rx=".5"/>
                        <rect width="86" height="8" y="14" rx=".5"/>
                        <rect width="81" height="8" y="42" rx=".5"/>
                    </g>
                </g>
                <g fill="#DFDFDF">
                    <text font-family="'Open Sans', sans-serif" font-size="14" font-weight="500" transform="translate(8 206)">
                        <tspan x="0" y="15">Sent to</tspan>
                    </text>
                    <text font-family="'Open Sans', sans-serif" font-size="10" transform="translate(8 206)">
                        <tspan x="0" y="30">Name</tspan>
                    </text>
                    <text font-family="'Open Sans', sans-serif" font-size="10" transform="translate(8 206)">
                        <tspan x="0" y="44">Bank</tspan>
                    </text>
                    <text font-family="'Open Sans', sans-serif" font-size="10" transform="translate(8 206)">
                        <tspan x="0" y="58">Account Number</tspan>
                    </text>
                    <g fill-rule="nonzero" opacity=".3" transform="translate(178 228)">
                        <rect width="82" height="8" rx=".5"/>
                        <rect width="72" height="8" y="28" rx=".5"/>
                        <rect width="86" height="8" y="14" rx=".5"/>
                    </g>
                </g>
                <text fill="#DFDFDF" font-family="'Open Sans', sans-serif" font-size="14" font-weight="500" transform="translate(8 8)">
                    <tspan x="0" y="15">Transaction Overview</tspan>
                </text>
                <rect width="405" height="1" x="8" y="105" fill="#D8D8D8" fill-rule="nonzero" opacity=".54" rx=".5"/>
                <g fill="#DFDFDF" font-family="'Open Sans', sans-serif" font-size="10">
                    <text transform="translate(8 27)">
                        <tspan x="0" y="11">Amount</tspan>
                    </text>
                    <text transform="translate(8 27)">
                        <tspan x="0" y="25">Currency</tspan>
                    </text>
                    <text transform="translate(8 27)">
                        <tspan x="0" y="39">Paid Out</tspan>
                    </text>
                    <text transform="translate(8 27)">
                        <tspan x="0" y="53">Payment Method</tspan>
                    </text>
                    <text transform="translate(8 27)">
                        <tspan x="0" y="67">Description</tspan>
                    </text>
                </g>
                <g fill="#DFDFDF" fill-rule="nonzero" opacity=".3" transform="translate(178 30)">
                    <rect width="82" height="8" rx=".5"/>
                    <rect width="72" height="8" y="28" rx=".5"/>
                    <rect width="86" height="8" y="14" rx=".5"/>
                    <rect width="81" height="8" y="42" rx=".5"/>
                    <rect width="60" height="8" y="56" rx=".5"/>
                </g>
                <rect width="421" height="275" stroke="#DFDFDF" opacity=".54" rx="2" transform="matrix(1 0 0 -1 0 275)"/>
                <rect width="405" height="1" x="8" y="197" fill="#D8D8D8" fill-rule="nonzero" opacity=".54" rx=".5"/>
            </g>
            <g transform="translate(76 633)">
                <rect width="253" height="24" fill="#E8E8E8" fill-rule="nonzero" opacity=".24" rx="2" transform="matrix(1 0 0 -1 0 24)"/>
                <text fill="#DFDFDF" font-family="'Open Sans', sans-serif" font-size="10" transform="translate(8 5)">
                    <tspan x="0" y="11">Please save this confirmation as proof of payment.</tspan>
                </text>
            </g>
            <text fill="#DFDFDF" font-family="'Open Sans', sans-serif" font-size="10" transform="translate(76 616)">
                <tspan x="2" y="60.5">Easily accept payments and send money to 140+ banks in Indonesia with Xendit</tspan>
            </text>
            <path stroke="#DFDFDF" d="M76 617h449v-1H76z" opacity=".54"/>
            <text fill="#DFDFDF" font-family="'Open Sans', sans-serif" font-size="16" font-weight="bold" transform="translate(76 121)">
                <tspan x="0" y="17">Evidence of Payments</tspan>
            </text>
            <g>
                <rect width="72" height="72" fill="#D8D8D8" fill-rule="nonzero" rx="2" transform="translate(76 168)"/>
                <use fill="#DFDFDF" transform="translate(76 168)" xlink:href="#c"/>
            </g>
            <path stroke="#DFDFDF" d="M76 152h449v-1H76z" opacity=".54"/>
            <g>
                <path d="M608 40h20v19.592h-20z"/>
                <path fill="#DFDFDF" fill-rule="nonzero" d="M618 46.53c.917 0 1.667-.734 1.667-1.632 0-.898-.75-1.633-1.667-1.633s-1.667.735-1.667 1.633.75 1.633 1.667 1.633zm0 1.633c-.917 0-1.667.735-1.667 1.633s.75 1.633 1.667 1.633 1.667-.735 1.667-1.633-.75-1.633-1.667-1.633zm0 4.898c-.917 0-1.667.735-1.667 1.633s.75 1.633 1.667 1.633 1.667-.735 1.667-1.633-.75-1.633-1.667-1.633z"/>
                <path d="M573 40h20v20h-20z"/>
                <g fill="#DFDFDF" fill-rule="nonzero">
                    <path d="M585.917 43.333l-.834-.833h-4.166l-.834.833h-2.916V45h11.666v-1.667zM578 55.833c0 .917.75 1.667 1.667 1.667h6.666c.917 0 1.667-.75 1.667-1.667v-10h-10v10zm1.667-8.333h6.666v8.333h-6.666V47.5z"/>
                </g>
                <text fill="#DFDFDF" font-family="'Open Sans', sans-serif" font-size="12" opacity=".8" transform="translate(423 40)">
                    <tspan x=".721" y="16">May 8, 2018, 11:18 AM</tspan>
                </text>
                <g transform="translate(76 40)">
                    <g opacity=".6">
                        <path d="M84 21h18v18H84z"/>
                        <path fill="#DFDFDF" fill-rule="nonzero" d="M89.25 28.5L93 32.25l3.75-3.75z" opacity=".8"/>
                    </g>
                    <text fill="#DFDFDF" font-family="'Open Sans', sans-serif" font-size="12" opacity=".8">
                        <tspan x="51" y="32">to me</tspan>
                    </text>
                    <text fill="#4A4A4A" font-family="'Open Sans', sans-serif" font-size="14" font-weight="bold">
                        <tspan x="51" y="15"></tspan>
                    </text>
                    <ellipse cx="20" cy="20.835" fill="#DFDFDF" rx="20" ry="19.7"/>
                </g>
            </g>
        </g>
    </g>
</svg>
