<svg width="170" height="116" viewBox="0 0 170 116" fill="none" xmlns="http://www.w3.org/2000/svg">
<path opacity="0.18" d="M163.068 90.0615C162.624 93.8403 161.285 97.4961 159.138 100.795C156.99 104.093 154.081 106.962 150.596 109.218C149.958 109.628 149.302 110.015 148.628 110.38C141.891 114.005 134.01 115.135 126.021 114.988C121.576 114.872 117.148 114.464 112.774 113.765L110.196 113.365C109.335 113.233 108.47 113.074 107.609 112.922C102.429 112.019 97.2548 111.012 92.0619 110.308C88.6561 109.829 85.2193 109.538 81.7718 109.437H81.6943C79.9132 109.393 78.1276 109.437 76.342 109.533C73.3713 109.741 70.4174 110.104 67.4959 110.62C66.1293 110.84 64.7992 111.084 63.4554 111.323C62.1117 111.563 60.8863 111.787 59.5972 112.007C57.1511 112.406 54.8006 112.786 52.523 113.074C49.6916 113.444 46.8386 113.674 43.9775 113.761C42.3541 113.81 40.7289 113.787 39.1081 113.693C35.9398 113.522 32.8048 113.03 29.7654 112.226C24.5771 111.715 14.3781 107.308 11.4901 103.236C8.41534 98.8883 6.86659 93.9015 5.78246 88.8987C5.57747 87.9397 5.3816 86.9807 5.20395 86.0257C5.12196 85.5862 5.03996 85.1466 4.96253 84.7111C3.80096 78.4496 3.28623 73.6386 5.62303 67.4411C9.75001 56.4006 19.448 46.8945 31.8426 42.631C38.9532 40.1815 46.8746 39.2785 53.1243 35.3985C63.4736 28.9612 66.2067 16.1506 75.6952 8.71035C82.7147 3.2041 92.4901 1.36601 101.865 0.52689C109.713 -0.180373 117.707 -0.328219 125.447 1.05034C134.475 2.64868 144.815 6.72443 149.512 14.0048C154.545 21.8047 155.889 31.131 155.046 39.9538C154.477 45.9156 152.887 52.197 154.408 58.1428C155.652 62.9818 158.74 67.3332 160.244 72.2041C162.043 78.0381 163.719 84.0478 163.068 90.0615Z" fill="#4573FF"/>
<path d="M154.705 82.6714V107.84C154.015 108.348 153.304 108.828 152.574 109.28C146.065 113.283 138.569 114.827 130.885 114.985C126.071 114.843 121.274 114.336 116.535 113.471L113.742 112.976C112.809 112.813 111.872 112.615 110.939 112.427V82.6714H154.705Z" fill="#4573FF"/>
<path d="M154.705 82.6714V107.84C154.015 108.348 153.304 108.828 152.574 109.28C146.065 113.283 138.569 114.827 130.885 114.985C126.071 114.843 121.274 114.336 116.535 113.471L113.742 112.976C112.809 112.813 111.872 112.615 110.939 112.427V82.6714H154.705Z" fill="url(#paint0_linear)"/>
<path d="M134.029 79.1085H111.615L107.539 61.7046H129.953L134.029 79.1085Z" fill="#4573FF"/>
<path d="M132.825 79.1085H110.411L106.335 61.7046H128.749L132.825 79.1085Z" fill="#4573FF"/>
<path d="M132.825 79.1085H110.411L106.335 61.7046H128.749L132.825 79.1085Z" fill="url(#paint1_linear)"/>
<path d="M152.203 16.6086H86.9508C83.0998 16.6086 79.9779 19.7392 79.9779 23.6009V60.1952C79.9779 64.0569 83.0998 67.1874 86.9508 67.1874H152.203C156.054 67.1874 159.176 64.0569 159.176 60.1952V23.6009C159.176 19.7392 156.054 16.6086 152.203 16.6086Z" fill="#4573FF"/>
<path d="M150.54 16.6086H85.2877C81.4367 16.6086 78.3149 19.7392 78.3149 23.6009V60.1952C78.3149 64.0569 81.4367 67.1874 85.2877 67.1874H150.54C154.391 67.1874 157.513 64.0569 157.513 60.1952V23.6009C157.513 19.7392 154.391 16.6086 150.54 16.6086Z" fill="#4C506D"/>
<path d="M157.508 57.1519V60.1903C157.508 62.0447 156.774 63.8232 155.466 65.1345C154.158 66.4458 152.385 67.1825 150.535 67.1825H85.2829C83.4336 67.1825 81.66 66.4458 80.3524 65.1345C79.0447 63.8232 78.3101 62.0447 78.3101 60.1903V57.1519H157.508Z" fill="url(#paint2_linear)"/>
<path d="M83.9752 102.748C84.0142 104.58 83.6643 106.4 82.9487 108.087H82.8649C80.9354 108.033 79.0009 108.087 77.0665 108.206C73.8482 108.464 70.6481 108.913 67.4831 109.552C66.0027 109.824 64.5618 110.126 63.106 110.423C61.6502 110.72 60.3228 110.997 58.9262 111.269C56.2763 111.764 53.7299 112.234 51.2625 112.59C48.0557 111.231 45.1902 109.174 42.8734 106.568C42.6217 106.286 42.3799 105.999 42.143 105.707C41.842 105.326 41.5558 104.93 41.2893 104.514C40.4849 103.355 39.9627 102.023 39.7645 100.625C39.7001 100.057 39.7201 99.4838 39.8237 98.9224C40.1938 96.9777 41.6101 95.4288 43.209 94.2362C43.3817 94.1075 43.5544 93.9788 43.732 93.8601C47.254 91.4107 51.4753 90.1775 55.7581 90.3466C56.1134 90.3466 56.4736 90.3763 56.8289 90.4011C59.124 90.581 61.3972 90.9753 63.6192 91.5788C67.1328 92.4795 70.6414 93.7413 74.1105 94.8547C76.679 95.5425 79.1366 96.5939 81.4091 97.9773C82.0602 98.398 82.6276 98.9367 83.082 99.5657C83.674 100.52 83.9838 101.624 83.9752 102.748Z" fill="#3E3E54"/>
<path d="M82.8648 108.087C80.9353 108.033 79.0009 108.087 77.0664 108.206C73.8482 108.464 70.6481 108.913 67.4831 109.552C66.0026 109.824 64.5617 110.126 63.1059 110.423C61.6502 110.72 60.3227 110.997 58.9262 111.269C51.4549 112.729 44.5462 114.406 36.8578 112.971C36.4008 112.918 35.9611 112.764 35.5699 112.521C35.1067 112.116 34.7807 111.576 34.6372 110.977C33.5652 107.589 33.8538 103.916 35.4415 100.739C37.3168 97.0322 40.2924 95.5625 43.7715 93.8107C47.7834 91.7719 51.1736 90.2329 55.7975 90.3467C56.1528 90.3467 56.5131 90.3764 56.8684 90.4012C59.1496 90.5878 61.4091 90.982 63.6191 91.5789C67.0735 92.4796 70.5624 93.7266 73.9822 94.8301C76.5513 95.516 79.0091 96.5675 81.2807 97.9526C81.9344 98.3699 82.5036 98.9071 82.9586 99.5361C83.5407 100.485 83.8466 101.579 83.8419 102.693C83.9064 104.541 83.5731 106.38 82.8648 108.087Z" fill="#3E3E54"/>
<path d="M94.0963 109.166C90.4067 108.572 86.6835 108.211 82.9487 108.087H82.8648C80.9353 108.033 79.0008 108.087 77.0664 108.206C73.8482 108.463 70.6481 108.913 67.4831 109.552C66.0026 109.824 64.5617 110.126 63.1059 110.423C58.936 109.675 54.7168 109.072 50.5913 108.156C48.5381 107.831 46.5828 107.052 44.867 105.875C44.4323 105.533 44.0426 105.137 43.7073 104.697C43.5556 104.501 43.4172 104.294 43.2928 104.079C42.7639 103.217 42.5091 102.214 42.5624 101.204C42.5788 100.935 42.6251 100.67 42.7006 100.412C43.2671 98.9275 44.3292 97.6859 45.7059 96.8984C47.7952 95.3887 50.2553 94.4785 52.8218 94.2658C54.5441 94.1718 56.2762 94.5182 57.9737 94.4242C59.5035 94.34 60.5596 93.4889 61.9216 93.286C62.9574 93.1628 64.0074 93.2555 65.0058 93.5582C67.34 94.2015 69.7481 95.6069 71.5789 96.5273L83.9159 102.703L84.0096 102.748L86.477 103.985C88.7918 105.055 90.9855 106.37 93.0205 107.909C93.5244 108.177 93.9087 108.626 94.0963 109.166Z" fill="#3E3E54"/>
<path d="M142.038 79.1085C143.022 79.1084 143.819 79.906 143.819 80.8899C143.819 81.8737 143.022 82.6713 142.038 82.6713H2.12205C1.25511 82.6713 0.509347 82.0504 0.356755 81.197C0.161382 80.1043 1.00751 79.1133 2.1175 79.1133L142.038 79.1085Z" fill="#4573FF"/>
<path d="M142.038 79.1085C143.022 79.1084 143.819 79.906 143.819 80.8899C143.819 81.8737 143.022 82.6713 142.038 82.6713H2.12205C1.25511 82.6713 0.509347 82.0504 0.356755 81.197C0.161382 80.1043 1.00751 79.1133 2.1175 79.1133L142.038 79.1085Z" fill="url(#paint3_linear)"/>
<path d="M71.5147 28.9158C69.8072 27.3966 66.2345 27.0304 64.606 28.708C63.4019 29.9451 63.323 31.875 63.0269 33.5921C62.5866 36.0627 61.5516 38.3882 60.0117 40.3667C59.1827 41.4256 58.1859 42.4252 57.8305 43.7168C57.6826 44.1346 57.6826 44.5906 57.8305 45.0084C58.0775 45.4501 58.4481 45.8096 58.8965 46.0426C59.9151 46.7862 61.0682 47.324 62.2916 47.6261C62.9043 47.7694 63.5449 47.7353 64.139 47.5277C64.7331 47.32 65.2561 46.9475 65.6472 46.4533C65.9334 46.0278 66.1407 45.4636 66.6342 45.2954C67.2757 45.0925 67.8531 45.716 68.4749 45.9634C69.526 46.3643 70.7301 45.6071 71.2531 44.6075C71.6972 43.5641 71.964 42.4535 72.0427 41.3217C72.1165 40.1798 72.6359 39.1131 73.4886 38.3526C73.8291 38.1002 74.2634 37.9122 74.4311 37.5213C74.7322 36.7988 73.9377 36.1406 73.4442 35.5419C71.9292 33.5625 73.4491 30.534 71.5147 28.9158Z" fill="url(#paint4_linear)"/>
<path d="M70.9771 21.9234C68.8305 19.4491 65.5488 18.0487 62.7459 19.7757C61.6898 20.429 60.8509 21.4137 59.7406 21.963C59.0558 22.2648 58.3389 22.4873 57.6038 22.6261C55.699 23.0814 53.7251 23.7247 52.4371 25.1993C51.1491 26.674 50.9073 29.2175 52.4124 30.4695C52.1025 30.8867 51.9502 31.4007 51.9828 31.9199C52.0153 32.4391 52.2305 32.93 52.5901 33.305C53.0535 33.6709 53.549 33.9938 54.0705 34.27C55.551 35.2597 55.551 36.3731 55.4375 37.8774C55.4632 38.1279 55.5648 38.3645 55.7286 38.5554L57.0808 40.5348C57.5496 41.2028 58.1713 41.9154 58.9658 41.9154C60.1403 41.861 60.7424 40.2082 61.9267 40.1092C62.4347 40.1498 62.9337 40.2666 63.4071 40.4556C63.9006 40.5744 64.5717 40.4309 64.6951 39.9311C64.0603 39.5856 63.5811 39.01 63.3554 38.322C63.1298 37.6339 63.1748 36.8854 63.4812 36.2296C63.7624 35.6753 64.4681 35.2052 64.9616 35.5714C65.2626 35.7941 65.3366 36.2048 65.5094 36.5611C65.6821 36.9174 66.1805 37.1401 66.4026 36.8382C67.0589 35.2894 66.3631 33.4337 66.8467 31.8501C67.067 31.1679 67.4861 30.5676 68.0499 30.1266C68.6137 29.6856 69.2964 29.4241 70.0099 29.3759C70.6267 29.3264 71.2485 29.455 71.8654 29.3759C72.176 29.3587 72.4734 29.2438 72.7152 29.0474C72.9571 28.8511 73.1311 28.5834 73.2126 28.2822C73.5333 26.1247 72.5661 23.7395 70.9771 21.9234Z" fill="#3E3E54"/>
<path d="M54.5442 44.8301C54.4224 44.9947 54.3388 45.1846 54.2995 45.3858C54.2602 45.587 54.2663 45.7944 54.3172 45.993C54.4144 46.1669 54.5586 46.3099 54.7332 46.4053C54.9078 46.5007 55.1057 46.5447 55.3042 46.5324C58.1022 46.8045 61.0236 47.1905 63.639 48.5613C64.2065 48.8334 64.9517 49.1254 65.3465 48.5613C65.4583 48.3574 65.517 48.1284 65.517 47.8957C65.517 47.6629 65.4583 47.434 65.3465 47.2301C65.1328 46.8569 64.8376 46.5371 64.4829 46.2948C63.3505 45.4584 62.1653 44.6964 60.9348 44.0136C58.65 42.6626 56.301 41.95 54.5442 44.8301Z" fill="#4573FF"/>
<path d="M63.3379 91.0444C64.6703 93.7067 67.4634 95.3298 64.6703 98.0169C59.7355 102.782 51.0158 104.781 44.4081 104.717C39.9668 104.678 35.4021 103.658 31.9231 100.907C30.8566 100.136 30.0232 99.0843 29.5149 97.8684C29.2631 97.0675 29.1301 96.2338 29.1201 95.3941C28.2467 79.7667 33.7736 64.3768 41.5706 50.8228C43.051 48.2298 45.0249 45.429 47.9562 44.9935C49.0144 44.8908 50.0821 44.9576 51.1194 45.1914C58.0424 46.3933 64.8889 48.0027 71.6234 50.0113C72.4284 50.1477 73.1908 50.47 73.8502 50.9526C74.5097 51.4353 75.0482 52.0651 75.4232 52.7924L86.0774 69.1571C87.617 71.5225 89.2159 74.1056 89.0382 76.9213C89.029 77.7475 88.7519 78.5483 88.2487 79.2026C87.4387 79.9625 86.3939 80.4217 85.2878 80.504C81.4061 81.1319 77.4326 80.8611 73.6713 79.7123C75.7735 78.0941 75.1123 74.7341 73.7256 72.4627C72.7866 70.9331 71.6219 69.555 70.2713 68.3752C69.3747 72.7951 67.9152 77.081 65.9287 81.1276C64.4482 84.1561 61.6453 87.6893 63.3379 91.0444Z" fill="#4573FF"/>
<path d="M43.5495 98.7938C43.5495 99.6449 43.5298 100.511 43.4903 101.392C43.4459 102.268 43.3669 103.163 43.2584 104.079L43.1843 104.678C43.1004 105.301 43.0067 105.93 42.8932 106.568C42.8882 106.591 42.8882 106.614 42.8932 106.637C42.829 106.989 42.7599 107.345 42.6909 107.706C42.9916 109.648 42.7455 111.637 41.9803 113.446C40.2215 113.507 38.4609 113.479 36.705 113.362C33.2814 113.155 29.8933 112.55 26.6084 111.561C23.252 109.839 20.1538 107.651 17.405 105.064C16.6451 104.412 16.0398 103.599 15.6335 102.683C15.3391 101.694 15.2369 100.658 15.3324 99.6301C15.43 93.8973 14.6766 88.1819 13.097 82.6715C12.7565 81.474 12.3716 80.2863 11.9521 79.1135C11.4586 77.7824 10.9652 76.471 10.3779 75.1547C9.02579 72.1015 7.38744 69.1225 6.77059 65.8416C6.42537 64.0454 6.40531 62.2016 6.71138 60.3982C6.72682 60.0775 6.84836 59.7711 7.05681 59.5273C7.21349 59.4016 7.39403 59.3091 7.58744 59.2555C7.78086 59.2019 7.98312 59.1883 8.18194 59.2155C12.2975 59.3294 16.0381 61.6898 20.1044 62.3875C22.1918 62.7438 24.3582 62.6498 26.3863 63.2535C29.2732 64.1047 31.4938 66.2226 33.2457 68.6969C34.1511 70.0096 34.953 71.3911 35.644 72.8289C36.7 74.9815 37.687 77.0401 38.6049 79.0442C39.1378 80.2467 39.6362 81.4294 40.0853 82.6022C41.6053 86.2882 42.6613 90.1497 43.2288 94.0976V94.1718C43.4317 95.7043 43.5388 97.2479 43.5495 98.7938Z" fill="#3E3E54"/>
<path d="M43.5495 98.7938C43.5495 99.6449 43.5298 100.511 43.4903 101.392C43.4459 102.268 43.3669 103.163 43.2584 104.079L43.1843 104.678C43.1004 105.301 43.0067 105.93 42.8932 106.568C42.8882 106.591 42.8882 106.614 42.8932 106.637C42.829 106.989 42.7599 107.345 42.6909 107.706C42.9916 109.648 42.7455 111.637 41.9803 113.446C40.2215 113.507 38.4609 113.479 36.705 113.362C33.2814 113.155 29.8933 112.55 26.6084 111.561C23.252 109.839 20.1538 107.651 17.405 105.064C16.6451 104.412 16.0398 103.599 15.6335 102.683C15.3391 101.694 15.2369 100.658 15.3324 99.6301C15.43 93.8973 14.6766 88.1819 13.097 82.6715C12.7565 81.474 12.3716 80.2863 11.9521 79.1135C11.4586 77.7824 10.9652 76.471 10.3779 75.1547C9.02579 72.1015 7.38744 69.1225 6.77059 65.8416C6.42537 64.0454 6.40531 62.2016 6.71138 60.3982C6.72682 60.0775 6.84836 59.7711 7.05681 59.5273C7.21349 59.4016 7.39403 59.3091 7.58744 59.2555C7.78086 59.2019 7.98312 59.1883 8.18194 59.2155C12.2975 59.3294 16.0381 61.6898 20.1044 62.3875C22.1918 62.7438 24.3582 62.6498 26.3863 63.2535C29.2732 64.1047 31.4938 66.2226 33.2457 68.6969C34.1511 70.0096 34.953 71.3911 35.644 72.8289C36.7 74.9815 37.687 77.0401 38.6049 79.0442C39.1378 80.2467 39.6362 81.4294 40.0853 82.6022C41.6053 86.2882 42.6613 90.1497 43.2288 94.0976V94.1718C43.4317 95.7043 43.5388 97.2479 43.5495 98.7938Z" fill="url(#paint5_linear)"/>
<path d="M167.262 79.1084H125.247C124.265 79.1084 123.468 79.9049 123.468 80.8874C123.468 81.8699 124.265 82.6664 125.247 82.6664H167.262C168.245 82.6664 169.041 81.8699 169.041 80.8874C169.041 79.9049 168.245 79.1084 167.262 79.1084Z" fill="#4573FF"/>
<path d="M157.508 82.6714V107.84C156.817 108.348 156.107 108.828 155.377 109.28C144.027 116.262 129.652 115.772 116.535 113.471L113.742 112.976V82.6714H157.508Z" fill="#4573FF"/>
<path d="M113.495 21.4634H89.0628V37.4124H113.495V21.4634Z" fill="white"/>
<path d="M94.2741 36.3485C94.7645 35.5634 95.4521 34.9215 96.2681 34.4872C97.084 34.0529 97.9995 33.8415 98.9227 33.8743C99.5692 33.8743 100.221 33.9188 100.862 33.9188C102.718 33.9188 105.511 33.2705 107.11 34.2256C107.771 34.6165 108.323 36.3881 108.649 37.0908C108.693 37.1542 108.718 37.2283 108.722 37.3051C108.727 37.3819 108.71 37.4584 108.674 37.5263C108.58 37.65 108.437 37.6401 108.304 37.6401C105.012 37.6054 101.731 37.6401 98.4342 37.6401H93.8152C93.8547 37.1771 94.0128 36.7322 94.2741 36.3485Z" fill="#4573FF"/>
<path d="M100.739 34.6708C100.887 34.7851 101.054 34.8737 101.232 34.9331C101.598 35.0824 101.995 35.1352 102.387 35.0865C102.581 35.057 102.763 34.9744 102.914 34.8478C103.065 34.7213 103.178 34.5556 103.241 34.369C103.28 34.1714 103.28 33.9678 103.241 33.7702L103.162 33.0576C103.151 32.7031 103.064 32.3551 102.905 32.0382C102.748 31.7909 102.51 31.6062 102.231 31.5159C101.953 31.4256 101.652 31.4353 101.38 31.5434C101.027 31.7196 100.747 32.016 100.591 32.3797C100.235 33.1863 99.954 34.0275 100.739 34.6708Z" fill="url(#paint6_linear)"/>
<path d="M102.92 32.0383C102.92 32.0383 102.17 34.2058 101.084 34.2058C99.9982 34.2058 100.284 33.1517 100.284 33.1517L102.92 32.0383Z" fill="url(#paint7_linear)"/>
<path d="M98.7893 31.1673C98.8831 31.5433 99.0607 31.8897 99.1841 32.2559C99.2318 32.4283 99.2998 32.5944 99.3864 32.7508C99.5404 32.97 99.7626 33.1319 100.018 33.211C100.565 33.4088 101.167 33.3893 101.701 33.1566C102.058 32.9808 102.376 32.7353 102.637 32.4345C102.898 32.1336 103.097 31.7836 103.221 31.4048C103.492 30.6576 103.966 29.9202 103.986 29.1136C103.986 28.7722 103.576 28.3615 103.458 28.0398C103.309 27.6982 103.086 27.394 102.806 27.1491C102.58 26.9057 102.317 26.7002 102.027 26.5404C101.656 26.3923 101.255 26.3395 100.859 26.3871C100.464 26.4346 100.086 26.5809 99.7615 26.8126C99.5336 26.9369 99.3324 27.105 99.1693 27.3074C98.7844 27.8369 98.8436 28.4852 98.8387 29.1037C98.8337 29.8163 98.6166 30.4646 98.7893 31.1673Z" fill="url(#paint8_linear)"/>
<path d="M97.8813 27.535C97.694 27.1444 97.5754 26.7242 97.5309 26.293C97.4963 26.1936 97.4963 26.0855 97.5309 25.9862C97.6 25.8427 97.7826 25.7981 97.8911 25.6843C98.1231 25.4369 97.9405 25.041 97.9553 24.6946C97.9794 24.5006 98.0555 24.3167 98.1754 24.1625C98.2953 24.0083 98.4545 23.8895 98.6363 23.8187C99.0043 23.6835 99.3942 23.6181 99.7861 23.6257C100.044 23.5782 100.308 23.5849 100.563 23.6454C100.818 23.7059 101.057 23.8188 101.267 23.9771C101.464 24.175 101.568 24.4719 101.76 24.6352C102.209 25.0064 102.89 24.7639 103.458 24.8975C103.705 24.9537 103.931 25.0817 104.106 25.2656C104.282 25.4496 104.399 25.6812 104.445 25.9317C104.523 26.4266 104.331 26.9858 104.612 27.4163C104.723 27.53 104.817 27.6582 104.894 27.7973C104.938 27.9623 104.923 28.1379 104.849 28.2922C104.632 28.9388 104.336 29.5555 103.966 30.1281C103.903 30.2435 103.811 30.3406 103.699 30.4101C103.581 30.4695 103.379 31.1673 103.31 31.0584C103.239 30.655 103.277 30.2401 103.418 29.8559C103.545 29.7368 103.651 29.596 103.729 29.4402C103.738 29.3755 103.734 29.3097 103.718 29.2465C103.701 29.1833 103.672 29.124 103.633 29.072C103.593 29.02 103.544 28.9764 103.488 28.9436C103.431 28.9108 103.369 28.8896 103.305 28.881C103.231 28.8716 103.157 28.8787 103.087 28.9018C103.017 28.9249 102.953 28.9635 102.9 29.0147C103.028 28.2229 102.604 27.2876 101.819 27.1243C101.347 27.0697 100.869 27.1686 100.457 27.4064C99.5492 27.8171 98.5771 28.787 97.8813 27.535Z" fill="#DD8049"/>
<path d="M103.196 29.1534C103.202 29.1356 103.212 29.1193 103.225 29.1056C103.237 29.0919 103.253 29.0812 103.27 29.0742C103.313 29.0746 103.354 29.0884 103.389 29.1138C103.421 29.1289 103.449 29.1502 103.473 29.1766C103.497 29.2029 103.515 29.2337 103.527 29.2672C103.542 29.3173 103.542 29.3705 103.527 29.4206C103.502 29.5248 103.462 29.6249 103.408 29.7175C103.382 29.7642 103.345 29.804 103.3 29.8341C103.256 29.8641 103.205 29.8835 103.152 29.8907C103.102 29.8907 103.028 29.7769 103.028 29.7324C103.028 29.6878 103.078 29.6631 103.098 29.6185C103.157 29.48 103.098 29.3068 103.196 29.1534Z" fill="url(#paint9_linear)"/>
<path d="M140.168 21.5771H115.736V37.5262H140.168V21.5771Z" fill="white"/>
<path d="M140.168 39.3669H115.736V55.316H140.168V39.3669Z" fill="white"/>
<path d="M113.495 39.3669H89.0628V55.316H113.495V39.3669Z" fill="white"/>
<path d="M125.418 40.9653C126.326 40.6889 127.288 40.638 128.22 40.8168C128.751 40.8606 129.268 41.0103 129.74 41.2572C130.599 41.7521 131.028 42.7863 131.221 43.7661C131.34 44.761 131.541 45.7442 131.823 46.7056C132.242 47.7843 133.071 48.685 133.353 49.8132C133.567 50.6859 133.428 51.6084 132.966 52.3784C132.503 53.1484 131.755 53.703 130.885 53.9205C130.611 53.9878 130.329 54.021 130.046 54.0195C129.326 54.0195 128.625 53.7819 127.905 53.7819C126.424 53.7819 124.998 54.8013 123.542 54.5044C122.348 54.257 121.494 53.1733 121.006 52.0302C120.654 51.3509 120.558 50.5676 120.734 49.8231C121.06 48.8334 122.101 48.2594 122.565 47.3489C123.152 46.186 122.713 44.8053 123.217 43.6226C123.676 42.5438 124.223 41.3958 125.418 40.9653Z" fill="#606161"/>
<path d="M130.54 50.506C131.339 50.6644 132.237 50.5901 132.889 51.0603C133.279 51.3667 133.545 51.8044 133.639 52.2924C133.721 52.7727 133.744 53.2613 133.708 53.7473L133.654 55.1824C133.658 55.2349 133.644 55.2874 133.614 55.3308C133.565 55.3634 133.505 55.3774 133.446 55.3704L121.109 55.4149C121.001 55.0243 120.973 54.6155 121.029 54.2138C121.084 53.8121 121.22 53.426 121.43 53.0792C121.74 52.4678 122.162 51.9204 122.674 51.466C123.424 50.897 125.171 50.8475 125.995 50.3774C126.212 50.2586 125.995 50.0854 126.256 50.0211C126.518 49.9567 126.395 49.6747 126.631 49.6697C127.355 49.6118 128.082 49.6434 128.798 49.7637C129.405 49.9419 129.883 50.3724 130.54 50.506Z" fill="#4573FF"/>
<path d="M125.719 50.9218C125.654 51.1191 125.615 51.3235 125.6 51.5305C125.598 51.7652 125.657 51.9965 125.771 52.2014C125.885 52.4062 126.051 52.5775 126.252 52.6983C126.455 52.8161 126.683 52.8838 126.917 52.8958C127.151 52.9078 127.385 52.8639 127.599 52.7676C128.062 52.5299 128.415 52.1222 128.586 51.6295C128.758 51.1384 128.843 50.6209 128.837 50.1004C128.853 49.4087 128.812 48.7168 128.714 48.0319C128.725 47.9766 128.724 47.9197 128.712 47.8646C128.701 47.8095 128.678 47.7573 128.646 47.7112C128.613 47.665 128.572 47.6258 128.525 47.5959C128.477 47.566 128.424 47.546 128.369 47.5371H128.265C127.859 47.4784 127.445 47.5564 127.088 47.7588C126.731 47.9611 126.45 48.2764 126.291 48.6554C126.208 48.9078 126.152 49.1682 126.123 49.4323C126.014 49.9355 125.879 50.4326 125.719 50.9218Z" fill="url(#paint10_linear)"/>
<path d="M126.024 49.8727C126.024 49.8727 125.95 50.5061 126.237 50.7436C126.523 50.9811 127.653 51.5304 128.21 50.7436C128.551 50.2379 128.773 49.6607 128.857 49.0562L126.024 49.8727Z" fill="url(#paint11_linear)"/>
<path d="M124.46 47.7845C124.603 48.2496 125.477 49.8876 126.676 50.1845C129.267 50.8278 130.051 46.2603 129.923 45.3003C129.751 44.4992 129.336 43.7713 128.734 43.217C128.404 42.9596 128.01 42.7982 127.595 42.7502C127.18 42.7022 126.759 42.7695 126.38 42.9448C124.347 43.8157 123.824 45.8001 124.46 47.7845Z" fill="url(#paint12_linear)"/>
<path d="M123.621 45.2359C123.644 45.3336 123.693 45.423 123.764 45.4939C123.834 45.5647 123.924 45.6143 124.021 45.6368C124.239 45.6266 124.451 45.5674 124.643 45.4636C124.889 45.3893 125.136 45.419 125.408 45.325C125.679 45.231 125.847 44.9291 125.704 44.7213C125.63 45.038 126.049 45.2458 126.37 45.2161C126.68 45.1223 127.008 45.1019 127.327 45.1568L127.451 44.5233C127.434 44.6551 127.462 44.7887 127.531 44.9021C127.6 45.0154 127.706 45.1018 127.831 45.1469C128.082 45.231 128.354 45.231 128.605 45.1469C128.719 45.1172 128.857 45.0281 128.813 44.9192C129.074 45.2359 129.577 45.1023 129.957 44.9192C130.018 44.8993 130.071 44.8591 130.106 44.8054C130.13 44.7418 130.13 44.6711 130.106 44.6075C129.971 43.9873 129.75 43.3892 129.449 42.831C129.293 42.5521 129.081 42.3088 128.826 42.1163C128.571 41.9238 128.279 41.7864 127.969 41.7126C127.608 41.6679 127.242 41.688 126.888 41.772C125.946 41.9186 125.089 42.402 124.475 43.1328C124.031 43.6623 123.429 44.5679 123.621 45.2359Z" fill="#606161"/>
<path d="M125.417 23.3487C126.327 23.0764 127.288 23.0271 128.22 23.2052C128.751 23.249 129.268 23.3988 129.74 23.6457C131.25 24.5413 130.895 25.823 131.033 27.2234C131.044 27.4538 131.116 27.6772 131.239 27.8716C131.363 28.0659 131.535 28.2246 131.739 28.3319C132.025 28.4556 132.37 28.4408 132.612 28.6387C132.737 28.7672 132.824 28.9271 132.865 29.1014C132.905 29.2757 132.898 29.4578 132.844 29.6284C132.76 29.9699 132.593 30.2866 132.523 30.6181C132.486 30.7525 132.502 30.8961 132.568 31.0189C132.671 31.1723 132.884 31.1971 133.061 31.2664C133.262 31.3731 133.433 31.5297 133.556 31.7211C133.68 31.9125 133.752 32.1325 133.767 32.36C133.826 32.8103 133.767 33.2656 133.802 33.7208C133.851 34.0035 133.876 34.2899 133.876 34.5769C133.816 35.4528 132.943 36.0961 132.069 36.2099C131.189 36.2487 130.311 36.0915 129.498 35.7497C128.685 35.4079 127.802 35.2654 126.922 35.334C125.985 35.4875 124.993 36.1011 124.164 35.6409C123.931 35.4883 123.74 35.2789 123.61 35.0322C123.479 34.7855 123.414 34.5097 123.419 34.2305C123.437 33.6737 123.552 33.1245 123.759 32.6074C123.838 32.4457 123.853 32.2606 123.804 32.0878C123.721 31.9613 123.612 31.8548 123.483 31.7761C122.269 30.8309 122.713 27.2383 123.226 26.016C123.675 24.9323 124.223 23.7842 125.417 23.3487Z" fill="#FBB03B"/>
<path d="M130.54 32.8943C131.339 33.0527 132.237 32.9784 132.889 33.4485C133.279 33.755 133.545 34.1927 133.639 34.6807C133.719 35.1713 133.738 35.6701 133.693 36.1653L133.639 37.6003C133.643 37.6514 133.629 37.7023 133.599 37.7439C133.551 37.7804 133.491 37.7964 133.431 37.7884L121.095 37.8329C120.986 37.4423 120.959 37.0335 121.014 36.6318C121.069 36.2301 121.206 35.8439 121.415 35.4972C121.725 34.8857 122.147 34.3384 122.659 33.884C123.409 33.3149 125.156 33.2654 125.98 32.7953C126.197 32.6766 125.98 32.5034 126.241 32.439C126.503 32.3747 126.38 32.0926 126.617 32.0877C127.34 32.0298 128.067 32.0614 128.783 32.1817C129.405 32.3302 129.883 32.7607 130.54 32.8943Z" fill="#4573FF"/>
<path d="M125.719 33.31C125.654 33.5073 125.615 33.7117 125.6 33.9187C125.598 34.1534 125.657 34.3847 125.771 34.5895C125.885 34.7944 126.051 34.9657 126.252 35.0865C126.455 35.2043 126.683 35.2719 126.917 35.284C127.151 35.296 127.385 35.2521 127.599 35.1558C128.062 34.9181 128.415 34.5104 128.586 34.0177C128.758 33.5266 128.843 33.0091 128.837 32.4886C128.853 31.7968 128.812 31.105 128.714 30.4201C128.725 30.3648 128.724 30.3079 128.712 30.2528C128.701 30.1977 128.678 30.1455 128.646 30.0993C128.613 30.0532 128.572 30.014 128.525 29.9841C128.477 29.9542 128.424 29.9342 128.369 29.9252H128.265C127.859 29.8666 127.445 29.9446 127.088 30.1469C126.731 30.3493 126.45 30.6646 126.291 31.0436C126.208 31.296 126.152 31.5564 126.123 31.8205C126.014 32.3237 125.879 32.8208 125.719 33.31Z" fill="url(#paint13_linear)"/>
<path d="M126.024 32.2608C126.024 32.2608 125.95 32.8943 126.237 33.1318C126.523 33.3693 127.653 33.9186 128.21 33.1318C128.551 32.6261 128.773 32.0489 128.857 31.4443L126.024 32.2608Z" fill="url(#paint14_linear)"/>
<path d="M124.46 30.1726C124.603 30.6378 125.477 32.2758 126.676 32.5727C129.267 33.216 130.051 28.6485 129.923 27.6885C129.751 26.8873 129.336 26.1594 128.734 25.6052C128.404 25.3478 128.01 25.1863 127.595 25.1383C127.18 25.0903 126.759 25.1577 126.38 25.333C124.347 26.2039 123.824 28.1883 124.46 30.1726Z" fill="url(#paint15_linear)"/>
<path d="M96.1887 49.4273C97.2329 49.0302 98.3441 48.8403 99.4605 48.8681C100.679 48.8186 101.987 48.8038 102.999 49.3333C103.471 49.6038 103.897 49.9479 104.262 50.3527C104.397 50.4743 104.512 50.6162 104.603 50.7733C104.684 50.9703 104.718 51.1841 104.701 51.3968V54.2966C104.718 54.4885 104.684 54.6815 104.603 54.8558C104.336 55.3507 105.269 55.3507 104.603 55.3507H93.4598C93.6374 55.3507 93.8249 53.6979 93.82 53.5296C93.82 52.9556 93.6424 52.4657 93.9187 51.9263C94.3675 50.8571 95.1689 49.9749 96.1887 49.4273Z" fill="#4573FF"/>
<path d="M98.9472 50.4566C99.1165 50.597 99.3117 50.7025 99.5217 50.767C99.7318 50.8316 99.9524 50.8539 100.171 50.8327C100.438 50.7676 100.677 50.6195 100.854 50.4097C101.031 50.1998 101.138 49.9391 101.158 49.6648C101.232 49.1452 101.114 48.6108 101.158 48.0813C101.207 47.7533 101.207 47.4197 101.158 47.0916C101.06 46.8357 100.894 46.6119 100.677 46.4451C100.46 46.2782 100.201 46.1749 99.9293 46.1464C99.6572 46.1148 99.3816 46.1476 99.1245 46.2421C98.8674 46.3367 98.636 46.4903 98.4488 46.6908C97.9307 47.2698 98.0886 47.9625 98.0639 48.6702C98.061 49.0166 98.1395 49.3588 98.2929 49.6691C98.4464 49.9795 98.6705 50.2492 98.9472 50.4566Z" fill="#A67C52"/>
<path d="M98.2021 48.032C98.2021 48.032 98.7844 49.7244 99.9046 49.7244C101.025 49.7244 101.183 49.1553 101.183 49.1553L101.133 48.2448L98.2021 48.032Z" fill="url(#paint16_linear)"/>
<path d="M102.229 45.9931C102.214 46.4968 102.131 46.9962 101.982 47.4776C101.834 47.9575 101.535 48.3761 101.129 48.6702C100.837 48.8552 100.504 48.9655 100.16 48.9914C99.8159 49.0172 99.4706 48.9579 99.1547 48.8187C98.5084 48.532 97.984 48.0255 97.6742 47.3886C97.3486 46.774 97.1457 46.1016 97.0771 45.4092C97.0259 44.8767 97.1233 44.3404 97.3584 43.8603C97.6397 43.374 98.1006 43.0185 98.6414 42.8706C99.1761 42.7233 99.7315 42.6664 100.285 42.7023C100.737 42.6862 101.188 42.7724 101.602 42.9547C101.826 43.0518 102.011 43.2194 102.13 43.4321C102.25 43.6447 102.297 43.8907 102.264 44.1324C102.17 44.7114 102.264 45.3696 102.229 45.9931Z" fill="#A67C52"/>
<path d="M97.8025 45.7456C97.6594 45.6714 97.5805 45.4784 97.4225 45.4635C97.3735 45.4624 97.3253 45.4759 97.284 45.5023C97.2427 45.5288 97.2102 45.567 97.1906 45.612C97.1613 45.7071 97.1613 45.8088 97.1906 45.904C97.231 46.135 97.3474 46.3458 97.5212 46.5027C97.6027 46.5579 97.6689 46.6328 97.7137 46.7205C97.7291 46.7906 97.7291 46.8632 97.7137 46.9332L97.6495 47.4281C97.5258 47.3798 97.4142 47.3046 97.3229 47.208C97.2316 47.1113 97.1628 46.9955 97.1215 46.8689C97.082 46.765 97.0426 46.5621 96.9044 46.5324C96.7662 46.5027 96.6725 46.6809 96.5047 46.5324C96.4472 46.4873 96.4079 46.4228 96.3943 46.3509C96.3807 46.279 96.3936 46.2046 96.4307 46.1415C96.2727 46.3147 95.9372 46.1415 95.9076 45.9287C95.9013 45.8119 95.9299 45.6958 95.9896 45.5954C96.0494 45.4949 96.1376 45.4145 96.2431 45.3646C96.1187 45.3284 96.0068 45.2584 95.9197 45.1623C95.8326 45.0662 95.7737 44.9478 95.7496 44.8202C95.7435 44.7647 95.7483 44.7084 95.7638 44.6547C95.7793 44.601 95.8052 44.5509 95.84 44.5073C95.8749 44.4636 95.9179 44.4273 95.9668 44.4003C96.0156 44.3733 96.0693 44.3563 96.1247 44.3501C96.164 44.3454 96.2038 44.3454 96.2431 44.3501C96.1571 44.2409 96.1103 44.1058 96.1103 43.9666C96.1103 43.8274 96.1571 43.6923 96.2431 43.5831C96.3328 43.4768 96.4447 43.3915 96.571 43.3333C96.6972 43.2752 96.8346 43.2456 96.9735 43.2466V42.4944C96.9622 42.3225 96.9999 42.1509 97.082 41.9996C97.1268 41.9357 97.195 41.892 97.2716 41.8781C97.3483 41.8642 97.4273 41.8812 97.4916 41.9254H97.5163C97.5508 41.574 97.6397 41.1583 97.9654 41.0346C98.2213 40.9823 98.4875 41.0339 98.7056 41.1781C98.7192 41.024 98.7801 40.878 98.88 40.7601C98.9799 40.6422 99.1138 40.5583 99.2632 40.52C99.4145 40.486 99.5713 40.4852 99.7229 40.5177C99.8745 40.5501 100.017 40.6151 100.142 40.708C100.172 40.7371 100.209 40.7576 100.25 40.7674C100.3 40.7821 100.353 40.7821 100.403 40.7674C100.508 40.6902 100.626 40.6344 100.753 40.6034C100.879 40.5723 101.01 40.5664 101.138 40.5862C101.266 40.606 101.39 40.6509 101.501 40.7185C101.612 40.7862 101.708 40.8751 101.785 40.9802C101.869 41.0956 101.927 41.228 101.955 41.3681C101.983 41.5082 101.981 41.6527 101.948 41.7917C101.948 41.6284 102.194 41.6185 102.352 41.6581C102.537 41.6828 102.709 41.764 102.846 41.8907C103.068 42.1381 102.959 42.5291 102.801 42.826C102.958 42.8273 103.108 42.8859 103.225 42.9907C103.341 43.0955 103.415 43.2393 103.433 43.3951C103.487 43.9542 102.94 43.9641 102.644 44.266C102.446 44.4689 102.357 44.7608 102.15 44.9439C102.012 45.0289 101.855 45.0772 101.694 45.0841C101.532 45.0911 101.372 45.0564 101.227 44.9835C100.944 44.8369 100.67 44.6716 100.408 44.4887C100.279 44.3938 100.118 44.3514 99.959 44.3699C99.7369 44.4145 99.6086 44.6569 99.4113 44.7707C99.2263 44.8578 99.0167 44.877 98.8191 44.8252C98.5773 44.7757 98.3256 44.7312 98.1381 44.9538C97.9783 45.1946 97.8645 45.4631 97.8025 45.7456Z" fill="#606161"/>
<path opacity="0.5" d="M97.5606 45.988C97.5446 45.9475 97.5265 45.9079 97.5064 45.8693C97.4957 45.8497 97.48 45.8335 97.4609 45.8221C97.4418 45.8108 97.42 45.8049 97.3978 45.8049C97.3762 45.809 97.3564 45.8197 97.3414 45.8358C97.3263 45.8518 97.3167 45.8722 97.3139 45.894C97.304 45.9363 97.304 45.9804 97.3139 46.0227C97.3364 46.1105 97.3696 46.1953 97.4126 46.275C97.4369 46.3281 97.4723 46.3753 97.5162 46.4136C97.5664 46.4487 97.6237 46.4723 97.684 46.4829C97.6949 46.4878 97.7066 46.4903 97.7186 46.4903C97.7305 46.4903 97.7422 46.4878 97.7531 46.4829C97.766 46.4712 97.7747 46.4555 97.7778 46.4383C97.7778 46.3641 97.8271 46.2058 97.7778 46.1414C97.7284 46.0771 97.7087 46.1414 97.6741 46.1018C97.6249 46.0773 97.5851 46.0374 97.5606 45.988Z" fill="url(#paint17_linear)"/>
<path d="M126.251 27.0255C126.792 27.1849 127.345 27.3007 127.905 27.3719C127.939 27.6985 127.983 28.0251 128.043 28.3616C128.059 28.4969 128.101 28.6279 128.166 28.7475C128.223 28.831 128.296 28.9021 128.38 28.9566C128.465 29.011 128.56 29.0476 128.66 29.0642C128.866 29.0939 129.075 29.0939 129.281 29.0642C129.373 29.0439 129.468 29.0598 129.548 29.1088C129.587 29.1477 129.618 29.1951 129.637 29.2473L130.002 30.1084C130.012 30.1141 130.024 30.1172 130.036 30.1174C130.048 30.1176 130.06 30.1149 130.07 30.1095C130.081 30.1042 130.09 30.0964 130.097 30.0867C130.104 30.077 130.109 30.0658 130.11 30.0539C130.12 30.0083 130.12 29.961 130.11 29.9154C130.051 29.5739 130.283 29.2622 130.421 28.9257C130.772 28.1191 130.54 27.1838 130.239 26.3525C130.115 25.9677 129.933 25.604 129.701 25.2737C129.403 24.9412 129.043 24.6711 128.64 24.4791C128.238 24.2872 127.802 24.1771 127.357 24.1553C126.916 24.0862 126.466 24.1252 126.044 24.2691C125.744 24.4 125.485 24.6106 125.295 24.8784C125.105 25.1462 124.993 25.4608 124.968 25.7883C124.958 26.4762 125.709 26.8622 126.251 27.0255Z" fill="#FBB03B"/>
<defs>
<linearGradient id="paint0_linear" x1="122.624" y1="61.8084" x2="139.196" y2="119.558" gradientUnits="userSpaceOnUse">
<stop offset="0.01"/>
<stop offset="0.08" stop-opacity="0.69"/>
<stop offset="0.21" stop-opacity="0.32"/>
<stop offset="1" stop-opacity="0"/>
</linearGradient>
<linearGradient id="paint1_linear" x1="6463.07" y1="-2891.61" x2="7337.18" y2="-1257.17" gradientUnits="userSpaceOnUse">
<stop offset="0.01"/>
<stop offset="0.08" stop-opacity="0.69"/>
<stop offset="0.21" stop-opacity="0.32"/>
<stop offset="1" stop-opacity="0"/>
</linearGradient>
<linearGradient id="paint2_linear" x1="19321.1" y1="2151.05" x2="19393.1" y2="885.798" gradientUnits="userSpaceOnUse">
<stop offset="0.01"/>
<stop offset="0.08" stop-opacity="0.69"/>
<stop offset="0.21" stop-opacity="0.32"/>
<stop offset="1" stop-opacity="0"/>
</linearGradient>
<linearGradient id="paint3_linear" x1="13441.3" y1="802.952" x2="13458.1" y2="30.1544" gradientUnits="userSpaceOnUse">
<stop offset="0.01"/>
<stop offset="0.08" stop-opacity="0.69"/>
<stop offset="0.21" stop-opacity="0.32"/>
<stop offset="1" stop-opacity="0"/>
</linearGradient>
<linearGradient id="paint4_linear" x1="74.4953" y1="37.6598" x2="57.7417" y2="37.6598" gradientUnits="userSpaceOnUse">
<stop stop-color="#E5C5D5"/>
<stop offset="0.42" stop-color="#EAD4D1"/>
<stop offset="1" stop-color="#F0E9CB"/>
</linearGradient>
<linearGradient id="paint5_linear" x1="6.49918" y1="86.3384" x2="43.5495" y2="86.3384" gradientUnits="userSpaceOnUse">
<stop stop-opacity="0"/>
<stop offset="0.99"/>
</linearGradient>
<linearGradient id="paint6_linear" x1="100.314" y1="32.8324" x2="103.352" y2="33.6845" gradientUnits="userSpaceOnUse">
<stop stop-color="#E3C5D5"/>
<stop offset="0.42" stop-color="#E8D3CF"/>
<stop offset="1" stop-color="#EFE8CB"/>
</linearGradient>
<linearGradient id="paint7_linear" x1="101.331" y1="34.0573" x2="102.715" y2="26.5716" gradientUnits="userSpaceOnUse">
<stop stop-color="#010101" stop-opacity="0"/>
<stop offset="0.95" stop-color="#010101"/>
</linearGradient>
<linearGradient id="paint8_linear" x1="140.304" y1="-1560.34" x2="196.407" y2="-1560.34" gradientUnits="userSpaceOnUse">
<stop stop-color="#E3C5D5"/>
<stop offset="0.42" stop-color="#E8D3CF"/>
<stop offset="1" stop-color="#EFE8CB"/>
</linearGradient>
<linearGradient id="paint9_linear" x1="100.247" y1="-180.064" x2="98.8498" y2="-180.166" gradientUnits="userSpaceOnUse">
<stop stop-color="#010101" stop-opacity="0"/>
<stop offset="0.95" stop-color="#010101"/>
</linearGradient>
<linearGradient id="paint10_linear" x1="373.979" y1="-910.079" x2="395.334" y2="-910.079" gradientUnits="userSpaceOnUse">
<stop stop-color="#E3C5D5"/>
<stop offset="0.42" stop-color="#E8D3CF"/>
<stop offset="1" stop-color="#EFE8CB"/>
</linearGradient>
<linearGradient id="paint11_linear" x1="244.436" y1="-397.249" x2="262.498" y2="-430.936" gradientUnits="userSpaceOnUse">
<stop stop-color="#010101" stop-opacity="0"/>
<stop offset="0.95" stop-color="#010101"/>
</linearGradient>
<linearGradient id="paint12_linear" x1="276.062" y1="-1590.64" x2="341.265" y2="-1580.13" gradientUnits="userSpaceOnUse">
<stop stop-color="#E3C5D5"/>
<stop offset="0.42" stop-color="#E8D3CF"/>
<stop offset="1" stop-color="#EFE8CB"/>
</linearGradient>
<linearGradient id="paint13_linear" x1="373.979" y1="-1119.15" x2="395.334" y2="-1119.15" gradientUnits="userSpaceOnUse">
<stop stop-color="#E3C5D5"/>
<stop offset="0.42" stop-color="#E8D3CF"/>
<stop offset="1" stop-color="#EFE8CB"/>
</linearGradient>
<linearGradient id="paint14_linear" x1="244.436" y1="-489.465" x2="262.498" y2="-523.152" gradientUnits="userSpaceOnUse">
<stop stop-color="#010101" stop-opacity="0"/>
<stop offset="0.95" stop-color="#010101"/>
</linearGradient>
<linearGradient id="paint15_linear" x1="288.694" y1="-1873.85" x2="353.897" y2="-1863.34" gradientUnits="userSpaceOnUse">
<stop stop-color="#E3C5D5"/>
<stop offset="0.42" stop-color="#E8D3CF"/>
<stop offset="1" stop-color="#EFE8CB"/>
</linearGradient>
<linearGradient id="paint16_linear" x1="59.484" y1="-316.676" x2="59.2629" y2="-336.228" gradientUnits="userSpaceOnUse">
<stop stop-color="#010101" stop-opacity="0"/>
<stop offset="0.95" stop-color="#010101"/>
</linearGradient>
<linearGradient id="paint17_linear" x1="88.6851" y1="-106.658" x2="89.3734" y2="-106.929" gradientUnits="userSpaceOnUse">
<stop stop-color="#010101" stop-opacity="0"/>
<stop offset="0.95" stop-color="#010101"/>
</linearGradient>
</defs>
</svg>
