<?xml version="1.0" encoding="utf-8"?>
<!-- Generator: Adobe Illustrator 24.3.0, SVG Export Plug-In . SVG Version: 6.00 Build 0)  -->
<svg version="1.1" id="Layer_1" xmlns="http://www.w3.org/2000/svg" xmlns:xlink="http://www.w3.org/1999/xlink" x="0px" y="0px"
	 viewBox="0 0 64 64" style="enable-background:new 0 0 64 64;" xml:space="preserve">
<style type="text/css">
	.st0{fill:#4573FF;}
	.st1{fill:none;stroke:#FFFFFF;stroke-width:1.5;stroke-linejoin:round;stroke-miterlimit:10;}
	
		.st2{fill:none;stroke:#FFFFFF;stroke-width:1.5;stroke-linecap:round;stroke-linejoin:round;stroke-miterlimit:10;stroke-dasharray:3;}
	
		.st3{fill:none;stroke:#FFFFFF;stroke-width:1.5;stroke-linecap:round;stroke-linejoin:round;stroke-miterlimit:10;stroke-dasharray:6;}
	.st4{fill:#FFFFFF;}
	.st5{fill:#4573FF;stroke:#FEFEFE;stroke-width:1.5;stroke-linejoin:round;stroke-miterlimit:10;}
	.st6{fill:none;stroke:#FEFEFE;stroke-width:1.5;stroke-linejoin:round;stroke-miterlimit:10;}
	.st7{fill:none;stroke:#FEFEFE;stroke-width:1.5;stroke-linecap:round;stroke-linejoin:round;stroke-miterlimit:10;}
	.st8{fill:none;stroke:#FFFFFF;stroke-width:1.5;stroke-linecap:round;stroke-linejoin:round;stroke-miterlimit:10;}
	
		.st9{fill:none;stroke:#FFFFFF;stroke-width:1.5;stroke-linecap:round;stroke-linejoin:round;stroke-miterlimit:10;stroke-dasharray:0,4;}
</style>
<circle class="st0" cx="32" cy="32" r="32"/>
<g>
	<g transform="translate(15.64 15.64)">
		<path class="st1" d="M6.6,5.7h16.8c1.2,0,2.2,1,2.2,2.2v22.6c0,1.2-1,2.2-2.2,2.2H6.6c-1.2,0-2.2-1-2.2-2.2V7.9
			C4.4,6.7,5.4,5.7,6.6,5.7z"/>
		<path class="st2" d="M8.9,28h12.2"/>
		<path class="st3" d="M8.9,24.8h12.2"/>
		<path class="st4" d="M12.9,17.1c0,0.5-0.2,0.9-0.5,1.2S11.6,18.9,11,19v0.5c0,0.2,0,0.3-0.1,0.4s-0.2,0.1-0.4,0.1
			c-0.2,0-0.3,0-0.4-0.1s-0.2-0.2-0.2-0.4V19c-0.3,0-0.6-0.1-1-0.2c-0.3-0.1-0.6-0.2-0.8-0.4C8.1,18.3,8,18.3,8,18.2
			c0-0.1-0.1-0.2-0.1-0.3c0-0.1,0-0.3,0.1-0.4s0.2-0.2,0.3-0.2c0.1,0,0.2,0,0.3,0.1l0.1,0.1c0.3,0.2,0.5,0.3,0.8,0.4
			c0.2,0.1,0.5,0.1,0.8,0.1c0.4,0,0.6-0.1,0.8-0.2c0.2-0.1,0.3-0.3,0.3-0.6c0-0.1-0.1-0.3-0.2-0.4c-0.1-0.1-0.2-0.2-0.4-0.2
			c-0.1,0-0.3-0.1-0.5-0.2l-0.2,0c-0.4-0.1-0.8-0.2-1.1-0.3c-0.3-0.1-0.5-0.3-0.7-0.5S8,14.9,8,14.5c0-0.5,0.2-0.9,0.5-1.3
			c0.3-0.3,0.8-0.6,1.4-0.7v-0.5c0-0.2,0.1-0.3,0.2-0.4s0.2-0.1,0.4-0.1c0.2,0,0.3,0,0.4,0.1s0.1,0.2,0.1,0.4v0.5
			c0.5,0.1,1,0.3,1.5,0.6c0.1,0.1,0.2,0.1,0.2,0.2c0,0.1,0.1,0.2,0.1,0.3c0,0.1,0,0.3-0.1,0.4s-0.2,0.2-0.3,0.2c-0.1,0-0.1,0-0.2,0
			c-0.1,0-0.1-0.1-0.2-0.1c-0.2-0.2-0.5-0.3-0.7-0.4s-0.4-0.1-0.7-0.1c-0.3,0-0.6,0.1-0.8,0.2s-0.3,0.3-0.3,0.6
			c0,0.2,0.1,0.3,0.2,0.4c0.1,0.1,0.3,0.2,0.4,0.2c0.1,0,0.2,0.1,0.4,0.1l0.3,0.1c0.4,0.1,0.8,0.2,1.1,0.3s0.5,0.3,0.7,0.5
			S12.9,16.7,12.9,17.1z"/>
	</g>
	<g>
		<circle class="st5" cx="40" cy="24.2" r="9.5"/>
		<circle class="st6" cx="36.9" cy="21" r="1.2"/>
		<circle class="st6" cx="43.2" cy="27.4" r="1.2"/>
		<line class="st7" x1="43.1" y1="18.8" x2="36.9" y2="29.6"/>
	</g>
</g>
</svg>
