<?xml version="1.0" encoding="UTF-8"?>
<svg width="100px" height="34px" viewBox="0 0 100 34" version="1.1" xmlns="http://www.w3.org/2000/svg" xmlns:xlink="http://www.w3.org/1999/xlink">
    <!-- Generator: Sketch 55.2 (78181) - https://sketchapp.com -->
    <title>indomaret_merchant_logo</title>
    <desc>Created with Sketch.</desc>
    <g id="00-Standard-Source" stroke="none" stroke-width="1" fill="none" fill-rule="evenodd">
        <g id="Other-Logo" transform="translate(-514.000000, -505.000000)">
            <g id="indomaret_merchant_logo" transform="translate(514.000000, 505.000000)">
                <path d="M2.88857925,0 L97.1114208,0 C97.9068805,0 98.6293004,0.328990455 99.1522708,0.858775169 C99.6752412,1.38855988 100,2.12039295 100,2.92621752 L100,31.0737825 C100,31.8796071 99.6752412,32.6114401 99.1522708,33.1412248 C98.6293004,33.6710095 97.9068805,34 97.1114208,34 L2.88857925,34 C2.09311954,34 1.37069963,33.6710095 0.847729233,33.1412248 C0.324621287,32.6114401 0,31.8796071 0,31.0737825 L0,2.92621752 C0,2.12039295 0.324621287,1.38855988 0.847729233,0.858775169 C1.37069963,0.328990455 2.09311954,0 2.88857925,0" id="Fill-1" fill="#F0F0F0"></path>
                <path d="M98.8888889,22.852459 L98.8888889,31.0319425 C98.8888889,32.0512594 98.0843893,32.8852459 97.1011121,32.8852459 L2.89888794,32.8852459 C1.91561068,32.8852459 1.11111111,32.0512594 1.11111111,31.0319425 L1.11111111,22.852459 L98.8888889,22.852459" id="Fill-2" fill="#FECF22"></path>
                <polygon id="Fill-3" fill="#006AB4" points="1.11111111 22.295082 98.8888889 22.295082 98.8888889 12.2622951 1.11111111 12.2622951"></polygon>
                <path d="M2.89888794,1.1147541 L97.1011121,1.1147541 C98.0843893,1.1147541 98.8888889,1.94874065 98.8888889,2.96805754 L98.8888889,11.147541 L1.11111111,11.147541 L1.11111111,2.96805754 C1.11111111,1.94874065 1.91561068,1.1147541 2.89888794,1.1147541" id="Fill-4" fill="#D61627"></path>
                <path d="M16.1605732,8.03449987 C22.6960125,6.0743136 28.2287726,4.90855366 33.5006854,4.22860798 C38.2217072,3.61957091 42.7116262,3.40504111 47.5157134,3.36035897 L47.5157134,3.3442623 L52.6728972,3.3442623 L52.6728972,3.36230167 C57.4376449,3.41114675 61.8989159,3.6305333 66.5903302,4.24040295 C71.8357882,4.92229134 77.3425047,6.08583104 83.8395639,8.03449987 C84.5535701,8.24861338 85.247838,8.58692104 85.7704922,9.1160298 C86.3219315,9.67427908 86.6666667,10.3861406 86.6666667,11.2932436 L86.6666667,22.7077277 C86.6666667,23.6148308 86.3219315,24.3266923 85.7704922,24.8849416 C85.247838,25.4140503 84.5535701,25.752358 83.8395639,25.9664715 C77.3425047,27.9150015 71.8357882,29.07868 66.5903302,29.7605684 C61.8989159,30.370438 57.4376449,30.5898246 52.6728972,30.6386697 L52.6728972,30.6557377 L50.9860935,30.6557377 L50.9860935,30.6500484 L50.445757,30.6500484 L50.3426791,30.6501871 L50.3426791,30.6557377 L49.6573209,30.6557377 L49.6573209,30.6506034 L48.6979564,30.6512972 L48.6979564,30.6483832 C43.5018442,30.6289562 38.7303801,30.4391264 33.7457695,29.8094135 C28.420947,29.1366835 22.8203364,27.9638466 16.1605732,25.9664715 C15.446567,25.752358 14.7522991,25.4140503 14.2296449,24.8849416 C13.6782056,24.3266923 13.3333333,23.6148308 13.3333333,22.7077277 L13.3333333,11.2932436 C13.3333333,10.3861406 13.6782056,9.67427908 14.2296449,9.1160298 C14.7522991,8.58692104 15.446567,8.24861338 16.1605732,8.03449987" id="Fill-5" fill="#E6E6E6"></path>
                <path d="M61.2746711,20.8344769 C60.8667075,20.2503891 61.2577071,19.2794871 61.5462331,18.7370194 C61.8525507,18.161368 62.3052,17.4309066 63.0216879,17.5709527 C63.3499345,18.7739994 62.2978903,20.9514632 61.2746711,20.8344769 Z M38.9915525,17.4947429 C39.5225397,18.8518965 37.7777296,21.3353246 37.188127,20.6582944 C36.709411,20.1086557 37.8276562,17.2160568 38.9915525,17.4947429 Z M42.6632255,20.6595599 L42.4556578,20.196536 C41.878054,20.3301141 40.9653077,20.8765189 40.3179171,20.7200216 C39.9656727,19.8992895 42.5035156,14.4957034 42.988162,12.8408815 L41.7150341,12.898531 C41.3552041,13.5028665 40.6916769,15.6176189 40.3672921,16.0561769 C38.1156305,15.8161582 37.1776451,16.4784244 36.2596579,17.7022811 C34.7679287,19.6910483 35.8627278,19.8897282 34.7399312,20.5410269 C33.7510538,21.1145692 33.8929722,20.789904 33.8180823,20.7077887 C33.4081878,20.3430501 34.5589818,17.8344531 34.6686272,17.2863611 C34.8112352,16.5733352 34.4472676,16.0041518 33.7975324,16.0425379 C33.1890349,16.0786743 32.7350064,16.5190603 32.3018036,16.7573917 C30.7982134,17.5843106 32.2139493,14.3889815 28.1188658,17.3389487 C27.8026181,17.5665939 27.0091716,18.0345391 26.8527717,18.1932861 C26.8876651,17.9321761 28.0668705,15.3375267 28.3068491,14.7289729 C28.7686011,13.5582662 29.2329735,12.3465019 29.6265936,11.1565318 C28.1401053,11.0540282 23.7127755,11.8366553 22.3659989,13.0616369 C19.8205705,15.3766159 22.8551968,18.435414 24.8609491,16.0840174 C24.3769922,15.7289809 23.6344377,16.0733312 23.5207926,15.1623285 C23.423422,14.3802638 23.698432,13.8598716 24.1128778,13.534644 C24.6187638,13.1377061 26.8396694,12.7303632 27.6238754,12.5804745 C27.5422275,13.0030031 27.1983961,13.7989881 27.0323419,14.2705891 C26.1547649,16.7630161 25.0802399,20.5685862 21.9598282,20.666731 C20.3276977,20.7180531 19.8609807,19.9746557 19.2813082,18.8375545 C18.9236849,19.2493969 18.7769393,20.1021877 18.9831279,20.7225525 C19.1680769,21.2793624 19.5982455,21.6640673 20.108269,21.9147724 C22.5466725,23.1144444 24.6990325,21.0946027 26.4299128,19.7276065 C26.8668394,19.3825532 28.4912464,17.7031248 29.3241378,18.1204509 C29.7896136,19.066184 28.4381477,21.0541075 28.4080814,22.0372424 L30.0141453,22.0722539 C30.3040505,21.2603802 30.5386503,20.3744058 30.8143499,19.5227399 C31.0485359,18.7991683 31.3755413,17.5086632 32.3075962,18.1637583 C32.6653574,19.1356446 31.1478374,21.1701095 31.9790737,21.8523422 C32.8412038,22.5598843 34.7779968,21.1433939 35.2383696,20.8603489 C35.5984754,21.3881934 35.5919933,22.0473662 36.5201865,22.2069569 C37.2602585,22.3342076 38.0116398,21.977765 38.4317403,21.6242751 C38.6937859,21.9538615 38.6295158,22.2837292 39.235255,22.2255172 C39.8306502,22.1684302 41.6035957,20.9860529 42.6632255,20.6595599 Z M73.1537509,19.2737222 C73.0814815,18.4202283 74.0047096,17.2419288 74.6613408,17.2730032 C74.8788387,17.7745539 74.4973554,18.3271455 74.2528255,18.6215798 C73.971747,18.9601651 73.6771526,19.3281377 73.1537509,19.2737222 Z M48.9754908,17.2427724 L49.1582331,17.8177207 C49.660947,17.6743 50.2182767,17.3389487 50.7214043,17.4808227 C50.8789075,18.4552398 49.4282781,21.1310204 49.2185036,22.264747 L50.79988,22.231704 C51.1119901,21.6975322 51.439823,20.4479441 51.6814567,19.7915834 C51.932193,19.1106163 52.2252703,17.7806001 53.1453263,18.1077961 C53.6874849,19.1997621 52.2124439,21.1613918 52.1021089,22.2294543 L53.9070515,22.2466085 C54.2409528,21.2655827 54.6184364,20.0462255 55.0102636,19.0777139 C55.204867,18.5971139 55.4099521,17.8444364 56.1115448,18.0449441 C56.9100944,18.2732924 55.5325619,19.7970671 55.5471813,21.145503 C55.5536635,21.7488543 55.9552829,22.2786673 56.5459889,22.2196117 C57.3314362,22.1411521 58.6496636,21.0435618 59.3257413,20.8894549 C59.6346793,21.5999498 59.6995011,22.0421637 60.5253586,22.1740545 C61.3688696,22.3087575 61.8980639,21.9018364 62.4396708,21.5812489 C62.4560831,21.5985437 62.4744263,21.6252594 62.483529,21.6380547 L62.6048975,21.8125499 C62.7698483,22.0577712 62.863771,22.2477334 63.2670454,22.2889317 C64.5990647,22.425322 66.5663377,20.258685 67.3346831,19.2246498 C68.193779,18.0684258 67.8433274,18.1564467 68.947367,18.0578801 C68.7050438,19.1222868 67.5156325,20.8239313 68.5210601,21.8536076 C69.5285566,22.8851119 71.5378949,21.4942122 72.1479095,21.1297549 C72.710618,21.7637588 73.0090742,22.3261929 74.3471619,22.2637627 C75.4016886,22.2145498 75.9863262,21.7811942 76.832044,21.5316141 C77.8609179,23.2546311 81.2218599,21.5591734 81.0940092,20.5109367 C80.6602547,20.4258685 80.1529896,21.0427182 79.707512,21.2870958 C79.0908773,21.6252594 78.4654157,21.4099877 78.4503826,20.6796669 C78.442935,20.3176 79.3039617,17.6354921 79.4745672,17.3007031 L80.4929593,17.2902981 L80.8308602,16.1094676 L80.1150619,16.0956879 C80.2485673,14.8587546 80.8933374,13.7977226 81.1111111,12.7026633 L79.6813074,12.7610158 L78.5339614,15.9992305 L77.4856409,16.0602546 L77.2384905,17.2751124 L78.0614517,17.261614 C77.8867087,18.4133385 77.232698,19.9680471 76.6581284,20.6996334 C76.0634228,21.4568103 73.9316127,21.9087262 73.5454402,20.5837719 C74.0445681,20.0138855 74.9158009,19.8831196 75.5965678,18.6824632 C77.3027607,15.6728781 73.8967192,15.3070146 72.5077395,17.4015195 C71.6398168,18.7104443 71.9080688,19.1162406 71.9566162,20.6661685 C70.2418724,21.6377735 69.6401329,21.8312509 69.7937744,20.1189201 C69.9493467,18.3862011 70.2091856,18.6443583 70.4917812,18.3361444 C70.7077619,18.1006251 70.789134,17.6752843 70.5535688,17.4435614 C70.2811792,17.1555951 69.8151518,17.4110808 69.3073349,17.2256182 C68.9841913,16.4110729 69.5366938,16.2759481 69.7588809,15.830219 C69.4645623,15.7600554 69.2298246,15.8005506 68.9366093,15.7542904 C68.2351546,15.6436315 68.8630986,15.6247899 68.3927957,15.3486348 C67.9881421,15.5075224 67.9608342,15.5225675 67.818502,15.985029 C67.4086075,17.3164513 67.557146,17.6062455 66.8421752,18.6305787 C66.4532443,19.1879509 65.1366719,21.061841 64.2313733,20.7170688 C63.8129278,20.154494 65.4079581,16.8625669 65.6047682,16.0380384 C63.9813266,15.9145841 64.2247532,16.2288442 63.9966356,16.4855954 C62.4958037,15.7980197 61.7067706,16.3828106 60.7853354,17.2166192 C59.4666942,18.4103857 59.409458,20.1291845 59.2471276,20.3184436 C58.8471632,20.5833501 58.0355114,20.9482293 57.4417712,20.7285987 C57.2707519,20.0390544 58.3208653,18.0224468 58.4918845,17.200168 C58.6720064,16.3338788 58.1822569,15.8725422 57.3260573,16.0980783 C56.6826664,16.2675116 56.4366193,16.8746593 55.8453616,16.9529782 C55.3480266,16.5956919 55.3249942,15.8469514 54.3081193,16.0248212 C53.5901142,16.1503847 53.544739,16.7223802 52.7314321,16.8867516 C52.7155715,16.8634106 52.7026071,16.8300863 52.694194,16.8102605 L52.6041331,16.5824747 C52.5645504,16.468863 52.4740757,16.1128422 52.2932642,16.0142756 C51.4731994,15.9079755 49.8338971,16.9853182 48.9754908,17.2427724 L48.9754908,17.2427724 Z" id="Fill-6" fill="#006AB4"></path>
                <path d="M45.8333333,16.7264724 C46.3688477,16.7264724 46.8538066,16.944252 47.2046193,17.2963491 C47.5555658,17.6484463 47.7727675,18.1349951 47.7727675,18.6721311 C47.7727675,19.2094013 47.5555658,19.695816 47.2046193,20.0479132 C46.8538066,20.4000103 46.3688477,20.6177899 45.8333333,20.6177899 C45.2979527,20.6177899 44.8129938,20.4000103 44.4621811,20.0479132 C44.1111008,19.695816 43.8940329,19.2094013 43.8940329,18.6721311 C43.8940329,18.1349951 44.1111008,17.6484463 44.4621811,17.2963491 C44.8129938,16.944252 45.2979527,16.7264724 45.8333333,16.7264724 Z M45.8333333,15.0491803 C46.830535,15.0491803 47.7333128,15.4548166 48.3867901,16.1103024 C49.0402675,16.7659223 49.4444444,17.6717942 49.4444444,18.6721311 C49.4444444,19.6724681 49.0402675,20.5782058 48.3867901,21.2339599 C47.7333128,21.8894457 46.830535,22.295082 45.8333333,22.295082 C44.8362654,22.295082 43.9334877,21.8895798 43.2800103,21.2339599 C42.6265329,20.5782058 42.2222222,19.6724681 42.2222222,18.6721311 C42.2222222,17.6717942 42.6265329,16.7659223 43.2800103,16.1103024 C43.9334877,15.4546825 44.8362654,15.0491803 45.8333333,15.0491803 Z M48.1031173,16.3949053 C47.5222634,15.8122811 46.7197942,15.4517304 45.8333333,15.4517304 C44.9470062,15.4517304 44.1444033,15.8122811 43.5636831,16.3949053 C42.9828292,16.9776636 42.6235905,17.782898 42.6235905,18.6721311 C42.6235905,19.5614985 42.9828292,20.3665987 43.5636831,20.949357 C44.1444033,21.5319812 44.9470062,21.8925319 45.8333333,21.8925319 C46.7197942,21.8925319 47.5222634,21.5319812 48.1031173,20.949357 C48.6839712,20.3665987 49.0432099,19.5614985 49.0432099,18.6721311 C49.0432099,17.782898 48.6839712,16.9776636 48.1031173,16.3949053 Z M45.8333333,15.8878264 C46.5996914,15.8878264 47.2935597,16.1994001 47.7957716,16.7033928 C48.2979835,17.2072514 48.6086728,17.9033947 48.6086728,18.6721311 C48.6086728,19.4410018 48.2979835,20.1370109 47.7957716,20.6408695 C47.2935597,21.144728 46.5996914,21.4564359 45.8333333,21.4564359 C45.0671091,21.4564359 44.3732407,21.144728 43.8710288,20.6408695 C43.3688169,20.1370109 43.0581276,19.4410018 43.0581276,18.6721311 C43.0581276,17.9033947 43.3688169,17.2072514 43.8710288,16.7033928 C44.3732407,16.1994001 45.0671091,15.8878264 45.8333333,15.8878264 Z M47.5120988,16.9879957 C47.0825103,16.5569988 46.4889506,16.2903764 45.8333333,16.2903764 C45.1778498,16.2903764 44.5842901,16.5569988 44.1547016,16.9879957 C43.7251132,17.4188585 43.4593621,18.0143643 43.4593621,18.6721311 C43.4593621,19.329898 43.7251132,19.9254038 44.1547016,20.3562665 C44.5842901,20.7872635 45.1778498,21.0538859 45.8333333,21.0538859 C46.4889506,21.0538859 47.0825103,20.7872635 47.5120988,20.3562665 C47.9416872,19.9254038 48.2073045,19.329898 48.2073045,18.6721311 C48.2073045,18.0143643 47.9416872,17.4188585 47.5120988,16.9879957 Z M46.9209465,17.580952 C46.6427572,17.3017165 46.258107,17.1290225 45.8333333,17.1290225 C45.4085597,17.1290225 45.0240432,17.3017165 44.7457202,17.580952 C44.4675309,17.8601876 44.2952675,18.2459648 44.2952675,18.6721311 C44.2952675,19.0982975 44.4673971,19.4840747 44.7457202,19.7633103 C45.0240432,20.0425458 45.4085597,20.2152398 45.8333333,20.2152398 C46.258107,20.2152398 46.6427572,20.0425458 46.9209465,19.7633103 C47.1992695,19.4840747 47.3715329,19.0982975 47.3715329,18.6721311 C47.3715329,18.2459648 47.1992695,17.8601876 46.9209465,17.580952 L46.9209465,17.580952 Z" id="Fill-7" fill="#D61627"></path>
                <path d="M16.6570168,9.63216101 C29.6651713,5.76151179 38.611764,5.03719518 49.4321483,5.01694816 L49.4321483,5.01639344 L51.3132579,5.01639344 L51.3132579,5.01736419 C62.0485892,5.04579324 70.9666006,5.78411635 83.8985388,9.63216101 C84.7721281,9.89204409 85.5555556,10.3810237 85.5555556,11.2963003 L85.5555556,22.7036975 C85.5555556,23.6189741 84.7721281,24.1079536 83.8985388,24.3678367 C70.9666006,28.2158814 62.0485892,28.9542045 51.3132579,28.9826335 L51.2710075,28.9826335 C51.0556133,28.9831883 50.8398048,28.9836051 50.6228918,28.9836051 L50.6228918,28.9826335 L49.9325257,28.9826335 L49.9325257,28.9836051 C38.8858393,28.9844364 29.8651014,28.2979789 16.6570168,24.3678367 C15.7834275,24.1079536 15,23.6189741 15,22.7036975 L15,11.2963003 C15,10.3810237 15.7834275,9.89204409 16.6570168,9.63216101 Z M49.6670109,7.51634663 C39.560327,7.55434448 30.5053469,7.94111818 18.6590785,11.0189437 C17.7770668,11.2480402 17.0020617,11.7678064 17.0020617,12.683083 L17.0020617,21.3169148 C17.0020617,22.2321914 17.7770668,22.7518188 18.6590785,22.981054 C30.4135282,26.0350269 39.4196304,26.4394127 49.4321483,26.4826804 L51.1252022,26.4826804 C61.1368917,26.4394127 70.1427177,26.0347495 81.896477,22.981054 C82.7784888,22.7518188 83.5533557,22.2321914 83.5533557,21.3169148 L83.5533557,12.683083 C83.5533557,11.7678064 82.7784888,11.2480402 81.896477,11.0189437 C70.0502086,7.94111818 60.9952285,7.55434448 50.8885447,7.51634663 L49.6670109,7.51634663 L49.6670109,7.51634663 Z" id="Fill-8" fill="#D61627"></path>
            </g>
        </g>
    </g>
</svg>