<svg width="177" height="133" viewBox="0 0 177 133" fill="none" xmlns="http://www.w3.org/2000/svg">
<path opacity="0.4" d="M30.2362 84.9028C30.2362 84.9028 21.6384 63.9686 35.2674 52.136C48.8964 40.3034 71.9949 19.5466 113.001 27.899C154.008 36.2514 142.835 85.0579 142.835 85.0579L30.2362 84.9028Z" fill="#E6E6E6"/>
<path d="M77.6812 63.4897C77.6812 63.4897 69.5082 46.7849 83.1505 39.6605C96.7928 32.5362 122.294 30.4259 126.586 46.4435C130.879 62.4612 125.701 84.9027 125.701 84.9027L82.0487 84.9426L77.6812 63.4897Z" fill="#24285B"/>
<path opacity="0.08" d="M77.6812 63.4897C77.6812 63.4897 69.5082 46.7849 83.1505 39.6605C96.7928 32.5362 122.294 30.4259 126.586 46.4435C130.879 62.4612 125.701 84.9027 125.701 84.9027L82.0487 84.9426L77.6812 63.4897Z" fill="white"/>
<path d="M71.2427 63.4897C71.2427 63.4897 63.0698 46.7849 76.712 39.6605C90.3543 32.5362 115.856 30.4259 120.148 46.4435C124.44 62.4612 119.263 84.9027 119.263 84.9027L75.6102 84.9426L71.2427 63.4897Z" fill="#24285B"/>
<path d="M79.1238 50.9834C79.1238 50.9834 93.6777 41.465 104.691 49.9194C115.705 58.3737 111.17 84.8984 111.17 84.8984H69.8181C69.8181 84.8984 51.8039 70.8669 79.1238 50.9834Z" fill="#4573FF"/>
<path d="M68.8042 60.5815C68.8042 60.5815 53.9937 80.6113 64.6403 84.9028H73.8575C73.8575 84.9028 83.2695 58.0368 68.8042 60.5815Z" fill="#4573FF"/>
<path opacity="0.58" d="M36.6873 80.7931C36.6873 80.7931 33.3288 79.8754 32.5986 76.7454C32.5986 76.7454 37.8024 75.6947 37.9485 81.0723L36.6873 80.7931Z" fill="#4573FF"/>
<path opacity="0.73" d="M37.0984 80.4606C37.0984 80.4606 34.7531 76.7455 36.8152 73.2742C36.8152 73.2742 40.7711 75.7879 39.0277 80.4695L37.0984 80.4606Z" fill="#4573FF"/>
<path d="M37.7012 80.4606C37.7012 80.4606 38.9402 76.5416 42.6881 75.8101C42.6881 75.8101 43.3873 78.3592 40.2632 80.4872L37.7012 80.4606Z" fill="#4573FF"/>
<path d="M35.2676 80.3763L35.949 85.0358L40.2324 85.0579L40.8652 80.3985L35.2676 80.3763Z" fill="#24285B"/>
<path d="M149.091 87.78H26.085V116.978H149.091V87.78Z" fill="#C9C9C9"/>
<path d="M149.091 84.9028H26.085V90.1696H149.091V84.9028Z" fill="#E6E6E6"/>
<path opacity="0.08" d="M124.488 84.9516C124.488 84.9516 127.803 107.956 103.987 116.978H149.091V84.9028L124.488 84.9516Z" fill="black"/>
<path d="M100.377 84.0604H83.7344V84.9028H100.377V84.0604Z" fill="white"/>
<path opacity="0.08" d="M81.132 61.0248C81.132 61.0248 83.2118 63.534 80.393 65.232C77.5743 66.93 77.0478 67.9186 77.5124 71.718C77.977 75.5174 77.0699 82.0166 74.9459 83.4619H79.9063V84.9027H67.7021L72.0165 67.0985L73.2998 64.4118L76.3973 61.0248H81.132Z" fill="black"/>
<path d="M75.7959 56.3033C75.7959 56.3033 76.0526 60.2135 78.4111 59.9519C80.7696 59.6903 80.5041 58.2096 80.5041 58.2096C80.5041 58.2096 82.8051 58.7638 83.0839 56.822C83.3627 54.8802 81.5573 52.7344 79.6722 52.5216C77.7872 52.3088 75.7959 56.3033 75.7959 56.3033Z" fill="white"/>
<path opacity="0.08" d="M90.3941 56.0151C90.3941 56.0151 88.9427 61.6233 97.5759 66.2827C106.209 70.9422 106.426 76.8562 98.3945 79.166C90.3631 81.4758 86.8895 80.7354 88.04 84.9027H111.169C111.169 84.9027 111.488 81.8969 111.842 79.0552C112.196 76.2134 114.94 56.2501 114.94 56.2501L90.3941 56.0151Z" fill="black"/>
<path d="M80.5355 54.7472C80.5355 54.7472 80.0487 53.8827 80.7656 53.4172C81.4824 52.9517 82.3055 54.6231 80.5355 54.7472Z" fill="#F4A28C"/>
<path d="M77.1717 56.5471C77.1717 56.5471 76.8575 55.6028 76.0212 55.8201C75.1849 56.0373 75.8929 57.7751 77.1717 56.5471Z" fill="#F4A28C"/>
<path d="M73.1938 60.085L75.9417 62.4878C75.9417 62.4878 75.4992 84.9781 65.3217 84.9427C65.3217 84.9427 58.4984 85.1732 60.7065 77.1489C62.9145 69.1245 65.2023 70.4191 73.1938 60.085Z" fill="#4573FF"/>
<path d="M51.6222 84.9028L49.0557 70.3748H67.2513L68.8266 82.7615L77.1721 82.8767V84.9028H51.6222Z" fill="#FFD200"/>
<path d="M58.8661 79.166C59.8729 79.166 60.6892 78.3482 60.6892 77.3395C60.6892 76.3307 59.8729 75.5129 58.8661 75.5129C57.8592 75.5129 57.043 76.3307 57.043 77.3395C57.043 78.3482 57.8592 79.166 58.8661 79.166Z" fill="white"/>
<path d="M90.3936 56.0152C88.7475 51.3159 92.4468 46.4658 97.4161 46.5323C105.691 46.6431 119.209 48.811 123.705 61.1623C130.343 79.3922 97.5754 82.3137 97.5754 82.3137L96.1771 78.4567C96.1771 78.4567 113.209 73.7796 111.342 64.4297C109.824 56.8088 93.4867 64.8375 90.3936 56.0152Z" fill="#4573FF"/>
<path d="M95.5504 75.9218L94.3926 75.5188L91.7319 83.1908L92.8898 83.5938L95.5504 75.9218Z" fill="#24285B"/>
<path d="M91.7393 83.187L91.7791 84.9337L92.8942 83.5904L91.7393 83.187Z" fill="#FFD200"/>
<path opacity="0.46" d="M90.3936 56.0152C88.7475 51.3159 92.4468 46.4658 97.4161 46.5323C105.691 46.6431 119.209 48.811 123.705 61.1623C130.343 79.3922 97.5754 82.3137 97.5754 82.3137L96.1771 78.4567C96.1771 78.4567 113.209 73.7796 111.342 64.4297C109.824 56.8088 93.4867 64.8375 90.3936 56.0152Z" fill="white"/>
<path d="M96.4644 78.47C96.4644 78.47 91.3004 78.9133 91.1854 80.895C91.0703 82.8767 94.5661 83.6392 97.5972 81.5955L96.4644 78.47Z" fill="#F4A28C"/>
<path d="M135.679 79.166H114.957V84.9072H135.679V79.166Z" fill="white"/>
<path opacity="0.08" d="M128.718 79.166L127.439 84.9426L135.679 84.9027V79.166H128.718Z" fill="black"/>
<path opacity="0.45" d="M57.7466 69.6034C57.7466 69.6034 80.8265 46.2607 67.7029 36.1318C54.5792 26.0028 49.3066 47.5771 56.6404 49.4317C63.9416 53.2001 74.4429 31.6501 53.9854 32.3634C33.5279 33.0767 58.0451 53.5733 35.4004 43.587" stroke="#C9C9C9" stroke-linecap="round" stroke-linejoin="round" stroke-dasharray="1 2"/>
<path d="M32.3365 40.0427L35.8426 37.9595L21.6826 36.3534L28.1587 46.1067L30.4649 41.0869L32.3365 40.0427Z" fill="#FFD200"/>
<path d="M32.3026 39.9231L31.3244 43.4467L30.437 40.9335L21.6826 36.3534L32.3026 39.9231Z" fill="#FFD200"/>
<path opacity="0.46" d="M32.3026 39.9231L31.3244 43.4467L30.437 40.9335L21.6826 36.3534L32.3026 39.9231Z" fill="white"/>
<path d="M31.4175 43.4466L29.6475 42.2876L30.4102 40.7866L31.4175 43.4466Z" fill="#24285B"/>
<path d="M76.2421 56.1171C76.6789 56.5517 77.0911 57.0106 77.4766 57.4915C77.9943 58.1609 78.9546 59.0121 80.1759 58.4225C82.0565 57.5136 80.5786 54.5655 80.5786 54.5655C80.5786 54.5655 79.8219 51.3424 77.7819 52.3178C75.9456 53.2 74.2641 54.0867 76.2421 56.1171Z" fill="#F4A28C"/>
<path d="M76.2422 56.1172C76.2422 56.1172 73.2774 57.6999 73.0296 54.8404C72.7818 51.9809 74.1359 53.271 73.5828 51.3203C73.0296 49.3696 73.3217 48.7002 74.6315 48.7445C75.9413 48.7888 76.1404 50.7528 77.1139 49.445C78.0874 48.1371 78.6848 47.1485 79.6893 48.0174C80.6938 48.8864 80.8221 49.5558 80.269 50.5134C79.7158 51.471 82.0168 51.9365 80.4017 54.0025C78.7866 56.0684 76.0962 54.6143 76.0962 54.6143L76.2422 56.1172Z" fill="#FFD200"/>
<path d="M68.2644 84.0826C67.4733 84.6054 66.5475 84.8865 65.5998 84.8919C64.652 84.8972 63.7232 84.6265 62.9262 84.1127C62.1292 83.5988 61.4984 82.864 61.1107 81.9976C60.7229 81.1312 60.5948 80.1705 60.7419 79.2325C61.0047 77.7243 61.6103 76.2969 62.5119 75.0607C66.4015 69.4703 73.2071 60.0849 73.2071 60.0849C73.2071 60.0849 79.3535 56.0949 81.296 59.0963C83.2386 62.0976 75.9418 62.5099 75.9418 62.5099C75.9418 62.5099 75.7958 79.0729 68.2644 84.0826Z" fill="#F4A28C"/>
<path opacity="0.46" d="M73.1938 60.085L75.9417 62.4878C75.9417 62.4878 75.4992 84.9781 65.3217 84.9427C65.3217 84.9427 58.4984 85.1732 60.7065 77.1489C62.9145 69.1245 65.2023 70.4191 73.1938 60.085Z" fill="white"/>
</svg>
