<svg width="35" height="27" viewBox="0 0 35 27" fill="none" xmlns="http://www.w3.org/2000/svg">
<path d="M35 21.0729C35 24.0055 32.5611 26.3934 29.566 26.3934H0V5.32058C0 2.38798 2.43888 0 5.43399 0H35V21.0729Z" fill="white"/>
<path d="M24.897 15.6215H27.1681C27.233 15.6215 27.3844 15.6006 27.4493 15.6006C27.8819 15.517 28.2496 15.1408 28.2496 14.6182C28.2496 14.1165 27.8819 13.7403 27.4493 13.6358C27.3844 13.6149 27.2546 13.6149 27.1681 13.6149H24.897V15.6215Z" fill="url(#paint0_linear)"/>
<path d="M26.9094 1.76306C24.7464 1.76306 22.9728 3.45618 22.9728 5.56734V9.51794H28.5316C28.6614 9.51794 28.8128 9.51794 28.921 9.53884C30.1755 9.60155 31.1056 10.2286 31.1056 11.3156C31.1056 12.1726 30.4783 12.9042 29.3103 13.0505V13.0923C30.5865 13.1759 31.5598 13.8657 31.5598 14.9317C31.5598 16.0814 30.4783 16.8339 29.0507 16.8339H22.9512V24.5678H28.7263C30.8893 24.5678 32.6629 22.8747 32.6629 20.7636V1.76306L26.9094 1.76306Z" fill="url(#paint1_linear)"/>
<path d="M27.9684 11.5664C27.9684 11.0648 27.6007 10.7303 27.1681 10.6676C27.1248 10.6676 27.0167 10.6467 26.9518 10.6467H24.897V12.4862H26.9518C27.0167 12.4862 27.1465 12.4862 27.1681 12.4653C27.6007 12.4026 27.9684 12.0681 27.9684 11.5664Z" fill="url(#paint2_linear)"/>
<path d="M5.69669 1.72131C3.52429 1.72131 1.74292 3.42683 1.74292 5.55347V15.0075C2.85084 15.5339 4.00222 15.8708 5.15359 15.8708C6.52221 15.8708 7.26082 15.0707 7.26082 13.9758V9.51196H10.6498V13.9547C10.6498 15.6813 9.54185 17.092 5.78359 17.092C3.50256 17.092 1.72119 16.6078 1.72119 16.6078V24.6721H7.52151C9.69392 24.6721 11.4753 22.9666 11.4753 20.84V1.72131L5.69669 1.72131Z" fill="url(#paint3_linear)"/>
<path d="M16.5768 1.72131C14.4044 1.72131 12.623 3.42371 12.623 5.54645V10.5486C13.6224 9.72888 15.3603 9.20345 18.1627 9.32955C19.6616 9.3926 21.2692 9.79193 21.2692 9.79193V11.4103C20.4654 11.0109 19.5096 10.6536 18.2713 10.5696C16.1423 10.4224 14.8606 11.4313 14.8606 13.1967C14.8606 14.9832 16.1423 15.992 18.2713 15.8239C19.5096 15.7398 20.4654 15.3615 21.2692 14.9832V16.6015C21.2692 16.6015 19.6834 17.0008 18.1627 17.0639C15.3603 17.19 13.6224 16.6646 12.623 15.8449V24.6721H18.4234C20.5958 24.6721 22.3771 22.9697 22.3771 20.847V1.72131L16.5768 1.72131Z" fill="url(#paint4_linear)"/>
<defs>
<linearGradient id="paint0_linear" x1="22.9683" y1="17.5295" x2="32.6881" y2="17.5295" gradientUnits="userSpaceOnUse">
<stop stop-color="#007940"/>
<stop offset="0.2285" stop-color="#00873F"/>
<stop offset="0.7433" stop-color="#40A737"/>
<stop offset="1" stop-color="#5CB531"/>
</linearGradient>
<linearGradient id="paint1_linear" x1="22.9689" y1="24.5691" x2="32.6895" y2="24.5691" gradientUnits="userSpaceOnUse">
<stop stop-color="#007940"/>
<stop offset="0.2285" stop-color="#00873F"/>
<stop offset="0.7433" stop-color="#40A737"/>
<stop offset="1" stop-color="#5CB531"/>
</linearGradient>
<linearGradient id="paint2_linear" x1="22.9681" y1="14.4745" x2="32.6883" y2="14.4745" gradientUnits="userSpaceOnUse">
<stop stop-color="#007940"/>
<stop offset="0.2285" stop-color="#00873F"/>
<stop offset="0.7433" stop-color="#40A737"/>
<stop offset="1" stop-color="#5CB531"/>
</linearGradient>
<linearGradient id="paint3_linear" x1="1.73832" y1="24.8608" x2="11.6517" y2="24.8608" gradientUnits="userSpaceOnUse">
<stop stop-color="#1F286F"/>
<stop offset="0.4751" stop-color="#004E94"/>
<stop offset="0.8261" stop-color="#0066B1"/>
<stop offset="1" stop-color="#006FBC"/>
</linearGradient>
<linearGradient id="paint4_linear" x1="12.5669" y1="24.5043" x2="22.195" y2="24.5043" gradientUnits="userSpaceOnUse">
<stop stop-color="#6C2C2F"/>
<stop offset="0.1735" stop-color="#882730"/>
<stop offset="0.5731" stop-color="#BE1833"/>
<stop offset="0.8585" stop-color="#DC0436"/>
<stop offset="1" stop-color="#E60039"/>
</linearGradient>
</defs>
</svg>
