<svg width="100" height="88" viewBox="0 0 100 88" fill="none" xmlns="http://www.w3.org/2000/svg">
<path opacity="0.18" d="M10.6378 74.2409C7.34891 71.2841 4.70597 67.6765 2.87535 63.6452C1.04473 59.6139 0.066068 55.2462 0.000958032 50.8171C-0.0802392 41.9769 5.00981 34.6711 11.498 28.7089C16.1186 24.444 32.4925 -10.2121 63.5758 2.97701C73.7255 7.28517 73.2992 22.7085 80.069 31.4546C82.099 34.0832 84.6186 36.2895 86.9682 38.6433C91.1423 42.8141 94.9053 47.5904 96.7956 53.1938C98.686 58.7972 98.4653 65.3421 95.1463 70.2254C92.3171 74.3885 87.6381 76.8899 82.9363 78.6508C70.909 83.1524 57.8007 83.7911 44.9741 83.3865C33.269 83.0175 19.4147 82.0353 10.6378 74.2409Z" fill="#4573FF"/>
<path d="M46.8492 57.2095C46.8247 57.3201 46.7752 57.4237 46.7046 57.5123C45.649 59.0594 44.5207 60.5515 43.3197 61.9884C43.2798 62.045 43.2255 62.0898 43.1624 62.1182C43.0986 62.1287 43.0333 62.1227 42.9725 62.1009C42.9117 62.0791 42.8574 62.0421 42.8148 61.9935C42.7539 61.9426 42.6955 61.8942 42.6371 61.8382C41.0944 60.4946 40.0997 58.6218 39.1406 56.7998C38.7219 56.0058 38.3083 55.2119 37.8896 54.4205C37.5171 53.7574 37.1997 53.0645 36.9406 52.3491C36.5626 51.2116 36.4788 50.0029 36.3976 48.8069C36.2302 46.3945 35.5298 43.8066 34.6418 41.4426C34.4058 40.809 34.1546 40.1932 33.8958 39.6028C35.8439 39.9005 37.7737 40.3083 39.676 40.8242C39.9959 40.8933 40.3026 41.0136 40.5844 41.1805C41.1604 41.5622 41.4268 42.2671 41.6298 42.9312C41.9901 44.112 42.2616 45.3131 42.5052 46.5243C43.2131 50.1072 44.4539 53.7309 46.6412 56.7031C46.7706 56.8402 46.8447 57.0207 46.8492 57.2095Z" fill="#4573FF"/>
<path d="M44.9411 58.5708C44.918 58.6815 44.8693 58.7852 44.799 58.8736C44.1088 59.8914 43.3865 60.8788 42.632 61.8356C41.0893 60.492 40.0946 58.6191 39.1355 56.7971C38.7168 56.0032 38.3032 55.2092 37.8845 54.4178C37.512 53.7547 37.1946 53.0619 36.9356 52.3465C36.5575 51.209 36.4737 50.0003 36.3925 48.8043C36.2251 46.3919 35.5248 43.804 34.6367 41.4399C35.7557 41.6741 36.8873 41.9489 37.7678 42.1855C38.0864 42.2565 38.392 42.3767 38.6737 42.5418C39.2522 42.926 39.5212 43.6284 39.7242 44.2925C40.0748 45.4747 40.3653 46.6739 40.5945 47.8856C41.3075 51.4711 42.5483 55.0947 44.733 58.0644C44.8624 58.2015 44.9366 58.382 44.9411 58.5708Z" fill="url(#paint0_linear)"/>
<path d="M37.1766 42.132C38.0723 43.5774 38.4453 45.2899 38.6305 46.9821C38.8158 48.6744 38.7955 50.3869 38.9883 52.0715C39.1253 53.293 39.3689 54.517 39.2547 55.7409C39.0264 58.194 36.7731 59.6827 37.1106 63.0976C37.1614 63.6066 35.2355 62.9882 34.799 63.2452C34.2713 63.5582 33.6394 63.6269 33.0228 63.6855C29.9145 63.9832 26.6996 64.2529 23.7385 63.263C23.4172 63.1786 23.1189 63.0229 22.8656 62.8075C22.6319 62.5458 22.4586 62.2356 22.3581 61.8991C21.7974 60.3653 21.3654 58.7872 21.0666 57.1812C20.7976 55.718 20.6377 54.237 20.3535 52.7764C20.0464 51.2012 19.5953 49.6577 19.0062 48.1654C18.6662 47.3053 18.2754 46.4503 18.1561 45.5317C17.9405 43.9031 16.38 41.4347 17.7096 40.4601C18.2526 40.0581 23.4593 39.5059 24.3068 39.1292C24.7385 38.9306 25.1826 38.7606 25.6364 38.6203C26.5478 38.3887 27.4886 38.2952 28.4276 38.3429C29.3151 38.3397 30.2008 38.4249 31.0716 38.5974C31.8835 38.7755 32.594 39.2361 33.3705 39.4168C34.1547 39.5886 34.8961 39.9178 35.5502 40.3844C36.2043 40.851 36.7575 41.4454 37.1766 42.132Z" fill="#4573FF"/>
<path d="M37.1766 42.132C38.0723 43.5774 38.4453 45.2899 38.6305 46.9821C38.8158 48.6744 38.7955 50.3869 38.9883 52.0715C39.1253 53.293 39.3689 54.517 39.2547 55.7409C39.0264 58.194 36.7731 59.6827 37.1106 63.0976C37.1614 63.6066 35.2355 62.9882 34.799 63.2452C34.2713 63.5582 33.6394 63.6269 33.0228 63.6855C29.9145 63.9832 26.6996 64.2529 23.7385 63.263C23.4172 63.1786 23.1189 63.0229 22.8656 62.8075C22.6319 62.5458 22.4586 62.2356 22.3581 61.8991C21.7974 60.3653 21.3654 58.7872 21.0666 57.1812C20.7976 55.718 20.6377 54.237 20.3535 52.7764C20.0464 51.2012 19.5953 49.6577 19.0062 48.1654C18.6662 47.3053 18.2754 46.4503 18.1561 45.5317C17.9405 43.9031 16.38 41.4347 17.7096 40.4601C18.2526 40.0581 23.4593 39.5059 24.3068 39.1292C24.7385 38.9306 25.1826 38.7606 25.6364 38.6203C26.5478 38.3887 27.4886 38.2952 28.4276 38.3429C29.3151 38.3397 30.2008 38.4249 31.0716 38.5974C31.8835 38.7755 32.594 39.2361 33.3705 39.4168C34.1547 39.5886 34.8961 39.9178 35.5502 40.3844C36.2043 40.851 36.7575 41.4454 37.1766 42.132Z" fill="url(#paint1_linear)"/>
<path d="M5.7322 79.8611C5.65455 84.3331 9.25838 88 13.731 88H83.3219C90.0353 88 93.763 80.2296 89.5615 74.9934L82.3491 66.0046C80.8307 64.1123 78.5356 63.0112 76.1094 63.0112H13.8871C9.52295 63.0112 5.96405 66.5089 5.88828 70.8723L5.7322 79.8611Z" fill="#8B88A8"/>
<path d="M25.3243 68.2915V69.0752L28.6433 73.4623L37.3288 71.9431L37.4253 70.1389L33.9921 66.897L25.3243 68.2915Z" fill="#4573FF"/>
<path opacity="0.5" d="M25.3243 68.2915V69.0752L28.6433 73.4623L37.3288 71.9431L37.4253 70.1389L33.9921 66.897L25.3243 68.2915Z" fill="url(#paint2_linear)"/>
<path d="M21.2873 48.5829C21.2642 49.0852 21.179 49.5827 21.0336 50.0639C20.8357 50.6721 20.4931 51.2218 20.2724 51.8198C19.9659 52.5968 19.8527 53.437 19.9425 54.2678C20.0065 54.6099 20.0279 54.9586 20.006 55.306C19.973 55.5605 19.8791 55.792 19.8233 56.0389C19.638 56.8837 19.9248 57.7514 20.2089 58.5683C19.4413 58.8088 18.7006 59.1286 17.9989 59.5225L17.8086 59.6421C17.0499 60.1072 16.4888 60.8366 16.2328 61.6906C16.1592 61.9883 16.078 62.3599 15.7812 62.426C15.6397 62.4466 15.4959 62.411 15.3802 62.3268C14.8728 61.9909 14.7662 61.3089 14.7154 60.6982C14.5404 58.5886 13.5736 46.7279 16.2379 42.1093C16.5424 41.58 17.1869 40.099 18.6154 40.1778C19.7243 40.2389 20.4069 40.9692 20.8179 42.0176C21.5259 43.8447 21.4168 46.6413 21.2873 48.5829Z" fill="#4573FF"/>
<path d="M21.2873 48.583C21.2642 49.0853 21.179 49.5827 21.0336 50.064C20.8357 50.6722 20.4931 51.2218 20.2724 51.8198C19.9659 52.5969 19.8527 53.4371 19.9425 54.2678C20.0065 54.6099 20.0278 54.9587 20.0059 55.306C19.973 55.5605 19.8791 55.7921 19.8233 56.0389C19.638 56.8837 19.9247 57.7515 20.2089 58.5683C19.4413 58.8088 18.7006 59.1286 17.9989 59.5226C17.7451 55.1788 17.6233 47.1503 19.7065 43.5419C19.9019 43.2035 20.2343 42.4783 20.8205 42.0151C21.5259 43.8448 21.4167 46.6414 21.2873 48.583Z" fill="url(#paint3_linear)"/>
<path d="M26.3596 38.5669C26.432 39.0899 26.4727 39.6167 26.4814 40.1446C26.7047 44.9159 28.3134 49.5167 30.3129 53.8503C30.6864 54.58 30.9807 55.3478 31.1909 56.1405C31.2983 56.6926 31.3603 57.2526 31.3761 57.8149L31.5715 61.179C31.4692 59.4951 31.7848 57.8121 32.49 56.2805C33.0736 55.0081 33.9135 53.8834 34.3981 52.5805C35.2736 50.2292 34.9056 47.6133 34.4337 45.1475C34.1038 43.3891 33.4847 41.2668 33.6471 39.483C33.7207 39.4652 29.572 38.1547 27.4482 37.9944C27.2302 37.9676 27.0093 38.0081 26.8148 38.1104C26.6204 38.2126 26.4616 38.3719 26.3596 38.5669Z" fill="white"/>
<path d="M24.9843 38.908L22.7692 46.0127L25.6314 47.3156L24.6595 50.41L28.5595 54.4153C29.1363 55.0098 29.5899 55.7129 29.8942 56.4841L31.5182 60.6167C31.5182 60.6167 32.0409 56.904 29.9323 52.5602C27.8237 48.2164 26.3596 38.5645 26.3596 38.5645L24.9843 38.908Z" fill="#4573FF"/>
<path d="M24.9843 38.908L22.7692 46.0127L25.6314 47.3156L24.6595 50.41L28.5595 54.4153C29.1363 55.0098 29.5899 55.7129 29.8942 56.4841L31.5182 60.6167C31.5182 60.6167 32.0409 56.904 29.9323 52.5602C27.8237 48.2164 26.3596 38.5645 26.3596 38.5645L24.9843 38.908Z" fill="url(#paint4_linear)"/>
<path d="M33.6471 39.4932L34.4083 39.7476L37.3593 45.3688C37.3593 45.3688 36.1692 48.1375 36.1692 47.9135C36.1692 47.6896 37.4684 50.901 37.4684 50.901C37.4684 50.901 35.3598 55.3516 33.9008 56.0031C32.4418 56.6545 31.5435 61.324 31.5435 61.324C31.5435 61.324 31.0005 57.1609 34.4007 52.5856C34.5986 52.3311 34.9817 50.3564 34.6037 47.0992C34.2256 43.842 33.1573 40.4601 33.6471 39.4932Z" fill="#4573FF"/>
<path opacity="0.1" d="M33.6471 39.4932L34.4083 39.7476L37.3593 45.3688C37.3593 45.3688 36.1692 48.1375 36.1692 47.9135C36.1692 47.6896 37.4684 50.901 37.4684 50.901C37.4684 50.901 35.3598 55.3516 33.9008 56.0031C32.4418 56.6545 31.5435 61.324 31.5435 61.324C31.5435 61.324 31.0005 57.1609 34.4007 52.5856C34.5986 52.3311 34.9817 50.3564 34.6037 47.0992C34.2256 43.842 33.1573 40.4601 33.6471 39.4932Z" fill="url(#paint5_linear)"/>
<path d="M22.8783 34.1696C22.5637 32.0779 21.739 26.2811 24.8753 23.2937C28.7347 19.609 32.792 20.1612 35.6339 22.2758C36.6958 23.0194 37.5276 24.0476 38.0343 25.2429C38.4783 26.3651 38.5824 27.5865 38.6458 28.7825C38.7308 29.5978 38.7359 30.4194 38.661 31.2356C38.5497 32.0289 38.2777 32.791 37.8617 33.4749C37.7146 33.7167 37.5496 33.9457 37.4075 34.1925C37.015 34.909 36.7829 35.7028 36.7275 36.5184C36.6717 37.3325 36.687 38.1499 36.7732 38.9613C36.7859 39.0962 36.8696 39.0987 36.725 39.1547C36.6071 39.1724 36.4869 39.1646 36.3723 39.1318C36.1566 39.0987 35.946 39.0376 35.7329 39.0071C35.0528 38.9129 34.3753 38.8111 33.7029 38.7094L26.0526 38.6101L22.5002 38.0147C22.959 36.7881 23.0893 35.4624 22.8783 34.1696Z" fill="#FF979A"/>
<path d="M22.8783 34.1696C22.5637 32.0779 21.739 26.2811 24.8752 23.2937C28.7346 19.609 32.792 20.1612 35.6339 22.2758C37.1109 23.405 38.1181 25.0433 38.4605 26.874C38.6122 27.6333 38.6921 28.4052 38.6991 29.1795C38.7168 30.1338 38.6991 31.2967 38.3565 32.195C38.1383 32.7904 37.7475 33.3045 37.4735 33.877C37.1194 34.7096 36.8861 35.5889 36.7808 36.4879C36.6362 37.3634 36.656 38.2584 36.8391 39.1267C36.2936 39.1954 35.6085 38.9918 35.0629 38.9104C34.6087 38.8468 34.1545 38.7781 33.7004 38.7094L26.0501 38.6101L22.4977 38.0147C22.9573 36.7883 23.0885 35.4627 22.8783 34.1696Z" fill="url(#paint6_linear)"/>
<path d="M32.8351 41.8241C32.6154 42.1606 32.3248 42.4446 31.9837 42.6561C31.6426 42.8675 31.2593 43.0014 30.861 43.0481C30.8027 43.0519 30.7442 43.0519 30.6859 43.0481C30.4824 43.0454 30.2802 43.0155 30.0846 42.9591C29.5501 42.7917 29.056 42.5154 28.6332 42.1473C27.6623 41.3487 26.8973 40.3275 26.4028 39.17C26.3548 39.07 26.3247 38.9624 26.314 38.8519C26.314 38.7832 26.5093 38.6534 26.7656 38.3303C27.1779 37.7875 27.4632 37.1587 27.6004 36.4905C27.7197 35.9968 27.5395 34.7779 27.5218 34.1035C27.5218 33.8185 27.5218 33.6302 27.608 33.6277C27.8088 33.6427 28 33.7191 28.1561 33.8465C29.0684 34.4774 29.83 35.303 30.3865 36.264L30.5108 36.4905C30.8095 37.0147 31.0308 37.5795 31.168 38.1674C31.2848 38.7909 31.8963 38.4906 32.6093 38.6763C32.7057 38.7018 32.7844 38.8672 32.8478 39.1089C33.0508 39.8902 33.0863 41.473 32.8351 41.8241Z" fill="#FFDAD2"/>
<path opacity="0.1" d="M32.8478 39.1141C32.8478 39.2006 32.8478 39.2922 32.8478 39.3685C32.8224 39.9793 32.8021 40.59 32.7767 41.2007C32.764 41.5264 32.7285 41.898 32.4672 42.0837C31.9072 42.4592 31.3123 42.7796 30.691 43.0405C30.5779 43.0997 30.4479 43.1177 30.3231 43.0914C30.2419 43.0507 30.1638 43.0039 30.0896 42.9515C29.0442 42.1881 27.4583 39.6892 26.7707 38.3227C27.1829 37.7799 27.4682 37.1511 27.6055 36.4829C27.7248 35.9892 27.5446 34.7703 27.5268 34.0959C27.9912 34.4471 29.2827 35.4268 30.3916 36.2564C31.1731 36.8442 31.8633 37.3582 32.1043 37.5287C32.2681 37.6312 32.4167 37.7563 32.5458 37.9003C32.7826 38.258 32.8893 38.6867 32.8478 39.1141Z" fill="url(#paint7_linear)"/>
<path d="M28.4758 62.2986C28.7955 62.4742 29.0721 62.721 29.3791 62.9195C29.5288 63.0162 29.6862 63.1002 29.8384 63.174C30.3215 63.4467 30.7785 63.7636 31.2035 64.1206C31.2578 64.1562 31.3042 64.2026 31.34 64.2569C31.3758 64.3111 31.4001 64.3721 31.4116 64.4361C31.4063 64.4985 31.3851 64.5584 31.35 64.6101C31.3149 64.6618 31.267 64.7035 31.2111 64.7313C31.062 64.7986 30.9002 64.8334 30.7367 64.8334C30.5731 64.8334 30.4113 64.7986 30.2622 64.7313C29.9646 64.5951 29.6494 64.5017 29.3259 64.4539C29.1964 64.4539 29.0721 64.4539 28.9402 64.4539C28.8014 64.4257 28.669 64.3722 28.5494 64.2962C27.9546 63.9021 27.4608 63.3729 27.1082 62.7515C26.9831 62.5912 26.9049 62.3991 26.8823 62.1968C26.8823 61.9958 27.0828 62.0187 27.2452 62.011C27.6737 61.9946 28.0987 62.0939 28.4758 62.2986Z" fill="#FFDAD2"/>
<path d="M46.5168 57.7182C48.8436 58.593 51.272 59.1668 53.7434 59.4257C54.8446 59.5402 55.9839 59.6013 56.9786 60.0924C58.1762 60.6853 59.0085 61.8203 59.7697 62.917C59.8453 62.9969 59.9019 63.0928 59.9353 63.1977C59.9687 63.3026 59.978 63.4136 59.9626 63.5226C59.8788 63.7771 59.5439 63.856 59.2699 63.8458C57.7195 63.7873 56.4559 62.5353 54.936 62.2249C54.9114 62.3609 54.9291 62.5013 54.9868 62.6269C55.0444 62.7526 55.1392 62.8574 55.2582 62.9272C55.4978 63.0621 55.7284 63.2126 55.9484 63.3776C56.022 63.4463 56.0905 63.5481 56.0524 63.6321C56.0274 63.6807 55.9873 63.72 55.9382 63.744C55.5881 63.9425 55.1516 63.8255 54.771 63.6957C53.9591 63.4234 53.1268 63.0951 52.5533 62.4539C52.2996 62.1587 52.0763 61.7923 51.7185 61.6243C51.4059 61.5074 51.0681 61.4749 50.7391 61.5302C48.4808 61.7083 45.5983 62.6778 43.3958 62.146C43.2503 62.1192 43.1114 62.0639 42.9873 61.9831C42.7082 61.777 42.4265 60.9652 42.4443 60.609C42.4611 59.8728 42.7299 59.1648 43.2055 58.6038C43.6978 58.0668 45.8343 57.4688 46.5194 57.708" fill="#FFDAD2"/>
<path d="M44.6696 68.1895L58.2752 73.4621L78.8739 69.3296L65.5551 64.1028L44.6696 67.2786V68.1895Z" fill="#4573FF"/>
<path d="M44.6696 67.2787L58.2752 72.5538L78.8739 68.4212L65.5551 63.1919L44.6696 67.2787Z" fill="#4573FF"/>
<path d="M44.6696 67.2787L58.2752 72.5538L78.8739 68.4212L65.5551 63.1919L44.6696 67.2787Z" fill="url(#paint8_linear)"/>
<path d="M28.8235 71.6784L37.4253 70.1389L33.9922 66.897L25.5426 68.2813L28.8235 71.6784Z" fill="#4573FF"/>
<path d="M18.7619 69.2323C19.6069 69.2191 20.369 69.7383 20.6659 70.5296L24.1938 79.9332C24.6736 81.2122 23.7585 82.5851 22.3934 82.6344L10.9781 83.0467C9.84074 83.0877 8.8984 82.1727 8.90597 81.0347L8.97043 71.3415C8.97766 70.2544 9.85198 69.3722 10.939 69.3551L18.7619 69.2323Z" fill="white"/>
<path d="M22.5205 60.6829C23.2817 61.1028 24.0835 61.5252 24.9488 61.6804C25.6491 61.8077 26.3748 61.7517 27.065 61.9196C28.255 62.2097 29.2218 63.1487 29.7623 64.2531C30.3027 65.3575 30.4626 66.6248 30.4778 67.8462C30.4778 67.9531 30.4499 68.1007 30.3459 68.1007C30.2928 68.1009 30.2415 68.0819 30.2012 68.0472C29.369 67.4518 29.2522 66.182 28.425 65.5763L29.0137 67.7113C29.067 67.9073 29.0898 68.1745 28.9021 68.2508C28.8259 68.2788 28.7423 68.2788 28.6661 68.2508C28.0546 68.0727 27.6511 67.5129 27.3111 66.9785C26.9711 66.4441 26.6539 65.8435 26.1058 65.5229C26.4137 66.3711 26.7038 67.2194 26.9762 68.0676C26.692 68.1872 26.3748 67.9989 26.1464 67.7902C25.4664 67.1591 25.063 66.2914 24.6773 65.4466C24.8825 66.1395 24.9868 66.8587 24.9869 67.5816C24.6722 67.6197 24.454 67.2864 24.3144 66.9988L22.8148 63.8918C22.7754 63.7972 22.7186 63.7109 22.6474 63.6373C22.5591 63.5706 22.458 63.5229 22.3505 63.4973C20.4297 62.907 18.3794 63.2174 16.4561 62.6271C16.1802 62.5553 15.9155 62.4457 15.6695 62.3013C15.2381 62.0214 15.0909 60.6142 15.0909 60.1002C15.0936 59.8412 15.1595 59.5867 15.283 59.3591C15.4064 59.1316 15.5835 58.9378 15.7989 58.7948C16.3267 58.4538 16.9737 58.4767 17.5751 58.4538C18.0826 58.436 19.0442 58.2171 19.4883 58.4843C20.6733 59.1968 21.3076 60.0289 22.5205 60.6829Z" fill="#FFDAD2"/>
<path d="M28.1891 70.3069L28.8894 71.1823L36.5778 69.8158L35.3903 68.9531L28.1891 70.3069Z" fill="white"/>
<path d="M58.2752 73.4649L78.8739 69.3298L83.8219 50.8706L63.2257 55.0032L58.2752 73.4649Z" fill="#4573FF"/>
<path opacity="0.2" d="M58.2752 73.4649L78.8739 69.3298L83.8219 50.8706L63.2257 55.0032L58.2752 73.4649Z" fill="#323232"/>
<path d="M58.8359 73.3706L79.4347 69.2355L84.3826 50.7764L63.7839 54.9089L58.8359 73.3706Z" fill="#4573FF"/>
<path d="M20.516 58.6088C20.4204 58.3815 20.2817 58.1749 20.1074 58.0007C19.9816 57.8372 19.8246 57.7005 19.6456 57.5986C19.4227 57.5126 19.183 57.4795 18.9453 57.5019L16.3774 57.5426C15.8699 57.5426 15.3193 57.5706 14.9057 57.876C14.4312 58.2271 14.2663 58.8786 14.3018 59.469C14.3822 60.0573 14.5017 60.6397 14.6596 61.2121C14.7003 61.6143 14.8201 62.0044 15.0123 62.3597C15.2381 62.6905 15.7253 62.8916 16.0501 62.6575C15.8805 61.8992 15.8623 61.1147 15.9968 60.3494C16.0241 60.1524 16.0958 59.9643 16.2067 59.7993C16.3175 59.6344 16.4644 59.497 16.6362 59.3977C16.8366 59.3241 17.0499 59.292 17.263 59.3035L19.4173 59.2756C19.9273 59.2679 20.8001 59.4333 20.516 58.6088Z" fill="#4573FF"/>
<path d="M20.516 58.6088C20.4204 58.3815 20.2817 58.1749 20.1074 58.0007C19.9816 57.8372 19.8246 57.7005 19.6456 57.5986C19.4227 57.5126 19.183 57.4795 18.9453 57.5019L16.3774 57.5426C15.8699 57.5426 15.3193 57.5706 14.9057 57.876C14.4312 58.2271 14.2663 58.8786 14.3018 59.469C14.3822 60.0573 14.5017 60.6397 14.6596 61.2121C14.7003 61.6143 14.8201 62.0044 15.0123 62.3597C15.2381 62.6905 15.7253 62.8916 16.0501 62.6575C15.8805 61.8992 15.8623 61.1147 15.9968 60.3494C16.0241 60.1524 16.0958 59.9643 16.2067 59.7993C16.3175 59.6344 16.4644 59.497 16.6362 59.3977C16.8366 59.3241 17.0499 59.292 17.263 59.3035L19.4173 59.2756C19.9273 59.2679 20.8001 59.4333 20.516 58.6088Z" fill="url(#paint9_linear)"/>
<path d="M10.4779 81.7393L23.5228 81.1032L19.808 70.3621H10.0237L10.4779 81.7393Z" stroke="#7C7C7C" stroke-width="0.5" stroke-miterlimit="10"/>
<path d="M10.478 80.5568L22.9798 80.1013" stroke="#7C7C7C" stroke-width="0.5" stroke-miterlimit="10"/>
<path d="M10.478 79.5109L22.9798 79.0554" stroke="#7C7C7C" stroke-width="0.5" stroke-miterlimit="10"/>
<path d="M10.3917 78.259L22.0967 77.8035" stroke="#7C7C7C" stroke-width="0.5" stroke-miterlimit="10"/>
<path d="M10.3282 77.1087L21.7568 76.7576" stroke="#7C7C7C" stroke-width="0.5" stroke-miterlimit="10"/>
<path d="M10.2978 76.1314L21.5512 75.5283" stroke="#7C7C7C" stroke-width="0.5" stroke-miterlimit="10"/>
<path d="M10.2978 75.0856L21.2797 74.6072" stroke="#7C7C7C" stroke-width="0.5" stroke-miterlimit="10"/>
<path d="M10.2978 74.1059L21.0437 73.686" stroke="#7C7C7C" stroke-width="0.5" stroke-miterlimit="10"/>
<path d="M10.2648 73.1288L20.7037 72.7292" stroke="#7C7C7C" stroke-width="0.5" stroke-miterlimit="10"/>
<path d="M10.2014 72.1822L20.3637 71.9099" stroke="#7C7C7C" stroke-width="0.5" stroke-miterlimit="10"/>
<path d="M10.1379 71.1686L20.1252 71.0217" stroke="#7C7C7C" stroke-width="0.5" stroke-miterlimit="10"/>
<path d="M11.6553 81.5592L10.9753 70.3625" stroke="#7C7C7C" stroke-width="0.5" stroke-miterlimit="10"/>
<path d="M14.2485 70.3398L15.8217 81.3303" stroke="#7C7C7C" stroke-width="0.5" stroke-miterlimit="10"/>
<path d="M18.0699 70.3398L21.0767 81.2387" stroke="#7C7C7C" stroke-width="0.5" stroke-miterlimit="10"/>
<path d="M36.7301 36.5973C36.4274 37.0856 36.0717 37.5388 35.6694 37.9485C34.9691 38.7119 34.2409 39.5033 33.297 39.9359C32.9894 40.0863 32.6521 40.1654 32.3099 40.1675C31.7187 40.1471 31.1909 39.7934 30.7392 39.4041C27.8796 36.9942 26.6261 32.9558 27.1869 29.2482C27.2898 28.3513 27.5934 27.4892 28.075 26.7264C28.8895 25.5432 30.3155 24.8943 31.739 24.7263C32.8147 24.5816 33.9093 24.7266 34.9108 25.1462C35.9106 25.572 36.7328 26.3318 37.2376 27.2964C37.4509 27.7623 37.6208 28.247 37.745 28.7444C38.0039 29.6401 37.0752 36.0094 36.7301 36.5973Z" fill="#FFDAD2"/>
<path d="M35.6668 27.724C35.0148 28.2962 34.2533 28.7291 33.4288 28.9963C32.8966 29.1928 32.3515 29.3518 31.7973 29.4722C30.9117 29.6631 29.9881 29.7623 29.1939 30.1974C28.0825 30.8031 27.3898 31.9787 26.9813 33.1824C26.5624 32.8428 26.2324 32.4061 26.0196 31.91C25.7997 31.37 25.6827 30.7934 25.6745 30.2102C25.6228 28.9062 25.8884 27.6093 26.4484 26.4313C26.9303 25.3587 27.7351 24.4643 28.7498 23.8739C29.3156 23.5869 29.9199 23.3838 30.5438 23.2708C31.3914 23.0718 32.2664 23.0176 33.1319 23.1105C34.3477 23.2771 35.4725 23.8479 36.3265 24.7315C36.7985 25.2226 36.834 25.4949 36.6539 26.1336C36.4736 26.7432 36.1326 27.2926 35.6668 27.724Z" fill="#FF979A"/>
<path d="M27.8897 70.0856L27.1513 69.4112L28.3997 69.1746L29.1711 69.8006L27.8897 70.0856Z" fill="url(#paint10_linear)"/>
<path d="M26.961 69.3043L26.2226 68.63L27.4735 68.3933L28.2424 69.0218L26.961 69.3043Z" fill="url(#paint11_linear)"/>
<path d="M29.3817 69.8233L28.6433 69.1514L29.8917 68.9148L30.6631 69.5408L29.3817 69.8233Z" fill="url(#paint12_linear)"/>
<path d="M28.4555 69.0448L27.7172 68.3704L28.9656 68.1338L29.7344 68.7598L28.4555 69.0448Z" fill="url(#paint13_linear)"/>
<path d="M30.8737 69.5638L30.1353 68.892L31.3863 68.6528L32.1551 69.2814L30.8737 69.5638Z" fill="url(#paint14_linear)"/>
<path d="M29.9475 68.785L29.2091 68.1107L30.4575 67.874L31.2289 68.5L29.9475 68.785Z" fill="url(#paint15_linear)"/>
<path d="M32.3682 69.3043L31.6298 68.63L32.8782 68.3933L33.6496 69.0218L32.3682 69.3043Z" fill="url(#paint16_linear)"/>
<path d="M31.4396 68.523L30.7012 67.8512L31.9521 67.6145L32.721 68.2405L31.4396 68.523Z" fill="url(#paint17_linear)"/>
<path d="M33.8602 69.0448L33.1218 68.3704L34.3702 68.1338L35.1416 68.7598L33.8602 69.0448Z" fill="url(#paint18_linear)"/>
<path d="M32.9341 68.2634L32.1957 67.5916L33.4441 67.355L34.2129 67.981L32.9341 68.2634Z" fill="url(#paint19_linear)"/>
<defs>
<linearGradient id="paint0_linear" x1="34.1647" y1="54.8733" x2="42.0079" y2="49.2352" gradientUnits="userSpaceOnUse">
<stop offset="0.01"/>
<stop offset="1" stop-opacity="0"/>
</linearGradient>
<linearGradient id="paint1_linear" x1="1888.87" y1="6411.51" x2="3089.45" y2="4948.83" gradientUnits="userSpaceOnUse">
<stop offset="0.01"/>
<stop offset="1" stop-opacity="0"/>
</linearGradient>
<linearGradient id="paint2_linear" x1="1525.72" y1="1769.87" x2="1521.87" y2="2041.21" gradientUnits="userSpaceOnUse">
<stop offset="0.01"/>
<stop offset="1" stop-opacity="0"/>
</linearGradient>
<linearGradient id="paint3_linear" x1="423.183" y1="4258.16" x2="77.2755" y2="4167.48" gradientUnits="userSpaceOnUse">
<stop offset="0.01"/>
<stop offset="1" stop-opacity="0"/>
</linearGradient>
<linearGradient id="paint4_linear" x1="1301.9" y1="4052.51" x2="850.998" y2="4154.43" gradientUnits="userSpaceOnUse">
<stop offset="0.01"/>
<stop offset="1" stop-opacity="0"/>
</linearGradient>
<linearGradient id="paint5_linear" x1="732.733" y1="4221.63" x2="993.997" y2="4250.74" gradientUnits="userSpaceOnUse">
<stop offset="0.01"/>
<stop offset="1" stop-opacity="0"/>
</linearGradient>
<linearGradient id="paint6_linear" x1="2320.83" y1="3198.48" x2="1792.27" y2="1754.85" gradientUnits="userSpaceOnUse">
<stop offset="0.01"/>
<stop offset="1" stop-opacity="0"/>
</linearGradient>
<linearGradient id="paint7_linear" x1="871.365" y1="1220.53" x2="684.438" y2="1412.63" gradientUnits="userSpaceOnUse">
<stop offset="0.01"/>
<stop offset="1" stop-opacity="0"/>
</linearGradient>
<linearGradient id="paint8_linear" x1="8535.55" y1="2678.91" x2="8493.73" y2="2271.44" gradientUnits="userSpaceOnUse">
<stop offset="0.01"/>
<stop offset="1" stop-opacity="0"/>
</linearGradient>
<linearGradient id="paint9_linear" x1="421.251" y1="1394.76" x2="497.432" y2="1228.23" gradientUnits="userSpaceOnUse">
<stop offset="0.01"/>
<stop offset="1" stop-opacity="0"/>
</linearGradient>
<linearGradient id="paint10_linear" x1="250.923" y1="320.657" x2="251.047" y2="317.16" gradientUnits="userSpaceOnUse">
<stop offset="0.01"/>
<stop offset="1" stop-opacity="0"/>
</linearGradient>
<linearGradient id="paint11_linear" x1="242.622" y1="317.088" x2="242.742" y2="313.592" gradientUnits="userSpaceOnUse">
<stop offset="0.01"/>
<stop offset="1" stop-opacity="0"/>
</linearGradient>
<linearGradient id="paint12_linear" x1="264.292" y1="318.768" x2="264.415" y2="315.28" gradientUnits="userSpaceOnUse">
<stop offset="0.01"/>
<stop offset="1" stop-opacity="0"/>
</linearGradient>
<linearGradient id="paint13_linear" x1="255.706" y1="315.896" x2="255.83" y2="312.39" gradientUnits="userSpaceOnUse">
<stop offset="0.01"/>
<stop offset="1" stop-opacity="0"/>
</linearGradient>
<linearGradient id="paint14_linear" x1="277.679" y1="318.273" x2="277.799" y2="314.778" gradientUnits="userSpaceOnUse">
<stop offset="0.01"/>
<stop offset="1" stop-opacity="0"/>
</linearGradient>
<linearGradient id="paint15_linear" x1="269.361" y1="314.699" x2="269.485" y2="311.202" gradientUnits="userSpaceOnUse">
<stop offset="0.01"/>
<stop offset="1" stop-opacity="0"/>
</linearGradient>
<linearGradient id="paint16_linear" x1="291.05" y1="317.088" x2="291.174" y2="313.591" gradientUnits="userSpaceOnUse">
<stop offset="0.01"/>
<stop offset="1" stop-opacity="0"/>
</linearGradient>
<linearGradient id="paint17_linear" x1="282.75" y1="312.824" x2="282.869" y2="309.337" gradientUnits="userSpaceOnUse">
<stop offset="0.01"/>
<stop offset="1" stop-opacity="0"/>
</linearGradient>
<linearGradient id="paint18_linear" x1="304.419" y1="315.896" x2="304.543" y2="312.39" gradientUnits="userSpaceOnUse">
<stop offset="0.01"/>
<stop offset="1" stop-opacity="0"/>
</linearGradient>
<linearGradient id="paint19_linear" x1="295.788" y1="311.637" x2="295.911" y2="308.15" gradientUnits="userSpaceOnUse">
<stop offset="0.01"/>
<stop offset="1" stop-opacity="0"/>
</linearGradient>
</defs>
</svg>
