<svg width="23" height="16" viewBox="0 0 23 16" fill="none" xmlns="http://www.w3.org/2000/svg">
<rect width="22.4" height="16" rx="2" fill="white"/>
<mask id="mask0" mask-type="alpha" maskUnits="userSpaceOnUse" x="0" y="0" width="23" height="16">
<rect width="22.4" height="16" rx="2" fill="white"/>
</mask>
<g mask="url(#mask0)">
<rect width="22.4" height="16" fill="#0A17A7"/>
<path fill-rule="evenodd" clip-rule="evenodd" d="M5.33883 10.6667L-2.21899 15.7645L-1.02605 17.5331L8.53329 11.0853V17.0667H13.8666V11.0853L23.4259 17.5332L24.6189 15.7645L17.061 10.6667H22.4V5.33334H17.0608L24.6188 0.23541L23.4259 -1.5332L13.8666 4.91462V-1.06666H8.53329V4.91468L-1.02603 -1.53316L-2.21897 0.235454L5.33896 5.33334H-4.88758e-05V10.6667H5.33883Z" fill="white"/>
<path d="M14.9343 5.06578L25.0666 -1.59998" stroke="#DB1F35" stroke-width="0.666667" stroke-linecap="round"/>
<path d="M16.0103 10.9581L25.0933 17.0803" stroke="#DB1F35" stroke-width="0.666667" stroke-linecap="round"/>
<path d="M6.40435 5.04836L-3.07007 -1.33679" stroke="#DB1F35" stroke-width="0.666667" stroke-linecap="round"/>
<path d="M7.43195 10.8839L-3.07007 17.8484" stroke="#DB1F35" stroke-width="0.666667" stroke-linecap="round"/>
<path fill-rule="evenodd" clip-rule="evenodd" d="M0 9.6H9.6V16H12.8V9.6H22.4V6.4H12.8V0H9.6V6.4H0V9.6Z" fill="#E6273E"/>
</g>
</svg>
