<svg xmlns="http://www.w3.org/2000/svg" width="296" height="259" fill="none" style=""><rect id="backgroundrect" width="100%" height="100%" x="0" y="0" fill="none" stroke="none"/>

<g class="currentLayer" style=""><title>Layer 1</title><g id="LinkAja End User View - Editable">
<rect id="Rectangle Copy 32" width="296" height="259" rx="4" fill="white"/>
<mask id="mask0" mask-type="alpha" maskUnits="userSpaceOnUse" x="0" y="0" width="296" height="259">
<rect id="Rectangle Copy 32_2" width="296" height="259" rx="4" fill="white"/>
</mask>
<g mask="url(#mask0)" id="svg_1">
<rect id="Rectangle Copy 34" y="116" width="296" height="24" fill="#F9F9F9"/>
<rect id="Rectangle Copy 35" y="164" width="296" height="1" fill="#C7C7C7"/>
<rect id="Rectangle Copy 36" y="189" width="296" height="1" fill="#C7C7C7"/>
<rect id="Rectangle Copy 37" y="214" width="296" height="1" fill="#C7C7C7"/>
<path id="TokoAkuLakuKali" d="M20.7715 31H19.1377V22.4072H16.1982V21.0059H23.7109V22.4072H20.7715V31ZM31.7842 27.2061C31.7842 28.4411 31.4674 29.4049 30.834 30.0977C30.2005 30.7904 29.3187 31.1367 28.1885 31.1367C27.4821 31.1367 26.8577 30.9772 26.3154 30.6582C25.7731 30.3392 25.3561 29.8812 25.0645 29.2842C24.7728 28.6872 24.627 27.9945 24.627 27.2061C24.627 25.9801 24.9414 25.0231 25.5703 24.335C26.1992 23.6468 27.0856 23.3027 28.2295 23.3027C29.3232 23.3027 30.1891 23.6559 30.8271 24.3623C31.4652 25.0641 31.7842 26.012 31.7842 27.2061ZM26.2812 27.2061C26.2812 28.9515 26.9261 29.8242 28.2158 29.8242C29.4919 29.8242 30.1299 28.9515 30.1299 27.2061C30.1299 25.4788 29.4873 24.6152 28.2021 24.6152C27.5277 24.6152 27.0378 24.8385 26.7324 25.2852C26.4316 25.7318 26.2812 26.3721 26.2812 27.2061ZM35.1885 27.0078L36.0977 25.873L38.3809 23.4395H40.2334L37.1914 26.6865L40.4248 31H38.5381L36.1113 27.6846L35.2295 28.4092V31H33.6367V20.3633H35.2295V25.5518L35.1475 27.0078H35.1885ZM48.3545 27.2061C48.3545 28.4411 48.0378 29.4049 47.4043 30.0977C46.7708 30.7904 45.889 31.1367 44.7588 31.1367C44.0524 31.1367 43.4281 30.9772 42.8857 30.6582C42.3434 30.3392 41.9264 29.8812 41.6348 29.2842C41.3431 28.6872 41.1973 27.9945 41.1973 27.2061C41.1973 25.9801 41.5117 25.0231 42.1406 24.335C42.7695 23.6468 43.6559 23.3027 44.7998 23.3027C45.8936 23.3027 46.7594 23.6559 47.3975 24.3623C48.0355 25.0641 48.3545 26.012 48.3545 27.2061ZM42.8516 27.2061C42.8516 28.9515 43.4964 29.8242 44.7861 29.8242C46.0622 29.8242 46.7002 28.9515 46.7002 27.2061C46.7002 25.4788 46.0576 24.6152 44.7725 24.6152C44.098 24.6152 43.6081 24.8385 43.3027 25.2852C43.002 25.7318 42.8516 26.3721 42.8516 27.2061ZM56.5781 31L55.5801 28.2246H51.7588L50.7812 31H49.0586L52.7979 20.9648H54.5752L58.3145 31H56.5781ZM55.1494 26.8164L54.2129 24.0957C54.1445 23.9134 54.0488 23.6263 53.9258 23.2344C53.8073 22.8424 53.7253 22.5553 53.6797 22.373C53.5566 22.9336 53.3766 23.5465 53.1396 24.2119L52.2373 26.8164H55.1494ZM61.0146 27.0078L61.9238 25.873L64.207 23.4395H66.0596L63.0176 26.6865L66.251 31H64.3643L61.9375 27.6846L61.0557 28.4092V31H59.4629V20.3633H61.0557V25.5518L60.9736 27.0078H61.0146ZM72.8066 31L72.5811 30.0088H72.499C72.2757 30.3597 71.9567 30.6354 71.542 30.8359C71.1318 31.0365 70.6624 31.1367 70.1338 31.1367C69.2178 31.1367 68.5342 30.9089 68.083 30.4531C67.6318 29.9974 67.4062 29.307 67.4062 28.3818V23.4395H69.0264V28.1016C69.0264 28.6803 69.1449 29.1156 69.3818 29.4072C69.6188 29.6943 69.9902 29.8379 70.4961 29.8379C71.1706 29.8379 71.665 29.6374 71.9795 29.2363C72.2985 28.8307 72.458 28.154 72.458 27.2061V23.4395H74.0713V31H72.8066ZM76.5322 31V21.0059H78.166V29.5986H82.3975V31H76.5322ZM88.6797 31L88.3584 29.9473H88.3037C87.9391 30.4076 87.5723 30.722 87.2031 30.8906C86.834 31.0547 86.36 31.1367 85.7812 31.1367C85.0384 31.1367 84.4574 30.9362 84.0381 30.5352C83.6234 30.1341 83.416 29.5667 83.416 28.833C83.416 28.0537 83.7054 27.4658 84.2842 27.0693C84.863 26.6729 85.7448 26.4564 86.9297 26.4199L88.2354 26.3789V25.9756C88.2354 25.4925 88.1214 25.1325 87.8936 24.8955C87.6702 24.654 87.3216 24.5332 86.8477 24.5332C86.4603 24.5332 86.0889 24.5902 85.7334 24.7041C85.3779 24.818 85.0361 24.9525 84.708 25.1074L84.1885 23.959C84.5986 23.7448 85.0475 23.583 85.5352 23.4736C86.0228 23.3597 86.4831 23.3027 86.916 23.3027C87.8776 23.3027 88.6022 23.5124 89.0898 23.9316C89.582 24.3509 89.8281 25.0094 89.8281 25.9072V31H88.6797ZM86.2871 29.9062C86.8704 29.9062 87.3376 29.7445 87.6885 29.4209C88.0439 29.0928 88.2217 28.6348 88.2217 28.0469V27.3906L87.251 27.4316C86.4945 27.459 85.943 27.5866 85.5967 27.8145C85.2549 28.0378 85.084 28.3818 85.084 28.8467C85.084 29.1839 85.1842 29.446 85.3848 29.6328C85.5853 29.8151 85.8861 29.9062 86.2871 29.9062ZM93.6221 27.0078L94.5312 25.873L96.8145 23.4395H98.667L95.625 26.6865L98.8584 31H96.9717L94.5449 27.6846L93.6631 28.4092V31H92.0703V20.3633H93.6631V25.5518L93.5811 27.0078H93.6221ZM105.414 31L105.188 30.0088H105.106C104.883 30.3597 104.564 30.6354 104.149 30.8359C103.739 31.0365 103.27 31.1367 102.741 31.1367C101.825 31.1367 101.142 30.9089 100.69 30.4531C100.239 29.9974 100.014 29.307 100.014 28.3818V23.4395H101.634V28.1016C101.634 28.6803 101.752 29.1156 101.989 29.4072C102.226 29.6943 102.598 29.8379 103.104 29.8379C103.778 29.8379 104.272 29.6374 104.587 29.2363C104.906 28.8307 105.065 28.154 105.065 27.2061V23.4395H106.679V31H105.414ZM116.769 31H114.875L111.737 26.4746L110.773 27.2607V31H109.14V21.0059H110.773V25.7773C111.22 25.2305 111.664 24.7041 112.106 24.1982L114.807 21.0059H116.666C114.921 23.0566 113.67 24.5173 112.913 25.3877L116.769 31ZM122.654 31L122.333 29.9473H122.278C121.914 30.4076 121.547 30.722 121.178 30.8906C120.809 31.0547 120.335 31.1367 119.756 31.1367C119.013 31.1367 118.432 30.9362 118.013 30.5352C117.598 30.1341 117.391 29.5667 117.391 28.833C117.391 28.0537 117.68 27.4658 118.259 27.0693C118.838 26.6729 119.719 26.4564 120.904 26.4199L122.21 26.3789V25.9756C122.21 25.4925 122.096 25.1325 121.868 24.8955C121.645 24.654 121.296 24.5332 120.822 24.5332C120.435 24.5332 120.063 24.5902 119.708 24.7041C119.353 24.818 119.011 24.9525 118.683 25.1074L118.163 23.959C118.573 23.7448 119.022 23.583 119.51 23.4736C119.997 23.3597 120.458 23.3027 120.891 23.3027C121.852 23.3027 122.577 23.5124 123.064 23.9316C123.557 24.3509 123.803 25.0094 123.803 25.9072V31H122.654ZM120.262 29.9062C120.845 29.9062 121.312 29.7445 121.663 29.4209C122.019 29.0928 122.196 28.6348 122.196 28.0469V27.3906L121.226 27.4316C120.469 27.459 119.918 27.5866 119.571 27.8145C119.229 28.0378 119.059 28.3818 119.059 28.8467C119.059 29.1839 119.159 29.446 119.359 29.6328C119.56 29.8151 119.861 29.9062 120.262 29.9062ZM127.651 31H126.045V20.3633H127.651V31ZM131.562 31H129.955V23.4395H131.562V31ZM129.859 21.4365C129.859 21.1494 129.937 20.9284 130.092 20.7734C130.251 20.6185 130.477 20.541 130.769 20.541C131.051 20.541 131.27 20.6185 131.425 20.7734C131.584 20.9284 131.664 21.1494 131.664 21.4365C131.664 21.71 131.584 21.9264 131.425 22.0859C131.27 22.2409 131.051 22.3184 130.769 22.3184C130.477 22.3184 130.251 22.2409 130.092 22.0859C129.937 21.9264 129.859 21.71 129.859 21.4365Z" fill="#323232"/>
</g>
<g id="Group 4" opacity="0.2">
<path id="Sisa Waktu: 04:40" d="M20.0078 60.4805C20.0078 60.9831 19.8255 61.375 19.4609 61.6562C19.0964 61.9375 18.6016 62.0781 17.9766 62.0781C17.2995 62.0781 16.7786 61.9909 16.4141 61.8164V61.1758C16.6484 61.2747 16.9036 61.3529 17.1797 61.4102C17.4557 61.4674 17.7292 61.4961 18 61.4961C18.4427 61.4961 18.776 61.4128 19 61.2461C19.224 61.0768 19.3359 60.8424 19.3359 60.543C19.3359 60.3451 19.2956 60.1836 19.2148 60.0586C19.1367 59.931 19.0039 59.8138 18.8164 59.707C18.6315 59.6003 18.349 59.4792 17.9688 59.3438C17.4375 59.1536 17.0573 58.9284 16.8281 58.668C16.6016 58.4076 16.4883 58.0677 16.4883 57.6484C16.4883 57.2083 16.6536 56.8581 16.9844 56.5977C17.3151 56.3372 17.7526 56.207 18.2969 56.207C18.8646 56.207 19.3867 56.3112 19.8633 56.5195L19.6562 57.0977C19.1849 56.8997 18.7266 56.8008 18.2812 56.8008C17.9297 56.8008 17.6549 56.8763 17.457 57.0273C17.2591 57.1784 17.1602 57.388 17.1602 57.6562C17.1602 57.8542 17.1966 58.0169 17.2695 58.1445C17.3424 58.2695 17.4648 58.3854 17.6367 58.4922C17.8112 58.5964 18.0768 58.7122 18.4336 58.8398C19.0326 59.0534 19.444 59.2826 19.668 59.5273C19.8945 59.7721 20.0078 60.0898 20.0078 60.4805ZM21.7266 62H21.0781V57.7188H21.7266V62ZM21.0234 56.5586C21.0234 56.4102 21.0599 56.3021 21.1328 56.2344C21.2057 56.1641 21.2969 56.1289 21.4062 56.1289C21.5104 56.1289 21.6003 56.1641 21.6758 56.2344C21.7513 56.3047 21.7891 56.4128 21.7891 56.5586C21.7891 56.7044 21.7513 56.8138 21.6758 56.8867C21.6003 56.957 21.5104 56.9922 21.4062 56.9922C21.2969 56.9922 21.2057 56.957 21.1328 56.8867C21.0599 56.8138 21.0234 56.7044 21.0234 56.5586ZM25.8633 60.832C25.8633 61.2305 25.7148 61.5378 25.418 61.7539C25.1211 61.9701 24.7044 62.0781 24.168 62.0781C23.6003 62.0781 23.1576 61.9883 22.8398 61.8086V61.207C23.0456 61.3112 23.2656 61.3932 23.5 61.4531C23.737 61.513 23.9648 61.543 24.1836 61.543C24.5221 61.543 24.7826 61.4896 24.9648 61.3828C25.1471 61.2734 25.2383 61.1081 25.2383 60.8867C25.2383 60.7201 25.1654 60.5781 25.0195 60.4609C24.8763 60.3411 24.5951 60.2005 24.1758 60.0391C23.7773 59.8906 23.4935 59.7617 23.3242 59.6523C23.1576 59.5404 23.0326 59.4141 22.9492 59.2734C22.8685 59.1328 22.8281 58.9648 22.8281 58.7695C22.8281 58.4206 22.9701 58.1458 23.2539 57.9453C23.5378 57.7422 23.9271 57.6406 24.4219 57.6406C24.8828 57.6406 25.3333 57.7344 25.7734 57.9219L25.543 58.4492C25.1133 58.2721 24.724 58.1836 24.375 58.1836C24.0677 58.1836 23.8359 58.2318 23.6797 58.3281C23.5234 58.4245 23.4453 58.5573 23.4453 58.7266C23.4453 58.8411 23.474 58.9388 23.5312 59.0195C23.5911 59.1003 23.6862 59.1771 23.8164 59.25C23.9466 59.3229 24.1966 59.4284 24.5664 59.5664C25.0742 59.7513 25.4167 59.9375 25.5938 60.125C25.7734 60.3125 25.8633 60.5482 25.8633 60.832ZM29.5547 62L29.4258 61.3906H29.3945C29.181 61.6589 28.9674 61.8411 28.7539 61.9375C28.543 62.0312 28.2786 62.0781 27.9609 62.0781C27.5365 62.0781 27.2031 61.9688 26.9609 61.75C26.7214 61.5312 26.6016 61.2201 26.6016 60.8164C26.6016 59.9518 27.293 59.4987 28.6758 59.457L29.4023 59.4336V59.168C29.4023 58.832 29.3294 58.5846 29.1836 58.4258C29.0404 58.2643 28.8099 58.1836 28.4922 58.1836C28.1354 58.1836 27.7318 58.293 27.2812 58.5117L27.082 58.0156C27.293 57.901 27.5234 57.8112 27.7734 57.7461C28.026 57.681 28.2786 57.6484 28.5312 57.6484C29.0417 57.6484 29.4193 57.7617 29.6641 57.9883C29.9115 58.2148 30.0352 58.5781 30.0352 59.0781V62H29.5547ZM28.0898 61.543C28.4935 61.543 28.8099 61.4323 29.0391 61.2109C29.2708 60.9896 29.3867 60.6797 29.3867 60.2812V59.8945L28.7383 59.9219C28.2227 59.9401 27.8503 60.0208 27.6211 60.1641C27.3945 60.3047 27.2812 60.5247 27.2812 60.8242C27.2812 61.0586 27.3516 61.237 27.4922 61.3594C27.6354 61.4818 27.8346 61.543 28.0898 61.543ZM38.5352 62H37.8789L36.7266 58.1758C36.6719 58.0065 36.6107 57.793 36.543 57.5352C36.4753 57.2773 36.4401 57.1224 36.4375 57.0703C36.3802 57.4141 36.2891 57.7904 36.1641 58.1992L35.0469 62H34.3906L32.8711 56.2891H33.5742L34.4766 59.8164C34.6016 60.3112 34.6927 60.7591 34.75 61.1602C34.8203 60.6836 34.9245 60.2174 35.0625 59.7617L36.0859 56.2891H36.7891L37.8633 59.793C37.9883 60.1966 38.0938 60.6523 38.1797 61.1602C38.2292 60.7904 38.3229 60.3398 38.4609 59.8086L39.3594 56.2891H40.0625L38.5352 62ZM43.4922 62L43.3633 61.3906H43.332C43.1185 61.6589 42.9049 61.8411 42.6914 61.9375C42.4805 62.0312 42.2161 62.0781 41.8984 62.0781C41.474 62.0781 41.1406 61.9688 40.8984 61.75C40.6589 61.5312 40.5391 61.2201 40.5391 60.8164C40.5391 59.9518 41.2305 59.4987 42.6133 59.457L43.3398 59.4336V59.168C43.3398 58.832 43.2669 58.5846 43.1211 58.4258C42.9779 58.2643 42.7474 58.1836 42.4297 58.1836C42.0729 58.1836 41.6693 58.293 41.2188 58.5117L41.0195 58.0156C41.2305 57.901 41.4609 57.8112 41.7109 57.7461C41.9635 57.681 42.2161 57.6484 42.4688 57.6484C42.9792 57.6484 43.3568 57.7617 43.6016 57.9883C43.849 58.2148 43.9727 58.5781 43.9727 59.0781V62H43.4922ZM42.0273 61.543C42.431 61.543 42.7474 61.4323 42.9766 61.2109C43.2083 60.9896 43.3242 60.6797 43.3242 60.2812V59.8945L42.6758 59.9219C42.1602 59.9401 41.7878 60.0208 41.5586 60.1641C41.332 60.3047 41.2188 60.5247 41.2188 60.8242C41.2188 61.0586 41.2891 61.237 41.4297 61.3594C41.5729 61.4818 41.7721 61.543 42.0273 61.543ZM45.9531 59.8086C46.0651 59.6497 46.2357 59.4414 46.4648 59.1836L47.8477 57.7188H48.6172L46.8828 59.543L48.7383 62H47.9531L46.4414 59.9766L45.9531 60.3984V62H45.3125V55.9219H45.9531V59.1445C45.9531 59.2878 45.9427 59.5091 45.9219 59.8086H45.9531ZM50.8984 61.543C51.013 61.543 51.1237 61.5352 51.2305 61.5195C51.3372 61.5013 51.4219 61.4831 51.4844 61.4648V61.9609C51.4141 61.9948 51.3099 62.0221 51.1719 62.043C51.0365 62.0664 50.9141 62.0781 50.8047 62.0781C49.9766 62.0781 49.5625 61.6419 49.5625 60.7695V58.2227H48.9492V57.9102L49.5625 57.6406L49.8359 56.7266H50.2109V57.7188H51.4531V58.2227H50.2109V60.7422C50.2109 61 50.2721 61.1979 50.3945 61.3359C50.5169 61.474 50.6849 61.543 50.8984 61.543ZM52.9531 57.7188V60.4961C52.9531 60.8451 53.0326 61.1055 53.1914 61.2773C53.3503 61.4492 53.599 61.5352 53.9375 61.5352C54.3854 61.5352 54.7122 61.4128 54.918 61.168C55.1263 60.9232 55.2305 60.5234 55.2305 59.9688V57.7188H55.8789V62H55.3438L55.25 61.4258H55.2148C55.082 61.6367 54.8971 61.7982 54.6602 61.9102C54.4258 62.0221 54.1576 62.0781 53.8555 62.0781C53.3346 62.0781 52.944 61.9544 52.6836 61.707C52.4258 61.4596 52.2969 61.0638 52.2969 60.5195V57.7188H52.9531ZM57.1641 61.5859C57.1641 61.4115 57.2031 61.2799 57.2812 61.1914C57.362 61.1003 57.4766 61.0547 57.625 61.0547C57.776 61.0547 57.8932 61.1003 57.9766 61.1914C58.0625 61.2799 58.1055 61.4115 58.1055 61.5859C58.1055 61.7552 58.0625 61.8854 57.9766 61.9766C57.8906 62.0677 57.7734 62.1133 57.625 62.1133C57.4922 62.1133 57.3815 62.0729 57.293 61.9922C57.207 61.9089 57.1641 61.7734 57.1641 61.5859ZM57.1641 58.1367C57.1641 57.7852 57.3177 57.6094 57.625 57.6094C57.9453 57.6094 58.1055 57.7852 58.1055 58.1367C58.1055 58.306 58.0625 58.4362 57.9766 58.5273C57.8906 58.6185 57.7734 58.6641 57.625 58.6641C57.4922 58.6641 57.3815 58.6237 57.293 58.543C57.207 58.4596 57.1641 58.3242 57.1641 58.1367ZM64.957 59.1367C64.957 60.1237 64.8008 60.8607 64.4883 61.3477C64.1784 61.8346 63.7031 62.0781 63.0625 62.0781C62.4479 62.0781 61.9805 61.8294 61.6602 61.332C61.3398 60.832 61.1797 60.1003 61.1797 59.1367C61.1797 58.1419 61.3346 57.4036 61.6445 56.9219C61.9544 56.4401 62.4271 56.1992 63.0625 56.1992C63.6823 56.1992 64.1523 56.4505 64.4727 56.9531C64.7956 57.4557 64.957 58.1836 64.957 59.1367ZM61.8359 59.1367C61.8359 59.9674 61.9336 60.5729 62.1289 60.9531C62.3242 61.3307 62.6354 61.5195 63.0625 61.5195C63.4948 61.5195 63.8073 61.3281 64 60.9453C64.1953 60.5599 64.293 59.957 64.293 59.1367C64.293 58.3164 64.1953 57.7161 64 57.3359C63.8073 56.9531 63.4948 56.7617 63.0625 56.7617C62.6354 56.7617 62.3242 56.9505 62.1289 57.3281C61.9336 57.7031 61.8359 58.306 61.8359 59.1367ZM69.7734 60.6875H68.9258V62H68.3047V60.6875H65.5273V60.1211L68.2383 56.2578H68.9258V60.0977H69.7734V60.6875ZM68.3047 60.0977V58.1992C68.3047 57.8268 68.3177 57.4062 68.3438 56.9375H68.3125C68.1875 57.1875 68.0703 57.3945 67.9609 57.5586L66.1758 60.0977H68.3047ZM70.5312 61.5859C70.5312 61.4115 70.5703 61.2799 70.6484 61.1914C70.7292 61.1003 70.8438 61.0547 70.9922 61.0547C71.1432 61.0547 71.2604 61.1003 71.3438 61.1914C71.4297 61.2799 71.4727 61.4115 71.4727 61.5859C71.4727 61.7552 71.4297 61.8854 71.3438 61.9766C71.2578 62.0677 71.1406 62.1133 70.9922 62.1133C70.8594 62.1133 70.7487 62.0729 70.6602 61.9922C70.5742 61.9089 70.5312 61.7734 70.5312 61.5859ZM70.5312 58.1367C70.5312 57.7852 70.6849 57.6094 70.9922 57.6094C71.3125 57.6094 71.4727 57.7852 71.4727 58.1367C71.4727 58.306 71.4297 58.4362 71.3438 58.5273C71.2578 58.6185 71.1406 58.6641 70.9922 58.6641C70.8594 58.6641 70.7487 58.6237 70.6602 58.543C70.5742 58.4596 70.5312 58.3242 70.5312 58.1367ZM76.4844 60.6875H75.6367V62H75.0156V60.6875H72.2383V60.1211L74.9492 56.2578H75.6367V60.0977H76.4844V60.6875ZM75.0156 60.0977V58.1992C75.0156 57.8268 75.0286 57.4062 75.0547 56.9375H75.0234C74.8984 57.1875 74.7812 57.3945 74.6719 57.5586L72.8867 60.0977H75.0156ZM80.8242 59.1367C80.8242 60.1237 80.668 60.8607 80.3555 61.3477C80.0456 61.8346 79.5703 62.0781 78.9297 62.0781C78.3151 62.0781 77.8477 61.8294 77.5273 61.332C77.207 60.832 77.0469 60.1003 77.0469 59.1367C77.0469 58.1419 77.2018 57.4036 77.5117 56.9219C77.8216 56.4401 78.2943 56.1992 78.9297 56.1992C79.5495 56.1992 80.0195 56.4505 80.3398 56.9531C80.6628 57.4557 80.8242 58.1836 80.8242 59.1367ZM77.7031 59.1367C77.7031 59.9674 77.8008 60.5729 77.9961 60.9531C78.1914 61.3307 78.5026 61.5195 78.9297 61.5195C79.362 61.5195 79.6745 61.3281 79.8672 60.9453C80.0625 60.5599 80.1602 59.957 80.1602 59.1367C80.1602 58.3164 80.0625 57.7161 79.8672 57.3359C79.6745 56.9531 79.362 56.7617 78.9297 56.7617C78.5026 56.7617 78.1914 56.9505 77.9961 57.3281C77.8008 57.7031 77.7031 58.306 77.7031 59.1367Z" fill="#323232"/>
<path id="BARANG" d="M16.7852 126.289H18.3984C19.1562 126.289 19.7044 126.402 20.043 126.629C20.3815 126.855 20.5508 127.214 20.5508 127.703C20.5508 128.042 20.4557 128.322 20.2656 128.543C20.0781 128.762 19.8034 128.904 19.4414 128.969V129.008C20.3086 129.156 20.7422 129.612 20.7422 130.375C20.7422 130.885 20.569 131.284 20.2227 131.57C19.8789 131.857 19.3971 132 18.7773 132H16.7852V126.289ZM17.4492 128.734H18.543C19.0117 128.734 19.349 128.661 19.5547 128.516C19.7604 128.367 19.8633 128.118 19.8633 127.77C19.8633 127.449 19.7487 127.219 19.5195 127.078C19.2904 126.935 18.9258 126.863 18.4258 126.863H17.4492V128.734ZM17.4492 129.297V131.434H18.6406C19.1016 131.434 19.4479 131.345 19.6797 131.168C19.9141 130.988 20.0312 130.708 20.0312 130.328C20.0312 129.974 19.9115 129.714 19.6719 129.547C19.4349 129.38 19.0729 129.297 18.5859 129.297H17.4492ZM25.5625 132L24.8516 130.184H22.5625L21.8594 132H21.1875L23.4453 126.266H24.0039L26.25 132H25.5625ZM24.6445 129.586L23.9805 127.816C23.8945 127.592 23.806 127.318 23.7148 126.992C23.6576 127.242 23.5755 127.517 23.4688 127.816L22.7969 129.586H24.6445ZM27.6992 129.625V132H27.0352V126.289H28.6016C29.3021 126.289 29.819 126.423 30.1523 126.691C30.4883 126.96 30.6562 127.363 30.6562 127.902C30.6562 128.658 30.2734 129.168 29.5078 129.434L31.0586 132H30.2734L28.8906 129.625H27.6992ZM27.6992 129.055H28.6094C29.0781 129.055 29.4219 128.962 29.6406 128.777C29.8594 128.59 29.9688 128.31 29.9688 127.938C29.9688 127.56 29.8568 127.288 29.6328 127.121C29.4115 126.954 29.0547 126.871 28.5625 126.871H27.6992V129.055ZM35.5703 132L34.8594 130.184H32.5703L31.8672 132H31.1953L33.4531 126.266H34.0117L36.2578 132H35.5703ZM34.6523 129.586L33.9883 127.816C33.9023 127.592 33.8138 127.318 33.7227 126.992C33.6654 127.242 33.5833 127.517 33.4766 127.816L32.8047 129.586H34.6523ZM41.5039 132H40.7461L37.625 127.207H37.5938C37.6354 127.77 37.6562 128.285 37.6562 128.754V132H37.043V126.289H37.793L40.9062 131.062H40.9375C40.9323 130.992 40.9206 130.767 40.9023 130.387C40.8841 130.004 40.8776 129.73 40.8828 129.566V126.289H41.5039V132ZM45.5859 129.008H47.5273V131.785C47.2253 131.882 46.918 131.954 46.6055 132.004C46.293 132.053 45.931 132.078 45.5195 132.078C44.6549 132.078 43.9818 131.822 43.5 131.309C43.0182 130.793 42.7773 130.072 42.7773 129.145C42.7773 128.551 42.8958 128.031 43.1328 127.586C43.3724 127.138 43.7161 126.797 44.1641 126.562C44.612 126.326 45.1367 126.207 45.7383 126.207C46.3477 126.207 46.9154 126.319 47.4414 126.543L47.1836 127.129C46.668 126.91 46.1719 126.801 45.6953 126.801C45 126.801 44.457 127.008 44.0664 127.422C43.6758 127.836 43.4805 128.41 43.4805 129.145C43.4805 129.915 43.668 130.5 44.043 130.898C44.4206 131.297 44.974 131.496 45.7031 131.496C46.099 131.496 46.4857 131.451 46.8633 131.359V129.602H45.5859V129.008Z" fill="#323232"/>
<path id="Nama Barang" d="M21.2461 156H20.4883L17.3672 151.207H17.3359C17.3776 151.77 17.3984 152.285 17.3984 152.754V156H16.7852V150.289H17.5352L20.6484 155.062H20.6797C20.6745 154.992 20.6628 154.767 20.6445 154.387C20.6263 154.004 20.6198 153.73 20.625 153.566V150.289H21.2461V156ZM25.3516 156L25.2227 155.391H25.1914C24.9779 155.659 24.7643 155.841 24.5508 155.938C24.3398 156.031 24.0755 156.078 23.7578 156.078C23.3333 156.078 23 155.969 22.7578 155.75C22.5182 155.531 22.3984 155.22 22.3984 154.816C22.3984 153.952 23.0898 153.499 24.4727 153.457L25.1992 153.434V153.168C25.1992 152.832 25.1263 152.585 24.9805 152.426C24.8372 152.264 24.6068 152.184 24.2891 152.184C23.9323 152.184 23.5286 152.293 23.0781 152.512L22.8789 152.016C23.0898 151.901 23.3203 151.811 23.5703 151.746C23.8229 151.681 24.0755 151.648 24.3281 151.648C24.8385 151.648 25.2161 151.762 25.4609 151.988C25.7083 152.215 25.832 152.578 25.832 153.078V156H25.3516ZM23.8867 155.543C24.2904 155.543 24.6068 155.432 24.8359 155.211C25.0677 154.99 25.1836 154.68 25.1836 154.281V153.895L24.5352 153.922C24.0195 153.94 23.6471 154.021 23.418 154.164C23.1914 154.305 23.0781 154.525 23.0781 154.824C23.0781 155.059 23.1484 155.237 23.2891 155.359C23.4323 155.482 23.6315 155.543 23.8867 155.543ZM32.6289 156V153.215C32.6289 152.874 32.556 152.618 32.4102 152.449C32.2643 152.277 32.0378 152.191 31.7305 152.191C31.3268 152.191 31.0286 152.307 30.8359 152.539C30.6432 152.771 30.5469 153.128 30.5469 153.609V156H29.8984V153.215C29.8984 152.874 29.8255 152.618 29.6797 152.449C29.5339 152.277 29.306 152.191 28.9961 152.191C28.5898 152.191 28.2917 152.314 28.1016 152.559C27.9141 152.801 27.8203 153.199 27.8203 153.754V156H27.1719V151.719H27.6992L27.8047 152.305H27.8359C27.9583 152.096 28.1302 151.934 28.3516 151.816C28.5755 151.699 28.8255 151.641 29.1016 151.641C29.7708 151.641 30.2083 151.883 30.4141 152.367H30.4453C30.5729 152.143 30.7578 151.966 31 151.836C31.2422 151.706 31.5182 151.641 31.8281 151.641C32.3125 151.641 32.6745 151.766 32.9141 152.016C33.1562 152.263 33.2773 152.66 33.2773 153.207V156H32.6289ZM37.25 156L37.1211 155.391H37.0898C36.8763 155.659 36.6628 155.841 36.4492 155.938C36.2383 156.031 35.974 156.078 35.6562 156.078C35.2318 156.078 34.8984 155.969 34.6562 155.75C34.4167 155.531 34.2969 155.22 34.2969 154.816C34.2969 153.952 34.9883 153.499 36.3711 153.457L37.0977 153.434V153.168C37.0977 152.832 37.0247 152.585 36.8789 152.426C36.7357 152.264 36.5052 152.184 36.1875 152.184C35.8307 152.184 35.4271 152.293 34.9766 152.512L34.7773 152.016C34.9883 151.901 35.2188 151.811 35.4688 151.746C35.7214 151.681 35.974 151.648 36.2266 151.648C36.737 151.648 37.1146 151.762 37.3594 151.988C37.6068 152.215 37.7305 152.578 37.7305 153.078V156H37.25ZM35.7852 155.543C36.1888 155.543 36.5052 155.432 36.7344 155.211C36.9661 154.99 37.082 154.68 37.082 154.281V153.895L36.4336 153.922C35.918 153.94 35.5456 154.021 35.3164 154.164C35.0898 154.305 34.9766 154.525 34.9766 154.824C34.9766 155.059 35.0469 155.237 35.1875 155.359C35.3307 155.482 35.5299 155.543 35.7852 155.543ZM41.2461 150.289H42.8594C43.6172 150.289 44.1654 150.402 44.5039 150.629C44.8424 150.855 45.0117 151.214 45.0117 151.703C45.0117 152.042 44.9167 152.322 44.7266 152.543C44.5391 152.762 44.2643 152.904 43.9023 152.969V153.008C44.7695 153.156 45.2031 153.612 45.2031 154.375C45.2031 154.885 45.0299 155.284 44.6836 155.57C44.3398 155.857 43.8581 156 43.2383 156H41.2461V150.289ZM41.9102 152.734H43.0039C43.4727 152.734 43.8099 152.661 44.0156 152.516C44.2214 152.367 44.3242 152.118 44.3242 151.77C44.3242 151.449 44.2096 151.219 43.9805 151.078C43.7513 150.935 43.3867 150.863 42.8867 150.863H41.9102V152.734ZM41.9102 153.297V155.434H43.1016C43.5625 155.434 43.9089 155.345 44.1406 155.168C44.375 154.988 44.4922 154.708 44.4922 154.328C44.4922 153.974 44.3724 153.714 44.1328 153.547C43.8958 153.38 43.5339 153.297 43.0469 153.297H41.9102ZM48.9688 156L48.8398 155.391H48.8086C48.5951 155.659 48.3815 155.841 48.168 155.938C47.957 156.031 47.6927 156.078 47.375 156.078C46.9505 156.078 46.6172 155.969 46.375 155.75C46.1354 155.531 46.0156 155.22 46.0156 154.816C46.0156 153.952 46.707 153.499 48.0898 153.457L48.8164 153.434V153.168C48.8164 152.832 48.7435 152.585 48.5977 152.426C48.4544 152.264 48.224 152.184 47.9062 152.184C47.5495 152.184 47.1458 152.293 46.6953 152.512L46.4961 152.016C46.707 151.901 46.9375 151.811 47.1875 151.746C47.4401 151.681 47.6927 151.648 47.9453 151.648C48.4557 151.648 48.8333 151.762 49.0781 151.988C49.3255 152.215 49.4492 152.578 49.4492 153.078V156H48.9688ZM47.5039 155.543C47.9076 155.543 48.224 155.432 48.4531 155.211C48.6849 154.99 48.8008 154.68 48.8008 154.281V153.895L48.1523 153.922C47.6367 153.94 47.2643 154.021 47.0352 154.164C46.8086 154.305 46.6953 154.525 46.6953 154.824C46.6953 155.059 46.7656 155.237 46.9062 155.359C47.0495 155.482 47.2487 155.543 47.5039 155.543ZM52.7422 151.641C52.9323 151.641 53.1029 151.656 53.2539 151.688L53.1641 152.289C52.987 152.25 52.8307 152.23 52.6953 152.23C52.349 152.23 52.0521 152.371 51.8047 152.652C51.5599 152.934 51.4375 153.284 51.4375 153.703V156H50.7891V151.719H51.3242L51.3984 152.512H51.4297C51.5885 152.233 51.7799 152.018 52.0039 151.867C52.2279 151.716 52.474 151.641 52.7422 151.641ZM56.6875 156L56.5586 155.391H56.5273C56.3138 155.659 56.1003 155.841 55.8867 155.938C55.6758 156.031 55.4115 156.078 55.0938 156.078C54.6693 156.078 54.3359 155.969 54.0938 155.75C53.8542 155.531 53.7344 155.22 53.7344 154.816C53.7344 153.952 54.4258 153.499 55.8086 153.457L56.5352 153.434V153.168C56.5352 152.832 56.4622 152.585 56.3164 152.426C56.1732 152.264 55.9427 152.184 55.625 152.184C55.2682 152.184 54.8646 152.293 54.4141 152.512L54.2148 152.016C54.4258 151.901 54.6562 151.811 54.9062 151.746C55.1589 151.681 55.4115 151.648 55.6641 151.648C56.1745 151.648 56.5521 151.762 56.7969 151.988C57.0443 152.215 57.168 152.578 57.168 153.078V156H56.6875ZM55.2227 155.543C55.6263 155.543 55.9427 155.432 56.1719 155.211C56.4036 154.99 56.5195 154.68 56.5195 154.281V153.895L55.8711 153.922C55.3555 153.94 54.9831 154.021 54.7539 154.164C54.5273 154.305 54.4141 154.525 54.4141 154.824C54.4141 155.059 54.4844 155.237 54.625 155.359C54.7682 155.482 54.9674 155.543 55.2227 155.543ZM61.4375 156V153.23C61.4375 152.882 61.3581 152.621 61.1992 152.449C61.0404 152.277 60.7917 152.191 60.4531 152.191C60.0052 152.191 59.6771 152.312 59.4688 152.555C59.2604 152.797 59.1562 153.197 59.1562 153.754V156H58.5078V151.719H59.0352L59.1406 152.305H59.1719C59.3047 152.094 59.4909 151.931 59.7305 151.816C59.9701 151.699 60.237 151.641 60.5312 151.641C61.0469 151.641 61.4349 151.766 61.6953 152.016C61.9557 152.263 62.0859 152.66 62.0859 153.207V156H61.4375ZM66.9258 151.719V152.129L66.1328 152.223C66.2057 152.314 66.2708 152.434 66.3281 152.582C66.3854 152.728 66.4141 152.893 66.4141 153.078C66.4141 153.497 66.2708 153.832 65.9844 154.082C65.6979 154.332 65.3047 154.457 64.8047 154.457C64.6771 154.457 64.5573 154.447 64.4453 154.426C64.1693 154.572 64.0312 154.755 64.0312 154.977C64.0312 155.094 64.0794 155.181 64.1758 155.238C64.2721 155.293 64.4375 155.32 64.6719 155.32H65.4297C65.8932 155.32 66.2487 155.418 66.4961 155.613C66.7461 155.809 66.8711 156.092 66.8711 156.465C66.8711 156.939 66.681 157.299 66.3008 157.547C65.9206 157.797 65.3659 157.922 64.6367 157.922C64.0768 157.922 63.6445 157.818 63.3398 157.609C63.0378 157.401 62.8867 157.107 62.8867 156.727C62.8867 156.466 62.9701 156.241 63.1367 156.051C63.3034 155.861 63.5378 155.732 63.8398 155.664C63.7305 155.615 63.638 155.538 63.5625 155.434C63.4896 155.329 63.4531 155.208 63.4531 155.07C63.4531 154.914 63.4948 154.777 63.5781 154.66C63.6615 154.543 63.793 154.43 63.9727 154.32C63.7513 154.229 63.5703 154.074 63.4297 153.855C63.2917 153.637 63.2227 153.387 63.2227 153.105C63.2227 152.637 63.3633 152.276 63.6445 152.023C63.9258 151.768 64.3242 151.641 64.8398 151.641C65.0638 151.641 65.2656 151.667 65.4453 151.719H66.9258ZM63.5117 156.719C63.5117 156.951 63.6094 157.126 63.8047 157.246C64 157.366 64.2799 157.426 64.6445 157.426C65.1888 157.426 65.5911 157.344 65.8516 157.18C66.1146 157.018 66.2461 156.798 66.2461 156.52C66.2461 156.288 66.1745 156.126 66.0312 156.035C65.888 155.947 65.6185 155.902 65.2227 155.902H64.4453C64.151 155.902 63.9219 155.973 63.7578 156.113C63.5938 156.254 63.5117 156.456 63.5117 156.719ZM63.8633 153.09C63.8633 153.389 63.9479 153.616 64.1172 153.77C64.2865 153.923 64.5221 154 64.8242 154C65.457 154 65.7734 153.693 65.7734 153.078C65.7734 152.435 65.4531 152.113 64.8125 152.113C64.5078 152.113 64.2734 152.195 64.1094 152.359C63.9453 152.523 63.8633 152.767 63.8633 153.09Z" fill="#323232"/>
<path id="1" d="M205.215 156H204.582V151.93C204.582 151.591 204.592 151.271 204.613 150.969C204.559 151.023 204.497 151.081 204.43 151.141C204.362 151.201 204.052 151.454 203.5 151.902L203.156 151.457L204.668 150.289H205.215V156Z" fill="#323232"/>
<path id="SUB TOTAL" d="M169.211 179.48C169.211 179.983 169.029 180.375 168.664 180.656C168.299 180.938 167.805 181.078 167.18 181.078C166.503 181.078 165.982 180.991 165.617 180.816V180.176C165.852 180.275 166.107 180.353 166.383 180.41C166.659 180.467 166.932 180.496 167.203 180.496C167.646 180.496 167.979 180.413 168.203 180.246C168.427 180.077 168.539 179.842 168.539 179.543C168.539 179.345 168.499 179.184 168.418 179.059C168.34 178.931 168.207 178.814 168.02 178.707C167.835 178.6 167.552 178.479 167.172 178.344C166.641 178.154 166.26 177.928 166.031 177.668C165.805 177.408 165.691 177.068 165.691 176.648C165.691 176.208 165.857 175.858 166.188 175.598C166.518 175.337 166.956 175.207 167.5 175.207C168.068 175.207 168.59 175.311 169.066 175.52L168.859 176.098C168.388 175.9 167.93 175.801 167.484 175.801C167.133 175.801 166.858 175.876 166.66 176.027C166.462 176.178 166.363 176.388 166.363 176.656C166.363 176.854 166.4 177.017 166.473 177.145C166.546 177.27 166.668 177.385 166.84 177.492C167.014 177.596 167.28 177.712 167.637 177.84C168.236 178.053 168.647 178.283 168.871 178.527C169.098 178.772 169.211 179.09 169.211 179.48ZM174.691 175.289V178.984C174.691 179.635 174.495 180.147 174.102 180.52C173.708 180.892 173.168 181.078 172.48 181.078C171.793 181.078 171.26 180.891 170.883 180.516C170.508 180.141 170.32 179.625 170.32 178.969V175.289H170.984V179.016C170.984 179.492 171.115 179.858 171.375 180.113C171.635 180.368 172.018 180.496 172.523 180.496C173.005 180.496 173.376 180.368 173.637 180.113C173.897 179.855 174.027 179.487 174.027 179.008V175.289H174.691ZM176.207 175.289H177.82C178.578 175.289 179.126 175.402 179.465 175.629C179.803 175.855 179.973 176.214 179.973 176.703C179.973 177.042 179.878 177.322 179.688 177.543C179.5 177.762 179.225 177.904 178.863 177.969V178.008C179.73 178.156 180.164 178.612 180.164 179.375C180.164 179.885 179.991 180.284 179.645 180.57C179.301 180.857 178.819 181 178.199 181H176.207V175.289ZM176.871 177.734H177.965C178.434 177.734 178.771 177.661 178.977 177.516C179.182 177.367 179.285 177.118 179.285 176.77C179.285 176.449 179.171 176.219 178.941 176.078C178.712 175.935 178.348 175.863 177.848 175.863H176.871V177.734ZM176.871 178.297V180.434H178.062C178.523 180.434 178.87 180.345 179.102 180.168C179.336 179.988 179.453 179.708 179.453 179.328C179.453 178.974 179.333 178.714 179.094 178.547C178.857 178.38 178.495 178.297 178.008 178.297H176.871ZM185.23 181H184.566V175.879H182.758V175.289H187.039V175.879H185.23V181ZM192.859 178.137C192.859 179.051 192.628 179.77 192.164 180.293C191.703 180.816 191.061 181.078 190.238 181.078C189.397 181.078 188.747 180.822 188.289 180.309C187.833 179.793 187.605 179.066 187.605 178.129C187.605 177.199 187.835 176.479 188.293 175.969C188.751 175.456 189.402 175.199 190.246 175.199C191.066 175.199 191.707 175.46 192.168 175.98C192.629 176.501 192.859 177.22 192.859 178.137ZM188.309 178.137C188.309 178.91 188.473 179.497 188.801 179.898C189.132 180.297 189.611 180.496 190.238 180.496C190.871 180.496 191.349 180.297 191.672 179.898C191.995 179.5 192.156 178.913 192.156 178.137C192.156 177.368 191.995 176.786 191.672 176.391C191.352 175.992 190.876 175.793 190.246 175.793C189.613 175.793 189.132 175.993 188.801 176.395C188.473 176.793 188.309 177.374 188.309 178.137ZM195.895 181H195.23V175.879H193.422V175.289H197.703V175.879H195.895V181ZM202.156 181L201.445 179.184H199.156L198.453 181H197.781L200.039 175.266H200.598L202.844 181H202.156ZM201.238 178.586L200.574 176.816C200.488 176.592 200.4 176.318 200.309 175.992C200.251 176.242 200.169 176.517 200.062 176.816L199.391 178.586H201.238ZM203.629 181V175.289H204.293V180.398H206.812V181H203.629Z" fill="#323232"/>
<path id="BIAYA TRANSAKSI" d="M142.215 200.289H143.828C144.586 200.289 145.134 200.402 145.473 200.629C145.811 200.855 145.98 201.214 145.98 201.703C145.98 202.042 145.885 202.322 145.695 202.543C145.508 202.762 145.233 202.904 144.871 202.969V203.008C145.738 203.156 146.172 203.612 146.172 204.375C146.172 204.885 145.999 205.284 145.652 205.57C145.309 205.857 144.827 206 144.207 206H142.215V200.289ZM142.879 202.734H143.973C144.441 202.734 144.779 202.661 144.984 202.516C145.19 202.367 145.293 202.118 145.293 201.77C145.293 201.449 145.178 201.219 144.949 201.078C144.72 200.935 144.355 200.863 143.855 200.863H142.879V202.734ZM142.879 203.297V205.434H144.07C144.531 205.434 144.878 205.345 145.109 205.168C145.344 204.988 145.461 204.708 145.461 204.328C145.461 203.974 145.341 203.714 145.102 203.547C144.865 203.38 144.503 203.297 144.016 203.297H142.879ZM147.402 206V200.289H148.066V206H147.402ZM153.227 206L152.516 204.184H150.227L149.523 206H148.852L151.109 200.266H151.668L153.914 206H153.227ZM152.309 203.586L151.645 201.816C151.559 201.592 151.47 201.318 151.379 200.992C151.322 201.242 151.24 201.517 151.133 201.816L150.461 203.586H152.309ZM156.152 203.145L157.676 200.289H158.395L156.488 203.785V206H155.816V203.816L153.914 200.289H154.641L156.152 203.145ZM162.773 206L162.062 204.184H159.773L159.07 206H158.398L160.656 200.266H161.215L163.461 206H162.773ZM161.855 203.586L161.191 201.816C161.105 201.592 161.017 201.318 160.926 200.992C160.868 201.242 160.786 201.517 160.68 201.816L160.008 203.586H161.855ZM168.082 206H167.418V200.879H165.609V200.289H169.891V200.879H168.082V206ZM171.418 203.625V206H170.754V200.289H172.32C173.021 200.289 173.538 200.423 173.871 200.691C174.207 200.96 174.375 201.363 174.375 201.902C174.375 202.658 173.992 203.168 173.227 203.434L174.777 206H173.992L172.609 203.625H171.418ZM171.418 203.055H172.328C172.797 203.055 173.141 202.962 173.359 202.777C173.578 202.59 173.688 202.31 173.688 201.938C173.688 201.56 173.576 201.288 173.352 201.121C173.13 200.954 172.773 200.871 172.281 200.871H171.418V203.055ZM179.289 206L178.578 204.184H176.289L175.586 206H174.914L177.172 200.266H177.73L179.977 206H179.289ZM178.371 203.586L177.707 201.816C177.621 201.592 177.533 201.318 177.441 200.992C177.384 201.242 177.302 201.517 177.195 201.816L176.523 203.586H178.371ZM185.223 206H184.465L181.344 201.207H181.312C181.354 201.77 181.375 202.285 181.375 202.754V206H180.762V200.289H181.512L184.625 205.062H184.656C184.651 204.992 184.639 204.767 184.621 204.387C184.603 204.004 184.596 203.73 184.602 203.566V200.289H185.223V206ZM190.016 204.48C190.016 204.983 189.833 205.375 189.469 205.656C189.104 205.938 188.609 206.078 187.984 206.078C187.307 206.078 186.786 205.991 186.422 205.816V205.176C186.656 205.275 186.911 205.353 187.188 205.41C187.464 205.467 187.737 205.496 188.008 205.496C188.451 205.496 188.784 205.413 189.008 205.246C189.232 205.077 189.344 204.842 189.344 204.543C189.344 204.345 189.303 204.184 189.223 204.059C189.145 203.931 189.012 203.814 188.824 203.707C188.639 203.6 188.357 203.479 187.977 203.344C187.445 203.154 187.065 202.928 186.836 202.668C186.609 202.408 186.496 202.068 186.496 201.648C186.496 201.208 186.661 200.858 186.992 200.598C187.323 200.337 187.76 200.207 188.305 200.207C188.872 200.207 189.395 200.311 189.871 200.52L189.664 201.098C189.193 200.9 188.734 200.801 188.289 200.801C187.938 200.801 187.663 200.876 187.465 201.027C187.267 201.178 187.168 201.388 187.168 201.656C187.168 201.854 187.204 202.017 187.277 202.145C187.35 202.27 187.473 202.385 187.645 202.492C187.819 202.596 188.085 202.712 188.441 202.84C189.04 203.053 189.452 203.283 189.676 203.527C189.902 203.772 190.016 204.09 190.016 204.48ZM194.773 206L194.062 204.184H191.773L191.07 206H190.398L192.656 200.266H193.215L195.461 206H194.773ZM193.855 203.586L193.191 201.816C193.105 201.592 193.017 201.318 192.926 200.992C192.868 201.242 192.786 201.517 192.68 201.816L192.008 203.586H193.855ZM200.371 206H199.59L197.508 203.23L196.91 203.762V206H196.246V200.289H196.91V203.121L199.5 200.289H200.285L197.988 202.77L200.371 206ZM204.383 204.48C204.383 204.983 204.201 205.375 203.836 205.656C203.471 205.938 202.977 206.078 202.352 206.078C201.674 206.078 201.154 205.991 200.789 205.816V205.176C201.023 205.275 201.279 205.353 201.555 205.41C201.831 205.467 202.104 205.496 202.375 205.496C202.818 205.496 203.151 205.413 203.375 205.246C203.599 205.077 203.711 204.842 203.711 204.543C203.711 204.345 203.671 204.184 203.59 204.059C203.512 203.931 203.379 203.814 203.191 203.707C203.007 203.6 202.724 203.479 202.344 203.344C201.812 203.154 201.432 202.928 201.203 202.668C200.977 202.408 200.863 202.068 200.863 201.648C200.863 201.208 201.029 200.858 201.359 200.598C201.69 200.337 202.128 200.207 202.672 200.207C203.24 200.207 203.762 200.311 204.238 200.52L204.031 201.098C203.56 200.9 203.102 200.801 202.656 200.801C202.305 200.801 202.03 200.876 201.832 201.027C201.634 201.178 201.535 201.388 201.535 201.656C201.535 201.854 201.572 202.017 201.645 202.145C201.717 202.27 201.84 202.385 202.012 202.492C202.186 202.596 202.452 202.712 202.809 202.84C203.408 203.053 203.819 203.283 204.043 203.527C204.27 203.772 204.383 204.09 204.383 204.48ZM205.551 206V200.289H206.215V206H205.551Z" fill="#323232"/>
<path id="TOTAL" d="M185.23 231H184.566V225.879H182.758V225.289H187.039V225.879H185.23V231ZM192.859 228.137C192.859 229.051 192.628 229.77 192.164 230.293C191.703 230.816 191.061 231.078 190.238 231.078C189.397 231.078 188.747 230.822 188.289 230.309C187.833 229.793 187.605 229.066 187.605 228.129C187.605 227.199 187.835 226.479 188.293 225.969C188.751 225.456 189.402 225.199 190.246 225.199C191.066 225.199 191.707 225.46 192.168 225.98C192.629 226.501 192.859 227.22 192.859 228.137ZM188.309 228.137C188.309 228.91 188.473 229.497 188.801 229.898C189.132 230.297 189.611 230.496 190.238 230.496C190.871 230.496 191.349 230.297 191.672 229.898C191.995 229.5 192.156 228.913 192.156 228.137C192.156 227.368 191.995 226.786 191.672 226.391C191.352 225.992 190.876 225.793 190.246 225.793C189.613 225.793 189.132 225.993 188.801 226.395C188.473 226.793 188.309 227.374 188.309 228.137ZM195.895 231H195.23V225.879H193.422V225.289H197.703V225.879H195.895V231ZM202.156 231L201.445 229.184H199.156L198.453 231H197.781L200.039 225.266H200.598L202.844 231H202.156ZM201.238 228.586L200.574 226.816C200.488 226.592 200.4 226.318 200.309 225.992C200.251 226.242 200.169 226.517 200.062 226.816L199.391 228.586H201.238ZM203.629 231V225.289H204.293V230.398H206.812V231H203.629Z" fill="#323232"/>
<path id="100" d="M269.059 156H268.426V151.93C268.426 151.591 268.436 151.271 268.457 150.969C268.402 151.023 268.341 151.081 268.273 151.141C268.206 151.201 267.896 151.454 267.344 151.902L267 151.457L268.512 150.289H269.059V156ZM275.02 153.137C275.02 154.124 274.863 154.861 274.551 155.348C274.241 155.835 273.766 156.078 273.125 156.078C272.51 156.078 272.043 155.829 271.723 155.332C271.402 154.832 271.242 154.1 271.242 153.137C271.242 152.142 271.397 151.404 271.707 150.922C272.017 150.44 272.49 150.199 273.125 150.199C273.745 150.199 274.215 150.451 274.535 150.953C274.858 151.456 275.02 152.184 275.02 153.137ZM271.898 153.137C271.898 153.967 271.996 154.573 272.191 154.953C272.387 155.331 272.698 155.52 273.125 155.52C273.557 155.52 273.87 155.328 274.062 154.945C274.258 154.56 274.355 153.957 274.355 153.137C274.355 152.316 274.258 151.716 274.062 151.336C273.87 150.953 273.557 150.762 273.125 150.762C272.698 150.762 272.387 150.951 272.191 151.328C271.996 151.703 271.898 152.306 271.898 153.137ZM279.598 153.137C279.598 154.124 279.441 154.861 279.129 155.348C278.819 155.835 278.344 156.078 277.703 156.078C277.089 156.078 276.621 155.829 276.301 155.332C275.98 154.832 275.82 154.1 275.82 153.137C275.82 152.142 275.975 151.404 276.285 150.922C276.595 150.44 277.068 150.199 277.703 150.199C278.323 150.199 278.793 150.451 279.113 150.953C279.436 151.456 279.598 152.184 279.598 153.137ZM276.477 153.137C276.477 153.967 276.574 154.573 276.77 154.953C276.965 155.331 277.276 155.52 277.703 155.52C278.135 155.52 278.448 155.328 278.641 154.945C278.836 154.56 278.934 153.957 278.934 153.137C278.934 152.316 278.836 151.716 278.641 151.336C278.448 150.953 278.135 150.762 277.703 150.762C277.276 150.762 276.965 150.951 276.77 151.328C276.574 151.703 276.477 152.306 276.477 153.137Z" fill="#323232"/>
<path id="100 copy" d="M269.059 181H268.426V176.93C268.426 176.591 268.436 176.271 268.457 175.969C268.402 176.023 268.341 176.081 268.273 176.141C268.206 176.201 267.896 176.454 267.344 176.902L267 176.457L268.512 175.289H269.059V181ZM275.02 178.137C275.02 179.124 274.863 179.861 274.551 180.348C274.241 180.835 273.766 181.078 273.125 181.078C272.51 181.078 272.043 180.829 271.723 180.332C271.402 179.832 271.242 179.1 271.242 178.137C271.242 177.142 271.397 176.404 271.707 175.922C272.017 175.44 272.49 175.199 273.125 175.199C273.745 175.199 274.215 175.451 274.535 175.953C274.858 176.456 275.02 177.184 275.02 178.137ZM271.898 178.137C271.898 178.967 271.996 179.573 272.191 179.953C272.387 180.331 272.698 180.52 273.125 180.52C273.557 180.52 273.87 180.328 274.062 179.945C274.258 179.56 274.355 178.957 274.355 178.137C274.355 177.316 274.258 176.716 274.062 176.336C273.87 175.953 273.557 175.762 273.125 175.762C272.698 175.762 272.387 175.951 272.191 176.328C271.996 176.703 271.898 177.306 271.898 178.137ZM279.598 178.137C279.598 179.124 279.441 179.861 279.129 180.348C278.819 180.835 278.344 181.078 277.703 181.078C277.089 181.078 276.621 180.829 276.301 180.332C275.98 179.832 275.82 179.1 275.82 178.137C275.82 177.142 275.975 176.404 276.285 175.922C276.595 175.44 277.068 175.199 277.703 175.199C278.323 175.199 278.793 175.451 279.113 175.953C279.436 176.456 279.598 177.184 279.598 178.137ZM276.477 178.137C276.477 178.967 276.574 179.573 276.77 179.953C276.965 180.331 277.276 180.52 277.703 180.52C278.135 180.52 278.448 180.328 278.641 179.945C278.836 179.56 278.934 178.957 278.934 178.137C278.934 177.316 278.836 176.716 278.641 176.336C278.448 175.953 278.135 175.762 277.703 175.762C277.276 175.762 276.965 175.951 276.77 176.328C276.574 176.703 276.477 177.306 276.477 178.137Z" fill="#323232"/>
<path id="0" d="M279.598 203.137C279.598 204.124 279.441 204.861 279.129 205.348C278.819 205.835 278.344 206.078 277.703 206.078C277.089 206.078 276.621 205.829 276.301 205.332C275.98 204.832 275.82 204.1 275.82 203.137C275.82 202.142 275.975 201.404 276.285 200.922C276.595 200.44 277.068 200.199 277.703 200.199C278.323 200.199 278.793 200.451 279.113 200.953C279.436 201.456 279.598 202.184 279.598 203.137ZM276.477 203.137C276.477 203.967 276.574 204.573 276.77 204.953C276.965 205.331 277.276 205.52 277.703 205.52C278.135 205.52 278.448 205.328 278.641 204.945C278.836 204.56 278.934 203.957 278.934 203.137C278.934 202.316 278.836 201.716 278.641 201.336C278.448 200.953 278.135 200.762 277.703 200.762C277.276 200.762 276.965 200.951 276.77 201.328C276.574 201.703 276.477 202.306 276.477 203.137Z" fill="#323232"/>
<path id="100_2" d="M269.059 231H268.426V226.93C268.426 226.591 268.436 226.271 268.457 225.969C268.402 226.023 268.341 226.081 268.273 226.141C268.206 226.201 267.896 226.454 267.344 226.902L267 226.457L268.512 225.289H269.059V231ZM275.02 228.137C275.02 229.124 274.863 229.861 274.551 230.348C274.241 230.835 273.766 231.078 273.125 231.078C272.51 231.078 272.043 230.829 271.723 230.332C271.402 229.832 271.242 229.1 271.242 228.137C271.242 227.142 271.397 226.404 271.707 225.922C272.017 225.44 272.49 225.199 273.125 225.199C273.745 225.199 274.215 225.451 274.535 225.953C274.858 226.456 275.02 227.184 275.02 228.137ZM271.898 228.137C271.898 228.967 271.996 229.573 272.191 229.953C272.387 230.331 272.698 230.52 273.125 230.52C273.557 230.52 273.87 230.328 274.062 229.945C274.258 229.56 274.355 228.957 274.355 228.137C274.355 227.316 274.258 226.716 274.062 226.336C273.87 225.953 273.557 225.762 273.125 225.762C272.698 225.762 272.387 225.951 272.191 226.328C271.996 226.703 271.898 227.306 271.898 228.137ZM279.598 228.137C279.598 229.124 279.441 229.861 279.129 230.348C278.819 230.835 278.344 231.078 277.703 231.078C277.089 231.078 276.621 230.829 276.301 230.332C275.98 229.832 275.82 229.1 275.82 228.137C275.82 227.142 275.975 226.404 276.285 225.922C276.595 225.44 277.068 225.199 277.703 225.199C278.323 225.199 278.793 225.451 279.113 225.953C279.436 226.456 279.598 227.184 279.598 228.137ZM276.477 228.137C276.477 228.967 276.574 229.573 276.77 229.953C276.965 230.331 277.276 230.52 277.703 230.52C278.135 230.52 278.448 230.328 278.641 229.945C278.836 229.56 278.934 228.957 278.934 228.137C278.934 227.316 278.836 226.716 278.641 226.336C278.448 225.953 278.135 225.762 277.703 225.762C277.276 225.762 276.965 225.951 276.77 226.328C276.574 226.703 276.477 227.306 276.477 228.137Z" fill="#323232"/>
<path id="JUMLAH" d="M176.633 133.504C176.388 133.504 176.195 133.469 176.055 133.398V132.832C176.24 132.884 176.432 132.91 176.633 132.91C176.891 132.91 177.086 132.832 177.219 132.676C177.354 132.52 177.422 132.294 177.422 132V126.289H178.086V131.945C178.086 132.44 177.961 132.823 177.711 133.094C177.461 133.367 177.102 133.504 176.633 133.504ZM183.918 126.289V129.984C183.918 130.635 183.721 131.147 183.328 131.52C182.935 131.892 182.395 132.078 181.707 132.078C181.02 132.078 180.487 131.891 180.109 131.516C179.734 131.141 179.547 130.625 179.547 129.969V126.289H180.211V130.016C180.211 130.492 180.341 130.858 180.602 131.113C180.862 131.368 181.245 131.496 181.75 131.496C182.232 131.496 182.603 131.368 182.863 131.113C183.124 130.855 183.254 130.487 183.254 130.008V126.289H183.918ZM187.961 132L186.023 126.938H185.992C186.029 127.339 186.047 127.815 186.047 128.367V132H185.434V126.289H186.434L188.242 131H188.273L190.098 126.289H191.09V132H190.426V128.32C190.426 127.898 190.444 127.44 190.48 126.945H190.449L188.496 132H187.961ZM192.66 132V126.289H193.324V131.398H195.844V132H192.66ZM200.406 132L199.695 130.184H197.406L196.703 132H196.031L198.289 126.266H198.848L201.094 132H200.406ZM199.488 129.586L198.824 127.816C198.738 127.592 198.65 127.318 198.559 126.992C198.501 127.242 198.419 127.517 198.312 127.816L197.641 129.586H199.488ZM206.215 132H205.551V129.312H202.543V132H201.879V126.289H202.543V128.719H205.551V126.289H206.215V132Z" fill="#323232"/>
<path id="HARGA" d="M258.316 132H257.652V129.312H254.645V132H253.98V126.289H254.645V128.719H257.652V126.289H258.316V132ZM263.477 132L262.766 130.184H260.477L259.773 132H259.102L261.359 126.266H261.918L264.164 132H263.477ZM262.559 129.586L261.895 127.816C261.809 127.592 261.72 127.318 261.629 126.992C261.572 127.242 261.49 127.517 261.383 127.816L260.711 129.586H262.559ZM265.613 129.625V132H264.949V126.289H266.516C267.216 126.289 267.733 126.423 268.066 126.691C268.402 126.96 268.57 127.363 268.57 127.902C268.57 128.658 268.188 129.168 267.422 129.434L268.973 132H268.188L266.805 129.625H265.613ZM265.613 129.055H266.523C266.992 129.055 267.336 128.962 267.555 128.777C267.773 128.59 267.883 128.31 267.883 127.938C267.883 127.56 267.771 127.288 267.547 127.121C267.326 126.954 266.969 126.871 266.477 126.871H265.613V129.055ZM272.406 129.008H274.348V131.785C274.046 131.882 273.738 131.954 273.426 132.004C273.113 132.053 272.751 132.078 272.34 132.078C271.475 132.078 270.802 131.822 270.32 131.309C269.839 130.793 269.598 130.072 269.598 129.145C269.598 128.551 269.716 128.031 269.953 127.586C270.193 127.138 270.536 126.797 270.984 126.562C271.432 126.326 271.957 126.207 272.559 126.207C273.168 126.207 273.736 126.319 274.262 126.543L274.004 127.129C273.488 126.91 272.992 126.801 272.516 126.801C271.82 126.801 271.277 127.008 270.887 127.422C270.496 127.836 270.301 128.41 270.301 129.145C270.301 129.915 270.488 130.5 270.863 130.898C271.241 131.297 271.794 131.496 272.523 131.496C272.919 131.496 273.306 131.451 273.684 131.359V129.602H272.406V129.008ZM279.312 132L278.602 130.184H276.312L275.609 132H274.938L277.195 126.266H277.754L280 132H279.312ZM278.395 129.586L277.73 127.816C277.645 127.592 277.556 127.318 277.465 126.992C277.408 127.242 277.326 127.517 277.219 127.816L276.547 129.586H278.395Z" fill="#323232"/>
<path id="Total" d="M20.0898 99H18.6895V91.6348H16.1699V90.4336H22.6094V91.6348H20.0898V99ZM29.5293 95.748C29.5293 96.8066 29.2578 97.6328 28.7148 98.2266C28.1719 98.8203 27.416 99.1172 26.4473 99.1172C25.8418 99.1172 25.3066 98.9805 24.8418 98.707C24.377 98.4336 24.0195 98.041 23.7695 97.5293C23.5195 97.0176 23.3945 96.4238 23.3945 95.748C23.3945 94.6973 23.6641 93.877 24.2031 93.2871C24.7422 92.6973 25.502 92.4023 26.4824 92.4023C27.4199 92.4023 28.1621 92.7051 28.709 93.3105C29.2559 93.9121 29.5293 94.7246 29.5293 95.748ZM24.8125 95.748C24.8125 97.2441 25.3652 97.9922 26.4707 97.9922C27.5645 97.9922 28.1113 97.2441 28.1113 95.748C28.1113 94.2676 27.5605 93.5273 26.459 93.5273C25.8809 93.5273 25.4609 93.7188 25.1992 94.1016C24.9414 94.4844 24.8125 95.0332 24.8125 95.748ZM33.5312 98.0039C33.8672 98.0039 34.2031 97.9512 34.5391 97.8457V98.8828C34.3867 98.9492 34.1895 99.0039 33.9473 99.0469C33.709 99.0938 33.4609 99.1172 33.2031 99.1172C31.8984 99.1172 31.2461 98.4297 31.2461 97.0547V93.5625H30.3613V92.9531L31.3105 92.4492L31.7793 91.0781H32.6289V92.5195H34.4746V93.5625H32.6289V97.0312C32.6289 97.3633 32.7109 97.6094 32.875 97.7695C33.043 97.9258 33.2617 98.0039 33.5312 98.0039ZM39.8945 99L39.6191 98.0977H39.5723C39.2598 98.4922 38.9453 98.7617 38.6289 98.9062C38.3125 99.0469 37.9062 99.1172 37.4102 99.1172C36.7734 99.1172 36.2754 98.9453 35.916 98.6016C35.5605 98.2578 35.3828 97.7715 35.3828 97.1426C35.3828 96.4746 35.6309 95.9707 36.127 95.6309C36.623 95.291 37.3789 95.1055 38.3945 95.0742L39.5137 95.0391V94.6934C39.5137 94.2793 39.416 93.9707 39.2207 93.7676C39.0293 93.5605 38.7305 93.457 38.3242 93.457C37.9922 93.457 37.6738 93.5059 37.3691 93.6035C37.0645 93.7012 36.7715 93.8164 36.4902 93.9492L36.0449 92.9648C36.3965 92.7812 36.7812 92.6426 37.1992 92.5488C37.6172 92.4512 38.0117 92.4023 38.3828 92.4023C39.207 92.4023 39.8281 92.582 40.2461 92.9414C40.668 93.3008 40.8789 93.8652 40.8789 94.6348V99H39.8945ZM37.8438 98.0625C38.3438 98.0625 38.7441 97.9238 39.0449 97.6465C39.3496 97.3652 39.502 96.9727 39.502 96.4688V95.9062L38.6699 95.9414C38.0215 95.9648 37.5488 96.0742 37.252 96.2695C36.959 96.4609 36.8125 96.7559 36.8125 97.1543C36.8125 97.4434 36.8984 97.668 37.0703 97.8281C37.2422 97.9844 37.5 98.0625 37.8438 98.0625ZM44.1777 99H42.8008V89.8828H44.1777V99Z" fill="#323232"/>
<path id="100_3" d="M261.783 103H259.671V97.2168L259.691 96.2666L259.726 95.2275C259.375 95.5785 259.131 95.8086 258.994 95.918L257.846 96.8408L256.827 95.5693L260.047 93.0059H261.783V103ZM271.49 98.0029C271.49 99.7484 271.203 101.04 270.629 101.879C270.059 102.717 269.18 103.137 267.99 103.137C266.837 103.137 265.967 102.704 265.379 101.838C264.796 100.972 264.504 99.6937 264.504 98.0029C264.504 96.2393 264.789 94.9404 265.358 94.1064C265.928 93.2679 266.805 92.8486 267.99 92.8486C269.143 92.8486 270.014 93.2861 270.602 94.1611C271.194 95.0361 271.49 96.3167 271.49 98.0029ZM266.603 98.0029C266.603 99.2288 266.707 100.108 266.917 100.642C267.131 101.17 267.489 101.435 267.99 101.435C268.482 101.435 268.838 101.166 269.057 100.628C269.275 100.09 269.385 99.2152 269.385 98.0029C269.385 96.777 269.273 95.8975 269.05 95.3643C268.831 94.8265 268.478 94.5576 267.99 94.5576C267.493 94.5576 267.138 94.8265 266.924 95.3643C266.71 95.8975 266.603 96.777 266.603 98.0029ZM279.488 98.0029C279.488 99.7484 279.201 101.04 278.627 101.879C278.057 102.717 277.178 103.137 275.988 103.137C274.835 103.137 273.965 102.704 273.377 101.838C272.794 100.972 272.502 99.6937 272.502 98.0029C272.502 96.2393 272.787 94.9404 273.356 94.1064C273.926 93.2679 274.803 92.8486 275.988 92.8486C277.141 92.8486 278.012 93.2861 278.6 94.1611C279.192 95.0361 279.488 96.3167 279.488 98.0029ZM274.601 98.0029C274.601 99.2288 274.705 100.108 274.915 100.642C275.129 101.17 275.487 101.435 275.988 101.435C276.48 101.435 276.836 101.166 277.055 100.628C277.273 100.09 277.383 99.2152 277.383 98.0029C277.383 96.777 277.271 95.8975 277.048 95.3643C276.829 94.8265 276.476 94.5576 275.988 94.5576C275.492 94.5576 275.136 94.8265 274.922 95.3643C274.708 95.8975 274.601 96.777 274.601 98.0029Z" fill="#323232"/>
<path id="Rp" d="M246.93 93.8242H247.32C247.703 93.8242 247.986 93.7604 248.168 93.6328C248.35 93.5052 248.441 93.3047 248.441 93.0312C248.441 92.7604 248.348 92.5677 248.16 92.4531C247.975 92.3385 247.688 92.2812 247.297 92.2812H246.93V93.8242ZM246.93 94.8086V97H245.719V91.2891H247.383C248.159 91.2891 248.733 91.431 249.105 91.7148C249.478 91.9961 249.664 92.4245 249.664 93C249.664 93.3359 249.572 93.6354 249.387 93.8984C249.202 94.1589 248.94 94.3633 248.602 94.5117C249.461 95.7956 250.021 96.625 250.281 97H248.938L247.574 94.8086H246.93ZM253.305 97.0781C252.792 97.0781 252.389 96.8919 252.098 96.5195H252.035C252.077 96.8841 252.098 97.0951 252.098 97.1523V98.9219H250.906V92.6328H251.875L252.043 93.1992H252.098C252.376 92.7669 252.789 92.5508 253.336 92.5508C253.852 92.5508 254.255 92.75 254.547 93.1484C254.839 93.5469 254.984 94.1003 254.984 94.8086C254.984 95.2747 254.915 95.6797 254.777 96.0234C254.642 96.3672 254.448 96.6289 254.195 96.8086C253.943 96.9883 253.646 97.0781 253.305 97.0781ZM252.953 93.5039C252.659 93.5039 252.444 93.5951 252.309 93.7773C252.173 93.957 252.103 94.2552 252.098 94.6719V94.8008C252.098 95.2695 252.167 95.6055 252.305 95.8086C252.445 96.0117 252.667 96.1133 252.969 96.1133C253.503 96.1133 253.77 95.6732 253.77 94.793C253.77 94.3633 253.703 94.0417 253.57 93.8281C253.44 93.612 253.234 93.5039 252.953 93.5039Z" fill="#323232"/>
</g>
<g id="Group">
<rect id="Rectangle Copy 33" x="248" y="16" width="32" height="32" rx="4" fill="#EA232A"/>
<mask id="mask1" mask-type="alpha" maskUnits="userSpaceOnUse" x="248" y="16" width="32" height="32">
<rect id="Rectangle Copy 33_2" x="248" y="16" width="32" height="32" rx="4" fill="white"/>
</mask>
<g mask="url(#mask1)" id="svg_2">
<g id="Group 4 Copy 2">
<g id="linkaja_ewallet_logo">
<path id="Shape" fill-rule="evenodd" clip-rule="evenodd" d="M259.681 22.3758C259.483 21.6967 260.073 21.0255 260.734 21.0021C261.629 20.942 261.876 22.1794 260.96 22.7405C260.43 22.9844 259.872 22.9327 259.681 22.3758ZM262.214 24.456C262.347 23.7531 262.44 23.6434 262.633 23.516C262.872 23.3589 264.636 23.195 265.245 23.2735C265.33 23.2857 265.411 23.3011 265.488 23.3195C267.249 23.7397 267.002 25.7221 266.884 26.6717L266.879 26.709C266.757 27.6011 266.637 28.4136 266.613 28.5146C266.57 28.6904 266.532 28.6982 265.724 28.6982C265.452 28.6982 265.311 28.6888 265.156 28.6743C264.907 28.6579 264.883 28.6016 264.908 28.4191C264.958 28.0114 265.017 27.6344 265.076 27.2625C265.124 26.9546 265.172 26.6503 265.213 26.335C265.336 25.3849 265.304 24.4468 264.13 24.6485C263.929 24.6998 263.874 24.716 263.846 24.9175C263.753 25.5165 263.667 26.1281 263.582 26.7309L263.582 26.7312L263.582 26.7316L263.581 26.7321L263.581 26.7326L263.581 26.7332L263.581 26.734L263.581 26.735L263.581 26.7355L263.581 26.7362L263.581 26.737L263.581 26.738L263.58 26.739L263.58 26.7402C263.533 27.0787 263.485 27.4143 263.437 27.7433C263.408 27.9624 263.367 28.1914 263.325 28.3943C263.32 28.4159 263.316 28.4365 263.313 28.4557C263.308 28.4825 263.304 28.5065 263.298 28.5264C263.286 28.5669 263.259 28.6091 263.232 28.5673C263.044 28.2224 262.156 28.2799 261.786 28.533C261.766 28.5473 261.747 28.5608 261.73 28.573C261.593 28.6725 261.57 28.6891 261.638 28.3371C261.651 28.2533 261.664 28.1695 261.677 28.0859C261.743 27.6475 261.802 27.2117 261.861 26.7759C261.964 26.0076 262.068 25.2392 262.214 24.456ZM259.322 24.5231L259.322 24.5232C259.134 25.8389 258.963 27.0326 258.786 28.5251C258.792 28.655 258.828 28.6733 258.989 28.7018C259.178 28.7071 259.493 28.7038 259.769 28.701C259.893 28.6997 260.009 28.6985 260.103 28.6982L260.125 28.6982C260.367 28.6984 260.429 28.6985 260.479 28.433C260.538 28.095 260.596 27.7658 260.652 27.4418L260.653 27.4411L260.653 27.441C260.868 26.2173 261.069 25.0687 261.24 23.8134C261.29 23.4869 261.162 23.4216 260.677 23.42C260.479 23.4134 260.271 23.4141 260.063 23.4149L259.895 23.4154C259.663 23.4156 259.465 23.4391 259.447 23.6415C259.404 23.9441 259.363 24.2365 259.322 24.5231ZM267.62 28.7186C267.602 28.685 267.651 28.2167 267.727 27.678C267.804 27.1393 267.965 25.9824 268.084 25.107C268.422 22.6219 268.533 21.8732 268.581 21.5868C268.628 21.27 268.63 21.27 268.908 21.2709L268.957 21.271H269.474C269.535 21.271 269.592 21.2707 269.646 21.2705C269.768 21.27 269.87 21.2695 269.955 21.2723L270.021 21.2743C270.175 21.2786 270.26 21.281 270.299 21.3243C270.345 21.3765 270.326 21.4881 270.283 21.7344L270.283 21.7347L270.283 21.7348L270.282 21.7357C270.271 21.8031 270.257 21.8806 270.243 21.9696C270.218 22.1213 270.162 22.5597 270.093 23.0926L270.093 23.093C270.038 23.519 269.975 24.0054 269.915 24.4541C269.573 26.9975 269.348 28.5572 269.307 28.6778C269.268 28.7909 267.677 28.8294 267.62 28.7186ZM253.445 27.4839C253.49 27.9805 253.736 28.31 254.256 28.5703C254.679 28.782 254.688 28.7828 256.425 28.761L257.78 28.742C257.828 28.7391 257.871 28.7394 257.912 28.7396C258.067 28.7404 258.168 28.741 258.205 28.5578C258.243 28.3477 258.272 28.1508 258.302 27.9442C258.324 27.7877 258.348 27.6256 258.377 27.448C258.404 27.199 258.347 27.1309 258.071 27.1464L256.912 27.1289C255.616 27.1095 255.421 27.0892 255.344 26.9665C255.278 26.8615 255.348 26.1803 255.623 24.2495L255.688 23.7945C255.812 22.927 255.907 22.26 255.941 21.9261C255.943 21.9089 255.945 21.8921 255.947 21.8756C255.965 21.7241 255.978 21.6051 255.771 21.6021C255.646 21.595 255.468 21.5958 255.265 21.5967H255.265H255.265H255.265H255.265H255.265H255.265H255.265H255.265H255.265H255.265C255.193 21.5971 255.117 21.5974 255.039 21.5974H254.478C254.193 21.5974 254.17 21.6145 254.118 21.9132C253.903 23.1854 253.418 27.1863 253.445 27.4839ZM271.55 29.1675C271.425 28.8869 271.022 28.0018 270.654 27.2006C270.287 26.3993 270.006 25.6929 270.03 25.6309C270.054 25.5688 270.463 25.0582 270.939 24.4963L271.715 23.5816L271.723 23.572C271.771 23.5125 271.827 23.4447 271.894 23.4437C272.102 23.4448 272.313 23.4509 272.523 23.457L272.523 23.457C272.785 23.4646 273.044 23.4721 273.291 23.4697L273.361 23.4689C273.646 23.4651 273.773 23.4635 273.544 23.6964C273.386 23.8926 273.076 24.2518 272.72 24.6459C272.206 25.2154 271.786 25.6966 271.786 25.7152C271.786 25.7339 272.171 26.5844 272.642 27.6053C273.012 28.4073 273.318 29.1248 273.421 29.4244C273.465 29.5261 273.426 29.6133 273.332 29.637C273.207 29.6661 272.983 29.6776 272.597 29.6776H272.019C271.878 29.6925 271.774 29.6676 271.72 29.5463L271.55 29.1675ZM261.997 29.1804C261.577 29.3485 261.241 29.7477 261.241 30.2716C261.251 30.9224 262.091 31.1574 262.667 30.7598C263.116 30.4142 263.368 29.7508 262.984 29.3018C262.767 29.0532 262.36 29.0527 261.997 29.1804ZM269.539 34.6768C269.566 34.4635 269.626 33.8851 269.671 33.3912C269.717 32.8975 269.79 32.1262 269.833 31.6773C269.867 31.3366 269.896 31.0059 269.908 30.8319C269.934 30.676 270.121 30.6576 270.245 30.6564C270.381 30.6579 270.516 30.6561 270.647 30.6544H270.647H270.647H270.647H270.647H270.647H270.647H270.647C270.912 30.651 271.166 30.6477 271.413 30.6706C271.588 30.6885 271.661 30.7273 271.662 30.8317C271.495 31.6912 270.896 34.6563 270.849 34.84C270.81 34.9982 270.794 35.0449 270.553 35.0587C270.394 35.0561 270.249 35.0594 270.102 35.0628C269.977 35.0657 269.851 35.0686 269.713 35.0679C269.542 35.0657 269.496 35.0151 269.539 34.6768ZM257.145 31.6967C257.192 31.9376 257.393 33.568 257.423 33.8841C257.419 33.93 257.413 33.9513 257.353 33.9559C257.272 33.959 257.122 33.9628 256.956 33.967C256.688 33.9738 256.381 33.9815 256.275 33.9887C256.225 33.9931 256.191 33.9737 256.205 33.9206C256.319 33.5364 256.99 31.8816 257.114 31.6945L257.115 31.6931C257.127 31.6788 257.133 31.6717 257.145 31.6967ZM253.34 36.3658C253.829 35.1653 255.794 30.8669 256.265 29.9766C256.354 29.7547 256.589 29.711 256.75 29.6954C257.169 29.6761 257.537 29.679 257.905 29.6819H257.905H257.905H257.905H257.905H257.905L258.017 29.6828C258.417 29.6863 258.44 29.8214 258.489 30.1066L258.495 30.1461C258.561 30.4572 259.377 35.3503 259.562 36.5248C259.565 36.5506 259.568 36.574 259.571 36.5952C259.593 36.7348 259.599 36.7806 259.38 36.7809C259.251 36.7813 259.056 36.7877 258.846 36.7946L258.846 36.7946C258.485 36.8065 258.082 36.8197 257.901 36.806C257.81 36.7941 257.75 36.7339 257.736 36.6661C257.71 36.5401 257.68 36.3239 257.66 36.0984L257.608 35.5133H256.558H255.508L255.279 36.0759C255.197 36.276 255.108 36.4735 255.042 36.6045C254.995 36.7245 254.926 36.7799 254.822 36.8026C254.743 36.802 254.603 36.8047 254.437 36.8079H254.437H254.437H254.437H254.437H254.437C254.06 36.8152 253.549 36.8251 253.312 36.8041C253.168 36.7376 253.257 36.5465 253.314 36.4235L253.314 36.4235L253.314 36.4234L253.314 36.4234L253.314 36.4233C253.324 36.4017 253.333 36.3821 253.34 36.3658ZM266.725 33.7314L266.725 33.7314L266.725 33.7314L266.725 33.7314L266.725 33.7314C266.639 34.2456 266.558 34.7285 266.419 35.2479C266.356 35.4369 266.168 35.451 265.97 35.4656C265.941 35.4677 265.913 35.4699 265.884 35.4725C265.167 35.4725 264.907 34.9159 265.156 33.9168C265.338 33.1884 265.681 32.8608 266.262 32.8608L266.263 32.8608C266.376 32.8614 266.812 32.8638 266.83 33.1242C266.792 33.3337 266.758 33.5348 266.725 33.7314ZM264.858 36.9442C263.068 36.6372 263.08 34.4937 263.481 33.2689C263.983 31.851 265.206 31.4391 266.212 31.4032C267.061 31.374 268.237 31.5326 268.532 31.7159C268.614 31.7665 268.575 32.2579 268.348 34.08C268.189 35.3451 268.016 36.433 267.963 36.4975C267.68 36.8404 265.781 37.1136 264.858 36.9442ZM269.517 35.9225C268.879 36.3136 268.85 37.2669 269.459 37.5137C270.442 37.9125 271.499 36.7323 270.781 36.0101C270.489 35.717 269.921 35.675 269.517 35.9225ZM258.969 37.9192C258.911 37.7569 259.119 37.6735 259.253 37.6201C259.271 37.6128 259.288 37.6061 259.302 37.5998C259.847 37.3652 260.23 36.9829 260.358 36.5463C260.42 36.3373 260.607 35.1562 260.774 33.9218C260.941 32.6873 261.091 31.7325 261.107 31.6764L261.109 31.6697C261.123 31.6212 261.161 31.4869 261.329 31.4718C261.61 31.4691 261.845 31.4703 262.095 31.4716H262.095C262.246 31.4724 262.401 31.4733 262.574 31.4733C262.812 31.4502 262.784 31.6944 262.763 31.8728L262.759 31.908C262.742 32.0933 262.699 32.4196 262.645 32.8243L262.607 33.1056L262.321 35.2675C262.161 36.4769 262.072 36.8492 261.795 37.4722C261.465 38.2135 260.961 38.6442 260.048 38.9506L260.009 38.9628L260.009 38.9628C259.799 39.03 259.331 39.1794 259.277 39.0288C259.175 38.7003 259.098 38.4086 259.014 38.0868L258.969 37.9192ZM252.001 41.9354C251.984 41.9521 252.337 42.1575 252.785 42.3919C253.233 42.6264 253.688 42.8182 253.795 42.8182C253.903 42.8182 254.586 42.6699 255.312 42.4886C258.87 41.601 263.787 40.7795 268.211 40.3338C270.548 40.0985 273.53 39.8888 274.831 39.8685L275.564 39.8571L274.914 39.7824C273.922 39.6686 268.206 39.6725 266.626 39.788C262.79 40.0687 258.938 40.5462 255.699 41.1427C254.202 41.4183 252.058 41.8779 252.001 41.9354Z" fill="white"/>
</g>
</g>
</g>
</g>
</g><rect fill="#4a90d6" stroke="#222222" stroke-width="2" stroke-linejoin="round" stroke-dashoffset="" fill-rule="nonzero" id="svg_3" x="12" y="12" width="133" height="26" style="color: rgb(0, 0, 0);"/><rect fill="#ffffff" stroke="#ffffff" stroke-width="2" stroke-linejoin="round" stroke-dashoffset="" fill-rule="nonzero" id="svg_5" x="6" y="3" width="162" height="39" style="color: rgb(0, 0, 0);"/></g></svg>