<svg xmlns="http://www.w3.org/2000/svg" width="43" height="34" viewBox="0 0 43 34">
    <g fill="none" fill-rule="nonzero">
        <path fill="#231F20" d="M41.931 33.022v.086h.079a.082.082 0 0 0 .043-.011.038.038 0 0 0 .016-.033.036.036 0 0 0-.016-.031.075.075 0 0 0-.043-.011h-.079zm.08-.06c.04 0 .072.009.094.027a.092.092 0 0 1 .033.075.087.087 0 0 1-.026.066.129.129 0 0 1-.076.032l.105.121h-.081l-.097-.12h-.032v.12h-.068v-.321h.148zm-.021.432a.272.272 0 0 0 .104-.52.275.275 0 0 0-.209 0 .262.262 0 0 0-.142.144.262.262 0 0 0-.021.106c0 .037.006.072.02.105a.254.254 0 0 0 .143.143.26.26 0 0 0 .105.022zm0-.617a.342.342 0 0 1 .248.102.34.34 0 0 1 .102.245.359.359 0 0 1-.213.319.347.347 0 0 1-.387-.074.359.359 0 0 1-.075-.111.333.333 0 0 1-.027-.134.34.34 0 0 1 .214-.319.347.347 0 0 1 .138-.028zM9.718 31.539c0-.613.399-1.117 1.05-1.117.622 0 1.042.482 1.042 1.117 0 .634-.42 1.116-1.042 1.116-.651 0-1.05-.503-1.05-1.116zm2.8 0v-1.744h-.751v.423c-.239-.314-.6-.51-1.093-.51-.97 0-1.73.766-1.73 1.83 0 1.066.76 1.832 1.73 1.832.492 0 .854-.197 1.093-.511v.423h.752V31.54zm25.417 0c0-.613.398-1.117 1.05-1.117.622 0 1.041.482 1.041 1.117 0 .634-.42 1.116-1.042 1.116-.651 0-1.05-.503-1.05-1.116zm2.8 0v-3.144h-.752v1.823c-.239-.314-.6-.51-1.093-.51-.97 0-1.73.766-1.73 1.83 0 1.066.76 1.832 1.73 1.832.492 0 .854-.197 1.093-.511v.423h.753V31.54zm-18.88-1.153c.484 0 .796.307.875.846h-1.795c.08-.503.384-.846.92-.846zm.015-.679c-1.014 0-1.723.744-1.723 1.832 0 1.109.738 1.83 1.773 1.83.521 0 .998-.13 1.418-.488l-.368-.562c-.29.233-.66.365-1.007.365-.484 0-.926-.226-1.034-.854h2.568c.008-.094.015-.19.015-.291-.007-1.088-.673-1.832-1.642-1.832zm9.081 1.832c0-.613.399-1.117 1.05-1.117.622 0 1.042.482 1.042 1.117 0 .634-.42 1.116-1.042 1.116-.651 0-1.05-.503-1.05-1.116zm2.8 0v-1.744H33v.423c-.24-.314-.6-.51-1.093-.51-.97 0-1.73.766-1.73 1.83 0 1.066.76 1.832 1.73 1.832.492 0 .853-.197 1.093-.511v.423h.752V31.54zm-7.047 0c0 1.058.73 1.83 1.845 1.83.521 0 .868-.116 1.244-.415l-.36-.613a1.512 1.512 0 0 1-.906.314c-.6-.007-1.042-.445-1.042-1.116 0-.672.441-1.11 1.042-1.117.326 0 .623.11.905.314l.361-.613c-.376-.299-.723-.416-1.244-.416-1.115 0-1.845.774-1.845 1.832zm9.697-1.832c-.434 0-.717.205-.912.511v-.423h-.746v3.487h.753v-1.955c0-.577.246-.897.738-.897.153 0 .312.021.47.087l.232-.714a1.59 1.59 0 0 0-.535-.096zm-20.162.365c-.362-.24-.86-.365-1.41-.365-.877 0-1.441.424-1.441 1.117 0 .569.42.92 1.193 1.029l.356.05c.412.059.607.168.607.365 0 .27-.275.424-.789.424-.52 0-.897-.168-1.15-.365l-.355.59c.413.307.934.453 1.498.453.999 0 1.578-.474 1.578-1.138 0-.613-.456-.934-1.209-1.043l-.354-.052c-.326-.043-.587-.109-.587-.342 0-.256.246-.409.659-.409.441 0 .869.168 1.078.3l.326-.614zm9.704-.365c-.434 0-.716.205-.91.511v-.423h-.746v3.487h.752v-1.955c0-.577.246-.897.738-.897.152 0 .311.021.47.087l.232-.714a1.59 1.59 0 0 0-.536-.096zm-6.418.088h-1.23v-1.058h-.76v1.058h-.702v.693h.701v1.59c0 .81.312 1.292 1.201 1.292.327 0 .703-.102.941-.27l-.217-.65c-.224.132-.47.198-.666.198-.376 0-.498-.234-.498-.584v-1.576h1.23v-.693zM8.279 33.282v-2.188c0-.825-.521-1.38-1.361-1.387-.442-.007-.897.132-1.216.62-.239-.386-.615-.62-1.143-.62-.37 0-.73.11-1.013.518v-.43h-.753v3.487h.76V31.35c0-.605.333-.927.847-.927.5 0 .752.328.752.92v1.94h.76V31.35c0-.605.347-.927.847-.927.513 0 .76.328.76.92v1.94h.76z"/>
        <path fill="#F79410" d="M42.395 21.85v-.61h-.132l-.152.42-.152-.42h-.132v.61h.093v-.46l.143.397h.097l.142-.398v.461h.093zm-.836 0v-.506h.17v-.103h-.431v.103h.168v.506h.093z"/>
        <path fill="#FF5F00" d="M27.42 23.876h-11.4V3.224h11.4z"/>
        <path fill="#EB001B" d="M16.75 13.548a13.15 13.15 0 0 1 4.976-10.326 12.905 12.905 0 0 0-8.05-2.808C6.48.414.648 6.294.648 13.548c0 7.254 5.832 13.135 13.026 13.135 3.04 0 5.836-1.05 8.051-2.808a13.15 13.15 0 0 1-4.975-10.327"/>
        <path fill="#F79E1B" d="M42.793 13.548c0 7.254-5.832 13.135-13.027 13.135a12.91 12.91 0 0 1-8.052-2.808 13.15 13.15 0 0 0 4.976-10.327 13.15 13.15 0 0 0-4.976-10.326A12.91 12.91 0 0 1 29.766.414c7.195 0 13.027 5.88 13.027 13.134"/>
    </g>
</svg>
