<svg width="320" height="261" viewBox="0 0 320 261" fill="none" xmlns="http://www.w3.org/2000/svg">
<path fill-rule="evenodd" clip-rule="evenodd" d="M175.946 0.207053C203.434 1.85204 227.963 15.4078 250.029 31.8288C271.834 48.0559 289.581 68.3068 300.714 93.0575C312.942 120.244 326.898 151.072 316.169 178.881C305.536 206.44 273.421 217.42 247.335 231.409C224.79 243.5 201.367 251.053 175.946 254.079C147.09 257.514 112.234 269.789 90.9928 250.019C69.4098 229.931 89.5267 192.397 79.8097 164.603C69.718 135.737 30.9224 117.951 34.1954 87.557C37.4495 57.3385 69.1716 38.5388 95.106 22.5574C119.488 7.53239 147.332 -1.50536 175.946 0.207053Z" fill="#1F3473"/>
<rect y="48" width="251.689" height="157.25" rx="10" fill="#ECF1FF"/>
<path d="M0 58C0 52.4771 4.47715 48 10 48H241.689C247.212 48 251.689 52.4772 251.689 58V64.5113H0V58Z" fill="#6B82C8"/>
<ellipse cx="15.7321" cy="56.6488" rx="3.14612" ry="3.14501" fill="#ECECEC"/>
<ellipse cx="26.7399" cy="56.6488" rx="3.14612" ry="3.14501" fill="#ECECEC"/>
<ellipse cx="37.7516" cy="56.6488" rx="3.14612" ry="3.14501" fill="#00CF99"/>
<ellipse cx="91.2329" cy="89.6713" rx="12.5845" ry="12.58" fill="#D1DCFF"/>
<rect x="116.402" y="77.8778" width="100.676" height="4.71751" rx="2.35876" fill="#D1DCFF"/>
<rect x="116.402" y="88.0988" width="58.2032" height="4.71751" rx="2.35876" fill="#D1DCFF"/>
<rect x="116.402" y="98.3201" width="100.676" height="4.71751" rx="2.35876" fill="#D1DCFF"/>
<ellipse cx="91.2329" cy="131.343" rx="12.5845" ry="12.58" fill="#D1DCFF"/>
<rect x="116.402" y="118.763" width="100.676" height="4.71751" rx="2.35876" fill="#D1DCFF"/>
<rect x="116.402" y="128.984" width="58.2032" height="4.71751" rx="2.35876" fill="#D1DCFF"/>
<rect x="116.402" y="139.205" width="100.676" height="4.71751" rx="2.35876" fill="#D1DCFF"/>
<ellipse cx="91.2329" cy="172.228" rx="12.5845" ry="12.58" fill="#D1DCFF"/>
<rect x="116.402" y="159.648" width="100.676" height="4.71751" rx="2.35876" fill="#D1DCFF"/>
<rect x="116.402" y="169.869" width="58.2032" height="4.71751" rx="2.35876" fill="#D1DCFF"/>
<rect x="116.402" y="180.09" width="100.676" height="4.71751" rx="2.35876" fill="#D1DCFF"/>
<ellipse cx="31.4587" cy="95.9614" rx="18.8767" ry="18.87" fill="#D1DCFF"/>
<path d="M31.6031 97.5339C25.8819 97.5339 23.4987 101.379 22.446 104.13C22.2071 104.754 22.6868 105.396 23.355 105.396H39.459C40.1551 105.396 40.6421 104.702 40.3731 104.06C38.9325 100.621 36.7502 97.5339 31.6031 97.5339Z" fill="#28459F"/>
<ellipse cx="31.4575" cy="91.2439" rx="4.71918" ry="4.71751" fill="#28459F"/>
<path fill-rule="evenodd" clip-rule="evenodd" d="M170 143C165.582 143 162 146.582 162 151V169.741V201.448V237L184.136 209.448H272C276.418 209.448 280 205.867 280 201.448V151C280 146.582 276.418 143 272 143H170Z" fill="#F9D1D5"/>
<path fill-rule="evenodd" clip-rule="evenodd" d="M230.696 163.259L234.737 167.31L225.044 177.029L234.749 186.759L230.708 190.81L221.003 181.08L211.299 190.81L207.258 186.759L216.962 177.029L207.269 167.31L211.311 163.259L221.003 172.977L230.696 163.259Z" fill="#E84855"/>
</svg>
