<svg width="60" height="60" viewBox="0 0 60 60" fill="none" xmlns="http://www.w3.org/2000/svg">
    <path fill-rule="evenodd" clip-rule="evenodd" d="M29.97 0C13.41 0 0 13.44 0 30C0 46.56 13.41 60 29.97 60C46.56 60 60 46.56 60 30C60 13.44 46.56 0 29.97 0ZM19.4996 18C17.0144 18 14.9996 20.0147 14.9996 22.5C14.9996 24.9853 17.0144 27 19.4996 27C21.9849 27 23.9996 24.9853 23.9996 22.5C23.9996 20.0147 21.9849 18 19.4996 18ZM40.5 18C38.0147 18 36 20.0147 36 22.5C36 24.9853 38.0147 27 40.5 27C42.9853 27 45 24.9853 45 22.5C45 20.0147 42.9853 18 40.5 18ZM19.6504 36C21.7504 39.57 25.5604 42 30.0004 42C34.4404 42 38.2804 39.57 40.3504 36H45.3604C42.9604 42.15 36.9904 46.5 30.0004 46.5C23.0104 46.5 17.0404 42.15 14.6404 36H19.6504ZM5.99964 29.9999C5.99964 43.2599 16.7396 53.9999 29.9996 53.9999C43.2596 53.9999 53.9996 43.2599 53.9996 29.9999C53.9996 16.7399 43.2596 5.99991 29.9996 5.99991C16.7396 5.99991 5.99964 16.7399 5.99964 29.9999Z" fill="#00CF99"/>
</svg>
