<svg width="720" height="900" viewBox="0 0 720 900" fill="none" xmlns="http://www.w3.org/2000/svg">
<g clip-path="url(#clip0)">
<rect width="720" height="900" fill="white"/>
<rect width="720" height="900" fill="white"/>
<rect width="720" height="900" fill="#ECF1FF"/>
<path opacity="0.480166" fill-rule="evenodd" clip-rule="evenodd" d="M1066.12 106.83C1073.7 114.411 1076.65 125.459 1073.88 135.811L1017.77 344.883C1014.99 355.235 1006.9 363.318 996.544 366.088L787.427 422.032C777.073 424.802 766.028 421.837 758.452 414.256L605.445 261.126C597.869 253.545 594.914 242.497 597.692 232.145L653.802 23.0726C656.58 12.7209 664.67 4.63772 675.024 1.86783L884.141 -54.0758C894.495 -56.8457 905.54 -53.8814 913.116 -46.2997L1066.12 106.83Z" fill="white" fill-opacity="0.8"/>
<path opacity="0.480166" fill-rule="evenodd" clip-rule="evenodd" d="M404.524 816.165C412.1 823.746 415.055 834.794 412.277 845.146L349.867 1077.69C347.088 1088.05 338.999 1096.13 328.645 1098.9L96.0465 1161.12C85.6926 1163.89 74.6476 1160.93 67.0719 1153.35L-103.116 983.025C-110.692 975.443 -113.647 964.395 -110.869 954.044L-48.4585 721.495C-45.6803 711.143 -37.5907 703.06 -27.2368 700.29L205.362 638.065C215.715 635.295 226.761 638.259 234.336 645.841L404.524 816.165Z" fill="white" fill-opacity="0.8"/>
<path opacity="0.480166" fill-rule="evenodd" clip-rule="evenodd" d="M769.687 454.503C777.368 462.116 780.357 473.273 777.512 483.705L713.538 718.255C710.73 728.549 702.666 736.577 692.36 739.339L455.188 802.889C444.882 805.65 433.884 802.73 426.306 795.219L253.628 624.08C245.947 616.467 242.957 605.31 245.803 594.878L309.777 360.328C312.585 350.034 320.649 342.006 330.955 339.244L568.126 275.694C578.433 272.933 589.431 275.853 597.009 283.364L769.687 454.503Z" fill="white"/>
</g>
<defs>
<clipPath id="clip0">
<rect width="720" height="900" fill="white"/>
</clipPath>
</defs>
</svg>
