<?xml version="1.0" encoding="UTF-8" standalone="no"?>
<!-- Created with Inkscape (http://www.inkscape.org/) -->

<svg
   xmlns:dc="http://purl.org/dc/elements/1.1/"
   xmlns:cc="http://creativecommons.org/ns#"
   xmlns:rdf="http://www.w3.org/1999/02/22-rdf-syntax-ns#"
   xmlns:svg="http://www.w3.org/2000/svg"
   xmlns="http://www.w3.org/2000/svg"
   xmlns:sodipodi="http://sodipodi.sourceforge.net/DTD/sodipodi-0.dtd"
   xmlns:inkscape="http://www.inkscape.org/namespaces/inkscape"
   width="123.11568"
   height="35.451981"
   viewBox="0 0 32.574355 9.3800036"
   version="1.1"
   id="svg28335"
   inkscape:version="0.92.0 r15299"
   sodipodi:docname="uob.svg">
  <defs
     id="defs28329">
    <style
       id="style28337">
      .cls-1 {
        clip-path: url(#clip-path);
      }

      .cls-2 {
        fill: #e1091d;
      }

      .cls-3 {
        fill: #002469;
      }
    </style>
    <clipPath
       id="clip-path">
      <rect
         height="34.452"
         width="122"
         data-name="Rectangle 1"
         id="Rectangle_1"
         x="0"
         y="0" />
    </clipPath>
  </defs>
  <sodipodi:namedview
     id="base"
     pagecolor="#ffffff"
     bordercolor="#666666"
     borderopacity="1.0"
     inkscape:pageopacity="0.0"
     inkscape:pageshadow="2"
     inkscape:zoom="7.3524591"
     inkscape:cx="60.999999"
     inkscape:cy="17.225981"
     inkscape:document-units="mm"
     inkscape:current-layer="layer1"
     showgrid="false"
     fit-margin-top="0"
     fit-margin-left="0"
     fit-margin-right="0"
     fit-margin-bottom="0"
     units="px"
     inkscape:window-width="1280"
     inkscape:window-height="744"
     inkscape:window-x="-4"
     inkscape:window-y="-4"
     inkscape:window-maximized="1" />
  <metadata
     id="metadata28332">
    <rdf:RDF>
      <cc:Work
         rdf:about="">
        <dc:format>image/svg+xml</dc:format>
        <dc:type
           rdf:resource="http://purl.org/dc/dcmitype/StillImage" />
        <dc:title></dc:title>
      </cc:Work>
    </rdf:RDF>
  </metadata>
  <g
     inkscape:label="Layer 1"
     inkscape:groupmode="layer"
     id="layer1"
     transform="translate(-302.87232,-193.9039)">
    <g
       id="g28418"
       transform="translate(0.13229204,-0.13228809)">
      <path
         style="fill:#e1091d;stroke-width:0.26458332"
         inkscape:connector-curvature="0"
         id="Path_1"
         data-name="Path 1"
         class="cls-2"
         d="m 309.62846,203.0426 c 0,0.21458 0.29501,0.2413 0.45588,0.2413 h 0.13414 c 0.40217,-0.0264 0.40217,-0.18758 0.40217,-0.2413 v -8.63282 c 0.0265,-0.21484 -0.26829,-0.2413 -0.45588,-0.2413 h -0.0794 c -0.16193,0 -0.45694,0.0265 -0.45694,0.2413 z" />
      <path
         style="fill:#e1091d;stroke-width:0.26458332"
         inkscape:connector-curvature="0"
         id="Path_2"
         data-name="Path 2"
         class="cls-2"
         d="m 304.23968,203.0426 c 0,0.21458 0.29502,0.2413 0.45588,0.2413 h 0.13415 c 0.40216,-0.0264 0.40216,-0.18758 0.40216,-0.2413 v -8.63282 c -2.6e-4,-0.21484 -0.26829,-0.2413 -0.45587,-0.2413 h -0.0794 c -0.18891,0 -0.45694,0.0265 -0.45694,0.2413 z" />
      <path
         style="fill:#e1091d;stroke-width:0.26458332"
         inkscape:connector-curvature="0"
         id="Path_3"
         data-name="Path 3"
         class="cls-2"
         d="m 306.03594,203.0426 c 0,0.21458 0.29501,0.2413 0.45588,0.2413 h 0.16087 c 0.40216,-0.0264 0.40216,-0.18758 0.40216,-0.2413 v -8.63282 c -2.6e-4,-0.21484 -0.29501,-0.2413 -0.45587,-0.2413 h -0.10716 c -0.16087,0 -0.45588,0.0265 -0.45588,0.2413 z" />
      <path
         style="fill:#e1091d;stroke-width:0.26458332"
         inkscape:connector-curvature="0"
         id="Path_4"
         data-name="Path 4"
         class="cls-2"
         d="m 307.8322,203.0426 c 0,0.21458 0.29501,0.2413 0.45588,0.2413 h 0.13414 c 0.40217,-0.0264 0.40217,-0.18758 0.40217,-0.2413 v -8.63282 c -2.7e-4,-0.21484 -0.29501,-0.2413 -0.45588,-0.2413 h -0.0794 c -0.16193,0 -0.45694,0.0265 -0.45694,0.2413 z" />
      <path
         style="fill:#e1091d;stroke-width:0.26458332"
         inkscape:connector-curvature="0"
         id="Path_5"
         data-name="Path 5"
         class="cls-2"
         d="m 303.11362,198.21687 c -0.21484,0 -0.2413,0.29501 -0.2413,0.45588 v 0.16086 c 0.0265,0.40217 0.18759,0.40217 0.2413,0.40217 h 8.63282 c 0.21458,0 0.2413,-0.29501 0.2413,-0.45588 v -0.10715 c 0,-0.16087 -0.0264,-0.45588 -0.2413,-0.45588 z" />
      <path
         style="fill:#002469;stroke-width:0.26458332"
         inkscape:connector-curvature="0"
         id="Path_6"
         data-name="Path 6"
         class="cls-3"
         d="m 324.56154,201.46066 v 0 c -1.42081,0 -1.95792,-0.77761 -1.95792,-2.78818 0,-1.98437 0.50933,-2.70775 1.93146,-2.70775 h 0.0529 c 1.39409,0 1.93146,0.7239 1.93146,2.70775 -0.0265,2.01083 -0.56304,2.78818 -1.95792,2.78818 m 0,-6.62199 c -2.413,0 -3.51208,1.2065 -3.51208,3.86053 0,2.62732 1.12607,3.88753 3.43165,3.91425 h 0.10715 c 2.33257,0 3.45837,-1.28693 3.45837,-3.91425 2.7e-4,-2.68102 -1.07209,-3.86053 -3.48509,-3.86053" />
      <path
         style="fill:#002469;stroke-width:0.26458332"
         inkscape:connector-curvature="0"
         id="Path_7"
         data-name="Path 7"
         class="cls-3"
         d="m 314.82964,202.02369 c 0.4826,0.37544 1.15279,0.53631 2.22514,0.53631 h 0.0529 c 1.07236,0 1.74255,-0.16087 2.25213,-0.53631 0.69692,-0.53605 0.83185,-1.17819 0.83185,-2.38601 v -4.36986 a 0.27040416,0.27040416 0 0 0 -0.0794,-0.21458 c -0.10848,-0.10795 -0.34978,-0.16087 -0.75195,-0.16087 a 1.0943167,1.0943167 0 0 0 -0.7239,0.16087 0.27040416,0.27040416 0 0 0 -0.0794,0.21458 v 4.55771 c 0,0.75062 0,0.91149 -0.34846,1.2065 a 1.9579166,1.9579166 0 0 1 -1.15279,0.29501 1.7798521,1.7798521 0 0 1 -1.15305,-0.29633 c -0.34846,-0.26802 -0.34846,-0.42889 -0.34846,-1.17951 v -4.58338 a 0.27040416,0.27040416 0 0 0 -0.0794,-0.21458 1.0943167,1.0943167 0 0 0 -0.72576,-0.16087 1.0943167,1.0943167 0 0 0 -0.7239,0.16087 0.27040416,0.27040416 0 0 0 -0.0794,0.21458 v 4.36986 c 0.0529,1.2065 0.16087,1.84996 0.88477,2.38601" />
      <path
         style="fill:#002469;stroke-width:0.26458332"
         inkscape:connector-curvature="0"
         id="Path_8"
         data-name="Path 8"
         class="cls-3"
         d="m 332.20217,201.4342 h -1.71582 v -2.27885 h 1.82298 c 1.01891,0 1.2065,0.42889 1.2065,1.15279 0.0265,0.9652 -0.32173,1.12606 -1.31366,1.12606 m -1.71582,-5.44248 h 1.74255 c 0.91149,0 0.9652,0.45588 0.9652,1.04564 0,0.7239 -0.32174,1.01864 -1.09908,1.01864 h -1.60867 z m 3.6195,-0.64346 c -0.40217,-0.29501 -0.88477,-0.40217 -1.82298,-0.40217 h -3.11018 a 0.26855208,0.26855208 0 0 0 -0.26802,0.26802 v 7.07787 a 0.26855208,0.26855208 0 0 0 0.26802,0.26803 h 3.27078 c 0.88477,0 1.50125,-0.0265 2.0373,-0.42889 0.58975,-0.45588 0.69717,-1.17952 0.69717,-1.71583 a 1.9087041,1.9087041 0 0 0 -0.67019,-1.58168 2.6093208,2.6093208 0 0 0 -0.61674,-0.29501 l -0.13414,-0.0529 0.13414,-0.0529 c 0.64347,-0.29501 0.85804,-0.7239 0.85804,-1.55496 -0.0265,-0.42889 -0.10715,-1.15279 -0.64346,-1.52823" />
    </g>
  </g>
</svg>
