<svg width="48" height="48" viewBox="0 0 48 48" fill="none" xmlns="http://www.w3.org/2000/svg">
<rect width="48" height="48" rx="2" fill="#D1DCFF"/>
<circle cx="24" cy="18" r="9" fill="#4573FF"/>
<path fill-rule="evenodd" clip-rule="evenodd" d="M42 48C42 38.0589 33.9411 30 24 30C14.0589 30 6 38.0589 6 48H42Z" fill="#4573FF"/>
<rect x="38.0728" y="22" width="11.8038" height="11.8038" rx="2" transform="rotate(36.5917 38.0728 22)" fill="#EF7F88"/>
<rect x="39.8784" y="26.3824" width="6" height="2" rx="1" transform="rotate(36.5917 39.8784 26.3824)" fill="#4573FF"/>
<path d="M32.6157 32.6501L35.7748 34.9956L29.0365 44.0715C28.8719 44.2932 28.5587 44.3395 28.337 44.1749L25.9808 42.4256C25.7591 42.2609 25.7128 41.9478 25.8774 41.7261L32.6157 32.6501Z" fill="#EF7F88"/>
<path d="M31.6757 42.9783C31.8974 43.1429 31.9437 43.4561 31.7791 43.6778L31.4214 44.1596C31.2568 44.3813 30.9436 44.4276 30.7219 44.263L29.5176 43.3688L30.4713 42.0842L31.6757 42.9783Z" fill="#EF7F88"/>
<path d="M33.435 40.6091C33.6567 40.7737 33.703 41.0868 33.5384 41.3086L33.1807 41.7903C33.0161 42.012 32.7029 42.0583 32.4812 41.8937L31.2768 40.9995L32.2306 39.7149L33.435 40.6091Z" fill="#EF7F88"/>
</svg>
