<svg xmlns="http://www.w3.org/2000/svg" width="105" height="34" viewBox="0 0 105 34">
    <g fill="none" fill-rule="nonzero">
        <path fill="#00579F" d="M45.457 33.474h-8.498L42.274.596h8.497zM76.261 1.4C74.585.734 71.927 0 68.64 0c-8.391 0-14.3 4.477-14.337 10.877-.07 4.722 4.231 7.345 7.448 8.92 3.287 1.609 4.405 2.659 4.405 4.093-.034 2.202-2.657 3.218-5.103 3.218-3.393 0-5.21-.524-7.973-1.75l-1.12-.525-1.188 7.38c1.993.91 5.665 1.715 9.477 1.75 8.916 0 14.72-4.407 14.79-11.227.034-3.743-2.237-6.611-7.133-8.954-2.972-1.505-4.792-2.52-4.792-4.058.034-1.4 1.54-2.833 4.894-2.833 2.763-.07 4.792.594 6.33 1.26l.769.348 1.155-7.1zM87.555 21.826c.7-1.889 3.393-9.199 3.393-9.199-.035.07.698-1.923 1.118-3.147l.594 2.833s1.609 7.87 1.958 9.513h-7.063zM98.045.596h-6.573c-2.027 0-3.567.594-4.442 2.728l-12.622 30.15h8.916l1.784-4.933h10.91c.244 1.155 1.014 4.932 1.014 4.932h7.868L98.045.596zM29.861.596l-8.322 22.42-.909-4.548c-1.539-5.246-6.364-10.946-11.749-13.78l7.623 28.75h8.986L38.847.597H29.86z"/>
        <path fill="#FAA61A" d="M13.812.596H.14L0 1.26c10.665 2.729 17.728 9.305 20.63 17.21L17.658 3.36c-.49-2.1-1.993-2.695-3.846-2.764z"/>
    </g>
</svg>
