<svg width="60" height="18" viewBox="0 0 60 18" fill="none" xmlns="http://www.w3.org/2000/svg">
<g id="xendit_white_logo copy">
<mask id="mask0" mask-type="alpha" maskUnits="userSpaceOnUse" x="0" y="0" width="60" height="18">
<rect id="Rectangle 14" width="60" height="18" fill="#C4C4C4"/>
</mask>
<g mask="url(#mask0)">
<g id="xendit_icon_blue_red">
<mask id="mask1" mask-type="alpha" maskUnits="userSpaceOnUse" x="0" y="0" width="19" height="18">
<rect id="Mask" width="18.4282" height="18" fill="white"/>
</mask>
<g mask="url(#mask1)">
<g id="xendit_icon_blue_red_2">
<path id="Fill-1_1_" d="M10.7808 13.3174L12.4745 16.1788L13.293 15.6838L13.5802 14.7362L11.7618 11.6603L10.7808 13.3174Z" fill="#D24D57"/>
<path id="Fill-2_1_" d="M5.29799 1.98537L4.49854 2.66302L6.64488 6.28684L7.6232 4.63243L5.66385 1.32096L5.29799 1.98537Z" fill="#D24D57"/>
<path id="Fill-3_1_" d="M7.14118 10.8423L4.75635 14.8738L5.05445 15.9459L5.78616 16.4515L9.22519 10.6359L10.2062 8.97617L14.0111 2.53323L13.3797 1.67558L13.1656 1.37647L12.2387 2.21558L7.14118 10.8423Z" fill="#D24D57"/>
<path id="Fill-4_1_" d="M5.22237 0.569149L4.24134 2.2315H4.24405L1.23591 7.32974L1.2332 7.32709L0.254883 8.9868L5.22237 17.4044L6.2034 15.7474L2.21424 8.98944L6.2034 2.2315H9.05707L10.0381 0.569149H5.22237Z" fill="white"/>
<path id="Fill-5_1_" d="M12.228 2.23415L16.2144 8.98944L12.228 15.7447H9.37432L8.396 17.4044H13.209L14.19 15.7447L17.1955 10.6491L18.1765 8.99209L17.1982 7.32179L14.1873 2.2315L13.2117 0.569145L12.228 2.23415Z" fill="white"/>
</g>
</g>
</g>
<g id="xendit_logotype">
<path id="Fill 1" fill-rule="evenodd" clip-rule="evenodd" d="M26.5994 5.97094L24.782 8.55988L22.958 5.97094H21.5066L24.0404 9.44638L21.3765 13.0867H22.8218L24.7816 10.3446L26.7227 13.0867H28.168L25.5042 9.44638L28.0381 5.97094H26.5994Z" fill="white"/>
<path id="Fill 2" fill-rule="evenodd" clip-rule="evenodd" d="M32.1031 6.90399C32.6335 6.90399 33.0457 7.07103 33.3282 7.40025C33.6012 7.71831 33.7462 8.18037 33.7593 8.77437H30.2424C30.3112 8.20215 30.5012 7.74657 30.8075 7.41879C31.1268 7.07733 31.5626 6.90399 32.1031 6.90399ZM32.1161 5.84425C31.1418 5.84425 30.354 6.18733 29.7748 6.86359C29.1994 7.53553 28.9077 8.45119 28.9077 9.58555C28.9077 10.7138 29.2225 11.6098 29.8433 12.2483C30.4653 12.8886 31.3238 13.2131 32.3947 13.2131C32.8783 13.2131 33.2975 13.1773 33.6414 13.1067C33.9849 13.0362 34.3536 12.9183 34.7377 12.7564L34.7933 12.733V11.6008L34.6649 11.6545C33.9325 11.9605 33.182 12.1155 32.4336 12.1155C31.7381 12.1155 31.193 11.9122 30.8136 11.5116C30.4467 11.124 30.2436 10.5514 30.2097 9.80857H35.0978V9.05401C35.0978 8.09929 34.8283 7.31809 34.2972 6.73219C33.763 6.14287 33.0292 5.84425 32.1161 5.84425Z" fill="white"/>
<path id="Fill 5" fill-rule="evenodd" clip-rule="evenodd" d="M40.1947 5.84431C39.6949 5.84431 39.2346 5.94205 38.8264 6.13483C38.4652 6.30565 38.1711 6.54091 37.9498 6.83611L37.7904 5.97085H36.7466V13.0864H38.0063V9.35791C38.0063 8.48113 38.1733 7.84735 38.5022 7.47385C38.8279 7.10413 39.3538 6.91657 40.0651 6.91657C40.5973 6.91657 40.9908 7.04743 41.235 7.30519C41.4808 7.56547 41.6055 7.97065 41.6055 8.50993V13.0864H42.8653V8.47195C42.8653 7.56475 42.6377 6.89227 42.189 6.47359C41.7414 6.05599 41.0704 5.84431 40.1947 5.84431Z" fill="white"/>
<path id="Fill 7" fill-rule="evenodd" clip-rule="evenodd" d="M47.6646 12.1535C47.0467 12.1535 46.5923 11.9443 46.2751 11.5138C45.9558 11.0801 45.7938 10.4231 45.7938 9.5604C45.7938 8.70954 45.9572 8.04426 46.2797 7.58292C46.5991 7.1259 47.0478 6.90396 47.6517 6.90396C48.3525 6.90396 48.8676 7.10412 49.1824 7.49904C49.5026 7.90062 49.665 8.58984 49.665 9.54762V9.7692C49.665 10.6127 49.5054 11.2288 49.1906 11.6009C48.8801 11.9675 48.3667 12.1535 47.6646 12.1535ZM49.6652 5.97717L49.6913 6.46749L49.7199 6.78249C49.1947 6.15969 48.4583 5.84433 47.5286 5.84433C46.5792 5.84433 45.8269 6.17499 45.2927 6.82731C44.7634 7.47351 44.4951 8.38881 44.4951 9.54765C44.4951 10.7069 44.7625 11.616 45.2899 12.2496C45.8219 12.889 46.5751 13.2132 47.5286 13.2132C48.4902 13.2132 49.236 12.8832 49.7477 12.2322L49.8787 13.0866H50.9247V3.05991H49.665L49.6652 5.97717Z" fill="white"/>
<path id="Fill 10" fill-rule="evenodd" clip-rule="evenodd" d="M53.6577 3.39534C53.4527 3.39534 53.2788 3.45996 53.1407 3.58758C53.0012 3.71664 52.9307 3.91644 52.9307 4.1814C52.9307 4.4415 53.0009 4.64112 53.1395 4.77396C53.2777 4.90662 53.452 4.97394 53.6577 4.97394C53.8539 4.97394 54.0257 4.90698 54.1681 4.77522C54.3119 4.64202 54.3847 4.44222 54.3847 4.1814C54.3847 3.92022 54.3117 3.7215 54.1676 3.59028C54.0251 3.46086 53.8535 3.39534 53.6577 3.39534Z" fill="white"/>
<path id="Fill 12" fill-rule="evenodd" clip-rule="evenodd" d="M53.021 13.0866H54.2807V5.971H53.021V13.0866Z" fill="white"/>
<path id="Fill 14" fill-rule="evenodd" clip-rule="evenodd" d="M59.7084 12.0431C59.6089 12.0715 59.4711 12.0993 59.2988 12.1261C59.1272 12.1525 58.9468 12.1662 58.7625 12.1662C58.4328 12.1662 58.182 12.0663 57.9957 11.8609C57.809 11.6556 57.7143 11.3519 57.7143 10.959V6.96728H59.7746V5.97098H57.7143V4.36358H56.9317L56.4708 5.86874L55.4375 6.31226V6.96728H56.4546V11.0032C56.4546 12.4695 57.1788 13.2131 58.607 13.2131C58.7913 13.2131 59.0023 13.1946 59.2339 13.158C59.4716 13.1206 59.6483 13.0736 59.7742 13.0144L59.8264 12.9899V12.0094L59.7084 12.0431Z" fill="white"/>
</g>
</g>
</g>
</svg>
