<svg width="100" height="100" viewBox="0 0 100 100" fill="none" xmlns="http://www.w3.org/2000/svg">
<path fill-rule="evenodd" clip-rule="evenodd" d="M50 100C77.6142 100 100 77.6142 100 50C100 22.3858 77.6142 0 50 0C22.3858 0 0 22.3858 0 50C0 77.6142 22.3858 100 50 100Z" fill="#59BED4"/>
<path fill-rule="evenodd" clip-rule="evenodd" d="M70.726 46.7179L80.6714 56.6305C81.1095 57.0672 81.1095 57.7549 80.6714 58.1698L78.1522 60.6807C77.725 61.1064 77.035 61.1064 76.6078 60.6807L66.6296 50.7353C64.0885 51.6851 61.1202 51.1502 59.0829 49.1196C56.5637 46.6197 56.3337 42.7005 58.371 39.9276L62.566 44.1088L64.1213 42.5695L59.9153 38.3664C62.7084 36.3359 66.6296 36.5651 69.1488 39.076C71.2189 41.1503 71.7447 44.1633 70.726 46.7179ZM67.0233 48.0498L77.3849 58.3772L78.3488 57.4056L67.9981 47.0891C68.502 46.445 68.8306 45.7245 68.962 44.9494C69.2358 43.4319 68.7867 41.8053 67.6038 40.6262C66.5633 39.6001 65.1941 39.1197 63.836 39.1961L67.2205 42.5695L62.5764 47.1982L59.1919 43.8249C59.1152 45.1786 59.5971 46.5541 60.6377 47.5803C61.7768 48.7157 63.3431 49.1633 64.8327 48.945C65.6103 48.8358 66.3552 48.541 67.0233 48.0498Z" fill="white"/>
<path fill-rule="evenodd" clip-rule="evenodd" d="M31.0001 39C31.0001 33.475 35.4751 29 41.0001 29C46.5251 29 51.0001 33.475 51.0001 39C51.0001 44.525 46.5251 49 41.0001 49C35.4751 49 31.0001 44.525 31.0001 39ZM48.1421 39C48.1421 35.0714 44.9278 31.8571 40.9993 31.8571C37.0707 31.8571 33.8564 35.0714 33.8564 39C33.8564 42.9286 37.0707 46.1429 40.9993 46.1429C44.9278 46.1429 48.1421 42.9286 48.1421 39ZM41 51.8571C34.325 51.8571 21 55.4122 21 62.4694V70.4286H61V62.4694C61 55.4122 47.675 51.8571 41 51.8571ZM57.4285 62.3333C56.8571 59.6286 48 55.4286 40.2857 55.4286C32.5714 55.4286 25.1428 59.6286 24.5714 62.3714V66.8571H57.4285V62.3333Z" fill="white"/>
</svg>
