<svg width="100" height="100" viewBox="0 0 100 100" fill="none" xmlns="http://www.w3.org/2000/svg">
<path fill-rule="evenodd" clip-rule="evenodd" d="M50 100C77.6142 100 100 77.6142 100 50C100 22.3858 77.6142 0 50 0C22.3858 0 0 22.3858 0 50C0 77.6142 22.3858 100 50 100Z" fill="#FC7839"/>
<line x1="35.3536" y1="42.3536" x2="27.3536" y2="50.3536" stroke="white"/>
<line y1="-0.5" x2="11.3137" y2="-0.5" transform="matrix(0.707107 0.707107 0.707107 -0.707107 65 42)" stroke="white"/>
<line x1="49.5" y1="42" x2="49.5" y2="51" stroke="white"/>
<path fill-rule="evenodd" clip-rule="evenodd" d="M43 17C43 13.1325 46.1325 10 50 10C53.8675 10 57 13.1325 57 17C57 20.8675 53.8675 24 50 24C46.1325 24 43 20.8675 43 17ZM55 17C55 14.25 52.75 12 50 12C47.25 12 45 14.25 45 17C45 19.75 47.25 22 50 22C52.75 22 55 19.75 55 17ZM50 26C45.3275 26 36 28.4886 36 33.4286V39H64V33.4286C64 28.4886 54.6725 26 50 26ZM61.5 33.3333C61.1 31.44 54.9 28.5 49.5 28.5C44.1 28.5 38.9 31.44 38.5 33.36V36.5H61.5V33.3333Z" fill="white"/>
<path fill-rule="evenodd" clip-rule="evenodd" d="M45 59.5C45 57.0138 47.0138 55 49.5 55C51.9862 55 54 57.0138 54 59.5C54 61.9862 51.9862 64 49.5 64C47.0138 64 45 61.9862 45 59.5ZM52.5 59.5C52.5 57.85 51.15 56.5 49.5 56.5C47.85 56.5 46.5 57.85 46.5 59.5C46.5 61.15 47.85 62.5 49.5 62.5C51.15 62.5 52.5 61.15 52.5 59.5ZM50 65.25C46.6625 65.25 40 66.925 40 70.25V74H60V70.25C60 66.925 53.3375 65.25 50 65.25ZM58 70.1667C57.7333 69.22 53.6 67.5 50 67.5C46.4 67.5 42.2667 69.22 42 70.18V72H58V70.1667Z" fill="white"/>
<path fill-rule="evenodd" clip-rule="evenodd" d="M20 59.5C20 57.0138 22.0138 55 24.5 55C26.9862 55 29 57.0138 29 59.5C29 61.9862 26.9862 64 24.5 64C22.0138 64 20 61.9862 20 59.5ZM27.5 59.5C27.5 57.85 26.15 56.5 24.5 56.5C22.85 56.5 21.5 57.85 21.5 59.5C21.5 61.15 22.85 62.5 24.5 62.5C26.15 62.5 27.5 61.15 27.5 59.5ZM25 65.25C21.6625 65.25 15 66.925 15 70.25V74H35V70.25C35 66.925 28.3375 65.25 25 65.25ZM33 70.1667C32.7333 69.22 28.6 67.5 25 67.5C21.4 67.5 17.2667 69.22 17 70.18V72H33V70.1667Z" fill="white"/>
<path fill-rule="evenodd" clip-rule="evenodd" d="M70 59.5C70 57.0138 72.0138 55 74.5 55C76.9862 55 79 57.0138 79 59.5C79 61.9862 76.9862 64 74.5 64C72.0138 64 70 61.9862 70 59.5ZM77.5 59.5C77.5 57.85 76.15 56.5 74.5 56.5C72.85 56.5 71.5 57.85 71.5 59.5C71.5 61.15 72.85 62.5 74.5 62.5C76.15 62.5 77.5 61.15 77.5 59.5ZM75 65.25C71.6625 65.25 65 66.925 65 70.25V74H85V70.25C85 66.925 78.3375 65.25 75 65.25ZM83 70.1667C82.7333 69.22 78.6 67.5 75 67.5C71.4 67.5 67.2667 69.22 67 70.18V72H83V70.1667Z" fill="white"/>
</svg>
