<svg width="100" height="100" viewBox="0 0 100 100" fill="none" xmlns="http://www.w3.org/2000/svg">
<path fill-rule="evenodd" clip-rule="evenodd" d="M50 100C77.6142 100 100 77.6142 100 50C100 22.3858 77.6142 0 50 0C22.3858 0 0 22.3858 0 50C0 77.6142 22.3858 100 50 100Z" fill="#607CCF"/>
<path fill-rule="evenodd" clip-rule="evenodd" d="M41.499 52C46.7376 52 50.999 47.7386 50.999 42.5C50.999 37.2614 46.7376 33 41.499 33C36.2605 33 31.999 37.2614 31.999 42.5C31.999 47.7386 36.2605 52 41.499 52ZM41.499 36C45.0957 36 47.999 38.9033 47.999 42.5C47.999 46.0967 45.0957 49 41.499 49C37.9024 49 34.999 46.0967 34.999 42.5C34.999 38.9033 37.9024 36 41.499 36ZM25.999 65.65H43.134C43.053 66.082 42.999 66.541 42.999 67V68.8997H23V64.8498C23 58.5589 35.5818 55.3999 41.8997 55.3999C43.499 55.3999 46.499 55.5 47.999 56C47.561 56.292 47.2935 56.4562 47.0924 56.5795C46.605 56.8785 46.508 56.9381 45.3177 58H41.8997C37.7688 58 25.999 59.9518 25.999 65.65ZM62.1491 56.7499C57.1812 56.7499 47.2993 59.4768 47.2993 64.8498V68.8997H76.9989V64.8498C76.9989 59.4768 67.117 56.7499 62.1491 56.7499ZM68.8992 46.9501C68.8992 49.488 67.4682 51.675 65.4163 52.836C64.4443 53.376 63.3373 53.7 62.1493 53.7C60.9613 53.7 59.8543 53.376 58.8824 52.836C56.8304 51.675 55.3994 49.488 55.3994 46.9501C55.3994 43.2241 58.4234 40.2002 62.1493 40.2002C65.8753 40.2002 68.8992 43.2241 68.8992 46.9501Z" fill="white"/>
</svg>
