<svg width="32" height="32" viewBox="0 0 32 32" fill="none" xmlns="http://www.w3.org/2000/svg">
<path fill-rule="evenodd" clip-rule="evenodd" d="M8.00016 2.66663H18.6668L26.6668 10.6666V26.6666C26.6668 28.1333 25.4668 29.3333 24.0002 29.3333H7.98683C6.52016 29.3333 5.3335 28.1333 5.3335 26.6666L5.34683 5.33329C5.34683 3.86663 6.5335 2.66663 8.00016 2.66663ZM8.00016 5.33329V26.6666H24.0002V12H17.3335V5.33329H8.00016Z" fill="#FB5607"/>
<path fill-rule="evenodd" clip-rule="evenodd" d="M13.5327 14.9793L12.6344 14.2258L9.47852 18.0637L12.6344 21.9016L13.5327 21.1482L10.9952 18.0637L13.5327 14.9793ZM13.0837 18.6521H14.2503V17.4748H13.0837V18.6521ZM17.7501 17.4748H18.9167V18.6521H17.7501V17.4748ZM15.4165 18.6521H16.5832V17.4748H15.4165V18.6521ZM18.4676 14.9793L19.3659 14.2258L22.5218 18.0637L19.3659 21.9016L18.4676 21.1482L21.0051 18.0637L18.4676 14.9793Z" fill="#FB5607"/>
</svg>
