<svg width="48" height="39" viewBox="0 0 48 39" fill="none" xmlns="http://www.w3.org/2000/svg">
<path fill-rule="evenodd" clip-rule="evenodd" d="M43.2 0.599976H4.8C2.16 0.599976 0 2.75998 0 5.39998V34.2C0 36.84 2.16 39 4.8 39H43.2C45.84 39 48 36.84 48 34.2V5.39998C48 2.75998 45.84 0.599976 43.2 0.599976ZM28.512 27.7199C26.856 28.7759 24.888 29.3999 22.776 29.3999C16.824 29.3999 12 24.5759 12 18.5999C12 12.6239 16.824 7.79991 22.8 7.79991C28.776 7.79991 33.6 12.6239 33.6 18.5999C33.6 20.7119 32.976 22.6559 31.92 24.3359L37.776 30.1679L34.368 33.5759L28.512 27.7199ZM28.8 18.6C28.8 15.288 26.112 12.6 22.8 12.6C19.488 12.6 16.8 15.288 16.8 18.6C16.8 21.912 19.488 24.6 22.8 24.6C26.112 24.6 28.8 21.912 28.8 18.6ZM4.8 34.2H43.2V5.40004H4.8V34.2Z" fill="white"/>
</svg>
