<svg width="32" height="32" viewBox="0 0 32 32" fill="none" xmlns="http://www.w3.org/2000/svg">
<path fill-rule="evenodd" clip-rule="evenodd" d="M25.3333 4.00004H19.76C19.2 2.45337 17.7333 1.33337 16 1.33337C14.2667 1.33337 12.8 2.45337 12.24 4.00004H6.66667C5.2 4.00004 4 5.20004 4 6.66671V28C4 29.4667 5.2 30.6667 6.66667 30.6667H25.3333C26.8 30.6667 28 29.4667 28 28V6.66671C28 5.20004 26.8 4.00004 25.3333 4.00004ZM16 4.00004C16.7333 4.00004 17.3333 4.60004 17.3333 5.33337C17.3333 6.06671 16.7333 6.66671 16 6.66671C15.2667 6.66671 14.6667 6.06671 14.6667 5.33337C14.6667 4.60004 15.2667 4.00004 16 4.00004ZM6.66667 6.66671V28H25.3333V6.66671H22.6667V10.6667H9.33333V6.66671H6.66667Z" fill="#8338EC"/>
</svg>
