<svg width="40" height="40" viewBox="0 0 40 40" fill="none" xmlns="http://www.w3.org/2000/svg">
<path fill-rule="evenodd" clip-rule="evenodd" d="M2.49988 7.50002L5.99457 9.32109C8.85186 4.76316 14.1668 1.66669 20.0002 1.66669C29.1668 1.66669 35.0002 9.16669 35.8335 13.3334L32.3508 13.3334C31.6668 11.6667 28.3335 5.00002 20.0002 5.00002C15.0002 5.00002 11.6668 7.50002 8.85186 10.9247L11.6665 12.5L4.16661 16.6667L2.49988 7.50002ZM37.1802 32.1781L33.708 30.3146C30.7954 34.8374 25.4431 37.869 19.6102 37.798C10.4443 37.6864 4.70263 30.116 3.92007 25.9395L7.40252 25.9819C8.06614 27.6568 11.3181 34.3635 19.6508 34.4649C24.6504 34.5258 28.014 32.0665 30.8704 28.6763L28.0751 27.0669L35.6252 22.9918L37.1802 32.1781Z" fill="#2C4DB1"/>
<path d="M20.3831 18.9815C18.1532 18.4352 17.4361 17.8704 17.4361 16.9908C17.4361 15.9815 18.4283 15.2778 20.0884 15.2778C21.8369 15.2778 22.4853 16.0648 22.5442 17.2222H24.7151C24.6464 15.6296 23.6149 14.1667 21.5619 13.6945V11.6667H18.6149V13.6667C16.7092 14.0556 15.1768 15.2222 15.1768 17.0093C15.1768 19.1482 17.053 20.213 19.7937 20.8334C22.2495 21.3889 22.7407 22.2037 22.7407 23.0648C22.7407 23.7037 22.2593 24.7222 20.0884 24.7222C18.0648 24.7222 17.2692 23.8704 17.1611 22.7778H15C15.1179 24.8056 16.7289 25.9445 18.6149 26.3241V28.3334H21.5619V26.3426C23.4774 26 25 24.9537 25 23.0556C25 20.4259 22.613 19.5278 20.3831 18.9815Z" fill="#2C4DB1"/>
</svg>
