<svg width="57" height="42" viewBox="0 0 57 42" fill="none" xmlns="http://www.w3.org/2000/svg">
<path fill-rule="evenodd" clip-rule="evenodd" d="M20.811 7.00006C16.9784 7.00006 13.8741 10.1326 13.8741 14.0001C13.8741 17.8676 16.9784 21.0001 20.811 21.0001C24.6437 21.0001 27.748 17.8676 27.748 14.0001C27.748 10.1326 24.6437 7.00006 20.811 7.00006ZM24.2794 14C24.2794 12.075 22.7186 10.5 20.8109 10.5C18.9032 10.5 17.3424 12.075 17.3424 14C17.3424 15.925 18.9032 17.5 20.8109 17.5C22.7186 17.5 24.2794 15.925 24.2794 14ZM31.2162 29.75C30.8693 28.5075 25.4932 26.25 20.8108 26.25C16.1283 26.25 10.7522 28.5075 10.4054 29.7675V31.5H31.2162V29.75ZM6.93701 29.7501C6.93701 25.0951 16.1805 22.7501 20.8109 22.7501C25.4413 22.7501 34.6848 25.0951 34.6848 29.7501V35.0001H6.93701V29.7501Z" fill="white"/>
<path fill-rule="evenodd" clip-rule="evenodd" d="M40.1251 10.8086L38.547 9.48499L33.0029 16.2273L38.547 22.9695L40.1251 21.6459L35.6673 16.2273L40.1251 10.8086ZM39.3359 17.2613H41.3855V15.1931H39.3359V17.2613ZM47.5343 15.1931H49.5838V17.2613H47.5343V15.1931ZM43.4352 17.2613H45.4847V15.1931H43.4352V17.2613ZM48.7948 10.8086L50.373 9.48499L55.917 16.2273L50.373 22.9695L48.7948 21.6459L53.2526 16.2273L48.7948 10.8086Z" fill="white"/>
</svg>
