<svg width="67" height="60" viewBox="0 0 67 60" fill="none" xmlns="http://www.w3.org/2000/svg">
<path fill-rule="evenodd" clip-rule="evenodd" d="M20.5543 31.9734C24.9621 31.9734 28.5477 28.3878 28.5477 23.9801C28.5477 19.5723 24.9621 15.9867 20.5543 15.9867C16.1466 15.9867 12.561 19.5723 12.561 23.9801C12.561 28.3878 16.1466 31.9734 20.5543 31.9734ZM4.56787 43.6943C4.56787 38.5522 14.852 35.9701 20.0161 35.9701C25.1803 35.9701 35.4644 38.5522 35.4644 43.6943V47.5563H4.56787V43.6943ZM20.5545 40.5378C16.4665 40.5378 11.8303 42.0679 9.91192 43.3925H31.1971C29.2787 42.0679 24.6426 40.5378 20.5545 40.5378ZM23.7494 23.8647C23.7494 22.0329 22.2708 20.5543 20.4391 20.5543C18.6073 20.5543 17.1287 22.0329 17.1287 23.8647C17.1287 25.6964 18.6073 27.175 20.4391 27.175C22.2708 27.175 23.7494 25.6964 23.7494 23.8647ZM36.6325 36.1072C39.1925 37.9609 40.9581 40.4327 40.9581 43.6989V47.5609H49.7856V43.6989C49.7856 39.2409 42.0615 36.703 36.6325 36.1072ZM41.8664 23.7108C41.8664 27.9701 38.4016 31.435 34.1423 31.435C32.9506 31.435 31.8471 31.1481 30.8319 30.6626C32.2223 28.6984 33.0388 26.2929 33.0388 23.7108C33.0388 21.1288 32.2223 18.7232 30.8319 16.7591C31.8471 16.2736 32.9506 15.9867 34.1423 15.9867C38.4016 15.9867 41.8664 19.4515 41.8664 23.7108Z" fill="white"/>
<path d="M61.4727 12.3707H55.7631V18.0802H53.8599V12.3707H48.1504V10.4675H53.8599V4.75793H55.7631V10.4675H61.4727V12.3707Z" fill="white"/>
</svg>
