<svg width="40" height="40" viewBox="0 0 40 40" fill="none" xmlns="http://www.w3.org/2000/svg">
<path fill-rule="evenodd" clip-rule="evenodd" d="M40 0V10.9091H36.3636V29.0909H40V40H29.0909V36.3636H10.9091V40H0V29.0909H3.63636V10.9091H0V0H10.9091V3.63636H29.0909V0H40ZM8 3H3V8H8V3ZM8 37.0909H3V32.0909H8V37.0909ZM10.9091 32.7273H29.0909V29.0909H32.7273V10.9091H29.0909V7.27273H10.9091V10.9091H7.27273V29.0909H10.9091V32.7273ZM37.0908 37.0909H32.0908V32.0909H37.0908V37.0909ZM32 3V8H37V3H32Z" fill="#2C4DB1"/>
<path d="M20.4179 18.8889C17.9853 18.293 17.203 17.6768 17.203 16.7172C17.203 15.6162 18.2854 14.8485 20.0964 14.8485C22.0039 14.8485 22.7112 15.7071 22.7754 16.9697H25.1437C25.0687 15.2324 23.9435 13.6364 21.7038 13.1212V10.9091H18.489V13.0909C16.41 13.5152 14.7383 14.7879 14.7383 16.7374C14.7383 19.0707 16.7851 20.2324 19.7749 20.9091C22.454 21.5152 22.9898 22.4041 22.9898 23.3435C22.9898 24.0404 22.4647 25.1515 20.0964 25.1515C17.8889 25.1515 17.0209 24.2223 16.903 23.0303H14.5454C14.674 25.2425 16.4315 26.4849 18.489 26.899V29.0909H21.7038V26.9192C23.7935 26.5455 25.4545 25.4041 25.4545 23.3334C25.4545 20.4647 22.8505 19.4849 20.4179 18.8889Z" fill="#2C4DB1"/>
</svg>
