<svg width="10" height="10" viewBox="0 0 10 10" fill="none" xmlns="http://www.w3.org/2000/svg">
<path d="M5.75 2.99219C6.67188 3.02344 7.4375 3.34375 8.04688 3.95312C8.65625 4.5625 8.97656 5.32812 9.00781 6.25C8.97656 7.17188 8.65625 7.9375 8.04688 8.54688C7.4375 9.15625 6.67188 9.47656 5.75 9.50781H3.99219V8.5H5.75C6.39062 8.48438 6.92188 8.26562 7.34375 7.84375C7.76562 7.42188 7.97656 6.89062 7.97656 6.25C7.97656 5.60938 7.76562 5.07812 7.34375 4.65625C6.92188 4.23438 6.39062 4.01562 5.75 4H2.91406L4.46094 5.54688L3.75781 6.25L0.992188 3.50781L3.75781 0.742188L4.46094 1.44531L2.91406 2.99219H5.75ZM2 8.5H3.00781V9.50781H2V8.5Z" fill="#777777"/>
</svg>
