<svg width="260" height="50" viewBox="0 0 260 50" fill="none" xmlns="http://www.w3.org/2000/svg">
<path fill-rule="evenodd" clip-rule="evenodd" d="M95.1149 34.4984H92V17.3819H95.1149V34.4984ZM95.1149 12.9999H92V9.82022H95.1149V12.9999ZM102.689 17.3819L102.91 19.9288C103.479 19.0218 104.193 18.3179 105.052 17.8169C105.912 17.316 106.889 17.0655 107.985 17.0655C109.83 17.0655 111.258 17.606 112.27 18.687C113.282 19.768 113.788 21.4369 113.788 23.6938V34.4984H110.673V23.7571C110.673 22.249 110.376 21.1785 109.78 20.5458C109.185 19.913 108.275 19.5966 107.053 19.5966C106.157 19.5966 105.363 19.8128 104.673 20.2452C103.983 20.6776 103.432 21.2682 103.021 22.017V34.4984H99.9058V17.3819H102.689ZM128.256 29.9583C128.256 29.2728 127.995 28.7085 127.473 28.2656C126.951 27.8227 125.963 27.4377 124.508 27.1108C122.432 26.6573 120.869 26.043 119.82 25.2678C118.771 24.4927 118.247 23.4354 118.247 22.0961C118.247 20.7039 118.837 19.5175 120.018 18.5367C121.198 17.5559 122.737 17.0655 124.635 17.0655C126.627 17.0655 128.211 17.577 129.386 18.6C130.561 19.623 131.123 20.8674 131.07 22.3333L131.038 22.4283H128.066C128.066 21.6795 127.752 21.0072 127.125 20.4113C126.498 19.8154 125.668 19.5175 124.635 19.5175C123.528 19.5175 122.706 19.7601 122.168 20.2452C121.631 20.7303 121.362 21.3156 121.362 22.0011C121.362 22.6761 121.599 23.2087 122.073 23.5989C122.548 23.9891 123.512 24.3371 124.967 24.643C127.128 25.107 128.735 25.7371 129.789 26.5334C130.843 27.3296 131.37 28.3974 131.37 29.7368C131.37 31.2555 130.756 32.4841 129.528 33.4227C128.3 34.3613 126.696 34.8306 124.714 34.8306C122.532 34.8306 120.814 34.277 119.559 33.1696C118.305 32.0622 117.709 30.7703 117.773 29.2939L117.804 29.1989H120.777C120.829 30.3063 121.241 31.1157 122.01 31.6272C122.78 32.1387 123.681 32.3945 124.714 32.3945C125.821 32.3945 126.688 32.1704 127.315 31.7221C127.942 31.2739 128.256 30.686 128.256 29.9583ZM139.355 13.253V17.3819H142.597V19.6915H139.355V30.0848C139.355 30.8864 139.521 31.4506 139.853 31.7775C140.185 32.1045 140.626 32.2679 141.174 32.2679C141.353 32.2679 141.55 32.2468 141.767 32.2046C141.983 32.1625 142.175 32.1097 142.344 32.0464L142.755 34.1821C142.523 34.3719 142.183 34.5274 141.735 34.6487C141.287 34.77 140.836 34.8307 140.383 34.8307C139.118 34.8307 138.111 34.4484 137.363 33.6838C136.615 32.9191 136.24 31.7195 136.24 30.0848V19.6915H133.521V17.3819H136.24V13.253H139.355ZM156.954 34.4984C156.848 33.9817 156.767 33.5255 156.709 33.1301C156.651 32.7346 156.616 32.3365 156.606 31.9357C156.026 32.7583 155.27 33.4464 154.337 34.0001C153.404 34.5538 152.4 34.8306 151.325 34.8306C149.543 34.8306 148.186 34.3745 147.253 33.4623C146.32 32.55 145.854 31.2924 145.854 29.6893C145.854 28.0547 146.515 26.776 147.838 25.8532C149.161 24.9304 150.956 24.469 153.222 24.469H156.606V22.7763C156.606 21.7744 156.3 20.9808 155.689 20.3955C155.077 19.8102 154.213 19.5175 153.096 19.5175C152.094 19.5175 151.28 19.7732 150.653 20.2847C150.026 20.7962 149.712 21.4105 149.712 22.1277H146.739L146.708 22.0328C146.645 20.7883 147.232 19.6493 148.471 18.6158C149.709 17.5823 151.309 17.0655 153.27 17.0655C155.209 17.0655 156.769 17.5585 157.95 18.5446C159.13 19.5307 159.721 20.9518 159.721 22.8079V31.0498C159.721 31.6615 159.752 32.2521 159.816 32.8216C159.879 33.3911 159.995 33.95 160.163 34.4984H156.954ZM151.783 32.2204C152.911 32.2204 153.928 31.9304 154.835 31.3504C155.741 30.7703 156.332 30.1059 156.606 29.3571V26.5729H153.111C151.857 26.5729 150.853 26.8893 150.099 27.5221C149.346 28.1549 148.969 28.8984 148.969 29.7526C148.969 30.512 149.206 31.1131 149.68 31.556C150.155 31.999 150.856 32.2204 151.783 32.2204ZM167.025 17.3819L167.246 19.6282C167.805 18.8162 168.514 18.186 169.373 17.7378C170.232 17.2896 171.231 17.0655 172.369 17.0655C173.508 17.0655 174.486 17.3292 175.302 17.8565C176.119 18.3838 176.733 19.1747 177.144 20.2294C177.682 19.2591 178.394 18.4892 179.279 17.9197C180.164 17.3502 181.197 17.0655 182.378 17.0655C184.117 17.0655 185.493 17.664 186.505 18.861C187.517 20.058 188.023 21.8588 188.023 24.2633V34.4984H184.908V24.2317C184.908 22.5443 184.618 21.3499 184.038 20.6486C183.459 19.9473 182.594 19.5966 181.445 19.5966C180.381 19.5966 179.519 19.9657 178.86 20.704C178.201 21.4422 177.814 22.3755 177.698 23.504V34.4984H174.567V24.2317C174.567 22.6286 174.269 21.4554 173.674 20.7119C173.078 19.9683 172.222 19.5966 171.104 19.5966C170.156 19.5966 169.376 19.7917 168.764 20.1819C168.153 20.5721 167.684 21.1205 167.357 21.8271V34.4984H164.242V17.3819H167.025ZM191.818 25.782C191.818 23.2509 192.503 21.1654 193.873 19.5254C195.244 17.8855 197.104 17.0655 199.455 17.0655C201.826 17.0655 203.7 17.8828 205.076 19.5175C206.451 21.1522 207.139 23.2403 207.139 25.782V26.13C207.139 28.6822 206.454 30.7703 205.084 32.3945C203.713 34.0186 201.848 34.8306 199.486 34.8306C197.125 34.8306 195.257 34.016 193.881 32.3865C192.506 30.7571 191.818 28.6716 191.818 26.13V25.782ZM194.933 26.13C194.933 27.944 195.315 29.4415 196.079 30.6227C196.843 31.8039 197.979 32.3945 199.486 32.3945C200.973 32.3945 202.1 31.8039 202.87 30.6227C203.639 29.4415 204.024 27.944 204.024 26.13V25.782C204.024 23.9891 203.637 22.4968 202.862 21.3051C202.087 20.1134 200.952 19.5175 199.455 19.5175C197.968 19.5175 196.843 20.1134 196.079 21.3051C195.315 22.4968 194.933 23.9891 194.933 25.782V26.13ZM213.732 17.3819L213.954 19.9288C214.523 19.0218 215.237 18.3179 216.096 17.8169C216.955 17.316 217.933 17.0655 219.029 17.0655C220.874 17.0655 222.302 17.606 223.314 18.687C224.326 19.768 224.832 21.4369 224.832 23.6938V34.4984H221.717V23.7571C221.717 22.249 221.419 21.1785 220.824 20.5458C220.228 19.913 219.319 19.5966 218.096 19.5966C217.2 19.5966 216.407 19.8128 215.717 20.2452C215.026 20.6776 214.476 21.2682 214.064 22.017V34.4984H210.95V17.3819H213.732ZM236.453 34.8306C234.071 34.8306 232.176 34.037 230.769 32.4498C229.362 30.8626 228.658 28.8035 228.658 26.2724V25.5763C228.658 23.1401 229.383 21.1126 230.832 19.4938C232.282 17.8749 233.997 17.0655 235.979 17.0655C238.288 17.0655 240.032 17.7615 241.213 19.1537C242.393 20.5458 242.984 22.4019 242.984 24.7221V26.6678H231.884L231.836 26.7469C231.868 28.3922 232.284 29.7447 233.086 30.8046C233.887 31.8645 235.009 32.3945 236.453 32.3945C237.507 32.3945 238.432 32.2442 239.228 31.9436C240.024 31.643 240.712 31.2291 241.292 30.7018L242.509 32.7267C241.898 33.3278 241.091 33.8287 240.09 34.2295C239.089 34.6303 237.876 34.8306 236.453 34.8306ZM235.979 19.5175C234.936 19.5175 234.045 19.9578 233.307 20.8384C232.569 21.719 232.116 22.8238 231.947 24.1526L231.979 24.2317H239.869V23.8204C239.869 22.597 239.542 21.574 238.889 20.7514C238.235 19.9288 237.265 19.5175 235.979 19.5175ZM251.506 28.1549L252.06 30.3063H252.154L256.36 17.3819H259.823L252.629 37.1244C252.197 38.274 251.577 39.2759 250.771 40.1301C249.965 40.9844 248.876 41.4115 247.506 41.4115C247.253 41.4115 246.931 41.3825 246.541 41.3245C246.151 41.2665 245.851 41.2111 245.64 41.1584L245.956 38.7064C245.893 38.6958 246.08 38.7064 246.518 38.738C246.955 38.7697 247.232 38.7855 247.348 38.7855C248.012 38.7855 248.555 38.4902 248.976 37.8996C249.398 37.309 249.751 36.6551 250.036 35.938L250.779 34.1504L244.423 17.3819H247.901L251.506 28.1549Z" fill="white"/>
<path fill-rule="evenodd" clip-rule="evenodd" d="M25.5232 13.3499C22.3305 11.6544 18.248 12.6606 16.4047 15.5974L8.47782 28.2264C6.63451 31.1631 7.72841 34.9183 10.9211 36.6139C14.1138 38.3094 18.1963 37.3032 20.0396 34.3664L27.9665 21.7375C29.8098 18.8007 28.7159 15.0455 25.5232 13.3499Z" fill="white"/>
<path fill-rule="evenodd" clip-rule="evenodd" d="M71.6612 34.1702C68.4685 35.8657 64.386 34.8595 62.5427 31.9227L48.3578 9.32351C46.5145 6.38676 47.6084 2.63154 50.8011 0.936006C53.9938 -0.759531 58.0763 0.246676 59.9197 3.18343L74.1045 25.7827C75.9478 28.7194 74.8539 32.4746 71.6612 34.1702Z" fill="white"/>
<path fill-rule="evenodd" clip-rule="evenodd" d="M31.2302 42.3664C34.4229 44.0619 38.5054 43.0557 40.3487 40.1189L59.7486 9.21115C61.5919 6.27439 60.498 2.51918 57.3053 0.82364C54.1126 -0.871896 50.0301 0.13431 48.1868 3.07107L28.7869 33.9788C26.9436 36.9156 28.0375 40.6708 31.2302 42.3664Z" fill="white"/>
<path fill-rule="evenodd" clip-rule="evenodd" d="M37.7637 42.7108C34.571 44.4063 30.4885 43.4001 28.6452 40.4633L16.6507 21.3537C14.8074 18.4169 15.9013 14.6617 19.094 12.9662C22.2867 11.2707 26.3692 12.2769 28.2125 15.2136L40.207 34.3233C42.0504 37.26 40.9565 41.0152 37.7637 42.7108Z" fill="white"/>
<rect y="36.9233" width="12.3016" height="12.3078" rx="6.15081" fill="white"/>
</svg>
