<svg width="10" height="10" viewBox="0 0 10 10" fill="none" xmlns="http://www.w3.org/2000/svg">
<path fill-rule="evenodd" clip-rule="evenodd" d="M5 10C7.76142 10 10 7.76142 10 5C10 2.23858 7.76142 0 5 0C2.23858 0 0 2.23858 0 5C0 7.76142 2.23858 10 5 10Z" fill="#B1B1B1"/>
<path d="M5.45703 8H4.53906V3.67969H5.45703V8ZM4.48438 2.53516C4.48438 2.37109 4.52865 2.24479 4.61719 2.15625C4.70833 2.06771 4.83724 2.02344 5.00391 2.02344C5.16536 2.02344 5.29036 2.06771 5.37891 2.15625C5.47005 2.24479 5.51562 2.37109 5.51562 2.53516C5.51562 2.69141 5.47005 2.8151 5.37891 2.90625C5.29036 2.99479 5.16536 3.03906 5.00391 3.03906C4.83724 3.03906 4.70833 2.99479 4.61719 2.90625C4.52865 2.8151 4.48438 2.69141 4.48438 2.53516Z" fill="white"/>
</svg>
