<svg width="16" height="20" viewBox="0 0 16 20" fill="none" xmlns="http://www.w3.org/2000/svg">
<path d="M5.13 6.63333C4.37333 6.43667 4.13 6.23333 4.13 5.91667C4.13 5.55333 4.46666 5.3 5.03 5.3C5.62333 5.3 5.84333 5.58333 5.86333 6H6.6C6.57666 5.42667 6.22666 4.9 5.53 4.73V4H4.53V4.72C3.88333 4.86 3.36333 5.28 3.36333 5.92333C3.36333 6.69333 4 7.07667 4.93 7.3C5.76333 7.5 5.93 7.79333 5.93 8.10333C5.93 8.33333 5.76666 8.7 5.03 8.7C4.34333 8.7 4.07333 8.39333 4.03666 8H3.30333C3.34333 8.73 3.89 9.14 4.53 9.27667V10H5.53V9.28333C6.18 9.16 6.69666 8.78333 6.69666 8.1C6.69666 7.15333 5.88666 6.83 5.13 6.63333Z" fill="#4573ff"/>
<path fill-rule="evenodd" clip-rule="evenodd" d="M2 0H10L16 6V18C16 19.1 15.1 20 14 20H1.99C0.89 20 0 19.1 0 18L0.01 2C0.01 0.9 0.9 0 2 0ZM2 2V18H14V7H9V2H2Z" fill="#4573ff"/>
<path fill-rule="evenodd" clip-rule="evenodd" d="M5.125 11.25H11.875V12L5.125 12.0037V11.25ZM11.875 13.1287L5.125 13.125V13.875H11.875V13.1287ZM5.125 15H9.625V15.75H5.125V15Z" fill="#4573ff"/>
</svg>
