<svg width="30" height="22" viewBox="0 0 30 22" fill="none" xmlns="http://www.w3.org/2000/svg">
<path fill-rule="evenodd" clip-rule="evenodd" d="M11 3.66666C8.97413 3.66666 7.33329 5.30749 7.33329 7.33332C7.33329 9.35916 8.97413 11 11 11C13.0258 11 14.6666 9.35916 14.6666 7.33332C14.6666 5.30749 13.0258 3.66666 11 3.66666ZM12.8333 7.33332C12.8333 6.32499 12.0083 5.49999 11 5.49999C9.99163 5.49999 9.16663 6.32499 9.16663 7.33332C9.16663 8.34166 9.99163 9.16666 11 9.16666C12.0083 9.16666 12.8333 8.34166 12.8333 7.33332ZM16.5 15.5833C16.3166 14.9325 13.475 13.75 11 13.75C8.52496 13.75 5.68329 14.9325 5.49996 15.5925V16.5H16.5V15.5833ZM3.66663 15.5833C3.66663 13.145 8.55246 11.9167 11 11.9167C13.4475 11.9167 18.3333 13.145 18.3333 15.5833V18.3333H3.66663V15.5833Z" fill="#333333"/>
<path fill-rule="evenodd" clip-rule="evenodd" d="M21.2088 5.66166L20.3746 4.96832L17.4442 8.49999L20.3746 12.0317L21.2088 11.3383L18.8525 8.49999L21.2088 5.66166ZM20.7917 9.04166H21.8751V7.95833H20.7917V9.04166ZM25.1251 7.95833H26.2084V9.04166H25.1251V7.95833ZM22.9584 9.04166H24.0417V7.95833H22.9584V9.04166ZM25.7913 5.66166L26.6255 4.96832L29.5559 8.49999L26.6255 12.0317L25.7913 11.3383L28.1476 8.49999L25.7913 5.66166Z" fill="#333333"/>
</svg>
