<?xml version="1.0" encoding="UTF-8"?>
<svg width="24px" height="24px" viewBox="0 0 24 24" version="1.1" xmlns="http://www.w3.org/2000/svg" xmlns:xlink="http://www.w3.org/1999/xlink">
    <!-- Generator: Sketch 53.2 (72643) - https://sketchapp.com -->
    <title>dash_safe_box_icon</title>
    <desc>Created with Sketch.</desc>
    <g id="Prototype-Flow-🌊" stroke="none" stroke-width="1" fill="none" fill-rule="evenodd">
        <path d="M2,18 L4,18 L4,17 L2,17 L2,18 Z M2,20 L2,22 L22,22 L22,2 L2,2 L2,4 L4,4 L20,4 L20,20 L6,20 L2,20 Z M2,15 L4,15 L4,9 L2,9 L2,15 Z M6,17 L6,18 L18,18 L18,6 L6,6 L6,7 L6,9 L6,15 L6,17 Z M2,7 L4,7 L4,6 L2,6 L2,7 Z M0,0 L24,0 L24,24 L0,24 L0,0 Z M12,14 C13.1045695,14 14,13.1045695 14,12 C14,10.8954305 13.1045695,10 12,10 C10.8954305,10 10,10.8954305 10,12 C10,13.1045695 10.8954305,14 12,14 Z M12,16 C9.790861,16 8,14.209139 8,12 C8,9.790861 9.790861,8 12,8 C14.209139,8 16,9.790861 16,12 C16,14.209139 14.209139,16 12,16 Z" id="dash_safe_box_icon" fill="#000000" fill-rule="nonzero"></path>
    </g>
</svg>