<svg width="40" height="40" viewBox="0 0 40 40" fill="none" xmlns="http://www.w3.org/2000/svg">
<g id="icon/action/https_24px">
<path id="icon/action/https_24px_2" fill-rule="evenodd" clip-rule="evenodd" d="M28.3327 14.1667H29.9993C31.8327 14.1667 33.3327 15.6667 33.3327 17.5V34.1667C33.3327 36 31.8327 37.5 29.9993 37.5H9.99935C8.16602 37.5 6.66602 36 6.66602 34.1667V17.5C6.66602 15.6667 8.16602 14.1667 9.99935 14.1667H11.666V10.8333C11.666 6.23333 15.3993 2.5 19.9993 2.5C24.5993 2.5 28.3327 6.23333 28.3327 10.8333V14.1667ZM19.9993 5.83333C17.2327 5.83333 14.9993 8.06667 14.9993 10.8333V14.1667H24.9993V10.8333C24.9993 8.06667 22.766 5.83333 19.9993 5.83333ZM9.99935 34.1667V17.5H29.9993V34.1667H9.99935ZM23.3327 25.8333C23.3327 27.6667 21.8327 29.1667 19.9993 29.1667C18.166 29.1667 16.666 27.6667 16.666 25.8333C16.666 24 18.166 22.5 19.9993 22.5C21.8327 22.5 23.3327 24 23.3327 25.8333Z" fill="white"/>
</g>
</svg>
