<svg width="16" height="20" viewBox="0 0 16 20" fill="none" xmlns="http://www.w3.org/2000/svg">
<path fill-rule="evenodd" clip-rule="evenodd" d="M2 0H10L16 6V18C16 19.1 15.1 20 14 20H1.99C0.89 20 0 19.1 0 18L0.01 2C0.01 0.9 0.9 0 2 0ZM2 2V18H14V7H9V2H2Z" fill="#4573ff"/>
<path d="M6.1625 7.54167C5.21666 7.29583 4.9125 7.04167 4.9125 6.64583C4.9125 6.19167 5.33333 5.875 6.0375 5.875C6.77916 5.875 7.05416 6.22917 7.07916 6.75H8C7.97083 6.03333 7.53333 5.375 6.6625 5.1625V4.25H5.4125V5.15C4.60416 5.325 3.95416 5.85 3.95416 6.65417C3.95416 7.61667 4.75 8.09583 5.9125 8.375C6.95416 8.625 7.1625 8.99167 7.1625 9.37917C7.1625 9.66667 6.95833 10.125 6.0375 10.125C5.17916 10.125 4.84166 9.74167 4.79583 9.25H3.87916C3.92916 10.1625 4.6125 10.675 5.4125 10.8458V11.75H6.6625V10.8542C7.475 10.7 8.12083 10.2292 8.12083 9.375C8.12083 8.19167 7.10833 7.7875 6.1625 7.54167Z" fill="#4573ff"/>
<path d="M6.125 14.875H11.4388L10.0963 16.2213L10.625 16.75L12.875 14.5L10.625 12.25L10.0963 12.7787L11.4388 14.125L6.125 14.125V14.875Z" fill="#4573ff"/>
</svg>
