<svg width="15" height="20" viewBox="0 0 15 20" fill="none" xmlns="http://www.w3.org/2000/svg">
<path d="M8.61358 3.17917C7.9515 3.00708 7.73858 2.82917 7.73858 2.55208C7.73858 2.23417 8.03317 2.0125 8.52608 2.0125C9.04525 2.0125 9.23775 2.26042 9.25525 2.625H9.89983C9.87942 2.12333 9.57317 1.6625 8.96358 1.51375V0.875H8.08858V1.505C7.52275 1.6275 7.06775 1.995 7.06775 2.55792C7.06775 3.23167 7.62483 3.56708 8.43858 3.7625C9.16775 3.9375 9.31358 4.19417 9.31358 4.46542C9.31358 4.66667 9.17067 4.9875 8.52608 4.9875C7.92525 4.9875 7.689 4.71917 7.65692 4.375H7.01525C7.05025 5.01375 7.52858 5.3725 8.08858 5.49208V6.125H8.96358V5.49792C9.53233 5.39 9.98442 5.06042 9.98442 4.4625C9.98442 3.63417 9.27567 3.35125 8.61358 3.17917Z" fill="#4573ff"/>
<path d="M1.479 12.3267L5.729 8.32L8.56234 10.9867L14.5832 4.61333L13.5844 3.67333L8.56234 8.98667L5.729 6.32L0.416504 11.3267L1.479 12.3267Z" fill="#4573ff"/>
<path d="M10.9998 11H13.9998V20H10.9998V11Z" fill="#4573ff"/>
<path d="M5.99984 13H8.99984V20H5.99984V13Z" fill="#4573ff"/>
<path d="M0.999837 15H3.99984V20H0.999837V15Z" fill="#4573ff"/>
</svg>
