<svg width="22" height="18" viewBox="0 0 22 18" fill="none" xmlns="http://www.w3.org/2000/svg">
<path fill-rule="evenodd" clip-rule="evenodd" d="M12.6132 4.66666C12.6132 3.92666 12.0625 3.33332 11.3757 3.33332H8.90053V1.99999C8.90053 1.25999 8.34981 0.666656 7.66296 0.666656H5.18783C4.50097 0.666656 3.95026 1.25999 3.95026 1.99999V3.33332H1.47512C0.788267 3.33332 0.243737 3.92666 0.243737 4.66666L0.237549 12C0.237549 12.74 0.788267 13.3333 1.47512 13.3333H11.3757C12.0625 13.3333 12.6132 12.74 12.6132 12V4.66666ZM7.66296 3.33332V1.99999H5.18782V3.33332H7.66296ZM1.47512 4.66666V12H11.3757V4.66666H1.47512Z" fill="#333333"/>
<path fill-rule="evenodd" clip-rule="evenodd" d="M16.5856 6.66666C15.1123 6.66666 13.9189 7.85999 13.9189 9.33332C13.9189 10.8067 15.1123 12 16.5856 12C18.0589 12 19.2523 10.8067 19.2523 9.33332C19.2523 7.85999 18.0589 6.66666 16.5856 6.66666ZM17.9189 9.33332C17.9189 8.59999 17.3189 7.99999 16.5856 7.99999C15.8523 7.99999 15.2523 8.59999 15.2523 9.33332C15.2523 10.0667 15.8523 10.6667 16.5856 10.6667C17.3189 10.6667 17.9189 10.0667 17.9189 9.33332ZM20.5856 15.3333C20.4523 14.86 18.3856 14 16.5856 14C14.7856 14 12.7189 14.86 12.5856 15.34V16H20.5856V15.3333ZM11.2523 15.3333C11.2523 13.56 14.8056 12.6667 16.5856 12.6667C18.3656 12.6667 21.9189 13.56 21.9189 15.3333V17.3333H11.2523V15.3333Z" fill="#333333"/>
</svg>
