<svg width="15" height="16" viewBox="0 0 15 16" fill="none" xmlns="http://www.w3.org/2000/svg">
<path fill-rule="evenodd" clip-rule="evenodd" d="M15 4.84737C15 3.95061 14.3325 3.23158 13.5 3.23158H10.5V1.61579C10.5 0.719026 9.8325 0 9 0H6C5.1675 0 4.5 0.719026 4.5 1.61579V3.23158H1.5C0.6675 3.23158 0.0075 3.95061 0.0075 4.84737L0 13.7342C0 14.631 0.6675 15.35 1.5 15.35H13.5C14.3325 15.35 15 14.631 15 13.7342V4.84737ZM9 3.23161V1.61582H6V3.23161H9ZM1.5 4.8474V13.7342H13.5V4.8474H1.5Z" fill="#4573ff"/>
</svg>
