<svg width="80" height="80" viewBox="0 0 80 80" fill="none" xmlns="http://www.w3.org/2000/svg">
<g filter="url(#filter0_d)">
<circle cx="40" cy="35" r="30" fill="#52479c"/>
</g>
<path d="M42.084 50H37.9531V30.5586H42.084V50ZM37.707 25.4082C37.707 24.6699 37.9062 24.1016 38.3047 23.7031C38.7148 23.3047 39.2949 23.1055 40.0449 23.1055C40.7715 23.1055 41.334 23.3047 41.7324 23.7031C42.1426 24.1016 42.3477 24.6699 42.3477 25.4082C42.3477 26.1113 42.1426 26.668 41.7324 27.0781C41.334 27.4766 40.7715 27.6758 40.0449 27.6758C39.2949 27.6758 38.7148 27.4766 38.3047 27.0781C37.9062 26.668 37.707 26.1113 37.707 25.4082Z" fill="white"/>
<defs>
<filter id="filter0_d" x="0" y="0" width="80" height="80" filterUnits="userSpaceOnUse" color-interpolation-filters="sRGB">
<feFlood flood-opacity="0" result="BackgroundImageFix"/>
<feColorMatrix in="SourceAlpha" type="matrix" values="0 0 0 0 0 0 0 0 0 0 0 0 0 0 0 0 0 0 127 0"/>
<feOffset dy="5"/>
<feGaussianBlur stdDeviation="5"/>
<feColorMatrix type="matrix" values="0 0 0 0 0 0 0 0 0 0 0 0 0 0 0 0 0 0 0.1 0"/>
<feBlend mode="normal" in2="BackgroundImageFix" result="effect1_dropShadow"/>
<feBlend mode="normal" in="SourceGraphic" in2="effect1_dropShadow" result="shape"/>
</filter>
</defs>
</svg>
