<svg width="80" height="80" viewBox="0 0 80 80" fill="none" xmlns="http://www.w3.org/2000/svg">
<g filter="url(#filter0_d)">
<circle cx="40" cy="35" r="30" fill="#F85752"/>
</g>
<path d="M41.6406 43.5547H39.1797L37.9844 18.7344H42.8359L41.6406 43.5547ZM37.5625 50.5156C37.5625 48.3906 38.5 47.3281 40.375 47.3281C41.2812 47.3281 41.9766 47.6016 42.4609 48.1484C42.9609 48.6953 43.2109 49.4844 43.2109 50.5156C43.2109 51.5156 42.9609 52.2969 42.4609 52.8594C41.9609 53.4062 41.2656 53.6797 40.375 53.6797C39.5625 53.6797 38.8906 53.4375 38.3594 52.9531C37.8281 52.4531 37.5625 51.6406 37.5625 50.5156Z" fill="white"/>
<defs>
<filter id="filter0_d" x="0" y="0" width="80" height="80" filterUnits="userSpaceOnUse" color-interpolation-filters="sRGB">
<feFlood flood-opacity="0" result="BackgroundImageFix"/>
<feColorMatrix in="SourceAlpha" type="matrix" values="0 0 0 0 0 0 0 0 0 0 0 0 0 0 0 0 0 0 127 0"/>
<feOffset dy="5"/>
<feGaussianBlur stdDeviation="5"/>
<feColorMatrix type="matrix" values="0 0 0 0 0 0 0 0 0 0 0 0 0 0 0 0 0 0 0.1 0"/>
<feBlend mode="normal" in2="BackgroundImageFix" result="effect1_dropShadow"/>
<feBlend mode="normal" in="SourceGraphic" in2="effect1_dropShadow" result="shape"/>
</filter>
</defs>
</svg>
